<svg id="Layer_1" data-name="Layer 1" xmlns="http://www.w3.org/2000/svg" viewBox="0 0 135.93 135.93"><defs><style>.cls-1{fill:#5b8aba;}.cls-2{opacity:0.9;}.cls-3{fill:#82bb66;}</style></defs><title>abacus</title><path class="cls-1" d="M118.47,113.4h-2.1V53.15c0-1.94-.79-3.53-1.76-3.53s-1.76,1.59-1.76,3.53v13H56.74V53.41c0-1.94-.79-3.53-1.76-3.53h0c-1,0-1.76,1.59-1.76,3.53v60H51.61c-3,0-5.38,1.59-5.38,3.53h0c0,1.94,2.42,3.53,5.38,3.53h66.87c3,0,5.38-1.59,5.38-3.53h0C123.86,115,121.43,113.4,118.47,113.4Zm-5.63-17.86H56.74v-7h56.11Zm0-9H56.74V78.29h56.11ZM56.74,97.48h56.11v7H56.74Zm56.11-29.42v8.29H56.74V68.05ZM56.74,106.41h56.11v7H56.74Z" transform="translate(-17.07 -17.07)"/><g class="cls-2"><circle class="cls-3" cx="58.4" cy="60.24" r="3"/><circle class="cls-3" cx="86.48" cy="50.01" r="3"/><circle class="cls-3" cx="78.65" cy="60.43" r="3"/><circle class="cls-3" cx="86.9" cy="60.43" r="3"/><circle class="cls-3" cx="50.33" cy="50.38" r="3"/><circle class="cls-3" cx="84.65" cy="70.48" r="3"/><circle class="cls-3" cx="50.33" cy="88.36" r="3"/><circle class="cls-3" cx="58.4" cy="88.36" r="3"/><circle class="cls-3" cx="66.84" cy="88.36" r="3"/><circle class="cls-3" cx="74.99" cy="88.36" r="3"/><circle class="cls-3" cx="50.33" cy="70.48" r="3"/><circle class="cls-3" cx="58.4" cy="70.48" r="3"/><circle class="cls-3" cx="66.84" cy="70.48" r="3"/><circle class="cls-3" cx="50.33" cy="79.43" r="3"/><circle class="cls-3" cx="58.4" cy="79.43" r="3"/><circle class="cls-3" cx="66.84" cy="79.43" r="3"/><circle class="cls-3" cx="74.77" cy="79.43" r="3"/><circle class="cls-3" cx="50.33" cy="60.43" r="3"/><circle class="cls-3" cx="89.06" cy="67.08" r="3" transform="translate(-39.15 59.04) rotate(-41.63)"/><circle class="cls-3" cx="96.31" cy="67.08" r="3" transform="translate(-37.32 63.85) rotate(-41.63)"/></g><path class="cls-1" d="M85,153a68,68,0,1,1,68-68A68,68,0,0,1,85,153ZM85,19.34A65.7,65.7,0,1,0,150.74,85,65.77,65.77,0,0,0,85,19.34Z" transform="translate(-17.07 -17.07)"/></svg>