<svg id="Layer_1" data-name="Layer 1" xmlns="http://www.w3.org/2000/svg" viewBox="0 0 135.93 135.93"><defs><style>.cls-1{fill:#5b8aba;}.cls-2{fill:#82bb66;}</style></defs><title>abacus</title><path class="cls-1" d="M125.09,116.63h-2.51V44.47c0-2.32-1-4.23-2.11-4.23s-2.11,1.9-2.11,4.23V60H51.14V44.78c0-2.32-1-4.23-2.11-4.23h0c-1.16,0-2.11,1.9-2.11,4.23v71.85H45c-3.55,0-6.45,1.9-6.45,4.23h0c0,2.32,2.9,4.23,6.45,4.23h80.09c3.55,0,6.45-1.9,6.45-4.23h0C131.53,118.54,128.63,116.63,125.09,116.63Zm-6.74-21.4H51.14v-8.4h67.2Zm0-10.72H51.14V74.58h67.2Zm-67.2,13h67.2v8.37H51.14Zm67.2-35.24v9.93H51.14V62.32Zm-67.2,45.94h67.2v8.37H51.14Z" transform="translate(-17.07 -17.07)"/><circle class="cls-2" cx="56.51" cy="56.34" r="3.59"/><circle class="cls-2" cx="90.14" cy="44.08" r="3.59"/><circle class="cls-2" cx="80.76" cy="56.56" r="3.59"/><circle class="cls-2" cx="90.64" cy="56.56" r="3.59"/><circle class="cls-2" cx="46.84" cy="44.52" r="3.59"/><circle class="cls-2" cx="87.95" cy="68.6" r="3.59"/><circle class="cls-2" cx="46.84" cy="90.02" r="3.59"/><circle class="cls-2" cx="56.51" cy="90.02" r="3.59"/><circle class="cls-2" cx="66.61" cy="90.02" r="3.59"/><circle class="cls-2" cx="76.38" cy="90.02" r="3.59"/><circle class="cls-2" cx="46.84" cy="68.6" r="3.59"/><circle class="cls-2" cx="56.51" cy="68.6" r="3.59"/><circle class="cls-2" cx="66.61" cy="68.6" r="3.59"/><circle class="cls-2" cx="46.84" cy="79.32" r="3.59"/><circle class="cls-2" cx="56.51" cy="79.32" r="3.59"/><circle class="cls-2" cx="66.61" cy="79.32" r="3.59"/><circle class="cls-2" cx="76.11" cy="79.32" r="3.59"/><circle class="cls-2" cx="46.84" cy="56.56" r="3.59"/><circle class="cls-2" cx="89.86" cy="61.16" r="3.59" transform="translate(-35.01 58.07) rotate(-41.63)"/><circle class="cls-2" cx="98.54" cy="61.16" r="3.59" transform="translate(-32.82 63.84) rotate(-41.63)"/><path class="cls-1" d="M85,153a68,68,0,1,1,68-68A68,68,0,0,1,85,153ZM85,19.34A65.7,65.7,0,1,0,150.74,85,65.77,65.77,0,0,0,85,19.34Z" transform="translate(-17.07 -17.07)"/></svg>