<svg id="Layer_1" data-name="Layer 1" xmlns="http://www.w3.org/2000/svg" viewBox="0 0 135.93 135.93"><defs><style>.cls-1{fill:#82bb66;}.cls-2{fill:#5b8aba;}.cls-3{fill:#fefeff;}</style></defs><title>advisory</title><circle class="cls-1" cx="31.61" cy="42.05" r="10.91"/><rect class="cls-1" x="23.35" y="55.85" width="16.52" height="40.41" rx="8.26" ry="8.26"/><rect class="cls-1" x="46.65" y="81.51" width="13.86" height="32.39" rx="6.21" ry="6.21"/><rect class="cls-1" x="25.71" y="81.51" width="34.81" height="14.75" rx="6.74" ry="6.74"/><circle class="cls-1" cx="104.32" cy="42.05" r="10.91"/><rect class="cls-1" x="113.14" y="72.92" width="16.52" height="40.41" rx="8.26" ry="8.26" transform="translate(225.72 169.18) rotate(180)"/><rect class="cls-1" x="92.49" y="98.59" width="13.86" height="32.39" rx="6.21" ry="6.21" transform="translate(181.76 212.49) rotate(-180)"/><rect class="cls-1" x="92.49" y="98.59" width="34.81" height="14.75" rx="6.74" ry="6.74" transform="translate(202.71 194.85) rotate(180)"/><circle class="cls-2" cx="68.47" cy="32.94" r="10.91"/><rect class="cls-2" x="52.48" y="47.63" width="31.98" height="33.98" rx="10.96" ry="10.96"/><polygon class="cls-3" points="68.43 66.69 66.27 60.98 67.09 51.73 69.77 51.73 70.59 60.98 68.43 66.69"/><rect class="cls-3" x="66.64" y="48.53" width="3.64" height="1.87" rx="0.84" ry="0.84"/><path class="cls-2" d="M85,153a68,68,0,1,1,68-68A68,68,0,0,1,85,153ZM85,19.34A65.7,65.7,0,1,0,150.74,85,65.77,65.77,0,0,0,85,19.34Z" transform="translate(-17.07 -17.07)"/></svg>