<svg id="Layer_1" data-name="Layer 1" xmlns="http://www.w3.org/2000/svg" viewBox="0 0 135.93 135.93"><defs><style>.cls-1{opacity:0.8;}.cls-2{fill:#82bb66;}.cls-3{fill:#5b8aba;}.cls-4{fill:#fefeff;}</style></defs><title>advisory</title><g class="cls-1"><circle class="cls-2" cx="35.88" cy="45.09" r="9.63"/><rect class="cls-2" x="28.59" y="57.27" width="14.58" height="35.67" rx="7.29" ry="7.29"/><rect class="cls-2" x="49.16" y="79.92" width="12.24" height="28.58" rx="5.48" ry="5.48"/><rect class="cls-2" x="30.67" y="79.92" width="30.72" height="13.02" rx="5.95" ry="5.95"/></g><g class="cls-1"><circle class="cls-2" cx="100.05" cy="45.09" r="9.63"/><rect class="cls-2" x="109.84" y="74.35" width="14.58" height="35.67" rx="7.29" ry="7.29" transform="translate(217.17 167.28) rotate(180)"/><rect class="cls-2" x="91.61" y="97" width="12.24" height="28.58" rx="5.48" ry="5.48" transform="translate(178.39 205.5) rotate(-180)"/><rect class="cls-2" x="91.61" y="97" width="30.72" height="13.02" rx="5.95" ry="5.95" transform="translate(196.87 189.93) rotate(180)"/></g><circle class="cls-3" cx="68.41" cy="37.06" r="9.63"/><rect class="cls-3" x="54.3" y="50.02" width="28.22" height="29.99" rx="9.67" ry="9.67"/><polygon class="cls-4" points="68.37 66.84 66.47 61.8 67.19 53.64 69.55 53.64 70.28 61.8 68.37 66.84"/><rect class="cls-4" x="66.8" y="50.81" width="3.22" height="1.65" rx="0.74" ry="0.74"/><path class="cls-3" d="M85,153a68,68,0,1,1,68-68A68,68,0,0,1,85,153ZM85,19.34A65.7,65.7,0,1,0,150.74,85,65.77,65.77,0,0,0,85,19.34Z" transform="translate(-17.07 -17.07)"/></svg>