<svg id="Layer_1" data-name="Layer 1" xmlns="http://www.w3.org/2000/svg" viewBox="0 0 135.93 135.93"><defs><style>.cls-1{fill:#5b8aba;}.cls-2{fill:none;stroke:#5b8aba;stroke-miterlimit:10;stroke-width:2.27px;}.cls-3{fill:#fff;}.cls-4{fill:#82bb66;}</style></defs><title>audit</title><path class="cls-1" d="M85,153a68,68,0,1,1,68-68A68,68,0,0,1,85,153ZM85,19.34A65.7,65.7,0,1,0,150.74,85,65.77,65.77,0,0,0,85,19.34Z" transform="translate(-17.07 -17.07)"/><rect class="cls-2" x="37.53" y="34.41" width="60.86" height="80.07" rx="2.83" ry="2.83"/><rect class="cls-1" x="55.58" y="28.16" width="24.99" height="11.8" rx="2.83" ry="2.83"/><circle class="cls-1" cx="68.08" cy="29.2" r="7.75"/><circle class="cls-3" cx="68.08" cy="29.2" r="4.86"/><rect class="cls-4" x="51.89" y="74.95" width="39.36" height="1.61" rx="0.72" ry="0.72"/><rect class="cls-4" x="67.51" y="55.18" width="22.63" height="1.61" rx="0.55" ry="0.55"/><rect class="cls-4" x="67.51" y="61.57" width="22.63" height="1.61" rx="0.55" ry="0.55"/><rect class="cls-4" x="67.51" y="68.26" width="22.63" height="1.61" rx="0.55" ry="0.55"/><rect class="cls-4" x="67.51" y="83.55" width="22.63" height="1.61" rx="0.55" ry="0.55"/><rect class="cls-4" x="67.51" y="89.93" width="22.63" height="1.61" rx="0.55" ry="0.55"/><rect class="cls-4" x="67.51" y="96.62" width="22.63" height="1.61" rx="0.55" ry="0.55"/><rect class="cls-4" x="51.89" y="45.99" width="39.36" height="1.61" rx="0.72" ry="0.72"/><rect class="cls-4" x="51.89" y="103.91" width="39.36" height="1.61" rx="0.72" ry="0.72"/><circle class="cls-4" cx="54.18" cy="90.24" r="9.27"/><path class="cls-3" d="M65.18,108.33a32.54,32.54,0,0,1,2.41,4,1.52,1.52,0,0,0,2.59,0,80.69,80.69,0,0,1,7.23-8.49c1.32-1.41-.8-3.53-2.12-2.12a86.21,86.21,0,0,0-7.7,9.09h2.59a32.54,32.54,0,0,0-2.41-4c-1.1-1.57-3.7-.07-2.59,1.51Z" transform="translate(-17.07 -17.07)"/><circle class="cls-4" cx="54.34" cy="61.28" r="9.27"/><path class="cls-3" d="M65.34,79.37a32.54,32.54,0,0,1,2.41,4,1.52,1.52,0,0,0,2.59,0,80.69,80.69,0,0,1,7.23-8.49c1.32-1.41-.8-3.53-2.12-2.12a86.21,86.21,0,0,0-7.7,9.09h2.59a32.54,32.54,0,0,0-2.41-4c-1.1-1.57-3.7-.07-2.59,1.51Z" transform="translate(-17.07 -17.07)"/></svg>