<svg id="Layer_1" data-name="Layer 1" xmlns="http://www.w3.org/2000/svg" viewBox="0 0 135.93 135.93"><defs><style>.cls-1{fill:#5b8aba;}.cls-2{fill:#fff;}.cls-3{fill:#82bb66;}</style></defs><title>audit</title><path class="cls-1" d="M85,153a68,68,0,1,1,68-68A68,68,0,0,1,85,153ZM85,19.34A65.7,65.7,0,1,0,150.74,85,65.77,65.77,0,0,0,85,19.34Z" transform="translate(-17.07 -17.07)"/><path class="cls-1" d="M105,40.73h-3.77a4.48,4.48,0,0,0-3.71-2h-2.9c0-.24,0-.48,0-.73a9.66,9.66,0,0,0-19.31,0c0,.25,0,.49,0,.73h-2.9a4.48,4.48,0,0,0-3.71,2H65A14.14,14.14,0,0,0,50.91,54.86v60.36A14.14,14.14,0,0,0,65,129.35h40a14.14,14.14,0,0,0,14.13-14.13V54.86A14.14,14.14,0,0,0,105,40.73ZM81.05,38a4,4,0,1,1,7.9.73H81.13A4,4,0,0,1,81.05,38Zm33.86,77.2A9.89,9.89,0,0,1,105,125.1H65a9.89,9.89,0,0,1-9.87-9.87V54.86A9.89,9.89,0,0,1,65,45H68.4a4.49,4.49,0,0,0,4.12,2.72h25A4.49,4.49,0,0,0,101.68,45H105a9.89,9.89,0,0,1,9.87,9.87Z" transform="translate(-17.07 -17.07)"/><circle class="cls-2" cx="67.97" cy="20.95" r="4.45"/><rect class="cls-3" x="50.81" y="68.84" width="43.21" height="1.77" rx="0.79" ry="0.79"/><rect class="cls-3" x="67.97" y="47.14" width="24.84" height="1.77" rx="0.6" ry="0.6"/><rect class="cls-3" x="67.97" y="54.15" width="24.84" height="1.77" rx="0.6" ry="0.6"/><rect class="cls-3" x="67.97" y="61.5" width="24.84" height="1.77" rx="0.6" ry="0.6"/><rect class="cls-3" x="67.97" y="78.28" width="24.84" height="1.77" rx="0.6" ry="0.6"/><rect class="cls-3" x="67.97" y="85.28" width="24.84" height="1.77" rx="0.6" ry="0.6"/><rect class="cls-3" x="67.97" y="92.63" width="24.84" height="1.77" rx="0.6" ry="0.6"/><rect class="cls-3" x="50.81" y="37.05" width="43.21" height="1.77" rx="0.79" ry="0.79"/><rect class="cls-3" x="50.81" y="100.63" width="43.21" height="1.77" rx="0.79" ry="0.79"/><circle class="cls-3" cx="53.34" cy="85.62" r="10.18"/><path class="cls-2" d="M63.87,103.74a35.72,35.72,0,0,1,2.65,4.44,1.52,1.52,0,0,0,2.59,0,88.83,88.83,0,0,1,8-9.34c1.32-1.41-.8-3.53-2.12-2.12a94.36,94.36,0,0,0-8.43,10H69.1a35.72,35.72,0,0,0-2.65-4.44c-1.1-1.57-3.7-.07-2.59,1.51Z" transform="translate(-17.07 -17.07)"/><circle class="cls-3" cx="53.51" cy="53.83" r="10.18"/><path class="cls-2" d="M64,72a35.72,35.72,0,0,1,2.65,4.44,1.52,1.52,0,0,0,2.59,0,88.83,88.83,0,0,1,8-9.34c1.32-1.41-.8-3.53-2.12-2.12a94.36,94.36,0,0,0-8.43,10h2.59a35.72,35.72,0,0,0-2.65-4.44c-1.1-1.57-3.7-.07-2.59,1.51Z" transform="translate(-17.07 -17.07)"/></svg>