<svg id="Layer_1" data-name="Layer 1" xmlns="http://www.w3.org/2000/svg" viewBox="0 0 135.93 135.93"><defs><style>.cls-1{fill:none;stroke:#4c81a6;stroke-miterlimit:10;stroke-width:2.27px;}.cls-2{fill:#82bb66;}.cls-3{fill:#5a89b9;}</style></defs><title>ourteam-08</title><circle class="cls-1" cx="67.97" cy="67.97" r="66.83"/><path class="cls-3" d="M68.76,70.69c2.95.22,6,.08,8.83.72,7.39,1.66,12.12,8,12.24,15.88.06,3.58-.05,7.17,0,10.76a2.19,2.19,0,0,1-1.62,2.43,49.24,49.24,0,0,1-18.81,3.21,70.37,70.37,0,0,1-20.51-3.32c-.63-.19-1.55-.93-1.55-1.42a129.39,129.39,0,0,1,.27-14.25,15.47,15.47,0,0,1,15.1-13.77c2-.08,4,0,6,0Z" transform="translate(-0.03 -0.03)"/><path class="cls-2" d="M57.89,68.66C47.72,72.54,43.83,80.17,44.4,90.83c-2.75-.34-5.33-.51-7.84-1-3.3-.65-6.56-1.5-9.79-2.42a2.21,2.21,0,0,1-1.26-1.64c0-4.54-.1-9.09.26-13.61a15.47,15.47,0,0,1,14.79-14c3.71-.15,7.43-.1,11.15,0,.56,0,1.56.59,1.6,1A16.06,16.06,0,0,0,57.89,68.66Z" transform="translate(-0.03 -0.03)"/><path class="cls-2" d="M79.31,68.67c2.52-2.85,4.26-5.91,4.53-9.65,0-.34.55-.93.83-.92,4.67.13,9.48-.31,14,.66,7.31,1.58,11.58,7.78,11.81,15.74q.16,5.48,0,11a2.75,2.75,0,0,1-1.29,2c-3.62,1.88-11.73,3.45-16.34,3.25C93.38,80.36,89.55,72.59,79.31,68.67Z" transform="translate(-0.03 -0.03)"/><path class="cls-3" d="M68.58,45.17A12.43,12.43,0,1,1,68.47,70a12.43,12.43,0,1,1,.11-24.86Z" transform="translate(-0.03 -0.03)"/><path class="cls-2" d="M34.32,44.52a12.42,12.42,0,0,1,24.82-.45,3.38,3.38,0,0,1-1,2.27,16.6,16.6,0,0,0-4.47,7.54A3.85,3.85,0,0,1,51.81,56,12.37,12.37,0,0,1,34.32,44.52Z" transform="translate(-0.03 -0.03)"/><path class="cls-2" d="M101.59,45c-.27,8.49-8.62,14.33-16.38,11.4a2.69,2.69,0,0,1-1.46-1.61A15.21,15.21,0,0,0,78.1,45.7,2.84,2.84,0,0,1,77,42.36c1.28-6.51,7.1-10.66,14-9.92C96.94,33.06,101.78,38.82,101.59,45Z" transform="translate(-0.03 -0.03)"/></svg>