<svg id="Layer_1" data-name="Layer 1" xmlns="http://www.w3.org/2000/svg" viewBox="0 0 135.93 135.93"><defs><style>.cls-1{fill:#5b8aba;}.cls-2{fill:#82bb66;}</style></defs><title>legal_services</title><path class="cls-1" d="M85,153a68,68,0,1,1,68-68A68,68,0,0,1,85,153ZM85,19.34A65.7,65.7,0,1,0,150.74,85,65.77,65.77,0,0,0,85,19.34Z" transform="translate(-17.07 -17.07)"/><path class="cls-2" d="M65.41,85.8,57.76,62.23v0a.77.77,0,0,0-.12-.21l0-.05a.75.75,0,0,0-.17-.13l-.09,0-.07,0h-.1l-.14,0-.14,0h-.1l-.07,0-.09,0a.75.75,0,0,0-.17.13l0,.05a.76.76,0,0,0-.12.21v0L48.64,85.8H47c0,4.72,4.49,8.55,10,8.55s10-3.83,10-8.55Zm-15.14,0L57,65,63.78,85.8Z" transform="translate(-17.07 -17.07)"/><path class="cls-2" d="M120.85,85.8,113.2,62.23v0a.77.77,0,0,0-.12-.21l0-.05a.75.75,0,0,0-.17-.13l-.09,0-.07,0h-.1l-.14,0-.14,0h-.1l-.07,0-.09,0a.75.75,0,0,0-.17.13l0,.05a.77.77,0,0,0-.12.21v0L104.07,85.8h-1.64c0,4.72,4.49,8.55,10,8.55s10-3.83,10-8.55Zm-15.14,0L112.46,65l6.75,20.79Z" transform="translate(-17.07 -17.07)"/><path class="cls-1" d="M124,60.15H91a6,6,0,1,0-11.93,0h-33a.72.72,0,0,0,0,1.44H79.26a6,6,0,0,0,3,3.84v48.39a2.77,2.77,0,0,0,.11.74H70.73a4.18,4.18,0,0,0-4.17,4.17v1a4.18,4.18,0,0,0,4.17,4.17H99.35a4.18,4.18,0,0,0,4.17-4.17v-1a4.18,4.18,0,0,0-4.17-4.17H87.8a2.77,2.77,0,0,0,.11-.74V65.38a6,6,0,0,0,2.91-3.79H124a.72.72,0,1,0,0-1.44Z" transform="translate(-17.07 -17.07)"/></svg>