<svg id="Layer_1" data-name="Layer 1" xmlns="http://www.w3.org/2000/svg" viewBox="0 0 170.08 170.08"><defs><style>.cls-1{fill:none;stroke:#4c81a6;stroke-miterlimit:10;stroke-width:2.27px;}.cls-2{fill:#82bb66;}</style></defs><title>references</title><circle class="cls-1" cx="85.04" cy="83.29" r="66.83"/><path class="cls-2" d="M80.44,46.6h29.82a2.37,2.37,0,0,0,2.36-2.36v0a2.37,2.37,0,0,0-2.36-2.36H80.44a2.37,2.37,0,0,0-2.36,2.36v0A2.35,2.35,0,0,0,80.44,46.6Z"/><path class="cls-2" d="M78.06,53.29a2.37,2.37,0,0,0,2.36,2.36h40.1a2.37,2.37,0,0,0,2.36-2.36v0a2.37,2.37,0,0,0-2.36-2.36H80.43a2.37,2.37,0,0,0-2.36,2.36v0Z"/><path class="cls-2" d="M78.06,62.33a2.37,2.37,0,0,0,2.36,2.36h40.1a2.37,2.37,0,0,0,2.36-2.36v0a2.37,2.37,0,0,0-2.36-2.36H80.43a2.37,2.37,0,0,0-2.36,2.36v0Z"/><path class="cls-2" d="M78.06,75.94a2.37,2.37,0,0,0,2.36,2.36h29.82a2.37,2.37,0,0,0,2.36-2.36v0a2.37,2.37,0,0,0-2.36-2.36H80.44a2.37,2.37,0,0,0-2.36,2.36v0Z"/><path class="cls-2" d="M78.06,85a2.37,2.37,0,0,0,2.36,2.36H102A2.37,2.37,0,0,0,104.33,85v0A2.37,2.37,0,0,0,102,82.59H80.44a2.37,2.37,0,0,0-2.36,2.36v0Z"/><path class="cls-2" d="M78.06,94a2.37,2.37,0,0,0,2.36,2.36h40.1A2.37,2.37,0,0,0,122.89,94v0a2.37,2.37,0,0,0-2.36-2.36H80.43A2.37,2.37,0,0,0,78.06,94v0Z"/><path class="cls-2" d="M78.06,109.52a2.29,2.29,0,0,0,2.29,2.29H119.3a2.29,2.29,0,0,0,2.29-2.29v0a2.29,2.29,0,0,0-2.29-2.29H80.36a2.29,2.29,0,0,0-2.29,2.29v0Z"/><path class="cls-2" d="M78.06,118.31a2.29,2.29,0,0,0,2.29,2.29h33.77a2.29,2.29,0,0,0,2.29-2.29v0a2.29,2.29,0,0,0-2.29-2.29H80.36a2.29,2.29,0,0,0-2.29,2.29v0Z"/><path class="cls-2" d="M78.06,127.1a2.29,2.29,0,0,0,2.29,2.29H95.77a2.29,2.29,0,0,0,2.29-2.29v0a2.29,2.29,0,0,0-2.29-2.29H80.36A2.29,2.29,0,0,0,78.06,127v0Z"/><path class="cls-2" d="M51.68,54.67V66.76H70.82V54.67a1.9,1.9,0,0,0-2-1.82H66.69a1.21,1.21,0,0,0-1,.46l-3.21,4.21L61.73,56,63,53.56a.51.51,0,0,0-.49-.72H60a.51.51,0,0,0-.49.72L60.74,56,60,57.5l-3.1-4.18a1.21,1.21,0,0,0-1-.47H53.61A1.88,1.88,0,0,0,51.68,54.67Z"/><path class="cls-2" d="M61.25,51.5a5.86,5.86,0,1,0-5.86-5.86A5.87,5.87,0,0,0,61.25,51.5Z"/><path class="cls-2" d="M51.68,98.46H70.82V86.38a1.9,1.9,0,0,0-2-1.82H66.69a1.21,1.21,0,0,0-1,.46l-3.21,4.21-.78-1.52L63,85.27a.51.51,0,0,0-.49-.72H60a.51.51,0,0,0-.49.72l1.24,2.44L60,89.21,56.87,85a1.21,1.21,0,0,0-1-.47H53.61a1.9,1.9,0,0,0-2,1.82l0,12.09Z"/><path class="cls-2" d="M55.39,77.34a5.86,5.86,0,1,0,5.86-5.86A5.87,5.87,0,0,0,55.39,77.34Z"/><path class="cls-2" d="M70.82,119.69a1.9,1.9,0,0,0-2-1.82H66.69a1.21,1.21,0,0,0-1,.46l-3.21,4.21L61.73,121,63,118.58a.51.51,0,0,0-.49-.72H60a.51.51,0,0,0-.49.72L60.74,121l-.77,1.5-3.1-4.18a1.21,1.21,0,0,0-1-.47H53.61a1.9,1.9,0,0,0-2,1.82v12.09H70.8l0-12.09Z"/><path class="cls-2" d="M55.39,110.66a5.86,5.86,0,1,0,5.86-5.86A5.87,5.87,0,0,0,55.39,110.66Z"/></svg>