<svg id="Layer_1" data-name="Layer 1" xmlns="http://www.w3.org/2000/svg" viewBox="0 0 135.93 135.93"><defs><style>.cls-1{fill:none;stroke:#4c81a6;stroke-miterlimit:10;stroke-width:2.27px;}.cls-2{fill:#82bb66;}</style></defs><title>references-12</title><circle class="cls-1" cx="67.97" cy="67.97" r="66.83"/><path class="cls-2" d="M63.55,28.26H93.37a2.37,2.37,0,0,0,2.36-2.36v0a2.37,2.37,0,0,0-2.36-2.36H63.55a2.37,2.37,0,0,0-2.36,2.36v0A2.35,2.35,0,0,0,63.55,28.26Z" transform="translate(-0.19 0.02)"/><path class="cls-2" d="M61.18,34.95a2.37,2.37,0,0,0,2.36,2.36h40.1A2.37,2.37,0,0,0,106,34.95v0a2.37,2.37,0,0,0-2.36-2.36H63.54a2.37,2.37,0,0,0-2.36,2.36v0Z" transform="translate(-0.19 0.02)"/><path class="cls-2" d="M61.18,44a2.37,2.37,0,0,0,2.36,2.36h40.1A2.37,2.37,0,0,0,106,44v0a2.37,2.37,0,0,0-2.36-2.36H63.54a2.37,2.37,0,0,0-2.36,2.36v0Z" transform="translate(-0.19 0.02)"/><path class="cls-2" d="M61.18,57.6A2.37,2.37,0,0,0,63.54,60H93.36a2.37,2.37,0,0,0,2.36-2.36v0a2.37,2.37,0,0,0-2.36-2.36H63.55a2.37,2.37,0,0,0-2.36,2.36v0Z" transform="translate(-0.19 0.02)"/><path class="cls-2" d="M61.18,66.65A2.37,2.37,0,0,0,63.54,69H85.08a2.37,2.37,0,0,0,2.36-2.36v0a2.37,2.37,0,0,0-2.36-2.36H63.55a2.37,2.37,0,0,0-2.36,2.36v0Z" transform="translate(-0.19 0.02)"/><path class="cls-2" d="M61.18,75.7a2.37,2.37,0,0,0,2.36,2.36h40.1A2.37,2.37,0,0,0,106,75.7v0a2.37,2.37,0,0,0-2.36-2.36H63.54a2.37,2.37,0,0,0-2.36,2.36v0Z" transform="translate(-0.19 0.02)"/><path class="cls-2" d="M61.18,91.18a2.29,2.29,0,0,0,2.29,2.29h38.94a2.29,2.29,0,0,0,2.29-2.29v0a2.29,2.29,0,0,0-2.29-2.29H63.47a2.29,2.29,0,0,0-2.29,2.29v0Z" transform="translate(-0.19 0.02)"/><path class="cls-2" d="M61.18,100a2.29,2.29,0,0,0,2.29,2.29H97.24A2.29,2.29,0,0,0,99.54,100v0a2.29,2.29,0,0,0-2.29-2.29H63.47a2.29,2.29,0,0,0-2.29,2.29v0Z" transform="translate(-0.19 0.02)"/><path class="cls-2" d="M61.18,108.75A2.29,2.29,0,0,0,63.47,111H78.89a2.29,2.29,0,0,0,2.29-2.29v0a2.29,2.29,0,0,0-2.29-2.29H63.47a2.29,2.29,0,0,0-2.29,2.29v0Z" transform="translate(-0.19 0.02)"/><path class="cls-2" d="M34.79,36.33V48.42H53.94V36.33a1.9,1.9,0,0,0-2-1.82H49.8a1.21,1.21,0,0,0-1,.46l-3.21,4.21-.78-1.52,1.24-2.44a.51.51,0,0,0-.49-.72H43.1a.51.51,0,0,0-.49.72l1.24,2.44-.77,1.5L40,35a1.21,1.21,0,0,0-1-.47H36.72A1.88,1.88,0,0,0,34.79,36.33Z" transform="translate(-0.19 0.02)"/><path class="cls-2" d="M44.36,33.15a5.86,5.86,0,1,0-5.86-5.86A5.87,5.87,0,0,0,44.36,33.15Z" transform="translate(-0.19 0.02)"/><path class="cls-2" d="M34.79,80.12H53.94V68a1.9,1.9,0,0,0-2-1.82H49.8a1.21,1.21,0,0,0-1,.46l-3.21,4.21-.78-1.52,1.24-2.44a.51.51,0,0,0-.49-.72H43.1a.51.51,0,0,0-.49.72l1.24,2.44-.77,1.5L40,66.68a1.21,1.21,0,0,0-1-.47H36.72a1.9,1.9,0,0,0-2,1.82l0,12.09Z" transform="translate(-0.19 0.02)"/><path class="cls-2" d="M38.5,59a5.86,5.86,0,1,0,5.86-5.86A5.87,5.87,0,0,0,38.5,59Z" transform="translate(-0.19 0.02)"/><path class="cls-2" d="M53.94,101.35a1.9,1.9,0,0,0-2-1.82H49.8a1.21,1.21,0,0,0-1,.46l-3.21,4.21-.78-1.52,1.24-2.44a.51.51,0,0,0-.49-.72H43.1a.51.51,0,0,0-.49.72l1.24,2.44-.77,1.5L40,100a1.21,1.21,0,0,0-1-.47H36.72a1.9,1.9,0,0,0-2,1.82v12.09H53.91l0-12.09Z" transform="translate(-0.19 0.02)"/><path class="cls-2" d="M38.5,92.32a5.86,5.86,0,1,0,5.86-5.86A5.87,5.87,0,0,0,38.5,92.32Z" transform="translate(-0.19 0.02)"/></svg>