<svg id="Layer_1" data-name="Layer 1" xmlns="http://www.w3.org/2000/svg" viewBox="0 0 135.93 135.93"><defs><style>.cls-1{fill:#5b8aba;}.cls-2{fill:#82bb66;}.cls-3{fill:#fff;}</style></defs><title>money</title><path class="cls-1" d="M85,153a68,68,0,1,1,68-68A68,68,0,0,1,85,153ZM85,19.34A65.7,65.7,0,1,0,150.74,85,65.77,65.77,0,0,0,85,19.34Z" transform="translate(-17.07 -17.07)"/><path class="cls-2" d="M116.27,88.26a1.42,1.42,0,0,1-1.8.89L58.78,70.2a1.42,1.42,0,0,1-.89-1.8l7.59-22.3a1.42,1.42,0,0,1,1.8-.89L123,64.16a1.42,1.42,0,0,1,.89,1.8ZM59.5,67.61a1.42,1.42,0,0,0,.89,1.8l53.3,18.13a1.42,1.42,0,0,0,1.8-.89l6.77-19.91a1.42,1.42,0,0,0-.89-1.8L68.07,46.82a1.42,1.42,0,0,0-1.8.89Z" transform="translate(-17.07 -17.07)"/><path class="cls-2" d="M114.16,83.75a1.42,1.42,0,0,1-1.8.89L63.21,67.91a1.42,1.42,0,0,1-.89-1.8l5.27-15.5a1.42,1.42,0,0,1,1.8-.89l49.15,16.72a1.42,1.42,0,0,1,.89,1.8ZM63.93,65.32a1.42,1.42,0,0,0,.89,1.8L111.57,83a1.42,1.42,0,0,0,1.8-.89L117.83,69a1.42,1.42,0,0,0-.89-1.8L70.19,51.33a1.42,1.42,0,0,0-1.8.89Z" transform="translate(-17.07 -17.07)"/><path class="cls-1" d="M94.29,74.48a7,7,0,0,1-3.56-.33A6.33,6.33,0,0,1,87,71a5.84,5.84,0,0,1-.49-3.35L85,67.14,85.4,66l1.34.46c.07-.27.1-.45.15-.59a5.87,5.87,0,0,1,.36-.82l-1.37-.47.39-1.15,1.54.52a6.25,6.25,0,0,1,2.47-2.29,6.73,6.73,0,0,1,5.15-.26A6.62,6.62,0,0,1,98.15,63l-1,1.33a5.52,5.52,0,0,0-2.3-1.43,4.38,4.38,0,0,0-3.34.15,3.66,3.66,0,0,0-1.62,1.54l6,2-.39,1.15L89.27,65.7c-.11.26-.23.51-.28.68s-.15.43-.22.73L95,69.23l-.4,1.18-6-2a3.87,3.87,0,0,0,.35,2,4.27,4.27,0,0,0,2.62,2.2,6.42,6.42,0,0,0,2.92.3Z" transform="translate(-17.07 -17.07)"/><rect class="cls-3" x="54.32" y="74.77" width="60.2" height="20.55" transform="translate(-9.84 -23.69) rotate(4.69)"/><path class="cls-2" d="M113.09,101.5a1.42,1.42,0,0,1-1.54,1.29L53,97.56A1.42,1.42,0,0,1,51.67,96l2.09-23.46a1.42,1.42,0,0,1,1.54-1.29l58.6,5.23A1.42,1.42,0,0,1,115.18,78ZM53,94.87a1.42,1.42,0,0,0,1.29,1.54l56.08,5a1.42,1.42,0,0,0,1.54-1.29l1.87-20.94a1.42,1.42,0,0,0-1.29-1.54l-56.08-5a1.42,1.42,0,0,0-1.54,1.29Z" transform="translate(-17.07 -17.07)"/><path class="cls-2" d="M110,97.62a1.42,1.42,0,0,1-1.54,1.29L56.71,94.29a1.42,1.42,0,0,1-1.29-1.54l1.46-16.31a1.42,1.42,0,0,1,1.54-1.29l51.71,4.62a1.42,1.42,0,0,1,1.29,1.54Zm-53.16-6a1.42,1.42,0,0,0,1.29,1.54l49.19,4.39a1.42,1.42,0,0,0,1.54-1.29L110,82.46a1.42,1.42,0,0,0-1.29-1.54L59.57,76.53A1.42,1.42,0,0,0,58,77.81Z" transform="translate(-17.07 -17.07)"/><path class="cls-1" d="M88.46,93.31a7,7,0,0,1-3.53.52,6.33,6.33,0,0,1-4.36-2.17,5.84,5.84,0,0,1-1.27-3.14l-1.59-.14.11-1.24,1.41.13c0-.28,0-.46,0-.61a5.87,5.87,0,0,1,.16-.88l-1.44-.13.11-1.21,1.62.14a6.25,6.25,0,0,1,1.85-2.81,6.73,6.73,0,0,1,4.94-1.47,6.62,6.62,0,0,1,3,1l-.64,1.52A5.52,5.52,0,0,0,86.29,82a4.38,4.38,0,0,0-3.21.93,3.66,3.66,0,0,0-1.21,1.88l6.29.56L88,86.56,81.51,86c0,.28-.1.55-.11.73s0,.46,0,.76l6.56.59-.11,1.24-6.31-.56a3.87,3.87,0,0,0,.82,1.91,4.27,4.27,0,0,0,3.07,1.52,6.42,6.42,0,0,0,2.91-.4Z" transform="translate(-17.07 -17.07)"/><rect class="cls-3" x="58.46" y="94.44" width="61.36" height="20.55" transform="translate(-43.59 13.25) rotate(-16.84)"/><path class="cls-2" d="M122.41,109a1.42,1.42,0,0,1-1,1.76L65,127.47a1.42,1.42,0,0,1-1.76-1L56.6,103.92a1.42,1.42,0,0,1,1-1.76L114,85.49a1.42,1.42,0,0,1,1.76,1Zm-58.28,15.9a1.42,1.42,0,0,0,1.76,1l54-16a1.42,1.42,0,0,0,1-1.76l-6-20.16a1.42,1.42,0,0,0-1.76-1l-54,16a1.42,1.42,0,0,0-1,1.76Z" transform="translate(-17.07 -17.07)"/><path class="cls-2" d="M118.08,106.57a1.42,1.42,0,0,1-1,1.76L67.34,123a1.42,1.42,0,0,1-1.76-1l-4.64-15.7a1.42,1.42,0,0,1,1-1.76l49.79-14.71a1.42,1.42,0,0,1,1.76,1ZM66.43,120.52a1.42,1.42,0,0,0,1.76,1l47.36-14a1.42,1.42,0,0,0,1-1.76l-3.92-13.28a1.42,1.42,0,0,0-1.76-1l-47.36,14a1.42,1.42,0,0,0-1,1.76Z" transform="translate(-17.07 -17.07)"/><path class="cls-1" d="M96.5,110.47a7,7,0,0,1-3.09,1.79,6.33,6.33,0,0,1-4.85-.42,5.84,5.84,0,0,1-2.34-2.45l-1.53.45-.35-1.19,1.36-.4c-.1-.26-.18-.42-.22-.57a5.87,5.87,0,0,1-.18-.87l-1.39.41L83.57,106l1.56-.46a6.25,6.25,0,0,1,.69-3.3,6.73,6.73,0,0,1,4.06-3.18,6.62,6.62,0,0,1,3.19-.2l0,1.65a5.52,5.52,0,0,0-2.7.16,4.38,4.38,0,0,0-2.64,2.05,3.66,3.66,0,0,0-.44,2.19l6.05-1.79.34,1.17-6.3,1.86c.06.27.11.55.16.72s.13.44.24.72l6.32-1.87.35,1.19-6.08,1.8a3.87,3.87,0,0,0,1.47,1.47,4.27,4.27,0,0,0,3.41.29,6.42,6.42,0,0,0,2.56-1.44Z" transform="translate(-17.07 -17.07)"/></svg>