<svg id="Layer_1" data-name="Layer 1" xmlns="http://www.w3.org/2000/svg" viewBox="0 0 135.93 135.93"><defs><style>.cls-1{fill:#5b8aba;}.cls-2{fill:none;}.cls-3{fill:#82bb66;}</style></defs><title>money</title><path class="cls-1" d="M85,153a68,68,0,1,1,68-68A68,68,0,0,1,85,153ZM85,19.34A65.7,65.7,0,1,0,150.74,85,65.77,65.77,0,0,0,85,19.34Z" transform="translate(-17.07 -17.07)"/><path class="cls-2" d="M103.86,64.26a1.77,1.77,0,0,0-.12,2l2-2.51A1.7,1.7,0,0,0,103.86,64.26Z" transform="translate(-17.07 -17.07)"/><path class="cls-2" d="M108.89,60.6a9.27,9.27,0,1,0,1.46,13A9.28,9.28,0,0,0,108.89,60.6Zm-.56,5.9a5.12,5.12,0,0,0-1.63-2.27,3.22,3.22,0,0,0-.29-.2L104.08,67l.34.61c1.24,2.1,1.44,3.72.22,5.24s-3.42,1.9-5.62.48l-.69.87a.35.35,0,0,1-.49.05h0a.35.35,0,0,1-.05-.49l.66-.83-.09-.06a7.5,7.5,0,0,1-2.33-3l1.6-1a6.25,6.25,0,0,0,1.87,2.71l0,0,2.74-3.43c-1.29-2.11-1.34-3.8-.37-5a3.84,3.84,0,0,1,5-.79l.72-.91a.35.35,0,0,1,.49-.05h0a.35.35,0,0,1,.05.49l-.68.85c.11.08.22.14.33.23a6.55,6.55,0,0,1,2,2.65Z" transform="translate(-17.07 -17.07)"/><path class="cls-2" d="M102.71,71.53c.61-.77.59-1.56-.05-2.79l-2.51,3.15A1.9,1.9,0,0,0,102.71,71.53Z" transform="translate(-17.07 -17.07)"/><path class="cls-2" d="M130.92,70.51,94.34,41.31a7.87,7.87,0,0,0-11,1.24L74,54.13a7.87,7.87,0,0,0,1.24,11l36.58,29.2a7.87,7.87,0,0,0,11-1.24l9.24-11.58A7.87,7.87,0,0,0,130.92,70.51Zm-.84,11.58L123,91a8.34,8.34,0,0,1-11.7,1.31l-33.83-27a8.34,8.34,0,0,1-1.31-11.7l7.1-8.9a8.34,8.34,0,0,1,11.7-1.31l33.83,27A8.34,8.34,0,0,1,130.08,82.09Z" transform="translate(-17.07 -17.07)"/><path class="cls-2" d="M128.06,71.27l-33.83-27A7.2,7.2,0,0,0,84.12,45.4L77,54.3a7.2,7.2,0,0,0,1.13,10.11l33.83,27a7.2,7.2,0,0,0,10.11-1.14l7.1-8.9A7.2,7.2,0,0,0,128.06,71.27Zm-16.93,3a10.27,10.27,0,1,1-1.62-14.43A10.28,10.28,0,0,1,111.13,74.25Z" transform="translate(-17.07 -17.07)"/><path class="cls-3" d="M132.34,68.73,95.75,39.53a10.14,10.14,0,0,0-14.23,1.6L72.28,52.71a10.14,10.14,0,0,0,1.6,14.23l36.58,29.2a10.14,10.14,0,0,0,14.23-1.6L133.93,83A10.14,10.14,0,0,0,132.34,68.73Zm-.17,12.82-9.24,11.58a7.87,7.87,0,0,1-11,1.24L75.29,65.17a7.87,7.87,0,0,1-1.24-11l9.24-11.58a7.87,7.87,0,0,1,11-1.24l36.58,29.2A7.87,7.87,0,0,1,132.16,81.55Z" transform="translate(-17.07 -17.07)"/><path class="cls-3" d="M128.77,70.38l-33.83-27a8.34,8.34,0,0,0-11.7,1.31l-7.1,8.9a8.34,8.34,0,0,0,1.31,11.7l33.83,27A8.34,8.34,0,0,0,123,91l7.1-8.9A8.34,8.34,0,0,0,128.77,70.38Zm.43,11-7.1,8.9A7.2,7.2,0,0,1,112,91.41l-33.83-27A7.2,7.2,0,0,1,77,54.3l7.1-8.9a7.2,7.2,0,0,1,10.11-1.13l33.83,27A7.2,7.2,0,0,1,129.19,81.38Z" transform="translate(-17.07 -17.07)"/><path class="cls-3" d="M107.86,62.87c-.11-.09-.22-.15-.33-.23l.68-.85a.35.35,0,0,0-.05-.49h0a.35.35,0,0,0-.49.05l-.72.91a3.84,3.84,0,0,0-5,.79c-1,1.22-.92,2.92.37,5L99.54,71.5l0,0a6.25,6.25,0,0,1-1.87-2.71l-1.6,1a7.5,7.5,0,0,0,2.33,3l.09.06-.66.83a.35.35,0,0,0,.05.49h0a.35.35,0,0,0,.49-.05l.69-.87c2.2,1.42,4.31,1.16,5.62-.48s1-3.14-.22-5.24l-.34-.61L106.41,64a3.22,3.22,0,0,1,.29.2,5.12,5.12,0,0,1,1.63,2.27l1.55-1A6.55,6.55,0,0,0,107.86,62.87Zm-5.15,8.67a1.9,1.9,0,0,1-2.57.36l2.51-3.15C103.3,70,103.32,70.76,102.71,71.53Zm1-5.29a1.77,1.77,0,0,1,.12-2,1.7,1.7,0,0,1,1.89-.54Z" transform="translate(-17.07 -17.07)"/><path class="cls-3" d="M109.51,59.82a10.27,10.27,0,1,0,1.62,14.43A10.28,10.28,0,0,0,109.51,59.82Zm.84,13.81a9.27,9.27,0,1,1-1.46-13A9.28,9.28,0,0,1,110.35,73.62Z" transform="translate(-17.07 -17.07)"/><path class="cls-1" d="M66.93,83.15c-7.84,0-16.28-1.71-16.28-5.45s8.44-5.45,16.28-5.45S83.21,74,83.21,77.7,74.77,83.15,66.93,83.15Zm0-8.63c-9.24,0-14,2.23-14,3.18s4.77,3.18,14,3.18,14-2.23,14-3.18S76.18,74.52,66.93,74.52Z" transform="translate(-17.07 -17.07)"/><path class="cls-1" d="M66.93,91.26c-7.84,0-16.28-1.71-16.28-5.45,0-1.11.72-2.09,2.15-2.91l1.13,2c-.83.47-1,.84-1,.94,0,1,4.77,3.18,14,3.18s14-2.23,14-3.18c0-.1-.18-.46-1-.94l1.13-2c1.43.82,2.16,1.8,2.16,2.91C83.21,89.56,74.77,91.26,66.93,91.26Z" transform="translate(-17.07 -17.07)"/><path class="cls-1" d="M66.93,95c-7.84,0-16.28-1.71-16.28-5.45,0-1.11.72-2.09,2.15-2.91l1.13,2c-.83.47-1,.84-1,.94,0,1,4.77,3.18,14,3.18s14-2.23,14-3.18c0-.1-.18-.46-1-.94l1.13-2c1.43.82,2.15,1.8,2.15,2.91C83.21,93.25,74.77,95,66.93,95Z" transform="translate(-17.07 -17.07)"/><path class="cls-1" d="M66.93,98.77c-7.84,0-16.28-1.71-16.28-5.45,0-1.11.72-2.09,2.15-2.91l1.13,2c-.83.47-1,.84-1,.94,0,1,4.77,3.18,14,3.18s14-2.23,14-3.18c0-.1-.18-.46-1-.94l1.13-2c1.43.82,2.16,1.79,2.16,2.91C83.21,97.06,74.77,98.77,66.93,98.77Z" transform="translate(-17.07 -17.07)"/><path class="cls-1" d="M67.14,102.29c-7.84,0-16.28-1.71-16.28-5.45,0-1.11.72-2.09,2.15-2.91l1.13,2c-.83.48-1,.84-1,.94,0,1,4.77,3.18,14,3.18s14-2.23,14-3.18c0-.1-.18-.46-1-.94l1.13-2c1.43.82,2.15,1.8,2.15,2.91C83.42,100.59,75,102.29,67.14,102.29Z" transform="translate(-17.07 -17.07)"/><path class="cls-1" d="M67.14,106.27c-7.84,0-16.28-1.71-16.28-5.45,0-1.11.72-2.09,2.15-2.91l1.13,2c-.83.48-1,.84-1,.94,0,1,4.77,3.18,14,3.18s14-2.23,14-3.18c0-.1-.18-.46-1-.94l1.13-2c1.43.82,2.15,1.8,2.15,2.91C83.42,104.57,75,106.27,67.14,106.27Z" transform="translate(-17.07 -17.07)"/><path class="cls-1" d="M66.93,110.1c-7.84,0-16.28-1.71-16.28-5.45,0-1.11.72-2.09,2.15-2.91l1.13,2c-.83.47-1,.84-1,.94,0,1,4.77,3.18,14,3.18s14-2.23,14-3.18c0-.1-.18-.46-1-.94l1.13-2c1.43.82,2.15,1.8,2.15,2.91C83.21,108.39,74.77,110.1,66.93,110.1Z" transform="translate(-17.07 -17.07)"/><path class="cls-1" d="M66.93,113.78c-7.84,0-16.28-1.71-16.28-5.45,0-1.11.72-2.09,2.15-2.91l1.13,2c-.83.47-1,.84-1,.94,0,1,4.77,3.18,14,3.18s14-2.23,14-3.18c0-.1-.18-.46-1-.94l1.13-2c1.43.82,2.15,1.8,2.15,2.91C83.21,112.07,74.77,113.78,66.93,113.78Z" transform="translate(-17.07 -17.07)"/><path class="cls-1" d="M66.93,117.9c-7.84,0-16.28-1.71-16.28-5.45,0-1.11.72-2.09,2.15-2.91l1.13,2c-.83.47-1,.84-1,.94,0,1,4.77,3.18,14,3.18s14-2.23,14-3.18c0-.1-.18-.46-1-.94l1.13-2c1.43.82,2.16,1.79,2.16,2.91C83.21,116.19,74.77,117.9,66.93,117.9Z" transform="translate(-17.07 -17.07)"/><path class="cls-1" d="M66.93,121.59c-7.84,0-16.28-1.71-16.28-5.45,0-1.11.72-2.09,2.15-2.91l1.13,2c-.83.47-1,.84-1,.94,0,1,4.77,3.18,14,3.18s14-2.23,14-3.18c0-.1-.18-.46-1-.94l1.13-2c1.43.82,2.16,1.79,2.16,2.91C83.21,119.89,74.77,121.59,66.93,121.59Z" transform="translate(-17.07 -17.07)"/><path class="cls-1" d="M66.93,87.33c-7.84,0-16.28-1.71-16.28-5.45,0-1.11.72-2.09,2.15-2.91l1.13,2c-.83.47-1,.84-1,.94,0,1,4.77,3.18,14,3.18s14-2.23,14-3.18c0-.1-.18-.46-1-.94l1.13-2c1.43.82,2.16,1.8,2.16,2.91C83.21,85.62,74.77,87.33,66.93,87.33Z" transform="translate(-17.07 -17.07)"/><ellipse class="cls-1" cx="50.07" cy="60.15" rx="14.62" ry="3.83"/><path class="cls-1" d="M101.42,112c-8.08,0-16.78-1.75-16.78-5.59s8.7-5.59,16.78-5.59,16.78,1.75,16.78,5.59S109.5,112,101.42,112Zm0-8.92c-9.58,0-14.52,2.33-14.52,3.33s4.94,3.33,14.52,3.33,14.52-2.33,14.52-3.33S111,103.12,101.42,103.12Z" transform="translate(-17.07 -17.07)"/><path class="cls-1" d="M101.42,120.42c-8.08,0-16.78-1.75-16.78-5.59,0-1.13.74-2.13,2.21-3l1.13,2c-.84.48-1.07.87-1.07,1,0,1,4.94,3.33,14.52,3.33s14.52-2.33,14.52-3.33c0-.14-.22-.52-1.06-1l1.13-2c1.46.84,2.21,1.84,2.21,3C118.2,118.67,109.5,120.42,101.42,120.42Z" transform="translate(-17.07 -17.07)"/><path class="cls-1" d="M101.42,124.24c-8.08,0-16.78-1.75-16.78-5.59,0-1.13.74-2.13,2.21-3l1.13,2c-.84.48-1.07.87-1.07,1,0,1,4.94,3.33,14.52,3.33s14.52-2.33,14.52-3.33c0-.14-.22-.52-1.06-1l1.13-2c1.46.84,2.21,1.84,2.21,3C118.2,122.49,109.5,124.24,101.42,124.24Z" transform="translate(-17.07 -17.07)"/><path class="cls-1" d="M101.42,128.18c-8.08,0-16.78-1.75-16.78-5.59,0-1.13.74-2.13,2.21-3l1.13,2c-.84.48-1.07.87-1.07,1,0,1,4.94,3.33,14.52,3.33s14.52-2.33,14.52-3.33c0-.14-.22-.52-1.07-1l1.13-2c1.46.84,2.21,1.84,2.21,3C118.2,126.43,109.5,128.18,101.42,128.18Z" transform="translate(-17.07 -17.07)"/><path class="cls-1" d="M101.64,131.82c-8.08,0-16.78-1.75-16.78-5.59,0-1.13.74-2.13,2.21-3l1.13,2c-.84.48-1.06.87-1.06,1,0,1,4.94,3.33,14.52,3.33s14.52-2.33,14.52-3.33c0-.14-.22-.52-1.06-1l1.13-2c1.46.84,2.21,1.84,2.21,3C118.42,130.07,109.72,131.82,101.64,131.82Z" transform="translate(-17.07 -17.07)"/><path class="cls-1" d="M101.42,116.36c-8.08,0-16.78-1.75-16.78-5.59,0-1.13.74-2.13,2.21-3l1.13,2c-.84.48-1.07.87-1.07,1,0,1,4.94,3.33,14.52,3.33s14.52-2.33,14.52-3.33c0-.14-.22-.52-1.06-1l1.13-2c1.46.84,2.21,1.84,2.21,3C118.2,114.61,109.5,116.36,101.42,116.36Z" transform="translate(-17.07 -17.07)"/><ellipse class="cls-1" cx="84.35" cy="89.33" rx="14.62" ry="3.83"/></svg>