<svg id="Layer_1" data-name="Layer 1" xmlns="http://www.w3.org/2000/svg" viewBox="0 0 170.08 170.08"><defs><style>.cls-1{fill:none;stroke:#4c81a6;stroke-miterlimit:10;stroke-width:2.27px;}.cls-2{fill:#82bb66;}</style></defs><title>ourteam</title><circle class="cls-1" cx="85.04" cy="85.04" r="66.83"/><path class="cls-2" d="M85.8,87.73c2.95.22,6,.08,8.83.72,7.39,1.66,12.12,8,12.24,15.88.06,3.58-.05,7.17,0,10.76a2.19,2.19,0,0,1-1.62,2.43,49.24,49.24,0,0,1-18.81,3.21A70.37,70.37,0,0,1,66,117.41c-.63-.19-1.55-.93-1.55-1.42a129.39,129.39,0,0,1,.27-14.25A15.47,15.47,0,0,1,79.79,88c2-.08,4,0,6,0Z"/><path class="cls-2" d="M74.93,85.7c-10.17,3.89-14.07,11.52-13.49,22.17-2.75-.34-5.33-.51-7.84-1-3.3-.65-6.56-1.5-9.79-2.42a2.21,2.21,0,0,1-1.26-1.64c0-4.54-.1-9.09.26-13.61a15.47,15.47,0,0,1,14.79-14c3.71-.15,7.43-.1,11.15,0,.56,0,1.56.59,1.6,1A16.06,16.06,0,0,0,74.93,85.7Z"/><path class="cls-2" d="M96.35,85.71c2.52-2.85,4.26-5.91,4.53-9.65,0-.34.55-.93.83-.92,4.67.13,9.48-.31,14,.66,7.31,1.58,11.58,7.78,11.81,15.74q.16,5.48,0,11a2.75,2.75,0,0,1-1.29,2c-3.62,1.88-11.73,3.45-16.34,3.25C110.42,97.4,106.59,89.63,96.35,85.71Z"/><path class="cls-2" d="M85.62,62.21a12.43,12.43,0,1,1-.11,24.86,12.43,12.43,0,1,1,.11-24.86Z"/><path class="cls-2" d="M51.36,61.56a12.42,12.42,0,0,1,24.82-.45,3.38,3.38,0,0,1-1,2.27,16.6,16.6,0,0,0-4.47,7.54,3.85,3.85,0,0,1-1.89,2.14A12.37,12.37,0,0,1,51.36,61.56Z"/><path class="cls-2" d="M118.63,62c-.27,8.49-8.62,14.33-16.38,11.4a2.69,2.69,0,0,1-1.46-1.61,15.21,15.21,0,0,0-5.65-9.09A2.84,2.84,0,0,1,94,59.4c1.28-6.51,7.1-10.66,14-9.92C114,50.1,118.82,55.86,118.63,62Z"/></svg>