<svg id="Layer_1" data-name="Layer 1" xmlns="http://www.w3.org/2000/svg" viewBox="0 0 135.87 135.87"><defs><style>.cls-1{fill:#5b8aba;}.cls-2,.cls-4{fill:#82bb66;}.cls-3{fill:#5a89b9;}.cls-3,.cls-4{opacity:0.7;}.cls-5{fill:#90b35a;}</style></defs><title>transfer</title><path class="cls-1" d="M85,153A67.93,67.93,0,1,1,153,85,68,68,0,0,1,85,153Zm0-133.6A65.67,65.67,0,1,0,150.71,85,65.74,65.74,0,0,0,85,19.37Z" transform="translate(-17.11 -17.11)"/><path class="cls-2" d="M123.57,88c1.38,0,2.65,0,3.93,0,.54,0,.69.17.68.69s-.07.79-.7.78c-1.77,0-3.54,0-5.31,0-.25,0-.65.12-.64-.31s-.28-.93.23-1.17c1.67-.8,1.38-2.32,1.4-3.72,0-.59-.44-.42-.73-.4-.45,0-.68-.08-.68-.6s.22-.67.67-.59c.66.11.79-.21.75-.78a8.58,8.58,0,0,1,0-1.58c.3-2.57,2.55-3.11,4.53-2.5.53.17.3.72.26,1.06-.06.52-.42.11-.64.09-.4,0-.8-.17-1.19-.17a1.23,1.23,0,0,0-1.32,1,9.14,9.14,0,0,0-.1,2.6c0,.55.51.28.8.32s.86-.15.87.59-.44.65-.85.59c-.74-.1-.86.22-.85.89A3.8,3.8,0,0,1,123.57,88Z" transform="translate(-17.11 -17.11)"/><path class="cls-1" d="M128,62.94a3.62,3.62,0,0,0-5.47,1.41c-.27.59-.36.94.54.89,1.24-.07,2.48,0,3.73,0,.25,0,.76-.28.7.38,0,.47-.23.7-.77.68-1.27,0-2.55,0-3.82,0-.35,0-.77-.13-.77.5s.42.49.77.5H127c.06.82-.2,1.15-1,1.09-1-.07-2,0-3,0-.76,0-.73.26-.53.81a3.54,3.54,0,0,0,4.78,1.91c.22-.1.44-.22.66-.33.19,1.6.15,1.65-1.32,1.89a4.85,4.85,0,0,1-5.73-3.56c-.14-.44-.23-.84-.84-.72-.19,0-.52.07-.48-.25s-.08-.8.42-.8.56-.21.55-.62-.28-.41-.57-.4-.47,0-.39-.35,0-.73.42-.69c.61.05.67-.32.81-.76A5.23,5.23,0,0,1,127,61C128.39,61.34,128.47,61.5,128,62.94Z" transform="translate(-17.11 -17.11)"/><path class="cls-1" d="M121.89,104.74a12.42,12.42,0,0,0,2.08.66c.45.09.7.08.68-.5,0-.93,0-1.86,0-2.79,0-.53-.33-.68-.65-.9-1-.68-1.9-1.42-1.88-2.79A2.41,2.41,0,0,1,123.91,96c.45-.13.83-.2.75-.81,0-.19.18-.23.33-.24s.37,0,.35.2c-.09.93.67.65,1.12.81s1.32,0,1.25,1c0,.47-.15.47-.55.34-1.79-.58-1.79-.57-1.79,1.35a2.19,2.19,0,0,1,0,.37,2,2,0,0,0,1.2,2.38,2.29,2.29,0,0,1,1.29,2.47,2.84,2.84,0,0,1-1.85,2.47c-.36.15-.72.22-.63.74,0,.23-.11.34-.33.33s-.42,0-.39-.28c.1-.63-.35-.59-.74-.65s-.73-.17-1.09-.2C121.88,106.16,121.59,105.68,121.89,104.74Zm3.54-2.62v3.16C127,104.55,127,103.26,125.42,102.12Zm-.8-5.24c-.81.34-1.25.79-1.21,1.57a1.75,1.75,0,0,0,1.21,1.56Z" transform="translate(-17.11 -17.11)"/><path class="cls-1" d="M40.64,88c1.38,0,2.65,0,3.93,0,.54,0,.69.17.68.69s-.07.79-.7.78c-1.77,0-3.54,0-5.31,0-.25,0-.65.12-.64-.31s-.28-.93.23-1.17c1.67-.8,1.38-2.32,1.4-3.72,0-.59-.44-.42-.73-.4-.45,0-.68-.08-.68-.6s.22-.67.67-.59c.66.11.79-.21.75-.78a8.58,8.58,0,0,1,0-1.58c.3-2.57,2.55-3.11,4.53-2.5.53.17.3.72.26,1.06-.06.52-.42.11-.64.09-.4,0-.8-.17-1.19-.17a1.23,1.23,0,0,0-1.32,1,9.14,9.14,0,0,0-.1,2.6c0,.55.51.28.8.32s.86-.15.87.59-.44.65-.85.59c-.74-.1-.86.22-.85.89A3.8,3.8,0,0,1,40.64,88Z" transform="translate(-17.11 -17.11)"/><path class="cls-2" d="M45,97.62A3.62,3.62,0,0,0,39.49,99c-.27.59-.36.94.54.89,1.24-.07,2.48,0,3.73,0,.25,0,.76-.28.7.38,0,.47-.23.7-.77.68-1.27,0-2.55,0-3.82,0-.35,0-.77-.13-.77.5s.42.49.77.5H44c.06.82-.2,1.15-1,1.09-1-.07-2,0-3,0-.76,0-.73.26-.53.81a3.54,3.54,0,0,0,4.78,1.91c.22-.1.44-.22.66-.33.19,1.6.15,1.65-1.32,1.89a4.85,4.85,0,0,1-5.73-3.56c-.14-.44-.23-.84-.84-.72-.19,0-.52.07-.48-.25s-.08-.8.42-.8.56-.21.55-.62-.28-.41-.57-.4-.47,0-.39-.35,0-.73.42-.69c.61.05.67-.32.81-.76A5.23,5.23,0,0,1,44,95.7C45.39,96,45.47,96.18,45,97.62Z" transform="translate(-17.11 -17.11)"/><path class="cls-2" d="M41,69.89a12.42,12.42,0,0,0,2.08.66c.45.09.7.08.68-.5,0-.93,0-1.86,0-2.79,0-.53-.33-.68-.65-.9-1-.68-1.9-1.42-1.88-2.79a2.41,2.41,0,0,1,1.79-2.43c.45-.13.83-.2.75-.81,0-.19.18-.23.33-.24s.37,0,.35.2c-.09.93.67.65,1.12.81s1.32,0,1.25,1c0,.47-.15.47-.55.34-1.79-.58-1.79-.57-1.79,1.35a2.19,2.19,0,0,1,0,.37,2,2,0,0,0,1.2,2.38A2.29,2.29,0,0,1,47,69a2.84,2.84,0,0,1-1.85,2.47c-.36.15-.72.22-.63.74,0,.23-.11.34-.33.33s-.42,0-.39-.28c.1-.63-.35-.59-.74-.65s-.73-.17-1.09-.2C41,71.31,40.73,70.83,41,69.89Zm3.54-2.62v3.16C46.15,69.7,46.16,68.41,44.57,67.27ZM43.76,62c-.81.34-1.25.79-1.21,1.57a1.75,1.75,0,0,0,1.21,1.56Z" transform="translate(-17.11 -17.11)"/><path class="cls-1" d="M100.84,52.36c1.94-.83,3.83-1.49,5.85-2.18a33.53,33.53,0,0,0-19-5.54A45.18,45.18,0,0,0,69,49.2c-4.62,2.12-12,6.66-11.38,6.08a51.72,51.72,0,0,1,14.53-9.75,44.91,44.91,0,0,1,31.3-2A38,38,0,0,1,110.06,46c.2.1.43.19.71.31l1.9-4.32h.19l1.65,4.36c.68,1.81,1.35,3.61,2,5.42.12.31.16.44-.54.45-4.91,0-9.82.12-14.73.18A2.56,2.56,0,0,1,100.84,52.36Z" transform="translate(-17.11 -17.11)"/><path class="cls-3" d="M115,84.11v.95a5.85,5.85,0,0,0,0,1.1,17.72,17.72,0,0,1-.14,1.92,29.06,29.06,0,0,1-1,5.05,30.06,30.06,0,0,1-19.51,20,29.67,29.67,0,0,1-7,1.37,4,4,0,0,0-.82,0,6.85,6.85,0,0,0-.93.06h-.95a1.09,1.09,0,0,0-.44,0c-.4,0-.8-.08-1.21-.05h-.15A31.05,31.05,0,0,1,79.2,114a29.5,29.5,0,0,1-8.48-3.07A30,30,0,0,1,56.21,92.87a29.09,29.09,0,0,1-1-5c-.08-.73-.13-1.46-.16-2.19a1.43,1.43,0,0,0,0-.17,17.9,17.9,0,0,1,0-1.82,1.45,1.45,0,0,0,0-.17c0-.73.08-1.46.16-2.19a28.67,28.67,0,0,1,.88-4.65,30.06,30.06,0,0,1,22.21-21.3A30.45,30.45,0,0,1,84,54.61h2a31.91,31.91,0,0,1,4,.4,29.54,29.54,0,0,1,7.74,2.41,30,30,0,0,1,16.41,19.94A26.68,26.68,0,0,1,115,83,5.93,5.93,0,0,0,115,84.11ZM96.82,97.53l-.21.14-2.47,1.56a.49.49,0,0,0-.24.32c-.12.48-.25,1-.38,1.45l-.29,1.08c0,.19,0,.19.12.26l1.07.42c.13.05.18,0,.22-.1s.1-.23.15-.34l2-4.53c0-.08.11-.15,0-.25h0Zm-7-21.41a.51.51,0,0,1-.07.25l-.89,2.28c-.11.28-.09.23-.34.23-1.32,0-2.65,0-4-.09a11.62,11.62,0,0,1-2.37-.35,4,4,0,0,1-2-1.23,5.18,5.18,0,0,1-.73-1.16.28.28,0,0,0-.28-.2l-1.4-.08-3.42-.2a.68.68,0,0,0-.42.1,17,17,0,0,0-2,1.42,11.6,11.6,0,0,0-4.12,7.16.63.63,0,0,0,.05.41Q69.08,87,70.25,89.4a.34.34,0,0,0,.32.21l2.46.22,2.51.23,2.19.2a.18.18,0,0,1,.18.16s0,.1,0,.14l3.57,13.49c.13.48.26,1,.38,1.45,0,.12.08.17.2.16H86.7a.5.5,0,0,0,.44-.21q2.6-3.18,5.22-6.35a1,1,0,0,0,.27-.83c-.1-1.2-.17-2.41-.27-3.61a.41.41,0,0,1,.18-.4A16.3,16.3,0,0,0,94.92,92a12.15,12.15,0,0,0,2.52-4.72c0-.06.06-.12,0-.21l-.13,0-3.42.82c-.26.06-.21.11-.37-.15l-3.41-5.35-1.36-2.13c0-.07-.13-.14,0-.22l1.05-.7,4.92,6.92,4.8-4.19c-.06-.08-.13-.07-.19-.08A7.39,7.39,0,0,1,98,81.7a5,5,0,0,1-3.28-3.09.49.49,0,0,1-.06-.21.07.07,0,0,1,.09,0l3.5.55,4.91.77a.41.41,0,0,1,.35.26q1.44,3,2.9,5.95a.54.54,0,0,0,.15.23c.46-2.84.91-5.67,1.38-8.55l3.87,4.55.05,0A27,27,0,0,0,92,58.59a.26.26,0,0,0,0,.17,7.43,7.43,0,0,1-.21,1.48,7.09,7.09,0,0,1-3.18,4.25.26.26,0,0,1-.32,0l-2.39-1.4a.34.34,0,0,0-.4,0l-4.9,2.85a.39.39,0,0,0-.19.15l1.82,1.74L85,64.54H85a.76.76,0,0,1,0,.1l-.49,3.71c0,.24,0,.24-.27.24h-.35a18.2,18.2,0,0,0-2.76.24,12.65,12.65,0,0,0-3.79,1.36.37.37,0,0,0-.21.28c-.12.59-.25,1.17-.37,1.76,0,.2,0,.2-.24.16l-2-.44c-.21,0-.21,0-.28.15l-.84,2.27a.35.35,0,0,0,0,.23l.18.06,1.65.49c.21.06.21.06.35-.11a10.51,10.51,0,0,1,1.22-1.32,6.54,6.54,0,0,1,2.72-1.37.33.33,0,0,1,.39.11l2,2.22s.09.07.08.16l-1.33.45c.27.22.5.4.73.6s.14.07.22,0c.33-.4.67-.81,1-1.2a.19.19,0,0,0,0-.3c-.5-.69-1-1.38-1.49-2.07a.44.44,0,0,1-.12-.21l.07,0a2.62,2.62,0,0,1,1.9.76,3.5,3.5,0,0,1,.59.8,7.19,7.19,0,0,1,.61,1.55l.17.62.18-.25,2.83-4.15c.17-.24.11-.21.37-.1l2.39,1,1,.42c.21.09.21.09.12.3s-.16.37-.21.56a.31.31,0,0,1-.32.25l-2.66.22-1.49.13c-.12,0-.16.05-.15.17,0,.47,0,.93,0,1.4,0,.1,0,.15.14.15l2.34.15ZM82.72,60l-1.11-1.95c-.11-.19-.11-.19-.34-.16A26.92,26.92,0,0,0,64.1,67.63l-.16.22a.2.2,0,0,0,.16,0l3.16-.75a.46.46,0,0,0,.29-.21,17.88,17.88,0,0,1,2.84-3.21,16.83,16.83,0,0,1,7.79-4,.36.36,0,0,1,.22,0l-5.92,4.12h.16l5.6-1.37a1.46,1.46,0,0,0,.37-.14l3.91-2.17A.47.47,0,0,0,82.72,60ZM58.12,84.65a26.61,26.61,0,0,0,5.17,15.77.14.14,0,0,0,0-.16l-.45-3.16-.69-4.79a1.5,1.5,0,0,0-.14-.52l-3.75-6.92A.54.54,0,0,0,58.12,84.65ZM75.27,68.59l3,.76a28.4,28.4,0,0,0,0-3Z" transform="translate(-17.11 -17.11)"/><path class="cls-4" d="M89.85,76.13l-.94-.07-2.34-.15c-.11,0-.14-.05-.14-.15,0-.47,0-.93,0-1.4,0-.12,0-.16.15-.17l1.49-.13,2.66-.22a.31.31,0,0,0,.32-.25c.05-.19.14-.37.21-.56s.08-.22-.12-.3l-1-.42-2.39-1c-.26-.11-.2-.14-.37.1l-2.83,4.15-.18.25-.17-.62a7.19,7.19,0,0,0-.61-1.55,3.5,3.5,0,0,0-.59-.8,2.62,2.62,0,0,0-1.9-.76l-.07,0a.44.44,0,0,0,.12.21c.49.69,1,1.38,1.49,2.07a.19.19,0,0,1,0,.3c-.35.4-.68.8-1,1.2-.07.09-.13.1-.22,0s-.46-.38-.73-.6L82,74.83c0-.09,0-.12-.08-.16l-2-2.22a.33.33,0,0,0-.39-.11,6.54,6.54,0,0,0-2.72,1.37A10.51,10.51,0,0,0,75.57,75c-.14.17-.14.17-.35.11l-1.65-.49-.18-.06a.35.35,0,0,1,0-.23l.84-2.27c.07-.2.08-.2.28-.15l2,.44c.2,0,.2,0,.24-.16.13-.59.25-1.17.37-1.76a.37.37,0,0,1,.21-.28,12.65,12.65,0,0,1,3.79-1.36,18.2,18.2,0,0,1,2.76-.24h.35c.24,0,.24,0,.27-.24L85,64.64a.76.76,0,0,0,0-.1H85l-2.77,3.28-1.82-1.74a.39.39,0,0,1,.19-.15l4.9-2.85a.34.34,0,0,1,.4,0l2.39,1.4a.26.26,0,0,0,.32,0,7.09,7.09,0,0,0,3.18-4.25A7.43,7.43,0,0,0,92,58.76a.26.26,0,0,1,0-.17,27,27,0,0,1,19.87,23.51l-.05,0L108,77.59c-.47,2.88-.91,5.71-1.38,8.55a.54.54,0,0,1-.15-.23q-1.45-3-2.9-5.95a.41.41,0,0,0-.35-.26l-4.91-.77-3.5-.55a.07.07,0,0,0-.09,0,.49.49,0,0,0,.06.21A5,5,0,0,0,98,81.7a7.39,7.39,0,0,0,1.31.3c.06,0,.13,0,.19.08l-4.8,4.19-4.92-6.92-1.05.7c-.13.08,0,.15,0,.22l1.36,2.13,3.41,5.35c.16.26.11.21.37.15l3.42-.82.13,0c0,.08,0,.14,0,.21A12.15,12.15,0,0,1,94.92,92a16.3,16.3,0,0,1-2.37,2.28.41.41,0,0,0-.18.4c.09,1.2.16,2.41.27,3.61a1,1,0,0,1-.27.83q-2.63,3.16-5.22,6.35a.5.5,0,0,1-.44.21H82.13c-.12,0-.17,0-.2-.16-.12-.48-.26-1-.38-1.45L78,90.57s0-.1,0-.14a.18.18,0,0,0-.18-.16l-2.19-.2L73,89.83l-2.46-.22a.34.34,0,0,1-.32-.21Q69.08,87,67.9,84.68a.63.63,0,0,1-.05-.41A11.6,11.6,0,0,1,72,77.11a17,17,0,0,1,2-1.42.68.68,0,0,1,.42-.1l3.42.2,1.4.08a.28.28,0,0,1,.28.2,5.18,5.18,0,0,0,.73,1.16,4,4,0,0,0,2,1.23,11.62,11.62,0,0,0,2.37.35c1.32.08,2.65.09,4,.09.25,0,.23,0,.34-.23l.89-2.28A.51.51,0,0,0,89.85,76.13Zm6.08-1.07a.48.48,0,0,0,0-.09l-2-4.09c-.06-.13-.12-.1-.21-.05l-1.2.66c-.21.12-.18.11-.08.29l2,3.4.05.09a.13.13,0,0,0,.16.07Z" transform="translate(-17.11 -17.11)"/><path class="cls-4" d="M82.72,60a.47.47,0,0,1-.21.15l-3.91,2.17a1.46,1.46,0,0,1-.37.14l-5.6,1.37h-.16l5.92-4.12a.36.36,0,0,0-.22,0,16.83,16.83,0,0,0-7.79,4,17.88,17.88,0,0,0-2.84,3.21.46.46,0,0,1-.29.21l-3.16.75a.2.2,0,0,1-.16,0l.16-.22a26.92,26.92,0,0,1,17.17-9.71c.23,0,.23,0,.34.16Z" transform="translate(-17.11 -17.11)"/><path class="cls-4" d="M58.12,84.65a.54.54,0,0,1,.16.22L62,91.79a1.5,1.5,0,0,1,.14.52l.69,4.79.45,3.16a.14.14,0,0,1,0,.16A26.61,26.61,0,0,1,58.12,84.65Z" transform="translate(-17.11 -17.11)"/><path class="cls-4" d="M96.81,97.54c.06.1,0,.18,0,.25l-2,4.53c0,.11-.11.23-.15.34s-.09.15-.22.1l-1.07-.42c-.17-.07-.17-.07-.12-.26l.29-1.08c.13-.48.26-1,.38-1.45a.49.49,0,0,1,.24-.32l2.47-1.56.21-.14Z" transform="translate(-17.11 -17.11)"/><path class="cls-4" d="M75.27,68.59l3-2.27a28.4,28.4,0,0,1,0,3Z" transform="translate(-17.11 -17.11)"/><polygon class="cls-5" points="79.72 80.43 79.72 80.44 79.71 80.43 79.72 80.43"/><path class="cls-4" d="M95.94,75.05l-1.25.28a.13.13,0,0,1-.16-.07l-.05-.09-2-3.4c-.11-.18-.14-.18.08-.29l1.2-.66c.09-.05.15-.07.21.05l2,4.09A.48.48,0,0,1,95.94,75.05Z" transform="translate(-17.11 -17.11)"/><path class="cls-2" d="M71.29,118.32c-1.94.83-3.83,1.49-5.85,2.18a33.53,33.53,0,0,0,19,5.54,45.18,45.18,0,0,0,18.72-4.57c4.62-2.12,12-6.66,11.38-6.08A51.72,51.72,0,0,1,100,125.15a44.91,44.91,0,0,1-31.3,2,38,38,0,0,1-6.63-2.52c-.2-.1-.43-.19-.71-.31l-1.9,4.32h-.19l-1.65-4.36c-.68-1.81-1.35-3.61-2-5.42-.12-.31-.16-.44.54-.45,4.91,0,9.82-.12,14.73-.18A2.56,2.56,0,0,1,71.29,118.32Z" transform="translate(-17.11 -17.11)"/></svg>