<svg id="Layer_1" data-name="Layer 1" xmlns="http://www.w3.org/2000/svg" viewBox="0 0 135.87 135.87"><defs><style>.cls-1{fill:#5b8aba;}.cls-2{fill:#a6adca;}.cls-3{fill:#7180a7;}.cls-4{fill:#7a9dc5;}.cls-5{fill:#5a89b9;}.cls-6{fill:#8994b7;}.cls-7{fill:#8592b6;}.cls-8{fill:#82bb66;}.cls-9{fill:#90b35a;}.cls-10{fill:#4c81a6;}</style></defs><title>transfer</title><path class="cls-1" d="M34.34,79.49c1.46,0,2.8,0,4.14,0,.57,0,.73.18.72.72s-.07.84-.74.82c-1.87,0-3.73,0-5.6,0-.27,0-.69.13-.67-.33s-.3-1,.25-1.24c1.77-.85,1.45-2.44,1.48-3.93,0-.63-.46-.44-.77-.43-.48,0-.71-.08-.72-.63s.24-.71.71-.63c.7.12.83-.22.79-.83a9,9,0,0,1,0-1.67c.32-2.71,2.69-3.28,4.78-2.63.56.18.31.76.27,1.12-.06.55-.44.11-.67.09-.42,0-.84-.18-1.26-.18a1.3,1.3,0,0,0-1.39,1,9.64,9.64,0,0,0-.11,2.74c0,.58.54.3.84.34s.91-.16.92.63-.46.68-.89.62c-.78-.11-.91.23-.9.94A4,4,0,0,1,34.34,79.49Z" transform="translate(-17.11 -17.11)"/><path class="cls-2" d="M54.07,81.69H54v-3h.11a2,2,0,0,1,0,.24,24.69,24.69,0,0,0,0,2.51A2,2,0,0,1,54.07,81.69Z" transform="translate(-17.11 -17.11)"/><path class="cls-3" d="M93.27,121.61c-.11-.11-.26-.05-.39-.07l-.37-.06c.56,0,1.11.07,1.67.07a1.5,1.5,0,0,1,.61.07Z" transform="translate(-17.11 -17.11)"/><path class="cls-4" d="M97.64,121.55l-.25,0a5.58,5.58,0,0,1,1.13-.06A4,4,0,0,1,97.64,121.55Z" transform="translate(-17.11 -17.11)"/><path class="cls-5" d="M126.4,84.35v1.31a8.07,8.07,0,0,0-.06,1.52,24.45,24.45,0,0,1-.2,2.64,40.09,40.09,0,0,1-1.42,7,41.46,41.46,0,0,1-26.91,27.59,40.93,40.93,0,0,1-9.67,1.89,5.58,5.58,0,0,0-1.13.06,9.45,9.45,0,0,0-1.29.08H84.41a1.5,1.5,0,0,0-.61-.07c-.56,0-1.11-.12-1.67-.07h-.21a42.83,42.83,0,0,1-4.94-.67,40.69,40.69,0,0,1-11.7-4.23,41.44,41.44,0,0,1-20-24.93,40.13,40.13,0,0,1-1.35-6.92c-.11-1-.18-2-.22-3a2,2,0,0,0,0-.24,24.69,24.69,0,0,1,0-2.51,2,2,0,0,0,0-.24c0-1,.11-2,.22-3a39.54,39.54,0,0,1,1.22-6.42A41.47,41.47,0,0,1,75.77,44.69a42,42,0,0,1,7.88-1h2.76a44,44,0,0,1,5.48.55,40.75,40.75,0,0,1,10.68,3.32A41.43,41.43,0,0,1,125.21,75a36.8,36.8,0,0,1,1.13,7.79A8.18,8.18,0,0,0,126.4,84.35Zm-25.11,18.52-.28.19-3.4,2.15a.67.67,0,0,0-.33.45c-.16.67-.35,1.33-.52,2l-.4,1.5c-.07.26-.07.26.17.35.49.19,1,.37,1.47.58.18.07.25,0,.3-.14s.13-.32.2-.47l2.71-6.24c0-.11.16-.21.07-.35h0ZM91.68,73.35a.7.7,0,0,1-.09.35l-1.22,3.15c-.15.38-.12.32-.47.32-1.83,0-3.65,0-5.48-.12a16,16,0,0,1-3.27-.48,5.46,5.46,0,0,1-2.82-1.69,7.15,7.15,0,0,1-1-1.6.39.39,0,0,0-.38-.27c-.64,0-1.28-.07-1.93-.11l-4.71-.28a.93.93,0,0,0-.58.14,23.51,23.51,0,0,0-2.71,2,16,16,0,0,0-5.68,9.88.87.87,0,0,0,.07.56q1.63,3.25,3.25,6.5a.47.47,0,0,0,.45.29c1.13.09,2.27.2,3.4.3l3.47.31,3,.28a.25.25,0,0,1,.26.22c0,.07,0,.13.05.2l4.93,18.6c.18.67.36,1.33.53,2,0,.17.12.23.28.21h6.31a.69.69,0,0,0,.61-.28q3.59-4.39,7.21-8.76a1.45,1.45,0,0,0,.37-1.14c-.14-1.66-.24-3.32-.37-5a.57.57,0,0,1,.25-.55,22.48,22.48,0,0,0,3.28-3.15,16.76,16.76,0,0,0,3.48-6.51c0-.09.08-.17,0-.28l-.19,0L97.26,89.6c-.35.08-.29.15-.51-.2L92,82l-1.87-2.94c-.06-.1-.18-.19,0-.31l1.45-1,6.79,9.55L105,81.57c-.08-.11-.18-.1-.27-.11A10.19,10.19,0,0,1,103,81a6.88,6.88,0,0,1-4.52-4.26.67.67,0,0,1-.09-.29.1.1,0,0,1,.12,0l4.83.76c2.26.36,4.51.72,6.77,1.07a.56.56,0,0,1,.48.36q2,4.11,4,8.2a.74.74,0,0,0,.21.32c.64-3.92,1.25-7.82,1.9-11.79L122,81.64l.07,0A37.28,37.28,0,0,0,94.66,49.16a.36.36,0,0,0-.07.23,10.24,10.24,0,0,1-.28,2,9.77,9.77,0,0,1-4.39,5.87.36.36,0,0,1-.44,0l-3.3-1.93a.47.47,0,0,0-.56,0l-6.76,3.93a.53.53,0,0,0-.26.2l2.51,2.4,3.83-4.52H85a1.05,1.05,0,0,1,0,.14l-.67,5.12c0,.33,0,.33-.37.33h-.48a25.11,25.11,0,0,0-3.81.33,17.45,17.45,0,0,0-5.23,1.87.51.51,0,0,0-.29.39c-.16.81-.34,1.62-.51,2.43-.06.28-.06.28-.34.22l-2.72-.61c-.29-.06-.29-.06-.39.21L69,70.91a.48.48,0,0,0-.07.31l.25.09,2.28.67c.29.09.29.08.48-.15A14.49,14.49,0,0,1,73.66,70a9,9,0,0,1,3.75-1.89.46.46,0,0,1,.54.15c.92,1,1.85,2,2.78,3.07.05.06.13.1.11.22L79,72.18c.37.3.69.55,1,.83.13.11.2.1.3,0,.46-.56.92-1.12,1.4-1.66a.27.27,0,0,0,0-.41C81,70,80.35,69,79.67,68.05a.6.6,0,0,1-.17-.3l.1,0a3.61,3.61,0,0,1,2.61,1.05A4.83,4.83,0,0,1,83,69.89,9.92,9.92,0,0,1,83.86,72l.23.86.25-.35,3.91-5.72c.23-.34.15-.29.51-.14l3.3,1.38,1.4.59c.28.12.28.12.17.42s-.22.51-.29.77a.42.42,0,0,1-.44.34l-3.67.3-2.06.18c-.16,0-.21.07-.21.23,0,.64,0,1.29,0,1.93,0,.14,0,.2.2.21l3.23.21ZM81.84,51.13l-1.53-2.69c-.15-.26-.15-.26-.46-.21A37.14,37.14,0,0,0,56.16,61.62l-.22.3a.28.28,0,0,0,.22,0l4.35-1a.64.64,0,0,0,.4-.29,24.66,24.66,0,0,1,3.92-4.43,23.21,23.21,0,0,1,10.74-5.45.5.5,0,0,1,.31,0l-8.17,5.69h.22l7.72-1.88a2,2,0,0,0,.51-.2l5.39-3A.65.65,0,0,0,81.84,51.13Zm-33.94,34A36.71,36.71,0,0,0,55,106.87a.2.2,0,0,0,0-.22q-.31-2.18-.63-4.36l-1-6.61a2.08,2.08,0,0,0-.2-.72l-5.17-9.54A.75.75,0,0,0,47.91,85.11ZM71.57,62.95l4.2,1a39.17,39.17,0,0,0,0-4.18Z" transform="translate(-17.11 -17.11)"/><path class="cls-6" d="M126.34,82.83a.07.07,0,0,0,.06,0v1.52A8.18,8.18,0,0,1,126.34,82.83Z" transform="translate(-17.11 -17.11)"/><path class="cls-7" d="M126.4,87.18h-.06a8.07,8.07,0,0,1,.06-1.52Z" transform="translate(-17.11 -17.11)"/><path class="cls-8" d="M91.68,73.35l-1.3-.09L87.15,73c-.15,0-.2-.07-.2-.21,0-.64,0-1.29,0-1.93,0-.16,0-.22.21-.23l2.06-.18,3.67-.3a.42.42,0,0,0,.44-.34c.08-.26.2-.51.29-.77s.11-.3-.17-.42l-1.4-.59-3.3-1.38c-.36-.15-.28-.2-.51.14l-3.91,5.72-.25.35L83.86,72A9.92,9.92,0,0,0,83,69.89a4.83,4.83,0,0,0-.81-1.11,3.61,3.61,0,0,0-2.61-1.05l-.1,0a.6.6,0,0,0,.17.3c.68,1,1.36,1.91,2.06,2.85a.27.27,0,0,1,0,.41c-.48.55-.94,1.1-1.4,1.66-.1.12-.17.14-.3,0-.31-.27-.64-.53-1-.83l1.83-.62c0-.12-.06-.17-.11-.22-.93-1-1.86-2-2.78-3.07a.46.46,0,0,0-.54-.15A9,9,0,0,0,73.66,70,14.49,14.49,0,0,0,72,71.83c-.19.24-.19.24-.48.15l-2.28-.67L69,71.22a.48.48,0,0,1,.07-.31l1.16-3.13c.1-.27.1-.27.39-.21l2.72.61c.28.06.28.06.34-.22.17-.81.35-1.62.51-2.43a.51.51,0,0,1,.29-.39,17.45,17.45,0,0,1,5.23-1.87A25.11,25.11,0,0,1,83.48,63H84c.34,0,.33,0,.37-.33L85,57.5a1.05,1.05,0,0,0,0-.14h-.07l-3.83,4.52-2.51-2.4a.53.53,0,0,1,.26-.2l6.76-3.93a.47.47,0,0,1,.56,0l3.3,1.93a.36.36,0,0,0,.44,0,9.77,9.77,0,0,0,4.39-5.87,10.24,10.24,0,0,0,.28-2,.36.36,0,0,1,.07-.23,37.28,37.28,0,0,1,27.41,32.43l-.07,0-5.33-6.27c-.65,4-1.26,7.87-1.9,11.79a.74.74,0,0,1-.21-.32q-2-4.1-4-8.2a.56.56,0,0,0-.48-.36c-2.26-.35-4.51-.71-6.77-1.07l-4.83-.76a.1.1,0,0,0-.12,0,.67.67,0,0,0,.09.29A6.88,6.88,0,0,0,103,81a10.19,10.19,0,0,0,1.81.42c.09,0,.18,0,.27.11l-6.61,5.78L91.62,77.8l-1.45,1c-.18.12-.06.21,0,.31L92,82l4.7,7.38c.22.35.16.29.51.2L102,88.47l.19,0c.06.12,0,.2,0,.28a16.76,16.76,0,0,1-3.48,6.51,22.48,22.48,0,0,1-3.28,3.15.57.57,0,0,0-.25.55c.13,1.66.23,3.32.37,5a1.45,1.45,0,0,1-.37,1.14q-3.62,4.36-7.21,8.76a.69.69,0,0,1-.61.28H81c-.17,0-.24,0-.28-.21-.17-.67-.35-1.33-.53-2l-4.93-18.6c0-.07,0-.13-.05-.2a.25.25,0,0,0-.26-.22l-3-.28-3.47-.31c-1.13-.1-2.26-.21-3.4-.3a.47.47,0,0,1-.45-.29Q63,88.4,61.39,85.15a.87.87,0,0,1-.07-.56A16,16,0,0,1,67,74.71a23.51,23.51,0,0,1,2.71-2,.93.93,0,0,1,.58-.14L75,72.9c.64,0,1.28.08,1.93.11a.39.39,0,0,1,.38.27,7.15,7.15,0,0,0,1,1.6,5.46,5.46,0,0,0,2.82,1.69,16,16,0,0,0,3.27.48c1.82.11,3.65.12,5.48.12.35,0,.32.07.47-.32l1.22-3.15A.7.7,0,0,0,91.68,73.35Zm8.39-1.48a.66.66,0,0,0,0-.12q-1.36-2.82-2.72-5.65c-.08-.17-.16-.14-.29-.07l-1.66.91c-.3.16-.25.15-.1.4L98.05,72l.07.12a.18.18,0,0,0,.23.1Z" transform="translate(-17.11 -17.11)"/><path class="cls-8" d="M81.84,51.13a.65.65,0,0,1-.29.21l-5.39,3a2,2,0,0,1-.51.2l-7.72,1.88h-.22l8.17-5.69a.5.5,0,0,0-.31,0,23.21,23.21,0,0,0-10.74,5.45,24.66,24.66,0,0,0-3.92,4.43.64.64,0,0,1-.4.29l-4.35,1a.28.28,0,0,1-.22,0l.22-.3A37.14,37.14,0,0,1,79.85,48.24c.31,0,.31,0,.46.21Z" transform="translate(-17.11 -17.11)"/><path class="cls-8" d="M47.91,85.11a.75.75,0,0,1,.22.3l5.17,9.54a2.08,2.08,0,0,1,.2.72l1,6.61q.31,2.18.63,4.36a.2.2,0,0,1,0,.22A36.71,36.71,0,0,1,47.91,85.11Z" transform="translate(-17.11 -17.11)"/><path class="cls-8" d="M101.28,102.88c.09.14,0,.24-.07.35l-2.71,6.24c-.07.16-.15.31-.2.47s-.13.21-.3.14c-.49-.2-1-.38-1.47-.58-.23-.09-.24-.1-.17-.35l.4-1.5c.18-.66.36-1.33.52-2a.67.67,0,0,1,.33-.45l3.4-2.15.28-.19Z" transform="translate(-17.11 -17.11)"/><path class="cls-8" d="M71.57,62.95l4.18-3.14a39.17,39.17,0,0,1,0,4.18Z" transform="translate(-17.11 -17.11)"/><polygon class="cls-9" points="84.18 85.77 84.19 85.79 84.17 85.77 84.18 85.77"/><path class="cls-10" d="M100.07,71.86l-1.72.38a.18.18,0,0,1-.23-.1L98.05,72l-2.77-4.68c-.15-.25-.19-.24.1-.4L97,66c.13-.07.21-.1.29.07q1.35,2.83,2.72,5.65A.66.66,0,0,1,100.07,71.86Z" transform="translate(-17.11 -17.11)"/><path class="cls-1" d="M85,153A67.93,67.93,0,1,1,153,85,68,68,0,0,1,85,153Zm0-133.6A65.67,65.67,0,1,0,150.71,85,65.74,65.74,0,0,0,85,19.37Z" transform="translate(-17.11 -17.11)"/><path class="cls-1" d="M100.66,43.55A62.27,62.27,0,0,1,107,41c-5.1-6.35-11-11.25-19.28-12.55-7.24-1.14-13.83.86-20.15,4.16a62.28,62.28,0,0,0-13.76,10,1.66,1.66,0,0,1-1,.66A18.92,18.92,0,0,1,55,40.59c4.66-5.44,9.88-10.24,16.35-13.46,11.45-5.7,22.45-4.41,33,2.34A38.07,38.07,0,0,1,111,34.82c.2.2.42.38.71.64l2.48-6.77.2,0q.61,3.74,1.23,7.48c.5,3.1,1,6.2,1.51,9.3.09.54.12.76-.62.64-5.15-.82-10.3-1.57-15.46-2.35A2.11,2.11,0,0,1,100.66,43.55Z" transform="translate(-17.11 -17.11)"/><path class="cls-1" d="M47.83,112.16a3.81,3.81,0,0,0-5.77,1.48c-.28.62-.38,1,.57.94,1.31-.08,2.62,0,3.93,0,.27,0,.8-.3.73.4,0,.5-.25.73-.81.72-1.34,0-2.68,0-4,0-.37,0-.81-.14-.81.53s.44.52.81.52h4.39c.06.86-.22,1.21-1.06,1.15-1-.08-2.1,0-3.14,0-.8,0-.77.28-.56.86a3.73,3.73,0,0,0,5,2c.23-.1.46-.23.7-.35.2,1.68.16,1.74-1.39,2a5.12,5.12,0,0,1-6-3.76c-.15-.46-.24-.89-.88-.76-.2,0-.55.07-.5-.26s-.09-.84.44-.85.59-.22.58-.65-.3-.43-.6-.42-.49,0-.41-.36,0-.77.44-.73c.65.06.71-.33.85-.8a5.52,5.52,0,0,1,6.55-3.64C48.28,110.48,48.37,110.64,47.83,112.16Z" transform="translate(-17.11 -17.11)"/><path class="cls-8" d="M30.12,91.29a2,2,0,0,1,2.73,1.16c.44.94,1.12,1.76,1.64,2.67.36.63.58.87,1.05.06.63-1.07,1.43-2,2-3.11a1.54,1.54,0,0,1,2.07-.78l-4.05,6c.74,0,1.31,0,1.88,0s.58.11.57.55-.18.5-.53.49-.79,0-1.18,0-.77,0-.77.66.37.56.76.56.79,0,1.18,0,.54.2.54.59-.12.56-.51.51h-.1c-1.83.1-1.86.1-1.82,2,0,.7-.19.88-.87.87s-1-.13-.87-.86a.54.54,0,0,0,0-.1c0-1.81,0-1.82-1.83-1.91-.37,0-.61,0-.62-.52s.23-.61.66-.59.72,0,1.08,0,.74,0,.73-.58-.19-.68-.69-.64-.85,0-1.28,0-.5-.16-.5-.52.13-.53.51-.51c.59,0,1.17,0,1.94,0Z" transform="translate(-17.11 -17.11)"/><path class="cls-8" d="M42.24,57.89a13.1,13.1,0,0,0,2.2.69c.47.09.74.08.71-.52,0-1-.05-2,0-2.94,0-.56-.35-.72-.69-1-1-.72-2-1.49-2-2.95a2.54,2.54,0,0,1,1.88-2.56c.48-.14.88-.22.79-.85,0-.2.19-.24.35-.25s.39,0,.37.21c-.09,1,.7.69,1.18.86s1.4,0,1.32,1.06c0,.5-.16.5-.58.36-1.89-.61-1.89-.6-1.89,1.42a2.31,2.31,0,0,1,0,.39,2.09,2.09,0,0,0,1.26,2.51A2.41,2.41,0,0,1,48.53,57a3,3,0,0,1-2,2.6c-.38.16-.76.24-.67.78,0,.24-.11.35-.35.34s-.45,0-.41-.29c.1-.67-.37-.62-.78-.69s-.77-.18-1.15-.22C42.23,59.39,41.92,58.88,42.24,57.89ZM46,55.12v3.33C47.63,57.69,47.65,56.32,46,55.12Zm-.85-5.53c-.85.35-1.32.83-1.28,1.65a1.84,1.84,0,0,0,1.28,1.65Z" transform="translate(-17.11 -17.11)"/><path class="cls-1" d="M128.58,112a3.81,3.81,0,0,0-5.77,1.48c-.28.62-.38,1,.57.94,1.31-.08,2.62,0,3.93,0,.27,0,.8-.3.73.4,0,.5-.25.73-.81.72-1.34,0-2.68,0-4,0-.37,0-.81-.14-.81.53s.44.52.81.52h4.39c.06.86-.22,1.21-1.06,1.15-1-.08-2.1,0-3.14,0-.8,0-.77.28-.56.86a3.73,3.73,0,0,0,5,2c.23-.1.46-.23.7-.35.2,1.68.16,1.74-1.39,2a5.12,5.12,0,0,1-6-3.76c-.15-.46-.24-.89-.88-.76-.2,0-.55.07-.5-.26s-.09-.84.44-.85.59-.22.58-.65-.3-.43-.6-.42-.49,0-.41-.36,0-.77.44-.73c.65.06.71-.33.85-.8a5.52,5.52,0,0,1,6.55-3.64C129,110.34,129.12,110.51,128.58,112Z" transform="translate(-17.11 -17.11)"/><path class="cls-8" d="M131.85,91.29a2,2,0,0,1,2.73,1.16c.44.94,1.12,1.76,1.64,2.67.36.63.58.87,1.05.06.63-1.07,1.43-2,2-3.11a1.54,1.54,0,0,1,2.07-.78l-4.05,6c.74,0,1.31,0,1.88,0s.58.11.57.55-.18.5-.53.49-.79,0-1.18,0-.77,0-.77.66.37.56.76.56.79,0,1.18,0,.54.2.54.59-.12.56-.51.51h-.1c-1.83.1-1.86.1-1.82,2,0,.7-.19.88-.87.87s-1-.13-.87-.86a.54.54,0,0,0,0-.1c0-1.81,0-1.82-1.83-1.91-.37,0-.61,0-.62-.52s.23-.61.66-.59.72,0,1.08,0,.74,0,.73-.58-.19-.68-.69-.64-.85,0-1.28,0-.5-.16-.5-.52.13-.53.51-.51c.59,0,1.17,0,1.94,0Z" transform="translate(-17.11 -17.11)"/><path class="cls-1" d="M133.53,79c1.46,0,2.8,0,4.14,0,.57,0,.73.18.72.72s-.07.84-.74.82c-1.87,0-3.73,0-5.6,0-.27,0-.69.13-.67-.33s-.3-1,.25-1.24c1.77-.85,1.45-2.44,1.48-3.93,0-.63-.46-.44-.77-.43-.48,0-.71-.08-.72-.63s.24-.71.71-.63c.7.12.83-.22.79-.83a9,9,0,0,1,0-1.67c.32-2.71,2.69-3.28,4.78-2.63.56.18.31.76.27,1.12-.06.55-.44.11-.67.09-.42,0-.84-.18-1.26-.18a1.3,1.3,0,0,0-1.39,1,9.64,9.64,0,0,0-.11,2.74c0,.58.54.3.84.34s.91-.16.92.63-.46.68-.89.62c-.78-.11-.91.23-.9.94A4,4,0,0,1,133.53,79Z" transform="translate(-17.11 -17.11)"/><path class="cls-8" d="M122.78,57.7a13.1,13.1,0,0,0,2.2.69c.47.09.74.08.71-.52,0-1-.05-2,0-2.94,0-.56-.35-.72-.69-1-1-.72-2-1.49-2-2.95a2.54,2.54,0,0,1,1.88-2.56c.48-.14.88-.22.79-.85,0-.2.19-.24.35-.25s.39,0,.37.21c-.09,1,.7.69,1.18.86s1.4,0,1.32,1.06c0,.5-.16.5-.58.36-1.89-.61-1.89-.6-1.89,1.42a2.31,2.31,0,0,1,0,.39,2.09,2.09,0,0,0,1.26,2.51,2.41,2.41,0,0,1,1.36,2.61,3,3,0,0,1-2,2.6c-.38.16-.76.24-.67.78,0,.24-.11.35-.35.34s-.45,0-.41-.29c.1-.67-.37-.62-.78-.69s-.77-.18-1.15-.22C122.78,59.2,122.47,58.69,122.78,57.7Zm3.73-2.76v3.33C128.18,57.5,128.19,56.14,126.51,54.93Zm-.85-5.53c-.85.35-1.32.83-1.28,1.65a1.84,1.84,0,0,0,1.28,1.65Z" transform="translate(-17.11 -17.11)"/></svg>