<?xml version="1.0" encoding="UTF-8" standalone="no"?>
<!DOCTYPE svg PUBLIC "-//W3C//DTD SVG 1.1//EN"
"http://www.w3.org/Graphics/SVG/1.1/DTD/svg11.dtd">


<!-- Page 1 -->
<svg x="0" y="0" width="1036" height="611" viewBox="0 0 1036 611" version="1.1" xmlns="http://www.w3.org/2000/svg" xmlns:xlink="http://www.w3.org/1999/xlink"
style="display: block;margin-left: auto;margin-right: auto;">
<defs>

<style type="text/css"><![CDATA[

.g1_1{
fill: #00652E;
}
.g2_1{
fill: #8CC63E;
}


]]></style>

</defs>
<path d="M0,0
L0,611
L1036,611
L1036,0 Z " 
fill="#FFFFFF" stroke="none" />
<path fill-rule="evenodd" d="M205.2,201.2c0.8,0.2,3.5,-0.1,2.5,-2.5c-0.9,-3.6,-12.2,-16,-15.9,-22.2c-3.6,-5.9,-6.5,-12.1,-9.5,-18.3c-1.9,-3.8,-2.8,-6.4,-4.8,-10.2c-0.6,-1.1,-1.7,-2.9,-4.3,-4.3c-3.4,-1.7,-6.6,-1.9,-10.4,-2.3c-8.3,-1.1,-13.5,4.8,-11.9,12.8c1.4,7.5,4.8,14.1,8.9,20.3c3,4.7,6.4,9.1,9.6,13.6c2.3,3.2,4.8,6.3,8.8,7.4c2.4,0.6,20.6,4.1,27,5.7m5.6,-100.9c4.8,0.8,9.6,2,14.4,3.4c4.3,1.4,8.6,3.1,12.7,4.9c8.3,3.7,16.5,7.3,24.5,11.4c9.8,5.1,19.5,10.4,28.9,16.1c10.6,6.5,20.8,13.6,31.1,20.6c6.2,4.1,12.4,8.3,18.4,12.8c7.5,5.7,14.8,11.7,22.2,17.5c4.3,3.4,8.8,6.7,13,10.2c4.9,4,9.5,8.2,14.2,12.3c2.9,2.6,5.8,5.1,8.6,7.7c1,1,12.7,11.8,16.7,15.6c2.5,2.4,5.1,4.6,7.5,7.1c4.5,4.4,9,8.8,13.4,13.4c5.4,5.8,10.8,11.8,16.1,17.8c3.5,3.8,7.1,7.6,10.3,11.7c4.4,5.8,8.6,11.7,12.7,17.7c2.4,3.7,1.6,7.4,-1.8,10.3c-1.4,1.2,-2.5,1,-3.8,-0.5c-6,-7.2,-12.1,-14.5,-18.3,-21.6c-4.9,-5.6,-9.9,-11.1,-15,-16.6c-5.2,-5.5,-10.6,-11,-16,-16.4C414.9,250,409.2,244.4,403.3,238.9C397,233.1,390.4,227.6,384,221.9c-4.1,-3.6,-8.1,-7.4,-12.3,-11c-4.7,-4,-9.7,-7.8,-14.6,-11.7c-6.3,-5,-12.5,-10.1,-18.9,-14.9c-6,-4.6,-12,-8.9,-18.2,-13.2c-7.9,-5.5,-16,-11,-24,-16.4c-3.9,-2.6,-8,-4.9,-12,-7.3c-5.6,-3.3,-11,-6.7,-16.7,-9.8c-4.5,-2.6,-9.3,-4.8,-13.9,-7.1c-3.2,-1.6,-6.3,-3.3,-9.5,-4.7c-5.7,-2.5,-11.4,-5.1,-17.3,-7c-7.5,-2.5,-15.2,-4.5,-22.8,-6.4c-2.9,-0.7,-6,-0.7,-9,-0.6c-4.7,0.1,-8.4,4.4,-7.4,9.1c1.4,7,3.2,14,5.2,20.9c1.6,5.3,3.4,10.5,5.8,15.4c3.2,6.4,7.1,12.5,10.7,18.7c1.2,2,2.4,4,3.8,5.8c5.3,6.5,18.1,22.6,24,25.8c6.6,3.6,11,4.3,15.9,6c5.7,2.1,11.4,4.4,17,6.6c6.9,2.8,13.8,5.6,20.7,8.5c7.3,3.1,14.6,6.3,21.8,9.4c5.8,2.5,11.7,5,17.3,7.8c8.3,4.1,16.5,8.4,24.6,12.8c9.5,5.1,18.9,10.2,28.2,15.7c7,4.2,13.7,9,20.5,13.5c5.4,3.6,10.8,7.1,16,10.9c5.4,4,10.6,8.2,15.8,12.6c6.9,5.9,13.6,11.9,20.2,18c2.2,2,4,4.5,5.7,6.9c0.6,0.8,0.7,2.1,0.7,3.1c-0.2,1.7,-0.5,3.4,-0.9,5c-0.3,1,-1,2.5,-1.4,2.5c-1.1,-0.1,-2.3,-0.6,-3.1,-1.3c-1.7,-1.5,-3,-3.4,-4.6,-4.9C445.8,335.4,440.5,330,434.6,325.3c-8.4,-7,-17.1,-13.6,-25.9,-20.2C403,300.9,397.1,297,391.1,293.2c-7.8,-5,-15.6,-10.1,-23.7,-14.8C356.1,272,344.7,265.6,333,259.7c-9.1,-4.6,-18.7,-8.5,-28,-12.7c-7,-3.1,-14,-6.3,-21.1,-9.2c-11,-4.4,-21.9,-9,-33.1,-12.9C242,221.8,232.9,219.6,224,217.2c-7.7,-2.1,-15.4,-4,-23.1,-5.8c-2.9,-0.6,-5.9,-0.8,-8.8,-1.3c-6,-0.9,-12,-1.7,-18,-2.9c-7.6,-1.7,-15.4,-1.6,-23.1,-1c-7.4,0.5,-14.8,1.5,-22.1,3.1c-6,1.3,-9.2,5.9,-9.8,11.9c-0.3,1.8,0.6,4,1.5,5.7c4.1,7.2,11,11.5,17.3,16.2c11.2,8.5,22.5,16.8,33.8,25.1c5.1,3.6,10.3,7.1,15.2,10.8c3.9,3,7.5,6.2,11.2,9.4c5.6,4.6,11.2,9.2,16.7,14c4.8,4.2,9.2,8.8,13.9,13c5.3,4.7,10.6,9.4,16.2,13.8c7.9,6.1,16.1,11.9,25.6,15.3c5.1,1.8,10.6,2.6,16,3.9c1.8,0.4,3.6,1.1,5.4,1.3c8.9,1.3,17.9,2.7,26.9,3.7c9.4,1.1,18.9,1.7,28.3,2.7c8.4,0.8,16.7,1.8,25.1,2.7c3.2,0.4,6.5,0.5,9.7,0.9c6.7,0.8,13.3,1.6,20,2.6c3.1,0.4,6.1,1.4,9.2,2.1c3.3,0.7,6.6,1.2,9.9,2c5.8,1.6,11.6,3.2,17.4,4.9c4.5,1.3,9.1,2.8,13.5,4.2c2.2,0.7,4.3,1.4,6.3,2.4c1.8,0.9,3.4,1.8,3.6,4.5c0.1,1.6,2,3.3,3.5,4.4c2,1.6,2.3,3.5,2.3,5.7c-0.1,1.8,-3.1,3.1,-5.4,2.4c-2,-0.7,-3.9,-1.7,-5.9,-2.5c-7.9,-3.1,-15.7,-6.5,-23.7,-9c-7.8,-2.5,-15.8,-4.3,-23.9,-6c-6.3,-1.3,-12.8,-1.9,-19.2,-3c-3.7,-0.5,-7.3,-1.6,-11,-2c-4.4,-0.6,-8.8,-0.8,-13.1,-1.1c-5.2,-0.4,-10.4,-0.7,-15.6,-1.2c-9.1,-0.8,-18.2,-1.5,-27.3,-2.5c-4.2,-0.4,-8.4,-1.4,-12.7,-2c-3,-0.5,-6.1,-0.5,-9.2,-1c-9.4,-1.9,-18.9,-2.8,-28.2,-5.7c-8.3,-2.7,-16.8,-5,-24.2,-9.9c-6.1,-4,-11.9,-8.6,-17.7,-13.2C223.4,330,216.3,324,209.4,317.9c-7.5,-6.6,-14.7,-13.6,-22.3,-20.1c-5,-4.3,-10.5,-8,-15.8,-12c-5.1,-3.9,-10.2,-8.1,-15.4,-12C148.8,268.5,141.6,263.3,134.5,258c-6.1,-4.5,-12.3,-8.9,-18,-13.8c-4.9,-4.3,-9.3,-9.1,-12.1,-15.1c-1.8,-3.9,-2.8,-10.1,-1.6,-14.7c0.4,-1.8,1.8,-5.8,4.3,-8.5c1.9,-2.3,3.8,-4,6.3,-5.7c4.7,-3.3,10.3,-4.3,16,-4.9c9,-0.8,18.1,-1.2,27.1,-1.8c0.7,-0.1,3.8,-0.9,1.5,-4.1c-3.1,-4.2,-6.5,-8.1,-9,-12.7c-4.7,-8.6,-9.2,-17.5,-9.2,-27.7c0,-5.1,3.8,-10.9,9.5,-12.8c6.7,-2.3,13.5,-2.8,20.3,0.1c1,0.4,4.5,0.6,3.6,-3.6c-1,-4.4,-3.6,-13.9,-1.4,-22.6c2,-5.4,7.1,-9.8,12.5,-11.1c7.8,-2.1,21.4,0.3,26.5,1.3Z" class="g1_1" />
<path fill-rule="evenodd" d="M871.3,330.7c4.6,1.4,8.8,-2.1,13.1,-4.5c5,-2.9,9.7,-6.5,14.5,-9.9c5.9,-4.2,11,-9,15,-15.2c3.3,-5.2,2.3,-10.5,-3.3,-13.1c-4.4,-2.1,-9.1,-3.5,-13.7,-4.6c-1.7,-0.4,-4.3,0.4,-5.6,1.6c-5.4,4.6,-10.3,9.7,-15.6,14.4c-3.9,3.5,-7.8,7.1,-12.1,10.1c-6.1,4.2,-12.5,8,-19.2,10.9c-2.4,1.4,-2.7,2.7,-1.7,4.7c1.3,2.5,14.3,2.8,18,3.5c3.2,0.6,6.4,1.3,10.6,2.1m-37.5,4.6c-8.4,-1.2,-16.7,-2.8,-25.2,-3.7c-6.8,-0.7,-13.8,-0.7,-20.7,-0.8c-6.5,-0.2,-13.1,-0.2,-19.6,-0.2c-4,0.1,-7.9,0.4,-11.8,0.5c-8.4,0.2,-16.8,0.2,-25.2,0.5c-8.9,0.4,-17.7,1,-26.5,1.8c-8.5,0.7,-17,1.6,-25.4,2.7c-7.5,1,-14.9,2.1,-22.2,3.5c-14,2.7,-28,5.1,-41.7,8.6c-15.1,3.8,-29.9,8.5,-44.7,13.3c-5.2,1.7,-9.9,4.8,-14.9,7.1c-0.9,0.5,-2.2,0.4,-3.3,0.5c-0.1,-1.1,-0.3,-2.3,-0.2,-3.4c0.6,-5.4,4.6,-7.8,9,-9.9c11.5,-5.1,23.3,-9.4,35.5,-12.4c11.7,-2.9,23.4,-6.1,35.2,-8.7c9.4,-2.1,18.9,-3.6,28.4,-5.2c9.9,-1.6,19.7,-3.4,29.7,-4.5c9.3,-1.1,18.6,-1.4,28,-2.1c4.9,-0.3,9.8,-0.8,14.8,-1c9.5,-0.3,19,-0.5,28.6,-0.7c10.7,-0.2,21.5,-0.6,32.2,-0.5c6.5,0.1,10.9,0.7,17.4,0.7c8.6,0,24.2,-10.7,29.2,-13.4c2.3,-1.3,4.4,-2.8,6.7,-4.1c10,-6.1,18.4,-14.1,26.7,-22.4c6.4,-6.4,12.5,-13,17.1,-20.8c1.5,-2.6,2.9,-6,2.6,-8.9c-0.7,-7.9,-20.7,-9.5,-23.2,-9.9c-9.2,-1.2,-18.6,-1.5,-27.9,-0.7c-9.7,0.9,-19.4,1.2,-29.1,2.3c-9.1,1.1,-18.2,2.7,-27.2,4.4c-12.7,2.5,-25.3,5.3,-37.9,8c-4.2,1,-8.3,2.2,-12.5,3.3c-8.5,2.4,-16.9,4.7,-25.3,7.2c-9.9,2.9,-19.8,5.7,-29.5,9.2c-12.5,4.6,-24.8,9.7,-37.2,14.5c-8.1,3.2,-16.2,6.2,-24.3,9.4c-3.2,1.3,-6.3,2.9,-9.4,4.4c-5.7,2.7,-11.4,5.5,-17.1,8.3c-4.6,2.2,-9.3,4.3,-13.9,6.6c-4.1,2,-8.2,4.2,-12.2,6.3c-3.4,1.9,-6.6,3.9,-10,5.6c-0.8,0.4,-2.5,0,-3.1,-0.7c-2.4,-2.6,-2.3,-6,0.7,-8c6.4,-4.4,12.8,-8.7,19.5,-12.5c7.6,-4.4,15.4,-8.4,23.3,-12.3c4.3,-2.2,8.7,-4.2,13.2,-6.1c11.1,-4.6,22.2,-9,33.2,-13.7c3,-1.3,21.5,-8.3,27.1,-10.4c4.1,-1.7,8.4,-3.1,12.6,-4.7c1.5,-0.5,3,-1.1,4.5,-1.5c8.7,-2.5,17.3,-5,26,-7.3c9,-2.5,18,-5.1,27,-7.4c15.4,-4,30.7,-8.2,46.4,-10.4c13.2,-1.9,26.4,-4.3,39.7,-5.7c9.2,-1,24.2,-2.3,44.6,-0.4c5.7,0.7,11.1,1.1,17.7,3.3c6.4,1.3,12.7,5.1,17.2,9.7c4.7,4.9,5.1,9.7,2.9,16.4c-1.9,5.7,-5,10.6,-9.1,14.9c-0.8,0.8,-1.7,3.1,0.6,4.5c6.6,2.6,11.1,0.7,18.9,6.7c5.3,3.7,7.2,11.3,4.4,17.2c-3,6.3,-7.2,11.3,-12.7,15.5c-4,3,-7.7,6.5,-11.7,9.6c-1.9,1.5,-4.3,2.5,-6.5,3.7c-1.6,0.9,-3.3,2.1,-2.5,3.9c0.5,1.1,2.3,1.7,3.7,2.3c3.6,1.7,7.4,3,10.9,4.8c4.7,2.4,9.4,4.8,13.7,7.7c7.8,5.1,14.5,11.3,14.2,21.8c-0.2,8.1,-3.3,14.5,-10.3,19c-9.9,6.5,-21.1,9.3,-32.4,12.2c-11.3,3,-22.5,6.1,-33.8,9.2c-8.5,2.3,-17.1,4.4,-25.5,7.1c-9.6,3,-19.1,6.5,-28.6,9.8c-8.5,3,-16.9,6.2,-25.5,8.8c-10.5,3.4,-21.1,6.6,-31.8,9.2c-4.7,1.2,-9.9,0.9,-14.8,0.9c-5.3,-0.1,-10.7,-0.3,-15.9,-1c-5.4,-0.7,-10.7,-1.9,-16,-3c-7.9,-1.7,-15.7,-3.5,-23.5,-5.4c-5.5,-1.4,-11,-3.1,-16.4,-4.7C651.8,431.8,645,430,638.2,428c-4.3,-1.2,-8.5,-2.8,-12.9,-4c-5.5,-1.5,-11,-2.9,-16.5,-4.1c-6.2,-1.4,-12.4,-2.6,-18.6,-3.8c-3.2,-0.7,-6.5,-1.2,-9.7,-1.7c-4.5,-0.7,-9.1,-1.7,-13.6,-2.1c-5.7,-0.5,-11.4,-0.6,-17.1,-0.7c-4,-0.2,-8.1,-0.1,-12.2,0c-2,0,-3.9,0.2,-5.9,0.7c-2.1,0.5,-4.3,-0.1,-4.6,-1.9c-0.3,-1.4,1.3,-4,2.6,-4.6c3.3,-1.4,6.2,-3,8.2,-6c0.3,-0.5,1.4,-0.7,2.2,-0.7c2.1,0,4.1,0.1,6.1,0.2c6.5,0.3,12.9,0.5,19.3,0.9c4.5,0.3,8.9,0.7,13.4,1.3c2.6,0.3,5.3,0.9,8,1.4c6.2,1.3,12.5,2.6,18.8,3.9c5.3,1.1,10.6,2.2,15.8,3.5c5,1.2,10,2.6,14.9,4c8.7,2.5,17.5,5.2,26.2,7.7c9.3,2.6,18.6,5.2,27.9,7.5c5.9,1.5,11.9,2.4,17.8,3.6c4.2,0.8,8.5,1.8,12.7,2.3c9.5,1.2,18.9,0.3,28.1,-2.3c7.4,-2.1,14.9,-4.5,22.2,-7c19.4,-6.6,38.7,-13.5,58.1,-20.2c5.3,-1.8,10.9,-2.8,16.3,-4.2c4,-1,7.9,-2.2,11.9,-3.2c13.1,-3.5,26.3,-6.6,39.4,-10.4c5.3,-1.6,11,-3.1,15.3,-7.1c8,-7.5,7.4,-16.2,-2,-21.7c-7.9,-4.7,-16.1,-9.1,-24.5,-12.8c-6.1,-2.6,-12.8,-3.9,-19.4,-5.7c-3.2,-0.8,-6.5,-1.4,-9.8,-2.1c0,-0.1,-15.2,-2.4,-22.8,-3.4Z" class="g1_1" />
<path d="M433.8,491.2c-2.8,21.5,-22.5,36.6,-43.9,33.7C368.4,522.1,353.3,502.4,356.1,481c2.8,-21.5,22.5,-36.6,44,-33.8c21.4,2.8,36.6,22.5,33.7,44Z" class="g2_1" />
<path d="M490.3,445.1c-2.2,17.2,-18,29.4,-35.3,27.1C437.8,470,425.6,454.1,427.9,436.9c2.3,-17.3,18.1,-29.4,35.3,-27.1c17.3,2.2,29.4,18.1,27.1,35.3Z" class="g2_1" />
<path d="M528.8,383.4C526.8,398.5,513,409,497.9,407c-15,-1.9,-25.6,-15.7,-23.6,-30.8c1.9,-15,15.7,-25.6,30.8,-23.7c15.1,2,25.7,15.8,23.7,30.9Z" class="g2_1" />
<path d="M537.5,321.9c-1.9,14.4,-15.1,24.6,-29.5,22.7C493.6,342.7,483.4,329.4,485.3,315c1.9,-14.4,15.1,-24.5,29.5,-22.6c14.5,1.8,24.6,15.1,22.7,29.5Z" class="g2_1" />
<path d="M534.3,264.6c-1.5,11.8,-12.4,20.2,-24.3,18.6c-11.8,-1.6,-20.2,-12.4,-18.6,-24.3c1.6,-11.8,12.4,-20.2,24.3,-18.6c11.8,1.5,20.2,12.4,18.6,24.3Z" class="g2_1" />
<path d="M548.8,211c-1.4,10.9,-11.4,18.6,-22.3,17.2c-10.9,-1.4,-18.6,-11.5,-17.1,-22.3c1.4,-10.9,11.4,-18.6,22.3,-17.2c10.9,1.5,18.5,11.4,17.1,22.3Z" class="g2_1" />
<path d="M581.1,178.5c-1.2,9.5,-9.9,16.1,-19.4,14.9c-9.5,-1.2,-16.2,-10,-14.9,-19.4c1.2,-9.5,9.9,-16.2,19.4,-15c9.5,1.3,16.2,10,14.9,19.5Z" class="g2_1" />
<path d="M616.5,153.8c-1,7.4,-7.7,12.5,-15.1,11.6c-7.4,-1,-12.6,-7.7,-11.6,-15.1c1,-7.4,7.7,-12.5,15.1,-11.6c7.4,1,12.6,7.7,11.6,15.1Z" class="g2_1" />
<path d="M647.8,143.8c-0.8,6,-6.3,10.1,-12.3,9.4c-5.9,-0.8,-10.1,-6.3,-9.3,-12.2c0.8,-6,6.2,-10.2,12.2,-9.4c5.9,0.8,10.1,6.2,9.4,12.2Z" class="g2_1" />

</svg>
