<svg id="Layer_1" data-name="Layer 1" xmlns="http://www.w3.org/2000/svg" viewBox="0 0 140.27 140.27"><defs><style>.cls-1{opacity:0.2;}.cls-2{fill:#eee;}.cls-3{fill:#555658;}.cls-4{fill:#d86943;}.cls-5{fill:#575757;}</style></defs><title>about_opp</title><g class="cls-1"><circle class="cls-2" cx="70.13" cy="70.13" r="69"/><path class="cls-3" d="M85,155.17A70.13,70.13,0,1,1,155.17,85,70.21,70.21,0,0,1,85,155.17Zm0-138A67.87,67.87,0,1,0,152.91,85,67.94,67.94,0,0,0,85,17.17Z" transform="translate(-14.91 -14.91)"/><circle class="cls-4" cx="87.97" cy="68.67" r="7.45"/><path class="cls-5" d="M99.9,117.31c2-2.24,3.88-4.52,5.88-6.72,3.25-3.57,8-6.11,8.16-11.91-.94,5.48-.19,11.2-3.45,16.13a3.37,3.37,0,0,0,.47,3c1.67,2.16,3.34,4-1.11,4.85,1.69,2.22,3.64,4,4.42,6.16.38,1.05-1.44,2.9-2,3.95l-4.77-.43,2.8-3.86-.25-.62c-.9.53-1.78,1.11-2.71,1.58-.34.17-1,.24-1.18,0a2.22,2.22,0,0,1-.57-1.48c.18-1.91.5-3.8.76-5.7l-1-.38c-1.52,2.6-3.18,5.12-4.52,7.8-2,4-4.74,6.79-9.35,7.6-4.15.72-8.24,2.47-12.35,2.48-4.39,0-8.39-2.24-11.38-5.76-.53-.63-1.14-1.2-1.78-1.87-2,4.59,3.58,5.56,4.72,9.76a44.82,44.82,0,0,1-16.36-18c-.05-.1,0-.28-.06-.36-2.92-3.58-3.27-7,.63-10.14a1.41,1.41,0,0,0,.27-1.06c-.61-6.86,1.39-14.21-2.51-20.46C48.36,85,50,77.75,50.25,70.52q.17-5.62.37-11.24a4.64,4.64,0,0,1,.33-1.8A75.12,75.12,0,0,1,55,49.58c.87-1.35,2.5-2.2,3.73-3.35a13.83,13.83,0,0,0,3-3.74c5-2.09,5.25-2.4,3.15-5.59,9.59-8.33,20.27-11.27,32.4-6.41,9.44,3.78,16,10.92,16.47,17.75,3,.28,3.34,2.19,3.44,5,.11,3.13,1.42,6.21,2.15,9.33a20.94,20.94,0,0,1,1,5.41c-.22,5.05-.25,10.2-1.3,15.11-.94,4.43-3.13,8.59-4.53,12.27l.66-7.53c-2,4.24-4.27,7.73-9.43,7.95-5.88.25-10-2.32-14.28-6.53-3.71-3.68-1.33-8.11-3.63-11.61l5-4L90,72.89l.15-.46c4.84.34,9.71.42,14.5,1.08s9.77,1.82,10.34,8.7l1.17-.76c.13-1,.74-2.33.32-2.94-2.51-3.64-1.4-7.8-1.94-11.7a16.55,16.55,0,0,0-3.12-7.41A52.09,52.09,0,0,0,105,52.33c-1.24-1.26-3-2.65-4.65-2.77C93.39,49,86.36,48.18,79.73,51.3a3.26,3.26,0,0,0-1.63,1.27c-1,2.53-1.92,5.12-2.86,7.7A4.82,4.82,0,0,0,74.66,62c.37,5.18.39,5.18-1.49,9l13.18,1.09v.38l-4.21.22c0,.3-.12.48-.06.54C88.43,80,84.93,87,82.57,94c-.62,1.86-1.46,5-.63,5.7,1.5,1.27,4.16,1.31,6.37,1.57,3.54.42,7.12.6,10.91.9l-2.66-4.25.52-.47c1.68,2.07,3.66,4,4.89,6.29a4.91,4.91,0,0,1-.58,4.42c-2.48,2.94-2.44,6-1.37,9.29l-2.72-8-1.71.43c-.87-1.43-1.66-4-2.63-4.08-3.58-.26-7.22.32-10.84.58l-.06.81,10.94.8,0,.47H75.92c.18.82.21,1.63.39,1.67a39.27,39.27,0,0,0,7.35,1.24c3.7,0,7.41-.42,11.11-.66l-4.62,5.44-3.42-2.47-2.26,2.08-2-2.62-.64,4.62,7.91.76c-6.33,3.8-.59,4.82.76,7.18l7.26-8.33,1.47,4.25.68,0ZM65.3,111.48l1.52-.3c1.67-3.65-2-8.13,1.37-11.38,2.86-2.79,6.16-5.14,9.27-7.69L76.79,91c-1.91.66-3.82,1.34-5.74,2-2.61.88-6.45,1-7.52,2.79-1.29,2.15-.47,5.74-.11,8.66A48.49,48.49,0,0,0,65.3,111.48Zm42.77-29-3.89-5.81-2.69,5.49Z" transform="translate(-14.91 -14.91)"/><path class="cls-5" d="M102.87,139.9l1.85-6.88,3.89,3.42-4.8,4.09Z" transform="translate(-14.91 -14.91)"/></g></svg>