<svg id="Layer_1" data-name="Layer 1" xmlns="http://www.w3.org/2000/svg" viewBox="0 0 140.27 140.27"><defs><style>.cls-1{fill:#eee;}.cls-2{fill:#555658;}.cls-3{fill:none;}.cls-4{fill:#d86943;}</style></defs><title>events</title><circle class="cls-1" cx="70.13" cy="70.13" r="69"/><path class="cls-2" d="M85,155.17A70.13,70.13,0,1,1,155.17,85,70.21,70.21,0,0,1,85,155.17Zm0-138A67.87,67.87,0,1,0,152.91,85,67.94,67.94,0,0,0,85,17.17Z" transform="translate(-14.91 -14.91)"/><path class="cls-3" d="M57.37,115.66a4,4,0,0,0-1.08-.56,3.82,3.82,0,0,0-1.22-.2,3.86,3.86,0,0,0-1.23.2,4.06,4.06,0,0,0-1.1.56,3.84,3.84,0,0,0-.86.86,3.58,3.58,0,0,0-.54,1.11h7.46a3.73,3.73,0,0,0-.56-1.11A4,4,0,0,0,57.37,115.66Z" transform="translate(-14.91 -14.91)"/><path class="cls-3" d="M83.62,115.66a4,4,0,0,0-1.08-.56,3.82,3.82,0,0,0-1.22-.2,3.86,3.86,0,0,0-1.23.2,4.06,4.06,0,0,0-1.1.56,3.84,3.84,0,0,0-.86.86,3.58,3.58,0,0,0-.54,1.11H85a3.73,3.73,0,0,0-.56-1.11A4,4,0,0,0,83.62,115.66Z" transform="translate(-14.91 -14.91)"/><path class="cls-4" d="M59.45,114.4A6.2,6.2,0,1,0,55.06,125a6,6,0,0,0,4.05-1.51,1.15,1.15,0,0,0,.33-.83,1.12,1.12,0,0,0-1.15-1.15,1.21,1.21,0,0,0-.76.29,3.66,3.66,0,0,1-1.13.66,4,4,0,0,1-2.58,0,4,4,0,0,1-1.08-.56,3.89,3.89,0,0,1-.86-.86,3.77,3.77,0,0,1-.55-1.11H60.1a1.14,1.14,0,0,0,.82-.33,1.1,1.1,0,0,0,.34-.83,6.2,6.2,0,0,0-.45-2.39A6,6,0,0,0,59.45,114.4Zm-8.12,3.23a3.58,3.58,0,0,1,.54-1.11,3.84,3.84,0,0,1,.86-.86,4.06,4.06,0,0,1,1.1-.56,3.86,3.86,0,0,1,1.23-.2,3.82,3.82,0,0,1,1.22.2,3.95,3.95,0,0,1,1.95,1.42,3.73,3.73,0,0,1,.56,1.11Z" transform="translate(-14.91 -14.91)"/><path class="cls-4" d="M73.55,112.92a1.1,1.1,0,0,0-.37-.25,1.17,1.17,0,0,0-.45-.09,1.07,1.07,0,0,0-1,.59l-3.61,7.88-3.62-7.9a1.08,1.08,0,0,0-.43-.43,1.2,1.2,0,0,0-.58-.15,1.17,1.17,0,0,0-.45.09,1.09,1.09,0,0,0-.37.25,1.2,1.2,0,0,0-.24.37,1.14,1.14,0,0,0-.09.44,1.31,1.31,0,0,0,.09.46l4.67,10.17a1,1,0,0,0,1,.62,1.06,1.06,0,0,0,1-.62l4.66-10.17a1.11,1.11,0,0,0,0-.91A1.27,1.27,0,0,0,73.55,112.92Z" transform="translate(-14.91 -14.91)"/><path class="cls-4" d="M85.7,114.4A6.2,6.2,0,1,0,81.31,125a6,6,0,0,0,4.05-1.51,1.15,1.15,0,0,0,.33-.83,1.12,1.12,0,0,0-1.15-1.15,1.21,1.21,0,0,0-.76.29,3.66,3.66,0,0,1-1.13.66,4,4,0,0,1-2.58,0,4,4,0,0,1-1.08-.56,3.89,3.89,0,0,1-.86-.86,3.77,3.77,0,0,1-.55-1.11h8.77a1.14,1.14,0,0,0,.82-.33,1.1,1.1,0,0,0,.34-.83,6.2,6.2,0,0,0-.45-2.39A6,6,0,0,0,85.7,114.4Zm-8.12,3.23a3.58,3.58,0,0,1,.54-1.11,3.84,3.84,0,0,1,.86-.86,4.06,4.06,0,0,1,1.1-.56,3.86,3.86,0,0,1,1.23-.2,3.82,3.82,0,0,1,1.22.2,3.95,3.95,0,0,1,1.95,1.42,3.73,3.73,0,0,1,.56,1.11Z" transform="translate(-14.91 -14.91)"/><path class="cls-4" d="M99.11,114.27A6.05,6.05,0,0,0,97.26,113a5.75,5.75,0,0,0-5.67.69,1.16,1.16,0,0,0-2-.8,1.13,1.13,0,0,0-.34.82v10.08a1.16,1.16,0,1,0,2.31,0v-5.46a3.36,3.36,0,0,1,.27-1.34,3.51,3.51,0,0,1,.75-1.11,3.54,3.54,0,0,1,1.1-.75,3.35,3.35,0,0,1,1.34-.27,3.29,3.29,0,0,1,1.34.28A3.53,3.53,0,0,1,98.24,117a3.29,3.29,0,0,1,.28,1.34v5.46A1.15,1.15,0,0,0,99.68,125a1.11,1.11,0,0,0,.81-.34,1.12,1.12,0,0,0,.34-.83v-5.46a5.54,5.54,0,0,0-.46-2.25A5.81,5.81,0,0,0,99.11,114.27Z" transform="translate(-14.91 -14.91)"/><path class="cls-4" d="M107.89,122.67a2,2,0,0,1-2.21-2.2V114.9h1.38a1.09,1.09,0,0,0,.81-.34,1.13,1.13,0,0,0,.33-.83,1.12,1.12,0,0,0-.33-.81,1.09,1.09,0,0,0-.81-.34h-1.38v-4.16a1.15,1.15,0,0,0-1.15-1.15,1.13,1.13,0,0,0-.83.34,1.11,1.11,0,0,0-.34.81v4.16h-.52a1.1,1.1,0,0,0-.8.34,1.11,1.11,0,0,0-.34.81,1.13,1.13,0,0,0,.34.83,1.1,1.1,0,0,0,.8.34h.52v5.57q0,4.52,4.53,4.52a1.09,1.09,0,0,0,.81-.34,1.17,1.17,0,0,0,0-1.64A1.09,1.09,0,0,0,107.89,122.67Z" transform="translate(-14.91 -14.91)"/><path class="cls-4" d="M119.84,119.31a4.2,4.2,0,0,0-1.46-.82l-5.18-1.71a.41.41,0,0,1-.29-.42.66.66,0,0,1,.18-.49,3.4,3.4,0,0,1,2.55-1,3.74,3.74,0,0,1,2.75,1.13,5.85,5.85,0,0,0,.48.43.94.94,0,0,0,.6.2,1.12,1.12,0,0,0,1.15-1.15,1.08,1.08,0,0,0-.23-.7,6.15,6.15,0,0,0-4.75-2.23,6.53,6.53,0,0,0-1.81.26,5.86,5.86,0,0,0-1.62.74,4.05,4.05,0,0,0-1.17,1.16,2.71,2.71,0,0,0-.45,1.52,2.76,2.76,0,0,0,.84,2h0a4.3,4.3,0,0,0,1.46.82l5.17,1.71a.43.43,0,0,1,.3.43.66.66,0,0,1-.17.45,3.38,3.38,0,0,1-2.55,1,3.75,3.75,0,0,1-2.76-1.13l-.46-.42a.93.93,0,0,0-.62-.22,1.12,1.12,0,0,0-1.15,1.15,1.16,1.16,0,0,0,.24.72,6.13,6.13,0,0,0,4.75,2.2,6.58,6.58,0,0,0,1.81-.25A5.66,5.66,0,0,0,119,124a4.16,4.16,0,0,0,1.17-1.16,2.7,2.7,0,0,0,.45-1.53,2.76,2.76,0,0,0-.84-2Z" transform="translate(-14.91 -14.91)"/><path class="cls-3" d="M115.25,64.66c-.73-6.62-1.49-13.23-1.75-19.89,0-1.23-.42-1.49-1.59-1.42-3.83.23-7.67.34-11.5.48-14.44.54-28.88.82-43.33.57-3-.05-3,0-3.06,3,0,.85.24,1,1,1a10,10,0,0,1,3.69.29,20.5,20.5,0,0,1-3.53,0c-1.23-.14-1.24.51-1.31,1.43-.05.64.13.9.4,1-.78.22-.27,1.35-.41,2-.26,1.22.63,1,1.32,1l3.66,0a6.73,6.73,0,0,1-4,.36c-.34,0-.88-.31-1,.23a4.73,4.73,0,0,0,0,2.27c.21.59,1,.13,1.56.18.38,0,.81-.36,1.15.12-.13.42-.47.27-.72.28-2.2.11-2.14.1-2.15,2.28,0,.87.38.9,1,.9,1.77,0,3.54,0,5.31,0v.38a20.75,20.75,0,0,1-5.2.12c-.88,0-1.18.13-1.15,1.05.05,1.87,0,3.74,0,5.62l.84.17.59-.11v0l4.57-.22,0,.44-4.6.25h0c-1.08-.08-1.66.24-1.46,1.5a11.49,11.49,0,0,1,0,2.68c-.07.8.18,1.09,1,1.07,1.82,0,3.63,0,5.45,0a12,12,0,0,1-5,.29c-1.43-.24-1.46.44-1.53,1.55-.07.95.8.67,1.13,1.1-1.13.35-1.26.76-1.1,2.35.12,1.1.9.66,1.4.64a23.73,23.73,0,0,1,6.25.43l-5,0c-2.57,0-2.57,0-2.56,2.45a1.86,1.86,0,0,0,0,.29c.12.77.37,1.35,1.35,1.28s2.19,0,3.29,0v.41l-3.73,0a5.68,5.68,0,0,0,3.19,1.64c2.86.59,5.73.12,8.6.09q19.18-.17,38.35-.5a11.43,11.43,0,0,1-.94-2.78A10.28,10.28,0,0,1,112,70.77a9.41,9.41,0,0,1,3.78.06C115.7,68.77,115.48,66.71,115.25,64.66ZM70.74,58.74a7.65,7.65,0,0,1,.79-.87,3.71,3.71,0,0,1-.79-.78.45.45,0,0,1,.09-.65c.18-.19.4-.25.59,0,.53.56,1.05.86,1.71.17.13-.14.41-.1.6,0s.47.28.16.57a2.75,2.75,0,0,1-.2.2c-.48.37-.77.73-.17,1.26a.78.78,0,0,1,.17.69.51.51,0,0,1-.24.42c-.22.12-.3-.08-.41-.18l-.88-.77a4.19,4.19,0,0,1-.68.7.47.47,0,0,1-.69-.05C70.55,59.18,70.58,59,70.74,58.74Zm.17,7.62a7.65,7.65,0,0,1,.79-.87,3.71,3.71,0,0,1-.79-.78.45.45,0,0,1,.09-.65c.18-.19.4-.25.59,0,.53.56,1.05.86,1.71.17.13-.14.41-.1.6,0s.47.28.16.57a2.76,2.76,0,0,1-.2.2c-.48.36-.77.73-.17,1.26a.78.78,0,0,1,.17.69.51.51,0,0,1-.24.42c-.22.12-.3-.08-.41-.18l-.88-.77a4.19,4.19,0,0,1-.68.7.47.47,0,0,1-.69-.05C70.72,66.8,70.75,66.6,70.91,66.36Zm3.31,5.56a2.76,2.76,0,0,1-.2.2c-.48.36-.77.73-.17,1.26a.78.78,0,0,1,.17.69.51.51,0,0,1-.24.42c-.22.12-.3-.08-.41-.18l-.88-.77a4.19,4.19,0,0,1-.68.7.47.47,0,0,1-.69-.05c-.22-.21-.19-.4,0-.64a7.66,7.66,0,0,1,.79-.87,3.71,3.71,0,0,1-.79-.78.45.45,0,0,1,.09-.65c.18-.19.4-.25.59,0,.53.56,1.05.86,1.71.17.13-.14.41-.1.6,0S74.53,71.62,74.22,71.92Zm1.36-13.28a7.67,7.67,0,0,1,.79-.87,3.71,3.71,0,0,1-.79-.78.45.45,0,0,1,.09-.65c.18-.19.4-.25.59,0,.53.56,1.05.86,1.71.17.13-.14.41-.1.6,0s.47.28.16.57a2.76,2.76,0,0,1-.2.2c-.48.37-.77.73-.17,1.26a.78.78,0,0,1,.17.69.51.51,0,0,1-.24.42c-.22.12-.3-.08-.41-.18L77,58.63a4.19,4.19,0,0,1-.68.7.47.47,0,0,1-.69-.05C75.38,59.07,75.41,58.87,75.58,58.63Zm.17,7.62a7.66,7.66,0,0,1,.79-.87,3.71,3.71,0,0,1-.79-.78.45.45,0,0,1,.09-.65c.18-.19.4-.25.59,0,.53.56,1.05.86,1.71.17.13-.14.41-.1.6,0s.47.28.16.57a2.77,2.77,0,0,1-.2.2c-.48.36-.77.73-.17,1.26a.78.78,0,0,1,.17.69.51.51,0,0,1-.24.42c-.22.12-.3-.08-.41-.18l-.88-.77a4.19,4.19,0,0,1-.68.7.47.47,0,0,1-.69-.05C75.56,66.69,75.58,66.49,75.75,66.25Zm3.31,5.56a2.76,2.76,0,0,1-.2.2c-.48.36-.77.73-.17,1.26a.78.78,0,0,1,.17.69.51.51,0,0,1-.24.42c-.22.12-.3-.08-.41-.18l-.88-.77a4.19,4.19,0,0,1-.68.7.47.47,0,0,1-.69-.05c-.22-.21-.19-.4,0-.64a7.66,7.66,0,0,1,.79-.87,3.71,3.71,0,0,1-.79-.78.45.45,0,0,1,.09-.65c.18-.19.4-.25.59,0,.53.56,1.05.86,1.71.17.13-.14.41-.1.6,0S79.37,71.51,79.05,71.81Zm1.36-13.28a7.65,7.65,0,0,1,.79-.87,3.71,3.71,0,0,1-.79-.78.45.45,0,0,1,.09-.65c.18-.19.4-.25.59,0,.53.56,1.05.86,1.71.17.13-.14.41-.1.6,0s.47.28.16.57a2.75,2.75,0,0,1-.2.2c-.48.37-.77.73-.17,1.26a.78.78,0,0,1,.17.69.51.51,0,0,1-.24.42c-.22.12-.3-.08-.41-.18l-.88-.77a4.19,4.19,0,0,1-.68.7.47.47,0,0,1-.69-.05C80.22,59,80.25,58.76,80.41,58.52Zm.17,7.62a7.65,7.65,0,0,1,.79-.87,3.71,3.71,0,0,1-.79-.78.45.45,0,0,1,.09-.65c.18-.19.4-.25.59,0,.53.56,1.05.86,1.71.17.13-.14.41-.1.6,0s.47.28.16.57a2.76,2.76,0,0,1-.2.2c-.48.36-.77.73-.17,1.26a.78.78,0,0,1,.17.69.51.51,0,0,1-.24.42c-.22.12-.3-.08-.41-.18L82,66.14a4.19,4.19,0,0,1-.68.7.47.47,0,0,1-.69-.05C80.39,66.58,80.42,66.38,80.58,66.14Zm3.31,5.56a2.77,2.77,0,0,1-.2.2c-.48.36-.77.73-.17,1.26a.78.78,0,0,1,.17.69.51.51,0,0,1-.24.42c-.22.12-.3-.08-.41-.18l-.88-.77a4.19,4.19,0,0,1-.68.7.47.47,0,0,1-.69-.05c-.22-.21-.19-.4,0-.64a7.67,7.67,0,0,1,.79-.87,3.71,3.71,0,0,1-.79-.78.45.45,0,0,1,.09-.65c.18-.19.4-.25.59,0,.53.56,1.05.86,1.71.17.13-.14.41-.1.6,0S84.2,71.41,83.89,71.7Zm.89-13.27a7.65,7.65,0,0,1,.79-.87,3.71,3.71,0,0,1-.79-.78.45.45,0,0,1,.09-.65c.18-.19.4-.25.59,0,.53.56,1.05.86,1.71.17.13-.14.41-.1.6,0s.47.28.16.57a2.76,2.76,0,0,1-.2.2c-.48.37-.77.73-.17,1.26a.78.78,0,0,1,.17.69.51.51,0,0,1-.24.42c-.22.12-.3-.08-.41-.18l-.88-.77a4.19,4.19,0,0,1-.68.7.47.47,0,0,1-.69-.05C84.59,58.86,84.61,58.66,84.78,58.42ZM84.95,66a7.66,7.66,0,0,1,.79-.87,3.71,3.71,0,0,1-.79-.78.45.45,0,0,1,.09-.65c.18-.19.4-.25.59,0,.53.56,1.05.86,1.71.17.13-.14.41-.1.6,0s.47.28.16.57a2.75,2.75,0,0,1-.2.2c-.48.37-.77.73-.17,1.26a.78.78,0,0,1,.17.69.51.51,0,0,1-.24.42c-.22.12-.3-.08-.41-.18L86.35,66a4.19,4.19,0,0,1-.68.7.47.47,0,0,1-.69-.05C84.76,66.48,84.78,66.28,84.95,66Zm3.31,5.56a2.76,2.76,0,0,1-.2.2c-.48.36-.77.73-.17,1.26a.78.78,0,0,1,.17.69.51.51,0,0,1-.24.42c-.22.12-.3-.08-.41-.18l-.88-.77a4.19,4.19,0,0,1-.68.7.47.47,0,0,1-.69-.05c-.22-.21-.19-.4,0-.64a7.65,7.65,0,0,1,.79-.87,3.71,3.71,0,0,1-.79-.78.45.45,0,0,1,.09-.65c.18-.19.4-.25.59,0,.53.56,1.05.86,1.71.17.13-.14.41-.1.6,0S88.57,71.31,88.26,71.6Zm.89-13.27a7.65,7.65,0,0,1,.79-.87,3.71,3.71,0,0,1-.79-.78.45.45,0,0,1,.09-.65c.18-.19.4-.25.59,0,.53.56,1.05.86,1.71.17.13-.14.41-.1.6,0s.47.28.16.57a2.75,2.75,0,0,1-.2.2c-.48.36-.77.73-.17,1.26a.78.78,0,0,1,.17.69.51.51,0,0,1-.24.42c-.22.12-.3-.08-.41-.18l-.88-.77a4.19,4.19,0,0,1-.68.7.47.47,0,0,1-.69-.05C89,58.76,89,58.56,89.14,58.33Zm.17,7.62a7.65,7.65,0,0,1,.79-.87,3.71,3.71,0,0,1-.79-.78.45.45,0,0,1,.09-.65c.18-.19.4-.25.59,0,.53.56,1.05.86,1.71.17.13-.14.41-.1.6,0s.47.28.16.57a2.75,2.75,0,0,1-.2.2c-.48.37-.77.73-.17,1.26a.78.78,0,0,1,.17.69.51.51,0,0,1-.24.42c-.22.12-.3-.08-.41-.18l-.88-.77a4.19,4.19,0,0,1-.68.7.47.47,0,0,1-.69-.05C89.12,66.38,89.15,66.18,89.32,65.95Zm3.31,5.56a2.76,2.76,0,0,1-.2.2c-.48.36-.77.73-.17,1.26a.78.78,0,0,1,.17.69.51.51,0,0,1-.24.42c-.22.12-.3-.08-.41-.18l-.88-.77a4.19,4.19,0,0,1-.68.7.47.47,0,0,1-.69-.05c-.22-.21-.19-.4,0-.64a7.66,7.66,0,0,1,.79-.87,3.71,3.71,0,0,1-.79-.78.45.45,0,0,1,.09-.65c.18-.19.4-.25.59,0,.53.56,1.05.86,1.71.17.13-.14.41-.1.6,0S92.93,71.21,92.62,71.5Zm.89-13.27a7.65,7.65,0,0,1,.79-.87,3.71,3.71,0,0,1-.79-.78.45.45,0,0,1,.09-.65c.18-.19.4-.25.59,0,.53.56,1.05.86,1.71.17.13-.14.41-.1.6,0s.47.28.16.57a2.75,2.75,0,0,1-.2.2c-.48.36-.77.73-.17,1.26a.78.78,0,0,1,.17.69.51.51,0,0,1-.24.42c-.22.12-.3-.08-.41-.18l-.88-.77a4.19,4.19,0,0,1-.68.7.47.47,0,0,1-.69-.05C93.32,58.66,93.35,58.47,93.51,58.23Zm.17,7.62a7.65,7.65,0,0,1,.79-.87,3.71,3.71,0,0,1-.79-.78.45.45,0,0,1,.09-.65c.18-.19.4-.25.59,0,.53.56,1.05.86,1.71.17.13-.14.41-.1.6,0s.47.28.16.57a2.76,2.76,0,0,1-.2.2c-.48.37-.77.73-.17,1.26a.78.78,0,0,1,.17.69.51.51,0,0,1-.24.42c-.22.12-.3-.08-.41-.18l-.88-.77a4.19,4.19,0,0,1-.68.7.47.47,0,0,1-.69-.05C93.49,66.28,93.52,66.09,93.68,65.85ZM97,71.4a2.75,2.75,0,0,1-.2.2c-.48.37-.77.73-.17,1.26a.78.78,0,0,1,.17.69.51.51,0,0,1-.24.42c-.22.12-.3-.08-.41-.18L95.25,73a4.19,4.19,0,0,1-.68.7.47.47,0,0,1-.69-.05c-.22-.21-.19-.4,0-.64a7.67,7.67,0,0,1,.79-.87,3.71,3.71,0,0,1-.79-.78.45.45,0,0,1,.09-.65c.18-.19.4-.25.59,0,.53.56,1.05.86,1.71.17.13-.14.41-.1.6,0S97.3,71.11,97,71.4Zm.89-13.27a7.65,7.65,0,0,1,.79-.87,3.71,3.71,0,0,1-.79-.78.45.45,0,0,1,.09-.65c.18-.19.4-.25.59,0,.53.56,1.05.86,1.71.17.13-.14.41-.1.6,0s.47.28.16.57a2.76,2.76,0,0,1-.2.2c-.48.36-.77.73-.17,1.26a.78.78,0,0,1,.17.69.51.51,0,0,1-.24.42c-.22.12-.3-.08-.41-.18l-.88-.77a4.19,4.19,0,0,1-.68.7.47.47,0,0,1-.69-.05C97.69,58.56,97.71,58.37,97.88,58.13ZM98,65.75a7.66,7.66,0,0,1,.79-.87A3.71,3.71,0,0,1,98,64.1a.45.45,0,0,1,.09-.65c.18-.19.4-.25.59,0,.53.56,1.05.86,1.71.17.13-.14.41-.1.6,0s.47.28.16.57a2.75,2.75,0,0,1-.2.2c-.48.36-.77.73-.17,1.26a.78.78,0,0,1,.17.69.51.51,0,0,1-.24.42c-.22.12-.3-.08-.41-.18l-.88-.77a4.19,4.19,0,0,1-.68.7.47.47,0,0,1-.69-.05C97.86,66.18,97.89,66,98,65.75Zm3.31,5.56a2.76,2.76,0,0,1-.2.2c-.48.37-.77.73-.17,1.26a.78.78,0,0,1,.17.69.51.51,0,0,1-.24.42c-.22.12-.3-.08-.41-.18l-.88-.77a4.19,4.19,0,0,1-.68.7.47.47,0,0,1-.69-.05c-.22-.21-.19-.4,0-.64a7.66,7.66,0,0,1,.79-.87,3.71,3.71,0,0,1-.79-.78.45.45,0,0,1,.09-.65c.18-.19.4-.25.59,0,.53.56,1.05.86,1.71.17.13-.14.41-.1.6,0S101.67,71,101.36,71.3Zm5.38-19.36c-9.17.09-18.31.95-27.48.95-4.85,0-9.74.23-14.69.06A2.59,2.59,0,0,1,66,52.68c12.42-.24,24.83-.75,37.23-1.29a26,26,0,0,1,3.52,0c.37,0,.83,0,.8.26S107.13,51.94,106.74,51.94Z" transform="translate(-14.91 -14.91)"/><path class="cls-3" d="M55.33,42.1c-.73,0-1.26,0-1.24,1s.7.71,1.18.7c1.39,0,2.78-.18,4.17-.21,11.37-.24,22.74-.43,34.11-.71,6.25-.15,12.52.09,18.75-.69.85-.11,1-.36.94-1.11-.12-1.58-.16-3.16-.24-4.74-.16-3.19-.16-3.21-3.37-3.38-.51,0-1.42-.35-1.48.19-.1,1,.91.44,1.41.63.06,0,.1.11.22.23l-.58.11c-.33.05-.81-.25-.83.44s.45.57.88.6,1.08-.13,1.55.13c-.67.78-2-.61-2.39.8-.14.49-.34,1.2.73,1.32-1-.11-1.15.59-1.53,1a4.67,4.67,0,0,1-5.08,1.36A3.83,3.83,0,0,1,100,36.08c0-1,.42-1.9.48-2.94a44.9,44.9,0,0,1-6.12-.06c.87,3.18.33,5.36-1.64,6.75a4.26,4.26,0,0,1-5,.07c-2.29-1.7-1.82-4-1.05-6.28l-5.11,0c.2.47.11,1,.75,1.14.47.07,1-.12,1.46.2-.56.4-1.47-.29-1.64.48-.12.53-.4,1.37.06,1.76s.45.31-.11.54S81,38.56,82,39.24c-.92-.11-1.5.48-2.18.88a3.7,3.7,0,0,1-5.46-1.88,4.3,4.3,0,0,1-.15-3.09c.22-.65.19-1.07-.73-1-1.61.06-3.22,0-4.83,0,.15,2,1.83.73,2.62,1.34-.34.27-.69.1-1,.16s-1.17-.44-1.16.67c0,.94.44,1,1.15.91a2.37,2.37,0,0,1,1.69.29,14.55,14.55,0,0,1-2.26.1c-.3,0-.58,0-.56.44s0,.71.49.65a2.13,2.13,0,0,1,.43,0c.15,0,.35,0,.35.32-.79,0-1.7-.09-1.82,1-.1.94.92-.14,1.05.66-1.1-.11-1.79.57-2.59,1.12a4.05,4.05,0,0,1-6.32-2.69,9.12,9.12,0,0,1,.47-4.66c-1.93,0-3.81.07-5.67-.07-1.16-.09-1.57.24-1.37,1.35.94.12,2-.14,3.09.67l-3.09,0v0l0,2h0l4.5,0c-1.46.79-3,.35-4.5.6,0,2.65,0,2.65,2,2.88,0,0,.08.1.22.29C56,42.11,55.65,42.12,55.33,42.1Z" transform="translate(-14.91 -14.91)"/><path class="cls-2" d="M57.29,36.38c-1.14-.81-2.15-.55-3.09-.67v.65Z" transform="translate(-14.91 -14.91)"/><path class="cls-2" d="M106.8,51.42a26,26,0,0,0-3.52,0c-12.41.54-24.81,1.05-37.23,1.29a2.59,2.59,0,0,0-1.49.27c5,.17,9.84-.06,14.69-.06,9.18,0,18.31-.86,27.48-.95.39,0,.83,0,.86-.26S107.17,51.46,106.8,51.42Z" transform="translate(-14.91 -14.91)"/><path class="cls-4" d="M64.87,38.77a1.83,1.83,0,0,0,1.62-1.67,2.39,2.39,0,0,0,0-.68,3.16,3.16,0,0,0-.37-1.5,1.23,1.23,0,0,0-1.3-.66c-.1,0-.23,0-.24.15s.11.16.19.17c.79.17,1,.78,1,1.45a3.25,3.25,0,0,1,0,1,1.3,1.3,0,0,1-1.33,1.11A1.26,1.26,0,0,1,63.28,37a3.84,3.84,0,0,1,0-1.34,1.55,1.55,0,0,1,1-1.27c.12,0,.26-.12.23-.27s-.21-.16-.34-.16a1.42,1.42,0,0,0-1.27.83,3.41,3.41,0,0,0-.2,2.72A2,2,0,0,0,64.87,38.77Z" transform="translate(-14.91 -14.91)"/><path class="cls-4" d="M78.43,38.11A1.83,1.83,0,0,0,80,36.43a2.39,2.39,0,0,0,0-.68,3.16,3.16,0,0,0-.37-1.5,1.23,1.23,0,0,0-1.3-.66c-.1,0-.23,0-.24.15s.11.16.19.17c.79.17,1,.78,1,1.45a3.24,3.24,0,0,1,0,1A1.3,1.3,0,0,1,78,37.51a1.26,1.26,0,0,1-1.2-1.16,3.84,3.84,0,0,1,0-1.34,1.55,1.55,0,0,1,1-1.27c.12,0,.26-.12.23-.27s-.21-.16-.34-.16a1.42,1.42,0,0,0-1.27.83,3.41,3.41,0,0,0-.2,2.72A2,2,0,0,0,78.43,38.11Z" transform="translate(-14.91 -14.91)"/><path class="cls-4" d="M90.4,37.45A1.83,1.83,0,0,0,92,35.77a2.4,2.4,0,0,0,0-.68,3.16,3.16,0,0,0-.37-1.5,1.23,1.23,0,0,0-1.3-.66c-.1,0-.23,0-.24.15s.11.16.19.17c.79.17,1,.78,1,1.45a3.24,3.24,0,0,1,0,1A1.3,1.3,0,0,1,90,36.85a1.26,1.26,0,0,1-1.2-1.16,3.84,3.84,0,0,1,0-1.34,1.55,1.55,0,0,1,1-1.27c.12,0,.26-.12.23-.27s-.21-.16-.34-.16a1.42,1.42,0,0,0-1.27.83,3.41,3.41,0,0,0-.2,2.72A2,2,0,0,0,90.4,37.45Z" transform="translate(-14.91 -14.91)"/><path class="cls-4" d="M104.53,37.45a1.83,1.83,0,0,0,1.62-1.67,2.39,2.39,0,0,0,0-.68,3.16,3.16,0,0,0-.37-1.5,1.23,1.23,0,0,0-1.3-.66c-.1,0-.23,0-.24.15s.11.16.19.17c.79.17,1,.78,1,1.45a3.24,3.24,0,0,1,0,1,1.3,1.3,0,0,1-1.33,1.11,1.26,1.26,0,0,1-1.2-1.16,3.84,3.84,0,0,1,0-1.34,1.55,1.55,0,0,1,1-1.27c.12,0,.26-.12.23-.27s-.21-.16-.34-.16a1.42,1.42,0,0,0-1.27.83,3.41,3.41,0,0,0-.2,2.72A2,2,0,0,0,104.53,37.45Z" transform="translate(-14.91 -14.91)"/><path class="cls-4" d="M74.06,71.34c-.19-.07-.46-.11-.6,0-.66.69-1.19.39-1.71-.17-.19-.2-.41-.14-.59,0a.45.45,0,0,0-.09.65,3.71,3.71,0,0,0,.79.78,7.66,7.66,0,0,0-.79.87c-.16.24-.19.44,0,.64a.47.47,0,0,0,.69.05,4.19,4.19,0,0,0,.68-.7l.88.77c.12.1.2.3.41.18a.51.51,0,0,0,.24-.42.78.78,0,0,0-.17-.69c-.61-.53-.31-.9.17-1.26a2.76,2.76,0,0,0,.2-.2C74.53,71.62,74.33,71.45,74.06,71.34Z" transform="translate(-14.91 -14.91)"/><path class="cls-4" d="M78.89,71.24c-.19-.07-.46-.11-.6,0-.66.69-1.19.39-1.71-.17-.19-.2-.41-.14-.59,0a.45.45,0,0,0-.09.65,3.71,3.71,0,0,0,.79.78,7.66,7.66,0,0,0-.79.87c-.16.24-.19.44,0,.64a.47.47,0,0,0,.69.05,4.19,4.19,0,0,0,.68-.7l.88.77c.12.1.2.3.41.18a.51.51,0,0,0,.24-.42.78.78,0,0,0-.17-.69c-.61-.53-.31-.9.17-1.26a2.76,2.76,0,0,0,.2-.2C79.37,71.51,79.17,71.34,78.89,71.24Z" transform="translate(-14.91 -14.91)"/><path class="cls-4" d="M83.73,71.13c-.19-.07-.46-.11-.6,0-.66.69-1.19.39-1.71-.17-.19-.2-.41-.14-.59,0a.45.45,0,0,0-.09.65,3.71,3.71,0,0,0,.79.78,7.67,7.67,0,0,0-.79.87c-.16.24-.19.44,0,.64a.47.47,0,0,0,.69.05,4.19,4.19,0,0,0,.68-.7l.88.77c.12.1.2.3.41.18a.51.51,0,0,0,.24-.42.78.78,0,0,0-.17-.69c-.61-.53-.31-.9.17-1.26a2.77,2.77,0,0,0,.2-.2C84.2,71.41,84,71.23,83.73,71.13Z" transform="translate(-14.91 -14.91)"/><path class="cls-4" d="M88.09,71c-.19-.07-.46-.11-.6,0-.66.69-1.19.39-1.71-.17-.19-.2-.41-.14-.59,0a.45.45,0,0,0-.09.65,3.71,3.71,0,0,0,.79.78,7.65,7.65,0,0,0-.79.87c-.16.24-.19.44,0,.64a.47.47,0,0,0,.69.05,4.19,4.19,0,0,0,.68-.7l.88.77c.12.1.2.3.41.18a.51.51,0,0,0,.24-.42.78.78,0,0,0-.17-.69c-.61-.53-.31-.9.17-1.26a2.76,2.76,0,0,0,.2-.2C88.57,71.31,88.37,71.13,88.09,71Z" transform="translate(-14.91 -14.91)"/><path class="cls-4" d="M92.46,70.93c-.19-.07-.46-.11-.6,0-.66.69-1.19.39-1.71-.17-.19-.2-.41-.14-.59,0a.45.45,0,0,0-.09.65,3.71,3.71,0,0,0,.79.78,7.66,7.66,0,0,0-.79.87c-.16.24-.19.44,0,.64a.47.47,0,0,0,.69.05,4.19,4.19,0,0,0,.68-.7l.88.77c.12.1.2.3.41.18a.51.51,0,0,0,.24-.42.78.78,0,0,0-.17-.69c-.61-.53-.31-.9.17-1.26a2.76,2.76,0,0,0,.2-.2C92.93,71.21,92.73,71,92.46,70.93Z" transform="translate(-14.91 -14.91)"/><path class="cls-4" d="M96.83,70.83c-.19-.07-.46-.11-.6,0-.66.69-1.19.39-1.71-.17-.19-.2-.41-.14-.59,0a.45.45,0,0,0-.09.65,3.71,3.71,0,0,0,.79.78,7.67,7.67,0,0,0-.79.87c-.16.24-.19.44,0,.64a.47.47,0,0,0,.69.05,4.19,4.19,0,0,0,.68-.7l.88.77c.12.1.2.3.41.18a.51.51,0,0,0,.24-.42.78.78,0,0,0-.17-.69c-.6-.53-.31-.9.17-1.26a2.75,2.75,0,0,0,.2-.2C97.3,71.11,97.1,70.93,96.83,70.83Z" transform="translate(-14.91 -14.91)"/><path class="cls-4" d="M101.2,70.73c-.19-.07-.46-.11-.6,0-.66.69-1.19.39-1.71-.17-.19-.2-.41-.14-.59,0a.45.45,0,0,0-.09.65,3.71,3.71,0,0,0,.79.78,7.66,7.66,0,0,0-.79.87c-.16.24-.19.44,0,.64a.47.47,0,0,0,.69.05,4.19,4.19,0,0,0,.68-.7l.88.77c.12.1.2.3.41.18a.51.51,0,0,0,.24-.42.78.78,0,0,0-.17-.69c-.6-.53-.31-.9.17-1.26a2.76,2.76,0,0,0,.2-.2C101.67,71,101.47,70.84,101.2,70.73Z" transform="translate(-14.91 -14.91)"/><path class="cls-4" d="M71.46,59.44a4.19,4.19,0,0,0,.68-.7l.88.77c.12.1.2.3.41.18a.51.51,0,0,0,.24-.42.78.78,0,0,0-.17-.69c-.61-.53-.31-.9.17-1.26a2.75,2.75,0,0,0,.2-.2c.31-.29.11-.47-.16-.57s-.46-.11-.6,0c-.66.69-1.19.39-1.71-.17-.19-.2-.41-.14-.59,0a.45.45,0,0,0-.09.65,3.71,3.71,0,0,0,.79.78,7.65,7.65,0,0,0-.79.87c-.16.24-.19.44,0,.64A.47.47,0,0,0,71.46,59.44Z" transform="translate(-14.91 -14.91)"/><path class="cls-4" d="M76.3,59.33a4.19,4.19,0,0,0,.68-.7l.88.77c.12.1.2.3.41.18a.51.51,0,0,0,.24-.42.78.78,0,0,0-.17-.69c-.61-.53-.31-.9.17-1.26a2.76,2.76,0,0,0,.2-.2c.31-.29.11-.47-.16-.57s-.46-.11-.6,0c-.66.69-1.19.39-1.71-.17-.19-.2-.41-.14-.59,0a.45.45,0,0,0-.09.65,3.71,3.71,0,0,0,.79.78,7.67,7.67,0,0,0-.79.87c-.16.24-.19.44,0,.64A.47.47,0,0,0,76.3,59.33Z" transform="translate(-14.91 -14.91)"/><path class="cls-4" d="M81.13,59.22a4.19,4.19,0,0,0,.68-.7l.88.77c.12.1.2.3.41.18a.51.51,0,0,0,.24-.42.78.78,0,0,0-.17-.69c-.61-.53-.31-.9.17-1.26a2.75,2.75,0,0,0,.2-.2c.31-.29.11-.47-.16-.57s-.46-.11-.6,0c-.66.69-1.19.39-1.71-.17-.19-.2-.41-.14-.59,0a.45.45,0,0,0-.09.65,3.71,3.71,0,0,0,.79.78,7.65,7.65,0,0,0-.79.87c-.16.24-.19.44,0,.64A.47.47,0,0,0,81.13,59.22Z" transform="translate(-14.91 -14.91)"/><path class="cls-4" d="M85.5,59.12a4.19,4.19,0,0,0,.68-.7l.88.77c.12.1.2.3.41.18a.51.51,0,0,0,.24-.42.78.78,0,0,0-.17-.69c-.61-.53-.31-.9.17-1.26a2.76,2.76,0,0,0,.2-.2c.31-.29.11-.47-.16-.57s-.46-.11-.6,0c-.66.69-1.19.39-1.71-.17-.19-.2-.41-.14-.59,0a.45.45,0,0,0-.09.65,3.71,3.71,0,0,0,.79.78,7.65,7.65,0,0,0-.79.87c-.16.24-.19.44,0,.64A.47.47,0,0,0,85.5,59.12Z" transform="translate(-14.91 -14.91)"/><path class="cls-4" d="M89.87,59a4.19,4.19,0,0,0,.68-.7l.88.77c.12.1.2.3.41.18a.51.51,0,0,0,.24-.42.78.78,0,0,0-.17-.69c-.61-.53-.31-.9.17-1.26a2.75,2.75,0,0,0,.2-.2c.31-.29.11-.47-.16-.57s-.46-.11-.6,0c-.66.69-1.19.39-1.71-.17-.19-.2-.41-.14-.59,0a.45.45,0,0,0-.09.65,3.71,3.71,0,0,0,.79.78,7.65,7.65,0,0,0-.79.87c-.16.24-.19.44,0,.64A.47.47,0,0,0,89.87,59Z" transform="translate(-14.91 -14.91)"/><path class="cls-4" d="M94.23,58.92a4.19,4.19,0,0,0,.68-.7l.88.77c.12.1.2.3.41.18a.51.51,0,0,0,.24-.42.78.78,0,0,0-.17-.69c-.61-.53-.31-.9.17-1.26a2.75,2.75,0,0,0,.2-.2c.31-.29.11-.47-.16-.57s-.46-.11-.6,0c-.66.69-1.19.39-1.71-.17-.19-.2-.41-.14-.59,0a.45.45,0,0,0-.09.65,3.71,3.71,0,0,0,.79.78,7.65,7.65,0,0,0-.79.87c-.16.24-.19.44,0,.64A.47.47,0,0,0,94.23,58.92Z" transform="translate(-14.91 -14.91)"/><path class="cls-4" d="M98.6,58.82a4.19,4.19,0,0,0,.68-.7l.88.77c.12.1.2.3.41.18a.51.51,0,0,0,.24-.42.78.78,0,0,0-.17-.69c-.61-.53-.31-.9.17-1.26a2.76,2.76,0,0,0,.2-.2c.31-.29.11-.47-.16-.57s-.46-.11-.6,0c-.66.69-1.19.39-1.71-.17-.19-.2-.41-.14-.59,0a.45.45,0,0,0-.09.65,3.71,3.71,0,0,0,.79.78,7.65,7.65,0,0,0-.79.87c-.16.24-.19.44,0,.64A.47.47,0,0,0,98.6,58.82Z" transform="translate(-14.91 -14.91)"/><path class="cls-4" d="M71.64,67.06a4.19,4.19,0,0,0,.68-.7l.88.77c.12.1.2.3.41.18a.51.51,0,0,0,.24-.42.78.78,0,0,0-.17-.69c-.61-.53-.31-.9.17-1.26a2.76,2.76,0,0,0,.2-.2c.31-.29.11-.47-.16-.57s-.46-.11-.6,0c-.66.69-1.19.39-1.71-.17-.19-.2-.41-.14-.59,0a.45.45,0,0,0-.09.65,3.71,3.71,0,0,0,.79.78,7.65,7.65,0,0,0-.79.87c-.16.24-.19.44,0,.64A.47.47,0,0,0,71.64,67.06Z" transform="translate(-14.91 -14.91)"/><path class="cls-4" d="M76.47,66.95a4.19,4.19,0,0,0,.68-.7L78,67c.12.1.2.3.41.18a.51.51,0,0,0,.24-.42.78.78,0,0,0-.17-.69c-.61-.53-.31-.9.17-1.26a2.77,2.77,0,0,0,.2-.2c.31-.29.11-.47-.16-.57s-.46-.11-.6,0c-.66.69-1.19.39-1.71-.17-.19-.2-.41-.14-.59,0a.45.45,0,0,0-.09.65,3.71,3.71,0,0,0,.79.78,7.66,7.66,0,0,0-.79.87c-.16.24-.19.44,0,.64A.47.47,0,0,0,76.47,66.95Z" transform="translate(-14.91 -14.91)"/><path class="cls-4" d="M81.3,66.84a4.19,4.19,0,0,0,.68-.7l.88.77c.12.1.2.3.41.18a.51.51,0,0,0,.24-.42.78.78,0,0,0-.17-.69c-.61-.53-.31-.9.17-1.26a2.76,2.76,0,0,0,.2-.2c.31-.29.11-.47-.16-.57s-.46-.11-.6,0c-.66.69-1.19.39-1.71-.17-.19-.2-.41-.14-.59,0a.45.45,0,0,0-.09.65,3.71,3.71,0,0,0,.79.78,7.65,7.65,0,0,0-.79.87c-.16.24-.19.44,0,.64A.47.47,0,0,0,81.3,66.84Z" transform="translate(-14.91 -14.91)"/><path class="cls-4" d="M85.67,66.74a4.19,4.19,0,0,0,.68-.7l.88.77c.12.1.2.3.41.18a.51.51,0,0,0,.24-.42.78.78,0,0,0-.17-.69c-.61-.53-.31-.9.17-1.26a2.75,2.75,0,0,0,.2-.2c.31-.29.11-.47-.16-.57s-.46-.11-.6,0c-.66.69-1.19.39-1.71-.17-.19-.2-.41-.14-.59,0a.45.45,0,0,0-.09.65,3.71,3.71,0,0,0,.79.78,7.66,7.66,0,0,0-.79.87c-.16.24-.19.44,0,.64A.47.47,0,0,0,85.67,66.74Z" transform="translate(-14.91 -14.91)"/><path class="cls-4" d="M90,66.64a4.19,4.19,0,0,0,.68-.7l.88.77c.12.1.2.3.41.18a.51.51,0,0,0,.24-.42.78.78,0,0,0-.17-.69c-.61-.53-.31-.9.17-1.26a2.75,2.75,0,0,0,.2-.2c.31-.29.11-.47-.16-.57s-.46-.11-.6,0c-.66.69-1.19.39-1.71-.17-.19-.2-.41-.14-.59,0a.45.45,0,0,0-.09.65,3.71,3.71,0,0,0,.79.78,7.65,7.65,0,0,0-.79.87c-.16.24-.19.44,0,.64A.47.47,0,0,0,90,66.64Z" transform="translate(-14.91 -14.91)"/><path class="cls-4" d="M94.4,66.54a4.19,4.19,0,0,0,.68-.7l.88.77c.12.1.2.3.41.18a.51.51,0,0,0,.24-.42.78.78,0,0,0-.17-.69c-.61-.53-.31-.9.17-1.26a2.76,2.76,0,0,0,.2-.2c.31-.29.11-.47-.16-.57s-.46-.11-.6,0c-.66.69-1.19.39-1.71-.17-.19-.2-.41-.14-.59,0a.45.45,0,0,0-.09.65,3.71,3.71,0,0,0,.79.78,7.65,7.65,0,0,0-.79.87c-.16.24-.19.44,0,.64A.47.47,0,0,0,94.4,66.54Z" transform="translate(-14.91 -14.91)"/><path class="cls-4" d="M98.77,66.44a4.19,4.19,0,0,0,.68-.7l.88.77c.12.1.2.3.41.18a.51.51,0,0,0,.24-.42.78.78,0,0,0-.17-.69c-.61-.53-.31-.9.17-1.26a2.75,2.75,0,0,0,.2-.2c.31-.29.11-.47-.16-.57s-.46-.11-.6,0c-.66.69-1.19.39-1.71-.17-.19-.2-.41-.14-.59,0a.45.45,0,0,0-.09.65,3.71,3.71,0,0,0,.79.78,7.66,7.66,0,0,0-.79.87c-.16.24-.19.44,0,.64A.47.47,0,0,0,98.77,66.44Z" transform="translate(-14.91 -14.91)"/><path class="cls-2" d="M121.32,74.3a9.09,9.09,0,0,0-4.61-3.23c-.19-2.36-.37-4.73-.56-7.09-.4-4.92-.85-9.83-1.22-14.75-.39-5.16-.85-10.32-.82-15.51,0-1.26-.65-1.67-1.79-1.66-1.58,0-3.17,0-4.75,0-1,0-1.13.3-.76,1.17a5,5,0,0,1,.38,3.36A2.92,2.92,0,0,1,104.33,39a2.84,2.84,0,0,1-3.2-2c-.47-1.32,0-2.56.17-3.82.14-.85-.07-1.19-.94-1.07a41.07,41.07,0,0,1-6,.17c-1.13,0-1.49.33-1.08,1.41a6,6,0,0,1,.43,2.52,3.74,3.74,0,0,1-3.86,3.44,3.31,3.31,0,0,1-2.69-4.17,13.31,13.31,0,0,1,.44-1.51c.46-1.43.43-1.48-1.14-1.43s-3.35.21-5,.2c-1,0-1.19.41-.94,1.21A6.67,6.67,0,0,1,81,36.54a3.34,3.34,0,0,1-3.06,3.08c-1.41,0-2.47-1-2.78-2.77A6.14,6.14,0,0,1,75.44,34c.18-.62-.06-1-.62-1a30.68,30.68,0,0,0-6.45.27c-.7.14-1.15.57-.72,1.48A6.73,6.73,0,0,1,68,38.31a3.08,3.08,0,0,1-3.34,3,3,3,0,0,1-3-3.18,8.44,8.44,0,0,1,.42-3.54c.37-.93,0-1.13-.81-1.11-2.25.08-4.5.18-6.76.24-.71,0-.86.44-.91,1-.31,3.82-.71,7.64-.92,11.46A341.75,341.75,0,0,0,53,83.91a3.39,3.39,0,0,0,3.33,3.43c.76.06,1.54,0,2.3,0,15.6-.1,31.21-.18,46.81-.43a5,5,0,0,1-.32-.62,10,10,0,0,0,8.63,5.23c5.11.09,10.26-4.1,10.62-8.9,0-.58-.18-.87-.44-1.66-.36.91-.68,1.74-1,2.56a9.57,9.57,0,0,1-10.79,6,8.2,8.2,0,0,1-2.49-1c1.58-.05,3.19.13,4.71-.52l-5.52,0a8.81,8.81,0,0,1-1.64-1.66c1.31-.09,2.66.15,3.93-.53l-4.32,0a9.23,9.23,0,0,1-1.12-2.44,4.49,4.49,0,0,0,2.8-.64l-3,0a9.44,9.44,0,0,1-.21-1.56,7.47,7.47,0,0,1,0-1.2c1.45-.2,2.95.18,4.36-.58l-4.26,0a8.27,8.27,0,0,1,1.41-3.23c1.89-.24,3.86.19,5.71-.59l-5.21,0a8.71,8.71,0,0,1,4-2.6c3.47-1.09,6.45-.11,9.16,2.13l.07.07.31-.29A4.08,4.08,0,0,0,121.32,74.3ZM56.18,41.82c-2-.23-2-.23-2-2.88,1.49-.24,3,.19,4.5-.6l-4.5,0h0l0-2v-.65c-.19-1.12.21-1.44,1.37-1.35,1.86.14,3.73.06,5.67.07a9.12,9.12,0,0,0-.47,4.66,4.05,4.05,0,0,0,6.32,2.69c.8-.55,1.49-1.23,2.59-1.12-.14-.8-1.16.28-1.05-.66.12-1.1,1-1,1.82-1,0-.33-.21-.3-.35-.32a2.13,2.13,0,0,0-.43,0c-.53.05-.47-.31-.49-.65s.26-.44.56-.44a14.55,14.55,0,0,0,2.26-.1,2.37,2.37,0,0,0-1.69-.29c-.7,0-1.14,0-1.15-.91,0-1.1.72-.58,1.16-.67s.67.11,1-.16c-.79-.61-2.47.65-2.62-1.34,1.61,0,3.23.07,4.83,0,.92,0,1,.39.73,1a4.3,4.3,0,0,0,.15,3.09,3.7,3.7,0,0,0,5.46,1.88c.68-.4,1.26-1,2.18-.88-1.06-.68-.57-1.28.06-1.53s.69-.05.11-.54-.18-1.23-.06-1.76c.17-.77,1.08-.08,1.64-.48-.48-.31-1-.12-1.46-.2-.64-.1-.55-.67-.75-1.14l5.11,0c-.77,2.32-1.24,4.57,1.05,6.28a4.26,4.26,0,0,0,5-.07c2-1.39,2.52-3.57,1.64-6.75a44.9,44.9,0,0,0,6.12.06c-.06,1-.51,1.95-.48,2.94a3.83,3.83,0,0,0,2.55,3.76,4.67,4.67,0,0,0,5.08-1.36c.38-.46.56-1.16,1.53-1-1.07-.13-.87-.84-.73-1.32.41-1.41,1.72,0,2.39-.8-.47-.26-1-.09-1.55-.13s-.9.09-.88-.6.5-.38.83-.44l.58-.11c-.11-.12-.15-.21-.22-.23-.51-.19-1.52.36-1.41-.63.06-.55,1-.22,1.48-.19,3.22.17,3.22.18,3.37,3.38.08,1.58.12,3.16.24,4.74.05.74-.09,1-.94,1.11-6.23.77-12.5.53-18.75.69-11.37.28-22.74.47-34.11.71-1.39,0-2.78.18-4.17.21-.47,0-1.15.35-1.18-.7s.51-1.05,1.24-1c.32,0,.65,0,1.08,0C56.27,41.92,56.23,41.83,56.18,41.82Zm55.86,29A10.28,10.28,0,0,0,103.92,83a11.43,11.43,0,0,0,.94,2.78q-19.18.33-38.35.5c-2.87,0-5.74.49-8.6-.09a5.68,5.68,0,0,1-3.19-1.64l3.73,0v-.41c-1.1,0-2.2-.07-3.29,0s-1.23-.51-1.35-1.28a1.86,1.86,0,0,1,0-.29c0-2.46,0-2.46,2.56-2.45l5,0a23.73,23.73,0,0,0-6.25-.43c-.51,0-1.29.46-1.4-.64-.17-1.59,0-2,1.1-2.35-.34-.43-1.2-.15-1.13-1.1.08-1.12.1-1.79,1.53-1.55a12,12,0,0,0,5-.29c-1.82,0-3.63-.06-5.45,0-.83,0-1.08-.26-1-1.07a11.49,11.49,0,0,0,0-2.68c-.2-1.26.38-1.58,1.46-1.5h0l4.6-.25,0-.44-4.57.22v0l-.59.11L53.7,68c0-1.87.09-3.75,0-5.62,0-.92.27-1.1,1.15-1.05a20.75,20.75,0,0,0,5.2-.12v-.38c-1.77,0-3.54,0-5.31,0-.65,0-1,0-1-.9,0-2.17-.05-2.17,2.15-2.28.25,0,.59.14.72-.28-.34-.48-.77-.08-1.15-.12-.54-.06-1.35.41-1.56-.18a4.73,4.73,0,0,1,0-2.27c.09-.54.64-.26,1-.23a6.73,6.73,0,0,0,4-.36l-3.66,0c-.69,0-1.57.21-1.32-1,.14-.68-.37-1.81.41-2-.27-.09-.45-.35-.4-1,.07-.91.08-1.56,1.31-1.43a20.5,20.5,0,0,0,3.53,0,10,10,0,0,0-3.69-.29c-.81,0-1.07-.18-1-1,.07-3,0-3,3.06-3,14.45.24,28.89,0,43.33-.57,3.83-.14,7.67-.25,11.5-.48,1.17-.07,1.54.19,1.59,1.42.26,6.66,1,13.27,1.75,19.89.23,2.05.44,4.11.57,6.17A9.41,9.41,0,0,0,112,70.77Z" transform="translate(-14.91 -14.91)"/><path class="cls-4" d="M114.21,80.46c-.3.27-.45.18-.66-.08q-1-1.15-2-2.28c-.27-.3-.56-.83-1-.56s0,.73.09,1.07a16.05,16.05,0,0,0,2.43,3.61c.45.58.86.58,1.4.11,3.82-3.26,7.68-6.47,11.27-10,.38-.37-3.2.82-4.33,1.85l-.09.09a4.08,4.08,0,0,1-.47.48l-.31.29-.61.58C118.18,77.45,116.07,78.8,114.21,80.46Z" transform="translate(-14.91 -14.91)"/></svg>