<svg id="Layer_1" data-name="Layer 1" xmlns="http://www.w3.org/2000/svg" viewBox="0 0 35.19 35.19"><defs><style>.cls-1{fill:#555658;}</style></defs><title>google_scoolar</title><path class="cls-1" d="M24.92,42.49q0-6.9,0-13.79a3.46,3.46,0,0,1,3.72-3.78H56.22a3.62,3.62,0,0,1,3.87,3.72q.05,13.79,0,27.58a3.78,3.78,0,0,1-3.93,3.87q-13.73,0-27.46,0a3.65,3.65,0,0,1-3.78-3.94Q24.92,49.32,24.92,42.49Zm17.24,4-.91.11a14.43,14.43,0,0,0-6.33,1.8,5.34,5.34,0,0,0-2.76,4.91,4.88,4.88,0,0,0,3.59,4.41A12.85,12.85,0,0,0,47,56.88c3.57-2.06,5.14-7,.92-10.34C47.3,46,46.67,45.5,46,45c-1.57-1.33-1.57-2.25,0-3.61.12-.11.26-.21.39-.31,2.24-1.75,3.26-4,2.51-6.81-.08-.29-.16-.54.08-.79l3.51-3.56c.51,1.14-.46,1.75-.45,2.6,0,2.75,0,5.5,0,8.25,0,.76.25,1.49,1.11,1.5s1.18-.73,1.16-1.56c0-.16,0-.33,0-.49-.31-3.22.64-6.49-.65-9.68-.53-1.31.35-2.38,1.45-3.18-.21-.13-.28-.2-.34-.2-5.71,0-11.42,0-17.12,0a1.67,1.67,0,0,0-1.26.62c-2.55,2.56-5.11,5.11-7.66,7.67-.2.21-.59.34-.49.82,1.51,0,3,0,4.54,0,.82,0,1.23.08,1.28,1.08a5.32,5.32,0,0,0,1.6,3.51,6.15,6.15,0,0,0,4.78,1.88c.31,0,1-.28.81.47A4,4,0,0,0,42.16,46.52Z" transform="translate(-24.92 -24.92)"/><path class="cls-1" d="M42.34,47.76c2.06-.08,5.17,2.56,5.41,4.61a3.74,3.74,0,0,1-2.5,4A8.84,8.84,0,0,1,38,55.9a3.92,3.92,0,0,1,.4-7.33A11,11,0,0,1,42.34,47.76Z" transform="translate(-24.92 -24.92)"/><path class="cls-1" d="M45.64,37.14c0,2.47-.69,3.57-2.29,4.14a3.55,3.55,0,0,1-4.19-1.52,8.06,8.06,0,0,1-1.51-6.16,3.33,3.33,0,0,1,5.64-1.88A8,8,0,0,1,45.64,37.14Z" transform="translate(-24.92 -24.92)"/></svg>