<svg id="Layer_1" data-name="Layer 1" xmlns="http://www.w3.org/2000/svg" viewBox="0 0 140.27 140.27"><defs><style>.cls-1{fill:#eee;}.cls-2{fill:#555658;}.cls-3{fill:none;}.cls-4{fill:#969695;}.cls-5{fill:#a1a1a0;}</style></defs><title>ogi_logo</title><circle class="cls-1" cx="70.13" cy="70.13" r="69"/><path class="cls-2" d="M85,155.17A70.13,70.13,0,1,1,155.17,85,70.21,70.21,0,0,1,85,155.17Zm0-138A67.87,67.87,0,1,0,152.91,85,67.94,67.94,0,0,0,85,17.17Z" transform="translate(-14.91 -14.91)"/><path class="cls-3" d="M103.24,82.91h.86a40.58,40.58,0,0,0-2.25-7.62c-.92-2.26-2.6-3.94-4.15-5.71-.38-.43-.29-1.54-1.36-1.23h0c.15,1.71,1.67,2.55,2.5,3.83A26.93,26.93,0,0,1,103.24,82.91Z" transform="translate(-14.91 -14.91)"/><path class="cls-3" d="M84.55,92.17A7.15,7.15,0,0,1,83.48,92,.65.65,0,0,0,84.55,92.17Z" transform="translate(-14.91 -14.91)"/><path class="cls-3" d="M80.37,78.11c.75-2.47,3.18-4.13,6.06-2.08A7.94,7.94,0,0,1,89,79.11a7.19,7.19,0,0,1,1.82,1.78c-.08-.32-.15-.65-.24-1-.88-3-3-4.47-5.34-5.92a3,3,0,0,0-3.11.22c-3,1.6-3.79,4.35-4,7.42a13.1,13.1,0,0,0,0,1.46,7.13,7.13,0,0,1,1.58-2.85C79.91,79.53,80.15,78.82,80.37,78.11Z" transform="translate(-14.91 -14.91)"/><path class="cls-3" d="M81.68,78.45c-.06.11-.09.23-.14.34A7.1,7.1,0,0,1,83.67,78a1.58,1.58,0,0,1,1.16-.12H85a7.14,7.14,0,0,1,2,.28,7.19,7.19,0,0,0-2-1.59C83.78,75.89,82.54,76.74,81.68,78.45Z" transform="translate(-14.91 -14.91)"/><path class="cls-3" d="M81.29,92.24a1.22,1.22,0,0,0,1.17.74c.24-.33,0-.57-.1-.84s-.24-.4-.32-.6a7.15,7.15,0,0,1-1.71-1.1C80.64,91,81,91.64,81.29,92.24Z" transform="translate(-14.91 -14.91)"/><path class="cls-4" d="M110.94,69.6a30.23,30.23,0,0,0-2.17-3.15c.11.19.22.37.33.56A11,11,0,0,0,110.94,69.6Z" transform="translate(-14.91 -14.91)"/><path class="cls-4" d="M113.92,77.11c.22.75.47,1.48.73,2.21a30,30,0,0,0-1.3-4.69C113.53,75.46,113.68,76.3,113.92,77.11Z" transform="translate(-14.91 -14.91)"/><path class="cls-4" d="M108.73,87.82c.09,2.14.87,4.22.63,6.34-.41,3.53-.84,7.06-1.47,10.56.42-.49.83-1,1.22-1.5.28-2.15.53-4.3.9-6.43a24.89,24.89,0,0,0,.07-8.76l-.16-.86h-1.23C108.69,87.39,108.72,87.61,108.73,87.82Z" transform="translate(-14.91 -14.91)"/><path class="cls-4" d="M112.24,97.25c0,.24,0,.49,0,.73q.61-1.28,1.1-2.62c0-.19,0-.37,0-.56-.25-2.56-.65-5.11-1.08-7.64h-1.37A92.44,92.44,0,0,1,112.24,97.25Z" transform="translate(-14.91 -14.91)"/><path class="cls-4" d="M103,92.49c.47,5.2-1,10.25-3.26,15-.45,1-.8,2-1.3,3-.14.28-.29.74.08.94s.58-.18.78-.48c.5-.75.6-1.7,1-2.43a31.52,31.52,0,0,0,3.19-9.79c.63-3.14,1.42-6.38.32-9.68a7.9,7.9,0,0,1-.38-1.87h-1C102.67,88.95,102.86,90.73,103,92.49Z" transform="translate(-14.91 -14.91)"/><path class="cls-4" d="M110,73.64a1.38,1.38,0,0,0-1.59-1.09c1.53,2.59,1.9,5.4,2.76,8,.25.77.48,1.54.7,2.31h1.13C112.24,79.76,111.11,76.71,110,73.64Z" transform="translate(-14.91 -14.91)"/><path class="cls-4" d="M114.06,93.22a30,30,0,0,0,.69-3c-.26-1-.55-2-.78-3h-1Q113.65,90.17,114.06,93.22Z" transform="translate(-14.91 -14.91)"/><path class="cls-4" d="M105,95.09a26.86,26.86,0,0,1-2.19,10.21,23.79,23.79,0,0,0-.77,2.37h.5a18,18,0,0,0,1.5-2.88,53.1,53.1,0,0,0,2.44-13.21c.08-1.56-.6-2.94-.82-4.41h-.94A62,62,0,0,1,105,95.09Z" transform="translate(-14.91 -14.91)"/><path class="cls-4" d="M114.09,79.72a5,5,0,0,0-1.3-2.61l-.16.61a34.39,34.39,0,0,0,1.21,5.19H115A25.29,25.29,0,0,1,114.09,79.72Z" transform="translate(-14.91 -14.91)"/><path class="cls-4" d="M107.11,89.57a23.38,23.38,0,0,1-.13,8.06c-.48,2.74-1.3,5.42-1.44,8.24a13.59,13.59,0,0,1-.15,1.42q.56-.51,1.08-1c.18-.84.36-1.69.55-2.53a57.84,57.84,0,0,0,1.34-9.64c.13-2.26-.4-4.59-.54-6.9h-1C106.91,88,107,88.78,107.11,89.57Z" transform="translate(-14.91 -14.91)"/><path class="cls-4" d="M106.76,81.47c-.09-.46-.11-1-.83-1.11a5.33,5.33,0,0,0,.06,2.55h1.08C107,82.43,106.86,81.95,106.76,81.47Z" transform="translate(-14.91 -14.91)"/><path class="cls-4" d="M111,94.72c-.14.75-.27,1.32-.36,1.9-.27,1.69-.38,3.39-.51,5.1q.68-1,1.28-2.11c0-.68.08-1.36.1-2A4.2,4.2,0,0,0,111,94.72Z" transform="translate(-14.91 -14.91)"/><path class="cls-5" d="M100.27,111.07q.66-.39,1.3-.8a11.51,11.51,0,0,0,1-2.59h-.5Z" transform="translate(-14.91 -14.91)"/><path class="cls-5" d="M97.81,112.37a2.26,2.26,0,0,0,0-.83,7.72,7.72,0,0,1-.63,1.1Z" transform="translate(-14.91 -14.91)"/><path class="cls-5" d="M104.54,106.72c0-.06-.31-.15-.34-.12a1.8,1.8,0,0,0-.39,2A2,2,0,0,0,104.54,106.72Z" transform="translate(-14.91 -14.91)"/><path class="cls-5" d="M112.42,75.5h-.57c.29.73.23,1.59.79,2.22l.16-.61C112.7,76.57,112.94,75.94,112.42,75.5Z" transform="translate(-14.91 -14.91)"/><path class="cls-4" d="M75.26,90.06a13.39,13.39,0,0,0,6.59,9.5c.46.28,1.17.36,1.06,1s-.89.08-1.37.38c.68.22.84,1.36,1.78.72a17.84,17.84,0,0,0,4.51-4.14c1.61-2.2,2.46-4.77,3.68-7.16a12.86,12.86,0,0,0,1.24-6.6A11.58,11.58,0,0,0,86.27,73.3a6.27,6.27,0,0,0-7.73,2.06,13.25,13.25,0,0,0-1.72,8.91,26.09,26.09,0,0,0,1,3.7,10.26,10.26,0,0,0,4.56,6.09c.68.43,1.12.37,1.91-.13a7.49,7.49,0,0,0,1.64-1.8,7.18,7.18,0,0,1-.9.06l-.47,0A.65.65,0,0,1,83.48,92,7.09,7.09,0,0,1,82,91.53c.08.2.26.4.32.6s.34.51.1.84a1.22,1.22,0,0,1-1.17-.74c-.34-.6-.66-1.2-1-1.81a7.11,7.11,0,0,1-2.19-7.34,13.1,13.1,0,0,1,0-1.46c.2-3.06,1-5.82,4-7.42A3,3,0,0,1,85.25,74c2.34,1.44,4.46,2.88,5.34,5.92.09.33.17.65.24,1a7.12,7.12,0,0,1,0,8.31,20.13,20.13,0,0,1-.6,2,18.9,18.9,0,0,1-4.59,7.13,2.24,2.24,0,0,1-2.87.48,12.79,12.79,0,0,1-5.22-4.68c-.89-1.23-1.86-2.49-.72-4.12.09-.14,0-.48-.13-.69a24.16,24.16,0,0,1-1.4-5.59,11.71,11.71,0,0,1,.44-6.07,9.86,9.86,0,0,1,6.71-6.18,4.91,4.91,0,0,1,3.72.34,13.26,13.26,0,0,1,6.08,6,14.34,14.34,0,0,1,1.63,8.73,11,11,0,0,0-.21,2.62c.37,2.54-.66,4.7-1.5,7-.54,1.46-1.56,2.74-1.73,4.34l.4.13a15.2,15.2,0,0,0,2.41-4.52,27.5,27.5,0,0,0,2-9.18c0-2.81,1-5.87-1.42-8.28a1.62,1.62,0,0,1-.23-.54c-1.41-3.45-3.53-6.11-7.18-7.54a7.12,7.12,0,0,0-6.31.59,15.49,15.49,0,0,0-3.54,3.06A10.2,10.2,0,0,0,73.71,81C73.4,84.11,74.71,87,75.26,90.06Z" transform="translate(-14.91 -14.91)"/><path class="cls-4" d="M100,85.62a16.53,16.53,0,0,1,.15,2,36.62,36.62,0,0,1-1.28,9.58c-.7,2.67-1.82,5.19-2.74,7.79a16.19,16.19,0,0,1-3,5.74c-1,1.1-1.9,2.27-3,3.3-.22.22-.57.48-.32.79l.77-.14.13-.12c.16-.12.26-.3.41-.43,4.26-3.64,6.06-8.71,7.73-13.76a40.86,40.86,0,0,0,2.32-13.27A2,2,0,0,1,100,85.62Z" transform="translate(-14.91 -14.91)"/><path class="cls-4" d="M100.95,83.12a23.79,23.79,0,0,0-3.39-9.36,19.23,19.23,0,0,0-9.81-7.54,15.08,15.08,0,0,0-4.18-.89c-4-.33-6.66,2.45-9.89,3.9-.28.13-.47.5-.66.79-.76,1.16-1.47,2.36-2.26,3.49a8.83,8.83,0,0,0-1.56,7.7.86.86,0,0,1,0,.53c-.47,1.66.29,3.25.37,4.89a.59.59,0,0,0,.77.51c.4-.13.2-.46.17-.74-.23-2.06-.8-4.16-.58-6.17A17,17,0,0,1,72.66,72c.68-1,1.23-2.18,3-2.62a46.33,46.33,0,0,0-3.09,5.43C71.71,77,70.9,79.1,71.2,81.46c.44,3.46.47,7,2.2,10.21.08.14-.07.39,0,.58.31,2.7,2.18,4.46,3.86,6.32.14.16.37.24.51.08a.59.59,0,0,0,.09-.54,3.24,3.24,0,0,0-.63-.81c-1.68-1.58-2.09-3.87-3.16-5.78-.66-1.18-.63-2.75-.85-4.16-.33-2.16-1.06-4.26-.79-6.52A25.38,25.38,0,0,1,76,70.71c2.53-4.21,4.08-4.56,8.58-4.19,4.67.39,8.06,3.28,10.81,6.8,1.13,1.45,2.6,2.88,3,4.73.48,2.34,1.23,4.63,1.59,7v0A2.19,2.19,0,0,1,100.95,83.12Z" transform="translate(-14.91 -14.91)"/><path class="cls-4" d="M83.67,78a7.18,7.18,0,0,1,1.16-.12A1.58,1.58,0,0,0,83.67,78Z" transform="translate(-14.91 -14.91)"/><path class="cls-4" d="M84.83,95.48c-1.07,1.25-2.11.77-3.14,0-.43-.33-.78-.76-1.2-1.11-1-.84-2-1.66-3-2.46-.11.16.2.5.37.83,1,2,2.84,3.13,4.39,4.55a2.05,2.05,0,0,0,2.4,0,10.22,10.22,0,0,0,3.78-4.48c.26-.65.5-1.31.71-2a7.13,7.13,0,0,1-1.28.72C87.21,93.15,85.9,94.22,84.83,95.48Z" transform="translate(-14.91 -14.91)"/><path class="cls-4" d="M86.42,76c-2.88-2.06-5.31-.39-6.06,2.08-.21.7-.46,1.41-.65,2.13a7.17,7.17,0,0,1,1.82-1.45c.05-.11.09-.23.14-.34.86-1.71,2.1-2.56,3.34-1.87a7.19,7.19,0,0,1,2,1.59,7.12,7.12,0,0,1,2,.94A7.94,7.94,0,0,0,86.42,76Z" transform="translate(-14.91 -14.91)"/><path class="cls-4" d="M108.62,80.66a35.84,35.84,0,0,0-4.16-10.57A27,27,0,0,0,93.79,59.87C91,58.37,88,57,84.51,57c.51.53.76,1.17,1.44,1.15a9.2,9.2,0,0,1,3.82,1A25.29,25.29,0,0,1,97.53,64a30.6,30.6,0,0,1,5.54,6.27,39.18,39.18,0,0,1,4.88,12.14l.1.48h1C108.93,82.16,108.79,81.41,108.62,80.66Z" transform="translate(-14.91 -14.91)"/><path class="cls-4" d="M90.1,69.94a9.27,9.27,0,0,0-8.52-2.16,8.66,8.66,0,0,0-6.09,6.47,7.8,7.8,0,0,0,1.36-1.56c.7-1.65,2.25-2.27,3.58-3.19,2.19-1.5,4.56-1,6.54-.07a16.51,16.51,0,0,1,8.87,10.2c1.09,3.33.66,6.7.34,9.95a28.72,28.72,0,0,1-3.07,10,21.78,21.78,0,0,1-7.73,8.55c-1.17.76-2.67.8-3.64,1.88v.62c1,.94,1.4-.42,2.11-.58,2.63-.62,4.29-2.49,5.75-4.57.33-.47.84-.84,1.19-.69,1.08.46,1.13-.39,1.45-.95a67.27,67.27,0,0,0,3.61-8.56A20.14,20.14,0,0,0,97.26,89c.1-1.65.33-3.37.44-5A14.88,14.88,0,0,0,95,74.63C93.77,72.67,91.79,71.46,90.1,69.94Z" transform="translate(-14.91 -14.91)"/><path class="cls-4" d="M109.78,78.09a42.17,42.17,0,0,0-2.83-8.18,34.18,34.18,0,0,0-3.21-4.76,28.78,28.78,0,0,0-7.33-6.38,1.89,1.89,0,0,0-1.56-.28l0,.64c.29.64,1,.43,1.5.83,2.5,2.17,5.11,4.14,7.16,6.87a30.82,30.82,0,0,1,3.25,5.37A51.05,51.05,0,0,1,110,82.91h1.26C110.77,81.3,110.25,79.7,109.78,78.09Z" transform="translate(-14.91 -14.91)"/><path class="cls-4" d="M75.43,66.83c1.63-1,3.17-2.19,5.2-2.3.39,0,.9-.1.93-.8a6.82,6.82,0,0,0-3.36.32c-1.54.55-2.6,1.83-4,2.51-3.16,1.55-4.7,4.46-6.38,7.2-1,1.7-1.13,3.93-1.15,5.87,0,2.28.44,4.59.4,6.91a19.79,19.79,0,0,0,.6,3.9c.43,2.32,1.36,4.54,1.94,6.83a11.49,11.49,0,0,0,3.27,5.81c1.05,1,2.32,1.63,3.37,2.52,1.52,1.28,2.78,2.22,5.05,2.26,2.64,0,4.13-1.33,5.84-2.73l-.07-.44c-.54-.32-.87,0-1.28.33a8.5,8.5,0,0,1-4.91,1.82c-1.94.22-3-1.13-4.27-2-2.69-2-5.6-3.86-5.75-7.75a1,1,0,0,0-.08-.29,55.5,55.5,0,0,1-2.9-14.36,15.85,15.85,0,0,1,2.6-10.78A16.25,16.25,0,0,1,75.43,66.83Z" transform="translate(-14.91 -14.91)"/><path class="cls-4" d="M96.33,68.34h0Z" transform="translate(-14.91 -14.91)"/><path class="cls-4" d="M98.83,72.19c-.83-1.28-2.35-2.12-2.5-3.83A1.26,1.26,0,0,1,95,68.15c-1.81-2.15-4.45-2.91-6.85-4a11,11,0,0,0-5.25-.63c-.27,0-.66,0-.63.43s.29.37.56.35a14.26,14.26,0,0,1,7.61,1.92,20.43,20.43,0,0,1,6,4.57,20.13,20.13,0,0,1,5.28,10.41c.09.56.15,1.12.24,1.68h1.38A26.93,26.93,0,0,0,98.83,72.19Z" transform="translate(-14.91 -14.91)"/><path class="cls-4" d="M74.53,63.45a4.16,4.16,0,0,1-1.23,1.13c-2.2,1.57-4.7,3-6,5.4-2.29,4.27-4.37,8.68-4.84,13.63a19.63,19.63,0,0,0,0,4.77c.31,1.9.86,3.81,1.22,5.74.38,2.08,1.15,4.05,1.65,6.09.61,2.5,2.44,4,3.91,5.89a.71.71,0,0,0,1,0c.34-.27.07-.53-.13-.73-2.69-2.68-4-6-4.78-9.66-.27-1.18-.6-2.37-.91-3.55-.69-2.69-1.4-5.38-1-8.29a30.61,30.61,0,0,1,2.07-6.53c.57-1.49.7-3.09,1.56-4.52,1.14-1.89,2-4,3.92-5.24a65.72,65.72,0,0,0,6.9-5.51l-.06-.5A3.37,3.37,0,0,0,74.53,63.45Z" transform="translate(-14.91 -14.91)"/><path class="cls-4" d="M96.33,68.34h0Z" transform="translate(-14.91 -14.91)"/><path class="cls-4" d="M97.7,69.57c1.56,1.77,3.23,3.46,4.15,5.71a40.58,40.58,0,0,1,2.25,7.62h1.13c-.27-1-.62-2-.85-3a27,27,0,0,0-2.9-7.37c-1.42-2.46-3.75-4.15-5.58-6.25a6.58,6.58,0,0,0-2.19-1.75c-1.85-.84-3.45-2.4-5.72-2.12V63a28,28,0,0,1,6.51,3.37,3.74,3.74,0,0,1,1.83,2C97.4,68,97.32,69.14,97.7,69.57Z" transform="translate(-14.91 -14.91)"/><path class="cls-4" d="M72.11,97.33c-.05,2,1.3,3.28,2.66,4.5,1.66,1.49,3.22,3.12,5.59,3.54a4.45,4.45,0,0,0,2,0c1.48-.38,2.45-1.47,3.62-2.32,3.76-2.71,5.24-6.71,6.48-10.88h-.61c-.72,1.76-1.65,3.42-2.47,5.13-1,2.16-2.74,3.68-4.35,5.32-2.17,2.21-3.47,2.43-6.31,1.06-2.5-1.21-4.08-3.37-5.66-5.52a1.34,1.34,0,0,1-.18-1.48A3.71,3.71,0,0,1,74.25,98a18.7,18.7,0,0,0,5.11,5.06,5.8,5.8,0,0,0,2.57.54c.24,0,.67-.12.55-.51s-.22-.83-.67-.56c-1,.58-1.52-.16-2.16-.55-1.75-1.07-3-2.75-4.49-4.06s-2.36-3.31-3.27-5.13h-.8C70.94,94.42,72.15,95.71,72.11,97.33Z" transform="translate(-14.91 -14.91)"/><path class="cls-4" d="M89.35,108.71a.5.5,0,0,0,0-.67.6.6,0,0,0-.63.3C85,113,80,112.47,74.92,111.76a1,1,0,0,1-.27-.12,22.24,22.24,0,0,1-7.82-6.27c-.4-.51-1.09-.76-1.31-1.24A31,31,0,0,1,63,97.75c-.11-.53-.71-.86-.62-1.47.24-1.64-.35-3.23-.28-4.87,0-.61.25-1.76-.61-1.71s-.57,1-.35,1.7a.9.9,0,0,1,0,.29c-.06,2.73-.21,5.48,1.21,8a9,9,0,0,1,.83,1.72,10.48,10.48,0,0,0,3.43,5.2,21.45,21.45,0,0,1,2.19,2c1,1,1.59,2.37,3.13,2.85a29.52,29.52,0,0,1,4.16,1.76c.77.38,1.28-.67,1.71-.37,1.29.9,2.65.58,4,.45A9.94,9.94,0,0,0,89.35,108.71Z" transform="translate(-14.91 -14.91)"/><path class="cls-4" d="M83.4,54.93c-.19,0-.39,0-.58,0a30,30,0,0,0-14.29,4.82c.84-.45,1.68-.88,2.52-1.3a18.31,18.31,0,0,1,3.84-1.53,46.57,46.57,0,0,1,10.72-1.21l.28-.47A7.52,7.52,0,0,0,83.4,54.93Z" transform="translate(-14.91 -14.91)"/><path class="cls-4" d="M69.77,60.83c-.48,0-1-.17-1.38.3-.75.94-1.82,1.59-2.3,2.8-.76,1.91-2.64,3-3.68,4.68a74.14,74.14,0,0,0-5.11,10.73c-.84,2-1,4.21-1.92,6.23-.18.4-.33.81-.47,1.23a30.21,30.21,0,0,0,.42,3.57,4.68,4.68,0,0,0,.15-2.59.43.43,0,0,1,.19-.37c.79-.31.58-1,.73-1.6.56-2.35.88-4.85,2.21-6.89a25.18,25.18,0,0,0,2.25-5.38,14.38,14.38,0,0,1,3.38-5.46,9.54,9.54,0,0,0,2.18-2.73,6.18,6.18,0,0,1,2.68-3.26,1.2,1.2,0,0,0,.76-1.17h0Z" transform="translate(-14.91 -14.91)"/><path class="cls-4" d="M63.66,65.62c.8-.78,2-1.42,2.19-3a9.36,9.36,0,0,0-3,2.38c-1.52,1.73-2.77,3.68-4.18,5.5l-.28.38A30,30,0,0,0,55,82c.73-2.25,1.17-4.64,2.3-6.79C59.09,71.78,60.83,68.37,63.66,65.62Z" transform="translate(-14.91 -14.91)"/><path class="cls-4" d="M65.91,81.17c-.05-.34.05-.79-.39-.85s-.67.36-.76.76a2.72,2.72,0,0,0-.06.74c.14,3.57.09,7.1,1.09,10.64,1.05,3.7,1.77,7.49,4.1,10.63,1.58,2.13,3.3,4.27,6.17,4.83l0-.56c-.73-.59-1.44-1.2-2.2-1.75a13.74,13.74,0,0,1-5.08-6.68c-.81-2.29-1.2-4.67-2-7a28.76,28.76,0,0,1-1.05-5.78C65.54,84.49,66.18,82.85,65.91,81.17Z" transform="translate(-14.91 -14.91)"/><path class="cls-4" d="M60.22,80.15c.1-.25.23-.77-.27-.86s-.52.33-.64.67c-.55,1.63-1,3.3-1.36,5q-1,4.34-1.85,8.72.31,1,.69,2A3.47,3.47,0,0,0,57,94.45a11.4,11.4,0,0,1,1.08-5.28C59.31,86.25,59,83,60.22,80.15Z" transform="translate(-14.91 -14.91)"/><path class="cls-4" d="M62.83,76.41a24.68,24.68,0,0,1,2.85-6.28,17.87,17.87,0,0,1,4.42-4.79l0-.45a3.77,3.77,0,0,0-3,1.83,10.66,10.66,0,0,1-1.55,1.91,16.71,16.71,0,0,0-4.27,8.45c-.41,1.8,0,3.73-.51,5.53a54.17,54.17,0,0,0-1.19,7.29,6.08,6.08,0,0,0,1.57-3.43A81.66,81.66,0,0,1,62.83,76.41Z" transform="translate(-14.91 -14.91)"/><path class="cls-4" d="M111.92,73.22a32.79,32.79,0,0,0-3.26-5.27,38,38,0,0,0-5.76-7.2,30.1,30.1,0,0,0-7.21-3.93A7.5,7.5,0,0,0,97.19,58c1.68,1.05,3.51,1.8,4.79,3.52,1.83,2.48,4,4.72,6,7.08a21.53,21.53,0,0,1,3.9,6.89h.57A5.21,5.21,0,0,0,111.92,73.22Z" transform="translate(-14.91 -14.91)"/><path class="cls-4" d="M98.55,83.09a42.57,42.57,0,0,1-6.85,24.44C96.48,104,101,89.55,98.55,83.09Z" transform="translate(-14.91 -14.91)"/><path class="cls-4" d="M102.49,94.21a4.48,4.48,0,0,0-.6-3.51c-.86,3.14-.59,6.22-1.56,9.15-1.54,4.66-2.91,9.36-6.35,13.09-.3.32-.67.62-.66,1.11l1.18-.36a26.56,26.56,0,0,0,1.9-2.38c2-2.32,2.85-5.4,4-8.22A51.22,51.22,0,0,0,102.49,94.21Z" transform="translate(-14.91 -14.91)"/><path class="cls-4" d="M81.87,114.76a22.77,22.77,0,0,0-2.94-.16,30.31,30.31,0,0,0,6.09.61h.16a10.67,10.67,0,0,0,1.88-1c.47-.32.87-.69.44-1.44C85.66,113.76,84,115,81.87,114.76Z" transform="translate(-14.91 -14.91)"/><path class="cls-4" d="M93.51,63.58A41.92,41.92,0,0,1,97.33,66c1,.74,1.52,2.21,2.47,3.24a15.53,15.53,0,0,1,3.41,5.06,16.24,16.24,0,0,0,2.34,4.73c.47-.36.28-.68.16-1a31,31,0,0,0-3.34-7.33,39.94,39.94,0,0,0-6.23-6.67,5.66,5.66,0,0,0-3.36-1.83l-.07.52C92.81,63.2,93.16,63.39,93.51,63.58Z" transform="translate(-14.91 -14.91)"/><path class="cls-4" d="M59.28,99.9a5.39,5.39,0,0,0,.44-3.72,5.57,5.57,0,0,1,0-2.65,4.64,4.64,0,0,0-.35-3,4.39,4.39,0,0,0-.83,2.67c-.15,2,.28,4-.14,6h0q.34.63.7,1.24A2.75,2.75,0,0,1,59.28,99.9Z" transform="translate(-14.91 -14.91)"/><path class="cls-4" d="M94.84,56.51a29.92,29.92,0,0,0-3.18-.9,11.51,11.51,0,0,0,2.3.84C94.25,56.51,94.59,56.63,94.84,56.51Z" transform="translate(-14.91 -14.91)"/><path class="cls-5" d="M92.71,62.76l.07-.52c-1.56-1.75-3.77-2-5.85-2.5-2.82-.7-5.39.84-8.11,1.06a1.31,1.31,0,0,0-1,.78l.06.5h0c.83-.3,1.66-.62,2.5-.88C84.71,59.81,88.76,60.91,92.71,62.76Z" transform="translate(-14.91 -14.91)"/><path class="cls-5" d="M81.42,56.56a53.91,53.91,0,0,0-9.68,2.85c-.74.26-1.67.45-2,1.41l.09.09h0C72.71,60.6,75.18,59,78,58.48c1.22-.21,2.39-1,3.73-1.18.75-.1,1.65.48,2.26-.4A4.67,4.67,0,0,0,81.42,56.56Z" transform="translate(-14.91 -14.91)"/><path class="cls-4" d="M79.88,58.76a36.35,36.35,0,0,0-8.27,3.06l.32.29c3.22-.4,5.91-2.57,9.18-2.8,1.42-.1,2.83-.25,4.37-.39A9,9,0,0,0,79.88,58.76Z" transform="translate(-14.91 -14.91)"/><path class="cls-5" d="M93.56,57.31c-2.55-.71-5-1.91-7.67-2l-.28.47c3.24.68,6.18,2.18,9.21,3.42l0-.64C94.47,58,94.14,57.47,93.56,57.31Z" transform="translate(-14.91 -14.91)"/><path class="cls-5" d="M79.29,62.73c2.91,0,5.82-.42,8.7.25v-.54C85,60.46,82.17,61.89,79.29,62.73Z" transform="translate(-14.91 -14.91)"/><path class="cls-4" d="M61.23,100c-.6.06-.75.61-.63,1.14a11.42,11.42,0,0,0,1.6,3.63,30.36,30.36,0,0,0,2.38,2.46l.2-.2c-.54-.95-1-1.94-1.63-2.83s-1.48-2-1.43-3.32C61.73,100.5,61.8,99.95,61.23,100Z" transform="translate(-14.91 -14.91)"/><path class="cls-5" d="M79.44,109.55a7.64,7.64,0,0,1-5.16-.69l0,.45a2.4,2.4,0,0,0,2.19,1.29c1.77-.13,3.52.5,5.29.07v-.62C81.14,109.14,80.19,109.35,79.44,109.55Z" transform="translate(-14.91 -14.91)"/><path class="cls-5" d="M70.34,87.8a.67.67,0,0,0-.44.83c.29,1.42.22,2.95,1.19,4.17h.8c.18-1.66-1.22-3-1-4.68C70.92,87.87,70.6,87.7,70.34,87.8Z" transform="translate(-14.91 -14.91)"/><path class="cls-5" d="M69.14,110.69l0,0A.43.43,0,0,0,69,110c-1.52-.83-2.55-2.35-4.2-3l-.2.2A30.29,30.29,0,0,0,69.14,110.69Z" transform="translate(-14.91 -14.91)"/><path class="cls-4" d="M71.61,107a.67.67,0,0,0-1,.13.44.44,0,0,0,.18.73c1.15.51,2.08,1.58,3.5,1.43l0-.45Z" transform="translate(-14.91 -14.91)"/><path class="cls-5" d="M73.68,63.21a.32.32,0,0,0,.24-.46c-.16-.36-.47-.31-.74-.17-1.18.58-2.45,1-3.12,2.31l0,.45C71.52,65,72.22,63.49,73.68,63.21Z" transform="translate(-14.91 -14.91)"/><path class="cls-5" d="M68.82,63.38c-.31.12-.67.42-.43.79s.7.16,1-.07c.85-.65,1.69-1.32,2.53-2l-.32-.29C70.52,62,69.82,63,68.82,63.38Z" transform="translate(-14.91 -14.91)"/><path class="cls-5" d="M92,110.14c-.87,1.14-2.36,1.66-2.93,3.09A4.67,4.67,0,0,0,92,110.14Z" transform="translate(-14.91 -14.91)"/><path class="cls-5" d="M91.61,108a8,8,0,0,0-2.81,3.44C89.79,110.53,91.17,109.94,91.61,108Z" transform="translate(-14.91 -14.91)"/><path class="cls-5" d="M94.82,106a8.09,8.09,0,0,0-2.2,3.44C93.82,108.64,94.87,107.76,94.82,106Z" transform="translate(-14.91 -14.91)"/><path class="cls-5" d="M89.94,100.84a3,3,0,0,0-1,1.76.31.31,0,0,0,.4.31c.73-.24.92-1,1.26-1.53a2.91,2.91,0,0,0,.21-.7l-.4-.13A1.9,1.9,0,0,0,89.94,100.84Z" transform="translate(-14.91 -14.91)"/><path class="cls-5" d="M77.44,108.94c.31.12.67.36.89-.07s-.18-.5-.4-.68a5,5,0,0,0-1.86-.84l0,.56A3.34,3.34,0,0,0,77.44,108.94Z" transform="translate(-14.91 -14.91)"/><path class="cls-5" d="M88.15,104.47c.34-.22.71-.42.65-.89a.55.55,0,0,0-.38-.36,1.06,1.06,0,0,0-1.08.62,4.2,4.2,0,0,0-.23.85l.07.44Z" transform="translate(-14.91 -14.91)"/><path class="cls-5" d="M93,91.17c.12-.39.48-1,0-1.19s-.58.49-.73.81a7.92,7.92,0,0,0-.4,1.39h.61A5.54,5.54,0,0,0,93,91.17Z" transform="translate(-14.91 -14.91)"/><path class="cls-2" d="M90.83,80.88a7.17,7.17,0,0,0-5.81-3h-.18a7.18,7.18,0,0,0-1.16.12,7.1,7.1,0,0,0-2.13.77A7.15,7.15,0,0,0,82,91.53a6.88,6.88,0,0,0,2.52.63l.47,0a7.18,7.18,0,0,0,.9-.06,7,7,0,0,0,3.24-1.26,7.18,7.18,0,0,0,1.68-1.67,7.12,7.12,0,0,0,0-8.31Z" transform="translate(-14.91 -14.91)"/><path class="cls-2" d="M131.58,84.53a1.87,1.87,0,0,0-1.71-1.62H101.7a1.51,1.51,0,0,0-.75.21,2.19,2.19,0,0,0-1,1.92v0a2.52,2.52,0,0,0,.07.56,2,2,0,0,0,1.25,1.48,1.47,1.47,0,0,0,.44.07h25.66a42,42,0,0,1-10.18,25.49l0,0-.67.76,0,0-.39.42-.4.42,0,0-.71.73A42.47,42.47,0,0,1,104,123h0l-.86.42-.47.22-.42.19a42.41,42.41,0,0,1-14,3.51c-.55,0-1.09.07-1.63.09s-1,0-1.53,0h-.12a42.46,42.46,0,0,1-13.32-2.16h0l-.89-.31-.37-.14-.55-.21-.69-.28-.22-.09a42.47,42.47,0,0,1-11.46-7.07l-.72-.64-.09-.08-.38-.35c-.41-.38-.82-.77-1.22-1.18A42.46,42.46,0,0,1,47.11,104l0-.09-.38-.79-.19-.41-.22-.48-.32-.73-.07-.16a42.46,42.46,0,0,1-3.11-13.11c0-.33,0-.66-.06-1v-.09c0-.18,0-.36,0-.54s0-.41,0-.61h0q0-.52,0-1a42.47,42.47,0,0,1,2.16-13.3l0-.13.28-.79.17-.46.17-.46L45.8,69l.05-.13A42.47,42.47,0,0,1,52.92,57.4q.62-.73,1.28-1.41l.21-.23.15-.15.61-.62q1.35-1.34,2.79-2.54l.35-.29,0,0a42.44,42.44,0,0,1,54.34.79,2.13,2.13,0,0,0,2.78-3.23,46.43,46.43,0,0,0-30-11.26l-.31,0H85A46.28,46.28,0,0,0,55.66,48.81l0,0-.37.31a46.57,46.57,0,0,0-3.75,3.49l-.17.17-.22.24a46.47,46.47,0,0,0-9.2,14.19l0,.11c-.12.29-.24.59-.35.89l-.18.48-.19.53c-.1.28-.2.57-.3.85l-.06.16A46.42,46.42,0,0,0,38.41,86v.05c0,.21,0,.42,0,.64s0,.42,0,.63v.05A46.42,46.42,0,0,0,42,103l.07.15.36.84.23.5.22.48.41.84.06.13a46.41,46.41,0,0,0,9.43,12.78l.09.09.41.39a46.44,46.44,0,0,0,14.38,9.18l.34.14.49.19.59.22.33.12.8.28.16.05A46.37,46.37,0,0,0,85,131.68h.35l1.23,0h.38a46.44,46.44,0,0,0,16-3.52l.1,0,.9-.39.61-.28.37-.17a46.37,46.37,0,0,0,13.73-9.9l.09-.09.39-.41a46.31,46.31,0,0,0,12.54-31.68A2.13,2.13,0,0,0,131.58,84.53Z" transform="translate(-14.91 -14.91)"/></svg>