<svg id="Layer_1" data-name="Layer 1" xmlns="http://www.w3.org/2000/svg" viewBox="0 0 140.27 140.27"><defs><style>.cls-1{fill:#eee;}.cls-2{fill:#555658;}.cls-3{fill:none;}.cls-4{fill:#666;}.cls-5{fill:#555667;}.cls-6{fill:#d86943;}</style></defs><title>PML</title><circle class="cls-1" cx="70.13" cy="70.13" r="69"/><path class="cls-2" d="M85,155.17A70.13,70.13,0,1,1,155.17,85,70.21,70.21,0,0,1,85,155.17Zm0-138A67.87,67.87,0,1,0,152.91,85,67.94,67.94,0,0,0,85,17.17Z" transform="translate(-14.91 -14.91)"/><path class="cls-3" d="M43,45.51a.51.51,0,0,0,.53-.51.55.55,0,0,0-.49-.53c-.36,0-.53.21-.54.54A.45.45,0,0,0,43,45.51Z" transform="translate(-14.91 -14.91)"/><path class="cls-3" d="M30.54,86.69a.45.45,0,0,0-.47.52c0,.33.26.43.53.48s.5-.22.48-.55A.45.45,0,0,0,30.54,86.69Z" transform="translate(-14.91 -14.91)"/><path class="cls-3" d="M27.9,78.26c.25,0,.43-.19.42-.59a.43.43,0,0,0-.48-.4.47.47,0,0,0-.53.47C27.29,78.13,27.62,78.24,27.9,78.26Z" transform="translate(-14.91 -14.91)"/><path class="cls-3" d="M38.66,61.4a.5.5,0,0,0-.57.54.52.52,0,0,0,.54.58A.5.5,0,0,0,39.2,62C39.21,61.59,39,61.41,38.66,61.4Z" transform="translate(-14.91 -14.91)"/><path class="cls-3" d="M61.81,37.53A.47.47,0,0,0,62.3,37a.47.47,0,0,0-.53-.48.44.44,0,0,0-.47.52C61.32,37.39,61.5,37.54,61.81,37.53Z" transform="translate(-14.91 -14.91)"/><path class="cls-3" d="M41.4,95.68a.52.52,0,0,0-.51.6.5.5,0,0,0,.57.54.52.52,0,0,0,.52-.59C41.93,95.88,41.77,95.66,41.4,95.68Z" transform="translate(-14.91 -14.91)"/><path class="cls-3" d="M62.37,59.57A.55.55,0,0,0,63,59c0-.36-.19-.54-.53-.6a.57.57,0,0,0-.05,1.14Zm.4-1-.16,0C62.64,58.52,62.69,58.49,62.77,58.58Z" transform="translate(-14.91 -14.91)"/><path class="cls-3" d="M56.33,127.49c-.22,0-.43.15-.38.42a.36.36,0,0,0,.42.3.35.35,0,0,0,.34-.36A.36.36,0,0,0,56.33,127.49Z" transform="translate(-14.91 -14.91)"/><path class="cls-3" d="M48.81,128.85a.37.37,0,1,0-.07.73c.19,0,.35-.11.38-.38A.35.35,0,0,0,48.81,128.85Z" transform="translate(-14.91 -14.91)"/><path class="cls-3" d="M51.41,124.33a.49.49,0,0,0-.48.54c0,.31.22.47.57.47s.5-.19.49-.5A.5.5,0,0,0,51.41,124.33Z" transform="translate(-14.91 -14.91)"/><path class="cls-3" d="M46.57,107.76c-.33,0-.53.22-.52.53a.5.5,0,0,0,.49.54.51.51,0,0,0,.54-.57C47.07,107.94,46.84,107.8,46.57,107.76Z" transform="translate(-14.91 -14.91)"/><path class="cls-3" d="M33.2,97.35a.51.51,0,0,0-.52.51.5.5,0,0,0,.54.49.5.5,0,1,0,0-1Z" transform="translate(-14.91 -14.91)"/><path class="cls-3" d="M50.49,108.18c.22-.07.41-.18.38-.45a.35.35,0,0,0-.37-.35.36.36,0,0,0-.38.34C50.08,108,50.28,108.1,50.49,108.18Z" transform="translate(-14.91 -14.91)"/><path class="cls-3" d="M57.62,112.14a.35.35,0,0,0-.3.4c0,.19.12.36.35.36s.37-.16.39-.41S57.87,112.1,57.62,112.14Z" transform="translate(-14.91 -14.91)"/><path class="cls-3" d="M59.69,49.28l-.07-.16C59.52,49.23,59.53,49.29,59.69,49.28Z" transform="translate(-14.91 -14.91)"/><path class="cls-3" d="M38.83,80.16a.36.36,0,0,0-.39.41.34.34,0,0,0,.37.35.37.37,0,0,0,.39-.4A.35.35,0,0,0,38.83,80.16Z" transform="translate(-14.91 -14.91)"/><path class="cls-3" d="M41.51,76.54a.36.36,0,0,0,.37-.33c0-.35-.19-.47-.43-.45a.34.34,0,0,0-.32.38C41.14,76.38,41.24,76.56,41.51,76.54Z" transform="translate(-14.91 -14.91)"/><path class="cls-3" d="M31.91,66.46a.45.45,0,0,0,.47-.52c0-.32-.21-.47-.53-.52a.53.53,0,0,0-.47.56A.46.46,0,0,0,31.91,66.46Z" transform="translate(-14.91 -14.91)"/><path class="cls-3" d="M83.24,41.88a.17.17,0,0,1,0,.13.17.17,0,0,0,0-.13.13.13,0,0,0-.06-.1A.13.13,0,0,1,83.24,41.88Z" transform="translate(-14.91 -14.91)"/><path class="cls-3" d="M77.2,44.58c0,.91,0,1.82,0,2.58l3.06-3c-.88,0-1.76,0-2.64,0C77.31,44.16,77.2,44.27,77.2,44.58Z" transform="translate(-14.91 -14.91)"/><path class="cls-3" d="M53.47,116.09a.46.46,0,0,0-.48.51.49.49,0,0,0,.58.51.51.51,0,0,0,.45-.58A.47.47,0,0,0,53.47,116.09Z" transform="translate(-14.91 -14.91)"/><path class="cls-3" d="M38.24,93.49a.32.32,0,0,0-.37.34c0,.27.12.4.39.39s.32-.16.33-.37A.33.33,0,0,0,38.24,93.49Z" transform="translate(-14.91 -14.91)"/><path class="cls-3" d="M82.77,41.81l.21,0Z" transform="translate(-14.91 -14.91)"/><path class="cls-3" d="M92.9,49.49a.39.39,0,0,1,0-.16h0A.39.39,0,0,0,92.9,49.49Z" transform="translate(-14.91 -14.91)"/><polygon class="cls-3" points="56.16 43.37 56.16 43.37 56.16 43.37 56.16 43.37"/><path class="cls-2" d="M93.15,49.88c-.06-.14-.19-.25-.26-.39a.39.39,0,0,1,0-.16h0l-1.3-1.48c-.44-.49-.88-1-1.34-1.44a30.8,30.8,0,0,0-4.94-4.27l-.06,0L84.95,42l-.26-.13a2.23,2.23,0,0,0-.26-.13l-.19-.07-.1-.17a.53.53,0,0,0-.14-.18l-.79-.45.07-.05-13,0a1.79,1.79,0,0,0-.88.07l-.12.1L68,42.37c-.17.18-.43.29-.19.66s.5.18.77.1a3.07,3.07,0,0,1,1.15-1.29l.17,0a7.1,7.1,0,0,1,1.94,0,5.35,5.35,0,0,1,1.48,0q4.71-.13,9.42,0l.21,0-.21,0,0,.43a3,3,0,0,1-2.63,1.07c-1-.1-2.11,0-3.16,0-.46,0-.61.11-.6.58,0,1,0,1.95,0,2.92,0,.48-.15.6-.6.58-.92,0-1.84,0-2.76,0-.26,0-.6-.13-.61.38s.27.48.62.48h3.47a29.09,29.09,0,0,0-3.6,5.62,1.2,1.2,0,0,1-.11-.91,3.11,3.11,0,0,0-1.21-3c-.31-.28-.46-.32-.78,0s-.19.51.06.7A2.47,2.47,0,0,1,71.8,53c0,.27,0,.54,0,.81-.07.55,0,.93.73.86-.24.59-.42,1.13-.67,1.64s-.31,1.37-.79,1.91h0v0h0l0,0h0c0,1-.5,1.82-.56,3-.56-.63-.93-1.11-1.37-1.53a2.15,2.15,0,0,1-.69-1.79c.06-1.57,0-3.14,0-4.71,0-.27.22-.74-.34-.73s-.29.44-.3.69a25.83,25.83,0,0,1,0,2.76,5.74,5.74,0,0,0,2.12,5.64.7.7,0,0,1,.32.7c-.28,1.5-.5,3-.65,4.55A1.75,1.75,0,0,1,68.66,65c.06-.7,0-1.41,0-2.11,0-.19,0-.39-.28-.39s-.38.13-.38.4a11.68,11.68,0,0,1,0,1.54,2.94,2.94,0,0,0,1.15,3,.82.82,0,0,1,.39.83c-.28,1.79.13,3.57,0,5.39-.27,2.68-.07,5.41-.07,8.12a.89.89,0,0,0,.16.69q1,1.07,1.95,2.17c.18.21.32.23.53,0s.09-.32,0-.47l-1-1.18h0c0-.24-.12-.35-.35-.36h0c-.1,0-.13-.07-.13-.16,0-.25,0-.54-.4-.43h0l-.06-.22h0q0-2.77,0-5.54V74.76h0v1.56l.38-.25,0-.13,0,.13v0l.06.23,0,.16a.08.08,0,0,1,0,.12,3.27,3.27,0,0,1,.16.36,30,30,0,0,0,4.62,9.23,31,31,0,0,1,5.11,10.16c1.27,4.42,1.38,9,1.62,13.51C82.4,115,81.59,120,80.74,125c-.54,3.18-1.15,6.35-1.76,9.57H90.1c-.75-3.74-1.47-7.49-2.07-11.26a69.39,69.39,0,0,1-1.16-12.84c.08-2.76.36-5.51.58-8.26a29.51,29.51,0,0,1,4.78-13.88c1.69-2.6,3.68-5,4.8-8a30.75,30.75,0,0,0,2.5-10.26,33.72,33.72,0,0,0-.34-5.51,33.45,33.45,0,0,0-2.42-9.29h0c-.39-.1-.58-.28-.28-.67h0l-.07-.14a10.56,10.56,0,0,1-2.1-2.92C94.05,50.89,93.42,50.54,93.15,49.88ZM77.21,47.16c0-.76,0-1.67,0-2.58,0-.31.11-.42.42-.42.88,0,1.76,0,2.64,0Zm6-5.15a.17.17,0,0,0,0-.13.13.13,0,0,0-.06-.1.13.13,0,0,1,.06.1A.17.17,0,0,1,83.21,42Z" transform="translate(-14.91 -14.91)"/><path class="cls-4" d="M96.77,55.34h0a1.13,1.13,0,0,0-.28-.67h0C96.19,55.06,96.39,55.24,96.77,55.34Z" transform="translate(-14.91 -14.91)"/><path class="cls-2" d="M30.89,74.07a.53.53,0,0,0,0,.77c0,.1.11.13.17,0a1.09,1.09,0,0,1,.65,0c.06.11.11.11.17,0,1.62-.08,3.25-.07,4.87,0L37,75a4.61,4.61,0,0,1,.63.61,2,2,0,0,0,2.06.89,1,1,0,0,1,1.05.39,1,1,0,0,0,1.44,0,1,1,0,0,0,.05-1.51,1,1,0,0,0-1.46-.08,1.8,1.8,0,0,1-2.64-.18c-.45-.46-.76-1.15-1.57-1.11-.06-.11-.11-.12-.17,0-1.79.07-3.57.07-5.36,0C31,73.94,30.94,74,30.89,74.07Zm10.56,1.7c.24,0,.4.1.43.45a.36.36,0,0,1-.37.33c-.27,0-.37-.17-.38-.4A.34.34,0,0,1,41.45,75.76Z" transform="translate(-14.91 -14.91)"/><path class="cls-5" d="M85.49,42l-.2.12a30.8,30.8,0,0,1,4.94,4.27c.46.47.91.95,1.34,1.44l1.3,1.48h0a.39.39,0,0,0,0,.16c.06.15.2.25.26.39.26.66.9,1,1.17,1.74a10.56,10.56,0,0,0,2.1,2.92c-.1-.25-.18-.5-.29-.75a30.54,30.54,0,0,0-7.43-9.73c-.88-.8-1.82-1.53-2.77-2.27l-.09,0Z" transform="translate(-14.91 -14.91)"/><polygon class="cls-2" points="31.94 41.7 31.94 41.69 31.93 41.69 31.94 41.7"/><path class="cls-2" d="M32.79,67.16A1.47,1.47,0,0,0,33,65a1.06,1.06,0,0,1-.24-1,37,37,0,0,1,1.67-6.84,30.77,30.77,0,0,1,7.16-11.9,1.37,1.37,0,0,0,1.67,1.15.6.6,0,0,1,.64.18c.85,1,1.71,1.94,2.57,2.9a.28.28,0,0,1,.17.28,23.28,23.28,0,0,1,0,3.9,2.94,2.94,0,0,1,0,1.12,3.49,3.49,0,0,1,0,1.31l.16.44.28,0,1.14.05a.64.64,0,0,1,.51.09l.47.06.35.09.46.11a.33.33,0,0,1,.34.09l.31,0a.34.34,0,0,1,.34.12l.8.22c5.21,1.77,8.35,5.3,9.13,10.8a15,15,0,0,1-3.33,12.44,13.17,13.17,0,0,1-8.53,4.22c-.56.08-1.13.13-1.69.17-.27,0-.67.13-.6-.37s-.31-1,.49-1a14,14,0,0,0,6.61-2.21c.2-.13.39-.21.57,0,.43.48.75.23,1.12-.11a14,14,0,0,0,4.47-9.86c.33-6-2.46-10.44-8-12.94a4.91,4.91,0,0,1-.48-.29l-.22-.07h0l-.16,0-.34.68c-.14.79-.64.33-1,.29-.17,0-.36,0-.5-.12l-.8-.09L48.42,59l-.64-.08a2.45,2.45,0,0,1-1-.08H45.68a2.68,2.68,0,0,1-1,.09,9.7,9.7,0,0,0-4.93,1.92c-.31.23-.46.06-.71,0a1.24,1.24,0,1,0-.7,2.37l0,.15a8.32,8.32,0,0,0,1.48,1.16c.18,0,.4,0,.52-.18-.68-.18-1.1-.75-1.65-1.12a1.13,1.13,0,0,0,1.17-1A1.26,1.26,0,0,1,40.6,61a11.12,11.12,0,0,1,1.3-.66,13.13,13.13,0,0,1,8.37-.3c.63.15,1,.15,1.18-.56.09-.39.29-.41.64-.23,4.12,2.06,7.77,5.89,7.38,11.74a14.25,14.25,0,0,1-3.92,9.52c-.31.32-.6.64-1,.14-.16-.19-.37-.17-.58,0a13,13,0,0,1-7.11,2.41c-.65,0-.71.29-.71.83,0,.26,0,.53,0,.79a7.24,7.24,0,0,1-.7-.74,2.08,2.08,0,0,0-2.1-.86,1,1,0,0,1-1-.41c-.37-.42-.79-.81-1.19-1.21-.14-.14-.29-.36-.52-.1s0,.33.13.45a12.87,12.87,0,0,1,1,1,2,2,0,0,0,2.1.86,1,1,0,0,1,1,.4c.43.47.89.91,1.34,1.35,0,2.47,0,4.93,0,7.4A6.21,6.21,0,0,1,46,94.21c-.17.77-.54,1.46-1.32,1.59s-1.71.56-2.41-.41a1.18,1.18,0,0,0-1.74,0,1.22,1.22,0,0,0,0,1.74,1.37,1.37,0,0,0,.46.29c-.39.06-.57.35-.57,1a6.63,6.63,0,0,1,0,1c-.09.58.18.75.69.7,0-.4,0-.8,0-1.2s-.14-.87.56-.76c.22,0,.24-.15.24-.32a.29.29,0,0,0-.26-.33h0a1,1,0,0,0,.68-.42,1,1,0,0,1,1-.46c2.39,0,3.46-1,3.48-3.44,0-1.84,0-3.69,0-5.53,0-1.44,0-1.44,1.46-1.58l.48-.06a21.38,21.38,0,0,0,4.8-1.15c-.52,1.36.37,2,1.11,2.7a6.33,6.33,0,0,1,.85.87,3.55,3.55,0,0,0,3.77,1.55h.16c.27,0,.65.12.63-.38s-.37-.37-.6-.33a3.66,3.66,0,0,1-3.86-1.7,10.23,10.23,0,0,0-1-1A1.41,1.41,0,0,1,55,84.08l.63-.37a13.51,13.51,0,0,0,6.05-8.86,16.23,16.23,0,0,0-2-12.85,17.1,17.1,0,0,0-2.36-2.66c1.11,0,2.05,0,3,0a1.31,1.31,0,0,1,1.25.5,1.14,1.14,0,0,0,1.73,0,1.3,1.3,0,0,0,0-1.77,1.23,1.23,0,0,0-1.75,0c-.15.14-.28.3-.42.46l-.16,0a43.6,43.6,0,0,1-4.55,0l-.16,0a18.19,18.19,0,0,0-8-2.88c-.46,0-.51-.23-.5-.61,0-1.68,0-3.36,0-5a1.5,1.5,0,0,0-.45-1.15c-.84-.88-1.64-1.8-2.48-2.68a1,1,0,0,1-.34-1,1.42,1.42,0,0,0-1-1.61C48.23,39.7,53.82,38,60,37.7a1,1,0,0,1,.82.41A1.47,1.47,0,0,0,63.25,37a1.32,1.32,0,0,0-.72-1.26,1.22,1.22,0,0,0-1.52,0c-.66.76-1.48.64-2.29.71a28.27,28.27,0,0,0-12.55,3.73c-8.83,5.31-12.94,13.6-14.62,23.39-.08.45-.08.85-.54,1.17a1.43,1.43,0,0,0-.27,2.14A1.5,1.5,0,0,0,32.79,67.16Zm5.84-4.64a.52.52,0,0,1-.54-.58.5.5,0,0,1,.57-.54c.34,0,.55.2.53.64A.5.5,0,0,1,38.63,62.51Zm2.83,34.3a.5.5,0,0,1-.57-.54.52.52,0,0,1,.51-.6c.36,0,.53.21.58.54A.52.52,0,0,1,41.46,96.81Zm21-38.39c.34.06.56.24.53.6a.55.55,0,0,1-.59.55.57.57,0,0,1,.05-1.14Zm-.65-21.89a.47.47,0,0,1,.53.48.47.47,0,0,1-.49.52c-.31,0-.49-.14-.5-.48A.44.44,0,0,1,61.77,36.53ZM43.06,44.47a.55.55,0,0,1,.49.53.51.51,0,0,1-.53.51.45.45,0,0,1-.5-.49C42.53,44.69,42.7,44.44,43.06,44.47ZM31.86,65.42c.32,0,.51.2.53.52a.45.45,0,0,1-.47.52.46.46,0,0,1-.53-.49A.53.53,0,0,1,31.86,65.42Z" transform="translate(-14.91 -14.91)"/><path class="cls-2" d="M73.66,90.47c-.68-.44-1.52-.92-1.31-2,0-.21-.18-.23-.35-.23s-.31.08-.31.29c0,.64-.09,1.24.57,1.72s1.5,1.31,2.24,2l.15.22c0,.22,0,.43,0,.65q0,19.87,0,39.74a5.93,5.93,0,0,1,.74.64c0-13,0-26,0-39C75.47,92.7,75.14,91.43,73.66,90.47Z" transform="translate(-14.91 -14.91)"/><path class="cls-2" d="M47.37,107a1.46,1.46,0,0,0-2.13.61.64.64,0,0,1-.69.4c-1.25,0-2.49,0-3.74,0h-.65c-1.16,0-2.46.29-3.46-.12s-1.68-1.55-2.53-2.35a1.38,1.38,0,0,1-.49-1.13c0-1.49,0-3,0-4.47a1,1,0,0,1,.43-1,1.44,1.44,0,0,0,.19-2.21,1.51,1.51,0,0,0-2.18,0,1.45,1.45,0,0,0,.2,2.21.91.91,0,0,1,.4.88c0,1.57,0,3.14,0,4.71a1.73,1.73,0,0,0,.6,1.48c.89.79,1.72,1.64,2.54,2.51a1.32,1.32,0,0,0,1.06.44c2.55,0,5.09,0,7.64,0a1.21,1.21,0,0,1,1,.29,1.43,1.43,0,0,0,2.25-.15A1.55,1.55,0,0,0,47.37,107ZM33.23,98.35a.5.5,0,0,1-.54-.49.51.51,0,0,1,.52-.51.5.5,0,1,1,0,1Zm13.31,10.47a.5.5,0,0,1-.49-.54c0-.31.2-.49.52-.53s.51.18.51.5A.51.51,0,0,1,46.53,108.83Z" transform="translate(-14.91 -14.91)"/><path class="cls-2" d="M31.95,86.58a1.44,1.44,0,0,0-2-.73,1.24,1.24,0,0,1-1.27.05c-.4-.16-.8-.32-1.21-.46a2.16,2.16,0,0,1-1.37-3.37c.34-.67.73-1.32,1.09-2a1.43,1.43,0,0,1,1.1-.91,1.43,1.43,0,0,0,1-1.84,1.52,1.52,0,0,0-1.95-1,1.43,1.43,0,0,0-.9,1.83,1.31,1.31,0,0,1-.16,1.53c-.38.62-.69,1.28-1.06,1.91a4,4,0,0,0-.46,1.79,2.72,2.72,0,0,0,1.72,2.69c.7.29,1.41.55,2.12.81.31.11.51.22.57.64A1.46,1.46,0,0,0,31,88.62,1.56,1.56,0,0,0,31.95,86.58Zm-4.11-9.31a.43.43,0,0,1,.48.4c0,.41-.17.61-.42.59s-.61-.14-.58-.52A.47.47,0,0,1,27.84,77.27ZM30.6,87.69c-.27,0-.51-.15-.53-.48a.45.45,0,0,1,.47-.52.45.45,0,0,1,.54.45C31.1,87.46,30.89,87.61,30.6,87.69Z" transform="translate(-14.91 -14.91)"/><path class="cls-2" d="M49.33,128.27l-.22-.23c0-2.72,0-5.45,0-8.17,0-2.26,0-4.53,0-6.79l.14-.28a1.77,1.77,0,0,1,.26-.31,3,3,0,0,0,1.36-3.19.77.77,0,0,1,.32-.76,1,1,0,0,0,.06-1.5,1,1,0,0,0-1.47,0,1,1,0,0,0,0,1.57c.15.15.33.25.34.51,0,1.06.13,2.1-1,2.8a2.12,2.12,0,0,0-.87,2c0,4.47,0,8.94,0,13.4a1.54,1.54,0,0,1-.44,1.3.88.88,0,0,0,0,1.31,1.24,1.24,0,0,0,.4.29v4.4h.78v-4.42l.13-.06a1,1,0,0,0,.45-1.33A2.91,2.91,0,0,0,49.33,128.27Zm.78-20.55a.36.36,0,0,1,.38-.34.35.35,0,0,1,.37.35c0,.27-.16.38-.38.45C50.28,108.1,50.08,108,50.12,107.73Zm-1.38,21.85a.37.37,0,1,1,.07-.73.35.35,0,0,1,.31.34C49.09,129.47,48.93,129.58,48.74,129.58Z" transform="translate(-14.91 -14.91)"/><path class="cls-2" d="M54.88,40.11c0,.56.38.42.67.42,3.09,0,6.18-.11,9.26,0,1.69.08,2.92-.3,3.69-1.83a1,1,0,0,1,1-.51c1.68,0,3.36,0,5,0,.32,0,.74.16.76-.44s-.45-.48-.78-.48a33.77,33.77,0,0,1-3.49,0c-1.75-.21-3.1.23-3.91,1.89,0,.09-.15.15-.23.22l-.2.17c-.3,0-.59,0-.89,0H55.56C55.19,39.6,54.87,39.55,54.88,40.11Z" transform="translate(-14.91 -14.91)"/><path class="cls-2" d="M52.32,115.67a1.48,1.48,0,0,0,.46,2.23.64.64,0,0,1,.33.58c0,1.24,0,2.49,0,3.73a1.24,1.24,0,0,1-1.37,1.16A1.5,1.5,0,0,0,50,124.74a1.48,1.48,0,0,0,1.48,1.58,1.43,1.43,0,0,0,1.49-1.63.8.8,0,0,1,.35-.89,2,2,0,0,0,.83-2c-.06-1.24,0-2.48,0-3.73l.16-.21.1-.13a1.52,1.52,0,0,0,.08-2.33A1.5,1.5,0,0,0,52.32,115.67Zm-.82,9.68c-.34,0-.55-.17-.57-.47a.49.49,0,0,1,.48-.54.5.5,0,0,1,.58.51C52,125.16,51.78,125.31,51.51,125.35Zm2.06-8.24a.49.49,0,0,1-.58-.51.46.46,0,0,1,.48-.51.47.47,0,0,1,.54.44A.51.51,0,0,1,53.57,117.11Z" transform="translate(-14.91 -14.91)"/><path class="cls-2" d="M68.5,75.83a4.17,4.17,0,0,0-1.36-3.67,2.11,2.11,0,0,1-.65-1.82c0-3.39,0-6.78,0-10.16,0-.25.19-.66-.31-.68s-.34.4-.34.65c0,1.84,0,3.69,0,5.53,0,1.3.09,2.61,0,3.9a3.88,3.88,0,0,0,1.33,3.6,2.17,2.17,0,0,1,.68,1.88c0,2.85,0,5.69,0,8.54,0,1.24.29,2.58-1.11,3.36-.18.1-.16.25,0,.4s.2.23.4.15a3.18,3.18,0,0,0,1.41-2.09C68.48,82.22,68.41,79,68.5,75.83Z" transform="translate(-14.91 -14.91)"/><path class="cls-2" d="M40.64,87.38l0,0,0,0Z" transform="translate(-14.91 -14.91)"/><path class="cls-2" d="M40.27,87.24a2.26,2.26,0,0,1-1.08-2.32,20.79,20.79,0,0,0,0-2.52,1.35,1.35,0,0,1,.41-1.22.9.9,0,0,0,0-1.32,1,1,0,0,0-1.39-.18A.86.86,0,0,0,37.89,81a2.48,2.48,0,0,1,.33,1.61c0,1.16,0,2.33,0,3.49a.92.92,0,0,0,.32.86,3.18,3.18,0,0,1,1.29,3.32,4.32,4.32,0,0,0,0,.65,1.78,1.78,0,0,1-1.67,1.89,1,1,0,0,0-1,1A1,1,0,0,0,38,94.87a.89.89,0,0,0,1.16-.62,3,3,0,0,1,1.17-1.67,1.44,1.44,0,0,0,.47-1.21c0-1.16,0-2.33,0-3.49-.07-.15-.39-.21-.19-.46C40.41,87.58,40.36,87.36,40.27,87.24Zm-1.46-6.32a.34.34,0,0,1-.37-.35.36.36,0,0,1,.39-.41.35.35,0,0,1,.37.36A.37.37,0,0,1,38.81,80.92Zm-.55,13.31c-.27,0-.4-.13-.39-.39a.32.32,0,0,1,.37-.34.33.33,0,0,1,.35.36C38.58,94.07,38.5,94.22,38.26,94.22Z" transform="translate(-14.91 -14.91)"/><path class="cls-2" d="M53.38,74.09c.79.59.8-.18.95-.51a6.38,6.38,0,0,0-5.73-9,6.23,6.23,0,0,0-4.25,1.48c-.16.13-.65.24-.25.66s.46.52.89.12a4.88,4.88,0,0,1,3.17-1.28,5.43,5.43,0,0,1,5.16,7.85C53.2,73.67,53,73.81,53.38,74.09Z" transform="translate(-14.91 -14.91)"/><path class="cls-2" d="M58.7,111.93v0c-.42-.33-.85-.69-1.42-.42a1.05,1.05,0,0,0-.61,1.33c.07.27-.14.4-.29.52a1.19,1.19,0,0,0-.42.83v1.64q0,.24,0,.48v8.14a10.78,10.78,0,0,1,0,2.27l-.18.17a1.87,1.87,0,0,0-.17.18c-.45.6-.45,1.21,0,1.57a1,1,0,0,0,1.46-.1A1,1,0,0,0,57,127a.61.61,0,0,1-.24-.55c0-4,0-8.05,0-12.08,0-.53.26-.87.85-.81a1.15,1.15,0,0,0,1-.45c.29-.3,0-.72.29-1h0C58.88,112,58.84,111.91,58.7,111.93Zm-2.33,16.28a.36.36,0,0,1-.42-.3c0-.28.16-.41.38-.42a.36.36,0,0,1,.38.36A.35.35,0,0,1,56.37,128.21Zm1.3-15.31c-.23,0-.33-.16-.35-.36a.35.35,0,0,1,.3-.4c.25,0,.39.11.44.35S57.93,112.89,57.67,112.9Z" transform="translate(-14.91 -14.91)"/><path class="cls-2" d="M54.84,108.52c-.45,0-.34.34-.34.58,0,1.22,0,2.44,0,3.65,0,0-.06,0-.06,0a.66.66,0,0,0,0,.12c-.12.29-.38.13-.56.13-1.06,0-2.11,0-3.17,0-.3,0-.6-.05-.6.42,0,2.44,0,4.87,0,7.31,0,.29.08.46.41.45s.33-.22.32-.45,0-.43,0-.65q0-3.13,0-6.25l.15-.14a.18.18,0,0,0-.12,0,.19.19,0,0,1,.12,0c1.19,0,2.38,0,3.57,0,.46,0,.61-.13.6-.59,0-1.35,0-2.71,0-4.06C55.22,108.82,55.28,108.51,54.84,108.52Z" transform="translate(-14.91 -14.91)"/><path class="cls-2" d="M72.19,109.48a1.36,1.36,0,0,0-.43-1.08c-1-1-2-2-3-3-.16-.15-.26-.56-.62-.23s0,.51.15.7c1,1,2,2,3,3l.16.26c0,.27.05.54.05.8,0,3,0,6.06,0,9.09,0,.25-.18.65.32.68s.39-.42.39-.69C72.18,115.87,72.17,112.68,72.19,109.48Z" transform="translate(-14.91 -14.91)"/><path class="cls-2" d="M73.64,94.39c0-.18-.06-.31-.35-.32s-.34.14-.34.32c0,.65,0,1.31,0,2a.77.77,0,0,1-.48.82,2.77,2.77,0,0,0-1.79,3,40.7,40.7,0,0,1,0,4.28c0,.19-.16.49.34.48s.31-.31.31-.49c0-.93,0-1.86,0-2.8s0-1.71,0-2.56a.77.77,0,0,1,.47-.82c1.56-.76,2.07-1.83,1.79-3.15A3.27,3.27,0,0,1,73.64,94.39Z" transform="translate(-14.91 -14.91)"/><path class="cls-2" d="M43.23,67.94c-.48-.27-.49.18-.59.4A6.11,6.11,0,0,0,42,71.1a6.38,6.38,0,0,0,3.72,5.73c.21.1.49.39.66,0s.33-.66-.21-.84a3.24,3.24,0,0,1-.77-.43,5.29,5.29,0,0,1-1.88-6.72C43.76,68.3,43.59,68.14,43.23,67.94Z" transform="translate(-14.91 -14.91)"/><path class="cls-2" d="M65.21,114.24a.84.84,0,0,0-.24-.74,2.45,2.45,0,0,1-.77-2.33c0-.7,0-1.41,0-2.11,0-.22.1-.51-.3-.54s-.37.29-.37.55c0,.92,0,1.84,0,2.76a2,2,0,0,0,.64,1.73,1.31,1.31,0,0,1,.4,1.09c0,1.43,0,2.87,0,4.3s0,3,0,4.54c0,.26-.07.57.37.54s.27-.34.27-.55C65.21,120.41,65.21,117.33,65.21,114.24Z" transform="translate(-14.91 -14.91)"/><path class="cls-2" d="M77.78,107.66c.48,0,.36-.39.36-.66,0-2.17,0-4.33,0-6.5a4.34,4.34,0,0,1,.45-2.11,4.82,4.82,0,0,0,.48-2.67c0-.21.14-.51-.28-.54s-.4.27-.37.54a4.45,4.45,0,0,1-.52,2.58,5,5,0,0,0-.45,2.52c0,.87,0,1.73,0,2.6,0,1.19,0,2.38,0,3.57C77.46,107.24,77.3,107.64,77.78,107.66Z" transform="translate(-14.91 -14.91)"/><path class="cls-2" d="M63.79,99.36c.19.18.32.25.53,0s.09-.37-.07-.54-.46-.52-.69-.78-.21-.52-.21-.81q0-4.12,0-8.24c-.54-.19-.71,0-.7.57,0,2.43.09,4.86,0,7.28A3,3,0,0,0,63.79,99.36Z" transform="translate(-14.91 -14.91)"/><path class="cls-2" d="M69.41,90.5c0-.24,0-.51-.34-.51s-.34.29-.32.51a4.72,4.72,0,0,1-.55,2.66,4.78,4.78,0,0,0-.41,2.36c0,.89,0,1.79,0,2.68,0,1.22,0,2.44,0,3.66,0,.26-.15.66.37.63s.29-.39.29-.62c0-2.09,0-4.17,0-6.26A5,5,0,0,1,69,93.1,4.69,4.69,0,0,0,69.41,90.5Z" transform="translate(-14.91 -14.91)"/><path class="cls-2" d="M41.16,100.08h0l0,0Z" transform="translate(-14.91 -14.91)"/><path class="cls-2" d="M39.91,101.49c-.94.83-1.48,2.31-3.15,2-.11,0-.19.07-.2.2s.07.26.23.26c.7,0,1.4.16,2-.51,1.45-1.6,3-3.12,4.5-4.68a1.31,1.31,0,0,1,1.06-.45c1.16,0,2.33,0,3.5,0,.21,0,.57.15.58-.23s-.38-.27-.61-.28c-1.19,0-2.39,0-3.58,0a1.5,1.5,0,0,0-1.21.5,9.57,9.57,0,0,1-1.88,1.8A3.91,3.91,0,0,1,39.91,101.49Z" transform="translate(-14.91 -14.91)"/><path class="cls-2" d="M69.24,46.3c.49.26.44-.25.48-.37.17-.56.53-.63,1-.62,1.48,0,3,0,4.46,0,.4,0,.59-.08.57-.53,0-.65,0-1.3,0-1.94,0-.33-.14-.42-.44-.41s-.37.13-.37.4c0,.43,0,.86,0,1.29.06.26-.05.35-.3.28h-.33c-1.39,0-2.78,0-4.17,0a.81.81,0,0,0-.87.52,4.5,4.5,0,0,1-.26.67C68.83,45.94,68.9,46.11,69.24,46.3Z" transform="translate(-14.91 -14.91)"/><path class="cls-2" d="M78.92,112.92c-.19.12-.21.28,0,.45s.27.3.46.09c.44-.48,1-.83,1-1.66-.09-1.1,0-2.22,0-3.33s0-2.27,0-3.41c0-.26.16-.64-.35-.64s-.36.38-.36.64q0,3,0,6C79.58,111.76,79.66,112.48,78.92,112.92Z" transform="translate(-14.91 -14.91)"/><path class="cls-2" d="M68.48,113.51c0,2.35,0,4.7,0,7.05l-.13.28c-.14.16-.27.33-.41.48s-.34.26-.11.52.41.18.58,0,.72-.57.83-1l0-7.82C68.62,112.75,68.48,113,68.48,113.51Z" transform="translate(-14.91 -14.91)"/><path class="cls-2" d="M78.69,122.86a1.68,1.68,0,0,1-.61-1.49c0-2.6,0-5.2,0-7.81,0-.24.21-.65-.31-.67s-.34.39-.35.64c0,1.41,0,2.82,0,4.23,0,1.22,0,2.44,0,3.66a2,2,0,0,0,.81,1.88c.2.14.33.59.7.2S78.85,123,78.69,122.86Z" transform="translate(-14.91 -14.91)"/><path class="cls-2" d="M55.21,55.87c.87.46,1.73.94,2.66,1.45V52.78c-1,.95-1.84,1.79-2.72,2.61C54.95,55.6,54.92,55.71,55.21,55.87Z" transform="translate(-14.91 -14.91)"/><path class="cls-2" d="M62.71,112.89c-.25,0-.44,0-.4.35a.63.63,0,0,1-.35.6A3.89,3.89,0,0,0,60.3,118a6,6,0,0,1,0,.89c0,1,0,2,0,3,0,.22-.17.59.3.6s.34-.33.35-.58a32.26,32.26,0,0,0,0-3.58,4,4,0,0,1,1.7-4.2.76.76,0,0,0,.37-.76C63,113.14,63.05,112.9,62.71,112.89Z" transform="translate(-14.91 -14.91)"/><path class="cls-2" d="M60.8,92.28a3,3,0,0,1-3.3-1.42.92.92,0,0,0-.9-.4c-2.11,0-4.22,0-6.34,0-.23,0-.63-.18-.63.25s.41.25.63.25c1.95,0,3.9,0,5.85,0a1.45,1.45,0,0,1,1.37.64,2.12,2.12,0,0,0,2.4,1.14,6.57,6.57,0,0,0,.93,0c.31-.05.89.22.89-.21S61.09,92.24,60.8,92.28Z" transform="translate(-14.91 -14.91)"/><path class="cls-2" d="M51,99.62c1.16,0,2.32,0,3.48,0a1.69,1.69,0,0,1,1.55.66,2.76,2.76,0,0,0,2.89,1.13c.31-.06.88.23.88-.21s-.59-.22-.91-.27c-.61-.11-1.33.25-1.81-.38a3.53,3.53,0,0,0-3.66-1.43,1.89,1.89,0,0,1-.32,0H51c-.21,0-.48-.06-.47.27S50.79,99.62,51,99.62Z" transform="translate(-14.91 -14.91)"/><path class="cls-2" d="M45.44,100.43c0-.08-.09-.25-.14-.25-.83,0-1.84-.39-2.44.15-1.79,1.6-3.42,3.37-5.12,5.06-.15.15-.25.29-.05.46s.3.05.42-.07l1.09-1.16,1.07,1.1c.13.14.26.32.46.14s0-.37-.1-.53l-1-1c.82-.83,1.69-1.6,2.43-2.49a2.71,2.71,0,0,1,2.72-1.13,1.17,1.17,0,0,0,.48,0A.31.31,0,0,0,45.44,100.43Z" transform="translate(-14.91 -14.91)"/><path class="cls-2" d="M50.1,48.45c-1-1.13-2.47-1.83-2.8-3.65-.29.67-.3,1.1.13,1.52.81.8,1.58,1.63,2.4,2.42a1.4,1.4,0,0,1,.48,1.13c0,1.41,0,2.82,0,4.22,0,.18,0,.45.22.44s.2-.28.2-.45c0-1.35,0-2.71,0-4.06A2.12,2.12,0,0,0,50.1,48.45Z" transform="translate(-14.91 -14.91)"/><path class="cls-2" d="M48.46,77.44a6.12,6.12,0,0,0,3.29-.93c.17-.11.65-.16.35-.54-.18-.23-.32-.61-.82-.31a5,5,0,0,1-3.32.77c-.49-.06-.48.36-.54.65s.24.34.47.37A5.05,5.05,0,0,0,48.46,77.44Z" transform="translate(-14.91 -14.91)"/><path class="cls-2" d="M55,76.16c0-.6-.24-.36-.45-.1a7.85,7.85,0,0,1-9.9,1.83c-.27-.16-.41-.12-.38.22a8,8,0,0,0,3.51,1.14A8.37,8.37,0,0,0,55,76.16Z" transform="translate(-14.91 -14.91)"/><path class="cls-2" d="M51,95.48h3.87c.26,0,.56.07.54-.37s-.29-.32-.51-.32H51c-.24,0-.52-.05-.52.32S50.78,95.48,51,95.48Z" transform="translate(-14.91 -14.91)"/><path class="cls-2" d="M35.56,88c-.61-.07-1.24,0-1.86,0-.36,0-.58.08-.52.49a27.22,27.22,0,0,0,3.71,0q0-1.33,0-2.67c0-.21,0-.47-.27-.49s-.31.29-.31.51a12.35,12.35,0,0,0,0,1.46C36.34,87.83,36.22,88.1,35.56,88Z" transform="translate(-14.91 -14.91)"/><path class="cls-2" d="M58.11,49.28c-.09-.53.1-1.09-.1-1.61h-.27c0,1,0,1.94,0,2.9a1.55,1.55,0,0,1-.58,1.33c-1,.89-1.93,1.82-2.88,2.74-.18.17-.45.29-.44.61.34.14.45-.14.61-.29A23.57,23.57,0,0,1,56.53,53,3.57,3.57,0,0,0,58.11,49.28Z" transform="translate(-14.91 -14.91)"/><path class="cls-2" d="M65.78,55.95c-.57,0-1.14,0-1.71,0h0a13.88,13.88,0,0,1-1.62,0c-.62-.07-.86.34-1.13.74-.09.12-.14.24,0,.34s.27,0,.32-.12c.26-.57.75-.52,1.25-.51h1.71c.41,0,.9-.13,1.2.05s.11.79.17,1.2c0,0,0,.05,0,.08s0,.35.25.33.18-.18.18-.31c0-.38,0-.76,0-1.14S66.29,55.91,65.78,55.95Z" transform="translate(-14.91 -14.91)"/><path class="cls-2" d="M70.9,52.26c-.58-.56-1.14-1.15-1.71-1.72-.09-.09-.17-.25-.32-.11s0,.24.06.34c.38.38.73.8,1.14,1.15a1.84,1.84,0,0,1,.68,1.62c-.06,1.35,0,2.7,0,4.05,0,.27-.1.61.32.67q0-2.7,0-5.41A.72.72,0,0,0,70.9,52.26Z" transform="translate(-14.91 -14.91)"/><path class="cls-2" d="M66.63,49.3H59.84l-.23-.2a2.3,2.3,0,0,1,0-1l0-.37h-.37v1.95c1.27,0,2.54.05,3.81,0a20.25,20.25,0,0,0,3.63-.1Zm-7-.18.07.16C59.53,49.29,59.52,49.23,59.61,49.12Z" transform="translate(-14.91 -14.91)"/><path class="cls-2" d="M38.29,90.47c.18,0,.42,0,.43-.24S38.48,90,38.3,90H33.36c-.19,0-.43,0-.43.24s.22.26.42.26h4.95Z" transform="translate(-14.91 -14.91)"/><path class="cls-2" d="M30.29,84.09c0,.17,0,.33.24.35s.32-.07.32-.27c0-1,.58-1.36,1.51-1.33.14,0,.27,0,.29-.21s-.12-.28-.3-.28c-.5,0-1-.1-1.39.36-.22-.25.11-.82-.44-.74s-.21.49-.22.75C30.26,83.17,30.28,83.63,30.29,84.09Z" transform="translate(-14.91 -14.91)"/><path class="cls-2" d="M56,74.15c1.2.66,1.07-.4,1.21-.88A8.87,8.87,0,0,0,47.65,62a8.66,8.66,0,0,0-5.57,2.84c-.15.16-.57.35-.47.65l-.95-.75-.35.31a28.16,28.16,0,0,1,3.4,2.56A4.68,4.68,0,0,1,45.27,69a3.29,3.29,0,0,0-.59,2.07,3.73,3.73,0,0,0,3.06,3.67,3.79,3.79,0,0,0,4.15-2.13A3.79,3.79,0,0,0,46,68.1c-.19.16-.31.48-.65.38l-2.92-2.32c.19,0,.4,0,.65-.36a6.78,6.78,0,0,1,4.12-2.36,7.55,7.55,0,0,1,8.58,9.83C55.71,73.6,55.46,73.83,56,74.15Zm-7.61-5.42A2.25,2.25,0,0,1,50.73,71a2.22,2.22,0,0,1-2.3,2.3,2.3,2.3,0,0,1,0-4.59Z" transform="translate(-14.91 -14.91)"/><path class="cls-2" d="M39.22,98.13c.19,0,.28-.11.27-.3s0-.26-.16-.34a.92.92,0,0,0-1.4.8c0,.16,0,.32,0,.48s0,.59,0,.89.07.41.36.41.38-.14.37-.4,0-.54,0-.81S38.54,98,39.22,98.13Z" transform="translate(-14.91 -14.91)"/><path class="cls-2" d="M63.6,82.18l0,2.77c.5.24.76.13.73-.48s0-1.29,0-1.94S64.09,81.78,63.6,82.18Z" transform="translate(-14.91 -14.91)"/><path class="cls-2" d="M36.7,98.12c.22,0,.25-.13.25-.31s-.1-.31-.34-.35c-1-.16-1.15,0-1.15,1q0,.16,0,.33c0,.27,0,.54,0,.81s0,.48.37.47.33-.2.33-.43,0-.54,0-.81S36.09,98,36.7,98.12Z" transform="translate(-14.91 -14.91)"/><path class="cls-2" d="M66.72,84.69c0-.78,0-1.56,0-2.34,0-.21,0-.36-.3-.37s-.38.12-.37.39,0,.75,0,1.13,0,.81,0,1.21a.3.3,0,0,0,.35.34C66.63,85,66.72,84.92,66.72,84.69Z" transform="translate(-14.91 -14.91)"/><path class="cls-2" d="M61.94,52.23h.65c.82,0,1-.22.82-1,0-.14,0-.29-.21-.29a.22.22,0,0,0-.21.28c.1.65-.29.68-.77.64s-.81,0-1.21,0c-.6-.06-.75.43-1,.77a.24.24,0,0,0,0,.21.15.15,0,0,0,.26,0C60.62,52.06,61.31,52.25,61.94,52.23Z" transform="translate(-14.91 -14.91)"/><path class="cls-2" d="M41.17,100.08h0v0Z" transform="translate(-14.91 -14.91)"/><path class="cls-2" d="M33.73,71.12H35a.31.31,0,0,0,.35-.34c0-.24-.12-.34-.34-.34H32.36c-.24,0-.34.09-.33.33s.08.35.33.34Z" transform="translate(-14.91 -14.91)"/><path class="cls-2" d="M51,47.21a2.14,2.14,0,0,1,2.28-1,12.19,12.19,0,0,0,1.78,0c.21,0,.49.13.73-.35a22.58,22.58,0,0,1-2.74,0A2.23,2.23,0,0,0,50.69,47c-.09.13-.39.23-.17.44S50.88,47.32,51,47.21Z" transform="translate(-14.91 -14.91)"/><path class="cls-2" d="M65.18,82c-.25,0-.32.12-.32.35,0,.78,0,1.56,0,2.33,0,.21,0,.37.3.37s.38-.13.37-.4,0-.75,0-1.13,0-.75,0-1.13S65.48,82,65.18,82Z" transform="translate(-14.91 -14.91)"/><path class="cls-2" d="M62.45,82.49c0,.67,0,1.34,0,2s.27.62.71.43l0-2.76C62.75,81.88,62.44,81.79,62.45,82.49Z" transform="translate(-14.91 -14.91)"/><path class="cls-2" d="M68.34,70.48c.2.2.31.08.46-.06s.14-.31,0-.46l-1.16-1.13-.31-.3-.3.29c-.14.12-.08.24,0,.34C67.46,69.6,67.91,70,68.34,70.48Z" transform="translate(-14.91 -14.91)"/><path class="cls-2" d="M35.37,95c.39,0,.83.15,1.17-.11a.23.23,0,0,0-.2-.38c-.93.13-.71-.52-.72-1s0-.7,0-1c0-.18-.05-.33-.26-.33s-.26.16-.26.33c0,.38,0,.75,0,1.13s0,.59,0,.89S35,95,35.37,95Z" transform="translate(-14.91 -14.91)"/><path class="cls-2" d="M33.26,92.15c-.3,0-.27.19-.28.38s0,.65,0,1,0,.38,0,.57c0,1.06,0,1.09,1.07,1,.18,0,.4,0,.4-.26s-.22-.28-.4-.25c-.57.1-.6-.22-.58-.65s0-.92,0-1.37C33.48,92.35,33.49,92.18,33.26,92.15Z" transform="translate(-14.91 -14.91)"/><path class="cls-2" d="M54.75,45.27c.58,0,.93-.56,1.14-1.16a2.75,2.75,0,0,1-2.54.84c-.93-.06-1.86,0-2.79,0l0,.21c.05,0,.11.13.16.13C52.06,45.29,53.41,45.35,54.75,45.27Z" transform="translate(-14.91 -14.91)"/><path class="cls-2" d="M77,109.19c0,.43,0,.78.58.62.45.06.74,0,.71-.55s-.09-.73-.67-.71S77,108.7,77,109.19Z" transform="translate(-14.91 -14.91)"/><path class="cls-2" d="M47.8,103.38c0,.19,0,.4.28.38s.23-.18.24-.35,0-.59,0-.89c0-1.18,0-1.18-.84-1.93-.15-.13-.29-.39-.52-.13s.06.41.19.5a1.62,1.62,0,0,1,.65,1.69A5.31,5.31,0,0,0,47.8,103.38Z" transform="translate(-14.91 -14.91)"/><path class="cls-2" d="M68.27,72.26c.1.1.22.17.35,0s.18-.19.27-.28a.64.64,0,0,0-.08-.17c-.47-.48-.94-1-1.42-1.43-.18-.18-.28,0-.4.11s-.19.25,0,.4Z" transform="translate(-14.91 -14.91)"/><path class="cls-2" d="M67.63,67c-.07-.07-.16-.13-.26-.21-.11.1-.22.18-.31.28s-.07.24,0,.35l1.31,1.32c.2.21.33.06.47-.07s.12-.31,0-.46Z" transform="translate(-14.91 -14.91)"/><path class="cls-2" d="M53.21,110.89c-.43,0-.72,0-.68.59s.05.72.61.67.79,0,.65-.64C53.94,111,53.7,110.88,53.21,110.89Z" transform="translate(-14.91 -14.91)"/><path class="cls-2" d="M53.18,110c.51.11.63-.11.64-.61s-.22-.6-.67-.61-.64.13-.64.63S52.7,110.1,53.18,110Z" transform="translate(-14.91 -14.91)"/><path class="cls-2" d="M67.1,47.5h-4c-.24,0-.53,0-.41.36l4.72,0C67.71,47.44,67.35,47.5,67.1,47.5Z" transform="translate(-14.91 -14.91)"/><path class="cls-2" d="M62.68,46l4.72,0c.31-.45-.05-.39-.3-.39h-4C62.85,45.66,62.56,45.62,62.68,46Z" transform="translate(-14.91 -14.91)"/><path class="cls-2" d="M78.31,111.36c0-.5-.13-.71-.64-.61-.51-.12-.63.12-.63.6s.12.65.63.64S78.31,111.86,78.31,111.36Z" transform="translate(-14.91 -14.91)"/><path class="cls-2" d="M42.33,104.11c0,.32.08.5.44.5s.53-.07.47-.47,0-.47-.42-.46S42.32,103.73,42.33,104.11Z" transform="translate(-14.91 -14.91)"/><path class="cls-2" d="M44.22,104.13c0,.33.07.53.45.45.41.08.43-.18.44-.48s-.19-.42-.5-.43S44.23,103.87,44.22,104.13Z" transform="translate(-14.91 -14.91)"/><path class="cls-2" d="M57.53,104.92c0,.24,0,.42.34.42s.49,0,.46-.38,0-.47-.39-.47S57.52,104.61,57.53,104.92Z" transform="translate(-14.91 -14.91)"/><path class="cls-2" d="M46.58,104.61c.36,0,.45-.17.44-.49s-.07-.44-.4-.45-.51.09-.45.44S46.2,104.62,46.58,104.61Z" transform="translate(-14.91 -14.91)"/><path class="cls-2" d="M55.76,104.89c0,.31.1.43.42.44s.43-.16.39-.44-.17-.4-.45-.4S55.77,104.64,55.76,104.89Z" transform="translate(-14.91 -14.91)"/><path class="cls-2" d="M54,104.92c0,.25,0,.41.35.41s.49,0,.45-.39-.06-.45-.39-.46S54,104.63,54,104.92Z" transform="translate(-14.91 -14.91)"/><path class="cls-2" d="M60.88,103.56c.1-.09,0-.17-.06-.24a5.26,5.26,0,0,0,.47-.54c.11-.16.5-.28.17-.57s-.39.06-.5.2a1.57,1.57,0,0,1-1.42.57c-2.62,0-5.24,0-7.86,0h-.57c-.15,0-.27.05-.27.22a.23.23,0,0,0,.24.26h9.56C60.71,103.57,60.79,103.65,60.88,103.56Z" transform="translate(-14.91 -14.91)"/><path class="cls-2" d="M50.07,59l.18.06-.09-.16Z" transform="translate(-14.91 -14.91)"/><path class="cls-2" d="M64.56,42.51c0,.08.1.09.16,0A.14.14,0,0,0,64.56,42.51Z" transform="translate(-14.91 -14.91)"/><path class="cls-2" d="M48.32,49.82a.28.28,0,0,0-.17-.28Z" transform="translate(-14.91 -14.91)"/><path class="cls-2" d="M53.07,58.22h0l0-.13Z" transform="translate(-14.91 -14.91)"/><path class="cls-2" d="M63.75,104.3c0-1-.09-2,0-3a2.11,2.11,0,0,0-.79-1.83c-.14-.13-.24-.39-.51-.15s-.25.41,0,.59A1.77,1.77,0,0,1,63,101.6c0,.78,0,1.57,0,2.35,0,.63.22.79.77.53C63.82,104.42,63.87,104.37,63.75,104.3Z" transform="translate(-14.91 -14.91)"/><path class="cls-2" d="M62.61,58.61l.16,0C62.69,58.49,62.64,58.52,62.61,58.61Z" transform="translate(-14.91 -14.91)"/><path class="cls-2" d="M58.06,58.6c0-.08-.09-.11-.16,0Z" transform="translate(-14.91 -14.91)"/><path class="cls-2" d="M67.19,41.35l-.19.16C67.12,41.52,67.17,41.45,67.19,41.35Z" transform="translate(-14.91 -14.91)"/><path class="cls-2" d="M69.94,41.81l-.17,0C69.84,42,69.89,41.91,69.94,41.81Z" transform="translate(-14.91 -14.91)"/><path class="cls-2" d="M45.57,81.45l.16-.12c-.06-.09-.14-.14-.23-.06S45.55,81.38,45.57,81.45Z" transform="translate(-14.91 -14.91)"/><path class="cls-6" d="M48.43,73.31a2.22,2.22,0,0,0,2.3-2.3,2.28,2.28,0,1,0-2.3,2.3Z" transform="translate(-14.91 -14.91)"/><path class="cls-6" d="M144.21,82.27h0l.48-.33a6.84,6.84,0,0,0-.52-.85c-1-1.33-2-2.76-2.88-4.14-.81-1.21-1.64-2.46-2.52-3.66a4,4,0,0,1-.52-4.53,7.43,7.43,0,0,0,.29-6c-1.06-3-2.09-6.14-3-9a22,22,0,0,0-5-8.74c-5.19-5.35-11.8-8.38-20.21-9.26A54,54,0,0,0,91.89,37.1,22.67,22.67,0,0,0,84,40.38l-.67.48-.07.05.79.45a.53.53,0,0,1,.14.18l.1.17.19.07a2.23,2.23,0,0,1,.26.13l.26.13.28.13.06,0,.2-.12.35-.18.09,0,.71-.39,0,0a15.2,15.2,0,0,1,2.87-1.24,52.91,52.91,0,0,1,19.34-2.26A32.33,32.33,0,0,1,123,42c5,2.86,8.24,6.53,9.94,11.22.39,1.08.73,2.21,1.06,3.3a45.76,45.76,0,0,0,1.71,4.94c1.25,2.87,1.3,5.15.17,7.39a4.83,4.83,0,0,0,.59,5q1.74,2.6,3.49,5.18c.33.48.66,1,1,1.43.6.85,1.22,1.73,1.78,2.62s.48,1.57-.51,2.32a5.76,5.76,0,0,1-1.92.91,3.38,3.38,0,0,0-2.29,1.5,3.52,3.52,0,0,0,.18,2.85,2.12,2.12,0,0,0,.14.35,1.13,1.13,0,0,1-.28,1.47c-.35.37-.73.71-1.12,1.06l-1,.93.81.7c.7.58.72.68.26,1.49l-.08.14a3.83,3.83,0,0,1-.3.48,4.36,4.36,0,0,0-.61,4.43,5.05,5.05,0,0,1-2.71,6.3,13,13,0,0,1-4.48.84l-.79,0a32.18,32.18,0,0,0-5.78.53c-2.85.61-4,2-4,4.91,0,.45,0,.89.05,1.34.1,1.37.19,2.75.27,4.12.12,2.05.25,4.17.45,6.26.24,2.51.45,5,.66,7.53l.09,1h2.26c-.35-3.76-.69-7.51-1-11.37-.25-3.17-.5-6.44-.53-9.67a1.48,1.48,0,0,1,1-1.5,8.65,8.65,0,0,1,2.72-.7c1-.12,2.07-.15,3.09-.18a29.88,29.88,0,0,0,3.89-.29c2.23-.36,4.71-1.06,6.19-3.55a7.67,7.67,0,0,0,.62-6.74,1.82,1.82,0,0,1,.18-1.67l.17-.28c.32-.52.64-1,.9-1.59a2.18,2.18,0,0,0-.15-2.45,1,1,0,0,1,.16-.17,3.6,3.6,0,0,0,1-4.64c0-.11-.08-.22-.12-.34a1.55,1.55,0,0,1-.12-.61s.09-.1.64-.29a10,10,0,0,0,2.91-1.35A3.7,3.7,0,0,0,144.72,82Z" transform="translate(-14.91 -14.91)"/><rect class="cls-2" x="41.67" y="91.81" width="6.03" height="4.02"/><rect class="cls-2" x="43.98" y="71.42" width="7.17" height="0.87"/><rect class="cls-2" x="42.54" y="29.21" width="3.56" height="2.55"/><rect class="cls-2" x="22.77" y="36.97" width="1.32" height="6.85"/><rect class="cls-2" x="27.18" y="34.92" width="0.48" height="7.18"/><rect class="cls-2" x="29.19" y="34.92" width="0.48" height="7.18"/></svg>