<svg id="Layer_1" data-name="Layer 1" xmlns="http://www.w3.org/2000/svg" viewBox="0 0 127.17 35.37"><defs><style>.cls-1{fill:#555658;}</style></defs><title>podpis_reflektovano</title><path class="cls-1" d="M83.28,29.18a4.12,4.12,0,0,1,.53,2.39q0,1.84-1.37,2.24t-3-1.23q-.5-.45-1.41-1.42a13.92,13.92,0,0,0-1.22-1.21,4.2,4.2,0,0,1,0,1.71,2.57,2.57,0,0,1-2,2.22q-2.93.74-5.61-2.44a9.2,9.2,0,0,1-1.12-1.35q-.27-.47.07-.66.14-.07.85.48l.73.58.89.67q1.87,1.53,3.26,1.2a1.7,1.7,0,0,0,1.39-1.26A3.22,3.22,0,0,0,75,29.18,7.41,7.41,0,0,0,73.68,27a9.85,9.85,0,0,1-.73-.86q-.17-.4.38-.86a2.63,2.63,0,0,1,1.26-.7q.68-.09,1,.89A15.23,15.23,0,0,0,78,29.58a10,10,0,0,0,1.78,1.91q.95.72,1.54.39a1.27,1.27,0,0,0,.55-1.46,4.88,4.88,0,0,0-1.18-2.27Q79,26.09,78.92,26a2.09,2.09,0,0,1-.36-.83.71.71,0,0,1,.28-.66A1.19,1.19,0,0,1,80,24.12,2,2,0,0,1,81,25.31Q82.72,28.35,83.28,29.18Z" transform="translate(-21.45 -10.66)"/><path class="cls-1" d="M62.61,24.19q0-.17,1.43.4A12.74,12.74,0,0,1,66.73,26q3.08,2.24,3.11,5a3.48,3.48,0,0,1-.64,2.23,2.53,2.53,0,0,1-2.14,1A8.59,8.59,0,0,1,65.59,34q-.5-.11-.61.79.2,1.38.31,2.37a5.51,5.51,0,0,1-.06,1.34c-.09.58-.08.94-.14,1.05-.2.39-.91,0-1-.68s-.17-1.51-.33-2.35a10,10,0,0,1-.2-1.43,35.39,35.39,0,0,0-1-4.65,55,55,0,0,0-6.44-16.25q-.1-1.19-.1-1.69a2.5,2.5,0,0,1,.49-1.77q.32-.32,1,.86.22.36.52.95l.35.67q.1.16,1.39,3.17Q62.61,22.84,62.61,24.19Zm4.26,4a6.83,6.83,0,0,0-3.5-1.68,17.76,17.76,0,0,1,1.2,3.71,21.59,21.59,0,0,0,.51,2.14,2.68,2.68,0,0,0,1.68-.4,2.21,2.21,0,0,0,1-1.83A2.78,2.78,0,0,0,66.87,28.15Z" transform="translate(-21.45 -10.66)"/><path class="cls-1" d="M93,29.23a9.67,9.67,0,0,1-1.76,2.61,6.26,6.26,0,0,1-2.28,1.4,4.89,4.89,0,0,1-2.39.33,2.07,2.07,0,0,1-1.37-.66q-1-1.23,0-1.73a1.59,1.59,0,0,1,1.24,0,7.14,7.14,0,0,1,1.05.54L88,32a5,5,0,0,0,.57.34.94.94,0,0,0,1.17-.12,13.94,13.94,0,0,0,1.85-3q.42-.86,1.54-3.88.63-1.73,1.29-1.88C94.87,23.35,93.27,28.66,93,29.23Z" transform="translate(-21.45 -10.66)"/><path class="cls-1" d="M87.57,18.36q0,2.37,2.7,4.31a11,11,0,0,0,2.32,1.24q1.24.5,1.24.35,0,1.17,2.4,6.78,1.12,2.61,1.21,2.74l.3.58q.26.51.45.82.6,1,.88.75a2.16,2.16,0,0,0,.42-1.54q0-.43-.08-1.46a47.66,47.66,0,0,1-5.58-14.08,11.09,11.09,0,0,1-.3-4c0-.2-1.92-.81-2.13-.18-.41.49.14,1.16-.14,1.1A7.44,7.44,0,0,0,90,15.59a2.19,2.19,0,0,0-1.85.84A3,3,0,0,0,87.57,18.36Zm1.76.79a1.92,1.92,0,0,1,.9-1.58,2.32,2.32,0,0,1,1.45-.35,18.71,18.71,0,0,1,.44,1.85,15.39,15.39,0,0,0,1,3.21,5.92,5.92,0,0,1-3-1.45A2.41,2.41,0,0,1,89.33,19.15Z" transform="translate(-21.45 -10.66)"/><path class="cls-1" d="M60.29,29.84q.89,2.36-.5,3.5a2.67,2.67,0,0,1-2.19.44A6.46,6.46,0,0,1,55,32.72a7,7,0,0,1-2.07-2,3.28,3.28,0,0,1-.62-2.39q.34-2,1.22-2.39a.88.88,0,0,1,.81,0q-3.66.14-4.55.14A5.36,5.36,0,0,1,48,25.81q-.41-.15-.36-.3t.78-.38a14.57,14.57,0,0,1,3.73-.27q3.16.09,3.53.05,1.92-.14,2.41-.22a1.76,1.76,0,0,0,1.06-.51c.23-.3-1,1.76-1.59,1.85a5.15,5.15,0,0,0-2.08.58,4.06,4.06,0,0,0-1.31,1.25A1.92,1.92,0,0,0,54,29.68a3.88,3.88,0,0,0,1.63,1.82,2.54,2.54,0,0,0,2.24.41q1-.37,1-1a1.74,1.74,0,0,0-.79-1.1,4.08,4.08,0,0,1-1.05-1,1,1,0,0,1,.23-1.22,1,1,0,0,1,1.12-.4,1.53,1.53,0,0,1,.72.54A8.79,8.79,0,0,1,60.29,29.84Z" transform="translate(-21.45 -10.66)"/><path class="cls-1" d="M47.34,33.67a11.82,11.82,0,0,1-6.43-6.26,14.3,14.3,0,0,1-1-3,7.44,7.44,0,0,1-.22-1.37.59.59,0,0,1,.15-.38.34.34,0,0,1,.32-.15q.2,0,.29.35a1.2,1.2,0,0,1,0,.31A9,9,0,0,0,43,28.37a8.81,8.81,0,0,0,3.84,2.69q.5.15.53-.12a.42.42,0,0,0-.07-.29q-.82-3.11-1.51-5.09a5.41,5.41,0,0,1-.32-1.26q0-.2.43-.34a1.4,1.4,0,0,1,.61-.1A1.09,1.09,0,0,1,47,24q.24.14.18.32a8.43,8.43,0,0,0,.68,3q.3.89,1.91,4.93a.59.59,0,0,1-.11.57,2.18,2.18,0,0,1-2.29.79Z" transform="translate(-21.45 -10.66)"/><path class="cls-1" d="M40.76,31.37a2.46,2.46,0,0,1-.57,1.51,3.27,3.27,0,0,1-1.53.72,5.14,5.14,0,0,1-5.39-1.66,4.72,4.72,0,0,1-1.44-1.87q-.06-.27,0-.35t.3.06a23,23,0,0,0,2.68,2,4.07,4.07,0,0,0,2.82.49,1.43,1.43,0,0,0,1.25-1.36,5.32,5.32,0,0,0-.47-2.05A19.67,19.67,0,0,0,37,26.18a6.28,6.28,0,0,0-.41-.61,2.53,2.53,0,0,1-.28-.4.48.48,0,0,1,0-.37,1.76,1.76,0,0,1,.38-.5q.7-.7,1.17-.33a3.76,3.76,0,0,1,.71,1.16q.1.2.44,1l.44,1Q40.85,30.34,40.76,31.37ZM36.2,22.16q-.48.15-1.32-.63a2.16,2.16,0,0,1-.07-.62.83.83,0,0,1,.48-.56,1.74,1.74,0,0,1,1.14-.21.72.72,0,0,1,.67.8A1.16,1.16,0,0,1,36.2,22.16Z" transform="translate(-21.45 -10.66)"/><path class="cls-1" d="M33.46,30.72q.34,1.81-.9,2.43-2.11,1.07-5.81.28A13.81,13.81,0,0,1,22,31.65q-.56-.38-.57-.67t.44-.28l.74.45a11.16,11.16,0,0,0,2.62,1,10.72,10.72,0,0,0,3.8.37q1.93-.21,2.11-1.36a4.43,4.43,0,0,0-.88-2.54A17.23,17.23,0,0,0,28.5,26a2.69,2.69,0,0,0-1-.71q-.67-.3-.91.12a1.4,1.4,0,0,0-.09.87,1.33,1.33,0,0,1,0,.75q-.14.19-.83,0a2.85,2.85,0,0,1-.86-.29q-.38-.22-.39-1.14a1.75,1.75,0,0,1,.34-1.24,1.82,1.82,0,0,1,1.31-.34,4.46,4.46,0,0,1,1.36.26,11.22,11.22,0,0,1,2.68,1.3,9.48,9.48,0,0,1,2.41,2.73A6.7,6.7,0,0,1,33.46,30.72Z" transform="translate(-21.45 -10.66)"/><path class="cls-1" d="M131.61,26.1q.26-.13.27,0a2,2,0,0,1,.7-1.81q1-.81,2.52.25a24.1,24.1,0,0,1,2.05,1.92,9.46,9.46,0,0,1,2.3,2.93,6.65,6.65,0,0,1,.3,2.82q-.17,1.27-.92,1.44a1.55,1.55,0,0,1-1.14-.1,12.38,12.38,0,0,1-1.38-1.13A12.84,12.84,0,0,1,134,29.56a18.32,18.32,0,0,1-1.06-2q-.23,0-.35.45a1.4,1.4,0,0,0,.45,1.12,16.35,16.35,0,0,0,2.69,4.15,27.4,27.4,0,0,1,4.38,6.79,9.09,9.09,0,0,1,.53,2.41,7.63,7.63,0,0,1,0,2.53q-.48,1.9-2.42.31a10.87,10.87,0,0,1-2.52-2.95,24.84,24.84,0,0,1-3.39-9.2q-.37-2.71-.39-2.75a2.12,2.12,0,0,0-1.77-1,3.79,3.79,0,0,1-2-.65,5.32,5.32,0,0,0-.58-.49l-.54-.39q-.23-.18-.21-.27t.43-.1a6.64,6.64,0,0,1,1.76.33,9.75,9.75,0,0,0,1.26.35h.45q.09-1.39.12-1.48A1.9,1.9,0,0,1,131.61,26.1Zm2,7.17a27.91,27.91,0,0,0,.62,2.81,24.7,24.7,0,0,0,2.47,5.05A8.77,8.77,0,0,0,138,42.75q1.11,1,.79-.39a17.62,17.62,0,0,0-3.3-7.07A14.65,14.65,0,0,0,133.57,33.27Zm3.93-4a10,10,0,0,0-3.7-2.58,12,12,0,0,0,.9,1.58q.21.29,1.62,2.69a1.49,1.49,0,0,0,1,.83.8.8,0,0,0,.49-.1,1.1,1.1,0,0,0,.33-.63A2.18,2.18,0,0,0,137.5,29.23Z" transform="translate(-21.45 -10.66)"/><path class="cls-1" d="M120.35,26.1q.26-.13.27,0a2,2,0,0,1,.7-1.81q1-.81,2.52.25a24.1,24.1,0,0,1,2.05,1.92,9.46,9.46,0,0,1,2.3,2.93,6.65,6.65,0,0,1,.3,2.82q-.17,1.27-.92,1.44a1.55,1.55,0,0,1-1.14-.1A12.38,12.38,0,0,1,125,32.37a12.84,12.84,0,0,1-2.35-2.81,18.32,18.32,0,0,1-1.06-2q-.23,0-.35.45a1.4,1.4,0,0,0,.45,1.12,16.35,16.35,0,0,0,2.69,4.15,27.4,27.4,0,0,1,4.38,6.79,9.09,9.09,0,0,1,.53,2.41,7.63,7.63,0,0,1,0,2.53q-.48,1.9-2.42.31a10.87,10.87,0,0,1-2.52-2.95,24.84,24.84,0,0,1-3.39-9.2q-.37-2.71-.39-2.75a2.12,2.12,0,0,0-1.77-1,3.79,3.79,0,0,1-2-.65,5.32,5.32,0,0,0-.58-.49l-.54-.39q-.23-.18-.21-.27t.43-.1a6.64,6.64,0,0,1,1.76.33,9.75,9.75,0,0,0,1.26.35h.45q.09-1.39.12-1.48A1.9,1.9,0,0,1,120.35,26.1Zm2,7.17a27.91,27.91,0,0,0,.62,2.81,24.7,24.7,0,0,0,2.47,5.05,8.77,8.77,0,0,0,1.39,1.62q1.11,1,.79-.39a17.62,17.62,0,0,0-3.3-7.07A14.65,14.65,0,0,0,122.3,33.27Zm3.93-4a10,10,0,0,0-3.7-2.58,12,12,0,0,0,.9,1.58q.21.29,1.62,2.69a1.49,1.49,0,0,0,1,.83.8.8,0,0,0,.49-.1,1.1,1.1,0,0,0,.33-.63A2.18,2.18,0,0,0,126.23,29.23Z" transform="translate(-21.45 -10.66)"/><path class="cls-1" d="M117.56,31.28a2.5,2.5,0,0,1-.58,1.53,3.32,3.32,0,0,1-1.55.73,5.23,5.23,0,0,1-5.48-1.68,4.79,4.79,0,0,1-1.47-1.9q-.07-.27,0-.36t.3.07a23.39,23.39,0,0,0,2.72,2,4.14,4.14,0,0,0,2.86.5,1.45,1.45,0,0,0,1.27-1.38,5.4,5.4,0,0,0-.48-2.08,20,20,0,0,0-1.47-2.7,6.38,6.38,0,0,0-.42-.62A2.57,2.57,0,0,1,113,25a.49.49,0,0,1,0-.38,1.78,1.78,0,0,1,.39-.51q.71-.71,1.19-.34a3.83,3.83,0,0,1,.72,1.18q.1.21.44,1t.44,1.06Q117.66,30.23,117.56,31.28Zm-4.63-9.36q-.49.15-1.34-.64a2.19,2.19,0,0,1-.08-.63.85.85,0,0,1,.49-.57,1.77,1.77,0,0,1,1.16-.22.73.73,0,0,1,.68.81A1.17,1.17,0,0,1,112.93,21.92Z" transform="translate(-21.45 -10.66)"/><path class="cls-1" d="M147.61,24.17q1.69,5.3.56,8.11A1.8,1.8,0,0,1,146,33.6a6,6,0,0,1-3.08-2,16.12,16.12,0,0,1-2.83-4.32,14.94,14.94,0,0,1-1.4-5.41c0-.69-.13-2.06-.09-3.3a3.4,3.4,0,0,1,.79-1.9,6.24,6.24,0,0,1,3.15-1.32c2.56-.48,5.56-.78,5.56-.18,0,1.33-.59,2.24-1.34,2.14a25.49,25.49,0,0,0-4.38-.14,1.9,1.9,0,0,0-1.3.58,4.21,4.21,0,0,0-1,2.59,10.85,10.85,0,0,0,.66,4.53,10.2,10.2,0,0,0,2,4.06c1,1.07,2.78,3,3.4,2.32s.57-3.43.41-4.39a5.87,5.87,0,0,0-.8-2.78,16.55,16.55,0,0,1-1.9-2.63,2.42,2.42,0,0,1-.2-2q.36-1.49,1.06-1.09a2.59,2.59,0,0,1,.94,1.14A32.38,32.38,0,0,1,147.61,24.17Z" transform="translate(-21.45 -10.66)"/></svg>