<svg id="Layer_1" data-name="Layer 1" xmlns="http://www.w3.org/2000/svg" viewBox="0 0 140.27 140.27"><defs><style>.cls-1{opacity:0.2;}.cls-2{fill:#eee;}.cls-3{fill:#555658;}.cls-4{fill:none;}.cls-5{fill:#333;}.cls-6,.cls-7{fill:#575757;}.cls-6{stroke:#555658;stroke-miterlimit:10;stroke-width:0.28px;}.cls-8{fill:#666;}.cls-9{fill:#d86943;}</style></defs><title>project_opp</title><g class="cls-1"><circle class="cls-2" cx="70.13" cy="70.13" r="69"/><path class="cls-3" d="M85,155.17A70.13,70.13,0,1,1,155.17,85,70.21,70.21,0,0,1,85,155.17Zm0-138A67.87,67.87,0,1,0,152.91,85,67.94,67.94,0,0,0,85,17.17Z" transform="translate(-14.91 -14.91)"/><path class="cls-4" d="M86.1,74.19a1.45,1.45,0,0,1-.6-.42A1.44,1.44,0,0,0,86.1,74.19Z" transform="translate(-14.91 -14.91)"/><path class="cls-5" d="M71.94,55.73l0,0,0,0h-.08l0,0Z" transform="translate(-14.91 -14.91)"/><path class="cls-6" d="M79.09,137.24c1.83.45,3.71.67,5.57,1h2.67a6.7,6.7,0,0,1,.81-.21c7-.94,13.36-3.51,18.46-8.33a35.68,35.68,0,0,0,11.4-22,33.21,33.21,0,0,0-2.92-18.4,76,76,0,0,0-5.57-9.47c-3.42-5.2-5.81-10.68-5.77-17a6.28,6.28,0,0,0-2.83-5.33c2.15,3.88,2.21,3.88,2.2,5.85a24,24,0,0,0,3.26,12.27c2.1,3.68,4.32,7.29,6.47,10.94a33.51,33.51,0,0,1,4.79,17.29,34.5,34.5,0,0,1-4.29,16c-2.62,5.06-6.15,9.3-11.7,11.49-1.11.44-2,1.47-3.06,2A27.43,27.43,0,0,1,85,136.82l1.17.48c-2.79.37-5.18-.72-7.67-1.32-3.69-.89-6.9-2.85-10.15-4.67a24.53,24.53,0,0,1-4.06-3.18c-1.83-1.62-3.9-3.11-5.32-5.05a31.22,31.22,0,0,1-5.21-27.87c1.37-5,4.05-9.49,6.36-14.09,2.68-5.33,4.82-10.76,4.4-16.89A6.85,6.85,0,0,1,66,59.49c.81-1.06,1.5-2.2,2.32-3.25a1.71,1.71,0,0,1,1.09-.63,18.88,18.88,0,0,1,2.43.11c-.85-.78-3-.85-3.74,0-2.53,2.85-4.61,5.82-4.17,10a19.56,19.56,0,0,1-2.31,10.65c-1.8,3.69-3.73,7.33-5.6,11-4.42,8.66-5.59,17.7-2.46,27C57.75,126.64,66.52,134.13,79.09,137.24Z" transform="translate(-14.91 -14.91)"/><polygon class="cls-7" points="64.17 55.46 64.2 55.43 64.17 55.46 64.17 55.46"/><path class="cls-7" d="M69.63,32.58c.6.06,1.2.09,2,.15q0,5.26,0,10.31l2.87.33.09.32-1.41,1.16c1.86,1,4,.13,5.51,1-.3,1.18-.51,2.34-.9,3.44a5.28,5.28,0,0,0,.31,3.54l-.95.29c0,.49-.05,1-.08,1-1.35,0-2.71,0-4.05-.05-.2,0-.51-.53-.52-.83-.1-2.24-.11-4.48-.24-6.72a1.23,1.23,0,0,0-.8-.86,5.37,5.37,0,0,0-1.92.12.89.89,0,0,0-.55.64c0,2.61,0,5.23,0,7.65a36.53,36.53,0,0,0,4.14.79c1.6.12,3.23,0,4.84,0a14.56,14.56,0,0,1,1.58.2c-1.38,1-3.07-.13-4.29,1.33l2.53.2.19,1.55c.79-.21,0-1.86,1.52-1.51l.21,1.63.35-.5,2.31.34c0,.69,0,1.45,0,2.21h.1l.18-1.75.27,0c0,3.28,0,6.56,0,9.77l-.31-.51c0,2.41-.62,3.09-2.7,3.1q0-3.66,0-7.34a49.22,49.22,0,0,0-.3,5.92c0,.27-.27.53-.44.79h0c-.19.36.83,1.21-.26,1.09,0,1.11.09,2.18,0,3.23-.18,1.83-.5,3.65-.71,5.48,0,.37,0,1,.23,1.12,1.15.54.7,1.37.48,2.14-.25.93-.57,1.85-.86,2.77-1.76,5.6-3.5,11.22-5.32,16.81-.64,2-1.47,3.89-2.27,5.81-.48,1.14-.56,1.77,0,2.38a4.38,4.38,0,0,0,.26-.53q1.49-4.59,3-9.18C75.4,96,77.27,90.53,78.9,85a41.75,41.75,0,0,0,.94-6.47c0-.26-.17-.54-.17-.8a4.06,4.06,0,0,1,.17-1.87c.25-.42,1-.54,1.75-.9a9.34,9.34,0,0,0-.84-1.62,1.25,1.25,0,0,1,.32-2.06,10.4,10.4,0,0,1,1.33-.55l-.56,1.13.5.2,1.07.06c2,1.16-.4,2-.34,2.79.52-.21,1-.6,1.47-.56.73.06,1.6,0,1.89,1.08a2.49,2.49,0,0,1-1.31,3c1.36-.33,1.83-1,1.79-2.08a16.22,16.22,0,0,1,.15-1.93l-.52-.12a3.74,3.74,0,0,1-.44-.15,1.44,1.44,0,0,1-.6-.42,1.72,1.72,0,0,1-.31-.71A7.94,7.94,0,0,1,85,71.9l-1-.1L86,70.7l-.16-.51L83.37,70c0-3.85,0-7.9,0-11.7l2.5-.92c0,1.09,0,2.4,0,3.7,0,1.89-.17,3.78-.11,5.66a16.18,16.18,0,0,0,.36,2.83c0-3.54,0-7.07,0-10.61,0-.28.46-.66.78-.79a2.83,2.83,0,0,1,1-.12l.56-1.85.45.09.17,1.1.53-.86a7.61,7.61,0,0,1,.29,1.35c0,3.51-.15,7-.06,10.51a3,3,0,0,1-1,2.76l-3.22,1.91s.36.41.49.35c.79-.34,1.54-.77,2.3-1.17l-.15-.3,1.2.49-1,.24,0,.24,1,.35L90,75l0,0a6.22,6.22,0,0,1,1.21,4.39c.6-1.71-.08-3.21-.71-4.72a6.22,6.22,0,0,1-.41-3.49c.38-2.42.69-4.85.83-7.29A56.9,56.9,0,0,0,90.76,58c0-.71.15-1,.92-1,1.79-.06,3.57-.24,5.41-.38-.19-.91-.9-.78-1.52-.78H84.69v-.42c1,0,2,0,2.93,0,2.06-.11,4.11-.29,6.16-.42.56,0,1.12,0,1.69,0C93.29,54.71,91,55,89,54.16l.06-.43,1.36-.09.22-.37L89.54,52.2l-.37-3.78.17,0L88.43,47l1.2.45a1.58,1.58,0,0,0-.27-.73,2.21,2.21,0,0,1-.3-1.17c.05-.2.67-.28,1-.34a7,7,0,0,1,1.09,0h4.67c-1.53-2.81-4.41-1.48-6.26-2.1-1.65-2.52-1.45-5.27-2.41-7.74a1.2,1.2,0,0,0,.6-1.82c-.11-.23-.15-.66,0-.8.85-.87.1-1.22-.51-1.6a2.7,2.7,0,0,0-.18-3.54c.57,0,1-.08,1.43-.09s1,0,1.46,0l-.55-1.17c2-.28,2.24-.15,2.76,1.28h3c-.47-1-1-1.71-2.18-1.67a5,5,0,0,1-1.65-.18c-.86-.26-1.68-.65-2.18-.85-.6-.42-.89-.8-1.21-.82-1.76-.13-3.54-.23-5.3-.21a4.8,4.8,0,0,0-2.57.5c-1.36,1-2.89.85-4.36,1.13a1.63,1.63,0,0,0-.59.12c-.76.51-1.84.74-1.9,2,2.26.19,4.52-.58,6.61.87-.21.78-.45,1.59-.66,2.42-.14.54-.25,1.09-.34,1.63a24.63,24.63,0,0,1-.44,2.63c-.08.3-.59.5-.93.69a4.14,4.14,0,0,1-.78.26l0,.22,2-.25-1.3,1.67c.93.94-.12,1.71-.16,2.22l1.55,1.73L77,42.07l2.15.43,0,.44c-1.35,0-2.7,0-4,0-.22,0-.42-.46-.62-.7l.74-.57c-1.41-1.87-.8-4.17-.89-6.36-.07-1.77.11-3.54.14-5.32,0-.91-.27-1.7-1.36-1.76s-1.5.38-1.51,1.63c0,.31,0,.61-.05,1H69.61c-.62,0-1.21-.09-1.22.87S69.06,32.52,69.63,32.58Z" transform="translate(-14.91 -14.91)"/><path class="cls-7" d="M87.5,71.47l.36-.48-1.35-1.15-.32.09c0,.17.06.34.1.51C86.4,70.87,87.08,71.14,87.5,71.47Z" transform="translate(-14.91 -14.91)"/><path class="cls-7" d="M87.1,74.47h0Z" transform="translate(-14.91 -14.91)"/><path class="cls-8" d="M83.1,95c.18-.26.52-.52.52-.78,0-1.87,0-3.74,0-5.61H83.5l-.14.55c-.49-2.13.65-4.39-.29-6.49l-.31,0q0,6.06,0,12.11Z" transform="translate(-14.91 -14.91)"/><path class="cls-8" d="M78.55,60.74a3.3,3.3,0,0,0-.47-1.06l-.37.18a2.14,2.14,0,0,1,.18.53,5.64,5.64,0,0,1,0,1.17c0,.32-.31.64-.29.95.17,1.82.49,3.63.57,5.45,0,.94-.05,1.82.89,2.36-.08-.62-.2-1.23-.23-1.85C78.73,65.89,78.67,63.31,78.55,60.74Z" transform="translate(-14.91 -14.91)"/><path class="cls-8" d="M79.06,70.31v.06h0l0,0h0Z" transform="translate(-14.91 -14.91)"/><path class="cls-9" d="M96.52,110.55a20.46,20.46,0,0,0,3.94-1.21,13.42,13.42,0,0,0-3.76.07c-1.83.52-3.62,1.89-5.44,2.17s-3.46-.37-5.19-.71a29.68,29.68,0,0,1-3-.9l-.07,1c2.79.5,5.57,1.34,8.36,1.39C93.08,112.34,94.79,111.07,96.52,110.55Z" transform="translate(-14.91 -14.91)"/><path class="cls-8" d="M84.13,95.62a4.21,4.21,0,0,0-.84.43c.28.22.55.62.84.63a29.92,29.92,0,0,0,3.85,0c.37,0,.95-.47,1-.78s-.43-.74-.68-1.12c-.07,1.14-.43,1.69-1.22,1.66-.22-.45-.29-.81-.5-1A6.36,6.36,0,0,0,85.32,95C85.28,95.84,84.59,95.5,84.13,95.62Z" transform="translate(-14.91 -14.91)"/><path class="cls-9" d="M83.17,111c-4.09-1.12-8.38,2.36-12.34-1H83.21Z" transform="translate(-14.91 -14.91)"/><path class="cls-8" d="M71.9,55.75a2.74,2.74,0,0,0-.4.19c-.34.22-.68.46-1,.69.4.17.81.5,1.2.47,1-.07,2.06-.3,3.07-.46l.1-.88H71.9l0,0Z" transform="translate(-14.91 -14.91)"/><path class="cls-7" d="M98.64,53l.45,1.54c.08-.07.19-.12.19-.17,0-2.49.08-5,.08-7.46,0-.2-.35-.41-.65-.73a22.15,22.15,0,0,1,0,3.7C98.46,51,100,52.1,98.64,53Z" transform="translate(-14.91 -14.91)"/><path class="cls-7" d="M97.92,32.52a6.39,6.39,0,0,0,1.64,0c.18-1.29-.08-1.55-1.63-1.39-.31,0-.59.35-.88.53C97.34,32,97.58,32.43,97.92,32.52Z" transform="translate(-14.91 -14.91)"/><path class="cls-8" d="M82.62,75l.79-2.86-1.07-.06A2.53,2.53,0,0,0,82.62,75Z" transform="translate(-14.91 -14.91)"/><path class="cls-8" d="M82.11,95.36c-.11-.17-.73-.11-1.06,0s-.42.4-.62.61a3.64,3.64,0,0,0,.7.54,11.94,11.94,0,0,0,1.41.42A5.45,5.45,0,0,0,82.11,95.36Z" transform="translate(-14.91 -14.91)"/><path class="cls-7" d="M96.53,43.11q0-2.6,0-5.2h-.15v5.15Z" transform="translate(-14.91 -14.91)"/><path class="cls-8" d="M86.27,82l-3,.22C84.43,83.33,85.73,83.25,86.27,82Z" transform="translate(-14.91 -14.91)"/><path class="cls-8" d="M84.52,78.12c-1.41-.24-1.63-1.11-1.41-2.3l-.44.1.24,2.84Z" transform="translate(-14.91 -14.91)"/><path class="cls-8" d="M86.51,87.11H86.4q0,3.69,0,7.39h.11Q86.51,90.81,86.51,87.11Z" transform="translate(-14.91 -14.91)"/><path class="cls-8" d="M64.71,70.62h.12q0-3.48,0-7h-.12Q64.71,67.14,64.71,70.62Z" transform="translate(-14.91 -14.91)"/><path class="cls-8" d="M89.48,73.29l-1-.35,0-.24,1-.24L88.31,72l.15.3c-.76.4-1.51.84-2.3,1.17-.13.06-.45-.32-.49-.35l3.22-1.91a3,3,0,0,0,1-2.76c-.09-3.5,0-7,.06-10.51a7.61,7.61,0,0,0-.29-1.35l-.53.86-.17-1.1-.45-.09-.56,1.85a2.83,2.83,0,0,0-1,.12c-.33.14-.78.52-.78.79,0,3.54,0,7.07,0,10.61a16.18,16.18,0,0,1-.36-2.83c-.05-1.88.08-3.77.11-5.66,0-1.31,0-2.62,0-3.7l-2.5.92c0,3.8,0,7.85,0,11.7l2.45.19.16.51-1.9,1.1,1,.1a7.94,7.94,0,0,0,.14,1.16,1.72,1.72,0,0,0,.31.71,1.45,1.45,0,0,0,.6.42,3.74,3.74,0,0,0,.44.15l.52.12h0v0a5.52,5.52,0,0,1,.94.31c.23.12.39.5.6.52,1.25.11,1,.93,1,1.76a20.64,20.64,0,0,0-.08,4.07,17.91,17.91,0,0,0,1.21,4.53c3.31,7.78,6.71,15.52,10.09,23.27a7.23,7.23,0,0,0,.36.65l.31-.08a3.05,3.05,0,0,0-.16-.89c-.56-1.1-1.26-2.13-1.75-3.26q-2.82-6.54-5.52-13.13c-1.26-3.05-2.52-6.11-3.65-9.21a7.9,7.9,0,0,1,0-2.55c0-.56-.29-1.34,0-1.63.8-.92.26-1.7,0-2.54L90,74.93l0,0Zm-3-3.44L87.86,71l-.36.48c-.42-.34-1.1-.61-1.21-1,0-.17-.07-.34-.1-.51Z" transform="translate(-14.91 -14.91)"/></g></svg>