<?xml version="1.0" encoding="utf-8"?>
<!-- Generator: Adobe Illustrator 21.0.2, SVG Export Plug-In . SVG Version: 6.00 Build 0)  -->
<svg version="1.1" id="Layer_1" xmlns="http://www.w3.org/2000/svg" xmlns:xlink="http://www.w3.org/1999/xlink" x="0px" y="0px"
	 viewBox="0 0 684 492" style="enable-background:new 0 0 684 492;" xml:space="preserve">
<style type="text/css">
	.st0{fill:#395442;}
	.st1{fill-rule:evenodd;clip-rule:evenodd;fill:#395342;}
	.st2{fill:#92BB5D;}
	.st3{fill:#94BC5D;stroke:#94BC5D;stroke-width:0.5669;stroke-miterlimit:10;}
</style>
<g>
	<path class="st0" d="M20.8,441.2c-0.2-0.2-0.4-0.5-0.4-0.9c0-0.4,0.1-0.7,0.4-0.9c0.2-0.2,0.5-0.4,0.9-0.4h11.6
		c0.4,0,0.7,0.1,0.9,0.4c0.2,0.2,0.4,0.5,0.4,0.9c0,0.3-0.1,0.6-0.3,0.8l-10.6,14.5h9.8c0.4,0,0.7,0.1,0.9,0.4s0.4,0.6,0.4,0.9
		c0,0.4-0.1,0.7-0.4,0.9c-0.3,0.3-0.6,0.4-0.9,0.4H21.1c-0.4,0-0.7-0.1-0.9-0.4c-0.2-0.2-0.4-0.5-0.4-0.9c0-0.3,0.1-0.6,0.3-0.8
		l10.7-14.6h-9.1C21.3,441.6,21,441.5,20.8,441.2z"/>
	<path class="st0" d="M45,441c-2,0-3.7,0.7-4.9,2.2c-0.4,0.4-0.7,0.6-1.1,0.6c-0.3,0-0.6-0.1-0.9-0.4c-0.2-0.2-0.4-0.5-0.4-0.9
		c0-0.3,0.1-0.5,0.2-0.7c1.4-2.2,3.8-3.4,7-3.4c2.4,0,4.3,0.7,5.6,2c1.3,1.3,2,3.1,2,5.3v11.7c0,0.4-0.1,0.7-0.4,0.9
		c-0.3,0.3-0.6,0.4-0.9,0.4c-0.4,0-0.7-0.1-0.9-0.4s-0.4-0.6-0.4-0.9v-1.5c-0.5,1-1.3,1.7-2.4,2.2c-1.1,0.5-2.3,0.8-3.7,0.8
		c-2.3,0-4.1-0.5-5.4-1.6c-1.3-1.1-2-2.6-2-4.5c0-1.9,0.7-3.3,2-4.4c1.3-1.1,3.1-1.6,5.4-1.6h6v-1.1c0-1.4-0.4-2.6-1.3-3.4
		S46.6,441,45,441z M44.2,456.4c1.6,0,3-0.5,4.1-1.4c1.1-1,1.7-2.3,1.7-4v-1.8h-6c-1.4,0-2.6,0.3-3.4,0.9s-1.3,1.5-1.3,2.7
		C39.4,455.2,41,456.4,44.2,456.4z"/>
	<path class="st0" d="M63,458.7c-0.6,0-1-0.3-1.3-0.8l-7.2-17.1c-0.1-0.3-0.1-0.5-0.1-0.6c0-0.4,0.1-0.7,0.4-1s0.6-0.4,1-0.4
		c0.6,0,1,0.3,1.3,0.9l6,14.6l6-14.6c0.2-0.6,0.7-0.9,1.3-0.9c0.4,0,0.7,0.1,1,0.4s0.4,0.6,0.4,1c0,0.1,0,0.3-0.1,0.6l-7.2,17.1
		C64,458.4,63.6,458.7,63,458.7z"/>
	<path class="st0" d="M75.3,441c1.6-1.7,3.7-2.5,6.6-2.5c2.8,0,5,0.8,6.6,2.5c1.6,1.7,2.3,4.2,2.3,7.6c0,3.4-0.8,5.9-2.3,7.7
		c-1.6,1.7-3.8,2.6-6.6,2.6c-2.8,0-5-0.9-6.6-2.6c-1.6-1.7-2.4-4.3-2.4-7.7C72.9,445.2,73.7,442.7,75.3,441z M81.8,456.4
		c4.1,0,6.2-2.6,6.2-7.8c0-5.2-2.1-7.7-6.2-7.7c-4.1,0-6.2,2.6-6.2,7.7C75.7,453.8,77.7,456.4,81.8,456.4z"/>
	<path class="st0" d="M101.4,438.5c1.3,0,2.4,0.3,3.4,0.8c1,0.5,1.8,1.2,2.3,2v-11.8c0-0.4,0.1-0.7,0.4-1s0.6-0.4,1-0.4
		c0.4,0,0.7,0.1,1,0.4s0.4,0.6,0.4,1v21.1c0,2.7-0.8,4.8-2.3,6.2c-1.5,1.4-3.5,2.1-6,2.1c-2.8,0-5-0.8-6.5-2.5
		c-1.5-1.7-2.2-4.3-2.2-7.7C92.9,441.8,95.7,438.5,101.4,438.5z M107.2,450.5v-5.9c-0.1-0.1-0.1-0.2-0.2-0.4
		c-0.1-0.2-0.3-0.5-0.6-0.9c-0.3-0.4-0.7-0.8-1.1-1.1c-0.4-0.3-0.9-0.6-1.6-0.9c-0.7-0.3-1.4-0.4-2.1-0.4c-4,0-6,2.6-6,7.7
		c0,5.2,2,7.8,6,7.8c1.7,0,3.1-0.5,4.1-1.5C106.7,453.9,107.2,452.5,107.2,450.5z"/>
	<path class="st0" d="M123,441.2c-0.2-0.2-0.4-0.5-0.4-0.9c0-0.4,0.1-0.7,0.4-0.9c0.2-0.2,0.5-0.4,0.9-0.4h11.6
		c0.4,0,0.7,0.1,0.9,0.4c0.2,0.2,0.4,0.5,0.4,0.9c0,0.3-0.1,0.6-0.3,0.8L126,455.7h9.8c0.4,0,0.7,0.1,0.9,0.4
		c0.3,0.3,0.4,0.6,0.4,0.9c0,0.4-0.1,0.7-0.4,0.9c-0.3,0.3-0.6,0.4-0.9,0.4h-12.4c-0.4,0-0.7-0.1-0.9-0.4c-0.2-0.2-0.4-0.5-0.4-0.9
		c0-0.3,0.1-0.6,0.3-0.8l10.7-14.6h-9.1C123.6,441.6,123.3,441.5,123,441.2z"/>
	<path class="st0" d="M147.3,441c-2,0-3.7,0.7-4.9,2.2c-0.4,0.4-0.7,0.6-1.1,0.6c-0.3,0-0.6-0.1-0.9-0.4c-0.2-0.2-0.4-0.5-0.4-0.9
		c0-0.3,0.1-0.5,0.2-0.7c1.4-2.2,3.8-3.4,7-3.4c2.4,0,4.3,0.7,5.6,2c1.3,1.3,2,3.1,2,5.3v11.7c0,0.4-0.1,0.7-0.4,0.9
		c-0.3,0.3-0.6,0.4-0.9,0.4c-0.4,0-0.7-0.1-0.9-0.4c-0.3-0.3-0.4-0.6-0.4-0.9v-1.5c-0.5,1-1.3,1.7-2.4,2.2c-1.1,0.5-2.3,0.8-3.7,0.8
		c-2.3,0-4.1-0.5-5.4-1.6c-1.3-1.1-2-2.6-2-4.5c0-1.9,0.7-3.3,2-4.4c1.3-1.1,3.1-1.6,5.4-1.6h6v-1.1c0-1.4-0.4-2.6-1.3-3.4
		C150,441.4,148.8,441,147.3,441z M146.4,456.4c1.6,0,3-0.5,4.1-1.4c1.1-1,1.7-2.3,1.7-4v-1.8h-6c-1.4,0-2.6,0.3-3.4,0.9
		c-0.8,0.6-1.3,1.5-1.3,2.7C141.6,455.2,143.2,456.4,146.4,456.4z"/>
	<path class="st0" d="M169.4,456.3c-1.5-1.7-2.3-4.3-2.3-7.7c0-3.4,0.8-6,2.3-7.7c1.5-1.7,3.7-2.5,6.5-2.5c1.6,0,3,0.3,4.1,0.9
		s1.9,1.3,2.4,2c0.2,0.3,0.3,0.6,0.3,0.8c0,0.4-0.1,0.7-0.4,0.9c-0.2,0.2-0.5,0.3-0.9,0.3c-0.4,0-0.7-0.2-1-0.5
		c-1.2-1.3-2.7-2-4.6-2c-4,0-6,2.6-6,7.7c0,5.2,2,7.8,6,7.8c1.6,0,3.3-0.6,4.9-1.8c0.3-0.2,0.6-0.3,0.8-0.3c0.3,0,0.6,0.1,0.9,0.4
		c0.2,0.2,0.4,0.5,0.4,0.9c0,0.4-0.2,0.7-0.6,1.1c-1.9,1.5-4,2.3-6.4,2.3C173.1,458.9,170.9,458,169.4,456.3z"/>
	<path class="st0" d="M185,448.6c0-3.3,0.8-5.8,2.3-7.5c1.5-1.8,3.7-2.7,6.5-2.7c1.3,0,2.4,0.2,3.4,0.6c1,0.4,1.8,0.9,2.4,1.5
		c0.6,0.6,1,1.3,1.4,2.1c0.4,0.8,0.6,1.5,0.7,2.2c0.1,0.7,0.2,1.3,0.2,2c0,0.4,0,0.8,0,1c0,0.2-0.1,0.5-0.2,0.8s-0.3,0.5-0.5,0.7
		c-0.3,0.2-0.6,0.2-1,0.2h-12.4c0,2.1,0.6,3.8,1.7,5.1c1.1,1.2,2.7,1.9,4.7,1.9c1.8,0,3.5-0.6,5.1-1.8c0.3-0.2,0.5-0.3,0.8-0.3
		c0.3,0,0.6,0.1,0.9,0.4c0.2,0.2,0.4,0.5,0.4,0.9c0,0.3-0.2,0.7-0.5,1c-1.6,1.6-3.8,2.4-6.6,2.4c-2.9,0-5.2-0.8-6.8-2.5
		C185.8,454.7,185,452.1,185,448.6z M199.2,447.1c0-4.1-1.8-6.2-5.4-6.2c-1.8,0-3.2,0.5-4.2,1.6c-1,1.1-1.6,2.6-1.7,4.5H199.2z"/>
	<path class="st0" d="M205.6,428.5c0.3-0.3,0.6-0.4,1-0.4c0.4,0,0.7,0.1,1,0.4c0.3,0.3,0.4,0.6,0.4,1v24.2c0,1.6,0.6,2.4,1.7,2.4
		c0.3,0,0.6,0.1,0.9,0.4c0.3,0.2,0.4,0.5,0.4,0.9c0,0.4-0.1,0.7-0.4,0.9c-0.3,0.2-0.6,0.4-0.9,0.4c-2.9,0-4.4-1.7-4.4-5v-24.2
		C205.2,429.1,205.3,428.8,205.6,428.5z"/>
	<path class="st0" d="M214.7,441c1.6-1.7,3.7-2.5,6.6-2.5c2.8,0,5,0.8,6.6,2.5c1.6,1.7,2.3,4.2,2.3,7.6c0,3.4-0.8,5.9-2.3,7.7
		c-1.6,1.7-3.8,2.6-6.6,2.6c-2.8,0-5-0.9-6.6-2.6c-1.6-1.7-2.4-4.3-2.4-7.7C212.4,445.2,213.1,442.7,214.7,441z M221.3,456.4
		c4.1,0,6.2-2.6,6.2-7.8c0-5.2-2.1-7.7-6.2-7.7c-4.1,0-6.2,2.6-6.2,7.7C215.1,453.8,217.2,456.4,221.3,456.4z"/>
	<path class="st0" d="M239.6,441.1c-2.5,0-3.8,0.8-3.8,2.5c0,0.8,0.4,1.5,1.1,2c0.8,0.5,1.7,1,2.8,1.3c1.1,0.4,2.2,0.7,3.3,1.2
		c1.1,0.4,2,1.1,2.8,1.9c0.8,0.8,1.1,1.9,1.1,3.1c0,1.8-0.7,3.2-2,4.2c-1.3,0.9-3.1,1.4-5.2,1.4c-1.6,0-3.1-0.3-4.4-0.9
		c-1.3-0.6-2.3-1.3-2.9-2.1c-0.2-0.3-0.3-0.6-0.3-0.8c0-0.3,0.1-0.6,0.4-0.9c0.2-0.2,0.5-0.4,0.9-0.4c0.3,0,0.7,0.1,0.9,0.4
		c1.4,1.4,3.2,2.1,5.4,2.1c1.3,0,2.4-0.2,3.2-0.7c0.8-0.5,1.3-1.2,1.3-2.3c0-0.8-0.4-1.4-1.1-2c-0.8-0.5-1.7-1-2.8-1.3
		c-1.1-0.4-2.2-0.7-3.3-1.2c-1.1-0.4-2-1.1-2.8-1.9c-0.8-0.9-1.1-1.9-1.1-3.2c0-1.7,0.6-3,1.8-3.8c1.2-0.9,2.8-1.3,4.7-1.3
		c2.9,0,5.1,0.9,6.5,2.7c0.2,0.3,0.3,0.5,0.3,0.8c0,0.3-0.1,0.6-0.4,0.9c-0.2,0.2-0.5,0.4-0.9,0.4c-0.3,0-0.6-0.1-0.9-0.4
		C243,441.7,241.5,441.1,239.6,441.1z"/>
	<path class="st0" d="M251.8,439v-4.5c0-0.4,0.1-0.7,0.4-1c0.3-0.3,0.6-0.4,1-0.4c0.4,0,0.7,0.1,1,0.4c0.3,0.3,0.4,0.6,0.4,1v4.5
		h2.8c0.4,0,0.7,0.1,0.9,0.4c0.2,0.2,0.4,0.5,0.4,0.9c0,0.4-0.1,0.7-0.4,0.9c-0.2,0.2-0.5,0.4-0.9,0.4h-2.8v11.7
		c0,0.9,0.2,1.6,0.7,2.1c0.5,0.5,1,0.7,1.8,0.7c0.4,0,0.7,0.1,0.9,0.4c0.3,0.2,0.4,0.5,0.4,0.9c0,0.4-0.1,0.7-0.4,0.9
		c-0.3,0.2-0.6,0.4-0.9,0.4c-1.6,0-2.9-0.5-3.8-1.5c-0.9-1-1.4-2.3-1.4-3.9v-11.7h-1.7c-0.4,0-0.7-0.1-0.9-0.4
		c-0.2-0.2-0.4-0.5-0.4-0.9c0-0.4,0.1-0.7,0.4-0.9c0.2-0.2,0.5-0.4,0.9-0.4H251.8z"/>
	<path class="st0" d="M270.1,438.5c5.2,0,7.8,2.5,7.8,7.5v11.3c0,0.4-0.1,0.7-0.4,1c-0.3,0.3-0.6,0.4-1,0.4c-0.4,0-0.7-0.1-1-0.4
		s-0.4-0.6-0.4-1v-10.8c0-1.8-0.4-3.2-1.1-4.2c-0.7-1-2.1-1.4-4-1.4c-3.8,0-5.6,2-5.6,5.9v10.5c0,0.4-0.1,0.7-0.4,1
		c-0.3,0.3-0.6,0.4-1,0.4c-0.4,0-0.7-0.1-1-0.4s-0.4-0.6-0.4-1v-17.2c0-0.4,0.1-0.7,0.4-1s0.6-0.4,1-0.4c0.4,0,0.7,0.1,1,0.4
		c0.3,0.3,0.4,0.6,0.4,1v1.4c0.4-0.8,1.1-1.6,2.1-2.1C267.6,438.7,268.8,438.5,270.1,438.5z"/>
	<path class="st0" d="M283.2,441c1.6-1.7,3.7-2.5,6.6-2.5c2.8,0,5,0.8,6.6,2.5c1.6,1.7,2.3,4.2,2.3,7.6c0,3.4-0.8,5.9-2.3,7.7
		c-1.6,1.7-3.8,2.6-6.6,2.6c-2.8,0-5-0.9-6.6-2.6c-1.6-1.7-2.4-4.3-2.4-7.7C280.9,445.2,281.6,442.7,283.2,441z M289.8,456.4
		c4.1,0,6.2-2.6,6.2-7.8c0-5.2-2.1-7.7-6.2-7.7c-4.1,0-6.2,2.6-6.2,7.7C283.6,453.8,285.7,456.4,289.8,456.4z"/>
	<path class="st0" d="M312.4,439v-4.5c0-0.4,0.1-0.7,0.4-1c0.3-0.3,0.6-0.4,1-0.4c0.4,0,0.7,0.1,1,0.4c0.3,0.3,0.4,0.6,0.4,1v4.5
		h2.8c0.4,0,0.7,0.1,0.9,0.4c0.2,0.2,0.4,0.5,0.4,0.9c0,0.4-0.1,0.7-0.4,0.9c-0.2,0.2-0.5,0.4-0.9,0.4h-2.8v11.7
		c0,0.9,0.2,1.6,0.7,2.1c0.5,0.5,1,0.7,1.8,0.7c0.4,0,0.7,0.1,0.9,0.4c0.3,0.2,0.4,0.5,0.4,0.9c0,0.4-0.1,0.7-0.4,0.9
		c-0.3,0.2-0.6,0.4-0.9,0.4c-1.6,0-2.9-0.5-3.8-1.5c-0.9-1-1.4-2.3-1.4-3.9v-11.7h-1.7c-0.4,0-0.7-0.1-0.9-0.4
		c-0.2-0.2-0.4-0.5-0.4-0.9c0-0.4,0.1-0.7,0.4-0.9c0.2-0.2,0.5-0.4,0.9-0.4H312.4z"/>
	<path class="st0" d="M321.1,448.6c0-3.3,0.8-5.8,2.3-7.5c1.5-1.8,3.7-2.7,6.5-2.7c1.3,0,2.4,0.2,3.4,0.6c1,0.4,1.8,0.9,2.4,1.5
		c0.6,0.6,1,1.3,1.4,2.1c0.4,0.8,0.6,1.5,0.7,2.2c0.1,0.7,0.2,1.3,0.2,2c0,0.4,0,0.8,0,1c0,0.2-0.1,0.5-0.2,0.8
		c-0.1,0.3-0.3,0.5-0.5,0.7c-0.3,0.2-0.6,0.2-1,0.2h-12.4c0,2.1,0.6,3.8,1.7,5.1c1.1,1.2,2.7,1.9,4.7,1.9c1.8,0,3.5-0.6,5.1-1.8
		c0.3-0.2,0.5-0.3,0.8-0.3c0.3,0,0.6,0.1,0.9,0.4c0.2,0.2,0.4,0.5,0.4,0.9c0,0.3-0.2,0.7-0.5,1c-1.6,1.6-3.8,2.4-6.6,2.4
		c-2.9,0-5.2-0.8-6.8-2.5C321.9,454.7,321.1,452.1,321.1,448.6z M335.2,447.1c0-4.1-1.8-6.2-5.4-6.2c-1.8,0-3.2,0.5-4.2,1.6
		c-1,1.1-1.6,2.6-1.7,4.5H335.2z"/>
	<path class="st0" d="M344,440.1v1.9c0.5-1,1.2-1.8,2.2-2.5c1-0.6,2.3-0.9,3.7-0.9c0.4,0,0.7,0.1,0.9,0.4c0.3,0.3,0.4,0.6,0.4,0.9
		c0,0.4-0.1,0.7-0.4,0.9c-0.3,0.3-0.6,0.4-0.9,0.4c-1.9,0-3.4,0.6-4.4,1.8c-1,1.2-1.5,2.8-1.5,4.8v9.5c0,0.4-0.1,0.7-0.4,1
		c-0.3,0.3-0.6,0.4-1,0.4c-0.4,0-0.7-0.1-1-0.4s-0.4-0.6-0.4-1v-17.2c0-0.4,0.1-0.7,0.4-1s0.6-0.4,1-0.4c0.4,0,0.7,0.1,1,0.4
		C343.9,439.3,344,439.7,344,440.1z"/>
	<path class="st0" d="M360.2,441c-2,0-3.6,0.7-4.9,2.2c-0.4,0.4-0.7,0.6-1.1,0.6c-0.3,0-0.6-0.1-0.9-0.4c-0.2-0.2-0.4-0.5-0.4-0.9
		c0-0.3,0.1-0.5,0.2-0.7c1.4-2.2,3.8-3.4,7-3.4c2.4,0,4.3,0.7,5.6,2c1.3,1.3,2,3.1,2,5.3v11.7c0,0.4-0.1,0.7-0.4,0.9
		c-0.3,0.3-0.6,0.4-0.9,0.4c-0.4,0-0.7-0.1-0.9-0.4s-0.4-0.6-0.4-0.9v-1.5c-0.5,1-1.3,1.7-2.4,2.2c-1.1,0.5-2.3,0.8-3.6,0.8
		c-2.3,0-4.1-0.5-5.4-1.6c-1.3-1.1-2-2.6-2-4.5c0-1.9,0.7-3.3,2-4.4s3.1-1.6,5.4-1.6h6v-1.1c0-1.4-0.4-2.6-1.3-3.4
		S361.8,441,360.2,441z M359.4,456.4c1.6,0,3-0.5,4.1-1.4c1.1-1,1.7-2.3,1.7-4v-1.8h-6c-1.4,0-2.6,0.3-3.4,0.9
		c-0.8,0.6-1.3,1.5-1.3,2.7C354.6,455.2,356.2,456.4,359.4,456.4z"/>
	<path class="st0" d="M372.5,439.1c0.3-0.3,0.6-0.4,1-0.4c0.4,0,0.7,0.1,1,0.4c0.3,0.3,0.4,0.6,0.4,1v1.4c0.5-0.8,1.2-1.5,2.2-2.1
		c1-0.6,2.2-0.9,3.5-0.9c2.8,0,5,0.8,6.6,2.5c1.5,1.7,2.3,4.2,2.3,7.6c0,3.4-0.8,5.9-2.3,7.7c-1.5,1.7-3.7,2.6-6.6,2.6
		c-1.3,0-2.5-0.3-3.5-0.9c-1-0.6-1.8-1.3-2.3-2.1v9.6c0,0.4-0.1,0.7-0.4,1c-0.3,0.3-0.6,0.4-1,0.4c-0.4,0-0.7-0.1-1-0.4
		c-0.3-0.3-0.4-0.6-0.4-1v-25.4C372.1,439.7,372.2,439.4,372.5,439.1z M376.3,442.8c-1.1,1.3-1.6,3.2-1.6,5.8c0,2.6,0.5,4.5,1.6,5.8
		c1.1,1.3,2.5,1.9,4.2,1.9c4.1,0,6.1-2.6,6.1-7.8c0-5.2-2.1-7.7-6.2-7.7C378.8,440.9,377.4,441.6,376.3,442.8z"/>
	<path class="st0" d="M391.6,448.6c0-3.3,0.8-5.8,2.3-7.5c1.5-1.8,3.7-2.7,6.5-2.7c1.3,0,2.4,0.2,3.4,0.6c1,0.4,1.8,0.9,2.4,1.5
		s1,1.3,1.4,2.1c0.4,0.8,0.6,1.5,0.7,2.2c0.1,0.7,0.2,1.3,0.2,2c0,0.4,0,0.8,0,1c0,0.2-0.1,0.5-0.2,0.8s-0.3,0.5-0.5,0.7
		c-0.3,0.2-0.6,0.2-1,0.2h-12.4c0,2.1,0.6,3.8,1.7,5.1s2.7,1.9,4.7,1.9c1.8,0,3.5-0.6,5.1-1.8c0.3-0.2,0.5-0.3,0.8-0.3
		c0.3,0,0.6,0.1,0.9,0.4c0.2,0.2,0.4,0.5,0.4,0.9c0,0.3-0.2,0.7-0.5,1c-1.6,1.6-3.8,2.4-6.6,2.4c-2.9,0-5.2-0.8-6.8-2.5
		C392.4,454.7,391.6,452.1,391.6,448.6z M405.7,447.1c0-4.1-1.8-6.2-5.4-6.2c-1.8,0-3.2,0.5-4.2,1.6c-1,1.1-1.6,2.6-1.7,4.5H405.7z"
		/>
	<path class="st0" d="M418.3,458.7c-0.6,0-1-0.3-1.3-0.8l-7.2-17.1c-0.1-0.3-0.1-0.5-0.1-0.6c0-0.4,0.1-0.7,0.4-1s0.6-0.4,1-0.4
		c0.6,0,1,0.3,1.3,0.9l6,14.6l6-14.6c0.2-0.6,0.7-0.9,1.3-0.9c0.4,0,0.7,0.1,1,0.4s0.4,0.6,0.4,1c0,0.1,0,0.3-0.1,0.6l-7.2,17.1
		C419.3,458.4,418.9,458.7,418.3,458.7z"/>
	<path class="st0" d="M430.6,439v-4.5c0-0.4,0.1-0.7,0.4-1c0.3-0.3,0.6-0.4,1-0.4c0.4,0,0.7,0.1,1,0.4c0.3,0.3,0.4,0.6,0.4,1v4.5
		h2.8c0.4,0,0.7,0.1,0.9,0.4c0.2,0.2,0.4,0.5,0.4,0.9c0,0.4-0.1,0.7-0.4,0.9c-0.2,0.2-0.5,0.4-0.9,0.4h-2.8v11.7
		c0,0.9,0.2,1.6,0.7,2.1c0.5,0.5,1,0.7,1.8,0.7c0.4,0,0.7,0.1,0.9,0.4c0.3,0.2,0.4,0.5,0.4,0.9c0,0.4-0.1,0.7-0.4,0.9
		c-0.3,0.2-0.6,0.4-0.9,0.4c-1.6,0-2.9-0.5-3.8-1.5c-0.9-1-1.4-2.3-1.4-3.9v-11.7h-1.7c-0.4,0-0.7-0.1-0.9-0.4
		c-0.2-0.2-0.4-0.5-0.4-0.9c0-0.4,0.1-0.7,0.4-0.9c0.2-0.2,0.5-0.4,0.9-0.4H430.6z"/>
	<path class="st0" d="M446.5,441.1c-2.5,0-3.8,0.8-3.8,2.5c0,0.8,0.4,1.5,1.1,2c0.8,0.5,1.7,1,2.8,1.3c1.1,0.4,2.2,0.7,3.3,1.2
		c1.1,0.4,2,1.1,2.8,1.9c0.8,0.8,1.1,1.9,1.1,3.1c0,1.8-0.7,3.2-2,4.2c-1.3,0.9-3.1,1.4-5.2,1.4c-1.6,0-3.1-0.3-4.4-0.9
		c-1.3-0.6-2.3-1.3-2.9-2.1c-0.2-0.3-0.3-0.6-0.3-0.8c0-0.3,0.1-0.6,0.4-0.9c0.2-0.2,0.5-0.4,0.9-0.4c0.3,0,0.7,0.1,0.9,0.4
		c1.4,1.4,3.2,2.1,5.4,2.1c1.3,0,2.4-0.2,3.2-0.7s1.3-1.2,1.3-2.3c0-0.8-0.4-1.4-1.1-2c-0.8-0.5-1.7-1-2.8-1.3
		c-1.1-0.4-2.2-0.7-3.3-1.2c-1.1-0.4-2-1.1-2.8-1.9s-1.1-1.9-1.1-3.2c0-1.7,0.6-3,1.8-3.8c1.2-0.9,2.8-1.3,4.7-1.3
		c2.9,0,5.1,0.9,6.5,2.7c0.2,0.3,0.3,0.5,0.3,0.8c0,0.3-0.1,0.6-0.4,0.9c-0.2,0.2-0.5,0.4-0.9,0.4c-0.3,0-0.6-0.1-0.9-0.4
		C449.9,441.7,448.4,441.1,446.5,441.1z"/>
	<path class="st0" d="M471.7,458.7c-0.5,0-0.8-0.2-1.2-0.6l-7.5-9.6l-2.6,2.1v6.8c0,0.4-0.1,0.7-0.4,1c-0.3,0.3-0.6,0.4-1,0.4
		c-0.4,0-0.7-0.1-1-0.4c-0.3-0.3-0.4-0.6-0.4-1v-27.8c0-0.4,0.1-0.7,0.4-1c0.3-0.3,0.6-0.4,1-0.4c0.4,0,0.7,0.1,1,0.4
		c0.3,0.3,0.4,0.6,0.4,1v17.8l10-8.2c0.3-0.2,0.6-0.3,0.9-0.3c0.4,0,0.7,0.1,1,0.4c0.3,0.3,0.4,0.6,0.4,1c0,0.5-0.2,0.8-0.6,1.1
		l-7,5.6l7.6,9.7c0.2,0.2,0.3,0.5,0.3,0.8c0,0.4-0.1,0.7-0.4,1C472.4,458.5,472,458.7,471.7,458.7z"/>
	<path class="st0" d="M477.1,441c1.6-1.7,3.7-2.5,6.6-2.5c2.8,0,5,0.8,6.6,2.5c1.6,1.7,2.3,4.2,2.3,7.6c0,3.4-0.8,5.9-2.3,7.7
		c-1.6,1.7-3.7,2.6-6.6,2.6c-2.8,0-5-0.9-6.6-2.6c-1.6-1.7-2.4-4.3-2.4-7.7C474.8,445.2,475.5,442.7,477.1,441z M483.7,456.4
		c4.1,0,6.2-2.6,6.2-7.8c0-5.2-2.1-7.7-6.2-7.7s-6.2,2.6-6.2,7.7C477.5,453.8,479.6,456.4,483.7,456.4z"/>
	<path class="st0" d="M506.3,441c1.6-1.7,3.7-2.5,6.6-2.5c2.8,0,5,0.8,6.6,2.5c1.6,1.7,2.3,4.2,2.3,7.6c0,3.4-0.8,5.9-2.3,7.7
		c-1.6,1.7-3.7,2.6-6.6,2.6c-2.8,0-5-0.9-6.6-2.6c-1.6-1.7-2.4-4.3-2.4-7.7C504,445.2,504.7,442.7,506.3,441z M512.9,456.4
		c4.1,0,6.2-2.6,6.2-7.8c0-5.2-2.1-7.7-6.2-7.7c-4.1,0-6.2,2.6-6.2,7.7C506.7,453.8,508.8,456.4,512.9,456.4z"/>
	<path class="st0" d="M533.7,438.5c5.7,0,8.5,3.4,8.5,10.2c0,3.4-0.8,6-2.2,7.7c-1.5,1.7-3.7,2.5-6.5,2.5c-2.5,0-4.5-0.7-6-2.1
		c-1.5-1.4-2.3-3.5-2.3-6.2v-21.1c0-0.4,0.1-0.7,0.4-1c0.3-0.3,0.6-0.4,1-0.4s0.7,0.1,1,0.4c0.3,0.3,0.4,0.6,0.4,1v11.8
		c0.5-0.8,1.3-1.4,2.3-2C531.3,438.7,532.4,438.5,533.7,438.5z M527.9,444.7v5.9c0,2,0.5,3.4,1.5,4.4c1,1,2.4,1.5,4.1,1.5
		c4,0,6-2.6,6-7.8c0-5.2-2-7.7-6-7.7c-0.7,0-1.4,0.1-2.1,0.4s-1.2,0.6-1.6,0.9c-0.4,0.4-0.8,0.7-1.1,1.1c-0.3,0.4-0.5,0.7-0.6,0.9
		L527.9,444.7z"/>
	<path class="st0" d="M548.3,440.1v1.9c0.5-1,1.2-1.8,2.2-2.5c1-0.6,2.3-0.9,3.7-0.9c0.4,0,0.7,0.1,0.9,0.4c0.3,0.3,0.4,0.6,0.4,0.9
		c0,0.4-0.1,0.7-0.4,0.9c-0.3,0.3-0.6,0.4-0.9,0.4c-1.9,0-3.4,0.6-4.4,1.8c-1,1.2-1.5,2.8-1.5,4.8v9.5c0,0.4-0.1,0.7-0.4,1
		c-0.3,0.3-0.6,0.4-1,0.4s-0.7-0.1-1-0.4c-0.3-0.3-0.4-0.6-0.4-1v-17.2c0-0.4,0.1-0.7,0.4-1c0.3-0.3,0.6-0.4,1-0.4s0.7,0.1,1,0.4
		C548.2,439.3,548.3,439.7,548.3,440.1z"/>
	<path class="st0" d="M564.5,441c-2,0-3.6,0.7-4.9,2.2c-0.4,0.4-0.7,0.6-1.1,0.6c-0.3,0-0.6-0.1-0.9-0.4c-0.2-0.2-0.4-0.5-0.4-0.9
		c0-0.3,0.1-0.5,0.2-0.7c1.4-2.2,3.8-3.4,7-3.4c2.4,0,4.3,0.7,5.6,2c1.3,1.3,2,3.1,2,5.3v11.7c0,0.4-0.1,0.7-0.4,0.9
		s-0.6,0.4-0.9,0.4c-0.4,0-0.7-0.1-0.9-0.4c-0.3-0.3-0.4-0.6-0.4-0.9v-1.5c-0.5,1-1.3,1.7-2.4,2.2c-1.1,0.5-2.3,0.8-3.6,0.8
		c-2.3,0-4.1-0.5-5.4-1.6c-1.3-1.1-2-2.6-2-4.5c0-1.9,0.7-3.3,2-4.4c1.3-1.1,3.1-1.6,5.4-1.6h6v-1.1c0-1.4-0.4-2.6-1.3-3.4
		C567.3,441.4,566.1,441,564.5,441z M563.7,456.4c1.6,0,3-0.5,4.1-1.4c1.1-1,1.7-2.3,1.7-4v-1.8h-6c-1.4,0-2.6,0.3-3.4,0.9
		s-1.3,1.5-1.3,2.7C558.9,455.2,560.5,456.4,563.7,456.4z"/>
	<path class="st0" d="M582.5,458.7c-0.6,0-1-0.3-1.3-0.8l-7.2-17.1c-0.1-0.3-0.1-0.5-0.1-0.6c0-0.4,0.1-0.7,0.4-1
		c0.3-0.3,0.6-0.4,1-0.4c0.6,0,1,0.3,1.3,0.9l6,14.6l6-14.6c0.2-0.6,0.7-0.9,1.3-0.9c0.4,0,0.7,0.1,1,0.4c0.3,0.3,0.4,0.6,0.4,1
		c0,0.1,0,0.3-0.1,0.6l-7.2,17.1C583.6,458.4,583.1,458.7,582.5,458.7z"/>
	<path class="st0" d="M602.1,438.5c5.2,0,7.8,2.5,7.8,7.5v11.3c0,0.4-0.1,0.7-0.4,1c-0.3,0.3-0.6,0.4-1,0.4c-0.4,0-0.7-0.1-1-0.4
		c-0.3-0.3-0.4-0.6-0.4-1v-10.8c0-1.8-0.4-3.2-1.1-4.2c-0.7-1-2.1-1.4-4-1.4c-3.8,0-5.6,2-5.6,5.9v10.5c0,0.4-0.1,0.7-0.4,1
		c-0.3,0.3-0.6,0.4-1,0.4s-0.7-0.1-1-0.4c-0.3-0.3-0.4-0.6-0.4-1v-17.2c0-0.4,0.1-0.7,0.4-1c0.3-0.3,0.6-0.4,1-0.4s0.7,0.1,1,0.4
		c0.3,0.3,0.4,0.6,0.4,1v1.4c0.4-0.8,1.1-1.6,2.1-2.1C599.6,438.7,600.8,438.5,602.1,438.5z"/>
	<path class="st0" d="M621.2,441c-2,0-3.6,0.7-4.9,2.2c-0.4,0.4-0.7,0.6-1.1,0.6c-0.3,0-0.6-0.1-0.9-0.4c-0.2-0.2-0.4-0.5-0.4-0.9
		c0-0.3,0.1-0.5,0.2-0.7c1.4-2.2,3.8-3.4,7-3.4c2.4,0,4.3,0.7,5.6,2s2,3.1,2,5.3v11.7c0,0.4-0.1,0.7-0.4,0.9
		c-0.3,0.3-0.6,0.4-0.9,0.4c-0.4,0-0.7-0.1-0.9-0.4c-0.3-0.3-0.4-0.6-0.4-0.9v-1.5c-0.5,1-1.3,1.7-2.4,2.2c-1.1,0.5-2.3,0.8-3.6,0.8
		c-2.3,0-4.1-0.5-5.4-1.6s-2-2.6-2-4.5c0-1.9,0.7-3.3,2-4.4c1.3-1.1,3.1-1.6,5.4-1.6h6v-1.1c0-1.4-0.4-2.6-1.3-3.4
		C624,441.4,622.8,441,621.2,441z M620.4,456.4c1.6,0,3-0.5,4.1-1.4c1.1-1,1.7-2.3,1.7-4v-1.8h-6c-1.4,0-2.6,0.3-3.4,0.9
		c-0.8,0.6-1.3,1.5-1.3,2.7C615.6,455.2,617.2,456.4,620.4,456.4z"/>
	<path class="st0" d="M639.2,458.7c-0.6,0-1-0.3-1.3-0.8l-7.2-17.1c-0.1-0.3-0.1-0.5-0.1-0.6c0-0.4,0.1-0.7,0.4-1
		c0.3-0.3,0.6-0.4,1-0.4c0.6,0,1,0.3,1.3,0.9l6,14.6l6-14.6c0.2-0.6,0.7-0.9,1.3-0.9c0.4,0,0.7,0.1,1,0.4c0.3,0.3,0.4,0.6,0.4,1
		c0,0.1,0,0.3-0.1,0.6l-7.2,17.1C640.3,458.4,639.8,458.7,639.2,458.7z"/>
	<path class="st0" d="M651.5,441c1.6-1.7,3.7-2.5,6.6-2.5c2.8,0,5,0.8,6.6,2.5c1.6,1.7,2.3,4.2,2.3,7.6c0,3.4-0.8,5.9-2.3,7.7
		c-1.6,1.7-3.7,2.6-6.6,2.6c-2.8,0-5-0.9-6.6-2.6c-1.6-1.7-2.4-4.3-2.4-7.7C649.2,445.2,650,442.7,651.5,441z M658.1,456.4
		c4.1,0,6.2-2.6,6.2-7.8c0-5.2-2.1-7.7-6.2-7.7c-4.1,0-6.2,2.6-6.2,7.7C651.9,453.8,654,456.4,658.1,456.4z"/>
</g>
<g>
	<g>
		<g>
			<path class="st1" d="M212.8,39.3c3.1,0.6,6.1,1.3,9.1,2.2c2.7,0.8,5.4,1.9,8.1,3.1c5.2,2.3,10.4,4.6,15.4,7.2
				c6.2,3.2,12.3,6.5,18.2,10.1c6.7,4.1,13.1,8.6,19.6,12.9c3.9,2.6,7.8,5.3,11.5,8.1c4.7,3.6,9.3,7.3,14,11
				c2.7,2.2,5.5,4.2,8.2,6.4c3.1,2.5,6,5.2,9,7.8c1.8,1.6,3.6,3.2,5.4,4.8c0.7,0.6,8,7.4,10.5,9.9c1.6,1.5,3.2,2.9,4.8,4.4
				c2.8,2.8,5.7,5.6,8.4,8.5c3.4,3.7,6.8,7.5,10.2,11.2c2.2,2.4,4.5,4.8,6.5,7.4c2.8,3.6,5.5,7.3,8,11.1c1.6,2.3,1,4.6-1.1,6.5
				c-0.9,0.8-1.6,0.6-2.4-0.3c-3.8-4.6-7.6-9.1-11.5-13.6c-3.1-3.6-6.2-7-9.4-10.5c-3.3-3.5-6.7-7-10.1-10.4
				c-3.6-3.6-7.2-7.1-10.9-10.6c-4-3.7-8.1-7.1-12.2-10.7c-2.6-2.3-5.1-4.7-7.7-6.9c-3-2.5-6.1-5-9.2-7.4c-4-3.2-7.9-6.3-11.9-9.4
				c-3.8-2.9-7.6-5.6-11.5-8.3c-5-3.5-10.1-7-15.2-10.4c-2.5-1.6-5-3.1-7.6-4.6c-3.5-2.1-6.9-4.2-10.5-6.2c-2.9-1.6-5.9-3-8.8-4.4
				c-2-1-3.9-2.1-6-3c-3.6-1.6-7.2-3.2-10.9-4.4c-4.7-1.6-9.5-2.8-14.4-4c-1.8-0.5-3.8-0.5-5.6-0.4c-3,0.1-5.3,2.8-4.7,5.8
				c0.9,4.4,2,8.8,3.3,13.2c1,3.3,2.1,6.6,3.6,9.7c2,4,4.4,7.9,6.7,11.7c0.7,1.3,1.5,2.5,2.4,3.7c3.3,4.1,11.4,14.2,15.1,16.2
				c4.2,2.3,7,2.7,10,3.8c3.6,1.3,7.1,2.7,10.7,4.1c4.4,1.8,8.7,3.6,13,5.4c4.6,1.9,9.2,3.9,13.8,5.9c3.6,1.6,7.3,3.1,10.9,4.9
				c5.2,2.6,10.4,5.3,15.5,8c6,3.2,11.9,6.5,17.7,9.9c4.4,2.6,8.7,5.6,13,8.5c3.4,2.3,6.8,4.5,10,6.9c3.4,2.5,6.7,5.2,10,7.9
				c4.4,3.7,8.6,7.5,12.8,11.4c1.4,1.3,2.5,2.8,3.6,4.4c0.4,0.5,0.4,1.3,0.4,1.9c-0.1,1.1-0.3,2.1-0.6,3.1c-0.2,0.6-0.6,1.6-0.9,1.6
				c-0.7,0-1.5-0.4-2-0.9c-1-0.9-1.9-2.1-2.9-3.1c-3.5-3.3-6.8-6.6-10.5-9.6c-5.3-4.4-10.8-8.6-16.4-12.7c-3.6-2.7-7.3-5.1-11.1-7.5
				c-4.9-3.2-9.9-6.4-14.9-9.3c-7.2-4.1-14.4-8.1-21.7-11.8c-5.8-2.9-11.8-5.4-17.7-8c-4.4-2-8.8-4-13.3-5.8
				c-6.9-2.8-13.8-5.7-20.9-8.2c-5.5-1.9-11.3-3.3-16.9-4.8c-4.8-1.3-9.7-2.5-14.5-3.6c-1.8-0.4-3.7-0.5-5.5-0.8
				c-3.8-0.6-7.6-1.1-11.3-1.9c-4.8-1-9.7-1-14.6-0.6c-4.7,0.3-9.4,1-13.9,2c-3.8,0.8-5.8,3.7-6.2,7.5c-0.1,1.2,0.4,2.5,1,3.6
				c2.6,4.5,6.9,7.2,10.9,10.2c7.1,5.3,14.2,10.5,21.3,15.8c3.2,2.3,6.4,4.5,9.6,6.9c2.4,1.9,4.7,3.9,7.1,5.9
				c3.5,2.9,7.1,5.8,10.5,8.9c3,2.6,5.8,5.5,8.8,8.2c3.3,3,6.7,6,10.2,8.7c5,3.8,10.2,7.5,16.1,9.7c3.2,1.2,6.7,1.7,10.1,2.5
				c1.1,0.3,2.3,0.7,3.4,0.8c5.6,0.8,11.3,1.7,16.9,2.3c5.9,0.7,11.9,1.1,17.9,1.7c5.3,0.5,10.5,1.2,15.8,1.7c2,0.2,4.1,0.3,6.1,0.5
				c4.2,0.5,8.4,1,12.6,1.6c2,0.3,3.9,0.9,5.8,1.3c2.1,0.5,4.2,0.8,6.2,1.3c3.7,1,7.3,2,11,3.1c2.9,0.8,5.7,1.7,8.6,2.7
				c1.3,0.4,2.7,0.9,3.9,1.5c1.1,0.6,2.1,1.1,2.2,2.8c0.1,1,1.3,2.1,2.2,2.8c1.3,1,1.5,2.2,1.4,3.6c0,1.1-1.9,2-3.4,1.5
				c-1.3-0.4-2.5-1.1-3.7-1.6c-5-1.9-9.9-4.1-14.9-5.7c-4.9-1.6-10-2.7-15-3.7c-4-0.9-8.1-1.2-12.1-1.9c-2.3-0.4-4.6-1-6.9-1.3
				c-2.7-0.4-5.5-0.5-8.2-0.7c-3.3-0.2-6.5-0.4-9.8-0.7c-5.7-0.5-11.5-1-17.2-1.6c-2.7-0.3-5.3-0.9-8-1.3c-1.9-0.3-3.9-0.3-5.8-0.6
				c-5.9-1.2-11.9-1.7-17.8-3.6c-5.3-1.7-10.6-3.1-15.3-6.2c-3.9-2.6-7.5-5.4-11.1-8.3c-4.5-3.7-9-7.4-13.3-11.3
				c-4.7-4.2-9.2-8.6-14-12.7c-3.2-2.7-6.7-5-10-7.6c-3.3-2.5-6.5-5.1-9.7-7.6c-4.5-3.3-9-6.6-13.5-9.9c-3.8-2.9-7.7-5.6-11.3-8.7
				c-3.1-2.7-5.9-5.7-7.7-9.5c-1.2-2.5-1.7-6.4-1-9.2c0.3-1.1,1.2-3.7,2.7-5.4c1.3-1.4,2.4-2.5,4-3.6c3-2.1,6.5-2.7,10.1-3.1
				c5.7-0.5,11.4-0.8,17.1-1.2c0.5,0,2.4-0.6,0.9-2.5c-1.9-2.6-4.1-5.2-5.7-8c-3-5.4-5.8-11-5.8-17.5c0-3.2,2.4-6.9,6-8.1
				c4.2-1.4,8.5-1.8,12.8,0.1c0.6,0.3,2.8,0.4,2.3-2.3c-0.6-2.8-2.3-8.7-0.9-14.3c1.3-3.4,4.5-6.2,7.9-7
				C201,37.2,209.6,38.7,212.8,39.3z M209.3,102.9c0.4,0.1,2.2-0.1,1.5-1.6c-0.6-2.2-7.7-10.1-10-14c-2.2-3.7-4.1-7.7-6-11.5
				c-1.2-2.4-1.8-4-3-6.4c-0.4-0.7-1.1-1.8-2.7-2.7c-2.2-1.1-4.2-1.2-6.5-1.5c-5.3-0.7-8.5,3-7.5,8.1c0.9,4.7,3,8.9,5.6,12.8
				c1.9,2.9,4,5.7,6.1,8.6c1.5,2,3.1,3.9,5.6,4.6C193.8,99.7,205.2,101.9,209.3,102.9z"/>
			<path class="st1" d="M605.5,187.5c-5.3-0.7-10.6-1.8-15.9-2.3c-4.3-0.4-8.7-0.4-13.1-0.5c-4.1-0.1-8.2-0.1-12.4-0.1
				c-2.5,0-5,0.2-7.4,0.3c-5.3,0.1-10.6,0.1-15.9,0.4c-5.6,0.2-11.2,0.6-16.7,1.1c-5.4,0.5-10.7,1-16,1.7c-4.7,0.6-9.4,1.3-14,2.2
				c-8.8,1.7-17.6,3.2-26.3,5.4c-9.5,2.4-18.8,5.4-28.1,8.4c-3.3,1-6.2,3-9.4,4.5c-0.6,0.3-1.4,0.2-2.1,0.3c0-0.7-0.2-1.5-0.1-2.2
				c0.4-3.4,2.9-5,5.7-6.2c7.2-3.2,14.6-6,22.4-7.9c7.4-1.8,14.7-3.8,22.1-5.5c5.9-1.3,11.9-2.2,17.9-3.2c6.2-1,12.4-2.2,18.7-2.9
				c5.9-0.7,11.8-0.9,17.6-1.3c3.1-0.2,6.2-0.5,9.4-0.6c6-0.2,12-0.3,18-0.4c6.8-0.1,13.5-0.4,20.3-0.3c4.1,0.1,6.8,0.4,10.9,0.4
				c5.4,0,15.3-6.7,18.5-8.5c1.4-0.8,2.8-1.7,4.2-2.6c6.3-3.9,11.6-8.9,16.8-14.1c4-4.1,7.9-8.2,10.8-13.2c0.9-1.6,1.8-3.7,1.6-5.6
				c-0.4-5-13-6-14.6-6.2c-5.8-0.8-11.7-0.9-17.6-0.4c-6.1,0.5-12.3,0.7-18.4,1.4c-5.7,0.7-11.4,1.7-17.1,2.8
				c-8,1.6-15.9,3.3-23.9,5.1c-2.6,0.6-5.3,1.3-7.9,2.1c-5.3,1.5-10.7,2.9-16,4.5c-6.2,1.9-12.5,3.6-18.6,5.8
				c-7.9,2.9-15.6,6.1-23.4,9.2c-5.1,2-10.3,3.9-15.4,5.9c-2,0.8-3.9,1.8-5.9,2.7c-3.6,1.7-7.2,3.5-10.8,5.3
				c-2.9,1.4-5.9,2.7-8.8,4.1c-2.6,1.3-5.2,2.6-7.7,4c-2.1,1.1-4.2,2.5-6.3,3.5c-0.5,0.2-1.6,0-1.9-0.4c-1.6-1.6-1.4-3.8,0.4-5.1
				c4-2.7,8.1-5.5,12.3-7.9c4.8-2.8,9.7-5.3,14.7-7.7c2.7-1.4,5.5-2.7,8.4-3.8c7-2.9,14-5.7,20.9-8.6c1.9-0.8,13.5-5.2,17-6.6
				c2.6-1,5.3-2,8-2.9c0.9-0.4,1.9-0.7,2.9-1c5.4-1.5,10.9-3.1,16.3-4.6c5.7-1.6,11.4-3.2,17.1-4.6c9.7-2.5,19.3-5.2,29.2-6.6
				c8.3-1.2,16.7-2.7,25-3.6c5.8-0.6,15.3-1.4,28.1-0.2c3.6,0.5,7,0.7,11.2,2.1c4,0.8,8,3.2,10.8,6.1c3,3.1,3.2,6.1,1.8,10.4
				c-1.2,3.6-3.1,6.7-5.7,9.4c-0.5,0.5-1,1.9,0.4,2.8c4.2,1.6,7,0.4,11.9,4.3c3.3,2.3,4.5,7.1,2.8,10.8c-1.9,4-4.6,7.2-8,9.8
				c-2.5,1.9-4.8,4.1-7.3,6c-1.3,1-2.8,1.6-4.1,2.4c-1,0.5-2,1.3-1.5,2.5c0.3,0.7,1.4,1.1,2.3,1.4c2.3,1,4.7,1.9,6.9,3
				c2.9,1.5,5.9,3,8.6,4.8c4.9,3.3,9.1,7.1,9,13.8c-0.1,5.1-2.1,9.1-6.5,12c-6.3,4.1-13.3,5.9-20.4,7.7c-7.1,1.8-14.2,3.9-21.3,5.8
				c-5.4,1.5-10.8,2.8-16,4.4c-6.1,1.9-12.1,4.1-18.1,6.2c-5.3,1.9-10.6,3.9-16.1,5.6c-6.6,2.1-13.3,4.1-20.1,5.8
				c-3,0.7-6.2,0.6-9.3,0.6c-3.4,0-6.7-0.2-10-0.6c-3.4-0.4-6.7-1.2-10.1-1.9c-4.9-1.1-9.9-2.2-14.8-3.4c-3.5-0.9-6.9-1.9-10.4-2.9
				c-4.3-1.2-8.6-2.3-12.9-3.6c-2.7-0.8-5.4-1.8-8.1-2.5c-3.5-1-6.9-1.8-10.4-2.6c-3.9-0.9-7.8-1.7-11.7-2.4c-2-0.4-4.1-0.7-6.1-1
				c-2.9-0.5-5.7-1.1-8.6-1.3c-3.6-0.3-7.2-0.4-10.7-0.5c-2.6-0.1-5.2-0.1-7.7,0c-1.2,0-2.5,0.2-3.7,0.5c-1.3,0.3-2.8-0.1-3-1.2
				c-0.1-0.9,0.8-2.5,1.7-2.9c2.1-0.9,3.9-1.9,5.1-3.8c0.2-0.3,0.9-0.4,1.4-0.4c1.3,0,2.6,0.1,3.8,0.1c4.1,0.2,8.1,0.3,12.2,0.6
				c2.8,0.2,5.6,0.5,8.4,0.8c1.7,0.2,3.4,0.6,5,0.9c4,0.8,7.9,1.6,11.9,2.5c3.3,0.7,6.7,1.4,10,2.2c3.2,0.8,6.3,1.6,9.4,2.5
				c5.5,1.6,11,3.3,16.6,4.9c5.8,1.6,11.7,3.3,17.5,4.7c3.7,0.9,7.5,1.5,11.3,2.2c2.6,0.5,5.3,1.1,8,1.5c6,0.8,11.9,0.2,17.7-1.4
				c4.7-1.3,9.4-2.8,14-4.4c12.2-4.2,24.4-8.6,36.6-12.7c3.3-1.1,6.9-1.8,10.3-2.7c2.5-0.6,5-1.4,7.5-2c8.3-2.2,16.6-4.2,24.8-6.6
				c3.4-1,6.9-1.9,9.7-4.5c5-4.7,4.7-10.2-1.2-13.7c-5-2.9-10.1-5.7-15.5-8c-3.9-1.7-8.1-2.5-12.2-3.6c-2-0.6-4.1-0.9-6.2-1.3
				C619.9,189.5,610.3,188.1,605.5,187.5z M629.1,184.6c2.9,0.8,5.6-1.3,8.2-2.8c3.2-1.8,6.1-4.1,9.1-6.2c3.7-2.6,7-5.7,9.5-9.6
				c2.1-3.3,1.5-6.6-2.1-8.3c-2.7-1.3-5.7-2.2-8.6-2.9c-1.1-0.2-2.7,0.3-3.5,1c-3.4,2.9-6.5,6.1-9.8,9.1c-2.5,2.2-4.9,4.5-7.7,6.4
				c-3.8,2.6-7.9,5-12.1,6.9c-1.5,0.9-1.7,1.7-1.1,2.9c0.8,1.6,9,1.7,11.4,2.2C624.5,183.6,626.5,184,629.1,184.6z"/>
		</g>
		<path class="st2" d="M353.4,285.7c-1.8,13.5-14.2,23.1-27.7,21.3c-13.5-1.8-23.1-14.2-21.3-27.7c1.8-13.5,14.2-23.1,27.7-21.3
			C345.6,259.8,355.2,272.2,353.4,285.7z"/>
		<path class="st2" d="M389,256.7c-1.4,10.9-11.4,18.5-22.3,17.1c-10.9-1.4-18.5-11.4-17.1-22.3c1.4-10.9,11.4-18.5,22.3-17.1
			C382.8,235.8,390.4,245.8,389,256.7z"/>
		<path class="st2" d="M413.2,217.8c-1.2,9.5-10,16.1-19.4,14.9c-9.5-1.2-16.2-9.9-14.9-19.4c1.3-9.5,10-16.2,19.4-14.9
			C407.8,199.6,414.5,208.3,413.2,217.8z"/>
		<path class="st2" d="M418.7,179c-1.2,9.1-9.5,15.5-18.6,14.3c-9.1-1.2-15.5-9.5-14.3-18.6c1.2-9.1,9.5-15.5,18.6-14.3
			C413.5,161.6,419.9,169.9,418.7,179z"/>
		<path class="st2" d="M416.7,142.9c-1,7.5-7.8,12.7-15.3,11.8c-7.5-1-12.7-7.8-11.8-15.3c1-7.5,7.8-12.7,15.3-11.7
			C412.5,128.5,417.7,135.4,416.7,142.9z"/>
		<path class="st2" d="M425.9,109.1c-0.9,6.9-7.2,11.7-14.1,10.8c-6.9-0.9-11.7-7.2-10.8-14.1c0.9-6.9,7.2-11.7,14.1-10.8
			C421.9,96,426.8,102.3,425.9,109.1z"/>
		<path class="st2" d="M446.2,88.6c-0.8,6-6.3,10.2-12.3,9.4c-6-0.8-10.2-6.3-9.4-12.3c0.8-6,6.3-10.2,12.3-9.4
			C442.8,77.2,447,82.6,446.2,88.6z"/>
		<path class="st2" d="M468.5,73.1c-0.6,4.6-4.9,7.9-9.5,7.3c-4.6-0.6-7.9-4.9-7.3-9.5c0.6-4.6,4.9-7.9,9.5-7.3
			C465.9,64.2,469.1,68.4,468.5,73.1z"/>
		<path class="st2" d="M488.2,66.8c-0.5,3.8-3.9,6.4-7.7,5.9c-3.8-0.5-6.4-3.9-5.9-7.7c0.5-3.8,3.9-6.4,7.7-5.9
			C486.1,59.5,488.7,63,488.2,66.8z"/>
	</g>
	<g>
		<path class="st3" d="M63.5,340.6c0.4,0.7,0.6,1.4,0.8,2.2c0.2,0.7,0.3,1.4,0.3,2.1c0,2.4-0.7,4.1-2.1,5.1c-1.4,1-4,1.5-7.7,1.5
			c-0.4,0-1.2,0-2.5,0c-4.6-0.1-8.9-0.1-12.9-0.1c-0.7,0-1.8,0-3.4,0.1c-1.6,0-2.8,0.1-3.7,0.1c0,10.6,0.3,18.7,0.9,24.3
			c0.6,5.6,1.6,9.7,2.9,12.2c-1.9,1-3.6,1.7-5.3,2.2c-1.6,0.5-3.1,0.8-4.5,0.8c-2.1,0-3.6-0.5-4.4-1.6c-0.8-1.1-1.2-3.2-1.2-6.2
			c0-1.3,0.2-8.2,0.7-20.8c0.4-12.6,0.7-24.6,0.7-35.9c0-4.4-0.2-8.2-0.5-11.5c-0.3-3.3-0.9-6.2-1.6-8.9c2,0.1,3.9,0.1,5.6,0.2
			c1.7,0.1,3.3,0.1,4.7,0.1c4.6,0,10.1-0.2,16.5-0.6c6.5-0.4,10.7-0.6,12.6-0.6c3,0,5.2,0.4,6.4,1.1c1.2,0.7,1.8,1.9,1.8,3.7
			c0,1.2-0.2,2.4-0.6,3.8s-1.1,2.8-1.9,4.4c-1.7-1-4.1-1.7-7.3-2.2c-3.1-0.5-7-0.7-11.6-0.7c-1.7,0-3.6,0-5.9,0.1
			c-2.3,0.1-4.8,0.1-7.7,0.3l-0.1,8.3c0,1.3,0,4.5-0.1,9.5c0,3.7-0.1,6.7-0.1,9c0.6,0.1,1.2,0.1,1.8,0.1c0.6,0,1.5,0,2.5,0
			c8.1,0,14-0.1,17.6-0.4C58.2,341.8,61.2,341.3,63.5,340.6z"/>
		<path class="st3" d="M103,388c-1.8,1-3.6,1.7-5.3,2.2c-1.7,0.5-3.3,0.8-4.8,0.8c-2.1,0-3.5-0.6-4.3-1.7c-0.8-1.2-1.2-3.4-1.2-6.7
			c0-1.7,0.2-7,0.5-16c0.4-9,0.5-17.2,0.5-24.6c0-9.5-0.3-16.8-0.9-21.9c-0.6-5.1-1.5-8.8-2.7-11.1c2-1.1,3.8-1.8,5.5-2.4
			c1.6-0.5,3.2-0.8,4.6-0.8c2,0,3.5,0.6,4.3,1.8s1.2,3.3,1.2,6.3c0,0.5-0.2,5.4-0.6,14.7s-0.6,18.4-0.6,27.3c0,9,0.3,15.9,0.9,20.9
			C100.7,381.8,101.6,385.5,103,388z"/>
		<path class="st3" d="M124.3,391c-1.4-1.3-2.4-2.7-3.1-4.1c-0.6-1.4-1-2.8-1-4.4c0-4.5,5.5-13.7,16.6-27.7
			c6.1-7.6,10.8-13.7,14.3-18.4c3.7-5,6.5-9.1,8.4-12.2c1.9-3.1,2.8-5.1,2.8-6.2c0-0.9-0.5-1.5-1.5-1.8c-1-0.3-3.5-0.5-7.4-0.5
			c-8.7,0-15.3,0.3-19.8,0.8c-4.4,0.5-8,1.4-10.6,2.6c-0.5-1.3-0.9-2.6-1.1-3.7c-0.2-1.1-0.4-2.1-0.4-3.1c0-2.1,0.7-3.6,2.2-4.5
			c1.4-0.9,3.9-1.4,7.5-1.4c1.5,0,5.6,0.1,12.3,0.3c6.7,0.2,12.6,0.3,17.7,0.3c2.2,0,4.1,0,5.7-0.1c1.6-0.1,3.1-0.2,4.5-0.4
			c1.3,1.3,2.4,2.5,3,3.9s1,2.6,1,4c0,4.6-5.9,14.2-17.6,28.8c-3.5,4.4-6.2,7.8-8.1,10.3c-5.2,6.6-9.3,12.2-12.4,16.9
			c-3.1,4.7-4.6,7.5-4.6,8.6c0,0.8,1.2,1.4,3.5,1.8c2.3,0.4,5.9,0.6,10.9,0.6c7.7,0,13.9-0.3,18.6-0.8c4.7-0.5,8.3-1.3,10.9-2.5
			c0.5,1.3,0.8,2.5,1.1,3.6c0.3,1.1,0.4,2,0.4,2.9c0,2.4-0.7,4-2.2,4.9c-1.5,0.9-4.5,1.4-9.1,1.4c-2.8,0-7.5-0.2-14.2-0.5
			c-6.7-0.3-11.9-0.5-15.8-0.5c-2.6,0-4.9,0.1-6.9,0.2C127.9,390.5,126,390.7,124.3,391z"/>
		<path class="st3" d="M213.1,388c-1.8,1-3.6,1.7-5.3,2.2c-1.7,0.5-3.3,0.8-4.8,0.8c-2.1,0-3.5-0.6-4.3-1.7
			c-0.8-1.2-1.2-3.4-1.2-6.7c0-1.7,0.2-7,0.5-16c0.4-9,0.5-17.2,0.5-24.6c0-9.5-0.3-16.8-0.9-21.9c-0.6-5.1-1.5-8.8-2.7-11.1
			c2-1.1,3.8-1.8,5.5-2.4c1.6-0.5,3.2-0.8,4.6-0.8c2,0,3.5,0.6,4.3,1.8s1.2,3.3,1.2,6.3c0,0.5-0.2,5.4-0.6,14.7s-0.6,18.4-0.6,27.3
			c0,9,0.3,15.9,0.9,20.9C210.8,381.8,211.8,385.5,213.1,388z"/>
		<path class="st3" d="M272.1,392.7c-6,0-11.6-1-16.8-3c-5.2-2-9.8-4.9-13.8-8.6c-4.2-4-7.4-8.7-9.6-14c-2.1-5.3-3.2-11.2-3.2-17.8
			c0-6.4,1.1-12.4,3.4-17.9c2.3-5.5,5.7-10.4,10.2-14.6c4.4-4.1,9.4-7.3,15.2-9.4c5.8-2.1,12.1-3.2,18.9-3.2c13.3,0,24,3.8,32,11.3
			c8,7.5,12,17.6,12,30.1c0,6.2-1.1,12-3.3,17.5c-2.2,5.5-5.4,10.4-9.5,14.7c-4.8,5-10.1,8.7-16,11.1
			C285.7,391.5,279.2,392.7,272.1,392.7z M308.2,346.5c0-9.9-3-17.9-9-23.9c-6-6-14-9-24-9c-10.3,0-18.6,3.2-24.8,9.5
			s-9.3,14.8-9.3,25.3c0,10.2,3,18.5,9,24.9c6,6.4,13.8,9.6,23.5,9.6c10.2,0,18.6-3.4,25-10.1C304.9,366,308.2,357.3,308.2,346.5z"
			/>
		<path class="st3" d="M391.5,388c-1.9,1-3.6,1.8-5.3,2.3c-1.6,0.5-3.1,0.8-4.4,0.8c-2.1,0-3.6-0.6-4.4-1.8
			c-0.8-1.2-1.2-3.4-1.2-6.8c0-2,0.2-7.3,0.6-15.9c0.4-8.6,0.6-16.1,0.6-22.7c0-10.9-0.3-19.3-0.9-25.3c-0.6-6-1.5-10-2.7-12h2.5
			c2.4,0,6.2-0.2,11.2-0.6c5.1-0.4,8.9-0.6,11.5-0.6c9,0,16,2.2,21.1,6.5c5.1,4.3,7.6,10.3,7.6,17.8c0,8.8-3,15.9-9,21.4
			c-6,5.5-13.9,8.3-23.5,8.3c-1.5,0-2.9,0-4.1-0.1c-1.2-0.1-2.4-0.2-3.5-0.3c0,7.5,0.4,13.5,1,18.2
			C389.3,381.9,390.2,385.5,391.5,388z M387.8,350.3c1.1,0.2,2.3,0.3,3.5,0.4c1.2,0.1,2.5,0.1,3.9,0.1c6.5,0,11.6-1.7,15.3-5.2
			c3.7-3.4,5.5-8.2,5.5-14.3c0-5.5-1.6-9.7-4.8-12.6c-3.2-2.9-7.9-4.3-14.2-4.3c-1.2,0-2.5,0.1-3.8,0.2c-1.3,0.1-2.8,0.4-4.4,0.7
			c-0.3,5.4-0.5,10.7-0.7,15.7c-0.2,5.1-0.2,10-0.2,14.7V350.3z"/>
		<path class="st3" d="M456.6,381.2c1.7,0.2,3.3,0.3,4.9,0.4c1.6,0.1,3.3,0.1,4.9,0.1c5.7,0,10.1-0.3,13.4-0.8s6-1.3,8.1-2.5
			c0.8,1.3,1.4,2.6,1.7,3.9c0.4,1.2,0.6,2.5,0.6,3.7c0,1.9-0.7,3.2-2.1,3.9s-4,1.1-7.7,1.1c-1.3,0-3.9-0.1-7.6-0.2
			c-3.7-0.1-6.8-0.2-9.1-0.2c-3.3,0-6.7,0.1-10.1,0.2c-3.4,0.2-5.1,0.2-5.1,0.2c-1.3,0-2.3-0.3-2.8-0.9c-0.5-0.6-0.8-1.7-0.8-3.3
			c0-0.8,0.1-2.8,0.3-6.1c0.7-12.5,1.1-24.3,1.1-35.5c0-10.5-0.3-18.6-0.9-24.2c-0.6-5.6-1.6-9.7-2.9-12.2c1.8-1,3.5-1.7,5.2-2.2
			s3.2-0.8,4.7-0.8c2.2,0,3.7,0.6,4.5,1.7c0.8,1.1,1.2,3.4,1.2,6.9c0,1-0.1,3.7-0.3,8.1c-0.7,16.9-1.1,32.8-1.1,47.8V381.2z"/>
		<path class="st3" d="M498.1,308.9c1.7-1,3.4-1.7,5.1-2.2c1.7-0.5,3.3-0.8,4.9-0.8c2.1,0,3.5,0.6,4.3,1.8c0.8,1.2,1.2,3.6,1.2,7.3
			c0,1.6-0.2,6.4-0.7,14.4c-0.4,8-0.7,15.1-0.7,21.5c0,11.8,1.7,20.1,5,24.9c3.3,4.9,9,7.3,16.9,7.3c9.2,0,15.9-3.1,20-9.4
			c4.1-6.3,6.2-16.5,6.2-30.6c0-8.8-0.5-16-1.5-21.6c-1-5.6-2.5-9.6-4.5-12.1c1.7-1.2,3.3-2.1,4.7-2.7c1.4-0.6,2.7-0.9,3.9-0.9
			c3.1,0,5.2,1.6,6.3,4.8c1.1,3.2,1.7,10.5,1.7,22c0,21.6-3,37-8.9,46.3c-5.9,9.3-15.7,13.9-29.3,13.9c-11.2,0-19.3-2.9-24.2-8.7
			c-5-5.8-7.4-15.3-7.4-28.5c0-2.9,0.1-7.1,0.3-12.6c0.2-5.4,0.3-9.4,0.3-11.9c0-5.4-0.3-9.9-0.9-13.5
			C500.3,314.1,499.4,311.2,498.1,308.9z"/>
		<path class="st3" d="M591,378c1.7,0.9,3.4,1.6,5.2,2c1.7,0.4,3.6,0.6,5.6,0.6c4.7,0,8.4-1.1,11.1-3.2s4-5,4-8.6
			c0-4.3-3.5-9.3-10.6-15l-0.1-0.1c-0.1-0.1-0.3-0.2-0.5-0.4c-10.2-8.1-15.3-15.3-15.3-21.6c0-2.9,0.6-5.7,1.9-8.5
			c1.3-2.8,3.1-5.3,5.4-7.7c3.5-3.4,7.3-6,11.3-7.8c4-1.8,8.1-2.7,12.4-2.7c3.1,0,5.4,0.5,6.9,1.5c1.5,1,2.3,2.6,2.3,4.6
			c0,0.7-0.3,1.6-0.8,2.8c-0.5,1.2-1.3,2.5-2.2,4.1c-1.5-0.6-3.1-1.1-4.7-1.4c-1.6-0.3-3.2-0.5-4.9-0.5c-5,0-9,1.1-11.8,3.4
			c-2.9,2.3-4.3,5.4-4.3,9.3c0,2.4,0.6,4.5,1.7,6.4c1.2,1.9,3.3,4.2,6.5,6.9c0.5,0.4,1.2,1,2.1,1.7c10.7,9,16.1,16.6,16.1,22.8
			c0,2.4-0.4,4.7-1.3,7c-0.9,2.3-2.1,4.5-3.8,6.7c-2.9,3.7-6.4,6.5-10.7,8.5c-4.3,2-8.9,3-13.8,3c-3.3,0-5.9-0.6-7.6-1.7
			c-1.7-1.2-2.6-2.9-2.6-5.1c0-1,0.2-2.1,0.6-3.3S590.1,379.3,591,378z"/>
	</g>
</g>
</svg>
