<svg id="Layer_1" data-name="Layer 1" xmlns="http://www.w3.org/2000/svg" viewBox="0 0 140.27 140.27"><defs><style>.cls-1{fill:#eee;}.cls-2{fill:#555658;}.cls-3{fill:#d86943;}.cls-4{fill:#575757;}</style></defs><title>about</title><circle class="cls-1" cx="70.13" cy="70.13" r="69"/><path class="cls-2" d="M85,155.17A70.13,70.13,0,1,1,155.17,85,70.21,70.21,0,0,1,85,155.17Zm0-138A67.87,67.87,0,1,0,152.91,85,67.94,67.94,0,0,0,85,17.17Z" transform="translate(-14.91 -14.91)"/><path class="cls-3" d="M63.59,123.55v-.22a6.34,6.34,0,0,1-1.81,1,6,6,0,0,1-2.08.35,6.2,6.2,0,1,1,6.2-6.2v5a1.15,1.15,0,0,1-1.15,1.15,1.12,1.12,0,0,1-.83-.34A1.11,1.11,0,0,1,63.59,123.55Zm-3.89-8.94a3.76,3.76,0,0,0-1.53.31A3.88,3.88,0,0,0,56.12,117a3.87,3.87,0,0,0,0,3,3.88,3.88,0,0,0,2.05,2.07,3.9,3.9,0,0,0,3,0,3.94,3.94,0,0,0,1.23-.84,4,4,0,0,0,.83-1.23,3.85,3.85,0,0,0,0-3,4,4,0,0,0-.83-1.23,3.94,3.94,0,0,0-1.23-.84A3.74,3.74,0,0,0,59.7,114.61Z" transform="translate(-14.91 -14.91)"/><path class="cls-3" d="M70,113.67a5.89,5.89,0,0,1,3.89-1.37,6.29,6.29,0,0,1,5.75,3.81,6.2,6.2,0,0,1,.45,2.39,5.93,5.93,0,0,1-1.82,4.38,6.2,6.2,0,0,1-10.59-4.38V108.14A1.12,1.12,0,0,1,68.82,107a1.14,1.14,0,0,1,.83.33,1.1,1.1,0,0,1,.34.82Zm3.89,8.71a3.75,3.75,0,0,0,1.52-.31,3.94,3.94,0,0,0,1.23-.84,4,4,0,0,0,.83-1.23,3.85,3.85,0,0,0,0-3,4,4,0,0,0-.83-1.23,3.94,3.94,0,0,0-1.23-.84,3.9,3.9,0,0,0-3,0A3.88,3.88,0,0,0,70.29,117a3.87,3.87,0,0,0,0,3,3.88,3.88,0,0,0,2.05,2.07A3.78,3.78,0,0,0,73.87,122.39Z" transform="translate(-14.91 -14.91)"/><path class="cls-3" d="M94.25,118.5a5.93,5.93,0,0,1-1.82,4.38,6.2,6.2,0,1,1,0-8.77,6.09,6.09,0,0,1,1.36,2A6.36,6.36,0,0,1,94.25,118.5ZM88,114.61a3.76,3.76,0,0,0-1.53.31A3.88,3.88,0,0,0,84.46,117a3.87,3.87,0,0,0,0,3,3.88,3.88,0,0,0,2.05,2.07,3.9,3.9,0,0,0,3,0,3.94,3.94,0,0,0,1.23-.84,4,4,0,0,0,.83-1.23,3.85,3.85,0,0,0,0-3,4,4,0,0,0-.83-1.23,3.94,3.94,0,0,0-1.23-.84A3.74,3.74,0,0,0,88,114.61Z" transform="translate(-14.91 -14.91)"/><path class="cls-3" d="M106.41,124.7a1.09,1.09,0,0,1-.82-.33,1.16,1.16,0,0,1-.33-.81,5.14,5.14,0,0,1-1.62.87,6,6,0,0,1-1.85.27,5.52,5.52,0,0,1-2.24-.46,5.88,5.88,0,0,1-3.08-3.08,5.54,5.54,0,0,1-.46-2.24v-5.47a1.11,1.11,0,0,1,.34-.81,1.16,1.16,0,0,1,2,.81v5.47a3.39,3.39,0,0,0,.27,1.35,3.47,3.47,0,0,0,1.84,1.84,3.47,3.47,0,0,0,2.69,0,3.51,3.51,0,0,0,1.11-.75,3.54,3.54,0,0,0,.75-1.1,3.35,3.35,0,0,0,.27-1.35v-5.47a1.11,1.11,0,0,1,.34-.81,1.12,1.12,0,0,1,.83-.34,1.15,1.15,0,0,1,1.15,1.15v10.1a1.11,1.11,0,0,1-.34.81A1.12,1.12,0,0,1,106.41,124.7Z" transform="translate(-14.91 -14.91)"/><path class="cls-3" d="M110.39,112.3h.52v-4.16a1.11,1.11,0,0,1,.34-.81,1.12,1.12,0,0,1,.83-.34,1.15,1.15,0,0,1,1.15,1.15v4.16h1.38a1.09,1.09,0,0,1,.81.34,1.12,1.12,0,0,1,.33.81,1.13,1.13,0,0,1-.33.83,1.09,1.09,0,0,1-.81.34h-1.38v5.57a2,2,0,0,0,2.21,2.2,1.09,1.09,0,0,1,.81.34,1.17,1.17,0,0,1,0,1.64,1.09,1.09,0,0,1-.81.34q-4.53,0-4.53-4.52v-5.57h-.52a1.1,1.1,0,0,1-.8-.34,1.13,1.13,0,0,1-.34-.83,1.11,1.11,0,0,1,.34-.81A1.1,1.1,0,0,1,110.39,112.3Z" transform="translate(-14.91 -14.91)"/><circle class="cls-3" cx="83.36" cy="47.65" r="4.69"/><path class="cls-4" d="M96.39,83.79c1.23-1.41,2.44-2.84,3.7-4.23,2-2.25,5-3.85,5.14-7.5-.59,3.45-.12,7-2.17,10.15a2.12,2.12,0,0,0,.29,1.89c1.05,1.36,2.1,2.54-.7,3.05,1.06,1.39,2.29,2.5,2.78,3.88.24.66-.91,1.82-1.27,2.48l-3-.27,1.76-2.43-.15-.39c-.57.34-1.12.7-1.71,1-.21.11-.64.15-.74,0a1.4,1.4,0,0,1-.36-.93c.11-1.2.31-2.39.48-3.59l-.6-.24c-1,1.63-2,3.22-2.85,4.91-1.26,2.51-3,4.28-5.88,4.78-2.61.46-5.18,1.55-7.78,1.56a9.47,9.47,0,0,1-7.17-3.63c-.34-.4-.71-.76-1.12-1.18-1.24,2.89,2.25,3.5,3,6.14A28.21,28.21,0,0,1,67.72,87.94c0-.07,0-.18,0-.23-1.84-2.25-2.06-4.39.4-6.38a.89.89,0,0,0,.17-.67c-.38-4.32.88-8.94-1.58-12.88-2.72-4.34-1.66-8.9-1.52-13.45q.1-3.54.23-7.07a2.92,2.92,0,0,1,.21-1.13,47.28,47.28,0,0,1,2.56-5A13.34,13.34,0,0,1,70.49,39a8.71,8.71,0,0,0,1.89-2.35c3.16-1.31,3.3-1.51,2-3.52,6-5.25,12.76-7.09,20.4-4,5.94,2.38,10.07,6.87,10.37,11.17,1.89.18,2.1,1.38,2.16,3.15.07,2,.9,3.91,1.35,5.87a13.18,13.18,0,0,1,.61,3.4,57.55,57.55,0,0,1-.82,9.51c-.59,2.79-2,5.41-2.85,7.72l.42-4.74c-1.23,2.67-2.69,4.86-5.93,5-3.7.16-6.32-1.46-9-4.11-2.33-2.31-.84-5.11-2.29-7.31l3.14-2.54-1.79-.45.09-.29c3,.21,6.11.26,9.13.68s6.15,1.14,6.51,5.48l.74-.48c.08-.63.47-1.46.2-1.85-1.58-2.29-.88-4.91-1.22-7.37a10.41,10.41,0,0,0-2-4.67,32.78,32.78,0,0,0-4-4.45,5.38,5.38,0,0,0-2.92-1.74c-4.36-.34-8.78-.86-13,1.1a2.05,2.05,0,0,0-1,.8c-.66,1.59-1.21,3.23-1.8,4.84A3,3,0,0,0,80.5,49c.23,3.26.25,3.26-.94,5.65l8.29.69v.24l-2.65.14c0,.19-.07.3,0,.34,4,4.29,1.79,8.68.31,13.11-.39,1.17-.92,3.15-.4,3.59.94.8,2.62.82,4,1,2.23.26,4.48.38,6.87.56l-1.67-2.67.33-.3a26.59,26.59,0,0,1,3.08,4A3.09,3.09,0,0,1,97.33,78c-1.56,1.85-1.54,3.76-.86,5.85l-1.71-5-1.07.27c-.55-.9-1-2.53-1.66-2.57a47.92,47.92,0,0,0-6.82.36l0,.51,6.89.5v.3H81.3c.11.52.13,1,.25,1.05a24.72,24.72,0,0,0,4.62.78c2.33,0,4.66-.26,7-.42l-2.91,3.43-2.15-1.55-1.42,1.31L85.41,81.2,85,84.11l5,.48c-4,2.39-.37,3,.48,4.52L95,83.87,96,86.54h.43ZM74.62,80.11l1-.19c1-2.3-1.23-5.12.86-7.16,1.8-1.76,3.88-3.24,5.83-4.84l-.42-.69c-1.21.42-2.41.84-3.62,1.25-1.64.55-4.06.63-4.73,1.76-.81,1.36-.29,3.62-.07,5.45A30.52,30.52,0,0,0,74.62,80.11Zm26.92-18.28-2.45-3.66L97.4,61.63Z" transform="translate(-14.91 -14.91)"/><path class="cls-4" d="M98.26,98l1.16-4.33,2.45,2.15-3,2.58Z" transform="translate(-14.91 -14.91)"/></svg>