<svg id="Layer_1" data-name="Layer 1" xmlns="http://www.w3.org/2000/svg" viewBox="0 0 140.27 140.27"><defs><style>.cls-1{fill:#eee;}.cls-2{fill:#555658;}.cls-3{fill:none;}.cls-4{fill:#666;}.cls-5{fill:#d86943;}</style></defs><title>DNK</title><circle class="cls-1" cx="70.13" cy="70.13" r="69"/><path class="cls-2" d="M85,155.17A70.13,70.13,0,1,1,155.17,85,70.21,70.21,0,0,1,85,155.17Zm0-138A67.87,67.87,0,1,0,152.91,85,67.94,67.94,0,0,0,85,17.17Z" transform="translate(-14.91 -14.91)"/><path class="cls-3" d="M53.59,134.94c.18-.25.21-.47,0-.6s-.37,0-.56.22-.19.48,0,.6S53.4,135.2,53.59,134.94Z" transform="translate(-14.91 -14.91)"/><path class="cls-3" d="M51.55,133.47c.18-.25.21-.47,0-.6s-.37,0-.56.22-.19.48,0,.6S51.37,133.73,51.55,133.47Z" transform="translate(-14.91 -14.91)"/><path class="cls-3" d="M72.64,107.41c-.22.31-.24.57-.06.7s.43,0,.65-.29a.65.65,0,0,0,.17-.55l-.3-.19A.69.69,0,0,0,72.64,107.41Z" transform="translate(-14.91 -14.91)"/><path class="cls-3" d="M50.31,129.79c-.19.26-.19.48,0,.6s.38,0,.56-.22.21-.47,0-.6S50.5,129.52,50.31,129.79Z" transform="translate(-14.91 -14.91)"/><path class="cls-3" d="M51.33,130.53c-.19.26-.19.48,0,.6s.38,0,.56-.22.21-.47,0-.6S51.52,130.26,51.33,130.53Z" transform="translate(-14.91 -14.91)"/><path class="cls-3" d="M71.45,107.29c.2.14.43,0,.65-.29s.26-.55.06-.7-.42,0-.65.29S71.28,107.17,71.45,107.29Z" transform="translate(-14.91 -14.91)"/><path class="cls-3" d="M72.62,103.9l.57-.1h.1a.29.29,0,0,0-.09-.11C73,103.59,72.83,103.66,72.62,103.9Z" transform="translate(-14.91 -14.91)"/><path class="cls-3" d="M77.92,101.9a.31.31,0,0,0,.36,0l-.48-.27A.3.3,0,0,0,77.92,101.9Z" transform="translate(-14.91 -14.91)"/><path class="cls-3" d="M80.17,103.53a.3.3,0,0,0,.35,0,.63.63,0,0,0-.34-.6C80,103.19,80,103.41,80.17,103.53Z" transform="translate(-14.91 -14.91)"/><path class="cls-3" d="M53.7,129.43c.18-.25.21-.47,0-.6s-.37,0-.56.22-.19.48,0,.6S53.51,129.68,53.7,129.43Z" transform="translate(-14.91 -14.91)"/><path class="cls-3" d="M54.51,127.23c.18-.25.21-.47,0-.6s-.37,0-.56.22-.19.48,0,.6S54.33,127.48,54.51,127.23Z" transform="translate(-14.91 -14.91)"/><path class="cls-3" d="M52.14,128.32c-.19.26-.19.48,0,.6s.38,0,.56-.22.21-.47,0-.6S52.34,128.05,52.14,128.32Z" transform="translate(-14.91 -14.91)"/><path class="cls-3" d="M79,102.71c.15.11.32.06.49-.1l-.57-.33A.35.35,0,0,0,79,102.71Z" transform="translate(-14.91 -14.91)"/><path class="cls-3" d="M53.78,123.91c-.19.26-.19.48,0,.6s.38,0,.56-.22.21-.47,0-.6S54,123.64,53.78,123.91Z" transform="translate(-14.91 -14.91)"/><path class="cls-3" d="M52.76,123.18c-.19.26-.19.48,0,.6s.38,0,.56-.22.21-.47,0-.6S53,122.91,52.76,123.18Z" transform="translate(-14.91 -14.91)"/><path class="cls-3" d="M73.7,108.92c.2.14.43,0,.65-.29s.26-.55.06-.7-.42,0-.65.29S73.53,108.79,73.7,108.92Z" transform="translate(-14.91 -14.91)"/><path class="cls-3" d="M77,101.14l-.2-.11a.27.27,0,0,0,0,.05A.29.29,0,0,0,77,101.14Z" transform="translate(-14.91 -14.91)"/><path class="cls-3" d="M49.29,129.06c-.19.26-.19.48,0,.6s.38,0,.56-.22.21-.47,0-.6S49.49,128.79,49.29,129.06Z" transform="translate(-14.91 -14.91)"/><path class="cls-3" d="M62.38,113.33h.72a.28.28,0,0,0-.12-.24C62.83,113,62.6,113.06,62.38,113.33Z" transform="translate(-14.91 -14.91)"/><path class="cls-3" d="M54.8,124.65c-.19.26-.19.48,0,.6s.38,0,.56-.22.21-.47,0-.6S55,124.38,54.8,124.65Z" transform="translate(-14.91 -14.91)"/><path class="cls-3" d="M51.75,122.44c-.19.26-.19.48,0,.6s.38,0,.56-.22.21-.47,0-.6S51.94,122.17,51.75,122.44Z" transform="translate(-14.91 -14.91)"/><path class="cls-3" d="M56.75,131.64c.18-.25.21-.47,0-.6s-.37,0-.56.22-.19.48,0,.6S56.56,131.89,56.75,131.64Z" transform="translate(-14.91 -14.91)"/><path class="cls-3" d="M55.93,133.84c.18-.25.21-.47,0-.6s-.37,0-.56.22-.19.48,0,.6S55.75,134.1,55.93,133.84Z" transform="translate(-14.91 -14.91)"/><path class="cls-3" d="M73.86,111.65a1,1,0,0,0-.15.29,2.76,2.76,0,0,0,.91-.35.28.28,0,0,0-.12-.23C74.34,111.24,74.1,111.32,73.86,111.65Z" transform="translate(-14.91 -14.91)"/><path class="cls-3" d="M55.2,130.53c-.19.26-.19.48,0,.6s.38,0,.56-.22.21-.47,0-.6S55.39,130.26,55.2,130.53Z" transform="translate(-14.91 -14.91)"/><path class="cls-3" d="M76.67,109.56c-.17-.12-.42,0-.65.29s-.24.57-.06.7a.28.28,0,0,0,.22,0,3.31,3.31,0,0,0,.34-.22l.1-.11C76.82,110,76.87,109.7,76.67,109.56Z" transform="translate(-14.91 -14.91)"/><path class="cls-3" d="M80.6,96.39c-.22.31-.24.57-.06.7s.31.06.47-.09c0-.3,0-.61-.09-.9A.9.9,0,0,0,80.6,96.39Z" transform="translate(-14.91 -14.91)"/><path class="cls-3" d="M63.55,97.49c-.22.31-.24.57-.06.7s.43,0,.65-.29.26-.55.06-.7S63.78,97.16,63.55,97.49Z" transform="translate(-14.91 -14.91)"/><path class="cls-3" d="M94.82,64.25c.32-.61.36-1.1,0-1.3s-.74.07-1.1.75-.31,1.13,0,1.3S94.49,64.88,94.82,64.25Z" transform="translate(-14.91 -14.91)"/><path class="cls-3" d="M96.12,57.8c-.32-.17-.74.07-1.1.75s-.31,1.13,0,1.3.77-.11,1.1-.75S96.5,58,96.12,57.8Z" transform="translate(-14.91 -14.91)"/><path class="cls-3" d="M97.69,49.56c.38.2.77-.11,1.1-.75s.36-1.1,0-1.3-.74.07-1.1.75S97.35,49.39,97.69,49.56Z" transform="translate(-14.91 -14.91)"/><path class="cls-3" d="M97.12,37.59c.38.2.77-.11,1.1-.75s.36-1.1,0-1.3-.74.07-1.1.75S96.78,37.42,97.12,37.59Z" transform="translate(-14.91 -14.91)"/><path class="cls-3" d="M69.76,102c.21-.29.26-.55.06-.7s-.42,0-.65.29-.24.57-.06.7S69.54,102.26,69.76,102Z" transform="translate(-14.91 -14.91)"/><path class="cls-3" d="M67.61,103.76c.21-.29.26-.55.06-.7s-.42,0-.65.29-.24.57-.06.7S67.38,104.06,67.61,103.76Z" transform="translate(-14.91 -14.91)"/><path class="cls-3" d="M68.14,104.16c-.22.31-.24.57-.06.7s.43,0,.65-.29.26-.55.06-.7S68.38,103.83,68.14,104.16Z" transform="translate(-14.91 -14.91)"/><path class="cls-3" d="M66.11,109.38c.21-.29.26-.55.06-.7s-.42,0-.65.29-.24.57-.06.7S65.89,109.69,66.11,109.38Z" transform="translate(-14.91 -14.91)"/><path class="cls-3" d="M90,74.72c.38.2.77-.11,1.1-.75s.36-1.1,0-1.3-.74.07-1.1.75S89.67,74.54,90,74.72Z" transform="translate(-14.91 -14.91)"/><path class="cls-3" d="M91.33,67c-.32-.17-.74.07-1.1.75s-.31,1.13,0,1.3.77-.11,1.1-.75S91.71,67.16,91.33,67Z" transform="translate(-14.91 -14.91)"/><path class="cls-3" d="M66.58,106.37c.21-.29.26-.55.06-.7s-.42,0-.65.29-.24.57-.06.7S66.35,106.67,66.58,106.37Z" transform="translate(-14.91 -14.91)"/><path class="cls-3" d="M91.55,62.57c-.34.65-.31,1.13,0,1.3s.77-.11,1.1-.75.36-1.1,0-1.3S91.91,61.89,91.55,62.57Z" transform="translate(-14.91 -14.91)"/><path class="cls-3" d="M61.21,112.57c-.22.31-.24.57-.06.7s.43,0,.65-.29.26-.55.06-.7S61.44,112.24,61.21,112.57Z" transform="translate(-14.91 -14.91)"/><path class="cls-3" d="M95.54,48.44c.38.2.77-.11,1.1-.75s.36-1.1,0-1.3-.74.07-1.1.75S95.21,48.27,95.54,48.44Z" transform="translate(-14.91 -14.91)"/><path class="cls-3" d="M48.5,131.27c.18-.25.21-.47,0-.6s-.37,0-.56.22-.19.48,0,.6S48.31,131.52,48.5,131.27Z" transform="translate(-14.91 -14.91)"/><path class="cls-3" d="M76.3,96.45a4,4,0,0,1,.67.1.29.29,0,0,0-.12-.27C76.71,96.17,76.5,96.23,76.3,96.45Z" transform="translate(-14.91 -14.91)"/><path class="cls-3" d="M75.07,95.75c-.22.31-.24.57-.06.7s.43,0,.65-.29.26-.55.06-.7S75.31,95.42,75.07,95.75Z" transform="translate(-14.91 -14.91)"/><path class="cls-3" d="M49.51,132c.18-.25.21-.47,0-.6s-.37,0-.56.22-.19.48,0,.6S49.33,132.26,49.51,132Z" transform="translate(-14.91 -14.91)"/><path class="cls-3" d="M47.25,127.59c-.19.26-.19.48,0,.6s.38,0,.56-.22.21-.47,0-.6S47.45,127.32,47.25,127.59Z" transform="translate(-14.91 -14.91)"/><path class="cls-3" d="M60.53,123.18c.18-.25.21-.47,0-.6s-.37,0-.56.22-.19.48,0,.6S60.35,123.44,60.53,123.18Z" transform="translate(-14.91 -14.91)"/><path class="cls-3" d="M93.65,41.62c.38.2.77-.11,1.1-.75s.36-1.1,0-1.3-.74.07-1.1.75S93.31,41.44,93.65,41.62Z" transform="translate(-14.91 -14.91)"/><path class="cls-3" d="M71.82,96.74c.21-.29.26-.55.06-.7s-.42,0-.65.29-.24.57-.06.7S71.6,97,71.82,96.74Z" transform="translate(-14.91 -14.91)"/><path class="cls-3" d="M50.53,132.74c.18-.25.21-.47,0-.6s-.37,0-.56.22-.19.48,0,.6S50.35,133,50.53,132.74Z" transform="translate(-14.91 -14.91)"/><path class="cls-3" d="M59,122.08c-.19.26-.19.48,0,.6s.38,0,.56-.22.21-.47,0-.6S59.18,121.81,59,122.08Z" transform="translate(-14.91 -14.91)"/><path class="cls-3" d="M91.5,40.5c.38.2.77-.11,1.1-.75s.36-1.1,0-1.3-.74.07-1.1.75S91.17,40.32,91.5,40.5Z" transform="translate(-14.91 -14.91)"/><path class="cls-3" d="M70.14,99.63c.2.14.43,0,.65-.29s.26-.55.06-.7a.27.27,0,0,0-.1,0,2.35,2.35,0,0,1-.69.55C70,99.37,70,99.54,70.14,99.63Z" transform="translate(-14.91 -14.91)"/><path class="cls-3" d="M92.35,45.45c.32-.61.36-1.1,0-1.3s-.74.07-1.1.75a1.6,1.6,0,0,0-.23.89l.64.43A1.45,1.45,0,0,0,92.35,45.45Z" transform="translate(-14.91 -14.91)"/><path class="cls-3" d="M103.87,56c-.32-.17-.74.07-1.1.75a2.25,2.25,0,0,0-.19.51,8.43,8.43,0,0,1,1.1.4,2.78,2.78,0,0,0,.22-.35C104.22,56.71,104.26,56.22,103.87,56Z" transform="translate(-14.91 -14.91)"/><path class="cls-3" d="M87.89,42h-.1c-.09.11-.19.21-.28.32s-.69.51-.22.85L87.9,42Z" transform="translate(-14.91 -14.91)"/><path class="cls-3" d="M46,123.91c-.19.26-.19.48,0,.6s.38,0,.56-.22.21-.47,0-.6S46.23,123.64,46,123.91Z" transform="translate(-14.91 -14.91)"/><path class="cls-3" d="M101.75,56.2c.32-.61.36-1.1,0-1.3s-.74.07-1.1.75-.31,1.13,0,1.3S101.42,56.83,101.75,56.2Z" transform="translate(-14.91 -14.91)"/><path class="cls-3" d="M88.22,59.63h-.08l.06.05,0,0Z" transform="translate(-14.91 -14.91)"/><path class="cls-3" d="M114.82,57.22c-.34.65-.31,1.13,0,1.3a.47.47,0,0,0,.35,0c.18-.71.38-1.41.6-2.1C115.49,56.4,115.13,56.63,114.82,57.22Z" transform="translate(-14.91 -14.91)"/><path class="cls-3" d="M99.33,62.09s.06,0,.1,0c-.13-.22-.24-.42-.34-.62A.56.56,0,0,0,99.33,62.09Z" transform="translate(-14.91 -14.91)"/><path class="cls-3" d="M83.07,82.76c.38.2.77-.11,1.1-.75s.36-1.1,0-1.3-.74.07-1.1.75S82.74,82.59,83.07,82.76Z" transform="translate(-14.91 -14.91)"/><path class="cls-3" d="M108.16,58.26c-.32-.17-.74.07-1.1.75a2.41,2.41,0,0,0-.12.28l.08,0c.31.2.63.37.94.57a2.79,2.79,0,0,0,.21-.33C108.51,58.95,108.54,58.46,108.16,58.26Z" transform="translate(-14.91 -14.91)"/><path class="cls-3" d="M94.5,46.57c.32-.61.36-1.1,0-1.3s-.74.07-1.1.75-.31,1.13,0,1.3S94.17,47.21,94.5,46.57Z" transform="translate(-14.91 -14.91)"/><path class="cls-3" d="M74.44,91.92c.21-.29.26-.55.06-.7s-.42,0-.65.29-.24.57-.06.7S74.22,92.23,74.44,91.92Z" transform="translate(-14.91 -14.91)"/><path class="cls-3" d="M112.48,61.8c.32-.61.36-1.1,0-1.3s-.74.07-1.1.75a2.44,2.44,0,0,0-.18.44l1,.53A2.73,2.73,0,0,0,112.48,61.8Z" transform="translate(-14.91 -14.91)"/><path class="cls-3" d="M106,57.14c-.32-.17-.74.07-1.1.75a2.41,2.41,0,0,0-.13.31l1.05.56a2.79,2.79,0,0,0,.2-.31C106.36,57.83,106.4,57.34,106,57.14Z" transform="translate(-14.91 -14.91)"/><path class="cls-3" d="M87.61,76.69c-.32-.17-.74.07-1.1.75a2.41,2.41,0,0,0-.13.32,2.21,2.21,0,0,1,1.48-.44A.55.55,0,0,0,87.61,76.69Z" transform="translate(-14.91 -14.91)"/><path class="cls-3" d="M84.67,70.61c.32-.61.36-1.1,0-1.3s-.74.07-1.1.75a2.42,2.42,0,0,0-.14.33l.94.7A2.44,2.44,0,0,0,84.67,70.61Z" transform="translate(-14.91 -14.91)"/><path class="cls-3" d="M48.07,125.38c-.19.26-.19.48,0,.6s.38,0,.56-.22.21-.47,0-.6S48.27,125.11,48.07,125.38Z" transform="translate(-14.91 -14.91)"/><path class="cls-3" d="M86.81,71.73c.32-.61.36-1.1,0-1.3s-.74.07-1.1.75a1.77,1.77,0,0,0-.24.82,3.78,3.78,0,0,1,.48.52C86.24,72.53,86.54,72.25,86.81,71.73Z" transform="translate(-14.91 -14.91)"/><path class="cls-3" d="M85.94,65.47c-.34.65-.31,1.13,0,1.3s.77-.11,1.1-.75a1.24,1.24,0,0,0,.18-1.11,5,5,0,0,1-.59-.2A1.44,1.44,0,0,0,85.94,65.47Z" transform="translate(-14.91 -14.91)"/><path class="cls-3" d="M86.31,83.14c.32-.61.36-1.1,0-1.3s-.74.07-1.1.75-.31,1.13,0,1.3a.46.46,0,0,0,.11,0l.49-.12A2,2,0,0,0,86.31,83.14Z" transform="translate(-14.91 -14.91)"/><path class="cls-3" d="M80.36,67.07a.55.55,0,0,0-.6.11,2.51,2.51,0,0,0,.62,1.19h0C80.7,67.76,80.74,67.27,80.36,67.07Z" transform="translate(-14.91 -14.91)"/><path class="cls-3" d="M91.9,78.93a.52.52,0,0,0-.54.06l.81.42A.51.51,0,0,0,91.9,78.93Z" transform="translate(-14.91 -14.91)"/><path class="cls-3" d="M81.65,63.23c-.34.65-.31,1.13,0,1.3s.77-.11,1.1-.75.36-1.1,0-1.3S82,62.55,81.65,63.23Z" transform="translate(-14.91 -14.91)"/><path class="cls-3" d="M99.66,77.15c-.32-.17-.74.07-1.1.75A1.29,1.29,0,0,0,98.38,79l1.44-.85C100,77.67,100,77.31,99.66,77.15Z" transform="translate(-14.91 -14.91)"/><path class="cls-3" d="M80.63,62.66c.32-.61.36-1.1,0-1.3-.21-.11-.47,0-.71.22v.59c-.07.43-.11.85-.14,1.28C80.06,63.46,80.36,63.17,80.63,62.66Z" transform="translate(-14.91 -14.91)"/><path class="cls-3" d="M80.7,73.4c-.42.08-.22.52-.17.77l0,.14.42-.8A.41.41,0,0,0,80.7,73.4Z" transform="translate(-14.91 -14.91)"/><path class="cls-3" d="M89.76,77.81a.53.53,0,0,0-.56.08l.83.43A.51.51,0,0,0,89.76,77.81Z" transform="translate(-14.91 -14.91)"/><path class="cls-3" d="M63.17,99.81c-.16-.12-.39,0-.62.25l.21.12a1.47,1.47,0,0,0,.34.35h0C63.32,100.21,63.37,100,63.17,99.81Z" transform="translate(-14.91 -14.91)"/><path class="cls-3" d="M45.11,131.63c-.19.26-.19.48,0,.6s.38,0,.56-.22.21-.47,0-.6S45.3,131.36,45.11,131.63Z" transform="translate(-14.91 -14.91)"/><path class="cls-3" d="M65.45,105.55c.21-.29.26-.55.06-.7s-.42,0-.65.29-.24.57-.06.7S65.23,105.86,65.45,105.55Z" transform="translate(-14.91 -14.91)"/><path class="cls-3" d="M48.36,136.78c-.19.26-.19.48,0,.6s.38,0,.56-.22.21-.46,0-.6S48.56,136.5,48.36,136.78Z" transform="translate(-14.91 -14.91)"/><path class="cls-3" d="M50.2,135.31c-.19.26-.19.48,0,.6s.38,0,.56-.22.21-.47,0-.6S50.39,135,50.2,135.31Z" transform="translate(-14.91 -14.91)"/><path class="cls-3" d="M49.18,134.57c-.19.26-.19.48,0,.6s.38,0,.56-.22.21-.47,0-.6S49.38,134.3,49.18,134.57Z" transform="translate(-14.91 -14.91)"/><path class="cls-3" d="M47.34,136c-.19.26-.19.48,0,.6s.38,0,.56-.22.21-.46,0-.6S47.54,135.77,47.34,136Z" transform="translate(-14.91 -14.91)"/><path class="cls-3" d="M45.93,129.42c-.19.26-.19.48,0,.6s.38,0,.56-.22.21-.47,0-.6S46.12,129.15,45.93,129.42Z" transform="translate(-14.91 -14.91)"/><path class="cls-3" d="M64.18,104.91h-.11l-.49,0a.28.28,0,0,0,.1.16C63.83,105.14,64,105.08,64.18,104.91Z" transform="translate(-14.91 -14.91)"/><path class="cls-3" d="M47.05,124.65c-.19.26-.19.48,0,.6s.38,0,.56-.22.21-.47,0-.6S47.25,124.38,47.05,124.65Z" transform="translate(-14.91 -14.91)"/><path class="cls-3" d="M46.24,126.85c-.19.26-.19.48,0,.6s.38,0,.56-.22.21-.47,0-.6S46.43,126.58,46.24,126.85Z" transform="translate(-14.91 -14.91)"/><path class="cls-3" d="M59.52,107.23a.35.35,0,0,0-.43.06l.51.37A.34.34,0,0,0,59.52,107.23Z" transform="translate(-14.91 -14.91)"/><path class="cls-3" d="M45.22,126.12c-.19.26-.19.48,0,.6s.38,0,.56-.22.21-.47,0-.6S45.41,125.84,45.22,126.12Z" transform="translate(-14.91 -14.91)"/><path class="cls-3" d="M68.51,93.6c-.17-.12-.42,0-.65.29a1.18,1.18,0,0,0-.11.2l.55.4a1.34,1.34,0,0,0,.16-.18C68.66,94,68.71,93.75,68.51,93.6Z" transform="translate(-14.91 -14.91)"/><path class="cls-3" d="M58.45,135.68c-.19.26-.19.48,0,.6s.38,0,.56-.22.21-.47,0-.6S58.65,135.4,58.45,135.68Z" transform="translate(-14.91 -14.91)"/><path class="cls-3" d="M70.7,95.92c.21-.29.26-.55.06-.7s-.42,0-.65.29a1,1,0,0,0-.15.3l.12.11c.11.11.19.21.28.32A.94.94,0,0,0,70.7,95.92Z" transform="translate(-14.91 -14.91)"/><path class="cls-3" d="M56.42,134.21c-.19.26-.19.48,0,.6s.38,0,.56-.22.21-.47,0-.6S56.61,133.93,56.42,134.21Z" transform="translate(-14.91 -14.91)"/><path class="cls-3" d="M69.57,95.11c.21-.29.26-.55.06-.7s-.42,0-.65.29a1.18,1.18,0,0,0-.12.21l.53.41A1.28,1.28,0,0,0,69.57,95.11Z" transform="translate(-14.91 -14.91)"/><path class="cls-3" d="M57.76,118.4c-.19.26-.19.48,0,.6s.38,0,.56-.22.21-.47,0-.6S58,118.13,57.76,118.4Z" transform="translate(-14.91 -14.91)"/><path class="cls-3" d="M51.22,136c-.19.26-.19.48,0,.6s.38,0,.56-.22.21-.47,0-.6S51.41,135.77,51.22,136Z" transform="translate(-14.91 -14.91)"/><path class="cls-3" d="M65,108.57c.21-.29.26-.55.06-.7s-.42,0-.65.29-.24.57-.06.7S64.76,108.88,65,108.57Z" transform="translate(-14.91 -14.91)"/><path class="cls-3" d="M62,99c-.17-.12-.42,0-.65.29l0,0c.17.12.36.25.6.39l0,0C62.19,99.4,62.24,99.14,62,99Z" transform="translate(-14.91 -14.91)"/><path class="cls-3" d="M56.11,136.78c-.19.26-.19.48,0,.6s.38,0,.56-.22.21-.47,0-.6S56.3,136.51,56.11,136.78Z" transform="translate(-14.91 -14.91)"/><path class="cls-3" d="M54.07,135.31c-.19.26-.19.48,0,.6s.38,0,.56-.22.21-.47,0-.6S54.27,135,54.07,135.31Z" transform="translate(-14.91 -14.91)"/><path class="cls-3" d="M55.09,136c-.19.26-.19.48,0,.6s.38,0,.56-.22.21-.47,0-.6S55.28,135.77,55.09,136Z" transform="translate(-14.91 -14.91)"/><path class="cls-3" d="M60.92,98.18a.27.27,0,0,0-.12,0,.64.64,0,0,0,.07.73C61.07,98.58,61.12,98.33,60.92,98.18Z" transform="translate(-14.91 -14.91)"/><path class="cls-3" d="M93.9,80.1h-.4l.33.17.08-.15Z" transform="translate(-14.91 -14.91)"/><path class="cls-3" d="M115.07,51.52c-.34.65-.31,1.13,0,1.3s.77-.11,1.1-.75.36-1.1,0-1.3S115.43,50.84,115.07,51.52Z" transform="translate(-14.91 -14.91)"/><path class="cls-3" d="M77.14,91.43,77,91.3l.57-.79a12.82,12.82,0,0,0-2.1.47c-.28,0-.55.09-.83.13h0c.3.22.31.57,0,.95s-.64.5-1,.27-.31-.56,0-1a1.08,1.08,0,0,1,.13-.14c-.32.06-.63.14-1,.22l-.11.16-.13-.1q-.86.22-1.7.5l.38.08.16.12-.86,1.2-.19-.13.75-1h0l-.33-.07,0-.13-.64.22c-.24.33-.52.43-.78.33-.21.09-.43.17-.64.27a3.55,3.55,0,0,0-1.71.76l.47.35a1.16,1.16,0,0,1,.11-.2c.29-.4.66-.47.95-.26s.31.57,0,.95a1.24,1.24,0,0,1-.17.18l.21.15a1.16,1.16,0,0,1,.11-.21c.29-.4.66-.47.95-.26s.31.57,0,.95a1.24,1.24,0,0,1-.21.22l.21.18a1.18,1.18,0,0,1,.14-.27c.29-.4.66-.47.95-.26s.31.57,0,.95a1,1,0,0,1-.39.34,1.73,1.73,0,0,1,.35,2.09l.11,0c.3.22.31.57,0,.95s-.64.5-1,.27a.51.51,0,0,1-.22-.44,5,5,0,0,1-.71.26,5.2,5.2,0,0,1-2.31-.91,22.18,22.18,0,0,0-3.57-2.2l-.8,1.11-.19-.13.75-1h0l-.24,0A8.94,8.94,0,0,0,60.88,98a.59.59,0,0,1,.14.06c.3.22.31.57,0,.95l0,0,.15.14,0,0c.29-.4.66-.47.95-.26s.31.57,0,.95h0l.17.1c.29-.38.64-.45.93-.24s.31.57,0,.95h0a1.5,1.5,0,0,0,.38.16l.25.21.28-.38h0l-.33-.07.05-.15.41.09.16.12-.4.55c.3.25.6.49.88.76l.35-.48h0l-.33-.07.05-.15.41.09.16.12-.48.67.16.17a2.45,2.45,0,0,1,.52.87l.63-.87h0l-.33-.07.05-.15.41.09.16.12-.86,1.2h0a1.16,1.16,0,0,1-.14.56,1.75,1.75,0,0,1-.58.66.55.55,0,0,1,.46.1c.3.22.31.57,0,.95s-.64.5-1,.27-.31-.56,0-1a1.1,1.1,0,0,1,.21-.22,1.62,1.62,0,0,1-.37.11c-.29.39-.62.48-.93.25a.51.51,0,0,1-.19-.29l-.26,0-4.37-2.91c-.32,1.85-.91,3.45-.06,5.07l.2.16a.57.57,0,0,1,.72,0,.54.54,0,0,1,.18.68l.64.43.12-.17h0l-.33-.07.05-.15.41.09.16.12-.23.31a9.25,9.25,0,0,1,.92.7l.14-.19h0l-.33-.07.05-.15.41.09.16.12-.26.35a4.48,4.48,0,0,1,.75.93l.33-.46h0l-.33-.07.05-.15.41.09.16.12-.59.81v.37c-1,1.39-2.08.36-3.28,0l1,2.5H61c-.22-.21-.24-.53,0-.9s.66-.47.95-.26.31.57,0,.95a1.24,1.24,0,0,1-.2.22h.3s0-.06,0-.09c.29-.4.66-.47.95-.26a.52.52,0,0,1,.22.35H67l.3-.42h0l-.33-.07.05-.15.41.09.16.12-.32.45a3.59,3.59,0,0,0,1.46-.11c.69-.26.13-.45-.22-.53l-.6-.41,0,0-.05,0h0L67.6,112l.05,0-.22-.52v-.32a.75.75,0,0,1,.15-.73.84.84,0,0,1,.5-.36,1.55,1.55,0,0,1,1.3.1,10,10,0,0,1,1.93,1,3.18,3.18,0,0,0,2.17.76,1,1,0,0,1,.18-.47c.29-.4.66-.47.95-.26a.54.54,0,0,1,.18.24,4.52,4.52,0,0,0,.67-.54l.49-.23-.1,0c-.28-.2-.31-.56,0-1s.66-.47.95-.26a.52.52,0,0,1,.21.33.68.68,0,0,0,0-.18c0-.53-.81-.74-1.42-1l.16.12-.86,1.2-.19-.13.75-1h0l-.33-.07.05-.15.4.08-.13-.05a5.68,5.68,0,0,0-.76-.55.71.71,0,0,1-.14.74c-.29.41-.64.5-1,.27s-.31-.56,0-1a.76.76,0,0,1,.6-.36l-.55-.31a.86.86,0,0,1-.19.55c-.29.41-.64.5-1,.27s-.31-.56,0-1a.88.88,0,0,1,.44-.34,4.7,4.7,0,0,1-.38-.31.89.89,0,0,1-.2.53c-.29.41-.64.5-1,.27s-.31-.56,0-1a.73.73,0,0,1,.69-.37l0,0v-1.42l.17-.21a.89.89,0,0,1,.19-.57c.29-.4.66-.47.95-.26a.55.55,0,0,1,.18.23h.38a29.68,29.68,0,0,1,4.61,2.32c.31.15.72.58.95.31a6,6,0,0,0,1.07-2.69.55.55,0,0,1-.43-.1.59.59,0,0,1-.1-.82l-.22-.1a.58.58,0,0,1-.8.11.54.54,0,0,1-.18-.66l-.27-.15a.55.55,0,0,1-.68,0,.52.52,0,0,1-.21-.51l-.4-.22a.54.54,0,0,1-.52-.08.51.51,0,0,1-.2-.31l-.77-.43a.62.62,0,0,1-.16-.07l0,0,0,0a7.09,7.09,0,0,1-.72-.88l-.16.22-.19-.13.21-.29c-.58-1-.38-1.71.58-2.58a.58.58,0,0,1-.3-.11c-.28-.2-.31-.56,0-1s.66-.47.95-.26.31.57,0,.95a1.24,1.24,0,0,1-.17.18l.3,0,0,0c.29-.4.66-.47.95-.26a.51.51,0,0,1,.23.45C78.5,97,79.66,98,81,98.43a10,10,0,0,0,0-1.19.54.54,0,0,1-.6,0c-.28-.2-.31-.56,0-1a.86.86,0,0,1,.48-.36c-.09-.61-.21-1.21-.35-1.8a15.5,15.5,0,0,0-.8-3.78c-.64,0-1.27.08-1.91.16ZM73.4,93.85h0l-.33-.07.05-.15.41.09.16.12L72.83,95l-.19-.13Zm-.75,2.8.41.09.16.12L72.36,98l-.19-.13.75-1h0l-.33-.07ZM72.27,93,71.94,93l.05-.15.41.09.16.12-.86,1.2-.19-.13.75-1Zm-1.2,4.11c-.28-.2-.31-.56,0-1s.66-.47.95-.26.31.57,0,.95S71.38,97.37,71.07,97.14Zm.83,2.33h0l-.33-.07.05-.15.41.09.16.12-.86,1.2-.19-.13Zm-1,2.61-.33-.07.05-.15L71,102l.16.12-.86,1.2-.19-.13.75-1Zm-1,2.61h0l-.33-.07.05-.15.41.09.16.12-.86,1.2-.19-.13Zm-.91,0c-.29.41-.64.5-1,.27s-.31-.56,0-1,.66-.47.95-.26S69.2,104.32,68.93,104.7Zm1-3.56c.3.22.31.57,0,.95s-.64.5-1,.27-.31-.56,0-1S69.63,100.93,69.92,101.14Zm-1.31-.69-.33-.07.05-.15.41.09.16.12-.86,1.2-.19-.13.75-1ZM64.33,98c-.29.41-.64.5-1,.27s-.31-.56,0-1,.66-.47.95-.26S64.61,97.65,64.33,98Zm.34,1.18-.19-.13.75-1h0L64.91,98,65,97.8l.41.09.16.12Zm1.12.81-.19-.13.75-1h0L66,98.77l.05-.15.41.09.16.12Zm.94.68.75-1h0l-.33-.07.05-.15.41.09.16.12-.86,1.2Zm.08,2.51c.29-.4.66-.47.95-.26s.31.57,0,.95-.64.5-1,.27S66.54,103.6,66.82,103.21Zm-1,2.61c.29-.4.66-.47.95-.26s.31.57,0,.95-.64.5-1,.27S65.51,106.21,65.79,105.82Zm.48,2.75c.3.22.31.57,0,.95s-.64.5-1,.27-.31-.56,0-1S66,108.36,66.27,108.57Zm-1.12-.81c.3.22.31.57,0,.95s-.64.5-1,.27-.31-.56,0-1S64.86,107.55,65.15,107.76ZM58.77,105l-.19-.13.75-1h0l-.33-.07.05-.15.41.09.16.12Zm1.91.45c-.29.41-.64.5-1,.27s-.31-.56,0-1,.66-.47.95-.26S61,105.07,60.68,105.45Zm.34,1.18-.19-.13.75-1h0l-.33-.07.05-.15.41.09.16.12Zm1,.72c-.28-.2-.31-.56,0-1s.66-.47.95-.26.31.57,0,.95S62.3,107.58,62,107.35Zm1.12.81c-.28-.2-.31-.56,0-1s.66-.47.95-.26.31.57,0,.95S63.42,108.39,63.1,108.16Zm.09,3.42c-.28-.2-.31-.56,0-1s.66-.47.95-.26.31.57,0,.95S63.52,111.81,63.2,111.59Zm1.12.81c-.28-.2-.31-.56,0-1s.66-.47.95-.26.31.57,0,.95S64.64,112.63,64.32,112.4Zm2.08.54c-.29.41-.64.5-1,.27s-.31-.56,0-1,.66-.47.95-.26S66.68,112.56,66.4,112.94Zm.25-2.25-.19-.13.75-1h0l-.33-.07.05-.15.41.09.16.12Zm.47-3-.19-.13.75-1h0l-.33-.07.05-.15.41.09.16.12Zm1.12.81-.19-.13.75-1h0l-.33-.07.05-.15.41.09.16.12Zm1.12.81-.19-.13.75-1h0l-.33-.07.05-.15.41.09.16.12Zm3.94,1.26-.33-.07.05-.15.41.09.16.12-.86,1.2-.19-.13.75-1Zm-.94-.94c.3.22.31.57,0,.95s-.64.5-1,.27-.31-.56,0-1S72.07,109.41,72.36,109.62Zm-1.12-.81c.3.22.31.57,0,.95s-.64.5-1,.27-.31-.56,0-1S70.95,108.59,71.24,108.8Zm-.06-2.48c-.29.41-.64.5-1,.27s-.31-.56,0-1,.66-.47.95-.26S71.45,105.95,71.18,106.33Zm1-2.61c-.29.41-.64.5-1,.27s-.31-.56,0-1,.66-.47.95-.26S72.48,103.34,72.21,103.72Zm.08-2.34c-.28-.2-.31-.56,0-1s.66-.47.95-.26.31.57,0,.95S72.6,101.61,72.29,101.38Zm7.48,3.78-.33-.07.05-.15.41.09.16.12-.86,1.2-.19-.13.75-1Zm-.94-.94c.3.22.31.57,0,.95s-.64.5-1,.27-.31-.56,0-1S78.54,104,78.83,104.22Zm-1.31-.69-.33-.07.05-.15.41.09.16.12-.86,1.2-.19-.13.75-1Zm-.94-.94c.3.22.31.57,0,.95s-.64.5-1,.27-.31-.56,0-1S76.29,102.39,76.58,102.6Zm-1.12-.81c.3.22.31.57,0,.95s-.64.5-1,.27-.31-.56,0-1S75.16,101.57,75.45,101.78ZM74.33,101c.3.22.31.57,0,.95s-.64.5-1,.27-.31-.56,0-1S74,100.76,74.33,101Zm-.84-2.11-.19-.13.75-1h0l-.33-.07.05-.15.41.09.16.12Zm.47-3-.19-.13.75-1h0l-.33-.07.05-.15.41.09.16.12Zm.86-2.7c-.28-.2-.31-.56,0-1s.66-.47.95-.26.31.57,0,.95S75.13,93.37,74.81,93.14Zm1.12.81c-.28-.2-.31-.56,0-1s.66-.47.95-.26.31.57,0,.95S76.26,94.18,75.94,94Zm1.12.81c-.28-.2-.31-.56,0-1s.66-.47.95-.26.31.57,0,.95S77.38,95,77.06,94.76Zm1.11.77.75-1h0l-.33-.07.05-.15.41.09.16.12-.86,1.2Zm2.06-.36c.3.22.31.57,0,.95s-.64.5-1,.27-.31-.56,0-1S79.94,95,80.23,95.17ZM79,90.94c.3.22.31.57,0,.95s-.64.5-1,.27-.31-.56,0-1S78.72,90.73,79,90.94Z" transform="translate(-14.91 -14.91)"/><path class="cls-3" d="M78.85,91.75c.21-.29.26-.55.06-.7s-.42,0-.65.29-.24.57-.06.7S78.63,92.05,78.85,91.75Z" transform="translate(-14.91 -14.91)"/><path class="cls-3" d="M105.45,45.17c-.32-.17-.74.07-1.1.75s-.31,1.13,0,1.3.77-.11,1.1-.75S105.83,45.37,105.45,45.17Z" transform="translate(-14.91 -14.91)"/><path class="cls-3" d="M75.29,102.6c.21-.29.26-.55.06-.7s-.42,0-.65.29-.24.57-.06.7S75.07,102.9,75.29,102.6Z" transform="translate(-14.91 -14.91)"/><path class="cls-3" d="M55.59,123c.18.13.38,0,.56-.22s.21-.47,0-.6-.37,0-.56.22S55.43,122.92,55.59,123Z" transform="translate(-14.91 -14.91)"/><path class="cls-3" d="M109.74,47.41c-.32-.17-.74.07-1.1.75s-.31,1.13,0,1.3.77-.11,1.1-.75S110.12,47.61,109.74,47.41Z" transform="translate(-14.91 -14.91)"/><path class="cls-3" d="M54.42,118.77c.18-.25.21-.47,0-.6s-.37,0-.56.22a.54.54,0,0,0-.13.44l.32.2A.62.62,0,0,0,54.42,118.77Z" transform="translate(-14.91 -14.91)"/><path class="cls-3" d="M50.73,121.71c-.19.26-.19.48,0,.6s.38,0,.56-.22a.52.52,0,0,0,.13-.47l-.33-.16A.63.63,0,0,0,50.73,121.71Z" transform="translate(-14.91 -14.91)"/><path class="cls-3" d="M75,92.33c-.22.31-.24.57-.06.7s.43,0,.65-.29.26-.55.06-.7S75.21,92,75,92.33Z" transform="translate(-14.91 -14.91)"/><path class="cls-3" d="M108.41,55.16c.38.2.77-.11,1.1-.75s.36-1.1,0-1.3-.74.07-1.1.75S108.08,55,108.41,55.16Z" transform="translate(-14.91 -14.91)"/><path class="cls-3" d="M106.27,54c.38.2.77-.11,1.1-.75s.36-1.1,0-1.3-.74.07-1.1.75S105.93,53.87,106.27,54Z" transform="translate(-14.91 -14.91)"/><path class="cls-3" d="M110.56,56.28c.38.2.77-.11,1.1-.75s.36-1.1,0-1.3-.74.07-1.1.75S110.22,56.11,110.56,56.28Z" transform="translate(-14.91 -14.91)"/><path class="cls-3" d="M106.52,48.34c.38.2.77-.11,1.1-.75s.36-1.1,0-1.3-.74.07-1.1.75S106.18,48.16,106.52,48.34Z" transform="translate(-14.91 -14.91)"/><path class="cls-3" d="M89.21,67.15c.32-.61.36-1.1,0-1.3s-.74.07-1.1.75-.31,1.13,0,1.3S88.88,67.78,89.21,67.15Z" transform="translate(-14.91 -14.91)"/><path class="cls-3" d="M77.23,94c-.22.31-.24.57-.06.7s.43,0,.65-.29.26-.55.06-.7S77.46,93.62,77.23,94Z" transform="translate(-14.91 -14.91)"/><path class="cls-3" d="M52.84,118.26c.18.13.38,0,.56-.22s.2-.42.06-.56l-.57.16,0,0C52.69,117.92,52.68,118.15,52.84,118.26Z" transform="translate(-14.91 -14.91)"/><path class="cls-3" d="M108.91,41.15c-.32-.17-.74.07-1.1.75s-.31,1.13,0,1.3.77-.11,1.1-.75S109.29,41.35,108.91,41.15Z" transform="translate(-14.91 -14.91)"/><path class="cls-3" d="M110.81,50.58c.38.2.77-.11,1.1-.75s.36-1.1,0-1.3-.74.07-1.1.75S110.47,50.41,110.81,50.58Z" transform="translate(-14.91 -14.91)"/><path class="cls-3" d="M76.1,93.14c-.22.31-.24.57-.06.7s.43,0,.65-.29.26-.55.06-.7S76.34,92.81,76.1,93.14Z" transform="translate(-14.91 -14.91)"/><path class="cls-3" d="M80.07,96c.21-.29.26-.55.06-.7s-.42,0-.65.29-.24.57-.06.7S79.85,96.29,80.07,96Z" transform="translate(-14.91 -14.91)"/><path class="cls-3" d="M52.6,117.73l-.45.14.44.26A.53.53,0,0,1,52.6,117.73Z" transform="translate(-14.91 -14.91)"/><path class="cls-3" d="M56,128.32c-.19.26-.19.48,0,.6s.38,0,.56-.22.21-.47,0-.6S56.21,128.05,56,128.32Z" transform="translate(-14.91 -14.91)"/><path class="cls-3" d="M84.3,52.94c-.34.65-.31,1.13,0,1.3s.77-.11,1.1-.75.36-1.1,0-1.3S84.65,52.27,84.3,52.94Z" transform="translate(-14.91 -14.91)"/><path class="cls-3" d="M58.05,129.8c-.19.26-.19.48,0,.6s.38,0,.56-.22a.56.56,0,0,0,.14-.43l-.29-.21A.56.56,0,0,0,58.05,129.8Z" transform="translate(-14.91 -14.91)"/><path class="cls-3" d="M57,129.06c-.19.26-.19.48,0,.6s.38,0,.56-.22a.51.51,0,0,0,.13-.48l-.18-.15C57.37,128.76,57.2,128.84,57,129.06Z" transform="translate(-14.91 -14.91)"/><path class="cls-3" d="M57.23,132a.54.54,0,0,0-.13.44,2.36,2.36,0,0,1,.1-.37,3.3,3.3,0,0,1,.6-.28h0C57.64,131.67,57.43,131.73,57.23,132Z" transform="translate(-14.91 -14.91)"/><path class="cls-3" d="M95.37,74.91c-.32-.17-.74.07-1.1.75s-.31,1.13,0,1.3.77-.11,1.1-.75S95.75,75.11,95.37,74.91Z" transform="translate(-14.91 -14.91)"/><path class="cls-3" d="M96.44,78.08c.38.2.77-.11,1.1-.75s.36-1.1,0-1.3-.74.07-1.1.75S96.1,77.9,96.44,78.08Z" transform="translate(-14.91 -14.91)"/><path class="cls-3" d="M62.12,132.74c-.19.26-.19.48,0,.6s.38,0,.56-.22a.78.78,0,0,0,.13-.28.89.89,0,0,0-.17-.35C62.47,132.43,62.29,132.5,62.12,132.74Z" transform="translate(-14.91 -14.91)"/><path class="cls-3" d="M58.75,119.73a.32.32,0,0,0,.43-.07l-.17-.28-.15-.33-.08.09C58.59,119.4,58.59,119.62,58.75,119.73Z" transform="translate(-14.91 -14.91)"/><path class="cls-3" d="M56.83,126.12a.62.62,0,0,0-.14.38,1.44,1.44,0,0,1,.35-.41,2.25,2.25,0,0,1,.3-.21C57.2,125.81,57,125.87,56.83,126.12Z" transform="translate(-14.91 -14.91)"/><path class="cls-3" d="M62.81,128.05c0-.13-.08-.25-.11-.38a.63.63,0,0,0-.09.25Z" transform="translate(-14.91 -14.91)"/><path class="cls-3" d="M55.7,117.53c.18.13.38,0,.56-.22l.05-.09c-.24,0-.47,0-.71,0A.3.3,0,0,0,55.7,117.53Z" transform="translate(-14.91 -14.91)"/><path class="cls-3" d="M61,123.55c-.19.26-.19.48,0,.6s.32,0,.48-.13c-.09-.22-.17-.44-.27-.65A.82.82,0,0,0,61,123.55Z" transform="translate(-14.91 -14.91)"/><path class="cls-3" d="M62.26,127.23c.18-.25.21-.47,0-.6s-.37,0-.56.22a.55.55,0,0,0-.13.43l.33.21A.62.62,0,0,0,62.26,127.23Z" transform="translate(-14.91 -14.91)"/><path class="cls-3" d="M60.22,125.76c.18-.25.21-.47,0-.6s-.37,0-.56.22-.19.48,0,.6S60,126,60.22,125.76Z" transform="translate(-14.91 -14.91)"/><path class="cls-3" d="M61.24,126.49c.18-.25.21-.47,0-.6s-.37,0-.56.22-.19.47,0,.58l0,0C60.87,126.83,61.06,126.73,61.24,126.49Z" transform="translate(-14.91 -14.91)"/><path class="cls-3" d="M62.11,127.62l.32.2a.77.77,0,0,1,.14-.35l.05-.05-.08-.26a.9.9,0,0,1-.11.2A.76.76,0,0,1,62.11,127.62Z" transform="translate(-14.91 -14.91)"/><path class="cls-3" d="M73.58,101.38c-.22.31-.24.57-.06.7s.43,0,.65-.29.26-.55.06-.7S73.81,101.05,73.58,101.38Z" transform="translate(-14.91 -14.91)"/><path class="cls-3" d="M63.86,107.76c.21-.29.26-.55.06-.7s-.42,0-.65.29-.24.57-.06.7S63.64,108.06,63.86,107.76Z" transform="translate(-14.91 -14.91)"/><path class="cls-3" d="M103.37,67.43c-.32-.17-.74.07-1.1.75s-.31,1.13,0,1.3.77-.11,1.1-.75S103.76,67.62,103.37,67.43Z" transform="translate(-14.91 -14.91)"/><path class="cls-3" d="M104.44,70.59c.38.2.77-.11,1.1-.75s.36-1.1,0-1.3-.74.07-1.1.75S104.11,70.42,104.44,70.59Z" transform="translate(-14.91 -14.91)"/><path class="cls-3" d="M105.69,42.08c.38.2.77-.11,1.1-.75s.36-1.1,0-1.3-.74.07-1.1.75S105.36,41.9,105.69,42.08Z" transform="translate(-14.91 -14.91)"/><path class="cls-3" d="M99.09,65.18c-.32-.17-.74.07-1.1.75s-.31,1.13,0,1.3.77-.11,1.1-.75S99.47,65.38,99.09,65.18Z" transform="translate(-14.91 -14.91)"/><path class="cls-3" d="M72.2,110.43c.21-.29.26-.55.06-.7s-.42,0-.65.29-.24.57-.06.7S72,110.74,72.2,110.43Z" transform="translate(-14.91 -14.91)"/><path class="cls-3" d="M103.55,41c.38.2.77-.11,1.1-.75s.36-1.1,0-1.3-.74.07-1.1.75S103.21,40.78,103.55,41Z" transform="translate(-14.91 -14.91)"/><path class="cls-3" d="M65.61,112.4c-.22.31-.24.57-.06.7s.43,0,.65-.29.26-.55.06-.7S65.85,112.07,65.61,112.4Z" transform="translate(-14.91 -14.91)"/><path class="cls-3" d="M112.7,57.4c.38.2.77-.11,1.1-.75s.36-1.1,0-1.3-.74.07-1.1.75S112.37,57.23,112.7,57.4Z" transform="translate(-14.91 -14.91)"/><path class="cls-3" d="M59.89,104.91c-.22.31-.24.57-.06.7s.43,0,.65-.29.26-.55.06-.7S60.13,104.59,59.89,104.91Z" transform="translate(-14.91 -14.91)"/><path class="cls-3" d="M101.41,39.83c.38.2.77-.11,1.1-.75s.36-1.1,0-1.3-.74.07-1.1.75S101.07,39.66,101.41,39.83Z" transform="translate(-14.91 -14.91)"/><path class="cls-3" d="M70.49,109.21c-.22.31-.24.57-.06.7s.43,0,.65-.29.26-.55.06-.7S70.72,108.88,70.49,109.21Z" transform="translate(-14.91 -14.91)"/><path class="cls-3" d="M63.36,110.77c-.22.31-.24.57-.06.7s.43,0,.65-.29.26-.55.06-.7S63.6,110.45,63.36,110.77Z" transform="translate(-14.91 -14.91)"/><path class="cls-3" d="M87.86,73.6c.38.2.77-.11,1.1-.75s.36-1.1,0-1.3-.74.07-1.1.75S87.52,73.42,87.86,73.6Z" transform="translate(-14.91 -14.91)"/><path class="cls-3" d="M64.49,111.59c-.22.31-.24.57-.06.7s.43,0,.65-.29.26-.55.06-.7S64.72,111.26,64.49,111.59Z" transform="translate(-14.91 -14.91)"/><path class="cls-3" d="M101.23,66.3c-.32-.17-.74.07-1.1.75s-.31,1.13,0,1.3.77-.11,1.1-.75S101.61,66.5,101.23,66.3Z" transform="translate(-14.91 -14.91)"/><path class="cls-3" d="M112.13,45.44c.38.2.77-.11,1.1-.75s.36-1.1,0-1.3-.74.07-1.1.75S111.79,45.26,112.13,45.44Z" transform="translate(-14.91 -14.91)"/><path class="cls-3" d="M62.14,106.54c-.22.31-.24.57-.06.7s.43,0,.65-.29.26-.55.06-.7S62.38,106.21,62.14,106.54Z" transform="translate(-14.91 -14.91)"/><path class="cls-3" d="M78.66,105c.21-.29.26-.55.06-.7s-.42,0-.65.29-.24.57-.06.7S78.44,105.34,78.66,105Z" transform="translate(-14.91 -14.91)"/><path class="cls-3" d="M76.41,103.41c.21-.29.26-.55.06-.7s-.42,0-.65.29-.24.57-.06.7S76.19,103.72,76.41,103.41Z" transform="translate(-14.91 -14.91)"/><path class="cls-3" d="M114.27,46.56c.38.2.77-.11,1.1-.75s.36-1.1,0-1.3-.74.07-1.1.75S113.94,46.38,114.27,46.56Z" transform="translate(-14.91 -14.91)"/><path class="cls-3" d="M72.45,100.56c-.22.31-.24.57-.06.7s.43,0,.65-.29.26-.55.06-.7S72.69,100.24,72.45,100.56Z" transform="translate(-14.91 -14.91)"/><path class="cls-3" d="M114,49.65c-.32-.17-.74.07-1.1.75s-.31,1.13,0,1.3.77-.11,1.1-.75S114.41,49.85,114,49.65Z" transform="translate(-14.91 -14.91)"/><path class="cls-3" d="M109.16,38.05c.38.2.77-.11,1.1-.75s.36-1.1,0-1.3-.74.07-1.1.75S108.83,37.88,109.16,38.05Z" transform="translate(-14.91 -14.91)"/><path class="cls-3" d="M70.39,105.78c-.22.31-.24.57-.06.7s.43,0,.65-.29.26-.55.06-.7S70.63,105.46,70.39,105.78Z" transform="translate(-14.91 -14.91)"/><path class="cls-3" d="M71.42,103.17c-.22.31-.24.57-.06.7s.43,0,.65-.29.26-.55.06-.7S71.66,102.85,71.42,103.17Z" transform="translate(-14.91 -14.91)"/><polygon class="cls-4" points="92.27 22.39 93.57 19.9 93.25 19.74 92.51 19.72 92.44 20.01 93.04 20.02 93.05 20.03 91.91 22.2 92.27 22.39"/><path class="cls-4" d="M109,38.3c.6.31,1.19,0,1.63-.82s.33-1.43-.24-1.73-1.19,0-1.62.8S108.47,38,109,38.3Zm.13-1.55c.35-.68.78-.91,1.1-.75s.34.69,0,1.3-.72.94-1.1.75S108.8,37.4,109.14,36.75Z" transform="translate(-14.91 -14.91)"/><path class="cls-4" d="M97,37.84c.6.31,1.19,0,1.63-.82s.33-1.43-.24-1.73-1.19,0-1.62.8S96.43,37.56,97,37.84Zm.13-1.55c.35-.68.78-.91,1.1-.75s.34.69,0,1.3-.72.94-1.1.75S96.76,36.94,97.09,36.29Z" transform="translate(-14.91 -14.91)"/><polygon class="cls-4" points="84.51 24.17 85.81 21.68 85.5 21.52 84.75 21.5 84.69 21.79 85.28 21.81 85.29 21.81 84.16 23.98 84.51 24.17"/><path class="cls-4" d="M101.25,40.08c.6.31,1.19,0,1.63-.82s.33-1.43-.24-1.73-1.19,0-1.62.8S100.72,39.81,101.25,40.08Zm.13-1.55c.35-.68.78-.91,1.1-.75s.34.69,0,1.3-.72.94-1.1.75S101,39.18,101.38,38.53Z" transform="translate(-14.91 -14.91)"/><path class="cls-4" d="M103.39,41.2c.6.31,1.19,0,1.63-.82s.33-1.43-.24-1.73-1.19,0-1.62.8S102.86,40.93,103.39,41.2Zm.13-1.55c.35-.68.78-.91,1.1-.75s.34.69,0,1.3-.72.94-1.1.75S103.19,40.3,103.53,39.65Z" transform="translate(-14.91 -14.91)"/><path class="cls-4" d="M105.54,42.32c.6.31,1.19,0,1.63-.82s.33-1.43-.24-1.73-1.19,0-1.62.8S105,42,105.54,42.32Zm.13-1.55c.35-.68.78-.91,1.1-.75s.34.69,0,1.3-.72.94-1.1.75S105.33,41.42,105.67,40.77Z" transform="translate(-14.91 -14.91)"/><path class="cls-4" d="M109.07,40.9c-.55-.29-1.19,0-1.62.8s-.3,1.47.23,1.75,1.19,0,1.63-.82S109.64,41.2,109.07,40.9Zm-.13,1.55c-.33.63-.72.94-1.1.75s-.36-.66,0-1.3.78-.91,1.1-.75S109.26,41.84,108.94,42.45Z" transform="translate(-14.91 -14.91)"/><polygon class="cls-4" points="95.41 27.39 96.01 27.41 96.02 27.41 94.88 29.59 95.24 29.77 96.53 27.29 96.22 27.12 95.47 27.1 95.41 27.39"/><path class="cls-4" d="M112,45.69c.6.31,1.19,0,1.63-.82s.33-1.43-.24-1.73-1.19,0-1.62.8S111.44,45.41,112,45.69Zm.13-1.55c.35-.68.78-.91,1.1-.75s.34.69,0,1.3-.72.94-1.1.75S111.77,44.78,112.1,44.14Z" transform="translate(-14.91 -14.91)"/><path class="cls-4" d="M114.12,46.81c.6.31,1.19,0,1.63-.82s.33-1.43-.24-1.73-1.19,0-1.62.8S113.58,46.53,114.12,46.81Zm.13-1.55c.35-.68.78-.91,1.1-.75s.34.69,0,1.3-.72.94-1.1.75S113.91,45.9,114.25,45.26Z" transform="translate(-14.91 -14.91)"/><path class="cls-4" d="M91.11,39c-.42.83-.3,1.47.23,1.75s1.19,0,1.63-.82.33-1.43-.24-1.73S91.55,38.16,91.11,39Zm1.46-.55c.38.2.34.69,0,1.3s-.72.94-1.1.75-.36-.66,0-1.3S92.26,38.28,92.58,38.45Z" transform="translate(-14.91 -14.91)"/><path class="cls-4" d="M93.49,41.87c.6.31,1.19,0,1.63-.82s.33-1.43-.24-1.73-1.19,0-1.62.8S93,41.59,93.49,41.87Zm.13-1.55c.35-.68.78-.91,1.1-.75s.34.69,0,1.3-.72.94-1.1.75S93.29,41,93.63,40.31Z" transform="translate(-14.91 -14.91)"/><polygon class="cls-4" points="81.05 28.19 82.34 25.71 82.03 25.54 81.28 25.52 81.22 25.82 81.82 25.83 81.83 25.83 80.69 28.01 81.05 28.19"/><polygon class="cls-4" points="83.19 29.31 84.49 26.83 84.18 26.66 83.43 26.64 83.37 26.94 83.96 26.95 83.97 26.95 82.83 29.13 83.19 29.31"/><polygon class="cls-4" points="86.32 27.78 85.57 27.76 85.51 28.06 86.11 28.07 86.11 28.07 84.98 30.25 85.34 30.43 86.63 27.95 86.32 27.78"/><polygon class="cls-4" points="88.47 28.9 87.72 28.88 87.66 29.18 88.25 29.19 88.26 29.2 87.13 31.37 87.48 31.55 88.78 29.07 88.47 28.9"/><path class="cls-4" d="M105.6,44.92c-.55-.29-1.19,0-1.62.8s-.3,1.47.23,1.75,1.19,0,1.63-.82S106.18,45.22,105.6,44.92Zm-.13,1.55c-.33.63-.72.94-1.1.75s-.36-.66,0-1.3.78-.91,1.1-.75S105.79,45.86,105.47,46.47Z" transform="translate(-14.91 -14.91)"/><path class="cls-4" d="M106.13,46.84c-.42.83-.3,1.47.23,1.75s1.19,0,1.63-.82.33-1.43-.24-1.73S106.56,46,106.13,46.84Zm1.46-.55c.38.2.34.69,0,1.3s-.72.94-1.1.75-.36-.66,0-1.3S107.27,46.12,107.59,46.29Z" transform="translate(-14.91 -14.91)"/><path class="cls-4" d="M109.89,47.16c-.55-.29-1.19,0-1.62.8s-.3,1.47.23,1.75,1.19,0,1.63-.82S110.47,47.46,109.89,47.16Zm-.13,1.55c-.33.63-.72.94-1.1.75s-.36-.66,0-1.3.78-.91,1.1-.75S110.08,48.1,109.76,48.71Z" transform="translate(-14.91 -14.91)"/><path class="cls-4" d="M110.65,50.83c.6.31,1.19,0,1.63-.82s.33-1.43-.24-1.73-1.19,0-1.62.8S110.12,50.55,110.65,50.83Zm.13-1.55c.35-.68.78-.91,1.1-.75s.34.69,0,1.3-.72.94-1.1.75S110.45,49.92,110.78,49.28Z" transform="translate(-14.91 -14.91)"/><path class="cls-4" d="M114.18,49.4c-.55-.29-1.19,0-1.62.8s-.3,1.47.23,1.75,1.19,0,1.63-.82S114.76,49.7,114.18,49.4ZM114,51c-.33.63-.72.94-1.1.75s-.36-.66,0-1.3.78-.91,1.1-.75S114.37,50.34,114,51Z" transform="translate(-14.91 -14.91)"/><path class="cls-4" d="M114.71,51.32c-.42.83-.3,1.47.23,1.75s1.19,0,1.63-.82.33-1.43-.24-1.73S115.14,50.49,114.71,51.32Zm1.46-.55c.38.2.34.69,0,1.3s-.72.94-1.1.75-.36-.66,0-1.3S115.85,50.61,116.17,50.77Z" transform="translate(-14.91 -14.91)"/><path class="cls-4" d="M87.89,42h0l-.61,1.17.13.09.2.15.8-1.53-.31-.16H88l-.25.29Z" transform="translate(-14.91 -14.91)"/><path class="cls-4" d="M90.57,43l-.31-.16-.75,0-.06.29H90l-.76,1.46.32.25Z" transform="translate(-14.91 -14.91)"/><path class="cls-4" d="M91.23,44.9c.35-.68.78-.91,1.1-.75s.34.69,0,1.3a1.45,1.45,0,0,1-.71.76l.36.24a1.89,1.89,0,0,0,.72-.82c.41-.79.33-1.43-.24-1.73s-1.19,0-1.62.8a2,2,0,0,0-.23.83l.37.26A1.6,1.6,0,0,1,91.23,44.9Z" transform="translate(-14.91 -14.91)"/><path class="cls-4" d="M94.87,46.75c.41-.79.33-1.43-.24-1.73s-1.19,0-1.62.8A1.73,1.73,0,0,0,92.79,47l1.12.68A1.56,1.56,0,0,0,94.87,46.75ZM93.38,46c.35-.68.78-.91,1.1-.75s.34.69,0,1.3-.72.94-1.1.75S93,46.66,93.38,46Z" transform="translate(-14.91 -14.91)"/><path class="cls-4" d="M95.39,48.69c.6.31,1.19,0,1.63-.82s.33-1.43-.24-1.73-1.19,0-1.62.8S94.86,48.41,95.39,48.69Zm.13-1.55c.35-.68.78-.91,1.1-.75s.34.69,0,1.3-.72.94-1.1.75S95.18,47.78,95.52,47.14Z" transform="translate(-14.91 -14.91)"/><path class="cls-4" d="M97.3,48.06c-.42.83-.3,1.47.23,1.75s1.19,0,1.63-.82.33-1.43-.24-1.73S97.73,47.23,97.3,48.06Zm1.46-.55c.38.2.34.69,0,1.3s-.72.94-1.1.75-.36-.66,0-1.3S98.44,47.34,98.76,47.51Z" transform="translate(-14.91 -14.91)"/><polygon class="cls-4" points="86.38 33.65 86.07 33.49 85.32 33.47 85.26 33.76 85.86 33.77 85.86 33.78 84.73 35.95 85.09 36.14 86.38 33.65"/><polygon class="cls-4" points="87.23 37.26 88.53 34.77 88.22 34.61 87.47 34.59 87.41 34.88 88 34.89 88.01 34.9 86.88 37.07 87.23 37.26"/><polygon class="cls-4" points="89.38 38.38 90.67 35.89 90.36 35.73 89.61 35.71 89.55 36 90.14 36.02 90.15 36.02 89.02 38.19 89.38 38.38"/><path class="cls-4" d="M106.11,54.29c.6.31,1.19,0,1.63-.82s.33-1.43-.24-1.73-1.19,0-1.62.8S105.58,54,106.11,54.29Zm.13-1.55c.35-.68.78-.91,1.1-.75s.34.69,0,1.3-.72.94-1.1.75S105.91,53.39,106.24,52.74Z" transform="translate(-14.91 -14.91)"/><path class="cls-4" d="M108.25,55.41c.6.31,1.19,0,1.63-.82s.33-1.43-.24-1.73-1.19,0-1.62.8S107.72,55.13,108.25,55.41Zm.13-1.55c.35-.68.78-.91,1.1-.75s.34.69,0,1.3-.72.94-1.1.75S108.05,54.51,108.39,53.86Z" transform="translate(-14.91 -14.91)"/><path class="cls-4" d="M110.4,56.53c.6.31,1.19,0,1.63-.82s.33-1.43-.24-1.73-1.19,0-1.62.8S109.87,56.26,110.4,56.53Zm.13-1.55c.35-.68.78-.91,1.1-.75s.34.69,0,1.3-.72.94-1.1.75S110.2,55.63,110.53,55Z" transform="translate(-14.91 -14.91)"/><path class="cls-4" d="M112.54,57.65c.6.31,1.19,0,1.63-.82s.33-1.43-.24-1.73-1.19,0-1.62.8S112,57.38,112.54,57.65Zm.13-1.55c.35-.68.78-.91,1.1-.75s.34.69,0,1.3-.72.94-1.1.75S112.34,56.75,112.68,56.1Z" transform="translate(-14.91 -14.91)"/><path class="cls-4" d="M114.84,58.53c-.33-.17-.36-.66,0-1.3s.67-.83,1-.77l.09-.28c-.5-.14-1,.12-1.42.85s-.3,1.47.23,1.75a1,1,0,0,0,.42.12l.09-.34A.47.47,0,0,1,114.84,58.53Z" transform="translate(-14.91 -14.91)"/><path class="cls-4" d="M96.42,55c.53.15,1-.13,1.42-.88,0-.05,0-.1.06-.15A2.52,2.52,0,0,1,96.42,55Z" transform="translate(-14.91 -14.91)"/><polygon class="cls-4" points="85.06 38.79 84.75 38.63 84 38.61 83.94 38.9 84.53 38.92 84.54 38.92 83.41 41.09 83.76 41.28 85.06 38.79"/><path class="cls-4" d="M101.56,57.07a2,2,0,0,0,.56-.69c.41-.79.33-1.43-.24-1.73s-1.19,0-1.62.8-.3,1.43.2,1.72l.24-.12A5.38,5.38,0,0,1,101.56,57.07Zm-.93-1.43c.35-.68.78-.91,1.1-.75s.34.69,0,1.3-.72.94-1.1.75S100.29,56.29,100.63,55.64Z" transform="translate(-14.91 -14.91)"/><path class="cls-4" d="M102.78,56.76c.35-.68.78-.91,1.1-.75s.34.69,0,1.3a2.78,2.78,0,0,1-.22.35l.37.16a2.54,2.54,0,0,0,.22-.33c.41-.79.33-1.43-.24-1.73s-1.19,0-1.62.8a2.36,2.36,0,0,0-.22.61l.39.09A2.25,2.25,0,0,1,102.78,56.76Z" transform="translate(-14.91 -14.91)"/><path class="cls-4" d="M104.92,57.88c.35-.68.78-.91,1.1-.75s.34.69,0,1.3a2.79,2.79,0,0,1-.2.31l.36.19a2.54,2.54,0,0,0,.22-.32c.41-.79.33-1.43-.24-1.73s-1.19,0-1.62.8a2.38,2.38,0,0,0-.12.33l.36.18A2.41,2.41,0,0,1,104.92,57.88Z" transform="translate(-14.91 -14.91)"/><path class="cls-4" d="M107.07,59c.35-.68.78-.91,1.1-.75s.34.69,0,1.3a2.79,2.79,0,0,1-.21.33l.34.21a2.55,2.55,0,0,0,.24-.36c.41-.79.33-1.43-.24-1.73s-1.19,0-1.62.8a2.38,2.38,0,0,0-.12.31l.36.17A2.41,2.41,0,0,1,107.07,59Z" transform="translate(-14.91 -14.91)"/><path class="cls-4" d="M110.69,59.3l-.31-.16-.75,0-.06.29h.6l-.71,1.35.34.21Z" transform="translate(-14.91 -14.91)"/><path class="cls-4" d="M111.35,61.25c.35-.68.78-.91,1.1-.75s.34.69,0,1.3a2.73,2.73,0,0,1-.26.42l.36.18a2.55,2.55,0,0,0,.28-.42c.41-.79.33-1.43-.24-1.73s-1.19,0-1.62.8a2.42,2.42,0,0,0-.17.46l.35.18A2.44,2.44,0,0,1,111.35,61.25Z" transform="translate(-14.91 -14.91)"/><path class="cls-4" d="M113.92,61.36l-.06.29h.4l.1-.29Z" transform="translate(-14.91 -14.91)"/><polygon class="cls-4" points="67.43 38.58 68.73 36.09 68.41 35.93 67.67 35.91 67.6 36.2 68.2 36.22 68.21 36.22 67.07 38.39 67.43 38.58"/><path class="cls-4" d="M83.93,52.75c-.42.83-.3,1.47.23,1.75s1.19,0,1.63-.82.33-1.43-.24-1.73S84.37,51.91,83.93,52.75Zm1.49.75c-.33.63-.72.94-1.1.75s-.36-.66,0-1.3.78-.91,1.1-.75S85.74,52.89,85.42,53.5Z" transform="translate(-14.91 -14.91)"/><polygon class="cls-4" points="71.72 40.82 73.02 38.34 72.7 38.17 71.96 38.15 71.89 38.44 72.49 38.46 72.5 38.46 71.36 40.63 71.72 40.82"/><polygon class="cls-4" points="73.86 41.94 75.16 39.45 74.85 39.29 74.1 39.27 74.04 39.56 74.63 39.58 74.64 39.58 73.51 41.76 73.86 41.94"/><polygon class="cls-4" points="76.01 43.06 77.31 40.58 76.99 40.41 76.25 40.39 76.18 40.69 76.78 40.7 76.79 40.7 75.65 42.88 76.01 43.06"/><polygon class="cls-4" points="78.15 44.18 79.45 41.7 79.14 41.53 78.39 41.51 78.33 41.8 78.92 41.82 78.93 41.82 77.8 44 78.15 44.18"/><path class="cls-4" d="M96.52,59.28c.41-.79.33-1.43-.24-1.73s-1.19,0-1.62.8-.3,1.47.23,1.75S96.08,60.12,96.52,59.28ZM95,59.85c-.33-.17-.36-.66,0-1.3s.78-.91,1.1-.75.34.69,0,1.3S95.42,60,95,59.85Z" transform="translate(-14.91 -14.91)"/><polygon class="cls-4" points="83.43 43.77 82.68 43.75 82.62 44.05 83.21 44.06 83.22 44.06 82.08 46.24 82.44 46.42 83.74 43.94 83.43 43.77"/><path class="cls-4" d="M99.43,62.11s-.06,0-.1,0a.56.56,0,0,1-.24-.61c-.1-.2-.19-.4-.26-.59-.24.67-.11,1.2.35,1.44a.94.94,0,0,0,.62.09l-.33-.25Z" transform="translate(-14.91 -14.91)"/><path class="cls-4" d="M86.6,58.38l-.31-.16h-.21l.45.31Z" transform="translate(-14.91 -14.91)"/><path class="cls-4" d="M88.14,59.62h.09l0,0,.31.26.23-.44-.31-.16-.73,0,.36.25Z" transform="translate(-14.91 -14.91)"/><path class="cls-4" d="M90.89,60.62l-.31-.16-.75,0-.06.29h.6l-.42.81a4.39,4.39,0,0,1,.21.47Z" transform="translate(-14.91 -14.91)"/><path class="cls-4" d="M91.19,62.37c-.42.83-.3,1.47.23,1.75s1.19,0,1.63-.82.33-1.43-.24-1.73S91.62,61.54,91.19,62.37Zm1.46-.55c.38.2.34.69,0,1.3s-.72.94-1.1.75-.36-.66,0-1.3S92.33,61.65,92.65,61.82Z" transform="translate(-14.91 -14.91)"/><path class="cls-4" d="M95.2,64.42c.41-.79.33-1.43-.24-1.73s-1.19,0-1.62.8-.3,1.47.23,1.75S94.75,65.27,95.2,64.42ZM93.72,65c-.33-.17-.36-.66,0-1.3s.78-.91,1.1-.75.34.69,0,1.3S94.1,65.19,93.72,65Z" transform="translate(-14.91 -14.91)"/><polygon class="cls-4" points="82.42 49.08 82.1 48.92 81.36 48.9 81.29 49.19 81.89 49.2 81.9 49.21 80.76 51.38 81.12 51.57 82.42 49.08"/><path class="cls-4" d="M99.24,64.94c-.55-.29-1.19,0-1.62.8s-.3,1.47.23,1.75,1.19,0,1.63-.82S99.82,65.23,99.24,64.94Zm-.13,1.55c-.33.63-.72.94-1.1.75s-.36-.66,0-1.3.78-.91,1.1-.75S99.43,65.87,99.11,66.49Z" transform="translate(-14.91 -14.91)"/><path class="cls-4" d="M101.39,66.06c-.55-.29-1.19,0-1.62.8s-.3,1.47.23,1.75,1.19,0,1.63-.82S102,66.36,101.39,66.06Zm-.13,1.55c-.33.63-.72.94-1.1.75s-.36-.66,0-1.3.78-.91,1.1-.75S101.57,67,101.25,67.61Z" transform="translate(-14.91 -14.91)"/><path class="cls-4" d="M103.53,67.18c-.55-.29-1.19,0-1.62.8s-.3,1.47.23,1.75,1.19,0,1.63-.82S104.1,67.48,103.53,67.18Zm-.13,1.55c-.33.63-.72.94-1.1.75s-.36-.66,0-1.3.78-.91,1.1-.75S103.72,68.12,103.4,68.73Z" transform="translate(-14.91 -14.91)"/><path class="cls-4" d="M104.29,70.84c.6.31,1.19,0,1.63-.82s.33-1.43-.24-1.73-1.19,0-1.62.8S103.76,70.56,104.29,70.84Zm.13-1.55c.35-.68.78-.91,1.1-.75s.34.69,0,1.3-.72.94-1.1.75S104.08,69.94,104.42,69.29Z" transform="translate(-14.91 -14.91)"/><polygon class="cls-4" points="91.84 57.17 93.14 54.68 92.83 54.52 92.08 54.5 92.02 54.79 92.61 54.81 92.62 54.81 91.49 56.98 91.84 57.17"/><path class="cls-4" d="M108.34,71.34h0c.2-.23.4-.46.59-.7A1.88,1.88,0,0,0,108.34,71.34Z" transform="translate(-14.91 -14.91)"/><path class="cls-4" d="M80.61,61.36c.38.2.34.69,0,1.3s-.57.79-.87.79q0,.15,0,.31c.47.06.92-.24,1.27-.92s.33-1.43-.24-1.73a.93.93,0,0,0-.87,0v.48C80.14,61.33,80.4,61.25,80.61,61.36Z" transform="translate(-14.91 -14.91)"/><path class="cls-4" d="M82.44,62.13a1.42,1.42,0,0,0-1.15.9c-.42.83-.3,1.47.23,1.75s1.19,0,1.63-.82a1.55,1.55,0,0,0,.19-1.21c-.19-.1-.38-.2-.58-.29A1.63,1.63,0,0,0,82.44,62.13Zm.34,1.66c-.33.63-.72.94-1.1.75s-.36-.66,0-1.3.78-.91,1.1-.75S83.09,63.17,82.77,63.79Z" transform="translate(-14.91 -14.91)"/><path class="cls-4" d="M84.22,63.34l-.06.29h.6l-1.13,2.17L84,66l1.12-2.14-.79-.52Z" transform="translate(-14.91 -14.91)"/><path class="cls-4" d="M87.06,66c-.33.63-.72.94-1.1.75s-.36-.66,0-1.3a1.44,1.44,0,0,1,.71-.75l-.41-.19a1.81,1.81,0,0,0-.67.74c-.42.83-.3,1.47.23,1.75s1.19,0,1.63-.82A1.54,1.54,0,0,0,87.62,65l-.38-.07A1.24,1.24,0,0,1,87.06,66Z" transform="translate(-14.91 -14.91)"/><path class="cls-4" d="M89.58,67.32c.41-.79.33-1.43-.24-1.73s-1.19,0-1.62.8-.3,1.47.23,1.75S89.14,68.17,89.58,67.32Zm-1.5-.73c.35-.68.78-.91,1.1-.75s.34.69,0,1.3-.72.94-1.1.75S87.75,67.24,88.09,66.59Z" transform="translate(-14.91 -14.91)"/><path class="cls-4" d="M91.49,66.72c-.55-.29-1.19,0-1.62.8s-.3,1.47.23,1.75,1.19,0,1.63-.82S92.06,67,91.49,66.72Zm-.13,1.55c-.33.63-.72.94-1.1.75s-.36-.66,0-1.3.78-.91,1.1-.75S91.67,67.66,91.35,68.27Z" transform="translate(-14.91 -14.91)"/><polygon class="cls-4" points="78.64 52.94 77.89 52.92 77.83 53.21 78.42 53.23 78.43 53.23 77.3 55.4 77.65 55.59 78.95 53.1 78.64 52.94"/><path class="cls-4" d="M80.36,67.07c.38.2.34.69,0,1.3h0a2.52,2.52,0,0,0,.31.27l.07-.1c.41-.79.33-1.43-.24-1.73a.93.93,0,0,0-.82,0,3.63,3.63,0,0,0,.06.39A.55.55,0,0,1,80.36,67.07Z" transform="translate(-14.91 -14.91)"/><path class="cls-4" d="M82.88,68.11l-.31-.16-.75,0-.06.29h.6l-.53,1,.33.24Z" transform="translate(-14.91 -14.91)"/><path class="cls-4" d="M83.55,70.05c.35-.68.78-.91,1.1-.75s.34.69,0,1.3a2.44,2.44,0,0,1-.32.47l.32.25a2.47,2.47,0,0,0,.38-.55c.41-.79.33-1.43-.24-1.73s-1.19,0-1.62.8a2.38,2.38,0,0,0-.11.29l.34.24A2.42,2.42,0,0,1,83.55,70.05Z" transform="translate(-14.91 -14.91)"/><path class="cls-4" d="M85.45,72a1.77,1.77,0,0,1,.24-.82c.35-.68.78-.91,1.1-.75s.34.69,0,1.3-.58.8-.89.79a2.08,2.08,0,0,1,.19.31,1.47,1.47,0,0,0,1.07-.92c.41-.79.33-1.43-.24-1.73s-1.19,0-1.62.8a2.14,2.14,0,0,0-.22.72l.24.2Z" transform="translate(-14.91 -14.91)"/><path class="cls-4" d="M87.7,73.85c.6.31,1.19,0,1.63-.82s.33-1.43-.24-1.73-1.19,0-1.62.8S87.17,73.57,87.7,73.85Zm.13-1.55c.35-.68.78-.91,1.1-.75s.34.69,0,1.3-.72.94-1.1.75S87.5,72.94,87.84,72.29Z" transform="translate(-14.91 -14.91)"/><path class="cls-4" d="M89.85,75c.6.31,1.19,0,1.63-.82s.33-1.43-.24-1.73-1.19,0-1.62.8S89.32,74.69,89.85,75ZM90,73.41c.35-.68.78-.91,1.1-.75s.34.69,0,1.3-.72.94-1.1.75S89.64,74.06,90,73.41Z" transform="translate(-14.91 -14.91)"/><polygon class="cls-4" points="78.7 58.81 78.39 58.64 77.64 58.62 77.58 58.92 78.17 58.93 78.18 58.93 77.05 61.11 77.4 61.29 78.7 58.81"/><path class="cls-4" d="M95.53,74.66c-.55-.29-1.19,0-1.62.8s-.3,1.47.23,1.75,1.19,0,1.63-.82S96.1,75,95.53,74.66Zm-.13,1.55c-.33.63-.72.94-1.1.75s-.36-.66,0-1.3.78-.91,1.1-.75S95.71,75.6,95.39,76.21Z" transform="translate(-14.91 -14.91)"/><path class="cls-4" d="M96.28,78.33c.6.31,1.19,0,1.63-.82s.33-1.43-.24-1.73-1.19,0-1.62.8S95.75,78,96.28,78.33Zm.13-1.55c.35-.68.78-.91,1.1-.75s.34.69,0,1.3-.72.94-1.1.75S96.08,77.42,96.42,76.78Z" transform="translate(-14.91 -14.91)"/><path class="cls-4" d="M98.56,77.9c.35-.68.78-.91,1.1-.75s.33.52.16,1l.47-.27a.9.9,0,0,0-.47-.95c-.55-.29-1.19,0-1.62.8a1.44,1.44,0,0,0-.1,1.44l.29-.17A1.29,1.29,0,0,1,98.56,77.9Z" transform="translate(-14.91 -14.91)"/><path class="cls-4" d="M80.56,74.31c0,.21.08.42.12.63l.61-1.18L81,73.5Z" transform="translate(-14.91 -14.91)"/><path class="cls-4" d="M82.05,76.67l.36.19,1-1.93-.36-.17Z" transform="translate(-14.91 -14.91)"/><polygon class="cls-4" points="69.65 63.07 70.94 60.59 70.63 60.42 69.88 60.4 69.82 60.7 70.42 60.71 70.42 60.72 69.29 62.89 69.65 63.07"/><path class="cls-4" d="M86.38,77.76a2.41,2.41,0,0,1,.13-.32c.35-.68.78-.91,1.1-.75a.55.55,0,0,1,.25.62h.21l.17.09a.9.9,0,0,0-.47-1c-.55-.29-1.19,0-1.62.8a1.65,1.65,0,0,0-.2,1.2A1.56,1.56,0,0,1,86.38,77.76Z" transform="translate(-14.91 -14.91)"/><path class="cls-4" d="M89.76,77.81a.51.51,0,0,1,.27.5l.36.18a.9.9,0,0,0-.48-.93,1,1,0,0,0-1.07.14l.36.18A.53.53,0,0,1,89.76,77.81Z" transform="translate(-14.91 -14.91)"/><path class="cls-4" d="M91.9,78.93a.51.51,0,0,1,.27.48l.36.19a.89.89,0,0,0-.48-.91,1,1,0,0,0-1.06.13l.36.18A.52.52,0,0,1,91.9,78.93Z" transform="translate(-14.91 -14.91)"/><path class="cls-4" d="M93.9,80.1h0l-.08.15.36.18.24-.46-.31-.16-.75,0,0,.21.18.09Z" transform="translate(-14.91 -14.91)"/><path class="cls-4" d="M82.91,83c.6.31,1.19,0,1.63-.82s.33-1.43-.24-1.73-1.19,0-1.62.8a2.32,2.32,0,0,0-.22.63,8.58,8.58,0,0,0,.26,1A.88.88,0,0,0,82.91,83ZM83,81.46c.35-.68.78-.91,1.1-.75s.34.69,0,1.3-.72.94-1.1.75S82.71,82.11,83,81.46Z" transform="translate(-14.91 -14.91)"/><path class="cls-4" d="M85.21,83.88c-.33-.17-.36-.66,0-1.3s.78-.91,1.1-.75.34.69,0,1.3a2,2,0,0,1-.49.65l.67-.16a2.54,2.54,0,0,0,.21-.3c.41-.79.33-1.43-.24-1.73s-1.19,0-1.62.8-.3,1.31.09,1.62l.42-.1A.46.46,0,0,1,85.21,83.88Z" transform="translate(-14.91 -14.91)"/><path class="cls-4" d="M77.14,91.43l.7-1-.31,0L77,91.3Z" transform="translate(-14.91 -14.91)"/><path class="cls-4" d="M78.09,92.15c.32.23.66.13,1-.27s.27-.73,0-.95-.66-.14-.95.26S77.82,92,78.09,92.15Zm.16-.81c.24-.33.48-.41.65-.29s.15.4-.06.7-.45.43-.65.29S78,91.65,78.26,91.34Z" transform="translate(-14.91 -14.91)"/><path class="cls-4" d="M72.85,91.45l-.25.06.13.1Z" transform="translate(-14.91 -14.91)"/><path class="cls-4" d="M73.69,92.33c.32.23.66.13,1-.27s.27-.73,0-.95h0l-.8.13a1.08,1.08,0,0,0-.13.14C73.38,91.77,73.41,92.13,73.69,92.33Zm.16-.81c.24-.33.48-.41.65-.29s.15.4-.06.7-.45.43-.65.29S73.63,91.82,73.85,91.51Z" transform="translate(-14.91 -14.91)"/><path class="cls-4" d="M75.73,91.92c-.29-.21-.66-.14-.95.26s-.25.75,0,1,.66.13,1-.27S76,92.14,75.73,91.92Zm-.16.81c-.22.31-.45.43-.65.29s-.16-.39.06-.7.48-.41.65-.29S75.78,92.44,75.57,92.73Z" transform="translate(-14.91 -14.91)"/><path class="cls-4" d="M76.86,92.73c-.29-.21-.66-.14-.95.26s-.25.75,0,1,.66.13,1-.27S77.16,93,76.86,92.73Zm-.16.81c-.22.31-.45.43-.65.29s-.16-.39.06-.7.48-.41.65-.29S76.91,93.25,76.69,93.55Z" transform="translate(-14.91 -14.91)"/><path class="cls-4" d="M78,93.55c-.29-.21-.66-.14-.95.26s-.25.75,0,1,.66.13,1-.27S78.28,93.76,78,93.55Zm-.16.81c-.22.31-.45.43-.65.29s-.16-.39.06-.7.48-.41.65-.29S78,94.07,77.82,94.36Z" transform="translate(-14.91 -14.91)"/><polygon class="cls-4" points="64.15 79.45 63.74 79.36 63.69 79.51 64.02 79.58 64.02 79.58 63.27 80.63 63.45 80.76 64.32 79.57 64.15 79.45"/><path class="cls-4" d="M79.31,96.39c.32.23.66.13,1-.27s.27-.73,0-.95-.66-.14-.95.26S79,96.19,79.31,96.39Zm.16-.81c.24-.33.48-.41.65-.29s.15.4-.06.7-.45.43-.65.29S79.25,95.89,79.48,95.58Z" transform="translate(-14.91 -14.91)"/><path class="cls-4" d="M80.41,96.25c-.28.4-.25.75,0,1a.54.54,0,0,0,.6,0c0-.08,0-.16,0-.24-.16.15-.33.19-.47.09s-.16-.39.06-.7a.9.9,0,0,1,.32-.29c0-.07,0-.14,0-.21A.86.86,0,0,0,80.41,96.25Z" transform="translate(-14.91 -14.91)"/><path class="cls-4" d="M70.22,92.24c-.26.1-.52.22-.78.33C69.71,92.67,70,92.57,70.22,92.24Z" transform="translate(-14.91 -14.91)"/><path class="cls-4" d="M71.14,92.22h0l-.75,1,.19.13.86-1.2-.16-.12L70.9,92h0l0,.13Z" transform="translate(-14.91 -14.91)"/><polygon class="cls-4" points="56.8 79.31 57.66 78.11 57.5 78 57.08 77.91 57.03 78.06 57.36 78.13 57.37 78.13 56.61 79.17 56.8 79.31"/><polygon class="cls-4" points="58.79 78.93 58.62 78.81 58.21 78.72 58.16 78.87 58.49 78.94 58.49 78.94 57.74 79.99 57.92 80.12 58.79 78.93"/><polygon class="cls-4" points="59.33 79.53 59.28 79.69 59.61 79.75 59.62 79.76 58.86 80.8 59.05 80.94 59.91 79.74 59.75 79.62 59.33 79.53"/><path class="cls-4" d="M75.83,95.34c-.29-.21-.66-.14-.95.26s-.25.75,0,1a.58.58,0,0,0,.3.11l.2-.18c.1,0,.19,0,.29,0a1.24,1.24,0,0,0,.17-.18C76.14,95.91,76.13,95.56,75.83,95.34Zm-.16.81c-.22.31-.45.43-.65.29s-.16-.39.06-.7.48-.41.65-.29S75.88,95.86,75.66,96.16Z" transform="translate(-14.91 -14.91)"/><path class="cls-4" d="M77,96.16c-.29-.21-.66-.14-.95.26l0,0h.31c.2-.22.41-.28.55-.17a.29.29,0,0,1,.12.27l.21.07A.51.51,0,0,0,77,96.16Z" transform="translate(-14.91 -14.91)"/><path class="cls-4" d="M68.61,93.48c-.29-.21-.66-.14-.95.26a1.16,1.16,0,0,0-.11.2l.18.14a1.18,1.18,0,0,1,.11-.2c.24-.33.48-.41.65-.29s.15.4-.06.7a1.34,1.34,0,0,1-.16.18l.19.13a1.24,1.24,0,0,0,.17-.18C68.92,94.05,68.91,93.7,68.61,93.48Z" transform="translate(-14.91 -14.91)"/><path class="cls-4" d="M69.73,94.3c-.29-.21-.66-.14-.95.26a1.16,1.16,0,0,0-.11.21l.18.14A1.18,1.18,0,0,1,69,94.7c.24-.33.48-.41.65-.29s.15.4-.06.7a1.28,1.28,0,0,1-.18.2l.17.15a1.24,1.24,0,0,0,.21-.22C70,94.86,70,94.51,69.73,94.3Z" transform="translate(-14.91 -14.91)"/><path class="cls-4" d="M70.89,96.06c.28-.38.27-.73,0-.95s-.66-.14-.95.26a1.18,1.18,0,0,0-.14.27l.19.16a1,1,0,0,1,.15-.3c.24-.33.48-.41.65-.29s.15.4-.06.7a.94.94,0,0,1-.33.31l.14.16A1,1,0,0,0,70.89,96.06Z" transform="translate(-14.91 -14.91)"/><path class="cls-4" d="M72,96.87c.28-.38.27-.73,0-.95s-.66-.14-.95.26-.25.75,0,1S71.73,97.28,72,96.87Zm-.79-.54c.24-.33.48-.41.65-.29s.15.4-.06.7-.45.43-.65.29S71,96.64,71.23,96.33Z" transform="translate(-14.91 -14.91)"/><polygon class="cls-4" points="58.02 81.96 57.27 83 57.45 83.14 58.32 81.94 58.15 81.83 57.74 81.74 57.69 81.89 58.02 81.96 58.02 81.96"/><polygon class="cls-4" points="58.87 82.55 58.81 82.7 59.14 82.77 59.15 82.77 58.39 83.82 58.58 83.95 59.44 82.76 59.28 82.64 58.87 82.55"/><path class="cls-4" d="M74.61,99.67l.16-.22-.14-.2-.21.29Z" transform="translate(-14.91 -14.91)"/><path class="cls-4" d="M75.72,100.46l-.18-.1,0,0A.62.62,0,0,0,75.72,100.46Z" transform="translate(-14.91 -14.91)"/><path class="cls-4" d="M77.21,101.29l-.26-.14a.29.29,0,0,1-.16-.06.27.27,0,0,1,0-.05l-.26-.14a.51.51,0,0,0,.2.31A.54.54,0,0,0,77.21,101.29Z" transform="translate(-14.91 -14.91)"/><path class="cls-4" d="M77.82,102a.55.55,0,0,0,.68,0l-.21-.12a.31.31,0,0,1-.36,0,.3.3,0,0,1-.12-.28l-.19-.11A.52.52,0,0,0,77.82,102Z" transform="translate(-14.91 -14.91)"/><path class="cls-4" d="M78.94,102.83a.58.58,0,0,0,.8-.11l-.16-.08,0,0c-.17.16-.34.21-.49.1a.35.35,0,0,1-.08-.43l-.2-.12A.54.54,0,0,0,78.94,102.83Z" transform="translate(-14.91 -14.91)"/><path class="cls-4" d="M80.07,103.64a.55.55,0,0,0,.43.1v0a1,1,0,0,0,0-.17.3.3,0,0,1-.35,0c-.16-.11-.15-.33,0-.6l-.21-.11A.59.59,0,0,0,80.07,103.64Z" transform="translate(-14.91 -14.91)"/><path class="cls-4" d="M70,99.75c.32.23.66.13,1-.27s.27-.73,0-.95l-.11,0-.09.13a.27.27,0,0,1,.1,0c.2.14.15.4-.06.7s-.45.43-.65.29-.16-.26-.07-.47c-.08,0-.16.1-.25.14A.51.51,0,0,0,70,99.75Z" transform="translate(-14.91 -14.91)"/><polygon class="cls-4" points="57.29 84.56 57.12 84.44 56.71 84.35 56.66 84.5 56.99 84.57 56.99 84.57 56.24 85.62 56.42 85.75 57.29 84.56"/><path class="cls-4" d="M73.2,100.16c-.29-.21-.66-.14-.95.26s-.25.75,0,1,.66.13,1-.27S73.5,100.38,73.2,100.16ZM73,101c-.22.31-.45.43-.65.29s-.16-.39.06-.7.48-.41.65-.29S73.25,100.68,73,101Z" transform="translate(-14.91 -14.91)"/><path class="cls-4" d="M73.38,101.23c-.28.4-.25.75,0,1s.66.13,1-.27.27-.73,0-.95S73.67,100.83,73.38,101.23Zm.78.55c-.22.31-.45.43-.65.29s-.16-.39.06-.7.48-.41.65-.29S74.38,101.49,74.17,101.79Z" transform="translate(-14.91 -14.91)"/><path class="cls-4" d="M74.54,103c.32.23.66.13,1-.27s.27-.73,0-.95-.66-.14-.95.26S74.26,102.8,74.54,103Zm.16-.81c.24-.33.48-.41.65-.29s.15.4-.06.7-.45.43-.65.29S74.48,102.5,74.7,102.19Z" transform="translate(-14.91 -14.91)"/><path class="cls-4" d="M75.66,103.82c.32.23.66.13,1-.27s.27-.73,0-.95-.66-.14-.95.26S75.38,103.61,75.66,103.82Zm.16-.81c.24-.33.48-.41.65-.29s.15.4-.06.7-.45.43-.65.29S75.6,103.31,75.83,103Z" transform="translate(-14.91 -14.91)"/><polygon class="cls-4" points="62.05 89.81 62.91 88.62 62.75 88.5 62.34 88.41 62.28 88.56 62.61 88.63 62.62 88.63 61.86 89.68 62.05 89.81"/><path class="cls-4" d="M77.91,105.44c.32.23.66.13,1-.27s.27-.73,0-.95-.66-.14-.95.26S77.63,105.24,77.91,105.44Zm.16-.81c.24-.33.48-.41.65-.29s.15.4-.06.7-.45.43-.65.29S77.85,104.94,78.07,104.63Z" transform="translate(-14.91 -14.91)"/><polygon class="cls-4" points="64.3 91.44 65.16 90.24 65 90.12 64.58 90.04 64.53 90.19 64.86 90.26 64.87 90.26 64.11 91.3 64.3 91.44"/><path class="cls-4" d="M63,96.4l-.75,1,.19.13.8-1.11a4.66,4.66,0,0,0-.45-.14l0,0,.24,0Z" transform="translate(-14.91 -14.91)"/><path class="cls-4" d="M64.3,97.08c-.29-.21-.66-.14-.95.26s-.25.75,0,1,.66.13,1-.27S64.6,97.3,64.3,97.08Zm-.16.81c-.22.31-.45.43-.65.29s-.16-.39.06-.7.48-.41.65-.29S64.35,97.6,64.14,97.89Z" transform="translate(-14.91 -14.91)"/><polygon class="cls-4" points="50.06 82.9 50.01 83.05 50.33 83.11 50.34 83.12 49.58 84.16 49.77 84.3 50.63 83.1 50.47 82.98 50.06 82.9"/><polygon class="cls-4" points="51.18 83.71 51.13 83.86 51.46 83.93 51.46 83.93 50.71 84.98 50.9 85.11 51.76 83.92 51.59 83.8 51.18 83.71"/><polygon class="cls-4" points="52.88 84.73 52.72 84.61 52.31 84.52 52.26 84.67 52.58 84.74 52.59 84.74 51.83 85.79 52.02 85.92 52.88 84.73"/><polygon class="cls-4" points="53.15 86.74 54.01 85.54 53.84 85.42 53.43 85.34 53.38 85.49 53.71 85.55 53.71 85.56 52.96 86.6 53.15 86.74"/><path class="cls-4" d="M69,102.36c.32.23.66.13,1-.27s.27-.73,0-.95-.66-.14-.95.26S68.73,102.16,69,102.36Zm.16-.81c.24-.33.48-.41.65-.29s.15.4-.06.7-.45.43-.65.29S68.95,101.86,69.17,101.55Z" transform="translate(-14.91 -14.91)"/><polygon class="cls-4" points="55.4 88.36 56.26 87.17 56.09 87.05 55.68 86.96 55.63 87.11 55.96 87.18 55.96 87.18 55.21 88.23 55.4 88.36"/><path class="cls-4" d="M71.23,103c-.28.4-.25.75,0,1s.66.13,1-.27.27-.73,0-.95S71.52,102.63,71.23,103Zm.78.55c-.22.31-.45.43-.65.29s-.16-.39.06-.7.48-.41.65-.29S72.22,103.29,72,103.58Z" transform="translate(-14.91 -14.91)"/><path class="cls-4" d="M72.35,103.85a.89.89,0,0,0-.19.57l.42-.5h0c.21-.25.43-.31.58-.2a.29.29,0,0,1,.09.11h.2a.55.55,0,0,0-.18-.23C73,103.37,72.64,103.44,72.35,103.85Z" transform="translate(-14.91 -14.91)"/><path class="cls-4" d="M61,98.07a.59.59,0,0,0-.14-.06l-.08.14a.27.27,0,0,1,.12,0c.2.14.15.39-.05.68A1.46,1.46,0,0,0,61,99l0,0C61.33,98.63,61.32,98.28,61,98.07Z" transform="translate(-14.91 -14.91)"/><path class="cls-4" d="M62.14,98.88c-.29-.21-.66-.14-.95.26l0,0,.19.14,0,0c.24-.33.48-.41.65-.29s.15.4-.06.7l0,0,.21.12h0C62.45,99.44,62.45,99.1,62.14,98.88Z" transform="translate(-14.91 -14.91)"/><path class="cls-4" d="M63.27,99.69c-.28-.21-.64-.14-.93.24l.21.12c.22-.29.46-.36.62-.25s.15.4-.06.7h0a1.4,1.4,0,0,0,.2.13h0C63.58,100.26,63.57,99.91,63.27,99.69Z" transform="translate(-14.91 -14.91)"/><path class="cls-4" d="M64.34,100.5l-.41-.09-.05.15.33.07h0l-.28.38.18.15.4-.55Z" transform="translate(-14.91 -14.91)"/><path class="cls-4" d="M65.47,101.31l-.41-.09-.05.15.33.07h0l-.35.48.16.17.48-.67Z" transform="translate(-14.91 -14.91)"/><path class="cls-4" d="M66.76,102.24l-.16-.12-.41-.09-.05.15.33.07h0l-.63.87a1.11,1.11,0,0,1,0,.29h0Z" transform="translate(-14.91 -14.91)"/><path class="cls-4" d="M67.8,103.89c.28-.38.27-.73,0-.95s-.66-.14-.95.26-.25.75,0,1S67.51,104.29,67.8,103.89Zm-.79-.54c.24-.33.48-.41.65-.29s.15.4-.06.7-.45.43-.65.29S66.79,103.66,67,103.35Z" transform="translate(-14.91 -14.91)"/><path class="cls-4" d="M67.95,104c-.28.4-.25.75,0,1s.66.13,1-.27.27-.73,0-.95S68.24,103.62,67.95,104Zm.78.55c-.22.31-.45.43-.65.29s-.16-.39.06-.7.48-.41.65-.29S68.94,104.27,68.73,104.57Z" transform="translate(-14.91 -14.91)"/><polygon class="cls-4" points="55.23 89.78 55.06 89.66 54.65 89.57 54.6 89.72 54.93 89.79 54.93 89.79 54.18 90.84 54.37 90.97 55.23 89.78"/><path class="cls-4" d="M70.2,105.64c-.28.4-.25.75,0,1s.66.13,1-.27.27-.73,0-.95S70.49,105.24,70.2,105.64Zm.78.55c-.22.31-.45.43-.65.29s-.16-.39.06-.7.48-.41.65-.29S71.19,105.9,71,106.19Z" transform="translate(-14.91 -14.91)"/><path class="cls-4" d="M71.32,106.46c-.28.4-.25.75,0,1s.66.13,1-.27a.89.89,0,0,0,.2-.53,3.59,3.59,0,0,1-.49-.52A.73.73,0,0,0,71.32,106.46Zm.84-.15c.2.14.15.4-.06.7s-.45.43-.65.29-.16-.39.06-.7S72,106.19,72.17,106.31Z" transform="translate(-14.91 -14.91)"/><path class="cls-4" d="M72.45,107.27c-.28.4-.25.75,0,1s.66.13,1-.27a.86.86,0,0,0,.19-.55l-.22-.14a.65.65,0,0,1-.17.55c-.22.31-.45.43-.65.29s-.16-.39.06-.7a.69.69,0,0,1,.46-.33l-.22-.15A.88.88,0,0,0,72.45,107.27Z" transform="translate(-14.91 -14.91)"/><path class="cls-4" d="M73.57,108.08c-.28.4-.25.75,0,1s.66.13,1-.27a.71.71,0,0,0,.14-.74l-.52-.31A.76.76,0,0,0,73.57,108.08Zm.84-.15c.2.14.15.4-.06.7s-.45.43-.65.29-.16-.39.06-.7S74.25,107.81,74.42,107.94Z" transform="translate(-14.91 -14.91)"/><path class="cls-4" d="M75.13,108.69l.33.07h0l-.75,1,.19.13.86-1.2-.16-.12h0l-.4-.08Z" transform="translate(-14.91 -14.91)"/><path class="cls-4" d="M75.82,109.71c-.28.4-.25.75,0,1l.1,0,.22-.12a.28.28,0,0,1-.22,0c-.18-.13-.16-.39.06-.7s.48-.41.65-.29.15.4-.06.7l-.1.11a1.24,1.24,0,0,0,.47-.59.52.52,0,0,0-.21-.33C76.48,109.23,76.11,109.31,75.82,109.71Z" transform="translate(-14.91 -14.91)"/><path class="cls-4" d="M64.51,104.89l-.33,0c-.17.17-.35.23-.5.12a.28.28,0,0,1-.1-.16l-.19,0a.51.51,0,0,0,.19.29C63.88,105.37,64.22,105.28,64.51,104.89Z" transform="translate(-14.91 -14.91)"/><path class="cls-4" d="M64.7,106c.32.23.66.13,1-.27s.27-.73,0-.95a.55.55,0,0,0-.46-.1,1.47,1.47,0,0,1-.27.14,1.1,1.1,0,0,0-.21.22C64.39,105.4,64.42,105.76,64.7,106Zm.16-.81c.24-.33.48-.41.65-.29s.15.4-.06.7-.45.43-.65.29S64.64,105.46,64.86,105.14Z" transform="translate(-14.91 -14.91)"/><path class="cls-4" d="M66.77,106.5c.28-.38.27-.73,0-.95s-.66-.14-.95.26-.25.75,0,1S66.48,106.91,66.77,106.5ZM66,106c.24-.33.48-.41.65-.29s.15.4-.06.7-.45.43-.65.29S65.76,106.27,66,106Z" transform="translate(-14.91 -14.91)"/><polygon class="cls-4" points="52.5 91.37 52.44 91.52 52.77 91.59 52.78 91.59 52.02 92.64 52.21 92.77 53.07 91.57 52.91 91.45 52.5 91.37"/><polygon class="cls-4" points="53.62 92.18 53.57 92.33 53.9 92.4 53.9 92.4 53.15 93.45 53.34 93.58 54.2 92.39 54.03 92.27 53.62 92.18"/><polygon class="cls-4" points="55.16 93.08 54.75 93 54.69 93.14 55.02 93.21 55.03 93.22 54.27 94.26 54.46 94.39 55.32 93.2 55.16 93.08"/><path class="cls-4" d="M70.29,109.07c-.28.4-.25.75,0,1s.66.13,1-.27.27-.73,0-.95S70.58,108.67,70.29,109.07Zm.78.55c-.22.31-.45.43-.65.29s-.16-.39.06-.7.48-.41.65-.29S71.29,109.32,71.08,109.62Z" transform="translate(-14.91 -14.91)"/><path class="cls-4" d="M71.45,110.83c.32.23.66.13,1-.27s.27-.73,0-.95-.66-.14-.95.26S71.17,110.63,71.45,110.83Zm.16-.81c.24-.33.48-.41.65-.29s.15.4-.06.7-.45.43-.65.29S71.39,110.33,71.61,110Z" transform="translate(-14.91 -14.91)"/><polygon class="cls-4" points="57.83 96.83 58.7 95.64 58.53 95.52 58.12 95.43 58.07 95.58 58.4 95.65 58.4 95.65 57.65 96.7 57.83 96.83"/><path class="cls-4" d="M73.67,111.5a1,1,0,0,0-.18.47l.23,0a1,1,0,0,1,.15-.29c.24-.33.48-.41.65-.29a.28.28,0,0,1,.12.23l.17-.11a.54.54,0,0,0-.18-.24C74.32,111,74,111.1,73.67,111.5Z" transform="translate(-14.91 -14.91)"/><polygon class="cls-4" points="44.57 88.78 44.16 88.7 44.1 88.85 44.43 88.92 44.44 88.92 43.68 89.96 43.87 90.1 44.73 88.9 44.57 88.78"/><path class="cls-4" d="M60.65,104.51c-.29-.21-.66-.14-.95.26s-.25.75,0,1,.66.13,1-.27S60.95,104.72,60.65,104.51Zm-.16.81c-.22.31-.45.43-.65.29s-.16-.39.06-.7.48-.41.65-.29S60.7,105,60.48,105.32Z" transform="translate(-14.91 -14.91)"/><polygon class="cls-4" points="46.82 90.41 46.41 90.32 46.35 90.47 46.68 90.54 46.69 90.54 45.93 91.59 46.12 91.72 46.98 90.53 46.82 90.41"/><path class="cls-4" d="M62.9,106.13c-.29-.21-.66-.14-.95.26s-.25.75,0,1,.66.13,1-.27S63.2,106.35,62.9,106.13Zm-.16.81c-.22.31-.45.43-.65.29s-.16-.39.06-.7.48-.41.65-.29S62.95,106.65,62.73,106.95Z" transform="translate(-14.91 -14.91)"/><path class="cls-4" d="M64.06,107.89c.27-.38.27-.73,0-.95s-.66-.14-.95.26-.25.75,0,1S63.76,108.3,64.06,107.89Zm-.79-.54c.24-.33.48-.41.65-.29s.15.4-.06.7-.45.43-.65.29S63,107.66,63.27,107.35Z" transform="translate(-14.91 -14.91)"/><path class="cls-4" d="M64.23,109c.32.23.66.13,1-.27s.27-.73,0-.95-.66-.14-.95.26S64,108.77,64.23,109Zm.16-.81c.24-.33.48-.41.65-.29s.15.4-.06.7-.45.43-.65.29S64.17,108.47,64.39,108.16Z" transform="translate(-14.91 -14.91)"/><path class="cls-4" d="M65.35,109.79c.32.23.66.13,1-.27s.27-.73,0-.95-.66-.14-.95.26S65.08,109.59,65.35,109.79Zm.16-.81c.24-.33.48-.41.65-.29s.15.4-.06.7-.45.43-.65.29S65.29,109.29,65.52,109Z" transform="translate(-14.91 -14.91)"/><polygon class="cls-4" points="52.03 94.39 51.98 94.54 52.31 94.6 52.31 94.61 51.56 95.65 51.74 95.79 52.61 94.59 52.44 94.47 52.03 94.39"/><path class="cls-4" d="M67.58,110.46a.75.75,0,0,0-.15.73v-.36a1.38,1.38,0,0,1,.65-.73A.84.84,0,0,0,67.58,110.46Z" transform="translate(-14.91 -14.91)"/><path class="cls-4" d="M59.62,107.12a.57.57,0,0,0-.72,0l.19.15a.35.35,0,0,1,.43-.06.34.34,0,0,1,.08.43l.2.14A.54.54,0,0,0,59.62,107.12Z" transform="translate(-14.91 -14.91)"/><path class="cls-4" d="M60.69,107.92l-.41-.09-.05.15.33.07h0l-.12.17.19.13.23-.31Z" transform="translate(-14.91 -14.91)"/><path class="cls-4" d="M61.82,108.74l-.41-.09-.05.15.33.07h0l-.14.19.18.15.26-.35Z" transform="translate(-14.91 -14.91)"/><path class="cls-4" d="M62.94,109.55l-.41-.09-.05.15.33.07h0l-.33.46,0,.07v.26l.59-.81Z" transform="translate(-14.91 -14.91)"/><path class="cls-4" d="M64.12,110.37c-.29-.21-.66-.14-.95.26s-.25.75,0,1,.66.13,1-.27S64.42,110.59,64.12,110.37Zm-.16.81c-.22.31-.45.43-.65.29s-.16-.39.06-.7.48-.41.65-.29S64.17,110.89,64,111.18Z" transform="translate(-14.91 -14.91)"/><path class="cls-4" d="M65.24,111.18c-.29-.21-.66-.14-.95.26s-.25.75,0,1,.66.13,1-.27S65.54,111.4,65.24,111.18Zm-.16.81c-.22.31-.45.43-.65.29s-.16-.39.06-.7.48-.41.65-.29S65.29,111.7,65.08,112Z" transform="translate(-14.91 -14.91)"/><path class="cls-4" d="M65.42,112.26c-.28.4-.25.75,0,1s.66.13,1-.27.27-.73,0-.95S65.71,111.86,65.42,112.26Zm.78.55c-.22.31-.45.43-.65.29s-.16-.39.06-.7.48-.41.65-.29S66.42,112.51,66.2,112.81Z" transform="translate(-14.91 -14.91)"/><path class="cls-4" d="M67.44,112.8l-.41-.09-.05.15.33.07h0l-.3.42h.28l.32-.45Z" transform="translate(-14.91 -14.91)"/><path class="cls-4" d="M62,112.17c-.29-.21-.66-.14-.95.26s-.24.69,0,.9h.8a1.24,1.24,0,0,0,.2-.22C62.27,112.73,62.26,112.38,62,112.17Zm-.16.81c-.22.31-.45.43-.65.29s-.16-.39.06-.7.48-.41.65-.29S62,112.69,61.8,113Z" transform="translate(-14.91 -14.91)"/><path class="cls-4" d="M62.14,113.24s0,.06,0,.09h.29c.22-.27.45-.35.61-.24a.28.28,0,0,1,.12.24h.2a.52.52,0,0,0-.22-.35C62.8,112.77,62.43,112.84,62.14,113.24Z" transform="translate(-14.91 -14.91)"/><path class="cls-4" d="M56.31,117.21l-.05.09c-.18.25-.39.35-.56.22a.3.3,0,0,1-.09-.34h-.19a.47.47,0,0,0,.2.44c.29.21.58.14.83-.2a.9.9,0,0,0,.11-.2h-.24Z" transform="translate(-14.91 -14.91)"/><polygon class="cls-4" points="41.88 103.54 42.59 102.54 42.45 102.43 42.08 102.35 42.04 102.47 42.33 102.54 42.34 102.55 41.71 103.42 41.88 103.54"/><path class="cls-4" d="M58.41,118.08a.56.56,0,0,0-.82.19.54.54,0,0,0,.06.82c.29.21.58.14.83-.2a.73.73,0,0,0,.15-.38l-.19-.41Zm-.12.69c-.18.25-.39.35-.56.22s-.16-.34,0-.6.41-.34.56-.22S58.47,118.53,58.3,118.77Z" transform="translate(-14.91 -14.91)"/><path class="cls-4" d="M58.75,119.73c-.16-.11-.16-.34,0-.6l.08-.09-.09-.2a.85.85,0,0,0-.16.17.54.54,0,0,0,.06.82.49.49,0,0,0,.62,0l-.11-.18A.32.32,0,0,1,58.75,119.73Z" transform="translate(-14.91 -14.91)"/><path class="cls-4" d="M59.68,120.57l.06,0-.26-.44A.47.47,0,0,0,59.68,120.57Z" transform="translate(-14.91 -14.91)"/><path class="cls-4" d="M53.41,118c-.18.25-.39.35-.56.22s-.16-.34,0-.6l0,0-.3.09a.53.53,0,0,0,0,.4l.55.33a.66.66,0,0,0,.45-.31.54.54,0,0,0,0-.71l-.15,0C53.6,117.61,53.57,117.81,53.41,118Z" transform="translate(-14.91 -14.91)"/><path class="cls-4" d="M53.89,118.4c.2-.27.41-.34.56-.22s.15.35,0,.6a.62.62,0,0,1-.34.27l.2.12a.77.77,0,0,0,.32-.27.53.53,0,0,0-.06-.81.56.56,0,0,0-.82.19.72.72,0,0,0-.15.45l.2.12A.54.54,0,0,1,53.89,118.4Z" transform="translate(-14.91 -14.91)"/><path class="cls-4" d="M55.66,118.92l-.15-.11-.37-.09,0,.13.29.07h0l-.46.63.18.11Z" transform="translate(-14.91 -14.91)"/><path class="cls-4" d="M56,120.65l.72-1-.15-.11-.37-.09,0,.13.29.07h0l-.62.86,0,0Z" transform="translate(-14.91 -14.91)"/><polygon class="cls-4" points="42.28 105.29 42.24 105.41 42.53 105.48 42.53 105.48 41.91 106.36 42.07 106.48 42.79 105.48 42.65 105.37 42.28 105.29"/><polygon class="cls-4" points="43.09 107.21 43.81 106.22 43.66 106.11 43.3 106.02 43.26 106.15 43.55 106.22 43.55 106.22 42.92 107.09 43.09 107.21"/><path class="cls-4" d="M58.81,121.95a.54.54,0,0,0,.06.82c.29.21.58.14.83-.2a.53.53,0,0,0-.06-.81A.56.56,0,0,0,58.81,121.95Zm.71.5c-.18.25-.39.35-.56.22s-.16-.34,0-.6.41-.34.56-.22S59.69,122.2,59.51,122.45Z" transform="translate(-14.91 -14.91)"/><path class="cls-4" d="M59.88,123.51c.29.21.58.14.83-.2a.53.53,0,0,0-.06-.81.56.56,0,0,0-.82.19A.54.54,0,0,0,59.88,123.51Zm.12-.69c.2-.27.41-.34.56-.22s.15.35,0,.6-.39.35-.56.22S59.81,123.07,60,122.81Z" transform="translate(-14.91 -14.91)"/><path class="cls-4" d="M61,124.14c-.16-.11-.16-.34,0-.6a.82.82,0,0,1,.18-.18l-.09-.17a.75.75,0,0,0-.27.23.54.54,0,0,0,.06.82.5.5,0,0,0,.65,0l-.08-.21C61.3,124.19,61.14,124.25,61,124.14Z" transform="translate(-14.91 -14.91)"/><path class="cls-4" d="M61.79,124.84l-.07-.17A.45.45,0,0,0,61.79,124.84Z" transform="translate(-14.91 -14.91)"/><path class="cls-4" d="M55.31,122.6a.48.48,0,0,0,.19.54c.29.21.58.14.83-.2a.53.53,0,0,0-.06-.81.52.52,0,0,0-.37-.1A2,2,0,0,1,55.31,122.6Zm.87-.38c.18.13.15.35,0,.6s-.39.35-.56.22-.16-.34,0-.6S56,122.11,56.18,122.22Z" transform="translate(-14.91 -14.91)"/><polygon class="cls-4" points="41.77 109.05 42.48 108.05 42.34 107.95 41.97 107.86 41.93 107.99 42.22 108.06 42.23 108.06 41.6 108.93 41.77 109.05"/><polygon class="cls-4" points="42.78 109.79 43.5 108.79 43.35 108.68 42.99 108.59 42.95 108.72 43.24 108.79 43.24 108.79 42.61 109.66 42.78 109.79"/><polygon class="cls-4" points="43.8 110.52 44.52 109.53 44.37 109.42 44.01 109.33 43.96 109.46 44.26 109.53 44.26 109.53 43.63 110.4 43.8 110.52"/><path class="cls-4" d="M59.8,126.18a.59.59,0,0,0,.6-.3.53.53,0,0,0-.06-.81.56.56,0,0,0-.82.19.55.55,0,0,0,0,.75h0Zm-.11-.8c.2-.27.41-.34.56-.22s.15.35,0,.6-.39.35-.56.22S59.5,125.64,59.69,125.39Z" transform="translate(-14.91 -14.91)"/><path class="cls-4" d="M60.71,126.12c.2-.27.41-.34.56-.22s.15.35,0,.6-.37.34-.54.24l.31.19a.71.71,0,0,0,.41-.31.53.53,0,0,0-.06-.81.56.56,0,0,0-.82.19.64.64,0,0,0-.13.55l.26.16C60.52,126.59,60.53,126.37,60.71,126.12Z" transform="translate(-14.91 -14.91)"/><path class="cls-4" d="M61.72,126.86c.2-.27.41-.34.56-.22s.15.35,0,.6a.62.62,0,0,1-.34.27l.2.12a.76.76,0,0,0,.32-.27.9.9,0,0,0,.11-.2c-.06-.21-.12-.41-.18-.62a.56.56,0,0,0-.82.2.73.73,0,0,0-.15.44l.19.12A.55.55,0,0,1,61.72,126.86Z" transform="translate(-14.91 -14.91)"/><path class="cls-4" d="M62.43,127.81l.17.11a.63.63,0,0,1,.09-.25c0-.09-.05-.17-.08-.26l-.05.05A.77.77,0,0,0,62.43,127.81Z" transform="translate(-14.91 -14.91)"/><path class="cls-4" d="M48.56,120.89l.17.12.47-.65-.18-.11Z" transform="translate(-14.91 -14.91)"/><path class="cls-4" d="M49.58,121.63l.17.12.53-.73-.18-.11Z" transform="translate(-14.91 -14.91)"/><path class="cls-4" d="M51.26,122.08c-.18.25-.39.35-.56.22s-.16-.34,0-.6a.63.63,0,0,1,.33-.26l-.22-.11a.74.74,0,0,0-.28.24.54.54,0,0,0,.06.82c.29.21.58.14.83-.2a.65.65,0,0,0,.14-.5l-.19-.09A.52.52,0,0,1,51.26,122.08Z" transform="translate(-14.91 -14.91)"/><path class="cls-4" d="M51.57,122.32a.54.54,0,0,0,.06.82c.29.21.58.14.83-.2a.53.53,0,0,0-.06-.81A.56.56,0,0,0,51.57,122.32Zm.71.5c-.18.25-.39.35-.56.22s-.16-.34,0-.6.41-.34.56-.22S52.46,122.57,52.28,122.81Z" transform="translate(-14.91 -14.91)"/><path class="cls-4" d="M52.59,123.05a.54.54,0,0,0,.06.82c.29.21.58.14.83-.2a.53.53,0,0,0-.06-.81A.56.56,0,0,0,52.59,123.05Zm.71.5c-.18.25-.39.35-.56.22s-.16-.34,0-.6.41-.34.56-.22S53.47,123.3,53.3,123.55Z" transform="translate(-14.91 -14.91)"/><path class="cls-4" d="M53.61,123.79a.54.54,0,0,0,.06.82c.29.21.58.14.83-.2a.53.53,0,0,0-.06-.81A.56.56,0,0,0,53.61,123.79Zm.71.5c-.18.25-.39.35-.56.22s-.16-.34,0-.6.41-.34.56-.22S54.49,124,54.31,124.28Z" transform="translate(-14.91 -14.91)"/><path class="cls-4" d="M54.62,124.52a.54.54,0,0,0,.06.82c.29.21.58.14.83-.2a.53.53,0,0,0-.06-.81A.56.56,0,0,0,54.62,124.52Zm.71.5c-.18.25-.39.35-.56.22s-.16-.34,0-.6.41-.34.56-.22S55.51,124.77,55.33,125Z" transform="translate(-14.91 -14.91)"/><polygon class="cls-4" points="40.95 111.26 41.67 110.26 41.52 110.15 41.15 110.06 41.11 110.19 41.4 110.26 41.41 110.26 40.78 111.13 40.95 111.26"/><path class="cls-4" d="M56.83,126.12c.18-.24.37-.31.52-.24l.14-.07h0a.56.56,0,0,0-.82.19.57.57,0,0,0-.06.7,1.16,1.16,0,0,1,.09-.2A.62.62,0,0,1,56.83,126.12Z" transform="translate(-14.91 -14.91)"/><polygon class="cls-4" points="36.06 110.52 36.78 109.52 36.63 109.42 36.26 109.33 36.22 109.45 36.51 109.52 36.52 109.53 35.89 110.4 36.06 110.52"/><polygon class="cls-4" points="37.07 111.25 37.79 110.26 37.65 110.15 37.28 110.06 37.24 110.19 37.53 110.26 37.53 110.26 36.91 111.13 37.07 111.25"/><polygon class="cls-4" points="38.09 111.99 38.81 110.99 38.66 110.89 38.3 110.8 38.26 110.92 38.55 110.99 38.55 111 37.92 111.87 38.09 111.99"/><path class="cls-4" d="M54.69,127.35a.53.53,0,0,0-.06-.81.56.56,0,0,0-.82.19.54.54,0,0,0,.06.82C54.15,127.75,54.45,127.68,54.69,127.35Zm-.74.1c-.16-.11-.16-.34,0-.6s.41-.34.56-.22.15.35,0,.6S54.13,127.58,53.95,127.45Z" transform="translate(-14.91 -14.91)"/><polygon class="cls-4" points="40.33 112.27 40.29 112.4 40.58 112.47 40.59 112.47 39.96 113.34 40.13 113.46 40.85 112.46 40.7 112.36 40.33 112.27"/><path class="cls-4" d="M56.78,128.12a.54.54,0,0,0-.94.07.54.54,0,0,0,.06.82c.29.21.58.14.83-.2a.6.6,0,0,0,.12-.57l0,0Zm-.23.57c-.18.25-.39.35-.56.22s-.16-.34,0-.6.41-.34.56-.22S56.73,128.45,56.55,128.7Z" transform="translate(-14.91 -14.91)"/><path class="cls-4" d="M57.57,129.43c-.18.25-.39.35-.56.22s-.16-.34,0-.6.34-.3.48-.26l-.19-.16a.64.64,0,0,0-.46.29.54.54,0,0,0,.06.82c.29.21.58.14.83-.2a.71.71,0,0,0,.15-.43l-.2-.17A.51.51,0,0,1,57.57,129.43Z" transform="translate(-14.91 -14.91)"/><path class="cls-4" d="M58.59,130.17c-.18.25-.39.35-.56.22s-.16-.34,0-.6a.56.56,0,0,1,.38-.27l-.19-.14a.7.7,0,0,0-.36.28.54.54,0,0,0,.06.82c.29.21.58.14.83-.2a.71.71,0,0,0,.15-.41l-.19-.14A.56.56,0,0,1,58.59,130.17Z" transform="translate(-14.91 -14.91)"/><path class="cls-4" d="M59.27,130.24l.24.06-.21-.14Z" transform="translate(-14.91 -14.91)"/><path class="cls-4" d="M58.94,131.19l.17.12.62-.86-.17-.12Z" transform="translate(-14.91 -14.91)"/><path class="cls-4" d="M60.33,130.85l0,.13.29.07h0l-.63.87.17.12.65-.9-.43-.29Z" transform="translate(-14.91 -14.91)"/><path class="cls-4" d="M61.35,131.59l0,.13.29.07h0l-.63.87.17.12.68-.94-.32-.21Z" transform="translate(-14.91 -14.91)"/><path class="cls-4" d="M62.79,132.83a.78.78,0,0,1-.13.28c-.18.25-.39.35-.56.22s-.16-.34,0-.6.35-.3.49-.25l-.15-.17a.61.61,0,0,0-.51.29.54.54,0,0,0,.06.82.51.51,0,0,0,.7-.06A.81.81,0,0,0,62.79,132.83Z" transform="translate(-14.91 -14.91)"/><path class="cls-4" d="M45.86,123.78a.54.54,0,0,0,.06.82c.29.21.58.14.83-.2a.59.59,0,0,0,.11-.59c-.2-.12-.39-.23-.58-.32A.67.67,0,0,0,45.86,123.78Zm.71.5c-.18.25-.39.35-.56.22s-.16-.34,0-.6.41-.34.56-.22S46.75,124,46.57,124.28Z" transform="translate(-14.91 -14.91)"/><path class="cls-4" d="M46.88,124.52a.54.54,0,0,0,.06.82c.29.21.58.14.83-.2a.53.53,0,0,0-.06-.81A.56.56,0,0,0,46.88,124.52Zm.71.5c-.18.25-.39.35-.56.22s-.16-.34,0-.6.41-.34.56-.22S47.77,124.77,47.59,125Z" transform="translate(-14.91 -14.91)"/><path class="cls-4" d="M47.9,125.25a.54.54,0,0,0,.06.82c.29.21.58.14.83-.2a.53.53,0,0,0-.06-.81A.56.56,0,0,0,47.9,125.25Zm.71.5c-.18.25-.39.35-.56.22s-.16-.34,0-.6.41-.34.56-.22S48.78,125.51,48.61,125.75Z" transform="translate(-14.91 -14.91)"/><polygon class="cls-4" points="34.22 111.99 34.94 110.99 34.79 110.89 34.42 110.8 34.38 110.92 34.68 110.99 34.68 111 34.05 111.87 34.22 111.99"/><polygon class="cls-4" points="35.24 112.72 35.96 111.73 35.81 111.62 35.44 111.53 35.4 111.66 35.69 111.73 35.7 111.73 35.07 112.6 35.24 112.72"/><polygon class="cls-4" points="36.26 113.46 36.98 112.46 36.83 112.36 36.46 112.27 36.42 112.39 36.71 112.46 36.72 112.47 36.09 113.34 36.26 113.46"/><path class="cls-4" d="M52,128.2A.54.54,0,0,0,52,129c.29.21.58.14.83-.2a.53.53,0,0,0-.06-.81A.56.56,0,0,0,52,128.2Zm.71.5c-.18.25-.39.35-.56.22s-.16-.34,0-.6.41-.34.56-.22S52.85,128.45,52.68,128.69Z" transform="translate(-14.91 -14.91)"/><path class="cls-4" d="M53.87,129.55a.53.53,0,0,0-.06-.81.56.56,0,0,0-.82.19.54.54,0,0,0,.06.82C53.33,130,53.63,129.89,53.87,129.55Zm-.74.1c-.16-.11-.16-.34,0-.6s.41-.34.56-.22.15.35,0,.6S53.31,129.78,53.13,129.65Z" transform="translate(-14.91 -14.91)"/><polygon class="cls-4" points="40.03 114.67 39.88 114.56 39.51 114.47 39.47 114.6 39.77 114.67 39.77 114.67 39.14 115.54 39.31 115.67 40.03 114.67"/><path class="cls-4" d="M55,130.4a.54.54,0,0,0,.06.82c.29.21.58.14.83-.2a.53.53,0,0,0-.06-.81A.56.56,0,0,0,55,130.4Zm.71.5c-.18.25-.39.35-.56.22s-.16-.34,0-.6.41-.34.56-.22S55.91,130.66,55.73,130.9Z" transform="translate(-14.91 -14.91)"/><path class="cls-4" d="M56.93,131.76a.53.53,0,0,0-.06-.81.56.56,0,0,0-.82.19.54.54,0,0,0,.06.82C56.39,132.16,56.68,132.1,56.93,131.76Zm-.74.1c-.16-.11-.16-.34,0-.6s.41-.34.56-.22.15.35,0,.6S56.36,132,56.18,131.86Z" transform="translate(-14.91 -14.91)"/><path class="cls-4" d="M57.23,132c.2-.27.41-.34.56-.22h0l.14,0-.06-.07a.56.56,0,0,0-.82.19.55.55,0,0,0,0,.78,1.8,1.8,0,0,1,0-.22A.54.54,0,0,1,57.23,132Z" transform="translate(-14.91 -14.91)"/><path class="cls-4" d="M45,126a.54.54,0,0,0,.06.82c.29.21.58.14.83-.2a.53.53,0,0,0-.06-.81A.56.56,0,0,0,45,126Zm.71.5c-.18.25-.39.35-.56.22s-.16-.34,0-.6.41-.34.56-.22S45.93,126.24,45.75,126.49Z" transform="translate(-14.91 -14.91)"/><path class="cls-4" d="M46.06,126.72a.54.54,0,0,0,.06.82c.29.21.58.14.83-.2a.53.53,0,0,0-.06-.81A.56.56,0,0,0,46.06,126.72Zm.74-.1c.18.13.15.35,0,.6s-.39.35-.56.22-.16-.34,0-.6S46.65,126.52,46.8,126.63Z" transform="translate(-14.91 -14.91)"/><path class="cls-4" d="M47.9,127.27a.56.56,0,0,0-.82.19.54.54,0,0,0,.06.82c.29.21.58.14.83-.2A.53.53,0,0,0,47.9,127.27Zm-.12.69c-.18.25-.39.35-.56.22s-.16-.34,0-.6.41-.34.56-.22S48,127.71,47.79,128Z" transform="translate(-14.91 -14.91)"/><polygon class="cls-4" points="33.61 113 33.57 113.13 33.86 113.2 33.86 113.2 33.23 114.07 33.4 114.19 34.12 113.2 33.97 113.09 33.61 113"/><path class="cls-4" d="M49.12,128.93a.54.54,0,0,0,.06.82c.29.21.58.14.83-.2a.53.53,0,0,0-.06-.81A.56.56,0,0,0,49.12,128.93Zm.71.5c-.18.25-.39.35-.56.22s-.16-.34,0-.6.41-.34.56-.22S50,129.18,49.82,129.43Z" transform="translate(-14.91 -14.91)"/><path class="cls-4" d="M50.13,129.67a.54.54,0,0,0,.06.82c.29.21.58.14.83-.2a.53.53,0,0,0-.06-.81A.56.56,0,0,0,50.13,129.67Zm.71.5c-.18.25-.39.35-.56.22s-.16-.34,0-.6.41-.34.56-.22S51,129.92,50.84,130.16Z" transform="translate(-14.91 -14.91)"/><path class="cls-4" d="M52,130.21a.56.56,0,0,0-.82.19.54.54,0,0,0,.06.82c.29.21.58.14.83-.2A.53.53,0,0,0,52,130.21Zm-.12.69c-.18.25-.39.35-.56.22s-.16-.34,0-.6.41-.34.56-.22S52,130.65,51.86,130.9Z" transform="translate(-14.91 -14.91)"/><polygon class="cls-4" points="37.47 117.14 38.19 116.14 38.04 116.03 37.68 115.94 37.64 116.07 37.93 116.14 37.93 116.14 37.3 117.01 37.47 117.14"/><polygon class="cls-4" points="39.06 116.77 38.7 116.68 38.66 116.81 38.95 116.88 38.95 116.88 38.32 117.75 38.49 117.87 39.21 116.87 39.06 116.77"/><polygon class="cls-4" points="39.51 118.61 40.23 117.61 40.08 117.5 39.71 117.41 39.67 117.54 39.97 117.61 39.97 117.61 39.34 118.48 39.51 118.61"/><path class="cls-4" d="M56.11,134a.53.53,0,0,0-.06-.81.56.56,0,0,0-.82.19.54.54,0,0,0,.06.82C55.57,134.37,55.87,134.3,56.11,134Zm-.71-.49c.2-.27.41-.34.56-.22s.15.35,0,.6-.39.35-.56.22S55.21,133.73,55.4,133.47Z" transform="translate(-14.91 -14.91)"/><path class="cls-4" d="M56.24,134.08a.54.54,0,0,0,.06.82c.29.21.58.14.83-.2a.53.53,0,0,0-.06-.81A.56.56,0,0,0,56.24,134.08Zm.71.5c-.18.25-.39.35-.56.22s-.16-.34,0-.6.41-.34.56-.22S57.13,134.33,56.95,134.58Z" transform="translate(-14.91 -14.91)"/><polygon class="cls-4" points="43.13 119.71 42.77 119.62 42.73 119.75 43.02 119.82 43.02 119.82 42.39 120.69 42.56 120.81 43.28 119.81 43.13 119.71"/><path class="cls-4" d="M58.28,135.55a.54.54,0,0,0,.06.82c.29.21.58.14.83-.2a.53.53,0,0,0-.06-.81A.56.56,0,0,0,58.28,135.55Zm.71.5c-.18.25-.39.35-.56.22s-.16-.34,0-.6.41-.34.56-.22S59.16,135.8,59,136Z" transform="translate(-14.91 -14.91)"/><polygon class="cls-4" points="30.04 114.56 30.76 113.56 30.61 113.46 30.24 113.37 30.2 113.5 30.5 113.56 30.5 113.57 29.87 114.44 30.04 114.56"/><path class="cls-4" d="M45.75,129.3a.54.54,0,0,0,.06.82c.29.21.58.14.83-.2a.53.53,0,0,0-.06-.81A.56.56,0,0,0,45.75,129.3Zm.71.5c-.18.25-.39.35-.56.22s-.16-.34,0-.6.41-.34.56-.22S46.64,129.55,46.46,129.8Z" transform="translate(-14.91 -14.91)"/><polygon class="cls-4" points="32.65 114.93 32.28 114.84 32.24 114.97 32.53 115.03 32.53 115.04 31.91 115.91 32.08 116.03 32.79 115.03 32.65 114.93"/><path class="cls-4" d="M47.85,131.59c.29.21.58.14.83-.2a.53.53,0,0,0-.06-.81.56.56,0,0,0-.82.19A.54.54,0,0,0,47.85,131.59Zm.12-.69c.2-.27.41-.34.56-.22s.15.35,0,.6-.39.35-.56.22S47.78,131.15,48,130.9Z" transform="translate(-14.91 -14.91)"/><path class="cls-4" d="M49.69,132.12a.53.53,0,0,0-.06-.81.56.56,0,0,0-.82.19.54.54,0,0,0,.06.82C49.15,132.53,49.45,132.46,49.69,132.12Zm-.74.1c-.16-.11-.16-.34,0-.6s.41-.34.56-.22.15.35,0,.6S49.13,132.36,48.95,132.23Z" transform="translate(-14.91 -14.91)"/><path class="cls-4" d="M50.71,132.86a.53.53,0,0,0-.06-.81.56.56,0,0,0-.82.19.54.54,0,0,0,.06.82C50.17,133.27,50.47,133.2,50.71,132.86Zm-.71-.49c.2-.27.41-.34.56-.22s.15.35,0,.6-.39.35-.56.22S49.81,132.62,50,132.37Z" transform="translate(-14.91 -14.91)"/><path class="cls-4" d="M51.73,133.59a.53.53,0,0,0-.06-.81.56.56,0,0,0-.82.19.54.54,0,0,0,.06.82C51.19,134,51.48,133.93,51.73,133.59ZM51,133.1c.2-.27.41-.34.56-.22s.15.35,0,.6-.39.35-.56.22S50.83,133.36,51,133.1Z" transform="translate(-14.91 -14.91)"/><polygon class="cls-4" points="37.88 118.71 37.73 118.6 37.37 118.52 37.33 118.64 37.62 118.71 37.62 118.72 36.99 119.59 37.16 119.71 37.88 118.71"/><path class="cls-4" d="M53.76,135.06a.53.53,0,0,0-.06-.81.56.56,0,0,0-.82.19.54.54,0,0,0,.06.82C53.22,135.47,53.52,135.4,53.76,135.06Zm-.71-.49c.2-.27.41-.34.56-.22s.15.35,0,.6-.39.35-.56.22S52.87,134.83,53.05,134.57Z" transform="translate(-14.91 -14.91)"/><path class="cls-4" d="M54.72,135a.56.56,0,0,0-.82.19A.54.54,0,0,0,54,136c.29.21.58.14.83-.2A.53.53,0,0,0,54.72,135Zm-.12.69c-.18.25-.39.35-.56.22s-.16-.34,0-.6.41-.34.56-.22S54.78,135.43,54.6,135.68Z" transform="translate(-14.91 -14.91)"/><path class="cls-4" d="M55.74,135.72a.56.56,0,0,0-.82.19.54.54,0,0,0,.06.82c.29.21.58.14.83-.2A.53.53,0,0,0,55.74,135.72Zm-.12.69c-.18.25-.39.35-.56.22s-.16-.34,0-.6.41-.34.56-.22S55.8,136.17,55.62,136.41Z" transform="translate(-14.91 -14.91)"/><path class="cls-4" d="M55.93,136.65a.54.54,0,0,0,.06.82c.29.21.58.14.83-.2a.53.53,0,0,0-.06-.81A.56.56,0,0,0,55.93,136.65Zm.71.5c-.18.25-.39.35-.56.22s-.16-.34,0-.6.41-.34.56-.22S56.82,136.9,56.64,137.15Z" transform="translate(-14.91 -14.91)"/><path class="cls-4" d="M44.93,131.5a.54.54,0,0,0,.06.82c.29.21.58.14.83-.2a.53.53,0,0,0-.06-.81A.56.56,0,0,0,44.93,131.5Zm.71.5c-.18.25-.39.35-.56.22s-.16-.34,0-.6.41-.34.56-.22S45.82,131.76,45.64,132Z" transform="translate(-14.91 -14.91)"/><polygon class="cls-4" points="31.46 117.04 31.42 117.17 31.71 117.24 31.72 117.24 31.09 118.11 31.26 118.24 31.98 117.24 31.83 117.13 31.46 117.04"/><polygon class="cls-4" points="32.27 118.97 32.99 117.97 32.84 117.87 32.48 117.78 32.44 117.91 32.73 117.97 32.73 117.98 32.1 118.85 32.27 118.97"/><polygon class="cls-4" points="34.01 118.71 33.86 118.6 33.5 118.52 33.46 118.64 33.75 118.71 33.75 118.71 33.12 119.58 33.29 119.71 34.01 118.71"/><path class="cls-4" d="M49.83,134.25a.56.56,0,0,0-.82.19.54.54,0,0,0,.06.82c.29.21.58.14.83-.2A.53.53,0,0,0,49.83,134.25Zm-.12.69c-.18.25-.39.35-.56.22s-.16-.34,0-.6.41-.34.56-.22S49.89,134.7,49.71,134.94Z" transform="translate(-14.91 -14.91)"/><path class="cls-4" d="M50.85,135a.56.56,0,0,0-.82.19.54.54,0,0,0,.06.82c.29.21.58.14.83-.2A.53.53,0,0,0,50.85,135Zm-.12.69c-.18.25-.39.35-.56.22s-.16-.34,0-.6.41-.34.56-.22S50.91,135.43,50.73,135.68Z" transform="translate(-14.91 -14.91)"/><path class="cls-4" d="M51,135.91a.54.54,0,0,0,.06.82c.29.21.58.14.83-.2a.53.53,0,0,0-.06-.81A.56.56,0,0,0,51,135.91Zm.71.5c-.18.25-.39.35-.56.22s-.16-.34,0-.6.41-.34.56-.22S51.93,136.17,51.75,136.41Z" transform="translate(-14.91 -14.91)"/><polygon class="cls-4" points="37.57 121.46 37.53 121.58 37.82 121.65 37.82 121.66 37.2 122.53 37.36 122.65 38.08 121.65 37.93 121.54 37.57 121.46"/><polygon class="cls-4" points="38.59 122.19 38.55 122.32 38.84 122.39 38.84 122.39 38.21 123.26 38.38 123.38 39.1 122.39 38.95 122.28 38.59 122.19"/><path class="cls-4" d="M48,135.72a.56.56,0,0,0-.82.19.54.54,0,0,0,.06.82c.29.21.58.14.83-.2A.53.53,0,0,0,48,135.72Zm-.12.69c-.18.25-.39.35-.56.22s-.16-.34,0-.6.41-.34.56-.22S48.05,136.17,47.88,136.41Z" transform="translate(-14.91 -14.91)"/><path class="cls-4" d="M48.19,136.65a.54.54,0,0,0,.06.82c.29.21.58.14.83-.2a.53.53,0,0,0-.06-.81A.56.56,0,0,0,48.19,136.65Zm.71.5c-.18.25-.39.35-.56.22s-.16-.34,0-.6.41-.34.56-.22S49.07,136.9,48.9,137.15Z" transform="translate(-14.91 -14.91)"/><path class="cls-5" d="M68,112.36l0,0h0Z" transform="translate(-14.91 -14.91)"/><path class="cls-5" d="M83.36,84.34a10.11,10.11,0,0,1-.64-1.49,8.58,8.58,0,0,1-.26-1c0-.14-.07-.29-.09-.44a4.06,4.06,0,0,1-.63-2.19,20.44,20.44,0,0,1-1.06-4.33c0-.21-.08-.42-.12-.63l0-.14c-.05-.25-.25-.69.17-.77a.41.41,0,0,1,.28.11l.32.26.13.11c.56.25,1.08.61,1.62.89l.36.17a2.71,2.71,0,0,0,2,.16c.81-.92,1.06-1.58.71-2.27a2.08,2.08,0,0,0-.19-.31,3.78,3.78,0,0,0-.48-.52l-.1-.1-.24-.2-.44-.36-.32-.25-.94-.7-.34-.24-.91-.66-.33-.24-.12-.09a3.42,3.42,0,0,1-1-.52,2.39,2.39,0,0,1-.93-1.47,3.63,3.63,0,0,1-.06-.39,4.66,4.66,0,0,1,0-.69c0-.78,0-1.56.07-2.34q0-.15,0-.31c0-.43.07-.86.14-1.28V60.66a4.63,4.63,0,0,1,1.87,1.16,1.44,1.44,0,0,1,.68.31,1.63,1.63,0,0,1,.32.34c.2.08.39.18.58.29s.65.38,1,.59l.79.52a10.83,10.83,0,0,0,1.14.66l.41.19a5,5,0,0,0,.59.2l.38.07a4.13,4.13,0,0,0,.45.07,2.64,2.64,0,0,0,2.27-2.57,3.92,3.92,0,0,0-.19-.46,4.39,4.39,0,0,0-.21-.47,6.34,6.34,0,0,0-1.43-1.62l-.31-.26-.06-.05-.07-.06-.36-.25-1.18-.8-.45-.31-3-2.06c-2.57-1.55-2.28-1-1.39-3.68.43-1.33.61-3.23,1.75-3.68s2.23,1.23,3.42,1.85a13.15,13.15,0,0,1,1.3.88c2.27,1.12,4.12,3,6.58,3.76A7,7,0,0,0,96.42,55a2.52,2.52,0,0,0,1.48-1c.53-.87.32-2.15-.67-3.82l-2.84-2.22-.49-.3L92.79,47,92,46.45l-.36-.24L91,45.78l-.37-.26-1-.74-.32-.25c-.3-.23-.61-.45-.9-.69L88,43.67l-.4-.3-.2-.15-.13-.09c-.46-.34,0-.61.22-.85s.19-.21.28-.32l.25-.29a28.07,28.07,0,0,1,3.52-3.28c.43-.35.88-.63.23-1.17A25.78,25.78,0,0,1,88,34.45c-1.26-.9-2.54-1.76-3.76-2.72-.58-.46-1-.44-1.38.15a8.56,8.56,0,0,1-.85.89l-3.12,4.44a42.6,42.6,0,0,0-4,9.38,32.84,32.84,0,0,0-1.15,3.87L73,56.19l-.13,5v1.25l.59,6.34,1.24,6.28c.91,3.42,2.07,6.76,3.26,10.1A23,23,0,0,1,79.36,89c.13.43.25.87.38,1.31h0a15.5,15.5,0,0,1,.8,3.78c.13.6.26,1.2.35,1.8,0,.07,0,.14,0,.21,0,.3.07.6.09.9,0,.08,0,.16,0,.24a10,10,0,0,1,0,1.19C79.66,98,78.5,97,77.18,96.61L77,96.54a4,4,0,0,0-.67-.1H76l-.3,0c-.1,0-.19,0-.29,0l-.2.18c-1,.87-1.17,1.61-.58,2.58l.14.2a7.09,7.09,0,0,0,.72.88l0,0,.18.1.77.43.26.14.2.11.26.14.4.22.19.11.48.27.21.12.27.15.2.12.57.33,0,0,.16.08.22.1.21.11a.63.63,0,0,1,.34.6,1,1,0,0,1,0,.17v0a6,6,0,0,1-1.07,2.69c-.22.28-.64-.15-.95-.31a29.68,29.68,0,0,0-4.61-2.32h-.68l-.57.1h0l-.42.5-.17.21V106l0,0a3.59,3.59,0,0,0,.49.52,4.7,4.7,0,0,0,.38.31l.22.15.3.19.22.14.55.31.52.31a5.68,5.68,0,0,1,.76.55l.13.05h0c.6.23,1.44.44,1.42,1a.68.68,0,0,1,0,.18,1.24,1.24,0,0,1-.47.59,3.31,3.31,0,0,1-.34.22l-.22.12-.49.23a4.52,4.52,0,0,1-.67.54l-.17.11a2.76,2.76,0,0,1-.91.35l-.23,0a3.18,3.18,0,0,1-2.17-.76,10,10,0,0,0-1.93-1,1.55,1.55,0,0,0-1.3-.1,1.38,1.38,0,0,0-.65.73v.68l.22.52-.05,0,.32.32.6.41c.35.08.92.27.22.53a3.59,3.59,0,0,1-1.46.11h-7l-4.21.05a24.32,24.32,0,0,0-6.24,1.55,14,14,0,0,0-3.48,3.19,1.72,1.72,0,0,1-.6,1,.21.21,0,0,1-.08.23l-.22.44-.74,2.1a1,1,0,0,1-.27.91l0,.35,0,.3c.19.3-.42.66.17,1,.36-1.41,1-1.38,1.75-1,.19.09.38.21.58.32l.27.16c.68.4,1.37.76,2.06,1.14l.31.05,1.27-.08c.81-1.11.08-1.82-.65-2.53-.73-.38-1.48-.73-2.17-1.17-.28-.18-1.15-.13-.63-.87.33-.46.76-.88,1.43-.43l.25.16.18.11.9.55.18.11.47.28.1,0,.22.11.33.16.19.09,1.7.82a2.06,2.06,0,0,0,2,.07,2,2,0,0,0,.58-.57,3.24,3.24,0,0,0,.25-.43V121l-.32-.43,0,0-.61-.82-.07,0-.18-.11-.66-.4-.2-.12-.32-.2-.2-.12-.43-.26-.55-.33-.44-.26.45-.14.3-.09.57-.16.15,0a9.11,9.11,0,0,1,1.79-.27h.19c.24,0,.47,0,.71,0h.24l1.48,0H69.11l5.08-.9.59-.15c.16-.24.41-.22.65-.22L79.21,114l.57-.48A18.55,18.55,0,0,0,85,106.75a28.75,28.75,0,0,0,1.48-6.33l-.47-6.29-1-4.42-1.67-5.38Z" transform="translate(-14.91 -14.91)"/><path class="cls-2" d="M58,117.2l.41.9.19.41.15.33.09.2.15.33.17.28.11.18.19.32.26.44a29.14,29.14,0,0,1,1.37,2.6l.09.17c.1.21.18.44.27.65l.08.21.17.44.07.17c.21.55.4,1.11.58,1.69.06.2.12.41.18.62l.08.26c0,.09.05.17.08.26s.08.25.11.38l-.2-.13-.17-.11-.32-.2-.2-.12-.33-.21-.19-.12-.39-.25-.31-.19,0,0-.26-.16-.6-.36-.28-.16h0a2.13,2.13,0,0,0-2-.2l-.14.07a2.25,2.25,0,0,0-.3.21,1.44,1.44,0,0,0-.35.41,1.16,1.16,0,0,0-.09.2,2.11,2.11,0,0,0,.18,1.43l0,.09,0,0c.15.14.32.26.47.4l.19.16.18.15.2.17.34.27.19.14.29.21.19.14.38.28.21.14,0,0,.17.12.61.41.43.29.72.48.32.21L62,132a3.23,3.23,0,0,1,.43.34l.15.17a.89.89,0,0,1,.17.35.81.81,0,0,1-.08.54,1.23,1.23,0,0,1-.07.14c-.54.85-1,0-1.38-.24-.74-.38-1.43-.88-2.13-1.33a1.41,1.41,0,0,0-1.18-.19l-.14,0a3.3,3.3,0,0,0-.6.28,2.36,2.36,0,0,0-.1.37,1.8,1.8,0,0,0,0,.22,1.86,1.86,0,0,0,1,1.7l1.44,1c2,1.36,2,1.36.12,3,.42.7.68,0,.92-.15A16.31,16.31,0,0,0,65.9,132a13.58,13.58,0,0,0,.16-6.3,39.74,39.74,0,0,0-2.59-6.33l-1.11-2.17H58Z" transform="translate(-14.91 -14.91)"/><path class="cls-2" d="M125.46,60.36a14.65,14.65,0,0,0-2.32-1l-.93-.42L116,55.88c0,.1-.06.2-.09.29l-.09.28c-.22.69-.41,1.4-.6,2.1l-.09.34c-.22.84-.46,1.66-.74,2.48l-.1.29c-.06.15-.1.31-.16.47-.38.92-.69,1.05-1.37.36l-.16-.08-.36-.18-1-.53-.35-.18c-.33-.18-.68-.33-1-.52l-.34-.21c-.39-.22-.76-.45-1.14-.68l-.34-.21c-.31-.19-.64-.37-.94-.57l-.08,0-.36-.17-.38-.18-.36-.19-1.05-.56-.36-.18-.38-.19-.37-.16a8.43,8.43,0,0,0-1.1-.4l-.39-.09a5.73,5.73,0,0,0-.63-.11,5.38,5.38,0,0,0-.86,0l-.24.12c-1.78.78-2.32,2-1.64,3.73.07.19.16.38.26.59s.21.41.34.62l0,.06.33.25,1.28,1a46.1,46.1,0,0,1,6,3.49,10.36,10.36,0,0,1,2.55,1.52c.79.2.71.6.27,1.1s-.63.75-.94,1.13-.39.47-.59.7A7.36,7.36,0,0,1,107,72.58c-.64,1.15-1.41,1.28-2.52.51s-2.52-1.46-3.8-2.18l-3.46-1.82c-.3-.07-.6-.15-.9-.2a2.27,2.27,0,0,0-2.51.79A2.75,2.75,0,0,0,94.06,73l3.18,2.14,4,2.2c-.33.16-.65.34-1,.52l-.47.27L98.38,79l-.29.17a10,10,0,0,1-3.71,1.4l-.2-.1-.36-.18-.33-.17L93.32,80l-.79-.4-.36-.19L91.36,79,91,78.81l-.61-.31L90,78.31l-.83-.43-.36-.18-.6-.31-.17-.09h-.21a2.21,2.21,0,0,0-1.48.44,1.56,1.56,0,0,0-.43.68l0,.06c-.38,1.22.37,2,1.18,2.68l2.62,1.4a33.35,33.35,0,0,1-3.25,1l-.67.16-.49.12-.42.1-1.55.33h0L85,89.71l3.34-.58,6-1.35,6.3-2.27L107,82.36A6.21,6.21,0,0,1,109,81.15l4.38-3.22,3.13-2.83,3.18-3.52,2-2.77a35.39,35.39,0,0,0,2.4-4.17c.32-.61.72-1.19,1-1.82.19-.45,1-1.71.77-2.12A.85.85,0,0,0,125.46,60.36Z" transform="translate(-14.91 -14.91)"/><path class="cls-2" d="M59.23,110.83c1.2.38,2.3,1.41,3.28,0v-.63l0-.07a4.48,4.48,0,0,0-.75-.93l-.18-.15a9.25,9.25,0,0,0-.92-.7l-.19-.13-.64-.43-.2-.14-.51-.37-.19-.15-.2-.16c-.85-1.62-.26-3.21.06-5.07l4.37,2.91.26,0,.19,0,.49,0h.11l.33,0a1.62,1.62,0,0,0,.37-.11,1.47,1.47,0,0,0,.27-.14,1.75,1.75,0,0,0,.58-.66,1.16,1.16,0,0,0,.14-.56,1.11,1.11,0,0,0,0-.29,2.45,2.45,0,0,0-.52-.87l-.16-.17-.16-.17c-.27-.27-.58-.52-.88-.76l-.18-.15-.25-.21a1.5,1.5,0,0,1-.38-.16,1.4,1.4,0,0,1-.2-.12,1.47,1.47,0,0,1-.34-.35l-.21-.12-.21-.12-.17-.1L62,99.71c-.23-.14-.43-.27-.6-.39l-.19-.14L61,99a1.46,1.46,0,0,1-.16-.18.64.64,0,0,1-.07-.73l.08-.14a8.94,8.94,0,0,1,1.88-1.65l0,0a4.66,4.66,0,0,1,.45.14,22.18,22.18,0,0,1,3.57,2.2,5.2,5.2,0,0,0,2.31.91,5,5,0,0,0,.71-.26c.09,0,.17-.1.25-.14a2.35,2.35,0,0,0,.69-.55l.09-.13a1.73,1.73,0,0,0-.35-2.09l-.14-.16c-.09-.11-.17-.21-.28-.32L70,95.81l-.19-.16-.21-.18-.17-.15-.53-.41-.18-.14-.21-.15-.19-.13-.55-.4-.18-.14-.47-.35a3.55,3.55,0,0,1,1.71-.76c.21-.1.43-.18.64-.27s.52-.23.78-.33l.64-.22h0q.84-.29,1.7-.5l.25-.06c.32-.08.63-.16,1-.22l.8-.13c.28,0,.55-.1.83-.13a12.82,12.82,0,0,1,2.1-.47l.31,0c.63-.08,1.27-.13,1.91-.16h0c-.12-.44-.25-.87-.38-1.31a23,23,0,0,0-1.44-3.81l-2.5.32-6.32,1.32a11.06,11.06,0,0,1-2.8,1l-3.52,1.77a18.07,18.07,0,0,0-8.51,10.87,30.8,30.8,0,0,0-.35,6.32l1.59,5.69.54.95,4.21-.05Z" transform="translate(-14.91 -14.91)"/></svg>