<svg id="Layer_1" data-name="Layer 1" xmlns="http://www.w3.org/2000/svg" viewBox="0 0 140.27 140.27"><defs><style>.cls-1{fill:#eee;}.cls-2{fill:#555658;}.cls-3{fill:none;}.cls-4{fill:#d86943;}</style></defs><title>DNK_flip</title><circle class="cls-1" cx="70.13" cy="70.13" r="69"/><path class="cls-2" d="M85,155.17A70.13,70.13,0,1,1,155.17,85,70.21,70.21,0,0,1,85,155.17Zm0-138A67.87,67.87,0,1,0,152.91,85,67.94,67.94,0,0,0,85,17.17Z" transform="translate(-14.91 -14.91)"/><path class="cls-3" d="M104.18,83.31a3.93,3.93,0,0,0-1.23-.84,3.89,3.89,0,0,0-3,0,3.88,3.88,0,0,0-2.05,2.07,3.87,3.87,0,0,0,0,3,3.88,3.88,0,0,0,2.05,2.07,3.9,3.9,0,0,0,3,0,3.94,3.94,0,0,0,1.23-.84,4,4,0,0,0,.83-1.23,3.85,3.85,0,0,0,0-3A4,4,0,0,0,104.18,83.31Z" transform="translate(-14.91 -14.91)"/><path class="cls-3" d="M100.43,110.8a3,3,0,0,0-.93-.63,2.92,2.92,0,0,0-2.28,0,2.92,2.92,0,0,0-1.54,1.55,2.92,2.92,0,0,0,0,2.26,2.92,2.92,0,0,0,1.54,1.55,2.92,2.92,0,0,0,2.28,0,3,3,0,0,0,1.55-1.56,2.89,2.89,0,0,0,0-2.25A3,3,0,0,0,100.43,110.8Z" transform="translate(-14.91 -14.91)"/><path class="cls-3" d="M84.41,110.8a3,3,0,0,0-.93-.63,2.92,2.92,0,0,0-2.28,0,2.92,2.92,0,0,0-1.54,1.55,2.92,2.92,0,0,0,0,2.26,2.92,2.92,0,0,0,1.54,1.55,2.92,2.92,0,0,0,2.28,0A3,3,0,0,0,85,114a2.89,2.89,0,0,0,0-2.25A3,3,0,0,0,84.41,110.8Z" transform="translate(-14.91 -14.91)"/><path class="cls-3" d="M73.78,110.8a3,3,0,0,0-.93-.63,2.92,2.92,0,0,0-2.28,0A2.92,2.92,0,0,0,69,111.72,2.92,2.92,0,0,0,69,114a2.92,2.92,0,0,0,1.54,1.55,2.92,2.92,0,0,0,2.28,0A3,3,0,0,0,74.4,114a2.89,2.89,0,0,0,0-2.25A3,3,0,0,0,73.78,110.8Z" transform="translate(-14.91 -14.91)"/><path class="cls-4" d="M59,81.56a6.05,6.05,0,0,0-1.84-1.23,5.75,5.75,0,0,0-5.67.69V75.7a1.16,1.16,0,0,0-.35-.83,1.15,1.15,0,0,0-1.63,0,1.12,1.12,0,0,0-.34.83V91.09a1.12,1.12,0,0,0,.34.82,1.11,1.11,0,0,0,.81.34,1.15,1.15,0,0,0,1.16-1.16V85.65a3.36,3.36,0,0,1,.27-1.34,3.53,3.53,0,0,1,1.85-1.85,3.35,3.35,0,0,1,1.34-.27,3.3,3.3,0,0,1,1.34.28,3.53,3.53,0,0,1,1.85,1.85,3.3,3.3,0,0,1,.28,1.34v5.44a1.12,1.12,0,0,0,.34.82,1.15,1.15,0,0,0,1.63,0,1.16,1.16,0,0,0,.35-.82V85.65a5.54,5.54,0,0,0-.46-2.25A5.81,5.81,0,0,0,59,81.56Z" transform="translate(-14.91 -14.91)"/><path class="cls-4" d="M70.07,92a5.12,5.12,0,0,0,1.62-.87,1.16,1.16,0,0,0,.33.81,1.09,1.09,0,0,0,.82.33,1.12,1.12,0,0,0,.82-.34A1.11,1.11,0,0,0,74,91.1V81a1.15,1.15,0,0,0-1.15-1.15A1.15,1.15,0,0,0,71.69,81v5.47a3.35,3.35,0,0,1-.27,1.34,3.54,3.54,0,0,1-.75,1.1,3.51,3.51,0,0,1-1.11.75,3.48,3.48,0,0,1-2.69,0A3.47,3.47,0,0,1,65,87.82a3.39,3.39,0,0,1-.27-1.35V81a1.16,1.16,0,0,0-2.31,0v5.47a5.54,5.54,0,0,0,.46,2.24A5.89,5.89,0,0,0,66,91.79a5.54,5.54,0,0,0,2.24.46A6,6,0,0,0,70.07,92Z" transform="translate(-14.91 -14.91)"/><path class="cls-4" d="M91.79,81.3a5,5,0,0,0-1.57-1.06,4.73,4.73,0,0,0-1.91-.39,4.82,4.82,0,0,0-3.78,1.76,4.7,4.7,0,0,0-1.71-1.32,5,5,0,0,0-2.08-.44,4.75,4.75,0,0,0-2.69.79,1.09,1.09,0,0,0-.41-.57,1.14,1.14,0,0,0-.69-.22A1.15,1.15,0,0,0,75.81,81V91.09A1.15,1.15,0,0,0,77,92.25a1.11,1.11,0,0,0,.81-.34,1.12,1.12,0,0,0,.34-.82v-6.3a2.55,2.55,0,0,1,.21-1,2.65,2.65,0,0,1,1.4-1.4,2.55,2.55,0,0,1,1-.21,2.49,2.49,0,0,1,1,.21,2.68,2.68,0,0,1,1.4,1.4,2.5,2.5,0,0,1,.21,1v6.3a1.15,1.15,0,0,0,1.16,1.16,1.11,1.11,0,0,0,.81-.34,1.12,1.12,0,0,0,.34-.82v-6.3a2.55,2.55,0,0,1,.21-1,2.58,2.58,0,0,1,.56-.83,2.78,2.78,0,0,1,.84-.56,2.49,2.49,0,0,1,1-.21,2.56,2.56,0,0,1,1,.21,2.66,2.66,0,0,1,.84.57,2.72,2.72,0,0,1,.56.84,2.52,2.52,0,0,1,.21,1v6.3a1.13,1.13,0,0,0,.33.82,1.16,1.16,0,0,0,1.63,0,1.12,1.12,0,0,0,.34-.82v-6.3a4.74,4.74,0,0,0-.39-1.91A5.06,5.06,0,0,0,91.79,81.3Z" transform="translate(-14.91 -14.91)"/><path class="cls-4" d="M101.43,79.85a6.2,6.2,0,1,0,0,12.4,6,6,0,0,0,2.08-.35,6.32,6.32,0,0,0,1.81-1v.22a1.11,1.11,0,0,0,.34.81,1.12,1.12,0,0,0,.83.34,1.15,1.15,0,0,0,1.15-1.15V86a6.2,6.2,0,0,0-6.2-6.2Zm3.58,7.7a4,4,0,0,1-.83,1.23,3.94,3.94,0,0,1-1.23.84,3.9,3.9,0,0,1-3,0,3.88,3.88,0,0,1-2.05-2.07,3.87,3.87,0,0,1,0-3,3.88,3.88,0,0,1,2.05-2.07,3.89,3.89,0,0,1,3,0,3.93,3.93,0,0,1,1.23.84,4,4,0,0,1,.83,1.23,3.85,3.85,0,0,1,0,3Z" transform="translate(-14.91 -14.91)"/><path class="cls-4" d="M119.22,81.54a6.05,6.05,0,0,0-1.84-1.23,5.75,5.75,0,0,0-5.67.69,1.16,1.16,0,0,0-2-.8,1.13,1.13,0,0,0-.34.82V91.09a1.16,1.16,0,1,0,2.31,0V85.63a3.36,3.36,0,0,1,.27-1.34,3.52,3.52,0,0,1,1.85-1.85,3.34,3.34,0,0,1,1.34-.27,3.3,3.3,0,0,1,1.34.28,3.53,3.53,0,0,1,1.85,1.85,3.3,3.3,0,0,1,.28,1.34v5.46a1.15,1.15,0,0,0,1.16,1.16,1.11,1.11,0,0,0,.81-.34,1.12,1.12,0,0,0,.34-.82V85.63a5.54,5.54,0,0,0-.46-2.25A5.81,5.81,0,0,0,119.22,81.54Z" transform="translate(-14.91 -14.91)"/><path class="cls-2" d="M75.49,104.21a.84.84,0,0,0-.86.86v4.14a4.65,4.65,0,1,0,.37,6.92,4.44,4.44,0,0,0,1.36-3.29v-7.77a.82.82,0,0,0-.25-.62A.85.85,0,0,0,75.49,104.21ZM74.4,114a3,3,0,0,1-1.55,1.56,2.92,2.92,0,0,1-2.28,0A2.92,2.92,0,0,1,69,114a2.92,2.92,0,0,1,0-2.26,2.92,2.92,0,0,1,1.54-1.55,2.92,2.92,0,0,1,2.28,0,3,3,0,0,1,1.55,1.56,2.89,2.89,0,0,1,0,2.25Z" transform="translate(-14.91 -14.91)"/><path class="cls-2" d="M82.35,108.2a4.65,4.65,0,1,0,0,9.3,4.54,4.54,0,0,0,1.56-.27,4.75,4.75,0,0,0,1.35-.76v.17a.87.87,0,0,0,1.74,0v-3.79a4.65,4.65,0,0,0-4.65-4.65ZM85,114a3,3,0,0,1-1.55,1.56,2.92,2.92,0,0,1-2.28,0A2.92,2.92,0,0,1,79.66,114a2.92,2.92,0,0,1,0-2.26,2.92,2.92,0,0,1,1.54-1.55,2.92,2.92,0,0,1,2.28,0A3,3,0,0,1,85,111.72,2.89,2.89,0,0,1,85,114Z" transform="translate(-14.91 -14.91)"/><path class="cls-2" d="M92.18,115.76a1.46,1.46,0,0,1-1.66-1.65v-4.18h1a.82.82,0,0,0,.61-.25.85.85,0,0,0,.25-.62.84.84,0,0,0-.25-.61.82.82,0,0,0-.61-.25h-1v-3.12a.87.87,0,0,0-.86-.86.84.84,0,0,0-.62.25.83.83,0,0,0-.25.61v3.12h-.39a.86.86,0,0,0-.86.86.84.84,0,0,0,.25.62.82.82,0,0,0,.6.25h.39v4.18q0,3.39,3.4,3.39a.82.82,0,0,0,.61-.25.85.85,0,0,0,.25-.62.84.84,0,0,0-.25-.61A.82.82,0,0,0,92.18,115.76Z" transform="translate(-14.91 -14.91)"/><path class="cls-2" d="M98.37,108.2a4.65,4.65,0,1,0,0,9.3,4.54,4.54,0,0,0,1.56-.27,4.75,4.75,0,0,0,1.35-.76v.17a.87.87,0,0,0,1.74,0v-3.79a4.65,4.65,0,0,0-4.65-4.65Zm2.69,5.78a3,3,0,0,1-1.55,1.56,2.92,2.92,0,0,1-2.28,0A2.92,2.92,0,0,1,95.68,114a2.92,2.92,0,0,1,0-2.26,2.92,2.92,0,0,1,1.54-1.55,2.92,2.92,0,0,1,2.28,0,3,3,0,0,1,1.55,1.56,2.89,2.89,0,0,1,0,2.25Z" transform="translate(-14.91 -14.91)"/></svg>