<svg id="Layer_1" data-name="Layer 1" xmlns="http://www.w3.org/2000/svg" viewBox="0 0 140.27 140.27"><defs><style>.cls-1{opacity:0.2;}.cls-2{fill:#eee;}.cls-3{fill:#555658;}.cls-4{fill:none;}.cls-5{fill:#d86943;}</style></defs><title>events_opp</title><g class="cls-1"><circle class="cls-2" cx="70.13" cy="70.13" r="69"/><path class="cls-3" d="M85,155.17A70.13,70.13,0,1,1,155.17,85,70.21,70.21,0,0,1,85,155.17Zm0-138A67.87,67.87,0,1,0,152.91,85,67.94,67.94,0,0,0,85,17.17Z" transform="translate(-14.91 -14.91)"/><path class="cls-4" d="M57.37,115.66a4,4,0,0,0-1.08-.56,3.82,3.82,0,0,0-1.22-.2,3.86,3.86,0,0,0-1.23.2,4.06,4.06,0,0,0-1.1.56,3.84,3.84,0,0,0-.86.86,3.58,3.58,0,0,0-.54,1.11h7.46a3.73,3.73,0,0,0-.56-1.11A4,4,0,0,0,57.37,115.66Z" transform="translate(-14.91 -14.91)"/><path class="cls-4" d="M83.62,115.66a4,4,0,0,0-1.08-.56,3.82,3.82,0,0,0-1.22-.2,3.86,3.86,0,0,0-1.23.2,4.06,4.06,0,0,0-1.1.56,3.84,3.84,0,0,0-.86.86,3.58,3.58,0,0,0-.54,1.11H85a3.73,3.73,0,0,0-.56-1.11A4,4,0,0,0,83.62,115.66Z" transform="translate(-14.91 -14.91)"/><path class="cls-4" d="M123.29,89.25c-1.07-9.66-2.17-19.31-2.56-29-.07-1.8-.61-2.17-2.32-2.07-5.59.33-11.19.49-16.78.7-21.07.79-42.14,1.19-63.23.84C34,59.62,34,59.62,33.93,64c0,1.24.34,1.52,1.53,1.5a14.66,14.66,0,0,1,5.39.42,29.92,29.92,0,0,1-5.15,0c-1.8-.2-1.81.75-1.91,2.08-.07.94.19,1.31.59,1.44-1.14.32-.39,2-.6,3C33.4,74.27,34.69,74,35.7,74L41,74c-1.94,1-3.87.7-5.8.53-.49,0-1.29-.45-1.42.33a6.9,6.9,0,0,0,0,3.31c.31.86,1.49.18,2.28.27.55.06,1.19-.53,1.68.17-.19.62-.69.39-1.05.41-3.21.16-3.13.15-3.14,3.33,0,1.27.55,1.31,1.49,1.31,2.58,0,5.17,0,7.76,0v.55a30.29,30.29,0,0,1-7.59.18c-1.28-.07-1.72.19-1.68,1.53.07,2.73,0,5.46-.05,8.19l1.23.24.87-.16v0l6.67-.33,0,.65-6.71.37h0c-1.58-.12-2.42.34-2.13,2.19a16.76,16.76,0,0,1,0,3.91c-.1,1.17.27,1.59,1.48,1.56,2.65-.07,5.3,0,8,0a17.46,17.46,0,0,1-7.26.42c-2.09-.35-2.13.64-2.24,2.26-.1,1.38,1.16,1,1.65,1.61-1.65.51-1.85,1.11-1.6,3.43.17,1.61,1.31,1,2,.93a34.62,34.62,0,0,1,9.12.63l-7.25,0c-3.75,0-3.75,0-3.74,3.57a2.71,2.71,0,0,0,0,.42c.18,1.13.54,2,2,1.88,1.59-.1,3.2,0,4.8,0v.6l-5.45,0a8.29,8.29,0,0,0,4.66,2.39c4.17.85,8.36.18,12.54.14q28-.25,56-.72a16.67,16.67,0,0,1-1.37-4.06,15,15,0,0,1,11.86-17.85,13.73,13.73,0,0,1,5.51.09C123.94,95.25,123.62,92.24,123.29,89.25Zm-65-8.64a11.17,11.17,0,0,1,1.15-1.27,5.42,5.42,0,0,1-1.16-1.14.66.66,0,0,1,.14-.94c.26-.28.58-.36.86-.07.77.82,1.53,1.26,2.5.25.2-.2.6-.14.87,0s.69.41.23.83a4,4,0,0,1-.29.29c-.7.53-1.13,1.07-.25,1.84a1.13,1.13,0,0,1,.25,1,.74.74,0,0,1-.36.61c-.32.18-.43-.12-.6-.26-.42-.35-.82-.71-1.29-1.12a6.11,6.11,0,0,1-1,1,.69.69,0,0,1-1-.08C58.06,81.25,58.1,81,58.34,80.61Zm.25,11.12a11.17,11.17,0,0,1,1.15-1.27,5.42,5.42,0,0,1-1.16-1.14.66.66,0,0,1,.14-.94c.26-.28.58-.36.86-.07.77.82,1.53,1.26,2.5.25.2-.2.6-.14.87,0s.69.41.23.83a4,4,0,0,1-.29.29c-.7.53-1.13,1.07-.25,1.84a1.13,1.13,0,0,1,.25,1,.74.74,0,0,1-.36.61c-.32.18-.43-.12-.6-.26-.42-.35-.82-.71-1.29-1.12a6.11,6.11,0,0,1-1,1,.69.69,0,0,1-1-.08C58.31,92.37,58.35,92.08,58.59,91.73Zm4.82,8.11a4,4,0,0,1-.29.29c-.7.53-1.13,1.07-.25,1.84a1.13,1.13,0,0,1,.25,1,.74.74,0,0,1-.36.61c-.32.18-.43-.12-.6-.26-.42-.35-.82-.71-1.29-1.12a6.12,6.12,0,0,1-1,1,.69.69,0,0,1-1-.08c-.32-.3-.28-.59,0-.94A11.18,11.18,0,0,1,60,100.93a5.42,5.42,0,0,1-1.16-1.14.66.66,0,0,1,.14-.94c.26-.28.58-.36.86-.07.77.82,1.53,1.26,2.5.25.2-.2.6-.14.87,0S63.87,99.41,63.41,99.84Zm2-19.39a11.19,11.19,0,0,1,1.15-1.27A5.42,5.42,0,0,1,65.38,78a.66.66,0,0,1,.14-.94c.26-.28.58-.36.86-.07.77.82,1.53,1.26,2.5.25.2-.2.6-.14.87,0s.69.41.23.83a4,4,0,0,1-.29.29c-.7.53-1.13,1.07-.25,1.84a1.13,1.13,0,0,1,.25,1,.74.74,0,0,1-.36.61c-.32.18-.43-.12-.6-.26-.42-.35-.82-.71-1.29-1.12a6.12,6.12,0,0,1-1,1,.69.69,0,0,1-1-.08C65.11,81.09,65.15,80.8,65.39,80.45Zm.25,11.12a11.18,11.18,0,0,1,1.15-1.27,5.42,5.42,0,0,1-1.16-1.14.66.66,0,0,1,.14-.94c.26-.28.58-.36.86-.07.77.82,1.53,1.26,2.5.25.2-.2.6-.14.87,0s.69.41.23.83a4,4,0,0,1-.29.29c-.7.53-1.13,1.07-.25,1.84a1.13,1.13,0,0,1,.25,1,.74.74,0,0,1-.36.61c-.32.18-.43-.12-.6-.26-.42-.35-.82-.71-1.29-1.12a6.12,6.12,0,0,1-1,1,.69.69,0,0,1-1-.08C65.36,92.21,65.4,91.92,65.64,91.57Zm4.82,8.11a4,4,0,0,1-.29.29c-.7.53-1.13,1.07-.25,1.84a1.13,1.13,0,0,1,.25,1,.74.74,0,0,1-.36.61c-.32.18-.43-.12-.6-.26-.42-.35-.82-.71-1.29-1.12a6.12,6.12,0,0,1-1,1,.69.69,0,0,1-1-.08c-.32-.3-.28-.59,0-.94A11.18,11.18,0,0,1,67,100.77a5.42,5.42,0,0,1-1.16-1.14A.66.66,0,0,1,66,98.7c.26-.28.58-.36.86-.07.77.82,1.53,1.26,2.5.25.2-.2.6-.14.87,0S70.92,99.25,70.47,99.68Zm2-19.39A11.17,11.17,0,0,1,73.6,79a5.42,5.42,0,0,1-1.16-1.14.66.66,0,0,1,.14-.94c.26-.28.58-.36.86-.07.77.82,1.53,1.26,2.5.25.2-.2.6-.14.87,0s.69.41.23.83a4,4,0,0,1-.29.29c-.7.53-1.13,1.07-.25,1.84a1.13,1.13,0,0,1,.25,1,.74.74,0,0,1-.36.61c-.32.18-.43-.12-.6-.26-.42-.35-.82-.71-1.29-1.12a6.11,6.11,0,0,1-1,1,.69.69,0,0,1-1-.08C72.17,80.93,72.21,80.64,72.45,80.29Zm.25,11.12a11.16,11.16,0,0,1,1.15-1.27A5.42,5.42,0,0,1,72.69,89a.66.66,0,0,1,.14-.94c.26-.28.58-.36.86-.07.77.82,1.53,1.26,2.5.25.2-.2.6-.14.87,0s.69.41.23.83a4,4,0,0,1-.29.29c-.7.53-1.13,1.07-.25,1.84a1.13,1.13,0,0,1,.25,1,.74.74,0,0,1-.36.61c-.32.18-.43-.12-.6-.26-.42-.35-.82-.71-1.29-1.12a6.11,6.11,0,0,1-1,1,.69.69,0,0,1-1-.08C72.42,92,72.46,91.76,72.7,91.41Zm4.82,8.11a4,4,0,0,1-.29.29c-.7.53-1.13,1.07-.25,1.84a1.13,1.13,0,0,1,.25,1,.74.74,0,0,1-.36.61c-.32.18-.43-.12-.6-.26-.42-.35-.82-.71-1.29-1.12a6.12,6.12,0,0,1-1,1,.69.69,0,0,1-1-.08c-.32-.3-.28-.59,0-.94a11.19,11.19,0,0,1,1.15-1.27,5.42,5.42,0,0,1-1.16-1.14.66.66,0,0,1,.14-.94c.26-.28.58-.36.86-.07.77.82,1.53,1.26,2.5.25.2-.2.6-.14.87,0S78,99.09,77.52,99.52Zm1.3-19.37A11.17,11.17,0,0,1,80,78.88a5.42,5.42,0,0,1-1.16-1.14.66.66,0,0,1,.14-.94c.26-.28.58-.36.86-.07.77.82,1.53,1.26,2.5.25.2-.2.6-.14.87,0s.69.41.23.83a4,4,0,0,1-.29.29c-.7.53-1.13,1.07-.25,1.84a1.13,1.13,0,0,1,.25,1,.74.74,0,0,1-.36.61c-.32.18-.43-.12-.6-.26-.42-.35-.82-.71-1.29-1.12a6.11,6.11,0,0,1-1,1,.69.69,0,0,1-1-.08C78.54,80.78,78.58,80.5,78.82,80.15Zm.25,11.12A11.18,11.18,0,0,1,80.22,90a5.42,5.42,0,0,1-1.16-1.14.66.66,0,0,1,.14-.94c.26-.28.58-.36.86-.07.77.82,1.53,1.26,2.5.25.2-.2.6-.14.87,0s.69.41.23.83a4,4,0,0,1-.29.29c-.7.53-1.13,1.07-.25,1.84a1.13,1.13,0,0,1,.25,1,.74.74,0,0,1-.36.61c-.32.18-.43-.12-.6-.26-.42-.35-.82-.71-1.29-1.12a6.11,6.11,0,0,1-1,1,.69.69,0,0,1-1-.08C78.79,91.9,78.83,91.62,79.07,91.27Zm4.82,8.11a4,4,0,0,1-.29.29c-.7.53-1.13,1.07-.25,1.84a1.13,1.13,0,0,1,.25,1,.74.74,0,0,1-.36.61c-.32.18-.43-.12-.6-.26-.42-.35-.82-.71-1.29-1.12a6.12,6.12,0,0,1-1,1,.69.69,0,0,1-1-.08c-.32-.3-.28-.59,0-.94a11.17,11.17,0,0,1,1.15-1.27,5.42,5.42,0,0,1-1.16-1.14.66.66,0,0,1,.14-.94c.26-.28.58-.36.86-.07.77.82,1.53,1.26,2.5.25.2-.2.6-.14.87,0S84.35,98.95,83.89,99.38ZM85.19,80a11.17,11.17,0,0,1,1.15-1.27,5.42,5.42,0,0,1-1.16-1.14.66.66,0,0,1,.14-.94c.26-.28.58-.36.86-.07.77.82,1.53,1.26,2.5.25.2-.2.6-.14.87,0s.69.41.23.83a4,4,0,0,1-.29.29c-.7.53-1.13,1.07-.25,1.84a1.13,1.13,0,0,1,.25,1,.74.74,0,0,1-.36.61c-.32.18-.43-.12-.6-.26-.42-.35-.82-.71-1.29-1.12a6.11,6.11,0,0,1-1,1,.69.69,0,0,1-1-.08C84.91,80.64,85,80.35,85.19,80Zm.25,11.12a11.17,11.17,0,0,1,1.15-1.27,5.42,5.42,0,0,1-1.16-1.14.66.66,0,0,1,.14-.94c.26-.28.58-.36.86-.07.77.82,1.53,1.26,2.5.25.2-.2.6-.14.87,0s.69.41.23.83a4,4,0,0,1-.29.29c-.7.53-1.13,1.07-.25,1.84a1.13,1.13,0,0,1,.25,1,.74.74,0,0,1-.36.61c-.32.18-.43-.12-.6-.26-.42-.35-.82-.71-1.29-1.12a6.11,6.11,0,0,1-1,1,.69.69,0,0,1-1-.08C85.16,91.76,85.2,91.47,85.44,91.12Zm4.82,8.11a4,4,0,0,1-.29.29c-.7.53-1.13,1.07-.25,1.84a1.13,1.13,0,0,1,.25,1,.74.74,0,0,1-.36.61c-.32.18-.43-.12-.6-.26-.42-.35-.82-.71-1.29-1.12a6.11,6.11,0,0,1-1,1,.69.69,0,0,1-1-.08c-.32-.3-.28-.59,0-.94a11.18,11.18,0,0,1,1.15-1.27,5.41,5.41,0,0,1-1.16-1.14.66.66,0,0,1,.14-.94c.26-.28.58-.36.86-.07.77.82,1.53,1.26,2.5.25.2-.2.6-.14.87,0S90.72,98.8,90.27,99.23Zm1.3-19.37a11.17,11.17,0,0,1,1.15-1.27,5.42,5.42,0,0,1-1.16-1.14.66.66,0,0,1,.14-.94c.26-.28.58-.36.86-.07.77.82,1.53,1.26,2.5.25.2-.2.6-.14.87,0s.69.41.23.83a4,4,0,0,1-.29.29c-.7.53-1.13,1.07-.25,1.84a1.13,1.13,0,0,1,.25,1,.74.74,0,0,1-.36.61c-.32.18-.43-.12-.6-.26-.42-.35-.82-.71-1.29-1.12a6.12,6.12,0,0,1-1,1,.69.69,0,0,1-1-.08C91.28,80.5,91.32,80.21,91.56,79.86ZM91.81,91A11.17,11.17,0,0,1,93,89.71a5.42,5.42,0,0,1-1.16-1.14.66.66,0,0,1,.14-.94c.26-.28.58-.36.86-.07.77.82,1.53,1.26,2.5.25.2-.2.6-.14.87,0s.69.41.23.83a4,4,0,0,1-.29.29c-.7.53-1.13,1.07-.25,1.84a1.13,1.13,0,0,1,.25,1,.74.74,0,0,1-.36.61c-.32.18-.43-.12-.6-.26-.42-.35-.82-.71-1.29-1.12a6.11,6.11,0,0,1-1,1,.69.69,0,0,1-1-.08C91.54,91.62,91.58,91.33,91.81,91Zm4.82,8.11a4,4,0,0,1-.29.29c-.7.53-1.13,1.07-.25,1.84a1.13,1.13,0,0,1,.25,1,.74.74,0,0,1-.36.61c-.32.18-.43-.12-.6-.26-.42-.35-.82-.71-1.29-1.12a6.11,6.11,0,0,1-1,1,.69.69,0,0,1-1-.08c-.32-.3-.28-.59,0-.94a11.19,11.19,0,0,1,1.15-1.27A5.42,5.42,0,0,1,92,99a.66.66,0,0,1,.14-.94c.26-.28.58-.36.86-.07.77.82,1.53,1.26,2.5.25.2-.2.6-.14.87,0S97.09,98.66,96.64,99.09Zm1.3-19.37a11.17,11.17,0,0,1,1.15-1.27,5.42,5.42,0,0,1-1.16-1.14.66.66,0,0,1,.14-.94c.26-.28.58-.36.86-.07.77.82,1.53,1.26,2.5.25.2-.2.6-.14.87,0s.69.41.23.83a4,4,0,0,1-.29.29c-.7.53-1.13,1.07-.25,1.84a1.13,1.13,0,0,1,.25,1,.74.74,0,0,1-.36.61c-.32.18-.43-.12-.6-.26-.42-.35-.82-.71-1.29-1.12a6.12,6.12,0,0,1-1,1,.69.69,0,0,1-1-.08C97.66,80.35,97.7,80.07,97.94,79.72Zm.25,11.12a11.18,11.18,0,0,1,1.15-1.27,5.42,5.42,0,0,1-1.16-1.14.66.66,0,0,1,.14-.94c.26-.28.58-.36.86-.07.77.82,1.53,1.26,2.5.25.2-.2.6-.14.87,0s.69.41.23.83a4,4,0,0,1-.29.29c-.7.53-1.13,1.07-.25,1.84a1.13,1.13,0,0,1,.25,1,.74.74,0,0,1-.36.61c-.32.18-.43-.12-.6-.26-.42-.35-.82-.71-1.29-1.12a6.12,6.12,0,0,1-1,1,.69.69,0,0,1-1-.08C97.91,91.47,97.95,91.19,98.19,90.84ZM103,98.94a4,4,0,0,1-.29.29c-.7.53-1.13,1.07-.25,1.84a1.13,1.13,0,0,1,.25,1,.74.74,0,0,1-.36.61c-.32.18-.43-.12-.6-.26-.42-.35-.82-.71-1.29-1.12a6.11,6.11,0,0,1-1,1,.69.69,0,0,1-1-.08c-.32-.3-.28-.59,0-.94A11.18,11.18,0,0,1,99.57,100a5.42,5.42,0,0,1-1.16-1.14.66.66,0,0,1,.14-.94c.26-.28.58-.36.86-.07.77.82,1.53,1.26,2.5.25.2-.2.6-.14.87,0S103.47,98.52,103,98.94Zm7.85-28.25c-13.39.13-26.72,1.38-40.11,1.38-7.08,0-14.21.34-21.44.09a3.78,3.78,0,0,1,2.18-.4c18.12-.35,36.23-1.09,54.33-1.89a38,38,0,0,1,5.13.06c.54,0,1.21,0,1.16.37S111.43,70.68,110.86,70.69Z" transform="translate(-14.91 -14.91)"/><path class="cls-4" d="M35.84,56.33c-1.06-.07-1.84,0-1.81,1.46s1,1,1.71,1c2,0,4.05-.27,6.08-.31,16.59-.35,33.18-.63,49.77-1,9.12-.22,18.27.13,27.37-1,1.24-.15,1.45-.53,1.37-1.62-.17-2.3-.23-4.61-.34-6.92-.23-4.66-.23-4.68-4.92-4.93-.74,0-2.07-.52-2.15.28-.15,1.45,1.33.65,2.06.92.09,0,.15.16.32.34l-.85.16c-.47.07-1.18-.36-1.21.64s.66.83,1.28.88,1.57-.19,2.26.19c-1,1.14-2.89-.89-3.48,1.16-.21.71-.49,1.75,1.07,1.93-1.41-.16-1.69.86-2.23,1.53a6.82,6.82,0,0,1-7.41,2A5.58,5.58,0,0,1,101,47.54c0-1.45.61-2.77.7-4.29a65.52,65.52,0,0,1-8.93-.09c1.28,4.65.49,7.82-2.4,9.85a6.21,6.21,0,0,1-7.24.11c-3.35-2.48-2.65-5.77-1.54-9.16l-7.46,0c.29.68.16,1.51,1.09,1.66.68.11,1.43-.17,2.13.29-.81.59-2.14-.42-2.39.7-.17.78-.58,2,.09,2.57.84.71.66.45-.17.78s-1.63,1.25-.08,2.24c-1.34-.16-2.18.7-3.18,1.29a5.4,5.4,0,0,1-8-2.75,6.28,6.28,0,0,1-.22-4.5c.33-.94.28-1.57-1.06-1.52-2.35.09-4.7,0-7.06,0,.22,2.91,2.67,1.06,3.82,2-.5.4-1,.14-1.47.24-.65.13-1.71-.64-1.7,1,0,1.38.65,1.4,1.68,1.33a3.47,3.47,0,0,1,2.47.42,21.24,21.24,0,0,1-3.3.15c-.44,0-.84,0-.81.64s-.07,1,.71,1a3.1,3.1,0,0,1,.63,0c.22,0,.51,0,.52.46-1.16,0-2.48-.13-2.65,1.48-.15,1.37,1.34-.2,1.54,1-1.6-.15-2.61.83-3.78,1.64-3.66,2.51-8.27.44-9.22-3.92a13.31,13.31,0,0,1,.69-6.8c-2.82,0-5.56.11-8.27-.1-1.7-.13-2.29.35-2,2,1.37.17,2.85-.21,4.51,1L34.2,48q0-.47,0-.95,0,.47,0,.95l0,2.85h0l6.56,0c-2.13,1.15-4.4.52-6.57.87-.05,3.86-.05,3.86,2.93,4.2.07,0,.12.15.33.43C36.79,56.34,36.31,56.36,35.84,56.33Z" transform="translate(-14.91 -14.91)"/><path class="cls-3" d="M38.71,48c-1.66-1.18-3.14-.81-4.51-1q0,.47,0,.95Z" transform="translate(-14.91 -14.91)"/><path class="cls-3" d="M111,69.93a38,38,0,0,0-5.13-.06c-18.1.79-36.21,1.53-54.33,1.89a3.78,3.78,0,0,0-2.18.4c7.23.25,14.36-.08,21.44-.09,13.39,0,26.72-1.25,40.11-1.38.57,0,1.21-.06,1.25-.38S111.5,70,111,69.93Z" transform="translate(-14.91 -14.91)"/><path class="cls-5" d="M49.77,51.47A2.66,2.66,0,0,0,52.13,49a3.49,3.49,0,0,0,0-1,4.61,4.61,0,0,0-.54-2.19,1.8,1.8,0,0,0-1.89-1c-.14,0-.33,0-.35.22s.16.23.28.25c1.15.25,1.4,1.14,1.52,2.12a4.74,4.74,0,0,1,0,1.51A1.9,1.9,0,0,1,49.2,50.6a1.84,1.84,0,0,1-1.76-1.7,5.6,5.6,0,0,1,.07-2A2.26,2.26,0,0,1,49,45.1c.17-.06.37-.17.34-.39s-.3-.23-.49-.23A2.08,2.08,0,0,0,47,45.69a5,5,0,0,0-.3,4A2.85,2.85,0,0,0,49.77,51.47Z" transform="translate(-14.91 -14.91)"/><path class="cls-5" d="M69.55,50.5a2.66,2.66,0,0,0,2.37-2.44,3.49,3.49,0,0,0,0-1,4.61,4.61,0,0,0-.54-2.19,1.8,1.8,0,0,0-1.89-1c-.14,0-.33,0-.35.22s.16.23.28.25c1.15.25,1.4,1.14,1.52,2.12a4.73,4.73,0,0,1,0,1.51A1.9,1.9,0,0,1,69,49.63a1.84,1.84,0,0,1-1.76-1.7,5.6,5.6,0,0,1,.07-2,2.26,2.26,0,0,1,1.46-1.85c.17-.06.37-.17.34-.39s-.3-.23-.49-.23a2.08,2.08,0,0,0-1.85,1.21,5,5,0,0,0-.3,4A2.85,2.85,0,0,0,69.55,50.5Z" transform="translate(-14.91 -14.91)"/><path class="cls-5" d="M87,49.53a2.66,2.66,0,0,0,2.37-2.44,3.5,3.5,0,0,0,0-1,4.61,4.61,0,0,0-.54-2.19,1.8,1.8,0,0,0-1.89-1c-.14,0-.33,0-.35.22s.16.23.28.25c1.15.25,1.4,1.14,1.52,2.12a4.73,4.73,0,0,1,0,1.51,1.9,1.9,0,0,1-1.95,1.62A1.84,1.84,0,0,1,84.69,47a5.6,5.6,0,0,1,.07-2,2.26,2.26,0,0,1,1.46-1.85c.17-.06.37-.17.34-.39s-.3-.23-.49-.23a2.08,2.08,0,0,0-1.85,1.21,5,5,0,0,0-.3,4A2.85,2.85,0,0,0,87,49.53Z" transform="translate(-14.91 -14.91)"/><path class="cls-5" d="M107.65,49.53A2.66,2.66,0,0,0,110,47.09a3.49,3.49,0,0,0,0-1,4.61,4.61,0,0,0-.54-2.19,1.8,1.8,0,0,0-1.89-1c-.14,0-.33,0-.35.22s.16.23.28.25c1.15.25,1.4,1.14,1.52,2.12A4.73,4.73,0,0,1,109,47a1.9,1.9,0,0,1-1.95,1.62,1.84,1.84,0,0,1-1.76-1.7,5.6,5.6,0,0,1,.07-2,2.26,2.26,0,0,1,1.46-1.85c.17-.06.37-.17.34-.39s-.3-.23-.49-.23a2.08,2.08,0,0,0-1.85,1.21,5,5,0,0,0-.3,4A2.85,2.85,0,0,0,107.65,49.53Z" transform="translate(-14.91 -14.91)"/><path class="cls-5" d="M63.18,99c-.27-.1-.67-.16-.87,0-1,1-1.73.56-2.5-.25-.28-.3-.59-.21-.86.07a.66.66,0,0,0-.14.94A5.42,5.42,0,0,0,60,100.93a11.18,11.18,0,0,0-1.15,1.27c-.24.35-.28.64,0,.94a.69.69,0,0,0,1,.08,6.12,6.12,0,0,0,1-1c.47.41.87.77,1.29,1.12.17.14.29.44.6.26a.74.74,0,0,0,.36-.61,1.13,1.13,0,0,0-.25-1c-.88-.77-.45-1.31.25-1.84a4,4,0,0,0,.29-.29C63.87,99.41,63.57,99.15,63.18,99Z" transform="translate(-14.91 -14.91)"/><path class="cls-5" d="M70.23,98.84c-.27-.1-.67-.16-.87,0-1,1-1.73.56-2.5-.25-.28-.3-.59-.21-.86.07a.66.66,0,0,0-.14.94A5.42,5.42,0,0,0,67,100.77,11.18,11.18,0,0,0,65.88,102c-.24.35-.28.64,0,.94a.69.69,0,0,0,1,.08,6.12,6.12,0,0,0,1-1c.47.41.87.77,1.29,1.12.17.14.29.44.6.26a.74.74,0,0,0,.36-.61,1.13,1.13,0,0,0-.25-1c-.88-.77-.45-1.31.25-1.84a4,4,0,0,0,.29-.29C70.92,99.25,70.63,99,70.23,98.84Z" transform="translate(-14.91 -14.91)"/><path class="cls-5" d="M77.29,98.69c-.27-.1-.67-.16-.87,0-1,1-1.73.56-2.5-.25-.28-.3-.59-.21-.86.07a.66.66,0,0,0-.14.94,5.42,5.42,0,0,0,1.16,1.14,11.19,11.19,0,0,0-1.15,1.27c-.24.35-.28.64,0,.94a.69.69,0,0,0,1,.08,6.12,6.12,0,0,0,1-1c.47.41.87.77,1.29,1.12.17.14.29.44.6.26a.74.74,0,0,0,.36-.61,1.13,1.13,0,0,0-.25-1c-.88-.77-.45-1.31.25-1.84a4,4,0,0,0,.29-.29C78,99.09,77.69,98.84,77.29,98.69Z" transform="translate(-14.91 -14.91)"/><path class="cls-5" d="M83.66,98.54c-.27-.1-.67-.16-.87,0-1,1-1.73.56-2.5-.25-.28-.3-.59-.21-.86.07a.66.66,0,0,0-.14.94,5.42,5.42,0,0,0,1.16,1.14,11.17,11.17,0,0,0-1.15,1.27c-.24.35-.28.64,0,.94a.69.69,0,0,0,1,.08,6.12,6.12,0,0,0,1-1c.47.41.87.77,1.29,1.12.17.14.29.44.6.26a.74.74,0,0,0,.36-.61,1.13,1.13,0,0,0-.25-1c-.88-.77-.45-1.31.25-1.84a4,4,0,0,0,.29-.29C84.35,98.95,84.06,98.69,83.66,98.54Z" transform="translate(-14.91 -14.91)"/><path class="cls-5" d="M90,98.4c-.27-.1-.67-.16-.87,0-1,1-1.73.56-2.5-.25-.28-.3-.59-.21-.86.07a.66.66,0,0,0-.14.94,5.41,5.41,0,0,0,1.16,1.14,11.18,11.18,0,0,0-1.15,1.27c-.24.35-.28.64,0,.94a.69.69,0,0,0,1,.08,6.11,6.11,0,0,0,1-1c.47.41.87.77,1.29,1.12.17.14.29.44.6.26a.74.74,0,0,0,.36-.61,1.13,1.13,0,0,0-.25-1c-.88-.77-.45-1.31.25-1.84a4,4,0,0,0,.29-.29C90.72,98.8,90.43,98.55,90,98.4Z" transform="translate(-14.91 -14.91)"/><path class="cls-5" d="M96.41,98.25c-.27-.1-.67-.16-.87,0-1,1-1.73.56-2.5-.25-.28-.3-.59-.21-.86.07A.66.66,0,0,0,92,99a5.42,5.42,0,0,0,1.16,1.14,11.19,11.19,0,0,0-1.15,1.27c-.24.35-.28.64,0,.94a.69.69,0,0,0,1,.08,6.11,6.11,0,0,0,1-1c.47.41.87.77,1.29,1.12.17.14.29.44.6.26a.74.74,0,0,0,.36-.61,1.13,1.13,0,0,0-.25-1c-.88-.77-.45-1.31.25-1.84a4,4,0,0,0,.29-.29C97.09,98.66,96.8,98.4,96.41,98.25Z" transform="translate(-14.91 -14.91)"/><path class="cls-5" d="M102.78,98.11c-.27-.1-.67-.16-.87,0-1,1-1.73.56-2.5-.25-.28-.3-.59-.21-.86.07a.66.66,0,0,0-.14.94A5.42,5.42,0,0,0,99.57,100a11.18,11.18,0,0,0-1.15,1.27c-.24.35-.28.64,0,.94a.69.69,0,0,0,1,.08,6.11,6.11,0,0,0,1-1c.47.41.87.77,1.29,1.12.17.14.29.44.6.26a.74.74,0,0,0,.36-.61,1.13,1.13,0,0,0-.25-1c-.88-.77-.45-1.31.25-1.84a4,4,0,0,0,.29-.29C103.47,98.52,103.18,98.26,102.78,98.11Z" transform="translate(-14.91 -14.91)"/><path class="cls-5" d="M59.39,81.62a6.11,6.11,0,0,0,1-1c.47.41.87.77,1.29,1.12.17.14.29.44.6.26a.74.74,0,0,0,.36-.61,1.13,1.13,0,0,0-.25-1c-.88-.77-.45-1.31.25-1.84a4,4,0,0,0,.29-.29c.46-.43.16-.68-.23-.83s-.67-.16-.87,0c-1,1-1.73.56-2.5-.25-.28-.3-.59-.21-.86.07a.66.66,0,0,0-.14.94,5.42,5.42,0,0,0,1.16,1.14,11.17,11.17,0,0,0-1.15,1.27c-.24.35-.28.64,0,.94A.69.69,0,0,0,59.39,81.62Z" transform="translate(-14.91 -14.91)"/><path class="cls-5" d="M66.45,81.47a6.12,6.12,0,0,0,1-1c.47.41.87.77,1.29,1.12.17.14.29.44.6.26a.74.74,0,0,0,.36-.61,1.13,1.13,0,0,0-.25-1c-.88-.77-.45-1.31.25-1.84a4,4,0,0,0,.29-.29c.46-.43.16-.68-.23-.83s-.67-.16-.87,0c-1,1-1.73.56-2.5-.25-.28-.3-.59-.21-.86.07a.66.66,0,0,0-.14.94,5.42,5.42,0,0,0,1.16,1.14,11.19,11.19,0,0,0-1.15,1.27c-.24.35-.28.64,0,.94A.69.69,0,0,0,66.45,81.47Z" transform="translate(-14.91 -14.91)"/><path class="cls-5" d="M73.5,81.31a6.11,6.11,0,0,0,1-1c.47.41.87.77,1.29,1.12.17.14.29.44.6.26a.74.74,0,0,0,.36-.61,1.13,1.13,0,0,0-.25-1c-.88-.77-.45-1.31.25-1.84a4,4,0,0,0,.29-.29c.46-.43.16-.68-.23-.83s-.67-.16-.87,0c-1,1-1.73.56-2.5-.25-.28-.3-.59-.21-.86.07a.66.66,0,0,0-.14.94A5.42,5.42,0,0,0,73.6,79a11.17,11.17,0,0,0-1.15,1.27c-.24.35-.28.64,0,.94A.69.69,0,0,0,73.5,81.31Z" transform="translate(-14.91 -14.91)"/><path class="cls-5" d="M79.87,81.16a6.11,6.11,0,0,0,1-1c.47.41.87.77,1.29,1.12.17.14.29.44.6.26a.74.74,0,0,0,.36-.61,1.13,1.13,0,0,0-.25-1c-.88-.77-.45-1.31.25-1.84a4,4,0,0,0,.29-.29c.46-.43.16-.68-.23-.83s-.67-.16-.87,0c-1,1-1.73.56-2.5-.25-.28-.3-.59-.21-.86.07a.66.66,0,0,0-.14.94A5.42,5.42,0,0,0,80,78.88a11.17,11.17,0,0,0-1.15,1.27c-.24.35-.28.64,0,.94A.69.69,0,0,0,79.87,81.16Z" transform="translate(-14.91 -14.91)"/><path class="cls-5" d="M86.25,81a6.11,6.11,0,0,0,1-1c.47.41.87.77,1.29,1.12.17.14.29.44.6.26a.74.74,0,0,0,.36-.61,1.13,1.13,0,0,0-.25-1c-.88-.77-.45-1.31.25-1.84a4,4,0,0,0,.29-.29c.46-.43.16-.68-.23-.83s-.67-.16-.87,0c-1,1-1.73.56-2.5-.25-.28-.3-.59-.21-.86.07a.66.66,0,0,0-.14.94,5.42,5.42,0,0,0,1.16,1.14A11.17,11.17,0,0,0,85.19,80c-.24.35-.28.64,0,.94A.69.69,0,0,0,86.25,81Z" transform="translate(-14.91 -14.91)"/><path class="cls-5" d="M92.62,80.88a6.12,6.12,0,0,0,1-1c.47.41.87.77,1.29,1.12.17.14.29.44.6.26a.74.74,0,0,0,.36-.61,1.13,1.13,0,0,0-.25-1c-.88-.77-.45-1.31.25-1.84a4,4,0,0,0,.29-.29c.46-.43.16-.68-.23-.83s-.67-.16-.87,0c-1,1-1.73.56-2.5-.25-.28-.3-.59-.21-.86.07a.66.66,0,0,0-.14.94,5.42,5.42,0,0,0,1.16,1.14,11.17,11.17,0,0,0-1.15,1.27c-.24.35-.28.64,0,.94A.69.69,0,0,0,92.62,80.88Z" transform="translate(-14.91 -14.91)"/><path class="cls-5" d="M99,80.73a6.12,6.12,0,0,0,1-1c.47.41.87.77,1.29,1.12.17.14.29.44.6.26a.74.74,0,0,0,.36-.61,1.13,1.13,0,0,0-.25-1c-.88-.77-.45-1.31.25-1.84a4,4,0,0,0,.29-.29c.46-.43.16-.68-.23-.83s-.67-.16-.87,0c-1,1-1.73.56-2.5-.25-.28-.3-.59-.21-.86.07a.66.66,0,0,0-.14.94,5.42,5.42,0,0,0,1.16,1.14,11.17,11.17,0,0,0-1.15,1.27c-.24.35-.28.64,0,.94A.69.69,0,0,0,99,80.73Z" transform="translate(-14.91 -14.91)"/><path class="cls-5" d="M59.64,92.74a6.11,6.11,0,0,0,1-1c.47.41.87.77,1.29,1.12.17.14.29.44.6.26a.74.74,0,0,0,.36-.61,1.13,1.13,0,0,0-.25-1c-.88-.77-.45-1.31.25-1.84a4,4,0,0,0,.29-.29c.46-.43.16-.68-.23-.83s-.67-.16-.87,0c-1,1-1.73.56-2.5-.25-.28-.3-.59-.21-.86.07a.66.66,0,0,0-.14.94,5.42,5.42,0,0,0,1.16,1.14,11.17,11.17,0,0,0-1.15,1.27c-.24.35-.28.64,0,.94A.69.69,0,0,0,59.64,92.74Z" transform="translate(-14.91 -14.91)"/><path class="cls-5" d="M66.7,92.59a6.12,6.12,0,0,0,1-1c.47.41.87.77,1.29,1.12.17.14.29.44.6.26a.74.74,0,0,0,.36-.61,1.13,1.13,0,0,0-.25-1c-.88-.77-.45-1.31.25-1.84a4,4,0,0,0,.29-.29c.46-.43.16-.68-.23-.83s-.67-.16-.87,0c-1,1-1.73.56-2.5-.25-.28-.3-.59-.21-.86.07a.66.66,0,0,0-.14.94,5.42,5.42,0,0,0,1.16,1.14,11.18,11.18,0,0,0-1.15,1.27c-.24.35-.28.64,0,.94A.69.69,0,0,0,66.7,92.59Z" transform="translate(-14.91 -14.91)"/><path class="cls-5" d="M73.75,92.43a6.11,6.11,0,0,0,1-1c.47.41.87.77,1.29,1.12.17.14.29.44.6.26a.74.74,0,0,0,.36-.61,1.13,1.13,0,0,0-.25-1c-.88-.77-.45-1.31.25-1.84a4,4,0,0,0,.29-.29c.46-.43.16-.68-.23-.83s-.67-.16-.87,0c-1,1-1.73.56-2.5-.25-.28-.3-.59-.21-.86.07a.66.66,0,0,0-.14.94,5.42,5.42,0,0,0,1.16,1.14,11.16,11.16,0,0,0-1.15,1.27c-.24.35-.28.64,0,.94A.69.69,0,0,0,73.75,92.43Z" transform="translate(-14.91 -14.91)"/><path class="cls-5" d="M80.12,92.28a6.11,6.11,0,0,0,1-1c.47.41.87.77,1.29,1.12.17.14.29.44.6.26a.74.74,0,0,0,.36-.61,1.13,1.13,0,0,0-.25-1c-.88-.77-.45-1.31.25-1.84a4,4,0,0,0,.29-.29c.46-.43.16-.68-.23-.83s-.67-.16-.87,0c-1,1-1.73.56-2.5-.25-.28-.3-.59-.21-.86.07a.66.66,0,0,0-.14.94A5.42,5.42,0,0,0,80.22,90a11.18,11.18,0,0,0-1.15,1.27c-.24.35-.28.64,0,.94A.69.69,0,0,0,80.12,92.28Z" transform="translate(-14.91 -14.91)"/><path class="cls-5" d="M86.5,92.14a6.11,6.11,0,0,0,1-1c.47.41.87.77,1.29,1.12.17.14.29.44.6.26a.74.74,0,0,0,.36-.61,1.13,1.13,0,0,0-.25-1c-.88-.77-.45-1.31.25-1.84a4,4,0,0,0,.29-.29c.46-.43.16-.68-.23-.83s-.67-.16-.87,0c-1,1-1.73.56-2.5-.25-.28-.3-.59-.21-.86.07a.66.66,0,0,0-.14.94,5.42,5.42,0,0,0,1.16,1.14,11.17,11.17,0,0,0-1.15,1.27c-.24.35-.28.64,0,.94A.69.69,0,0,0,86.5,92.14Z" transform="translate(-14.91 -14.91)"/><path class="cls-5" d="M92.87,92a6.11,6.11,0,0,0,1-1c.47.41.87.77,1.29,1.12.17.14.29.44.6.26a.74.74,0,0,0,.36-.61,1.13,1.13,0,0,0-.25-1c-.88-.77-.45-1.31.25-1.84a4,4,0,0,0,.29-.29c.46-.43.16-.68-.23-.83s-.67-.16-.87,0c-1,1-1.73.56-2.5-.25-.28-.3-.59-.21-.86.07a.66.66,0,0,0-.14.94A5.42,5.42,0,0,0,93,89.71,11.17,11.17,0,0,0,91.81,91c-.24.35-.28.64,0,.94A.69.69,0,0,0,92.87,92Z" transform="translate(-14.91 -14.91)"/><path class="cls-5" d="M99.24,91.85a6.12,6.12,0,0,0,1-1c.47.41.87.77,1.29,1.12.17.14.29.44.6.26a.74.74,0,0,0,.36-.61,1.13,1.13,0,0,0-.25-1c-.88-.77-.45-1.31.25-1.84a4,4,0,0,0,.29-.29c.46-.43.16-.68-.23-.83s-.67-.16-.87,0c-1,1-1.73.56-2.5-.25-.28-.3-.59-.21-.86.07a.66.66,0,0,0-.14.94,5.42,5.42,0,0,0,1.16,1.14,11.18,11.18,0,0,0-1.15,1.27c-.24.35-.28.64,0,.94A.69.69,0,0,0,99.24,91.85Z" transform="translate(-14.91 -14.91)"/><path class="cls-3" d="M132.15,103.32a13.26,13.26,0,0,0-6.72-4.72c-.28-3.45-.54-6.9-.82-10.35-.59-7.18-1.24-14.35-1.78-21.53-.57-7.53-1.24-15.06-1.2-22.63,0-1.84-.95-2.44-2.61-2.43-2.31,0-4.63,0-6.93-.07-1.49-.06-1.66.44-1.11,1.71a7.28,7.28,0,0,1,.56,4.91c-.69,2.44-2.17,3.48-4.18,3.55-2.5.09-3.9-.8-4.67-3-.69-1.92-.07-3.74.24-5.58.21-1.24-.11-1.73-1.37-1.56a59.93,59.93,0,0,1-8.81.25c-1.66,0-2.17.48-1.58,2.06a8.77,8.77,0,0,1,.63,3.68c-.2,2.86-3,5.4-5.64,5-2.85-.42-4.54-3-3.93-6.08a19.42,19.42,0,0,1,.65-2.2c.68-2.08.63-2.17-1.67-2.08-2.45.09-4.9.31-7.34.28-1.46,0-1.74.6-1.37,1.76a9.74,9.74,0,0,1,.76,3.86,4.87,4.87,0,0,1-4.46,4.5c-2.06,0-3.61-1.52-4.05-4a9,9,0,0,1,.46-4.12c.26-.91-.09-1.47-.91-1.48a44.78,44.78,0,0,0-9.41.4c-1,.2-1.67.84-1,2.17a9.82,9.82,0,0,1,.47,5.17,4.5,4.5,0,0,1-4.88,4.37c-2.62-.09-4.21-1.8-4.34-4.64a12.31,12.31,0,0,1,.62-5.16c.54-1.36,0-1.65-1.18-1.61-3.29.11-6.57.26-9.86.36-1,0-1.25.64-1.32,1.5-.45,5.58-1,11.14-1.35,16.73a498.72,498.72,0,0,0,.47,55,4.94,4.94,0,0,0,4.86,5c1.11.09,2.24,0,3.36,0,22.77-.14,45.54-.26,68.31-.62a7.3,7.3,0,0,1-.47-.91,14.6,14.6,0,0,0,12.59,7.63c7.45.13,15-6,15.49-13,.06-.85-.27-1.26-.64-2.42-.52,1.33-1,2.54-1.48,3.74a14,14,0,0,1-15.74,8.7,12,12,0,0,1-3.64-1.45c2.3-.07,4.65.19,6.87-.76l-8.06,0a12.85,12.85,0,0,1-2.39-2.42c1.92-.13,3.88.22,5.73-.78L111,120a13.47,13.47,0,0,1-1.63-3.56c1.25-.07,2.59.12,4.08-.94l-4.31,0a13.77,13.77,0,0,1-.3-2.27,10.9,10.9,0,0,1,.07-1.76c2.11-.29,4.3.26,6.36-.85l-6.22,0a12.07,12.07,0,0,1,2.06-4.71c2.76-.35,5.64.28,8.33-.86l-7.61,0a12.72,12.72,0,0,1,5.77-3.8c5.06-1.59,9.41-.16,13.36,3.11l.1.1.45-.43A6,6,0,0,0,132.15,103.32ZM37.09,55.92c-3-.34-3-.33-2.93-4.2,2.17-.35,4.44.28,6.57-.87l-6.56,0h0l0-2.85q0-.47,0-.95c-.28-1.63.3-2.11,2-2,2.71.21,5.45.08,8.27.1a13.31,13.31,0,0,0-.69,6.8c.94,4.36,5.55,6.43,9.22,3.92,1.17-.8,2.17-1.79,3.78-1.64-.2-1.16-1.69.41-1.54-1,.18-1.61,1.49-1.46,2.65-1.48,0-.48-.3-.44-.52-.46a3.1,3.1,0,0,0-.63,0c-.78.08-.69-.45-.71-1s.37-.64.81-.64a21.24,21.24,0,0,0,3.3-.15,3.47,3.47,0,0,0-2.47-.42c-1,.07-1.66,0-1.68-1.33,0-1.61,1.05-.84,1.7-1,.46-.09,1,.16,1.47-.24-1.15-.9-3.6.95-3.82-2,2.35,0,4.71.1,7.06,0,1.35-.05,1.39.57,1.06,1.52a6.28,6.28,0,0,0,.22,4.5,5.4,5.4,0,0,0,8,2.75c1-.59,1.84-1.44,3.18-1.29-1.54-1-.84-1.87.08-2.24s1-.07.17-.78c-.68-.57-.27-1.79-.09-2.57.25-1.12,1.58-.12,2.39-.7-.7-.46-1.45-.18-2.13-.29-.93-.15-.8-1-1.09-1.66l7.46,0c-1.12,3.39-1.81,6.67,1.54,9.16A6.21,6.21,0,0,0,90.39,53c2.88-2,3.67-5.2,2.4-9.85a65.52,65.52,0,0,0,8.93.09c-.09,1.51-.74,2.84-.7,4.29A5.58,5.58,0,0,0,104.74,53a6.82,6.82,0,0,0,7.41-2c.55-.67.82-1.69,2.23-1.53-1.56-.18-1.27-1.22-1.07-1.93.59-2.05,2.51,0,3.48-1.16-.69-.38-1.5-.13-2.26-.19s-1.31.13-1.28-.88.73-.56,1.21-.64l.85-.16c-.16-.18-.22-.3-.32-.34-.74-.28-2.21.52-2.06-.92.08-.8,1.41-.32,2.15-.28,4.69.25,4.69.27,4.92,4.93.11,2.31.18,4.62.34,6.92.08,1.09-.13,1.46-1.37,1.62-9.1,1.13-18.24.78-27.37,1-16.59.4-33.18.68-49.77,1-2,0-4.05.26-6.08.31-.69,0-1.68.51-1.71-1s.75-1.53,1.81-1.46c.47,0,.94,0,1.57,0C37.21,56.07,37.16,55.93,37.09,55.92Zm81.52,42.25A15,15,0,0,0,106.75,116a16.67,16.67,0,0,0,1.37,4.06q-28,.48-56,.72c-4.19,0-8.37.72-12.54-.14a8.29,8.29,0,0,1-4.66-2.39l5.45,0v-.6c-1.6,0-3.21-.1-4.8,0-1.44.09-1.8-.75-2-1.88a2.71,2.71,0,0,1,0-.42c0-3.59,0-3.59,3.74-3.57l7.25,0a34.62,34.62,0,0,0-9.12-.63c-.74,0-1.88.67-2-.93-.25-2.32-.05-2.92,1.6-3.43-.49-.62-1.75-.22-1.65-1.61.11-1.63.15-2.61,2.24-2.26a17.46,17.46,0,0,0,7.26-.42c-2.65,0-5.3-.09-8,0-1.22,0-1.58-.39-1.48-1.56a16.76,16.76,0,0,0,0-3.91c-.29-1.84.55-2.31,2.13-2.19h0l6.71-.37,0-.65-6.67.33v0l-.87.16-1.23-.24c0-2.73.13-5.47.05-8.19,0-1.34.4-1.6,1.68-1.53a30.29,30.29,0,0,0,7.59-.18V83.7c-2.59,0-5.17-.05-7.76,0-.94,0-1.5,0-1.49-1.31,0-3.17-.08-3.17,3.14-3.33.36,0,.86.21,1.05-.41-.5-.7-1.13-.11-1.68-.17-.79-.08-2,.59-2.28-.27a6.9,6.9,0,0,1,0-3.31c.14-.79.93-.38,1.42-.33,1.93.17,3.86.48,5.8-.53L35.7,74c-1,0-2.3.3-1.92-1.48.21-1-.54-2.63.6-3-.4-.14-.66-.51-.59-1.44.11-1.33.12-2.28,1.91-2.08a29.92,29.92,0,0,0,5.15,0,14.66,14.66,0,0,0-5.39-.42c-1.18,0-1.56-.26-1.53-1.5.11-4.43.06-4.43,4.46-4.36,21.08.35,42.16-.05,63.23-.84,5.6-.21,11.2-.37,16.78-.7,1.71-.1,2.25.27,2.32,2.07.38,9.71,1.49,19.37,2.56,29,.33,3,.65,6,.84,9A13.73,13.73,0,0,0,118.62,98.17Z" transform="translate(-14.91 -14.91)"/><path class="cls-5" d="M121.77,112.3c-.44.39-.65.26-1-.11q-1.43-1.68-2.91-3.33c-.39-.44-.81-1.21-1.45-.81s-.07,1.06.13,1.55a23.42,23.42,0,0,0,3.54,5.27c.65.84,1.25.84,2,.17,5.57-4.76,11.2-9.44,16.44-14.56.55-.54-4.66,1.19-6.32,2.7l-.13.13a6,6,0,0,1-.69.69l-.45.43c-.36.34-.77.72-.89.84C127.57,107.91,124.49,109.88,121.77,112.3Z" transform="translate(-14.91 -14.91)"/></g></svg>