<svg id="Layer_1" data-name="Layer 1" xmlns="http://www.w3.org/2000/svg" viewBox="0 0 35.45 35.44"><defs><style>.cls-1{fill:#555658;}</style></defs><title>linkedin</title><path class="cls-1" d="M24.8,42.5c0-3.87,0-7.74,0-11.61a6,6,0,0,1,6.11-6.09H54.13a6,6,0,0,1,6.11,6.12q0,9.28,0,18.57c0,1.58,0,3.15,0,4.73a6,6,0,0,1-4.95,5.92,6.72,6.72,0,0,1-1.19.1H30.94a6,6,0,0,1-6.14-6.16Q24.8,48.29,24.8,42.5Zm19.93-1.67c0-.89,0-1.66,0-2.43,0-.24-.06-.32-.31-.32-1.27,0-2.54,0-3.81,0-.22,0-.3,0-.3.29q0,7.47,0,14.93c0,.23.06.3.29.3,1.24,0,2.47,0,3.71,0,.37,0,.44-.11.43-.45q0-4.15,0-8.3a2.22,2.22,0,0,1,2.35-2.34A2.25,2.25,0,0,1,49.17,45c0,2.78,0,5.55,0,8.33,0,.23,0,.32.3.32,1.28,0,2.57,0,3.85,0,.23,0,.3-.06.3-.29,0-3.22,0-6.45,0-9.67a5.63,5.63,0,0,0-1.73-4.19c-1.38-1.33-3.76-2.16-5.76-.18A17.52,17.52,0,0,0,44.73,40.83Zm-6.64,5q0-3.65,0-7.3c0-.46,0-.46-.47-.46-1.2,0-2.4,0-3.6,0-.28,0-.36.07-.35.35,0,1.31,0,2.61,0,3.92q0,5.45,0,10.9c0,.26,0,.36.34.36,1.25,0,2.49,0,3.74,0,.27,0,.35-.07.35-.35C38.08,50.79,38.08,48.32,38.08,45.85Zm0-12.2a2.21,2.21,0,1,0-2.2,2.23A2.21,2.21,0,0,0,38.08,33.65Z" transform="translate(-24.8 -24.8)"/></svg>