<svg id="Layer_1" data-name="Layer 1" xmlns="http://www.w3.org/2000/svg" viewBox="0 0 140.27 140.27"><defs><style>.cls-1{fill:#eee;}.cls-2{fill:#555658;}.cls-3{fill:none;}.cls-4{fill:#d86943;}</style></defs><title>PML_flip</title><circle class="cls-1" cx="70.13" cy="70.13" r="69"/><path class="cls-2" d="M85,155.17A70.13,70.13,0,1,1,155.17,85,70.21,70.21,0,0,1,85,155.17Zm0-138A67.87,67.87,0,1,0,152.91,85,67.94,67.94,0,0,0,85,17.17Z" transform="translate(-14.91 -14.91)"/><path class="cls-3" d="M69.13,88a3.85,3.85,0,0,0,0-3,4,4,0,0,0-.83-1.23A3.93,3.93,0,0,0,67.07,83a3.89,3.89,0,0,0-3,0A3.88,3.88,0,0,0,62,85a3.87,3.87,0,0,0,0,3A3.89,3.89,0,0,0,64,90.13a3.9,3.9,0,0,0,3,0,3.94,3.94,0,0,0,1.23-.84A4,4,0,0,0,69.13,88Z" transform="translate(-14.91 -14.91)"/><path class="cls-3" d="M62.19,110.5a3,3,0,0,0-.81-.42,2.86,2.86,0,0,0-.92-.15,2.89,2.89,0,0,0-.92.15,3,3,0,0,0-.82.42,2.9,2.9,0,0,0-.65.65,2.68,2.68,0,0,0-.41.83h5.6a2.78,2.78,0,0,0-.42-.83A3,3,0,0,0,62.19,110.5Z" transform="translate(-14.91 -14.91)"/><path class="cls-3" d="M73.15,110.8a3,3,0,0,0-.93-.63,2.92,2.92,0,0,0-2.28,0,2.92,2.92,0,0,0-1.54,1.55,2.92,2.92,0,0,0,0,2.26,2.92,2.92,0,0,0,1.54,1.55,2.92,2.92,0,0,0,2.28,0A3,3,0,0,0,73.78,114a2.89,2.89,0,0,0,0-2.25A3,3,0,0,0,73.15,110.8Z" transform="translate(-14.91 -14.91)"/><path class="cls-3" d="M38.78,58.51a3,3,0,0,0-.93-.63,2.92,2.92,0,0,0-2.28,0A2.92,2.92,0,0,0,34,59.43a2.92,2.92,0,0,0,0,2.26,3,3,0,0,0,.62.93,2.93,2.93,0,0,0,.92.63,2.92,2.92,0,0,0,2.28,0,3,3,0,0,0,.93-.63,3,3,0,0,0,.62-.93,2.9,2.9,0,0,0,0-2.25A3,3,0,0,0,38.78,58.51Z" transform="translate(-14.91 -14.91)"/><path class="cls-3" d="M49.73,58.86a3,3,0,0,0-1.46-1.07,2.86,2.86,0,0,0-.92-.15,2.89,2.89,0,0,0-.92.15,3,3,0,0,0-.82.42,2.88,2.88,0,0,0-.65.65,2.68,2.68,0,0,0-.41.83h5.6A2.78,2.78,0,0,0,49.73,58.86Z" transform="translate(-14.91 -14.91)"/><path class="cls-3" d="M97.41,58.51a3,3,0,0,0-.93-.63,2.92,2.92,0,0,0-2.28,0,2.92,2.92,0,0,0-1.54,1.55,2.92,2.92,0,0,0,0,2.26,3,3,0,0,0,.62.93,2.93,2.93,0,0,0,.92.63,2.92,2.92,0,0,0,2.28,0,3,3,0,0,0,.93-.63,3,3,0,0,0,.62-.93,2.9,2.9,0,0,0,0-2.25A3,3,0,0,0,97.41,58.51Z" transform="translate(-14.91 -14.91)"/><path class="cls-3" d="M125.11,58.86a3,3,0,0,0-1.46-1.07,2.86,2.86,0,0,0-.92-.15,2.89,2.89,0,0,0-.92.15,3,3,0,0,0-.82.42,2.88,2.88,0,0,0-.65.65,2.68,2.68,0,0,0-.41.83h5.6A2.78,2.78,0,0,0,125.11,58.86Z" transform="translate(-14.91 -14.91)"/><path class="cls-3" d="M72.69,62.61a2.93,2.93,0,0,0,.92.63,2.92,2.92,0,0,0,2.28,0,3,3,0,0,0,.93-.63,3,3,0,0,0,.62-.93,2.9,2.9,0,0,0,0-2.25,3,3,0,0,0-.62-.93,3,3,0,0,0-.93-.63,2.92,2.92,0,0,0-2.28,0,2.92,2.92,0,0,0-1.54,1.55,2.92,2.92,0,0,0,0,2.26A3,3,0,0,0,72.69,62.61Z" transform="translate(-14.91 -14.91)"/><path class="cls-3" d="M115.67,110.8a3,3,0,0,0-.93-.63,2.92,2.92,0,0,0-2.28,0,2.92,2.92,0,0,0-1.54,1.55,2.92,2.92,0,0,0,0,2.26,2.92,2.92,0,0,0,1.54,1.55,2.92,2.92,0,0,0,2.28,0,3,3,0,0,0,1.55-1.56,2.89,2.89,0,0,0,0-2.25A3,3,0,0,0,115.67,110.8Z" transform="translate(-14.91 -14.91)"/><path class="cls-3" d="M126.32,83.42a4,4,0,0,0-1.08-.56,3.82,3.82,0,0,0-1.22-.2,3.86,3.86,0,0,0-1.23.2,4,4,0,0,0-1.1.56,3.85,3.85,0,0,0-.86.86,3.58,3.58,0,0,0-.54,1.11h7.46a3.73,3.73,0,0,0-.56-1.11A4,4,0,0,0,126.32,83.42Z" transform="translate(-14.91 -14.91)"/><path class="cls-3" d="M135.42,58.51a3,3,0,0,0-.93-.63,2.92,2.92,0,0,0-2.28,0,2.92,2.92,0,0,0-1.54,1.55,2.92,2.92,0,0,0,0,2.26,3,3,0,0,0,.62.93,2.93,2.93,0,0,0,.92.63,2.92,2.92,0,0,0,2.28,0,3,3,0,0,0,.93-.63,3,3,0,0,0,.62-.93,2.9,2.9,0,0,0,0-2.25A3,3,0,0,0,135.42,58.51Z" transform="translate(-14.91 -14.91)"/><path class="cls-2" d="M41.37,60.56A4.66,4.66,0,0,0,41,58.77a4.66,4.66,0,0,0-9,1.79v7.77a.84.84,0,0,0,.86.86.86.86,0,0,0,.62-.25.82.82,0,0,0,.25-.62V64.19a4.46,4.46,0,0,0,2.92,1,4.62,4.62,0,0,0,1.77-.34,4.7,4.7,0,0,0,1.52-1A4.45,4.45,0,0,0,41.37,60.56Zm-2,1.13a3,3,0,0,1-.62.93,3,3,0,0,1-.93.63,2.92,2.92,0,0,1-2.28,0,2.93,2.93,0,0,1-.92-.63,3,3,0,0,1-.62-.93,2.92,2.92,0,0,1,0-2.26,2.92,2.92,0,0,1,1.54-1.55,2.92,2.92,0,0,1,2.28,0,3,3,0,0,1,.93.63,3,3,0,0,1,.62.93,2.9,2.9,0,0,1,0,2.25Z" transform="translate(-14.91 -14.91)"/><path class="cls-2" d="M47.35,65.21a4.46,4.46,0,0,0,3-1.13.86.86,0,0,0,.25-.62.84.84,0,0,0-.86-.86.91.91,0,0,0-.57.22,2.76,2.76,0,0,1-.85.5,3,3,0,0,1-1.93,0,3,3,0,0,1-.81-.42,2.91,2.91,0,0,1-.64-.65,2.83,2.83,0,0,1-.42-.83h6.58a.86.86,0,0,0,.62-.24.82.82,0,0,0,.25-.62,4.66,4.66,0,0,0-.34-1.79,4.66,4.66,0,1,0-4.31,6.44ZM45,58.86a2.88,2.88,0,0,1,.65-.65,3,3,0,0,1,.82-.42,2.89,2.89,0,0,1,.92-.15,2.86,2.86,0,0,1,.92.15,3,3,0,0,1,1.46,1.07,2.78,2.78,0,0,1,.42.83h-5.6A2.68,2.68,0,0,1,45,58.86Z" transform="translate(-14.91 -14.91)"/><path class="cls-2" d="M54.17,65.21a.87.87,0,0,0,.86-.86V60.56a2.85,2.85,0,0,1,.23-1.14,2.9,2.9,0,0,1,1.55-1.55,2.85,2.85,0,0,1,1.14-.23,3.07,3.07,0,0,1,1.14.21.92.92,0,0,0,.37.09.86.86,0,0,0,.34-.07.81.81,0,0,0,.27-.19,1,1,0,0,0,.19-.28.83.83,0,0,0,.07-.34.77.77,0,0,0-.23-.58,1.65,1.65,0,0,0-.59-.35,3.43,3.43,0,0,0-.77-.18,6.67,6.67,0,0,0-.78,0,4.54,4.54,0,0,0-1.56.27,4.76,4.76,0,0,0-1.35.76v-.17a.87.87,0,0,0-.86-.86.84.84,0,0,0-.62.25.83.83,0,0,0-.25.61v7.57a.83.83,0,0,0,.25.61A.84.84,0,0,0,54.17,65.21Z" transform="translate(-14.91 -14.91)"/><path class="cls-2" d="M61.9,60.17a3.2,3.2,0,0,0,1.1.61l3.88,1.28a.33.33,0,0,1,.22.32.5.5,0,0,1-.12.34,2.54,2.54,0,0,1-1.91.75A2.81,2.81,0,0,1,63,62.63l-.35-.31a.7.7,0,0,0-.46-.16.84.84,0,0,0-.86.86.87.87,0,0,0,.18.54,4.6,4.6,0,0,0,3.56,1.65A4.93,4.93,0,0,0,66.42,65a4.25,4.25,0,0,0,1.21-.55,3.1,3.1,0,0,0,.88-.87,2,2,0,0,0,.34-1.15,2.07,2.07,0,0,0-.63-1.5h0a3.14,3.14,0,0,0-1.1-.61l-3.89-1.28a.31.31,0,0,1-.22-.32.49.49,0,0,1,.13-.37,2.55,2.55,0,0,1,1.91-.73,2.81,2.81,0,0,1,2.06.85,4.45,4.45,0,0,0,.36.32.7.7,0,0,0,.45.15.84.84,0,0,0,.86-.86.81.81,0,0,0-.17-.52,4.61,4.61,0,0,0-3.56-1.67,4.89,4.89,0,0,0-1.36.2,4.41,4.41,0,0,0-1.22.55,3.06,3.06,0,0,0-.88.87,2,2,0,0,0-.34,1.14,2.07,2.07,0,0,0,.63,1.5Z" transform="translate(-14.91 -14.91)"/><path class="cls-2" d="M74.76,65.21A4.52,4.52,0,0,0,78,63.85a4.45,4.45,0,0,0,1.36-3.29,4.8,4.8,0,0,0-.34-1.79,4.57,4.57,0,0,0-1-1.5,4.65,4.65,0,1,0-3.29,7.94Zm-2.69-5.78a2.92,2.92,0,0,1,1.54-1.55,2.92,2.92,0,0,1,2.28,0,3,3,0,0,1,.93.63,3,3,0,0,1,.62.93,2.9,2.9,0,0,1,0,2.25,3,3,0,0,1-.62.93,3,3,0,0,1-.93.63,2.92,2.92,0,0,1-2.28,0,2.93,2.93,0,0,1-.92-.63,3,3,0,0,1-.62-.93,2.92,2.92,0,0,1,0-2.26Z" transform="translate(-14.91 -14.91)"/><path class="cls-2" d="M81.6,65.21a.86.86,0,0,0,.86-.87V60.24a2.52,2.52,0,0,1,.2-1,2.64,2.64,0,0,1,1.39-1.39,2.5,2.5,0,0,1,1-.2,2.48,2.48,0,0,1,1,.21,2.65,2.65,0,0,1,1.39,1.39,2.47,2.47,0,0,1,.21,1v4.09a.87.87,0,1,0,1.74,0V60.24A4.15,4.15,0,0,0,89,58.55a4.38,4.38,0,0,0-.95-1.38,4.54,4.54,0,0,0-1.38-.93,4.31,4.31,0,0,0-4.26.51.87.87,0,0,0-.86-.86.84.84,0,0,0-.62.26.85.85,0,0,0-.25.61v7.56a.86.86,0,0,0,.87.87Z" transform="translate(-14.91 -14.91)"/><path class="cls-2" d="M99.75,65a.83.83,0,0,0,.25-.61V60.56a4.65,4.65,0,1,0-4.65,4.65,4.53,4.53,0,0,0,1.56-.27,4.76,4.76,0,0,0,1.35-.76v.17a.83.83,0,0,0,.25.61.84.84,0,0,0,.62.25A.83.83,0,0,0,99.75,65ZM98,61.68a3,3,0,0,1-.62.93,3,3,0,0,1-.93.63,2.92,2.92,0,0,1-2.28,0,2.93,2.93,0,0,1-.92-.63,3,3,0,0,1-.62-.93,2.92,2.92,0,0,1,0-2.26,2.92,2.92,0,0,1,1.54-1.55,2.92,2.92,0,0,1,2.28,0,3,3,0,0,1,.93.63,3,3,0,0,1,.62.93,2.9,2.9,0,0,1,0,2.25Z" transform="translate(-14.91 -14.91)"/><path class="cls-2" d="M102.1,65.21h1.27a.87.87,0,0,0,.86-.86.84.84,0,0,0-.25-.62.83.83,0,0,0-.61-.25H103V52.79a.86.86,0,0,0-.25-.62.88.88,0,0,0-1.24,0,.86.86,0,0,0-.25.62V64.35a.84.84,0,0,0,.25.61A.82.82,0,0,0,102.1,65.21Z" transform="translate(-14.91 -14.91)"/><path class="cls-2" d="M106.65,55.28a1,1,0,1,0-.72-.3A1,1,0,0,0,106.65,55.28Z" transform="translate(-14.91 -14.91)"/><path class="cls-2" d="M106.65,55.91a.83.83,0,0,0-.61.25.84.84,0,0,0-.25.62v7.56A.84.84,0,0,0,106,65a.86.86,0,0,0,1.22,0,.87.87,0,0,0,.26-.62V56.78a.87.87,0,0,0-.26-.62A.83.83,0,0,0,106.65,55.91Z" transform="translate(-14.91 -14.91)"/><path class="cls-2" d="M109.29,64.35a.85.85,0,0,0,.07.33.91.91,0,0,0,.18.28.82.82,0,0,0,.27.19.87.87,0,0,0,.34.07h6.3a.82.82,0,0,0,.61-.25.85.85,0,0,0,.25-.62.84.84,0,0,0-.25-.61.82.82,0,0,0-.61-.25H112l5.13-6.13a.83.83,0,0,0,.21-.57.81.81,0,0,0-.07-.33.94.94,0,0,0-.19-.28.82.82,0,0,0-.27-.19.88.88,0,0,0-.34-.07h-6.3a.86.86,0,0,0-.86.86.84.84,0,0,0,.25.62.82.82,0,0,0,.6.25h4.45l-5.14,6.16A.88.88,0,0,0,109.29,64.35Z" transform="translate(-14.91 -14.91)"/><path class="cls-2" d="M122.73,65.21a4.46,4.46,0,0,0,3-1.13.86.86,0,0,0,.25-.62.84.84,0,0,0-.86-.86.91.91,0,0,0-.57.22,2.76,2.76,0,0,1-.85.5,3,3,0,0,1-1.93,0,3,3,0,0,1-.81-.42,2.91,2.91,0,0,1-.64-.65,2.83,2.83,0,0,1-.42-.83h6.58a.86.86,0,0,0,.62-.24.82.82,0,0,0,.25-.62,4.66,4.66,0,0,0-.34-1.79,4.66,4.66,0,1,0-4.31,6.44Zm-2.39-6.35a2.88,2.88,0,0,1,.65-.65,3,3,0,0,1,.82-.42,2.89,2.89,0,0,1,.92-.15,2.86,2.86,0,0,1,.92.15,3,3,0,0,1,1.46,1.07,2.78,2.78,0,0,1,.42.83h-5.6A2.68,2.68,0,0,1,120.34,58.86Z" transform="translate(-14.91 -14.91)"/><path class="cls-2" d="M137.76,52.17a.86.86,0,0,0-.62-.25.84.84,0,0,0-.86.86v4.14a4.65,4.65,0,1,0,.37,6.92A4.45,4.45,0,0,0,138,60.56V52.79A.82.82,0,0,0,137.76,52.17ZM136,61.68a3,3,0,0,1-.62.93,3,3,0,0,1-.93.63,2.92,2.92,0,0,1-2.28,0,2.93,2.93,0,0,1-.92-.63,3,3,0,0,1-.62-.93,2.92,2.92,0,0,1,0-2.26,2.92,2.92,0,0,1,1.54-1.55,2.92,2.92,0,0,1,2.28,0,3,3,0,0,1,.93.63,3,3,0,0,1,.62.93,2.9,2.9,0,0,1,0,2.25Z" transform="translate(-14.91 -14.91)"/><path class="cls-4" d="M57,92.41a1.12,1.12,0,0,0,.34-.82v-6.3A4.74,4.74,0,0,0,57,83.38a5,5,0,0,0-2.64-2.64,4.73,4.73,0,0,0-1.91-.39,4.82,4.82,0,0,0-3.78,1.76,4.7,4.7,0,0,0-1.71-1.32,5,5,0,0,0-2.08-.44,4.75,4.75,0,0,0-2.69.79,1.09,1.09,0,0,0-.41-.57,1.14,1.14,0,0,0-.69-.22,1.15,1.15,0,0,0-1.15,1.15V91.59a1.15,1.15,0,0,0,1.16,1.16,1.11,1.11,0,0,0,.81-.34,1.12,1.12,0,0,0,.34-.82v-6.3a2.55,2.55,0,0,1,.21-1,2.65,2.65,0,0,1,1.4-1.4,2.55,2.55,0,0,1,1-.21,2.49,2.49,0,0,1,1,.21,2.68,2.68,0,0,1,1.4,1.4,2.5,2.5,0,0,1,.21,1v6.3a1.15,1.15,0,0,0,1.16,1.16,1.11,1.11,0,0,0,.81-.34,1.12,1.12,0,0,0,.34-.82v-6.3a2.55,2.55,0,0,1,.21-1,2.58,2.58,0,0,1,.56-.83,2.78,2.78,0,0,1,.84-.56,2.49,2.49,0,0,1,1-.21,2.56,2.56,0,0,1,1,.21,2.66,2.66,0,0,1,.84.57,2.72,2.72,0,0,1,.56.84,2.52,2.52,0,0,1,.21,1v6.3a1.13,1.13,0,0,0,.33.82,1.16,1.16,0,0,0,1.63,0Z" transform="translate(-14.91 -14.91)"/><path class="cls-4" d="M69.44,91.38v.22a1.11,1.11,0,0,0,.34.81,1.12,1.12,0,0,0,.83.34,1.15,1.15,0,0,0,1.15-1.15v-5a6.2,6.2,0,1,0-6.2,6.2,6,6,0,0,0,2.08-.35A6.32,6.32,0,0,0,69.44,91.38Zm-3.89-.94A3.78,3.78,0,0,1,64,90.13,3.89,3.89,0,0,1,62,88.05a3.87,3.87,0,0,1,0-3A3.88,3.88,0,0,1,64,83a3.89,3.89,0,0,1,3,0,3.93,3.93,0,0,1,1.23.84A4,4,0,0,1,69.13,85a3.85,3.85,0,0,1,0,3,4,4,0,0,1-.83,1.23,3.94,3.94,0,0,1-1.23.84A3.75,3.75,0,0,1,65.55,90.44Z" transform="translate(-14.91 -14.91)"/><path class="cls-4" d="M76.94,83.8A4,4,0,0,1,78.19,83a3.79,3.79,0,0,1,1.52-.3,3.67,3.67,0,0,1,1.35.24,4.26,4.26,0,0,1,1.19.72,1.17,1.17,0,0,0,.75.27,1.11,1.11,0,0,0,.82-.33,1.14,1.14,0,0,0,.33-.83,1.12,1.12,0,0,0-.4-.87,5.91,5.91,0,0,0-4-1.51,6.2,6.2,0,1,0,4,10.9,1.17,1.17,0,0,0,.37-.85A1.12,1.12,0,0,0,83,89.24a1.24,1.24,0,0,0-.73.24,4,4,0,0,1-1.17.71,3.73,3.73,0,0,1-1.35.24,3.79,3.79,0,0,1-1.52-.3,4,4,0,0,1-1.24-.83,3.84,3.84,0,0,1-.84-1.23,3.93,3.93,0,0,1,0-3A3.85,3.85,0,0,1,76.94,83.8Z" transform="translate(-14.91 -14.91)"/><path class="cls-4" d="M95.75,82.06a6.05,6.05,0,0,0-1.84-1.23,5.75,5.75,0,0,0-5.67.69V76.2a1.16,1.16,0,0,0-.35-.83,1.15,1.15,0,0,0-1.63,0,1.12,1.12,0,0,0-.34.83V91.59a1.12,1.12,0,0,0,.34.82,1.11,1.11,0,0,0,.81.34,1.15,1.15,0,0,0,1.16-1.16V86.15a3.36,3.36,0,0,1,.27-1.34A3.53,3.53,0,0,1,90.35,83a3.35,3.35,0,0,1,1.34-.27A3.3,3.3,0,0,1,93,83a3.53,3.53,0,0,1,1.85,1.85,3.3,3.3,0,0,1,.28,1.34v5.44a1.12,1.12,0,0,0,.34.82,1.15,1.15,0,0,0,1.63,0,1.16,1.16,0,0,0,.35-.82V86.15A5.54,5.54,0,0,0,97,83.9,5.81,5.81,0,0,0,95.75,82.06Z" transform="translate(-14.91 -14.91)"/><path class="cls-4" d="M100,79.11a1.36,1.36,0,1,0-.4-1A1.31,1.31,0,0,0,100,79.11Z" transform="translate(-14.91 -14.91)"/><path class="cls-4" d="M101,80.35a1.11,1.11,0,0,0-.81.34,1.12,1.12,0,0,0-.34.83V91.59a1.12,1.12,0,0,0,.34.82,1.15,1.15,0,0,0,1.63,0,1.16,1.16,0,0,0,.35-.82V81.51a1.17,1.17,0,0,0-.35-.83A1.11,1.11,0,0,0,101,80.35Z" transform="translate(-14.91 -14.91)"/><path class="cls-4" d="M111.64,82.94a3.53,3.53,0,0,1,1.85,1.85,3.3,3.3,0,0,1,.28,1.34v5.46a1.15,1.15,0,0,0,1.16,1.16,1.11,1.11,0,0,0,.81-.34,1.12,1.12,0,0,0,.34-.82V86.13a5.54,5.54,0,0,0-.46-2.25A5.81,5.81,0,0,0,114.35,82a6.05,6.05,0,0,0-1.84-1.23,5.75,5.75,0,0,0-5.67.69,1.16,1.16,0,0,0-2-.8,1.13,1.13,0,0,0-.34.82V91.59a1.16,1.16,0,1,0,2.31,0V86.13a3.36,3.36,0,0,1,.27-1.34A3.52,3.52,0,0,1,109,82.93a3.34,3.34,0,0,1,1.34-.27A3.3,3.3,0,0,1,111.64,82.94Z" transform="translate(-14.91 -14.91)"/><path class="cls-4" d="M128.4,82.16A6.2,6.2,0,1,0,124,92.75a6,6,0,0,0,4.05-1.51,1.15,1.15,0,0,0,.33-.83,1.12,1.12,0,0,0-1.15-1.15,1.21,1.21,0,0,0-.76.29,3.68,3.68,0,0,1-1.13.67,3.9,3.9,0,0,1-1.34.22,3.85,3.85,0,0,1-1.24-.2,4,4,0,0,1-1.08-.56,3.89,3.89,0,0,1-.86-.86,3.74,3.74,0,0,1-.55-1.11h8.77a1.14,1.14,0,0,0,.82-.33,1.1,1.1,0,0,0,.34-.83,6.2,6.2,0,0,0-.45-2.39A6,6,0,0,0,128.4,82.16Zm-8.12,3.23a3.58,3.58,0,0,1,.54-1.11,3.85,3.85,0,0,1,.86-.86,4,4,0,0,1,1.1-.56,3.86,3.86,0,0,1,1.23-.2,3.82,3.82,0,0,1,1.22.2,4,4,0,0,1,1.95,1.42,3.73,3.73,0,0,1,.56,1.11Z" transform="translate(-14.91 -14.91)"/><path class="cls-2" d="M53.86,115.76h-.4V105.08a.86.86,0,0,0-.25-.62.88.88,0,0,0-1.24,0,.86.86,0,0,0-.25.62v11.55a.84.84,0,0,0,.25.61.82.82,0,0,0,.61.25h1.27a.87.87,0,0,0,.86-.86.84.84,0,0,0-.25-.62A.83.83,0,0,0,53.86,115.76Z" transform="translate(-14.91 -14.91)"/><path class="cls-2" d="M63.75,109.56a4.65,4.65,0,1,0-3.29,7.94,4.45,4.45,0,0,0,3-1.13.86.86,0,0,0,.25-.62.84.84,0,0,0-.86-.86.91.91,0,0,0-.57.22,2.77,2.77,0,0,1-.85.5,2.92,2.92,0,0,1-1,.17,2.89,2.89,0,0,1-.93-.15,3,3,0,0,1-.81-.42,2.91,2.91,0,0,1-.64-.65,2.83,2.83,0,0,1-.42-.83h6.58a.85.85,0,0,0,.62-.25.82.82,0,0,0,.25-.62,4.66,4.66,0,0,0-.34-1.79A4.51,4.51,0,0,0,63.75,109.56ZM57.66,112a2.68,2.68,0,0,1,.41-.83,2.9,2.9,0,0,1,.65-.65,3,3,0,0,1,.82-.42,2.89,2.89,0,0,1,.92-.15,2.86,2.86,0,0,1,.92.15,3,3,0,0,1,1.46,1.07,2.78,2.78,0,0,1,.42.83Z" transform="translate(-14.91 -14.91)"/><path class="cls-2" d="M71.09,108.2a4.65,4.65,0,1,0,0,9.3,4.54,4.54,0,0,0,1.56-.27,4.75,4.75,0,0,0,1.35-.76v.17a.87.87,0,0,0,1.74,0v-3.79a4.65,4.65,0,0,0-4.65-4.65ZM73.78,114a3,3,0,0,1-1.55,1.56,2.92,2.92,0,0,1-2.28,0A2.92,2.92,0,0,1,68.4,114a2.92,2.92,0,0,1,0-2.26,2.92,2.92,0,0,1,1.54-1.55,2.92,2.92,0,0,1,2.28,0,3,3,0,0,1,1.55,1.56,2.89,2.89,0,0,1,0,2.25Z" transform="translate(-14.91 -14.91)"/><path class="cls-2" d="M83.24,108.43a3.48,3.48,0,0,0-.77-.18,6.67,6.67,0,0,0-.78,0,4.52,4.52,0,0,0-1.56.27,4.75,4.75,0,0,0-1.35.76v-.17a.87.87,0,0,0-.86-.86.84.84,0,0,0-.62.25.83.83,0,0,0-.25.61v7.57a.87.87,0,0,0,1.74,0v-3.79a2.85,2.85,0,0,1,.23-1.14,2.91,2.91,0,0,1,1.55-1.55,2.85,2.85,0,0,1,1.14-.23,3.06,3.06,0,0,1,1.14.21.93.93,0,0,0,.37.09.87.87,0,0,0,.34-.07.81.81,0,0,0,.27-.19,1,1,0,0,0,.19-.28.83.83,0,0,0,.07-.34.77.77,0,0,0-.23-.58A1.65,1.65,0,0,0,83.24,108.43Z" transform="translate(-14.91 -14.91)"/><path class="cls-2" d="M92.41,109.46a4.56,4.56,0,0,0-1.38-.93,4.31,4.31,0,0,0-4.26.51.87.87,0,0,0-.86-.85.84.84,0,0,0-.62.26.85.85,0,0,0-.25.62v7.56a.86.86,0,0,0,.87.87.83.83,0,0,0,.61-.25.84.84,0,0,0,.25-.62v-4.09a2.51,2.51,0,0,1,.2-1,2.64,2.64,0,0,1,1.39-1.39,2.5,2.5,0,0,1,1-.2,2.47,2.47,0,0,1,1,.21,2.65,2.65,0,0,1,1.39,1.39,2.47,2.47,0,0,1,.21,1v4.09a.86.86,0,0,0,.87.87.83.83,0,0,0,.61-.25.85.85,0,0,0,.25-.62v-4.09a4.15,4.15,0,0,0-.35-1.69A4.38,4.38,0,0,0,92.41,109.46Z" transform="translate(-14.91 -14.91)"/><path class="cls-2" d="M96.33,108.2a.83.83,0,0,0-.61.25.84.84,0,0,0-.25.62v7.56a.84.84,0,0,0,.25.62.86.86,0,0,0,1.22,0,.87.87,0,0,0,.26-.62v-7.56a.87.87,0,0,0-.26-.62A.83.83,0,0,0,96.33,108.2Z" transform="translate(-14.91 -14.91)"/><path class="cls-2" d="M96.33,105.52a1,1,0,1,0,.72.3A1,1,0,0,0,96.33,105.52Z" transform="translate(-14.91 -14.91)"/><path class="cls-2" d="M106.36,109.46a4.56,4.56,0,0,0-1.38-.93,4.31,4.31,0,0,0-4.26.51.87.87,0,0,0-.86-.85.84.84,0,0,0-.62.26.85.85,0,0,0-.25.62v7.56a.86.86,0,0,0,.87.87.83.83,0,0,0,.61-.25.84.84,0,0,0,.25-.62v-4.09a2.51,2.51,0,0,1,.2-1,2.64,2.64,0,0,1,1.39-1.39,2.5,2.5,0,0,1,1-.2,2.47,2.47,0,0,1,1,.21,2.65,2.65,0,0,1,1.39,1.39,2.47,2.47,0,0,1,.21,1v4.09a.86.86,0,0,0,.87.87.83.83,0,0,0,.61-.25.85.85,0,0,0,.25-.62v-4.09a4.15,4.15,0,0,0-.35-1.69A4.38,4.38,0,0,0,106.36,109.46Z" transform="translate(-14.91 -14.91)"/><path class="cls-2" d="M113.61,108.2a4.65,4.65,0,1,0,2.91,8.28v1a2.16,2.16,0,0,1-.57,1.35,3.24,3.24,0,0,1-4.56,0,4.28,4.28,0,0,1-.5-.61,2.39,2.39,0,0,0-.44-.51.69.69,0,0,0-.41-.12.85.85,0,0,0-.62.25.83.83,0,0,0-.25.62.79.79,0,0,0,.13.47,5,5,0,0,0,.81,1.1,4.88,4.88,0,0,0,1.05.82,5,5,0,0,0,1.21.5,5.06,5.06,0,0,0,1.3.17,4.82,4.82,0,0,0,1.11-.13,5.35,5.35,0,0,0,1.07-.38,4.81,4.81,0,0,0,1-.6,4.26,4.26,0,0,0,.76-.8,3.71,3.71,0,0,0,.51-1,3.47,3.47,0,0,0,.18-1.13v-4.62a4.65,4.65,0,0,0-4.65-4.65Zm2.69,5.78a3,3,0,0,1-1.55,1.56,2.92,2.92,0,0,1-2.28,0,2.92,2.92,0,0,1-1.54-1.55,2.92,2.92,0,0,1,0-2.26,2.92,2.92,0,0,1,1.54-1.55,2.92,2.92,0,0,1,2.28,0,3,3,0,0,1,1.55,1.56,2.89,2.89,0,0,1,0,2.25Z" transform="translate(-14.91 -14.91)"/></svg>