<svg id="Layer_1" data-name="Layer 1" xmlns="http://www.w3.org/2000/svg" viewBox="0 0 127.17 35.37"><defs><style>.cls-1{fill:#555658;}</style></defs><title>podpis_ravno</title><path class="cls-1" d="M89.09,25.31A2,2,0,0,1,90,24.12a1.19,1.19,0,0,1,1.21.36.71.71,0,0,1,.28.66,2.09,2.09,0,0,1-.36.83q-.07.12-1.8,2.18a4.88,4.88,0,0,0-1.18,2.27,1.27,1.27,0,0,0,.55,1.46q.59.33,1.54-.39a10,10,0,0,0,1.78-1.91,15.23,15.23,0,0,0,2.41-4.13q.34-1,1-.89a2.63,2.63,0,0,1,1.26.7q.55.46.38.86a9.85,9.85,0,0,1-.73.86A7.41,7.41,0,0,0,95,29.18a3.22,3.22,0,0,0-.21,1.91,1.7,1.7,0,0,0,1.39,1.26q1.39.33,3.26-1.2l.89-.67.73-.58q.71-.55.85-.48.34.19.07.66a9.2,9.2,0,0,1-1.12,1.35q-2.68,3.19-5.61,2.44a2.57,2.57,0,0,1-2-2.22,4.2,4.2,0,0,1,0-1.71,13.92,13.92,0,0,0-1.22,1.21q-.91,1-1.41,1.42-1.8,1.63-3,1.23t-1.37-2.24a4.12,4.12,0,0,1,.53-2.39Q87.36,28.35,89.09,25.31Z" transform="translate(-21.45 -10.66)"/><path class="cls-1" d="M110.24,16.37q1.3-3,1.39-3.17l.35-.67q.3-.58.52-.95.69-1.18,1-.86A2.5,2.5,0,0,1,114,12.5q0,.5-.1,1.69a55,55,0,0,0-6.44,16.25,35.39,35.39,0,0,0-1,4.65,10,10,0,0,1-.2,1.43q-.23,1.26-.33,2.35c0,.67-.76,1.07-1,.68-.05-.11,0-.47-.14-1.05a5.51,5.51,0,0,1-.06-1.34q.11-1,.31-2.37-.11-.89-.61-.79a8.59,8.59,0,0,1-1.48.19,2.53,2.53,0,0,1-2.14-1,3.48,3.48,0,0,1-.64-2.23q0-2.73,3.11-5A12.74,12.74,0,0,1,106,24.59q1.44-.57,1.43-.4Q107.47,22.84,110.24,16.37Zm-8,13.72a2.21,2.21,0,0,0,1,1.83,2.68,2.68,0,0,0,1.68.4,21.59,21.59,0,0,0,.51-2.14,17.76,17.76,0,0,1,1.2-3.71,6.83,6.83,0,0,0-3.5,1.68A2.78,2.78,0,0,0,102.27,30.09Z" transform="translate(-21.45 -10.66)"/><path class="cls-1" d="M75.7,23.45q.65.14,1.29,1.88,1.12,3,1.54,3.88a13.94,13.94,0,0,0,1.85,3,.94.94,0,0,0,1.17.12,5,5,0,0,0,.57-.34l.48-.34a7.14,7.14,0,0,1,1.05-.54,1.59,1.59,0,0,1,1.24,0q1,.5,0,1.73a2.07,2.07,0,0,1-1.37.66,4.89,4.89,0,0,1-2.39-.33,6.26,6.26,0,0,1-2.28-1.4,9.67,9.67,0,0,1-1.76-2.61C76.81,28.66,75.21,23.35,75.7,23.45Z" transform="translate(-21.45 -10.66)"/><path class="cls-1" d="M82,16.43a2.19,2.19,0,0,0-1.85-.84,7.44,7.44,0,0,0-1.28.17c-.29.06.26-.61-.14-1.1-.22-.63-2.13,0-2.13.18a11.09,11.09,0,0,1-.3,4,47.66,47.66,0,0,1-5.58,14.08q-.08,1-.08,1.46A2.16,2.16,0,0,0,71,35.93q.28.28.88-.75.19-.31.45-.82l.3-.58q.08-.14,1.21-2.74,2.4-5.61,2.4-6.78,0,.15,1.24-.35a11,11,0,0,0,2.32-1.24q2.67-1.94,2.7-4.31A3,3,0,0,0,82,16.43Zm-2,4.4a5.92,5.92,0,0,1-3,1.45,15.39,15.39,0,0,0,1-3.21,18.71,18.71,0,0,1,.44-1.85,2.32,2.32,0,0,1,1.45.35,1.92,1.92,0,0,1,.9,1.58A2.41,2.41,0,0,1,79.94,20.83Z" transform="translate(-21.45 -10.66)"/><path class="cls-1" d="M111,27.71a1.53,1.53,0,0,1,.72-.54,1,1,0,0,1,1.12.4,1,1,0,0,1,.23,1.22,4.08,4.08,0,0,1-1.05,1,1.74,1.74,0,0,0-.79,1.1q0,.63,1,1a2.54,2.54,0,0,0,2.24-.41,3.88,3.88,0,0,0,1.63-1.82,1.92,1.92,0,0,0-.19-1.81,4.06,4.06,0,0,0-1.31-1.25,5.15,5.15,0,0,0-2.08-.58c-.64-.08-1.82-2.15-1.59-1.85a1.76,1.76,0,0,0,1.06.51q.49.09,2.41.22.37,0,3.53-.05a14.57,14.57,0,0,1,3.73.27q.71.19.78.38t-.36.3a5.36,5.36,0,0,1-1.76.27q-.89,0-4.55-.14a.88.88,0,0,1,.81,0q.88.39,1.22,2.39a3.28,3.28,0,0,1-.62,2.39,7,7,0,0,1-2.07,2,6.46,6.46,0,0,1-2.59,1.05,2.67,2.67,0,0,1-2.19-.44q-1.39-1.14-.5-3.5A8.79,8.79,0,0,1,111,27.71Z" transform="translate(-21.45 -10.66)"/><path class="cls-1" d="M121,33.41a1.87,1.87,0,0,1-.58-.53.59.59,0,0,1-.11-.57q1.61-4,1.91-4.93a8.43,8.43,0,0,0,.68-3q-.06-.18.18-.32a1.09,1.09,0,0,1,.42-.15,1.4,1.4,0,0,1,.61.1q.43.14.43.34a5.41,5.41,0,0,1-.32,1.26q-.69,2-1.51,5.09a.42.42,0,0,0-.07.29q0,.27.53.12A8.81,8.81,0,0,0,127,28.37a9,9,0,0,0,2.57-5.18,1.2,1.2,0,0,1,0-.31q.09-.31.29-.35a.34.34,0,0,1,.32.15.59.59,0,0,1,.15.38,7.44,7.44,0,0,1-.22,1.37,14.3,14.3,0,0,1-1,3,11.82,11.82,0,0,1-6.43,6.26A1.88,1.88,0,0,1,121,33.41Z" transform="translate(-21.45 -10.66)"/><path class="cls-1" d="M130.64,27.17l.44-1q.34-.81.44-1a3.76,3.76,0,0,1,.71-1.16q.47-.37,1.17.33a1.76,1.76,0,0,1,.38.5.48.48,0,0,1,0,.37,2.53,2.53,0,0,1-.28.4,6.28,6.28,0,0,0-.41.61,19.67,19.67,0,0,0-1.44,2.66,5.32,5.32,0,0,0-.47,2.05,1.43,1.43,0,0,0,1.25,1.36,4.07,4.07,0,0,0,2.82-.49,23,23,0,0,0,2.68-2q.18-.15.3-.06t0,.35a4.72,4.72,0,0,1-1.44,1.87,5.14,5.14,0,0,1-5.39,1.66,3.27,3.27,0,0,1-1.53-.72,2.46,2.46,0,0,1-.57-1.51Q129.23,30.34,130.64,27.17ZM133,20.94a.72.72,0,0,1,.67-.8,1.74,1.74,0,0,1,1.14.21.83.83,0,0,1,.48.56,2.16,2.16,0,0,1-.07.62q-.84.78-1.32.63A1.16,1.16,0,0,1,133,20.94Z" transform="translate(-21.45 -10.66)"/><path class="cls-1" d="M137.56,28.39A9.48,9.48,0,0,1,140,25.65a11.22,11.22,0,0,1,2.68-1.3A4.46,4.46,0,0,1,144,24.1a1.82,1.82,0,0,1,1.31.34,1.75,1.75,0,0,1,.34,1.24q0,.91-.39,1.14a2.85,2.85,0,0,1-.86.29q-.69.16-.83,0a1.33,1.33,0,0,1,0-.75,1.4,1.4,0,0,0-.09-.87q-.24-.41-.91-.12a2.69,2.69,0,0,0-1,.71,17.23,17.23,0,0,0-1.8,2.54,4.43,4.43,0,0,0-.88,2.54q.18,1.15,2.11,1.36a10.72,10.72,0,0,0,3.8-.37,11.16,11.16,0,0,0,2.62-1l.74-.45q.45,0,.44.28t-.57.67a13.81,13.81,0,0,1-4.72,1.79q-3.7.8-5.81-.28-1.24-.63-.9-2.43A6.7,6.7,0,0,1,137.56,28.39Z" transform="translate(-21.45 -10.66)"/><path class="cls-1" d="M39.31,26.74q0,.09.12,1.48h.45a9.75,9.75,0,0,0,1.26-.35,6.64,6.64,0,0,1,1.76-.33q.4,0,.43.1t-.21.27l-.54.39a5.32,5.32,0,0,0-.58.49,3.79,3.79,0,0,1-2,.65,2.12,2.12,0,0,0-1.77,1s-.14.95-.39,2.75a24.84,24.84,0,0,1-3.39,9.2,10.87,10.87,0,0,1-2.52,2.95Q30,46.9,29.5,45a7.63,7.63,0,0,1,0-2.53A9.09,9.09,0,0,1,30,40.06a27.4,27.4,0,0,1,4.38-6.79,16.35,16.35,0,0,0,2.69-4.15A1.4,1.4,0,0,0,37.53,28q-.12-.45-.35-.45a18.32,18.32,0,0,1-1.06,2,12.84,12.84,0,0,1-2.35,2.81,12.38,12.38,0,0,1-1.38,1.13,1.55,1.55,0,0,1-1.14.1q-.75-.16-.92-1.44a6.65,6.65,0,0,1,.3-2.82,9.46,9.46,0,0,1,2.3-2.93A24.1,24.1,0,0,1,35,24.5q1.5-1.06,2.52-.25a2,2,0,0,1,.7,1.81q0-.1.27,0A1.9,1.9,0,0,1,39.31,26.74Zm-4.76,8.54a17.62,17.62,0,0,0-3.3,7.07q-.32,1.43.79.39a8.77,8.77,0,0,0,1.39-1.62,24.7,24.7,0,0,0,2.47-5.05,27.91,27.91,0,0,0,.62-2.81A14.65,14.65,0,0,0,34.55,35.29ZM31.91,31a1.1,1.1,0,0,0,.33.63.8.8,0,0,0,.49.1,1.49,1.49,0,0,0,1-.83q1.42-2.4,1.62-2.69a12,12,0,0,0,.9-1.58,10,10,0,0,0-3.7,2.58A2.18,2.18,0,0,0,31.91,31Z" transform="translate(-21.45 -10.66)"/><path class="cls-1" d="M50.57,26.74q0,.09.12,1.48h.45a9.75,9.75,0,0,0,1.26-.35,6.64,6.64,0,0,1,1.76-.33q.4,0,.43.1t-.21.27l-.54.39a5.32,5.32,0,0,0-.58.49,3.79,3.79,0,0,1-2,.65,2.12,2.12,0,0,0-1.77,1s-.14.95-.39,2.75a24.84,24.84,0,0,1-3.39,9.2,10.87,10.87,0,0,1-2.52,2.95Q41.24,46.9,40.77,45a7.63,7.63,0,0,1,0-2.53,9.09,9.09,0,0,1,.53-2.41,27.4,27.4,0,0,1,4.38-6.79,16.35,16.35,0,0,0,2.69-4.15A1.4,1.4,0,0,0,48.79,28q-.12-.45-.35-.45a18.32,18.32,0,0,1-1.06,2A12.84,12.84,0,0,1,45,32.37a12.38,12.38,0,0,1-1.38,1.13,1.55,1.55,0,0,1-1.14.1q-.75-.16-.92-1.44a6.65,6.65,0,0,1,.3-2.82,9.46,9.46,0,0,1,2.3-2.93,24.1,24.1,0,0,1,2.05-1.92q1.5-1.06,2.52-.25a2,2,0,0,1,.7,1.81q0-.1.27,0A1.9,1.9,0,0,1,50.57,26.74Zm-4.76,8.54a17.62,17.62,0,0,0-3.3,7.07q-.32,1.43.79.39a8.77,8.77,0,0,0,1.39-1.62,24.7,24.7,0,0,0,2.47-5.05,27.91,27.91,0,0,0,.62-2.81A14.65,14.65,0,0,0,45.81,35.29ZM43.18,31a1.1,1.1,0,0,0,.33.63.8.8,0,0,0,.49.1,1.49,1.49,0,0,0,1-.83q1.42-2.4,1.62-2.69a12,12,0,0,0,.9-1.58,10,10,0,0,0-3.7,2.58A2.18,2.18,0,0,0,43.18,31Z" transform="translate(-21.45 -10.66)"/><path class="cls-1" d="M53.86,27q.06-.14.44-1.06t.44-1a3.83,3.83,0,0,1,.72-1.18q.47-.38,1.19.34a1.78,1.78,0,0,1,.39.51A.49.49,0,0,1,57,25a2.57,2.57,0,0,1-.28.41,6.38,6.38,0,0,0-.42.62,20,20,0,0,0-1.47,2.7,5.4,5.4,0,0,0-.48,2.08,1.45,1.45,0,0,0,1.27,1.38,4.14,4.14,0,0,0,2.86-.5,23.39,23.39,0,0,0,2.72-2q.18-.15.3-.07t0,.36a4.79,4.79,0,0,1-1.47,1.9,5.23,5.23,0,0,1-5.48,1.68,3.32,3.32,0,0,1-1.55-.73,2.5,2.5,0,0,1-.58-1.53Q52.42,30.23,53.86,27Zm2.39-6.34a.73.73,0,0,1,.68-.81,1.77,1.77,0,0,1,1.16.22.85.85,0,0,1,.49.57,2.19,2.19,0,0,1-.08.63q-.85.79-1.34.64A1.17,1.17,0,0,1,56.24,20.67Z" transform="translate(-21.45 -10.66)"/><path class="cls-1" d="M24.39,19.43a2.59,2.59,0,0,1,.94-1.14q.7-.4,1.06,1.09a2.42,2.42,0,0,1-.2,2A16.55,16.55,0,0,1,24.28,24a5.87,5.87,0,0,0-.8,2.78c-.16,1-.25,3.71.41,4.39s2.35-1.25,3.4-2.32a10.2,10.2,0,0,0,2-4.06,10.85,10.85,0,0,0,.66-4.53,4.21,4.21,0,0,0-1-2.59,1.9,1.9,0,0,0-1.3-.58,25.49,25.49,0,0,0-4.38.14c-.75.1-1.35-.82-1.34-2.14,0-.6,3-.3,5.56.18a6.24,6.24,0,0,1,3.15,1.32,3.4,3.4,0,0,1,.79,1.9c0,1.24-.05,2.61-.09,3.3A14.94,14.94,0,0,1,30,27.24a16.12,16.12,0,0,1-2.83,4.32,6,6,0,0,1-3.08,2,1.8,1.8,0,0,1-2.19-1.32q-1.12-2.82.56-8.11A32.38,32.38,0,0,1,24.39,19.43Z" transform="translate(-21.45 -10.66)"/></svg>