<svg id="Layer_1" data-name="Layer 1" xmlns="http://www.w3.org/2000/svg" viewBox="0 0 140.27 140.27"><defs><style>.cls-1{fill:#eee;}.cls-2{fill:#555658;}.cls-3{fill:none;}.cls-4{fill:#d86943;}</style></defs><title>robotic_flip</title><circle class="cls-1" cx="70.13" cy="70.13" r="69"/><path class="cls-2" d="M85,155.17A70.13,70.13,0,1,1,155.17,85,70.21,70.21,0,0,1,85,155.17Zm0-138A67.87,67.87,0,1,0,152.91,85,67.94,67.94,0,0,0,85,17.17Z" transform="translate(-14.91 -14.91)"/><path class="cls-3" d="M75,83.52a3.93,3.93,0,0,0-1.23-.84,3.89,3.89,0,0,0-3,0,3.88,3.88,0,0,0-2.05,2.07,3.87,3.87,0,0,0,0,3,3.88,3.88,0,0,0,2.05,2.07,3.9,3.9,0,0,0,3,0A3.94,3.94,0,0,0,75,89a4,4,0,0,0,.83-1.23,3.85,3.85,0,0,0,0-3A4,4,0,0,0,75,83.52Z" transform="translate(-14.91 -14.91)"/><path class="cls-3" d="M103.35,83.52a3.93,3.93,0,0,0-1.23-.84,3.89,3.89,0,0,0-3,0A3.88,3.88,0,0,0,97,84.75a3.87,3.87,0,0,0,0,3,3.88,3.88,0,0,0,2.05,2.07,3.9,3.9,0,0,0,3,0,3.94,3.94,0,0,0,1.23-.84,4,4,0,0,0,.83-1.23,3.85,3.85,0,0,0,0-3A4,4,0,0,0,103.35,83.52Z" transform="translate(-14.91 -14.91)"/><path class="cls-3" d="M85.88,110.8a3,3,0,0,0-.93-.63,2.92,2.92,0,0,0-2.28,0,2.92,2.92,0,0,0-1.54,1.55,2.92,2.92,0,0,0,0,2.26,2.92,2.92,0,0,0,1.54,1.55,2.92,2.92,0,0,0,2.28,0A3,3,0,0,0,86.5,114a2.89,2.89,0,0,0,0-2.25A3,3,0,0,0,85.88,110.8Z" transform="translate(-14.91 -14.91)"/><path class="cls-3" d="M89.17,83.52a3.93,3.93,0,0,0-1.23-.84,3.89,3.89,0,0,0-3,0,3.88,3.88,0,0,0-2.05,2.07,3.87,3.87,0,0,0,0,3,3.88,3.88,0,0,0,2.05,2.07,3.9,3.9,0,0,0,3,0A3.94,3.94,0,0,0,89.17,89,4,4,0,0,0,90,87.76a3.85,3.85,0,0,0,0-3A4,4,0,0,0,89.17,83.52Z" transform="translate(-14.91 -14.91)"/><path class="cls-3" d="M95.26,62.36a2.93,2.93,0,0,0,.92.63,2.92,2.92,0,0,0,2.28,0,3,3,0,0,0,.93-.63,3,3,0,0,0,.62-.93,2.9,2.9,0,0,0,0-2.25,3,3,0,0,0-.62-.93,3,3,0,0,0-.93-.63,2.92,2.92,0,0,0-2.28,0,2.92,2.92,0,0,0-1.54,1.55,2.92,2.92,0,0,0,0,2.26A3,3,0,0,0,95.26,62.36Z" transform="translate(-14.91 -14.91)"/><path class="cls-3" d="M66.94,110.5a3,3,0,0,0-.81-.42,2.86,2.86,0,0,0-.92-.15,2.89,2.89,0,0,0-.92.15,3,3,0,0,0-.82.42,2.9,2.9,0,0,0-.65.65,2.68,2.68,0,0,0-.41.83H68a2.78,2.78,0,0,0-.42-.83A3,3,0,0,0,66.94,110.5Z" transform="translate(-14.91 -14.91)"/><path class="cls-3" d="M116.44,110.8a3,3,0,0,0-.93-.63,2.92,2.92,0,0,0-2.28,0,2.92,2.92,0,0,0-1.54,1.55,2.92,2.92,0,0,0,0,2.26,2.92,2.92,0,0,0,1.54,1.55,2.92,2.92,0,0,0,2.28,0,3,3,0,0,0,1.55-1.56,2.89,2.89,0,0,0,0-2.25A3,3,0,0,0,116.44,110.8Z" transform="translate(-14.91 -14.91)"/><path class="cls-2" d="M59,65a.86.86,0,0,0,.87-.87V60a2.52,2.52,0,0,1,.2-1,2.64,2.64,0,0,1,1.39-1.39,2.5,2.5,0,0,1,1-.2,2.48,2.48,0,0,1,1,.21A2.65,2.65,0,0,1,64.85,59a2.47,2.47,0,0,1,.21,1v4.08a.84.84,0,0,0,.25.62.86.86,0,0,0,1.22,0,.87.87,0,0,0,.26-.62V60a4.15,4.15,0,0,0-.35-1.69,4.38,4.38,0,0,0-.95-1.38A4.54,4.54,0,0,0,64.12,56a4.31,4.31,0,0,0-4.26.51v-4a.87.87,0,0,0-.26-.62.86.86,0,0,0-1.22,0,.84.84,0,0,0-.25.62V64.09a.84.84,0,0,0,.25.62A.83.83,0,0,0,59,65Z" transform="translate(-14.91 -14.91)"/><path class="cls-2" d="M69.37,63.68a4.44,4.44,0,0,0,1.38.93,4.14,4.14,0,0,0,1.68.34,4.55,4.55,0,0,0,1.39-.2A3.86,3.86,0,0,0,75,64.1a.87.87,0,0,0,.25.61.82.82,0,0,0,.61.25.84.84,0,0,0,.62-.25.83.83,0,0,0,.25-.61V56.52a.87.87,0,0,0-1.74,0v4.1a2.51,2.51,0,0,1-.2,1A2.64,2.64,0,0,1,73.43,63a2.61,2.61,0,0,1-2,0A2.6,2.6,0,0,1,70,61.64a2.54,2.54,0,0,1-.2-1v-4.1a.86.86,0,0,0-.86-.86.84.84,0,0,0-.62.25.83.83,0,0,0-.25.61v4.1a4.13,4.13,0,0,0,.34,1.68A4.45,4.45,0,0,0,69.37,63.68Z" transform="translate(-14.91 -14.91)"/><path class="cls-2" d="M79.85,64.09V59.36A1.91,1.91,0,0,1,80,58.6a2,2,0,0,1,1.05-1.05,1.91,1.91,0,0,1,.76-.15,1.87,1.87,0,0,1,.76.16,2,2,0,0,1,1,1,1.87,1.87,0,0,1,.16.76v4.73a.86.86,0,0,0,.87.87.83.83,0,0,0,.61-.25.84.84,0,0,0,.25-.62V59.36a1.91,1.91,0,0,1,.15-.76A2,2,0,0,1,86.1,58a2.08,2.08,0,0,1,.63-.42,1.87,1.87,0,0,1,.76-.16,1.92,1.92,0,0,1,.78.16,2,2,0,0,1,.63.43,2,2,0,0,1,.42.63,1.89,1.89,0,0,1,.15.76v4.73a.85.85,0,0,0,.25.62.87.87,0,0,0,1.23,0,.84.84,0,0,0,.25-.62V59.36a3.55,3.55,0,0,0-.29-1.43,3.75,3.75,0,0,0-2-2,3.55,3.55,0,0,0-1.43-.29A3.62,3.62,0,0,0,84.66,57a3.51,3.51,0,0,0-1.28-1,3.77,3.77,0,0,0-1.56-.33,3.56,3.56,0,0,0-2,.59.82.82,0,0,0-.31-.43.86.86,0,0,0-.51-.16.87.87,0,0,0-.86.86v7.57A.87.87,0,0,0,79,65a.83.83,0,0,0,.61-.25A.84.84,0,0,0,79.85,64.09Z" transform="translate(-14.91 -14.91)"/><path class="cls-2" d="M97.33,65a4.53,4.53,0,0,0,1.56-.27,4.76,4.76,0,0,0,1.35-.76v.17a.83.83,0,0,0,.25.61.84.84,0,0,0,.62.25.87.87,0,0,0,.86-.86V60.31A4.65,4.65,0,1,0,97.33,65Zm-2.69-5.78a2.92,2.92,0,0,1,1.54-1.55,2.92,2.92,0,0,1,2.28,0,3,3,0,0,1,.93.63,3,3,0,0,1,.62.93,2.9,2.9,0,0,1,0,2.25,3,3,0,0,1-.62.93,3,3,0,0,1-.93.63,2.92,2.92,0,0,1-2.28,0,2.93,2.93,0,0,1-.92-.63,3,3,0,0,1-.62-.93,2.92,2.92,0,0,1,0-2.26Z" transform="translate(-14.91 -14.91)"/><path class="cls-2" d="M104.17,65a.86.86,0,0,0,.86-.87V60a2.52,2.52,0,0,1,.2-1,2.64,2.64,0,0,1,1.39-1.39,2.5,2.5,0,0,1,1-.2,2.48,2.48,0,0,1,1,.21A2.65,2.65,0,0,1,110,59a2.47,2.47,0,0,1,.21,1v4.09a.87.87,0,1,0,1.74,0V60a4.15,4.15,0,0,0-.35-1.69,4.38,4.38,0,0,0-.95-1.38,4.54,4.54,0,0,0-1.38-.93,4.31,4.31,0,0,0-4.26.51.87.87,0,0,0-.86-.86.84.84,0,0,0-.62.26.85.85,0,0,0-.25.61v7.56a.86.86,0,0,0,.87.87Z" transform="translate(-14.91 -14.91)"/><path class="cls-4" d="M63.09,82.65a1.23,1.23,0,0,0,.49.12,1.16,1.16,0,0,0,.45-.09,1.1,1.1,0,0,0,.37-.25,1.31,1.31,0,0,0,.25-.37,1.1,1.1,0,0,0,.09-.45,1,1,0,0,0-.31-.77,2.19,2.19,0,0,0-.78-.47,4.56,4.56,0,0,0-1-.24,8.87,8.87,0,0,0-1-.07,6,6,0,0,0-2.08.35,6.33,6.33,0,0,0-1.81,1v-.22a1.16,1.16,0,0,0-2.31,0v10.1a1.11,1.11,0,0,0,.34.81,1.16,1.16,0,0,0,2-.81v-5a3.8,3.8,0,0,1,.3-1.52,3.88,3.88,0,0,1,2.07-2.06,3.8,3.8,0,0,1,1.52-.3A4.08,4.08,0,0,1,63.09,82.65Z" transform="translate(-14.91 -14.91)"/><path class="cls-4" d="M76.64,81.87a6.2,6.2,0,1,0,0,8.77,5.93,5.93,0,0,0,1.82-4.38A6.37,6.37,0,0,0,78,83.88,6.09,6.09,0,0,0,76.64,81.87Zm-.8,5.89A4,4,0,0,1,75,89a3.94,3.94,0,0,1-1.23.84,3.9,3.9,0,0,1-3,0,3.88,3.88,0,0,1-2.05-2.07,3.87,3.87,0,0,1,0-3,3.88,3.88,0,0,1,2.05-2.07,3.89,3.89,0,0,1,3,0,3.93,3.93,0,0,1,1.23.84,4,4,0,0,1,.83,1.23,3.85,3.85,0,0,1,0,3Z" transform="translate(-14.91 -14.91)"/><path class="cls-4" d="M86.42,80.06a5.89,5.89,0,0,0-3.89,1.37V75.9a1.1,1.1,0,0,0-.34-.82,1.14,1.14,0,0,0-.83-.33,1.12,1.12,0,0,0-1.15,1.15V86.26a6.2,6.2,0,1,0,12.4,0,6.2,6.2,0,0,0-.45-2.39,6.29,6.29,0,0,0-5.75-3.81ZM90,87.76A4,4,0,0,1,89.17,89a3.94,3.94,0,0,1-1.23.84,3.9,3.9,0,0,1-3,0,3.88,3.88,0,0,1-2.05-2.07,3.87,3.87,0,0,1,0-3,3.88,3.88,0,0,1,2.05-2.07,3.89,3.89,0,0,1,3,0,3.93,3.93,0,0,1,1.23.84A4,4,0,0,1,90,84.76a3.85,3.85,0,0,1,0,3Z" transform="translate(-14.91 -14.91)"/><path class="cls-4" d="M106.34,83.88a6.09,6.09,0,0,0-1.36-2,6.2,6.2,0,1,0,0,8.77,5.93,5.93,0,0,0,1.82-4.38A6.37,6.37,0,0,0,106.34,83.88Zm-2.16,3.88a4,4,0,0,1-.83,1.23,3.94,3.94,0,0,1-1.23.84,3.9,3.9,0,0,1-3,0A3.88,3.88,0,0,1,97,87.77a3.87,3.87,0,0,1,0-3,3.88,3.88,0,0,1,2.05-2.07,3.89,3.89,0,0,1,3,0,3.93,3.93,0,0,1,1.23.84,4,4,0,0,1,.83,1.23,3.85,3.85,0,0,1,0,3Z" transform="translate(-14.91 -14.91)"/><path class="cls-4" d="M113.71,92.46a1.09,1.09,0,0,0,.81-.34,1.17,1.17,0,0,0,0-1.64,1.09,1.09,0,0,0-.81-.34,2,2,0,0,1-2.21-2.2V82.37h1.38a1.09,1.09,0,0,0,.81-.34,1.13,1.13,0,0,0,.33-.82,1.12,1.12,0,0,0-.33-.81,1.09,1.09,0,0,0-.81-.34h-1.38V75.9a1.15,1.15,0,0,0-1.15-1.15,1.12,1.12,0,0,0-.83.34,1.11,1.11,0,0,0-.34.81v4.16h-.52a1.1,1.1,0,0,0-.8.34,1.11,1.11,0,0,0-.34.81,1.12,1.12,0,0,0,.34.82,1.1,1.1,0,0,0,.8.34h.52v5.57Q109.18,92.46,113.71,92.46Z" transform="translate(-14.91 -14.91)"/><path class="cls-2" d="M42.42,108.2a.83.83,0,0,0-.61.25.84.84,0,0,0-.25.62v7.56a.84.84,0,0,0,.25.62.86.86,0,0,0,1.22,0,.87.87,0,0,0,.26-.62v-7.56a.87.87,0,0,0-.26-.62A.83.83,0,0,0,42.42,108.2Z" transform="translate(-14.91 -14.91)"/><path class="cls-2" d="M42.42,105.52a1,1,0,1,0,.72.3A1,1,0,0,0,42.42,105.52Z" transform="translate(-14.91 -14.91)"/><path class="cls-2" d="M52.44,109.46a4.56,4.56,0,0,0-1.38-.93,4.31,4.31,0,0,0-4.26.51.87.87,0,0,0-.86-.85.84.84,0,0,0-.62.26.85.85,0,0,0-.25.62v7.56a.86.86,0,0,0,.87.87.83.83,0,0,0,.61-.25.84.84,0,0,0,.25-.62v-4.09a2.51,2.51,0,0,1,.2-1,2.64,2.64,0,0,1,1.39-1.39,2.5,2.5,0,0,1,1-.2,2.47,2.47,0,0,1,1,.21,2.65,2.65,0,0,1,1.39,1.39,2.47,2.47,0,0,1,.21,1v4.09a.86.86,0,0,0,.87.87.83.83,0,0,0,.61-.25.85.85,0,0,0,.25-.62v-4.09a4.15,4.15,0,0,0-.35-1.69A4.38,4.38,0,0,0,52.44,109.46Z" transform="translate(-14.91 -14.91)"/><path class="cls-2" d="M59,115.76a1.46,1.46,0,0,1-1.66-1.65v-4.18h1a.82.82,0,0,0,.61-.25.85.85,0,0,0,.25-.62.84.84,0,0,0-.25-.61.82.82,0,0,0-.61-.25h-1v-3.12a.87.87,0,0,0-.86-.86.84.84,0,0,0-.62.25.83.83,0,0,0-.25.61v3.12h-.39a.86.86,0,0,0-.86.86.84.84,0,0,0,.25.62.82.82,0,0,0,.6.25h.39v4.18q0,3.39,3.4,3.39a.82.82,0,0,0,.61-.25.85.85,0,0,0,.25-.62.84.84,0,0,0-.25-.61A.82.82,0,0,0,59,115.76Z" transform="translate(-14.91 -14.91)"/><path class="cls-2" d="M68.5,109.56a4.65,4.65,0,1,0-3.29,7.94,4.45,4.45,0,0,0,3-1.13.86.86,0,0,0,.25-.62.84.84,0,0,0-.86-.86.91.91,0,0,0-.57.22,2.77,2.77,0,0,1-.85.5,2.92,2.92,0,0,1-1,.17,2.89,2.89,0,0,1-.93-.15,3,3,0,0,1-.81-.42,2.91,2.91,0,0,1-.64-.65,2.83,2.83,0,0,1-.42-.83H69a.85.85,0,0,0,.62-.25.82.82,0,0,0,.25-.62,4.66,4.66,0,0,0-.34-1.79A4.51,4.51,0,0,0,68.5,109.56ZM62.41,112a2.68,2.68,0,0,1,.41-.83,2.9,2.9,0,0,1,.65-.65,3,3,0,0,1,.82-.42,2.89,2.89,0,0,1,.92-.15,2.86,2.86,0,0,1,.92.15,3,3,0,0,1,1.46,1.07A2.78,2.78,0,0,1,68,112Z" transform="translate(-14.91 -14.91)"/><path class="cls-2" d="M77.37,108.43a3.48,3.48,0,0,0-.77-.18,6.67,6.67,0,0,0-.78,0,4.52,4.52,0,0,0-1.56.27,4.75,4.75,0,0,0-1.35.76v-.17a.87.87,0,0,0-.86-.86.84.84,0,0,0-.62.25.83.83,0,0,0-.25.61v7.57a.87.87,0,0,0,1.74,0v-3.79a2.85,2.85,0,0,1,.23-1.14,2.91,2.91,0,0,1,1.55-1.55,2.85,2.85,0,0,1,1.14-.23,3.06,3.06,0,0,1,1.14.21.93.93,0,0,0,.37.09.87.87,0,0,0,.34-.07.81.81,0,0,0,.27-.19,1,1,0,0,0,.19-.28.83.83,0,0,0,.07-.34.77.77,0,0,0-.23-.58A1.65,1.65,0,0,0,77.37,108.43Z" transform="translate(-14.91 -14.91)"/><path class="cls-2" d="M83.82,108.2a4.65,4.65,0,1,0,0,9.3,4.54,4.54,0,0,0,1.56-.27,4.75,4.75,0,0,0,1.35-.76v.17a.87.87,0,0,0,1.74,0v-3.79a4.65,4.65,0,0,0-4.65-4.65ZM86.5,114A3,3,0,0,1,85,115.53a2.92,2.92,0,0,1-2.28,0A2.92,2.92,0,0,1,81.13,114a2.92,2.92,0,0,1,0-2.26,2.92,2.92,0,0,1,1.54-1.55,2.92,2.92,0,0,1,2.28,0,3,3,0,0,1,1.55,1.56,2.89,2.89,0,0,1,0,2.25Z" transform="translate(-14.91 -14.91)"/><path class="cls-2" d="M92.36,110.79a3,3,0,0,1,.93-.62,2.85,2.85,0,0,1,1.14-.23,2.74,2.74,0,0,1,1,.18,3.19,3.19,0,0,1,.89.54.88.88,0,0,0,.56.2.83.83,0,0,0,.62-.25.85.85,0,0,0,.25-.62.84.84,0,0,0-.3-.66,4.43,4.43,0,0,0-3-1.13,4.65,4.65,0,1,0,3,8.17.87.87,0,0,0,.27-.64.84.84,0,0,0-.86-.86.93.93,0,0,0-.55.18,3,3,0,0,1-.88.54,2.8,2.8,0,0,1-1,.18,2.85,2.85,0,0,1-1.14-.23,3,3,0,0,1-.93-.62,2.9,2.9,0,0,1-.63-.93,2.95,2.95,0,0,1,0-2.28A2.9,2.9,0,0,1,92.36,110.79Z" transform="translate(-14.91 -14.91)"/><path class="cls-2" d="M103.7,115.76a1.46,1.46,0,0,1-1.66-1.65v-4.18h1a.82.82,0,0,0,.61-.25.85.85,0,0,0,.25-.62.84.84,0,0,0-.25-.61.82.82,0,0,0-.61-.25h-1v-3.12a.87.87,0,0,0-.86-.86.84.84,0,0,0-.62.25.83.83,0,0,0-.25.61v3.12h-.39a.86.86,0,0,0-.86.86.84.84,0,0,0,.25.62.82.82,0,0,0,.6.25h.39v4.18q0,3.39,3.4,3.39a.82.82,0,0,0,.61-.25.85.85,0,0,0,.25-.62.84.84,0,0,0-.25-.61A.82.82,0,0,0,103.7,115.76Z" transform="translate(-14.91 -14.91)"/><path class="cls-2" d="M107.07,108.2a.83.83,0,0,0-.61.25.84.84,0,0,0-.25.62v7.56a.84.84,0,0,0,.25.62.86.86,0,0,0,1.22,0,.87.87,0,0,0,.26-.62v-7.56a.87.87,0,0,0-.26-.62A.83.83,0,0,0,107.07,108.2Z" transform="translate(-14.91 -14.91)"/><path class="cls-2" d="M107.07,105.52a1,1,0,1,0,.72.3A1,1,0,0,0,107.07,105.52Z" transform="translate(-14.91 -14.91)"/><path class="cls-2" d="M117.66,109.56a4.65,4.65,0,1,0,0,6.58,4.44,4.44,0,0,0,1.36-3.29,4.8,4.8,0,0,0-.34-1.79A4.57,4.57,0,0,0,117.66,109.56Zm-.6,4.41a3,3,0,0,1-1.55,1.56,2.92,2.92,0,0,1-2.28,0,2.92,2.92,0,0,1-1.54-1.55,2.92,2.92,0,0,1,0-2.26,2.92,2.92,0,0,1,1.54-1.55,2.92,2.92,0,0,1,2.28,0,3,3,0,0,1,1.55,1.56,2.89,2.89,0,0,1,0,2.25Z" transform="translate(-14.91 -14.91)"/><path class="cls-2" d="M127.72,109.46a4.56,4.56,0,0,0-1.38-.93,4.31,4.31,0,0,0-4.26.51.87.87,0,0,0-.86-.85.84.84,0,0,0-.62.26.85.85,0,0,0-.25.62v7.56a.86.86,0,0,0,.87.87.83.83,0,0,0,.61-.25.84.84,0,0,0,.25-.62v-4.09a2.51,2.51,0,0,1,.2-1,2.64,2.64,0,0,1,1.39-1.39,2.5,2.5,0,0,1,1-.2,2.47,2.47,0,0,1,1,.21,2.65,2.65,0,0,1,1.39,1.39,2.47,2.47,0,0,1,.21,1v4.09a.86.86,0,0,0,.87.87.83.83,0,0,0,.61-.25.85.85,0,0,0,.25-.62v-4.09a4.15,4.15,0,0,0-.35-1.69A4.38,4.38,0,0,0,127.72,109.46Z" transform="translate(-14.91 -14.91)"/></svg>