<svg id="Layer_1" data-name="Layer 1" xmlns="http://www.w3.org/2000/svg" viewBox="0 0 140.27 140.27"><defs><style>.cls-1{opacity:0.2;}.cls-2{fill:#eee;}.cls-3{fill:#555658;}.cls-4{fill:none;}.cls-5{fill:#1c1d1c;}.cls-6{fill:#d06c4b;}</style></defs><title>robotic_opp</title><g class="cls-1"><circle class="cls-2" cx="70.13" cy="70.13" r="69"/><path class="cls-3" d="M85,155.17A70.13,70.13,0,1,1,155.17,85,70.21,70.21,0,0,1,85,155.17Zm0-138A67.87,67.87,0,1,0,152.91,85,67.94,67.94,0,0,0,85,17.17Z" transform="translate(-14.91 -14.91)"/><path class="cls-4" d="M96.54,40.57a52.86,52.86,0,0,1,11.06,4.19A52.85,52.85,0,0,0,96.54,40.57Z" transform="translate(-14.91 -14.91)"/><path class="cls-4" d="M88.07,75a2.26,2.26,0,0,1-.06.31h0A2.27,2.27,0,0,0,88.07,75Z" transform="translate(-14.91 -14.91)"/><path class="cls-4" d="M55.33,49.61a50,50,0,0,1,22.2-9.88,50,50,0,0,0-22.2,9.88,2.1,2.1,0,0,0-1,1.34A23.57,23.57,0,0,0,54,53.66a23.57,23.57,0,0,1,.3-2.69A2.1,2.1,0,0,1,55.33,49.61Z" transform="translate(-14.91 -14.91)"/><path class="cls-4" d="M85.47,77.08,85.23,77h0l.25.16Z" transform="translate(-14.91 -14.91)"/><path class="cls-4" d="M96.54,40.57a46.32,46.32,0,0,0-19-.85A46.32,46.32,0,0,1,96.54,40.57Z" transform="translate(-14.91 -14.91)"/><path class="cls-4" d="M83,74.67Z" transform="translate(-14.91 -14.91)"/><path class="cls-4" d="M88.19,74.19v.12h0Z" transform="translate(-14.91 -14.91)"/><path class="cls-3" d="M133.29,61.26c-.14-3.69-1.7-5.59-4.67-7a47.08,47.08,0,0,0-9.81-2.92c-.5-.12-1.34.19-1.34-.76,0-1.27-1-1.79-1.8-2.38-18.14-13.08-41.54-13.8-61.53.91a17.5,17.5,0,0,0-2.47,2.77c1.62,1.41.71,3.27.74,4.88.21,11.09,5.89,18.54,16.8,20.45A90.41,90.41,0,0,0,101.87,77c7.58-1.44,12.36-6.16,14.9-13.28a27.32,27.32,0,0,0,1.56-9.87c0-1.3.2-1.64,1.6-1.25a44,44,0,0,1,7.21,2.28c4.08,1.91,4.52,2.77,4,7.22a192.51,192.51,0,0,0-.16,39.2c.36,3.83.37,3.87-3.32,5.17-1.71.6-3.73.41-5,1.81a2.82,2.82,0,0,1,.71-.18,15.05,15.05,0,0,0,6.16-1.37,12.89,12.89,0,0,0,2.65-1.68c.62-.51,1-.84,1-1.66,0-.18.09-.74.06-.92a10.56,10.56,0,0,1-.09-1.56c0-.81-.13-1.7-.09-2.51q.12-2.69.22-5.39.2-5.39.29-10.78C133.61,75.21,133.56,68.23,133.29,61.26ZM115.46,62.6a18.42,18.42,0,0,1-4.29,7.81,20.31,20.31,0,0,1-10.5,5.89,24.41,24.41,0,0,1-3.26.51A49.36,49.36,0,0,1,85.85,77,2.56,2.56,0,0,0,88,75.28h0A2.26,2.26,0,0,0,88,75h0a2.49,2.49,0,0,0,.11-.57v-.09h0v-.12a2.16,2.16,0,0,0-.19-.74,2.59,2.59,0,0,0-5,1v.24h0A2.54,2.54,0,0,0,85.23,77h0l.24.16h0c-8.73.5-16.71.5-23.69-4.45-6.13-4.36-8.21-12.42-7.81-19A23.57,23.57,0,0,1,54.28,51a2.1,2.1,0,0,1,1-1.34,50,50,0,0,1,22.2-9.88,46.32,46.32,0,0,1,19,.85,52.85,52.85,0,0,1,11.06,4.19A60.07,60.07,0,0,1,114.66,49a3.19,3.19,0,0,1,1.08,1.19,3.48,3.48,0,0,1,.26.72,6.27,6.27,0,0,1,.14.84q.16,1.38.2,2.74A27.66,27.66,0,0,1,115.46,62.6ZM132.1,89.29h-.64c.16-4.61-.26-9.22.29-13.84v-2.8h.35Z" transform="translate(-14.91 -14.91)"/><path class="cls-3" d="M93.68,130.64H93l-.59.19a16.11,16.11,0,0,1-4.51.08,2.7,2.7,0,0,1-1.89-.29c-4.9-.34-9.31-2.51-14-3.73-1.08-.28-.94-1.42-.79-2.08.25-1.06,1-.25,1.56-.1l7.06,2,.58.18,2.11.25,1.12.2h1.47v-.84c-3.9-.11-7.56-1.29-11.21-2.51a1.94,1.94,0,0,1-1.35-2.59l-.17-.72v-1.36c.41-.94.91-.27,1.38-.07l4,.83.26-.76a110.81,110.81,0,0,1-17.82-6.26c-5.46-2.52-10.82-5.14-16.92-6-3.3-.45-4.49-2.57-4.24-6,.14-1.85.34-3.7.4-5.55a302.71,302.71,0,0,0-.8-37,2.74,2.74,0,0,1,1.8-3.11c1.43-.69,3.09-.86,4.34-1.94-2.83-.19-5,1.15-7,2.92a2.17,2.17,0,0,0-.55,1.41c-.26,5.43-.58,10.86-.67,16.29-.15,9.1.57,18.17,1.18,27.24.29,4.39,1.47,6.16,5.83,6.86,3.09.49,6.19.94,9,2.35A116.17,116.17,0,0,0,70,118c1.62.5,1,1.81,1.17,2.77.13.64.7,1.65-.63,2-1.93.45.35,3-1.63,3.4,1.06-.15,1.13,1.1,2,1.36,5.18,1.61,10.29,3.5,15.74,4.09l.73.19a8.87,8.87,0,0,1,3.88,0,1.26,1.26,0,0,1,1.19-.24c.54-.24,1.23,0,1.69-.52C93.75,131.08,93.68,130.89,93.68,130.64Z" transform="translate(-14.91 -14.91)"/><path class="cls-3" d="M44.79,53.52" transform="translate(-14.91 -14.91)"/><path class="cls-3" d="M118.74,109c-3.17,1.63-6.37,3.2-9.5,4.9a49.82,49.82,0,0,1-18.91,6.27c-2.42.24-4.92-.28-7.26.75a.19.19,0,0,1,.22.16h0c4.51,0,9,.13,13.43-1.16,1-.3,1.34.19,1.27,1.16-.13,1.73-1.42,2.65-2.53,3.7l.51.12c1.21,0,1.59-1.42,2.7-1.65.92,3.22-.34,5.33-3.33,6.75,3.06.14,5-2.41,5-6.29l-.18-.71c-.12-.42-.23-.85-.38-1.25-.83-2.23,3.15-3.15,2.5-3.42,1.48-.63,2.92-1.33,4.35-2a12.17,12.17,0,0,1,3.65-1.91c3.58-1.93,7.11-3.91,10.82-5.56C120.22,108.17,119.48,108.59,118.74,109Z" transform="translate(-14.91 -14.91)"/><path class="cls-3" d="M86.67,109.43A1.52,1.52,0,0,0,88,107.74v-.09c-.15-1.1-1.64-.43-2.52-.52-1.1-.11-2.24,0-3.76,0A11.48,11.48,0,0,0,83,109C84,110,85.47,109.56,86.67,109.43Z" transform="translate(-14.91 -14.91)"/><path class="cls-5" d="M45.82,53.27c-.16-.09-.3-.23-.48,0a2.24,2.24,0,0,1,.54.06Z" transform="translate(-14.91 -14.91)"/><path class="cls-5" d="M44.84,53.52c.16-.08.38-.12.48-.25h0a2,2,0,0,0-.51.25h0Z" transform="translate(-14.91 -14.91)"/><path class="cls-3" d="M100.23,91a4.14,4.14,0,0,0,7.67-2,4.08,4.08,0,0,0-3.48-4.25,1.37,1.37,0,0,0-1.74.08C99.74,86.23,98.74,88.7,100.23,91Z" transform="translate(-14.91 -14.91)"/><path class="cls-3" d="M97.09,85.38c.68-1.27,2.18-1.74,2.87-3.3C98,82.32,97.14,83.36,97.09,85.38Z" transform="translate(-14.91 -14.91)"/><path class="cls-3" d="M103.36,80.81a2.45,2.45,0,0,0-2.93.67C101.6,81.91,102.24,81.34,103.36,80.81Z" transform="translate(-14.91 -14.91)"/><path class="cls-3" d="M97,91.49c-.07,0-.11-.1-.19-.12s-.13.05-.19.08l.13.12a.52.52,0,0,0-.07.44c.09.32.2.68.71.77,0-.08.11-.17.16-.25l.07.13.19-.07-.2-.27a2.7,2.7,0,0,0-.32-.6.7.7,0,0,0-.14-.15.09.09,0,0,0-.07-.08Z" transform="translate(-14.91 -14.91)"/><path class="cls-3" d="M96.28,86.69a.57.57,0,0,0,.08.33l.35-.15-.1-.37C96.5,86.56,96.34,86.6,96.28,86.69Z" transform="translate(-14.91 -14.91)"/><path class="cls-3" d="M103,95.86c.83-.08,1.29.72,1.89-.13C104.31,95.28,103.82,95.23,103,95.86Z" transform="translate(-14.91 -14.91)"/><path class="cls-3" d="M98.41,93.75a2.52,2.52,0,0,0,.25.71c.36,0,.71.25.78-.16a1,1,0,0,0-.4-.63C98.85,93.53,98.5,93.28,98.41,93.75Z" transform="translate(-14.91 -14.91)"/><path class="cls-3" d="M95.93,88.73a1.51,1.51,0,0,0-.06.61c.18,0,.4.06.42,0s.2-.44.14-.6a.27.27,0,0,0-.5,0Z" transform="translate(-14.91 -14.91)"/><path class="cls-3" d="M101,95.4c.07-.06.06-.23.09-.35h-.48v.36C100.7,95.4,100.86,95.46,101,95.4Z" transform="translate(-14.91 -14.91)"/><path class="cls-3" d="M102.46,95.49h-.16v.2C102.4,95.75,102.48,95.7,102.46,95.49Z" transform="translate(-14.91 -14.91)"/><path class="cls-3" d="M62.37,95.2l.2.1-.18-.11c-.22-1.33-1.31-1.95-2.23-2.69h0c-.08-.24.06-.66-.44-.56a.24.24,0,0,0-.15.15c-.1.51.32.36.56.44v.18l-.27-.08c.14.23.23.46.35.67.27,1,1.22,1.44,2.14,1.91Z" transform="translate(-14.91 -14.91)"/><path class="cls-3" d="M71.39,94.56c.68-.15.91-.57.68-1.27a1,1,0,0,0-1,1s0,.06,0,.08A.41.41,0,0,0,71.39,94.56Z" transform="translate(-14.91 -14.91)"/><path class="cls-3" d="M71.66,82.5l-1.74-.81C70.29,82.86,71,82.69,71.66,82.5Z" transform="translate(-14.91 -14.91)"/><path class="cls-3" d="M68.47,81.39a.66.66,0,0,0-.44-.76c-.3-.12-.64-.06-.55.35a1.18,1.18,0,0,0,.55.6C68.11,81.63,68.35,81.44,68.47,81.39Z" transform="translate(-14.91 -14.91)"/><path class="cls-3" d="M72.74,84.9c.15.79.17,1.32,1,1.73C73.6,86,73.79,85.32,72.74,84.9Z" transform="translate(-14.91 -14.91)"/><path class="cls-3" d="M73.43,91.39c.34.1.53-.15.51-.46s-.18-.32-.34-.58c-.18.22-.38.36-.39.51S73.31,91.35,73.43,91.39Z" transform="translate(-14.91 -14.91)"/><path class="cls-3" d="M63.33,81.84c.17-.37-.06-.47-.26-.45a.68.68,0,0,0-.49.26.27.27,0,0,0,.29.4A1.27,1.27,0,0,0,63.33,81.84Z" transform="translate(-14.91 -14.91)"/><path class="cls-3" d="M65.14,80.53H65l.11.21.14-.09S65.18,80.55,65.14,80.53Z" transform="translate(-14.91 -14.91)"/><path class="cls-3" d="M68.85,95.79s.12,0,.13-.08a1,1,0,0,0,0-.17l-.21.11Z" transform="translate(-14.91 -14.91)"/><path class="cls-3" d="M69.75,95.36c0-.05.12-.1.12-.16s-.06-.12-.09-.18Z" transform="translate(-14.91 -14.91)"/><path class="cls-3" d="M59.28,91.06l.14-.11-.12-.13-.18.18Z" transform="translate(-14.91 -14.91)"/><path class="cls-3" d="M72.47,83.38l-.13.11.17.18.06-.16Z" transform="translate(-14.91 -14.91)"/><path class="cls-3" d="M62.13,87.71a1.68,1.68,0,0,0,.11.31c.26,2.77,1.67,4.4,3.92,4.5s3.8-1.27,4.42-4.06c0,0,.13-.1.13-.13a1.79,1.79,0,0,0-.15-.3,4.28,4.28,0,0,0-3.27-3.75,1.37,1.37,0,0,0-1.74,0,4.33,4.33,0,0,0-3.28,3.32S62.12,87.68,62.13,87.71Z" transform="translate(-14.91 -14.91)"/><path class="cls-3" d="M63.12,96l1.9.26C64.32,95.19,63.72,95.55,63.12,96Z" transform="translate(-14.91 -14.91)"/><path class="cls-3" d="M66.5,96.05a.66.66,0,0,0,.65.6c.33,0,.63-.13.42-.5a1.18,1.18,0,0,0-.7-.41C66.77,95.71,66.6,96,66.5,96.05Z" transform="translate(-14.91 -14.91)"/><path class="cls-3" d="M58.78,88c-.35,0-.46.3-.35.59s.27.25.49.45c.11-.27.25-.46.22-.61S58.91,88,58.78,88Z" transform="translate(-14.91 -14.91)"/><path class="cls-3" d="M70.09,95.81l-.17-.17-.1.13s.07.1.12.1A.32.32,0,0,0,70.09,95.81Z" transform="translate(-14.91 -14.91)"/><path class="cls-3" d="M61.85,82.42l-.07.08a2.68,2.68,0,0,0-2.27,2.07.74.74,0,0,0-.13.91v.21c0,.08.06-.07.08-.11l.09.18a1,1,0,0,0,.67-1.09,7,7,0,0,0,2-2.29,1.57,1.57,0,0,0-.31.08Z" transform="translate(-14.91 -14.91)"/><path class="cls-3" d="M62.09,95.34l.09-.15-.2-.12v.17Z" transform="translate(-14.91 -14.91)"/><path class="cls-6" d="M116,50.92a3.48,3.48,0,0,0-.26-.72A3.19,3.19,0,0,0,114.66,49a60.07,60.07,0,0,0-7.06-4.24,52.86,52.86,0,0,0-11.06-4.16,46.32,46.32,0,0,0-19-.85,50,50,0,0,0-22.2,9.88,2.1,2.1,0,0,0-1,1.34A23.57,23.57,0,0,0,54,53.66c-.39,6.55,1.68,14.61,7.81,19,7,5,15,5,23.69,4.45h0L85.23,77A2.54,2.54,0,0,1,83,74.72h0v-.24a2.59,2.59,0,0,1,5-1,2.16,2.16,0,0,1,.19.74h0v.21a2.49,2.49,0,0,1-.11.57,2.27,2.27,0,0,1-.06.31A2.56,2.56,0,0,1,85.85,77a49.36,49.36,0,0,0,11.55-.13,24.41,24.41,0,0,0,3.26-.51,20.31,20.31,0,0,0,10.5-5.89,18.42,18.42,0,0,0,4.29-7.81,27.66,27.66,0,0,0,.89-8.1,18.94,18.94,0,0,0-.2-2.74A6.27,6.27,0,0,0,116,50.92Z" transform="translate(-14.91 -14.91)"/></g></svg>