<svg id="Layer_1" data-name="Layer 1" xmlns="http://www.w3.org/2000/svg" viewBox="0 0 140.27 140.27"><defs><style>.cls-1{fill:#eee;}.cls-2{fill:#555658;}.cls-3{fill:none;}.cls-4{fill:#1e1f1e;}.cls-5{fill:#d86943;}</style></defs><title>robotic</title><circle class="cls-1" cx="70.13" cy="70.13" r="69"/><path class="cls-2" d="M85,155.17A70.13,70.13,0,1,1,155.17,85,70.21,70.21,0,0,1,85,155.17Zm0-138A67.87,67.87,0,1,0,152.91,85,67.94,67.94,0,0,0,85,17.17Z" transform="translate(-14.91 -14.91)"/><path class="cls-3" d="M96.56,40.6a52.86,52.86,0,0,1,11.06,4.19A52.85,52.85,0,0,0,96.56,40.6Z" transform="translate(-14.91 -14.91)"/><path class="cls-3" d="M115.76,50.23A3.19,3.19,0,0,0,114.68,49,3.19,3.19,0,0,1,115.76,50.23Z" transform="translate(-14.91 -14.91)"/><path class="cls-3" d="M88.09,75a2.26,2.26,0,0,1-.06.31h0a2.27,2.27,0,0,0,.06-.31Z" transform="translate(-14.91 -14.91)"/><path class="cls-3" d="M55.35,49.64a50,50,0,0,1,22.2-9.88,50,50,0,0,0-22.2,9.88,2.1,2.1,0,0,0-1,1.34A23.57,23.57,0,0,0,54,53.69,23.57,23.57,0,0,1,54.3,51,2.1,2.1,0,0,1,55.35,49.64Z" transform="translate(-14.91 -14.91)"/><path class="cls-3" d="M85.49,77.11,85.25,77h0l.25.16Z" transform="translate(-14.91 -14.91)"/><path class="cls-3" d="M96.56,40.6a46.32,46.32,0,0,0-19-.85A46.32,46.32,0,0,1,96.56,40.6Z" transform="translate(-14.91 -14.91)"/><path class="cls-3" d="M83.06,74.7h0v0Z" transform="translate(-14.91 -14.91)"/><path class="cls-3" d="M131.77,75.49c-.56,4.62-.14,9.22-.29,13.84h.64V72.69h-.35Z" transform="translate(-14.91 -14.91)"/><path class="cls-3" d="M116.17,51.78a6.27,6.27,0,0,0-.14-.84,6.27,6.27,0,0,1,.14.84q.15,1.38.2,2.74Q116.32,53.16,116.17,51.78Z" transform="translate(-14.91 -14.91)"/><path class="cls-3" d="M88.21,74.22s0,.07,0,.12h0s0-.07,0-.12Z" transform="translate(-14.91 -14.91)"/><path class="cls-2" d="M133.31,61.29c-.14-3.69-1.7-5.59-4.67-7a47.08,47.08,0,0,0-9.81-2.92c-.5-.12-1.34.19-1.34-.76,0-1.27-1-1.79-1.8-2.38-18.14-13.08-41.54-13.8-61.53.91a17.5,17.5,0,0,0-2.47,2.77c1.62,1.41.71,3.27.74,4.88.21,11.09,5.89,18.54,16.8,20.45A90.41,90.41,0,0,0,101.89,77c7.58-1.44,12.36-6.16,14.9-13.28a27.32,27.32,0,0,0,1.56-9.87c0-1.3.2-1.64,1.6-1.25a44,44,0,0,1,7.21,2.28c4.08,1.91,4.52,2.77,4,7.22A192.51,192.51,0,0,0,131,101.3c.36,3.83.37,3.87-3.32,5.17-1.71.6-3.73.41-5,1.81a2.82,2.82,0,0,1,.71-.18,15.05,15.05,0,0,0,6.16-1.37,12.89,12.89,0,0,0,2.65-1.68c.62-.51,1-.84,1-1.66,0-.18.09-.74.06-.92a10.56,10.56,0,0,1-.09-1.56c0-.81-.13-1.7-.09-2.51q.12-2.69.22-5.39.2-5.39.29-10.78C133.63,75.24,133.58,68.26,133.31,61.29Zm-17.83,1.34a18.42,18.42,0,0,1-4.29,7.81,20.31,20.31,0,0,1-10.5,5.89,24.41,24.41,0,0,1-3.26.51A49.36,49.36,0,0,1,85.87,77,2.56,2.56,0,0,0,88,75.31h0a2.26,2.26,0,0,0,.06-.31h0a2.49,2.49,0,0,0,.11-.57s0-.06,0-.09h0s0-.07,0-.12a2.16,2.16,0,0,0-.19-.74,2.59,2.59,0,0,0-5,1c0,.08,0,.15,0,.24h0v0h0A2.54,2.54,0,0,0,85.25,77h0l.24.16h0c-8.73.5-16.71.5-23.69-4.45-6.13-4.36-8.21-12.42-7.81-19A23.57,23.57,0,0,1,54.3,51a2.1,2.1,0,0,1,1-1.34,50,50,0,0,1,22.2-9.88,46.32,46.32,0,0,1,19,.85,52.85,52.85,0,0,1,11.06,4.19A60.07,60.07,0,0,1,114.68,49a3.19,3.19,0,0,1,1.08,1.19,3.48,3.48,0,0,1,.26.72,6.27,6.27,0,0,1,.14.84q.16,1.38.2,2.74A27.66,27.66,0,0,1,115.48,62.63Zm16.64,26.69h-.64c.16-4.61-.26-9.22.29-13.84V72.68h.35Z" transform="translate(-14.91 -14.91)"/><path class="cls-2" d="M93.7,130.67l-.69,0-.59.19a16.11,16.11,0,0,1-4.51.08,2.7,2.7,0,0,1-1.89-.29c-4.9-.34-9.31-2.51-14-3.73-1.08-.28-.94-1.42-.79-2.08.25-1.06,1-.25,1.56-.1l7.06,2,.58.18,2.11.25,1.12.2,1.47,0v-.84c-3.9-.11-7.56-1.29-11.21-2.51a1.94,1.94,0,0,1-1.35-2.59l-.17-.72,0-1.36c.41-.94.91-.27,1.38-.07l4,.83.26-.76a110.81,110.81,0,0,1-17.82-6.26c-5.46-2.52-10.82-5.14-16.92-6-3.3-.45-4.49-2.57-4.24-6,.14-1.85.34-3.7.4-5.55a302.71,302.71,0,0,0-.8-37,2.74,2.74,0,0,1,1.8-3.11c1.43-.69,3.09-.86,4.34-1.94-2.83-.19-5,1.15-7.05,2.92a2.17,2.17,0,0,0-.55,1.41c-.26,5.43-.58,10.86-.67,16.29-.15,9.1.57,18.17,1.18,27.24.29,4.39,1.47,6.16,5.83,6.86,3.09.49,6.19.94,9,2.35A116.17,116.17,0,0,0,70,118.06c1.62.5,1,1.81,1.17,2.77.13.64.7,1.65-.63,2-1.93.45.35,3-1.63,3.4,1.06-.15,1.13,1.1,2,1.36,5.18,1.61,10.29,3.5,15.74,4.09l.73.19a8.87,8.87,0,0,1,3.88,0,1.26,1.26,0,0,1,1.19-.24c.54-.24,1.23,0,1.69-.52C93.77,131.11,93.7,130.92,93.7,130.67Z" transform="translate(-14.91 -14.91)"/><path class="cls-2" d="M44.81,53.55h0Z" transform="translate(-14.91 -14.91)"/><path class="cls-2" d="M118.76,109c-3.17,1.63-6.37,3.2-9.5,4.9a49.82,49.82,0,0,1-18.91,6.27c-2.42.24-4.92-.28-7.26.75a.19.19,0,0,1,.22.16c4.51,0,9,.13,13.43-1.16,1-.3,1.34.19,1.27,1.16-.13,1.73-1.42,2.65-2.53,3.7l.51.12c1.21,0,1.59-1.42,2.7-1.65.92,3.22-.34,5.33-3.33,6.75,3.06.14,5-2.41,5-6.29l-.18-.71c-.12-.42-.23-.85-.38-1.25-.83-2.23,3.15-3.15,2.5-3.42,1.48-.63,2.92-1.33,4.35-2a12.17,12.17,0,0,1,3.65-1.91c3.58-1.93,7.11-3.91,10.82-5.56C120.24,108.2,119.5,108.62,118.76,109Z" transform="translate(-14.91 -14.91)"/><path class="cls-2" d="M86.69,109.46A1.52,1.52,0,0,0,88,107.68c-.15-1.1-1.64-.43-2.52-.52-1.1-.11-2.24,0-3.76,0A11.48,11.48,0,0,0,83,109.07C84,110.06,85.49,109.59,86.69,109.46Z" transform="translate(-14.91 -14.91)"/><path class="cls-4" d="M45.84,53.3c-.16-.09-.3-.23-.48,0a2.24,2.24,0,0,1,.54.06A.29.29,0,0,0,45.84,53.3Z" transform="translate(-14.91 -14.91)"/><path class="cls-4" d="M44.86,53.55c.16-.08.38-.12.48-.25h0a2,2,0,0,0-.51.25h0Z" transform="translate(-14.91 -14.91)"/><path class="cls-2" d="M100.25,91A4.14,4.14,0,0,0,107.92,89a4.08,4.08,0,0,0-3.48-4.25,1.37,1.37,0,0,0-1.74.08C99.76,86.26,98.76,88.73,100.25,91Z" transform="translate(-14.91 -14.91)"/><path class="cls-2" d="M97.11,85.41c.68-1.27,2.18-1.74,2.87-3.3C98,82.35,97.16,83.39,97.11,85.41Z" transform="translate(-14.91 -14.91)"/><path class="cls-2" d="M103.38,80.84a2.45,2.45,0,0,0-2.93.67C101.62,81.94,102.26,81.37,103.38,80.84Z" transform="translate(-14.91 -14.91)"/><path class="cls-2" d="M109.62,83.8c-.11.7.1,1.14,1.07,1.56C110.2,84.69,110.66,83.88,109.62,83.8Z" transform="translate(-14.91 -14.91)"/><path class="cls-2" d="M111.17,90.36c.21-.08.33-.39.48-.58-.15-.33-.14-.74-.53-.59-.18.07-.32.42-.35.66S110.72,90.53,111.17,90.36Z" transform="translate(-14.91 -14.91)"/><path class="cls-2" d="M97,91.52c-.07,0-.11-.1-.19-.12s-.13.05-.19.08l.13.12a.52.52,0,0,0-.07.44c.09.32.2.68.71.77,0-.08.11-.17.16-.25l.07.13a1,1,0,0,0,.19-.07l-.2-.27a2.7,2.7,0,0,0-.32-.6.7.7,0,0,0-.14-.15s0-.06-.07-.08Z" transform="translate(-14.91 -14.91)"/><path class="cls-2" d="M106.46,81.61c-.32-.85-1-.66-1.51-.75-.17-.1-.33-.21-.51-.3,0,0-.08.1-.13.15l.56.24C105.11,81.89,105.68,81.89,106.46,81.61Z" transform="translate(-14.91 -14.91)"/><path class="cls-2" d="M107.82,81.84c-.14.05-.43.06-.22.35a1.38,1.38,0,0,0,.62.53c.27.08.26-.21.23-.39S108.16,81.87,107.82,81.84Z" transform="translate(-14.91 -14.91)"/><path class="cls-2" d="M108.1,95c.18,0,.37-.17.55-.26-.08-.16-.15-.38-.19-.37-.21,0-.48,0-.59.18A.27.27,0,0,0,108.1,95Z" transform="translate(-14.91 -14.91)"/><path class="cls-2" d="M111.49,87.67c-.06-.12-.09-.29-.17-.32s-.23.06-.35.1l.22.42Z" transform="translate(-14.91 -14.91)"/><path class="cls-2" d="M96.3,86.72c0,.07,0,.22.08.33l.35-.15-.1-.37C96.52,86.59,96.36,86.63,96.3,86.72Z" transform="translate(-14.91 -14.91)"/><path class="cls-2" d="M110.49,91.48l-.23.57a.79.79,0,0,0-.32.91c0,.05.11.08.17.12l.23-1h0c.11-.17.21-.33.31-.5C110.65,91.6,110.54,91.52,110.49,91.48Z" transform="translate(-14.91 -14.91)"/><path class="cls-2" d="M110.62,86s0,.11,0,.16l.19-.06C110.88,85.91,110.8,85.87,110.62,86Z" transform="translate(-14.91 -14.91)"/><path class="cls-2" d="M103,95.89c.83-.08,1.29.72,1.89-.13C104.33,95.31,103.84,95.26,103,95.89Z" transform="translate(-14.91 -14.91)"/><path class="cls-2" d="M98.43,93.78c0,.22.17.49.25.71.36,0,.71.25.78-.16,0-.19-.21-.49-.4-.63S98.52,93.31,98.43,93.78Z" transform="translate(-14.91 -14.91)"/><path class="cls-2" d="M106.53,95.09c-.21.19.05.34.22.4a.59.59,0,0,0,.73-.3c0-.15.16-.4-.19-.37A1.39,1.39,0,0,0,106.53,95.09Z" transform="translate(-14.91 -14.91)"/><path class="cls-2" d="M95.95,88.76a1.51,1.51,0,0,0-.06.61c.18,0,.4.06.42,0s.2-.44.14-.6A.27.27,0,0,0,95.95,88.76Z" transform="translate(-14.91 -14.91)"/><path class="cls-2" d="M101,95.43c.07-.06.06-.23.09-.35l-.48,0,0,.36C100.72,95.43,100.88,95.49,101,95.43Z" transform="translate(-14.91 -14.91)"/><path class="cls-2" d="M102.48,95.52s-.11,0-.16,0l0,.2C102.42,95.78,102.5,95.73,102.48,95.52Z" transform="translate(-14.91 -14.91)"/><path class="cls-2" d="M62.39,95.23l.2.1-.18-.11c-.22-1.33-1.31-1.95-2.23-2.69h0c-.08-.24.06-.66-.44-.56a.24.24,0,0,0-.15.15c-.1.51.32.36.56.44,0,.07,0,.11,0,.18a1.77,1.77,0,0,0-.27-.08c.14.23.23.46.35.67.27,1,1.22,1.44,2.14,1.91Z" transform="translate(-14.91 -14.91)"/><path class="cls-2" d="M71.41,94.59c.68-.15.91-.57.68-1.27a1,1,0,0,0-1,1.08C71.1,94.47,71.32,94.61,71.41,94.59Z" transform="translate(-14.91 -14.91)"/><path class="cls-2" d="M71.68,82.53l-1.74-.81C70.31,82.89,71,82.72,71.68,82.53Z" transform="translate(-14.91 -14.91)"/><path class="cls-2" d="M68.49,81.42a.66.66,0,0,0-.44-.76c-.3-.12-.64-.06-.55.35a1.18,1.18,0,0,0,.55.6C68.13,81.66,68.37,81.47,68.49,81.42Z" transform="translate(-14.91 -14.91)"/><path class="cls-2" d="M72.76,84.93c.15.79.17,1.32,1,1.73C73.62,86,73.81,85.35,72.76,84.93Z" transform="translate(-14.91 -14.91)"/><path class="cls-2" d="M73.45,91.42c.34.1.53-.15.51-.46s-.18-.32-.34-.58c-.18.22-.38.36-.39.51S73.33,91.38,73.45,91.42Z" transform="translate(-14.91 -14.91)"/><path class="cls-2" d="M63.35,81.87c.17-.37-.06-.47-.26-.45a.68.68,0,0,0-.49.26c-.12.22.06.42.29.4A1.27,1.27,0,0,0,63.35,81.87Z" transform="translate(-14.91 -14.91)"/><path class="cls-2" d="M65.16,80.56s-.11,0-.17,0l.11.21.14-.09S65.2,80.58,65.16,80.56Z" transform="translate(-14.91 -14.91)"/><path class="cls-2" d="M68.87,95.82s.12,0,.13-.08,0-.11,0-.17l-.21.11Z" transform="translate(-14.91 -14.91)"/><path class="cls-2" d="M69.77,95.39c0-.05.12-.1.12-.16s-.06-.12-.09-.18Z" transform="translate(-14.91 -14.91)"/><path class="cls-2" d="M59.3,91.09l.14-.11-.12-.13-.18.18Z" transform="translate(-14.91 -14.91)"/><path class="cls-2" d="M72.49,83.41l-.13.11.17.18.06-.16Z" transform="translate(-14.91 -14.91)"/><path class="cls-2" d="M62.15,87.74a1.68,1.68,0,0,0,.11.31c.26,2.77,1.67,4.4,3.92,4.5s3.8-1.27,4.42-4.06c0,0,.13-.1.13-.13a1.79,1.79,0,0,0-.15-.3,4.28,4.28,0,0,0-3.27-3.75,1.37,1.37,0,0,0-1.74,0,4.33,4.33,0,0,0-3.28,3.32S62.14,87.71,62.15,87.74Z" transform="translate(-14.91 -14.91)"/><path class="cls-2" d="M63.14,96l1.9.26C64.34,95.22,63.74,95.58,63.14,96Z" transform="translate(-14.91 -14.91)"/><path class="cls-2" d="M66.52,96.08a.66.66,0,0,0,.65.6c.33,0,.63-.13.42-.5a1.18,1.18,0,0,0-.7-.41C66.79,95.74,66.62,96,66.52,96.08Z" transform="translate(-14.91 -14.91)"/><path class="cls-2" d="M58.8,88c-.35,0-.46.3-.35.59s.27.25.49.45c.11-.27.25-.46.22-.61S58.93,88,58.8,88Z" transform="translate(-14.91 -14.91)"/><path class="cls-2" d="M70.11,95.84l-.17-.17-.1.13s.07.1.12.1S70.06,95.87,70.11,95.84Z" transform="translate(-14.91 -14.91)"/><path class="cls-2" d="M61.87,82.45l-.07.08a2.68,2.68,0,0,0-2.27,2.07.74.74,0,0,0-.13.91c0,.08,0,.13,0,.21s.06-.07.08-.11a1.53,1.53,0,0,0,.09.18,1,1,0,0,0,.67-1.09,7,7,0,0,0,2-2.29c-.12,0-.2.06-.31.08Z" transform="translate(-14.91 -14.91)"/><path class="cls-2" d="M62.11,95.37l.09-.15L62,95.1v.17Z" transform="translate(-14.91 -14.91)"/><path class="cls-5" d="M116,50.95a3.48,3.48,0,0,0-.26-.72A3.19,3.19,0,0,0,114.68,49a60.07,60.07,0,0,0-7.06-4.24A52.86,52.86,0,0,0,96.56,40.6a46.32,46.32,0,0,0-19-.85,50,50,0,0,0-22.2,9.88,2.1,2.1,0,0,0-1,1.34A23.57,23.57,0,0,0,54,53.69c-.39,6.55,1.68,14.61,7.81,19,7,5,15,5,23.69,4.45h0L85.25,77a2.54,2.54,0,0,1-2.19-2.25v0h0c0-.08,0-.15,0-.24a2.59,2.59,0,0,1,5-1,2.16,2.16,0,0,1,.19.74h0s0,.07,0,.12,0,.06,0,.09a2.49,2.49,0,0,1-.11.57,2.27,2.27,0,0,1-.06.31A2.56,2.56,0,0,1,85.87,77a49.36,49.36,0,0,0,11.55-.13,24.41,24.41,0,0,0,3.26-.51,20.31,20.31,0,0,0,10.5-5.89,18.42,18.42,0,0,0,4.29-7.81,27.66,27.66,0,0,0,.89-8.1q0-1.37-.2-2.74A6.27,6.27,0,0,0,116,50.95Z" transform="translate(-14.91 -14.91)"/></svg>