<svg id="Layer_1" data-name="Layer 1" xmlns="http://www.w3.org/2000/svg" viewBox="0 0 119.42 42.89"><defs><style>.cls-1{fill:#79b863;}.cls-2{fill:#c8b5b0;}.cls-3{fill:#b8b6b7;}.cls-4{fill:#78b866;}.cls-5{fill:#c5c5af;}.cls-6{fill:#414a5c;}.cls-7{fill:#928e8e;}.cls-8{fill:#73b55f;}.cls-9{fill:#646262;}.cls-10{fill:#858281;}.cls-11{fill:#ecc163;}.cls-12{fill:#7c7978;}.cls-13{fill:#ecebeb;}.cls-14{fill:#d67456;}.cls-15{fill:#747170;}.cls-16{fill:#4c99c7;}.cls-17{fill:#fdfdfd;}.cls-18{fill:#68b8a4;}</style></defs><title>shema_2</title><path class="cls-1" d="M111.18,36.13c-.47,0-.67-.18-.67-.66,0-1.2,0-2.41,0-3.61,0-.5.18-.7.68-.7q3.05,0,6.1,0c.45,0,.64.18.63.63,0,1.22,0,2.44,0,3.66,0,.52-.22.68-.7.67-1,0-2,0-3,0S112.21,36.12,111.18,36.13ZM114.05,33l-.88.49c-.21.11-.27.22,0,.36l1.75,1c.23.13.28,0,.28-.19s0-.67,0-1C115.18,32.34,115.18,32.34,114.05,33Z" transform="translate(-27.7 -26.72)"/><path class="cls-2" d="M114.53,47a3.78,3.78,0,0,1,3.37,3.9,4,4,0,1,1-3.37-3.9ZM114,49.64c.43-.13.77-.34.64-.86a.63.63,0,0,0-.83-.45.6.6,0,0,0-.5.6c0,.44.3.6.66.71l-.92.06-.79-.71c-.18-.16-.38-.34-.59-.11s0,.38.16.53l.21.24c-.56.36-.57.52-.1.93.09.64.17,1.29.26,1.93,0,.32.21.45.54.44q1.27,0,2.53,0c.32,0,.49-.12.53-.44.08-.65.17-1.29.26-1.93.47-.39.45-.58-.1-.93.12-.26.67-.42.35-.75s-.56.14-.8.32-.37.32-.56.49Z" transform="translate(-27.7 -26.72)"/><path class="cls-3" d="M91.55,29.67c.12.11.11.2,0,.31l-.71.63c-.18.16-.34.19-.31-.12S90.35,30,90,30H49.25a.91.91,0,0,0-.74.32c-1.06,1.18-2.16,2.33-3.3,3.43-.52.5-.92,1.13-1.46,1.61-1.46,1.28-2.68,2.79-4.05,4.16s-2.77,2.82-4.11,4.27a4.86,4.86,0,0,1-.79.85.58.58,0,0,0-.3.73.69.69,0,0,1-.68.91.72.72,0,0,1-.87-.7c0-.52.22-.82.8-.79a1,1,0,0,0,.79-.33c1-1,2-2,2.92-3,1.81-1.89,3.6-3.79,5.41-5.68,1.53-1.59,3.08-3.17,4.63-4.76.1-.1.17-.22.27-.33A2.74,2.74,0,0,1,50,29.58c13.24,0,26.48,0,39.73,0,.76,0,.76,0,.82-.82ZM33.68,45a.48.48,0,0,0-.5.5.5.5,0,0,0,.52.54.47.47,0,0,0,.51-.53C34.19,45.18,34,45,33.68,45ZM90.87,30.17a.36.36,0,0,0,0-.72c-.18,0-.08.22-.11.35S90.63,30.17,90.87,30.17Z" transform="translate(-27.7 -26.72)"/><path class="cls-4" d="M85.11,48.49c.27-.1.45-.1.59.22.33.69.87.73,1.34.1.2-.26.36-.26.62-.11s.45.22.31.59c-.26.72.12,1.17.86,1,.32-.06.44,0,.52.33s.17.5-.21.68c-.69.32-.72.91-.09,1.34.33.22.22.41.09.66s-.24.39-.57.27c-.73-.26-1.17.11-1,.85.06.31,0,.46-.33.53s-.48.17-.66-.18c-.37-.71-.91-.75-1.38-.09-.22.3-.4.18-.63.07s-.43-.19-.31-.55c.26-.77-.06-1.16-.87-1.07-.34,0-.43-.11-.51-.38s-.14-.44.19-.61c.73-.37.77-.87.11-1.37-.28-.21-.21-.39-.08-.63s.19-.43.55-.31c.8.26,1.14-.05,1.07-.93C84.6,48.61,84.87,48.58,85.11,48.49Zm-.19,3.27A1.25,1.25,0,0,0,86.15,53a1.21,1.21,0,0,0,0-2.41A1.25,1.25,0,0,0,84.92,51.76Z" transform="translate(-27.7 -26.72)"/><path class="cls-5" d="M32.55,49.1c0,.24,0,.42.34.49a3.47,3.47,0,0,1,3,3c0,.21.12.27.31.25s.57.13.6-.3a1.09,1.09,0,0,1,0,1c0-.42-.28-.35-.53-.36s-.36,0-.39.31a3.33,3.33,0,0,1-2.12,2.71,1.53,1.53,0,0,1-.7.23c-.41,0-.54.19-.51.59s.39.21.59.29c-.3.36-.61.06-.91,0,0-.75,0-.73-.72-.93a3.39,3.39,0,0,1-2.71-2.85c-.08-.45-.35-.34-.62-.36s-.29.25-.3.46c-.39-.26,0-.57-.05-.86.72.22.83.16,1-.53a3.63,3.63,0,0,1,.95-1.68c.23-.15.47-.28.53-.61s.35-.44.65-.32a1,1,0,0,0,.61,0c.78-.17.78-.16.68-1,.23,0,.48-.34.69,0C32.62,48.67,32.53,48.82,32.55,49.1Zm-2.13,3.09c-.07.2-.34.5,0,.62s.67.22.83-.25a2,2,0,0,1,.25-.4c.35-.22.92-.22.8-.88,0-.25-.13-.34-.38-.28a1.67,1.67,0,0,0-1,.56A1.34,1.34,0,0,0,30.42,52.19Zm-1.29.11c0,.18-.24.5.15.54s.6.19.71-.29a2.33,2.33,0,0,1,.66-1.22,2.79,2.79,0,0,1,1.19-.53.58.58,0,0,0,.42-.84c-.11-.24-.83-.19-1,.12s-.38.48-.76.36c-.21-.06-.35.12-.46.29A2.83,2.83,0,0,0,29.13,52.3Zm2.75,3A2.35,2.35,0,0,1,30,53.48c-.09-.49-.45-.31-.7-.3s-.2.32-.17.48a3.21,3.21,0,0,0,2.67,2.48c.42.06.45,0,.45-.44C32.27,55.44,32.15,55.35,31.87,55.26Zm2.76-1.75A2.18,2.18,0,0,1,33,55.19c-.44.13-.46.38-.44.74,0,.2.1.21.27.2a3.52,3.52,0,0,0,2.53-1.89c.08-.26.1-.55.16-.83s-.23-.21-.27-.23C34.89,53.12,34.71,53.18,34.64,53.51Zm-1.53-3.58c-.18,0-.49-.23-.54.15s-.15.58.33.69a2.19,2.19,0,0,1,1.74,1.73c.11.46.49.45.76.42s.22-.33.18-.62a2.86,2.86,0,0,0-.52-1c-.16-.27-.34-.62-.75-.21a.26.26,0,0,1-.43-.12c-.1-.3.18-.34.4-.43A2.37,2.37,0,0,0,33.11,49.92Zm-2.74,3.73c.36.44.56,1,1.2,1.25.23.07.51.24.62,0s.21-.63-.26-.77a1,1,0,0,1-.68-.62.39.39,0,0,0-.5-.3C30.27,53.09,30.11,53.34,30.37,53.65Zm3.92-1.3a2,2,0,0,0-1.22-1.23c-.16-.06-.41-.22-.48,0s-.17.57.11.72a1.52,1.52,0,0,1,.78.81c.08.21.3.14.58.16S34.41,52.68,34.29,52.35ZM33,54.9a2,2,0,0,0,1.25-1.2c.06-.16.22-.43,0-.5s-.62-.21-.79.14a1.36,1.36,0,0,1-.72.73c-.24.1-.18.31-.19.57S32.67,55,33,54.9Zm-.78-2.42c0-.13,0-.33-.2-.28a.58.58,0,0,0-.5.47c0,.26.22.13.3.16C32.17,52.9,32.26,52.74,32.24,52.49Zm-.71.86a.59.59,0,0,0,.52.46c.28,0,.2-.22.21-.38,0-.34-.25-.26-.44-.28S31.48,53.11,31.53,53.34Zm1.32-.48c.12,0,.3,0,.28-.15a.53.53,0,0,0-.44-.47c-.18,0-.14.15-.15.2C32.51,52.73,32.58,52.89,32.85,52.86Zm.27.47c.05-.19-.11-.18-.23-.19s-.37,0-.35.26,0,.29.15.34A.59.59,0,0,0,33.12,53.34Z" transform="translate(-27.7 -26.72)"/><path class="cls-6" d="M66.63,58c-.15-.3-.33-.64.13-.8.27-.09.25-.24.26-.43s-.1-.3-.31-.35A3.69,3.69,0,0,1,64.47,55c0-.06-.09-.16-.2-.09h0c.11-.22-.09-.35-.17-.51A3.68,3.68,0,1,1,71,53.63a3.6,3.6,0,0,1-2.8,2.74c-.2.05-.39.09-.37.35s-.05.35.16.4c.58.15.38.49.23.83A4.25,4.25,0,0,0,66.63,58Zm.8-8.12a2.93,2.93,0,1,0,2.9,2.91A2.93,2.93,0,0,0,67.42,49.84Z" transform="translate(-27.7 -26.72)"/><path class="cls-6" d="M136.42,59.18a4.59,4.59,0,0,1-1.87-6.34,5,5,0,0,1,4.24-2.52,5.16,5.16,0,0,1,4.91,3.07c1.3,3.32-1.46,6.64-5.18,6.43A5,5,0,0,1,136.42,59.18Zm5.26-7.43a4.53,4.53,0,0,0-7,2.35A3.53,3.53,0,0,0,135,57a3.62,3.62,0,0,0,2.2,2,4.61,4.61,0,0,0,5.32-1.36,1.37,1.37,0,0,0,.33-.59A4,4,0,0,0,141.68,51.75Z" transform="translate(-27.7 -26.72)"/><path class="cls-6" d="M83.38,58.42c0,.16.09.27.27.24s.16-.16.16-.29,0-.28,0-.42c0-.37.1-.82-.07-1.09s-.69-.09-1-.13a.74.74,0,0,1-.76-.84c0-.53,0-1.06,0-1.59,0-.33-.1-.46-.43-.42-.12,0-.25,0-.37,0-.32,0-.44-.08-.26-.4s.18-.35.27-.52a6.39,6.39,0,0,0,.68-2,4.33,4.33,0,0,1,3.75-3.61A4.42,4.42,0,0,1,90.1,49.9a4.31,4.31,0,0,1-.92,5,1.2,1.2,0,0,0-.42,1c0,.8,0,1.59,0,2.39,0,.16-.07.4.22.39s.18-.22.18-.37,0-.49,0-.74a10.32,10.32,0,0,1-.06-1.42A1.31,1.31,0,0,1,89.58,55a4.48,4.48,0,0,0,1.28-3.88,6.63,6.63,0,0,1-.25-1.24h0c-.11,0-.11-.13-.09-.22a5.32,5.32,0,0,0-2.9-2.49A5.66,5.66,0,0,0,85,47c-.1.18-.3.15-.45.21a4.5,4.5,0,0,0-3,3.34,10.39,10.39,0,0,1-1,2.7c-.48.93-.48.95.57,1,.34,0,.48.11.47.46s0,.88,0,1.32a1.07,1.07,0,0,0,1,1.08c.82.09.82.09.81.95C83.4,58.18,83.39,58.3,83.38,58.42Z" transform="translate(-27.7 -26.72)"/><path class="cls-6" d="M138.55,61.8c.17,0,.44.12.46-.24s-.22-.31-.43-.33a6.53,6.53,0,0,1-5.25-3.05,4.76,4.76,0,0,1-.69-1.65c0-.19-.07-.38.25-.26s.3-.08.37-.22-.08-.25-.17-.35l-.08-.07c-.94-.88-.94-.88-1.85.07-.13.13-.28.24-.09.43s.25.2.4,0c.37-.39.42-.09.5.22A7.08,7.08,0,0,0,138.55,61.8Z" transform="translate(-27.7 -26.72)"/><path class="cls-6" d="M145.42,54.18c-.28-.08-.47-.33-.67,0s.08.38.22.5c1.09,1,.61,1,1.8-.07.09-.08.24-.16.2-.29s-.22-.44-.45-.21c-.45.44-.46.1-.53-.25a7,7,0,0,0-6.51-5.45c-.19,0-.5-.16-.52.24s.29.3.49.32a6.46,6.46,0,0,1,5.22,3.1A5.21,5.21,0,0,1,145.42,54.18Z" transform="translate(-27.7 -26.72)"/><path class="cls-3" d="M135.64,47c-.44,1.21-.1,1-1.3.59-.11,0-.26-.06-.25-.23s.12-.17.22-.21c.33-.12.29-.32.16-.58-.26-.52-.5-1.05-.75-1.58-.89-1.9-1.84-3.77-2.67-5.7-.11-.25-.18-.58-.52-.7s-.82-.32-1.23-.48l-4.49-1.72-3.39-1.33c-.17-.06-.32-.15-.47,0-.33.43-.34.42-.55-.11-.06-.15-.12-.3-.18-.44s-.11-.26.07-.3c.37-.1.69-.4,1.12-.38-.24.73-.25.74.48,1,2.45,1,4.88,2,7.35,2.86a3.3,3.3,0,0,1,2.51,2.34.77.77,0,0,0,.08.14c.93,1.94,1.87,3.88,2.78,5.84.35.76.32.77,1.16.51C135.71,46.81,135.69,46.93,135.64,47ZM120.49,34.62c0,.14.06.35.17.34s.23-.3.32-.47,0-.17-.12-.17S120.51,34.41,120.49,34.62Zm14.66,12.85c.08-.07.13-.21,0-.27s-.4.09-.66.19C134.77,47.54,134.95,47.65,135.16,47.47Z" transform="translate(-27.7 -26.72)"/><path class="cls-3" d="M107.5,65c.24-.32,0-.44-.18-.58s-.31-.17-.46-.26L94.79,56.42c-.27-.17-.45-.31-.66.08s-.26.21-.36-.08c-.34-1-.35-1,.72-1.24.07,0,.13-.05.2-.06.24,0,.32.1.17.27-.41.47-.06.66.28.88l8,5.12,4.42,2.81c.14.09.26.22.4,0s.17-.41.4-.35.13.33.19.51.08.34.14.51,0,.27-.16.31l-.71.18C107.41,65.42,107.3,65.26,107.5,65Zm-13.11-9.4c-.49,0-.5,0-.42.61A1.43,1.43,0,0,0,94.39,55.59Zm14,9.13c0-.08,0-.22-.09-.21-.28,0-.24.33-.4.49C108.1,65,108.38,65.07,108.37,64.72Z" transform="translate(-27.7 -26.72)"/><path class="cls-3" d="M93.7,50.09c0-.11,0-.21,0-.32s0-.24.11-.26a.28.28,0,0,1,.23.1c.27.43.46.18.68,0,1-1.07,2.07-2.12,3.09-3.2,2-2.1,4-4.15,6-6.23,1.24-1.3,2.46-2.63,3.77-3.86a.37.37,0,0,0,.12-.47c-.25-.56-.25-.56.38-.56s.72,0,.72.7c0,.12,0,.25,0,.37,0,.34-.16.39-.38.16s-.44-.18-.66,0l-2.18,2.25c-2.74,2.79-5.48,5.58-8.17,8.41-.85.9-1.77,1.73-2.59,2.66-.19.22-.26.34,0,.51.1.06.24.16.19.29s-.24.08-.37.1a2,2,0,0,1-.27,0C93.7,50.76,93.7,50.76,93.7,50.09Zm14.82-14.17c0-.16,0-.38-.28-.37-.1,0-.26,0-.25.11s.21.31.36.4S108.55,36,108.53,35.92Zm-14,14.57a1.74,1.74,0,0,0-.54-.56C93.84,50.46,94,50.62,94.5,50.49Z" transform="translate(-27.7 -26.72)"/><path class="cls-7" d="M49.5,48.41c-.71.52-1.51.9-2.26,1.35a.65.65,0,0,0,0,1.21c.86.54.86.54,1.38-.35l1.18-2c.15,0,.34-.07.44.13a.32.32,0,0,0-.39.17c-.45.8-.91,1.59-1.36,2.38a.41.41,0,0,0,0,.4l-.06.17c-.33,0-.92.86-.75,1.14s.16.9.77.87l0,.21c-.2.21,0,.36.09.51.47.83.94,1.66,1.41,2.49l-.18,0a27.23,27.23,0,0,1-1.42-2.39c-.19-.32-.36-.37-.66-.18s-.58.32-.87.48l-.08-.16a4.81,4.81,0,0,1,.71-.44c.49-.2.53-.48.23-.88-.09-.11-.16-.23-.29-.42l-.88,1.54c-.1,0-.23,0-.3-.11a5.92,5.92,0,0,0,1-1.58c.06-.1,0-.2,0-.3-.24-.41-.48-.82-.71-1.24a.33.33,0,0,0-.39-.18c-.13-.22.1-.23.19-.29a.68.68,0,0,0,.33-.86.69.69,0,0,0-1.32.12.67.67,0,0,0,.47.79l.15.06,0,.21c-.71-.25-1-.75-.75-1.31s.74-.7,1.41-.36a.48.48,0,0,0,.53-.06l2.43-1.41Zm-1.65,3.51a.22.22,0,0,0-.08-.35L46.86,51a.19.19,0,0,0-.24,0,.17.17,0,0,0,0,.24l.69,1.19a.54.54,0,0,0,.12.1A2,2,0,0,0,47.85,51.92Z" transform="translate(-27.7 -26.72)"/><path class="cls-3" d="M96.11,52.35c3.68,0,7.36,0,11,0,.31,0,.53,0,.47-.42,0-.1,0-.22.09-.28s.23,0,.32.12c.81.66.81.66.1,1.4l-.14.16c-.06.08-.12.2-.24.16s-.14-.2-.12-.31c.07-.44-.15-.52-.54-.52q-5.47,0-10.93,0c-.36,0-.58,0-.53.48,0,.28-.1.29-.31.13-.75-.59-.76-.65-.09-1.33l.37-.38C95.67,51.94,95.45,52.36,96.11,52.35Zm-.72-.15c-.5.31-.51.33,0,.72Zm12.66.62c.08.05.2-.08.24-.17.11-.28-.14-.33-.34-.53C108,52.43,107.82,52.66,108.05,52.82Z" transform="translate(-27.7 -26.72)"/><path class="cls-8" d="M68.2,58a4.25,4.25,0,0,0-1.58,0c0,1,0,1.94,0,2.91,0,.41.13.51.51.5,1,0,1,0,1-1C68.19,59.54,68.2,58.75,68.2,58Z" transform="translate(-27.7 -26.72)"/><path class="cls-5" d="M32.23,57.3c0-.75,0-.73-.72-.93a3.39,3.39,0,0,1-2.71-2.85c-.08-.45-.35-.34-.62-.36s-.29.25-.3.46l0,.32a.19.19,0,0,1,.06.21l.1.35a.38.38,0,0,1,.14.29,5.56,5.56,0,0,0,1.31,1.63.21.21,0,0,0,.12-.21.27.27,0,0,1,.3-.28.24.24,0,0,1,.24.17.26.26,0,0,1-.2.36c-.14,0-.15.11-.09.23a8.14,8.14,0,0,0,1.65.62.17.17,0,0,1,.22,0Z" transform="translate(-27.7 -26.72)"/><path class="cls-5" d="M32.92,48.69c-.3,0-.39.13-.37.41s0,.42.34.49a3.47,3.47,0,0,1,3,3c0,.21.12.27.31.25s.57.13.6-.3l-.14-.75a1.07,1.07,0,0,1-.2-.53,4.72,4.72,0,0,0-3-2.49.19.19,0,0,1-.21-.07Z" transform="translate(-27.7 -26.72)"/><path class="cls-5" d="M36.79,53.51c0-.42-.28-.35-.53-.36s-.36,0-.39.31a3.33,3.33,0,0,1-2.12,2.71,1.53,1.53,0,0,1-.7.23c-.41,0-.54.19-.51.59s.39.21.59.29l.22,0a.18.18,0,0,1,.21-.05,4.79,4.79,0,0,0,2.91-2.51.34.34,0,0,1,.13-.29l.08-.35a.19.19,0,0,1,.07-.21Z" transform="translate(-27.7 -26.72)"/><path class="cls-3" d="M121.78,51.31c.19-.19.33-.13.35.11s.24.39.54.39q3.61,0,7.22,0c.35,0,.53-.07.5-.46s.12-.34.36-.17c.83.59.85.75.15,1.44l-.08.07c-.1.09-.19.26-.34.22s-.11-.25-.1-.37c0-.34-.13-.41-.44-.41h-7.33c-.3,0-.48.06-.45.4,0,.13,0,.3-.2.31a3.31,3.31,0,0,1-.83-.84Zm.07.35c-.1-.08-.28.14-.33.26-.11.29.17.35.42.57C121.92,52.13,122.07,51.85,121.84,51.67Zm8.94.63a.27.27,0,0,0,.28-.26.27.27,0,0,0-.26-.29c-.15,0-.12.14-.13.24S130.62,52.27,130.79,52.3Z" transform="translate(-27.7 -26.72)"/><path class="cls-3" d="M122.48,61.64c.19-.19.33-.13.35.11s.24.39.54.39q3.61,0,7.22,0c.35,0,.53-.07.5-.46s.12-.34.36-.17c.83.59.85.75.15,1.44l-.08.07c-.1.09-.19.26-.34.22s-.11-.25-.1-.37c0-.34-.13-.41-.44-.41h-7.33c-.3,0-.48.06-.45.4,0,.13,0,.3-.2.31a3.31,3.31,0,0,1-.83-.84Zm.07.35c-.1-.08-.28.14-.33.26-.11.29.17.35.42.57C122.63,62.46,122.78,62.18,122.55,62Zm8.94.63a.27.27,0,0,0,.28-.26.27.27,0,0,0-.26-.29c-.15,0-.12.14-.13.24S131.32,62.6,131.49,62.63Z" transform="translate(-27.7 -26.72)"/><path class="cls-9" d="M62.92,41c.56.94.56.94-.21,1.76,0-.54,0-1,0-1.43,0-.12,0-.27-.1-.33s-.26,0-.36.15l-.61.76a1.32,1.32,0,0,1-.12-.73c0-.12-.06-.2-.19-.2s-.19.07-.19.2c0,.46,0,.92,0,1.38,0,.29.21.26.36.11s.31-.39.47-.58.12-.2.25-.17.08.17.11.26-.16.55.18.56.75.17,1-.29a.58.58,0,0,1,.4-.39c.12.16,0,.34.07.51s.06.2.19.2.19-.09.19-.21c0-.46,0-.92,0-1.38,0-.12-.05-.2-.19-.2s-.19.07-.19.2,0,.32,0,.49C63.52,41.57,63.52,40.87,62.92,41Z" transform="translate(-27.7 -26.72)"/><path class="cls-10" d="M111.09,27.2c.15,0,.25.19.42.14s-.06-.46.17-.53.13.24.24.33l.09,0c.5.29,1.14-.23,1.61.26l0,0c.11-.34.22-.17.33,0s.13.12.16.06c.4-.7.37.12.59.16,0-.53.56-.59.79-.58s.06.48.09.75a.58.58,0,0,1-.06.3.23.23,0,0,1-.33.09c-.2-.1,0-.17,0-.26s.17-.36,0-.45-.22.15-.29.28,0,.39-.26.43-.15-.3-.34-.35-.09.38-.31.35-.17-.39-.39-.59c0,1-.78.46-1.22.56s-.16-.31-.22-.48-.09-.19-.21-.2-.12,0-.13.05a2.27,2.27,0,0,1-.08.57c-.18.38-.23-.34-.43-.07s-.23.24-.4.09C111.36,27.85,111.26,27.53,111.09,27.2Zm1.83.51c0,.15.07.28.25.26s.19-.14.18-.27-.07-.22-.22-.23A.21.21,0,0,0,112.92,27.71Z" transform="translate(-27.7 -26.72)"/><path class="cls-3" d="M56.38,52.23c.23-.25.43-.22.42.14s.19.43.49.42q.79,0,1.59,0c.32,0,.54,0,.53-.44s.15-.35.4-.15c.84.7.86.84.07,1.58-.09.08-.16.23-.29.2s-.1-.2-.11-.32c0-.36-.21-.51-.59-.48-.54,0-1.09,0-1.64,0-.31,0-.47.07-.44.41,0,.14,0,.41-.21.3a3.45,3.45,0,0,1-.92-.88A3.82,3.82,0,0,1,56.38,52.23Zm3.47,1.11a.31.31,0,0,0,.26-.34.3.3,0,0,0-.26-.29c-.23,0-.1.2-.15.31S59.62,53.36,59.85,53.34Zm-3.46-.63a.28.28,0,0,0-.27.28.27.27,0,0,0,.27.27c.17,0,.1-.19.12-.3S56.53,52.7,56.39,52.71Z" transform="translate(-27.7 -26.72)"/><path class="cls-3" d="M40.89,52.88c-.3,0-.47.06-.44.4,0,.13.08.32-.09.37s-.24-.12-.34-.21-.63-.44-.67-.7.42-.49.65-.75c.09-.1.13-.28.31-.22s.16.23.14.37c0,.37.15.44.47.43.53,0,1.06,0,1.59,0s.69-.05.61-.56c0-.13,0-.35.21-.2a6.92,6.92,0,0,1,.79.78c.08.08.05.19,0,.28l-.7.64c-.16.14-.29.09-.26-.11.08-.56-.28-.53-.64-.52H41.8C41.49,52.88,41.19,52.89,40.89,52.88Zm2.56.16a.31.31,0,0,0,.29-.32.32.32,0,0,0-.29-.32c-.17,0-.09.19-.12.3S43.26,53,43.46,53ZM40,52.4A.32.32,0,0,0,40,53c.18,0,.07-.2.13-.27S40.23,52.4,40,52.4Z" transform="translate(-27.7 -26.72)"/><path class="cls-3" d="M74.71,52c.07-.08.16-.15.28-.11s.12.17.1.27c0,.37.13.45.46.44.58,0,1.17,0,1.75,0,.32,0,.52-.05.46-.43,0-.1,0-.22.09-.28s.22.06.32.13c.82.68.82.68.07,1.42a1,1,0,0,1-.11.11c-.08.06-.18.17-.26.15s-.12-.2-.11-.31c.06-.42-.14-.51-.52-.49a16,16,0,0,1-1.64,0c-.39,0-.57.09-.51.5,0,.1.06.27-.12.3a2.6,2.6,0,0,1-.92-1Zm0,.45a.37.37,0,0,0-.31.36.39.39,0,0,0,.34.35c.24,0,.08-.25.13-.37S75,52.38,74.73,52.41ZM78.2,53s.19-.1.23-.18c.13-.28-.16-.31-.3-.44C78.12,52.65,78,52.89,78.2,53Z" transform="translate(-27.7 -26.72)"/><path class="cls-9" d="M57.2,41.9c-.09-.29-.16-.52-.23-.76a.23.23,0,0,0-.29-.17c-.19,0-.12.19-.09.3.13.42.26.84.39,1.27a.26.26,0,0,0,.26.22c.16,0,.19-.12.24-.23a1.94,1.94,0,0,1,.3-.69c.2.2.2.46.3.67s.1.27.29.25.21-.12.24-.25L59,41.3c0-.11.14-.25,0-.31a.25.25,0,0,0-.36.2c-.06.22-.13.43-.22.74a1.92,1.92,0,0,1-.33-.71c0-.12-.09-.24-.24-.24s-.2.11-.25.23A1.72,1.72,0,0,1,57.2,41.9Z" transform="translate(-27.7 -26.72)"/><path class="cls-9" d="M95.73,41.94c.1.55.45.61.9.53.13,0,.24,0,.24-.2s0-.26-.23-.27-.38.08-.36-.16.22-.11.35-.12.26-.06.25-.25-.11-.2-.24-.2h-.32c-.12,0-.21-.05-.2-.19s.12-.1.2-.11c.81-.13.9,0,.9.76,0,.25,0,.5,0,.74s0,.31-.15.28c-.51-.1-1.09.31-1.53-.3a.47.47,0,0,0-.76.08c-.11.17-.21.27-.42.22v-.37a3.8,3.8,0,0,0,.48-1c.09-.3.25-.44.56-.39l.05.13A6.14,6.14,0,0,1,95.73,41.94Zm-.7.13a.21.21,0,0,0,.29,0c.21-.21-.08-.36-.11-.56C95.06,41.7,94.88,41.85,95,42.07Z" transform="translate(-27.7 -26.72)"/><path class="cls-10" d="M112.18,41.67c0,.23,0,.46,0,.69s-.13.26-.17.19c-.19-.35-.33,0-.49,0s-.5.11-.64-.08-.13-.17-.27,0a.54.54,0,0,1-.74,0c.19-.18.42,0,.52-.21-.42-.14-.41-.14-.7.16a.52.52,0,0,1-.72.09.45.45,0,0,1-.13-.62.47.47,0,0,1,.63-.23c.14,0,.26.23.43.1.34-.26.62-.12.91.17,0-.21,0-.37,0-.52a.23.23,0,0,1,.1-.16c.1,0,.14,0,.18.13a.7.7,0,0,0,.93.28s.1,0,.14.06Zm-.89.16c-.16,0-.18.13-.18.26s0,.26.18.26.17-.13.18-.26S111.45,41.84,111.3,41.83Zm-2,.52c.17,0,.16-.16.16-.28s0-.26-.21-.23-.16.16-.16.29S109.13,42.37,109.3,42.35Z" transform="translate(-27.7 -26.72)"/><path class="cls-6" d="M112.09,38.43a5.29,5.29,0,0,1-.74,0c-.5-.07-.61.16-.57.6,0,.22.09.32.31.32h2c.38,0,.28-.28.29-.49s0-.44-.3-.43S112.43,38.43,112.09,38.43Z" transform="translate(-27.7 -26.72)"/><path class="cls-5" d="M27.82,52.76c.72.22.83.16,1-.53a3.63,3.63,0,0,1,.95-1.68,1.57,1.57,0,0,0-.61-.6h-.06A5.52,5.52,0,0,0,28,51.81a.2.2,0,0,1-.07.21l0,.32a.36.36,0,0,1-.06.32Z" transform="translate(-27.7 -26.72)"/><path class="cls-11" d="M29.15,49.95a1.57,1.57,0,0,1,.61.6c.23-.15.47-.28.53-.61s.35-.44.65-.32a1,1,0,0,0,.61,0c.78-.17.78-.16.68-1a.07.07,0,0,1-.06,0A4.27,4.27,0,0,0,29.15,49.95Z" transform="translate(-27.7 -26.72)"/><path class="cls-6" d="M112.13,38.07c.25,0,.5,0,.74,0s.55,0,.55-.46-.22-.47-.56-.46c-.56,0-1.13,0-1.7,0-.37,0-.38.19-.39.47s0,.49.39.46S111.81,38.07,112.13,38.07Z" transform="translate(-27.7 -26.72)"/><path class="cls-6" d="M62.91,55.13a.8.8,0,0,0,0,1,.76.76,0,0,0,1,.21c.19-.09.28,0,.35.14a.14.14,0,0,0,.25.05.13.13,0,0,0-.07-.21c-.31-.06-.22-.22-.13-.41a.81.81,0,0,0-.05-.76c0-.09-.19-.2,0-.29h0c-.15.24-.28,0-.43,0A1,1,0,0,0,62.91,55.13Z" transform="translate(-27.7 -26.72)"/><path class="cls-9" d="M91.54,42a1.82,1.82,0,0,1-.09-.76c0-.13,0-.26-.19-.25s-.16.11-.16.22c0,.44,0,.88,0,1.32,0,.09,0,.19.1.22a.25.25,0,0,0,.28-.11l.46-.58c.06-.08.12-.2.25-.16s.08.17.11.27-.15.57.17.57.16-.39.18-.6a5.63,5.63,0,0,0,0-.85c0-.11,0-.26-.14-.3s-.23.07-.3.17Z" transform="translate(-27.7 -26.72)"/><path class="cls-9" d="M89,42a2,2,0,0,1-.09-.8c0-.11,0-.21-.17-.21s-.18.08-.18.2c0,.46,0,.92,0,1.37s.26.23.4.08.43-.54.69-.86a1.59,1.59,0,0,1,.09.71c0,.12,0,.27.17.28s.2-.16.2-.3c0-.41,0-.81,0-1.22,0-.1,0-.22-.12-.26a.26.26,0,0,0-.27.12Z" transform="translate(-27.7 -26.72)"/><path class="cls-9" d="M54.48,41.89c0-.24,0-.49,0-.73a.16.16,0,0,0-.2-.18c-.11,0-.15.08-.15.18,0,.48,0,1,0,1.43,0,.31.24.18.37,0s.44-.54.7-.87a1.72,1.72,0,0,1,.1.76c0,.11,0,.22.15.24s.19-.12.19-.25c0-.42,0-.85,0-1.27,0-.1,0-.22-.12-.25a.27.27,0,0,0-.28.12l-.64.83Z" transform="translate(-27.7 -26.72)"/><path class="cls-3" d="M94.14,42.82a.65.65,0,0,1-.2.42l-1.68,2.3c-.17.23-.43.42-.5.67s.46.3.49.66c-.11.09-.25.05-.39.07-.94.1-.94.1-1.07-.81,0-.12-.12-.25,0-.33s.26,0,.36.14.3.22.44,0c.73-1.08,1.6-2.05,2.29-3.16Zm-2.41,3.85a2,2,0,0,0-.6-.47C91,46.8,91.13,46.86,91.73,46.67Z" transform="translate(-27.7 -26.72)"/><path class="cls-9" d="M87.23,42.8c.56,0,.86-.17,1-.56A.91.91,0,0,0,88,41.16,1,1,0,0,0,87,41c-.1,0-.27.07-.22.24s.19.13.31.08a.54.54,0,0,1,.68.11.77.77,0,0,1,.08.76.46.46,0,0,1-.55.32c-.24,0-.32-.16-.11-.34s.22-.08.15-.22-.22-.09-.34-.09-.23,0-.28.17C86.55,42.51,86.79,42.8,87.23,42.8Z" transform="translate(-27.7 -26.72)"/><path class="cls-10" d="M112.45,60.29c.35.2.67-.25,1,0,.06,0,.12-.14.14-.24s-.06-.32.12-.43c.22.13.1.35.14.52s0,.19.13.19.13-.09.16-.18-.07-.38.11-.54c.2.09.12.27.14.42s0,.28.16.27.12-.14.14-.25c.09-.64,0-.72-.66-.68-.26,0-.56-.15-.75.19,0,.07-.12,0-.17,0a.59.59,0,0,0-.77-.08c-.25.57.29.41.5.51C112.88,60.26,112.36,59.88,112.45,60.29Z" transform="translate(-27.7 -26.72)"/><path class="cls-9" d="M60,42.79a.9.9,0,0,1-.94-.92.91.91,0,0,1,.92-.95.88.88,0,0,1,.92.93A.86.86,0,0,1,60,42.79Zm0-.32c.4,0,.49-.3.5-.62s-.14-.61-.51-.62-.5.32-.52.67S59.65,42.49,60,42.48Z" transform="translate(-27.7 -26.72)"/><path class="cls-9" d="M52.93,42.8a.85.85,0,0,0,.86-.49,1,1,0,0,0-.09-1.05.92.92,0,0,0-1-.3c-.15,0-.37.07-.33.26s.25.1.39.06a.51.51,0,0,1,.61.18.75.75,0,0,1,0,.76.48.48,0,0,1-.46.29c-.1,0-.22,0-.26-.12s0-.18.07-.23.21-.1.14-.23-.22-.07-.34-.08a.22.22,0,0,0-.26.2C52.17,42.54,52.37,42.79,52.93,42.8Z" transform="translate(-27.7 -26.72)"/><path class="cls-6" d="M131.69,47.42c-.86,0-.86,0-.86.86,0,.12,0,.25,0,.37s0,.4.29.38.29-.22.27-.41c-.07-.53.13-.76.68-.7.18,0,.47.1.48-.24s-.3-.23-.5-.27A2.36,2.36,0,0,0,131.69,47.42Z" transform="translate(-27.7 -26.72)"/><path class="cls-12" d="M112.6,44.06c-.29.05-.64-.19-.85.21-.08.14-.13,0-.18-.06-.23-.25-.62-.26-.75-.09s.06.5.39.63c-.23.07-.52,0-.48.28a.38.38,0,0,0,.53.29c.33-.15.79-.23.78-.76,0-.11,0-.28.16-.27s.13.18.14.29-.1.42.24.42Z" transform="translate(-27.7 -26.72)"/><path class="cls-10" d="M129.52,34.88c-.41.09-.87.34-1-.4-.38.57-.38.57-.81,0-.18.09.07.47-.24.42s-.09-.31-.09-.47a1.2,1.2,0,0,1,.08-.64c.14,0,.13.15.17.18.2.13.35.54.56.38a1,1,0,0,1,1.29,0Zm-.14-.46s-.08-.06-.12-.07-.08,0-.13.06l.15.11Z" transform="translate(-27.7 -26.72)"/><path class="cls-12" d="M117.59,60.27c-.12,0-.22-.21-.38-.09-.33.23-.64.24-.83-.16a.45.45,0,0,1,.24-.66c.42-.17.58.1.74.45A.49.49,0,0,0,118,60c.25-.1.24-.33.19-.54s-.3-.3-.55-.27-.23.06-.25-.09.12-.16.22-.19a.68.68,0,0,1,.87.71A.67.67,0,0,1,117.59,60.27Zm-1-.44c0,.15.08.27.26.26a.23.23,0,0,0,.21-.25.24.24,0,0,0-.23-.28A.24.24,0,0,0,116.59,59.83Z" transform="translate(-27.7 -26.72)"/><path class="cls-13" d="M29.15,49.95a4.27,4.27,0,0,1,3-1.32c-.06-.45.37-.24.57-.41a5.24,5.24,0,0,0-3.68,1.16c-.34.25.13.38,0,.58h.06Z" transform="translate(-27.7 -26.72)"/><path class="cls-9" d="M93.71,42.07c-.25.13-.3.4-.46.58s-.21.17-.33.1,0-.2,0-.31.4-.3.13-.57a.47.47,0,0,1-.06-.67.91.91,0,0,1,1-.2c.26.05.12.36.14.55s0,.53,0,.79l0,.43-.07.06-.23,0C93.67,42.6,93.94,42.27,93.71,42.07Zm.09-.47c0-.13.09-.35-.18-.34s-.32,0-.33.25a.26.26,0,0,0,.23.28C93.77,41.84,93.83,41.74,93.81,41.6Z" transform="translate(-27.7 -26.72)"/><path class="cls-14" d="M45.48,54.79l-.19.22-.06.09v.67a1,1,0,0,1,.12.1.73.73,0,0,0,1,.14.61.61,0,0,0,.26-.78.69.69,0,0,0-.83-.48h-.21Z" transform="translate(-27.7 -26.72)"/><path class="cls-9" d="M140,63.22a4.52,4.52,0,0,0,.06.58.58.58,0,0,0,.58.46.6.6,0,0,0,.64-.37,2.91,2.91,0,0,0,.07-1.15.13.13,0,0,0-.13-.14c-.12,0-.14.09-.14.18,0,.26,0,.53,0,.79s-.11.43-.38.42-.37-.18-.38-.42,0-.42,0-.64.06-.34-.15-.33-.11.22-.13.35a2.27,2.27,0,0,0,0,.26Z" transform="translate(-27.7 -26.72)"/><path class="cls-6" d="M115.93,37.15h-1.38c-.13,0-.32,0-.31.18s.16.16.28.16h2.87c.12,0,.28,0,.28-.16s-.17-.18-.31-.18Z" transform="translate(-27.7 -26.72)"/><path class="cls-12" d="M53.8,55.85V55a.46.46,0,0,0,.26-.22h0l.32-.22.16,0,.29-.09.23.13a.93.93,0,0,1,.44,1.33.9.9,0,0,1-1.37.25.52.52,0,0,0-.29-.11Zm.26-.4a.62.62,0,0,0,.65.67.68.68,0,1,0-.1-1.34A.6.6,0,0,0,54.06,55.45Z" transform="translate(-27.7 -26.72)"/><path class="cls-15" d="M116.76,41.93c.17-.39.54-.47.74-.17s.39.13.59,0,.31-.07.27-.26-.22-.11-.35-.1-.14,0-.16-.12c.25-.17.52-.22.71.07s0,.48-.3.58c-.11,0-.25.09-.21.25s.18.14.3.13.19-.12.31.06a.52.52,0,0,1-.73,0c-.17-.14-.24-.14-.42,0s-.59.21-.75-.19Zm.44.45c.18,0,.22-.14.21-.29s0-.28-.23-.27-.21.14-.22.29S117,42.38,117.2,42.37Z" transform="translate(-27.7 -26.72)"/><path class="cls-15" d="M66.08,28.17c.33.5.82.16,1.17.1s.11-.64,0-1c-.31.3-.08.65-.26.93a1.12,1.12,0,0,1-.51-.68l-.35-.12s-.06.06-.08.06c-1-.15-1-.15-.92.81.45,0,.26-.33.31-.54.52-.32.68-.26,1.09.41l-.45.08Z" transform="translate(-27.7 -26.72)"/><path class="cls-12" d="M64.7,26.89c-.38.8-.48,0-.74-.13a5.65,5.65,0,0,0-.1,1.38c0,.09,0,.2.12.21s.16-.11.16-.21,0-.18,0-.26,0-.34.18-.38.2,0,.23.07a.63.63,0,0,1,0,.51c0,.08-.25,0-.18.19s.14.1.22.1a.23.23,0,0,0,.26-.21C64.82,27.75,65.1,27.33,64.7,26.89Z" transform="translate(-27.7 -26.72)"/><path class="cls-15" d="M116.95,26.74a3.9,3.9,0,0,0-.06,1.27c0,.28.19.2.31.05s.34-.44.57-.74l.09.85A1.64,1.64,0,0,0,118,26.9c0-.19-.19-.05-.27,0s-.28.44-.51.58C117,27.3,117.23,27,116.95,26.74Z" transform="translate(-27.7 -26.72)"/><path class="cls-3" d="M70.65,49.15a2.73,2.73,0,0,0-.08.51c0,.26.09.51.39.53s.43.05.47.35a.17.17,0,0,0,.24.14c.14-.05.22-.2.14-.29-.22-.27-.16-.58-.23-.88-.12-.51-.59-.3-.93-.36Z" transform="translate(-27.7 -26.72)"/><path class="cls-12" d="M129.41,50.42c.06.06.13.12.19.19a.59.59,0,0,0,.68.11c.22-.06.13-.31.12-.46,0-.33.22-.86-.48-.78-.27,0-.44.14-.38.44s0,.28-.14.35Z" transform="translate(-27.7 -26.72)"/><path class="cls-6" d="M145.45,62.32a.36.36,0,0,0,0,.34h1.62a5.22,5.22,0,0,0,0-1.26c0-.29-.18-.3-.39-.26l-.12.11c-.1.31.08.67-.19.94S145.77,62.28,145.45,62.32Z" transform="translate(-27.7 -26.72)"/><path class="cls-12" d="M126.64,34.28c-.25.19-.33-.08-.44-.2-.26.17,0,.61-.29.61s0-.46-.29-.61c-.13.28-.2.62,0,.82a.46.46,0,0,0,.69-.12c.14-.19.17.06.25.11a.48.48,0,0,0,.55,0,.43.43,0,0,0,.18-.46.39.39,0,0,0-.29-.34c-.15,0-.25,0-.2.18.22,0,.29.16.24.36a.17.17,0,0,1-.19.14c-.21,0-.2-.2-.19-.35A1,1,0,0,0,126.64,34.28Z" transform="translate(-27.7 -26.72)"/><path class="cls-12" d="M131.33,34.77c.26.26.66.32.82.07a1.17,1.17,0,0,0,0-1.06c-.09-.18-.35-.09-.54-.05a.3.3,0,0,0-.27.33c0,.13.11.27,0,.4Z" transform="translate(-27.7 -26.72)"/><path class="cls-10" d="M115.8,59.6c.11,0,.11.12.12.2s-.09.41.13.46.18-.19.15-.31.2-.57-.23-.63a4.31,4.31,0,0,0-.83,0,.31.31,0,0,0-.3.31c0,.22-.09.48.06.66s.19,0,.21-.13,0-.39.08-.55.16.11.18.2-.08.45.13.45.11-.31.16-.47S115.69,59.61,115.8,59.6Z" transform="translate(-27.7 -26.72)"/><path class="cls-12" d="M115.46,57a.58.58,0,0,1,.48-.5.64.64,0,0,1,.84.43.69.69,0,0,1-.38.92.66.66,0,0,1-.93-.41Zm.25.18c0,.27.1.46.38.47s.45-.16.45-.46a.41.41,0,0,0-.41-.46A.41.41,0,0,0,115.72,57.18Z" transform="translate(-27.7 -26.72)"/><path class="cls-13" d="M115.89,38.63h-1.37c-.12,0-.28,0-.28.16s.16.16.28.16h2.8c.11,0,.23,0,.25-.14s-.13-.18-.25-.18Z" transform="translate(-27.7 -26.72)"/><path class="cls-13" d="M115.93,38.42h1.32c.13,0,.32,0,.32-.17s-.17-.15-.29-.15h-2.75c-.12,0-.28,0-.29.14s.18.17.31.17Z" transform="translate(-27.7 -26.72)"/><path class="cls-9" d="M49.48,48.18l0,.23c.11,0,.2.11.31,0l-.14-.28a.69.69,0,0,1,.24-.88.63.63,0,0,1,.83,0,.65.65,0,0,1,.26.83.66.66,0,0,1-.74.46,3,3,0,0,1-.45-.12c-.1.05,0,.13,0,.2s.34-.07.44.13h.25c0-.06,0-.08.1,0l.2,0a.22.22,0,0,1,.19-.23l.12-.11.11-.2a1,1,0,0,0-.38-1.12.87.87,0,0,0-1.34.56v.53Z" transform="translate(-27.7 -26.72)"/><path class="cls-12" d="M138.75,63.92c.17-.07.19.1.27.17a.46.46,0,0,0,.75,0c-.14-.25-.36.07-.5-.16.08-.28.79-.32.41-.8a.42.42,0,0,0-.68,0c.09.23.35,0,.51.29-.29-.18-.44.71-.74,0a.46.46,0,0,0-.25.27l0,.17A.21.21,0,0,1,138.75,63.92Z" transform="translate(-27.7 -26.72)"/><path class="cls-15" d="M49.46,57.6v.52a.9.9,0,0,0,1,.78.93.93,0,0,0,.81-1c0-.11,0-.21,0-.32l0-.2-.27-.06-.21,0c.25.29.45.6.21,1a.69.69,0,0,1-.79.31c-.51-.1-.64-.55-.37-1.19l-.13,0-.14,0Z" transform="translate(-27.7 -26.72)"/><path class="cls-9" d="M55.95,41.86c0,.23,0,.46,0,.69s.09.22.24.21a.19.19,0,0,0,.19-.21c0-.46,0-.92,0-1.37,0-.16-.09-.21-.24-.21a.18.18,0,0,0-.19.2Q55.95,41.52,55.95,41.86Z" transform="translate(-27.7 -26.72)"/><path class="cls-15" d="M123.5,35c-.28,0-.5-.06-.51-.4,0-.7.11-.9.56-.9s.25.39.34.62C123.8,34.56,124.09,35,123.5,35Zm-.3-.39c0,.15.13.19.26.2s.2,0,.2-.18-.1-.2-.24-.19S123.2,34.47,123.2,34.6Z" transform="translate(-27.7 -26.72)"/><path class="cls-7" d="M51.19,48.2l-.11.2a28.26,28.26,0,0,0,2.7,1.5l.37-.12a.18.18,0,0,0,0-.09.81.81,0,0,1-.69-.18Z" transform="translate(-27.7 -26.72)"/><path class="cls-10" d="M62.54,27.76c-.06-.14.13-.44-.21-.47s-.55-.18-.71.15a1,1,0,0,0,0,.86c.06.12.2,0,.24-.06a1.83,1.83,0,0,0,0-.37c0-.14,0-.32.19-.31s.16.19.17.33,0,.11,0,.16,0,.29.14.29.15-.17.15-.29S62.54,27.88,62.54,27.76Z" transform="translate(-27.7 -26.72)"/><path class="cls-12" d="M112.19,41.68h0c.35,0,.28.33.4.51s.08.38.3.38.23-.24.3-.39.19-.49.29-.73c0-.08.09-.17,0-.22a.17.17,0,0,0-.21.11c-.11.24-.21.48-.32.73a1.43,1.43,0,0,1-.28-.54c-.06-.13-.08-.35-.3-.28s0,.23,0,.34A.53.53,0,0,1,112.19,41.68Z" transform="translate(-27.7 -26.72)"/><path class="cls-15" d="M54.17,49.69a.18.18,0,0,1,0,.09h0c.15,0,.3-.09.46-.12a.61.61,0,0,1,.67.32.7.7,0,0,1,0,.8c-.3.41-.7.3-1.1.17l0,0v.18l.19.07.1,0a.12.12,0,0,1,.14.08h.25l.08,0a.2.2,0,0,1,.22-.07c.5-.39.63-.83.38-1.27a.91.91,0,0,0-1.23-.33l-.11.1Z" transform="translate(-27.7 -26.72)"/><path class="cls-7" d="M49.46,57.6l0-.2c-.86-.6-1.8-1.07-2.71-1.6l-.16.16a.44.44,0,0,0,0,.09c.81.33,1.51.86,2.28,1.26Z" transform="translate(-27.7 -26.72)"/><path class="cls-7" d="M68.44,27.63c.12-.13.36,0,.36-.18s-.22-.21-.37-.21c-.32,0-.43.23-.42.5s-.18.52.21.59c.22,0,.51.2.65-.12S68.68,27.77,68.44,27.63Z" transform="translate(-27.7 -26.72)"/><path class="cls-3" d="M70.64,49.16c-.14-.63-.74-.7-1.19-.93-.13-.07-.28-.07-.4-.21a.22.22,0,0,0-.39,0,.25.25,0,0,0,.17.38c.39.14.78.29,1.18.4.24.06.29.49.63.32Z" transform="translate(-27.7 -26.72)"/><path class="cls-7" d="M51.2,57.38l0,.2A22.61,22.61,0,0,0,53.85,56l-.05-.19A26.69,26.69,0,0,0,51.2,57.38Z" transform="translate(-27.7 -26.72)"/><path class="cls-13" d="M61.65,52.87c-.35,0-.66.12-.64.45a.71.71,0,0,0,.61.56c.28,0,.48-.27.49-.53A.42.42,0,0,0,61.65,52.87Z" transform="translate(-27.7 -26.72)"/><path class="cls-12" d="M69.12,28.47a.92.92,0,0,0,.18-.65c0-.13,0-.26.19-.27s.21.14.22.29-.06.39.15.57a1.13,1.13,0,0,0,0-1.06.52.52,0,0,0-.71,0C68.92,27.67,69,28,69.12,28.47Z" transform="translate(-27.7 -26.72)"/><path class="cls-12" d="M73.59,27.92c-.16.35-.41.06-.61.19a.4.4,0,0,0,.68.15.56.56,0,0,0,.1-.84.44.44,0,0,0-.65-.07.32.32,0,0,0-.16.31c0,.15.15.19.26.22A2.75,2.75,0,0,0,73.59,27.92Z" transform="translate(-27.7 -26.72)"/><path class="cls-10" d="M63.19,27.25a.56.56,0,0,1,0,1.13c-.35,0-.55-.19-.54-.63S62.84,27.24,63.19,27.25Zm.23.6c0-.15,0-.3-.18-.33s-.27.11-.28.29,0,.27.2.3S63.42,28,63.43,27.85Z" transform="translate(-27.7 -26.72)"/><path class="cls-9" d="M98.48,41.87c0-.23,0-.46,0-.69s0-.21-.17-.21-.17.1-.17.21c0,.28,0,.56,0,.84s0,.49-.38.44c-.12,0-.33-.06-.32.16s.2.14.33.15C98.49,42.81,98.49,42.81,98.48,41.87Z" transform="translate(-27.7 -26.72)"/><path class="cls-10" d="M110.35,60c-.14.26-.38,0-.56.15a.51.51,0,0,0,.89-.49.49.49,0,0,0-.56-.3c-.18,0-.35.14-.35.34C109.78,60.06,110.18,59.77,110.35,60Z" transform="translate(-27.7 -26.72)"/><path class="cls-7" d="M111.87,57.94c-.46,0-.32-.44-.38-.67s.19-.38.46-.37.46.21.45.52A.48.48,0,0,1,111.87,57.94Zm.16-.38c0-.1-.07-.1-.13-.1s-.15,0-.13.1.06.06.08.08S112,57.64,112,57.56Z" transform="translate(-27.7 -26.72)"/><path class="cls-12" d="M114.87,45c.35,0,.2-.3.24-.49s0-.23.15-.24.15.12.16.22,0,.35.19.57a4,4,0,0,0,.06-1.33c0-.08-.15-.1-.15-.09,0,.49-.57.29-.69.61Z" transform="translate(-27.7 -26.72)"/><path class="cls-7" d="M131.33,34.77v-.31c-.26-.45-.65-.41-1.07-.29v.44a.52.52,0,0,1,.55.12l-.56,0v.19A1.12,1.12,0,0,0,131.33,34.77Z" transform="translate(-27.7 -26.72)"/><path class="cls-10" d="M113.43,57.37c0-.15.09-.41-.21-.43s-.48-.13-.64.12a.91.91,0,0,0,0,.77c0,.15.18.07.22,0a1.55,1.55,0,0,0,0-.31c0-.1,0-.24.13-.25s.17.15.19.26,0,.07,0,.11,0,.29.14.29.15-.16.16-.28S113.43,57.46,113.43,57.37Z" transform="translate(-27.7 -26.72)"/><path class="cls-9" d="M90.4,41.88c0,.21,0,.42,0,.64s0,.25.2.25.17-.15.17-.27c0-.42,0-.85,0-1.27,0-.13,0-.25-.19-.24s-.18.14-.18.26S90.4,41.66,90.4,41.88Z" transform="translate(-27.7 -26.72)"/><path class="cls-12" d="M70.65,27.25a.5.5,0,0,1,.52.59.49.49,0,0,1-.53.53c-.34,0-.47-.25-.49-.54S70.31,27.24,70.65,27.25Zm-.25.59c0,.16.07.28.25.27a.27.27,0,0,0,.28-.31.3.3,0,0,0-.29-.31C70.44,27.53,70.4,27.67,70.41,27.84Z" transform="translate(-27.7 -26.72)"/><path class="cls-15" d="M116.72,44.79c-.16-.12-.23,0-.31,0s-.26,0-.31-.12.08-.21.19-.26c.28-.1.52-.25.32-.57s-.45-.27-.72-.08c0,.16.12.11.2.11s.27-.07.31.1-.12.19-.23.23-.37.16-.37.39a.42.42,0,0,0,.3.39A.49.49,0,0,0,116.72,44.79Z" transform="translate(-27.7 -26.72)"/><path class="cls-12" d="M137.81,63.34a.77.77,0,0,0-1-.27,1,1,0,0,1,.46.9c.06.54.33,0,.5,0h0c-.3-.14-.14-.28,0-.42Z" transform="translate(-27.7 -26.72)"/><path class="cls-12" d="M72,27.55a.36.36,0,0,0-.48-.29.76.76,0,0,0-.18.1c.4.28-.18.47-.07.72a.52.52,0,0,0,.07.14.43.43,0,0,0,.48.13c.09,0,.18-.08.15-.18s-.3.07-.4-.14c.09-.19.48-.16.42-.49Z" transform="translate(-27.7 -26.72)"/><path class="cls-10" d="M127.64,50.1c0,.12,0,.22-.15.26l.06.06c.15,0,.13.12.11.23.26.19.23,0,.26-.18s-.08-.33.13-.33.11.21.14.34,0,.37.28.17V49.9c0-.12,0-.3-.08-.34s-.16.13-.24.18-.39.15-.51.34Z" transform="translate(-27.7 -26.72)"/><path class="cls-9" d="M145.45,62.32c.32,0,.66.12,1-.11-.21,0-.43,0-.23-.33a.29.29,0,0,0-.06-.45.25.25,0,0,0-.37,0c-.17.15-.15.28,0,.45C146.09,62.32,145.45,62.11,145.45,62.32Z" transform="translate(-27.7 -26.72)"/><path class="cls-7" d="M54.84,51.3h-.25c0,1.08.06,2.16,0,3.24l.29-.09Z" transform="translate(-27.7 -26.72)"/><path class="cls-12" d="M112.85,45c.3,0,.21-.27.23-.45s0-.27.16-.28.22.13.23.29a2.16,2.16,0,0,0,0,.32.15.15,0,0,0,.1.09s.11,0,.11-.07a2.45,2.45,0,0,0,0-.73c-.06-.21-.3-.1-.47-.12a3,3,0,0,0-.42,0A3.38,3.38,0,0,0,112.85,45Z" transform="translate(-27.7 -26.72)"/><path class="cls-10" d="M116.76,42.25v-.32c-.31-.09-.56-.67-1-.11h.26c.17,0,.27.06.27.23s0,.26-.14.29-.34.05-.42-.09a1,1,0,0,1,0-.4h-.09c-.15.22,0,.47-.08.71A1.32,1.32,0,0,0,116.76,42.25Z" transform="translate(-27.7 -26.72)"/><path class="cls-6" d="M64.61,48.16a.36.36,0,0,0,.39-.34.33.33,0,0,0-.33-.39c-.25,0-.41.09-.42.35S64.39,48.12,64.61,48.16Z" transform="translate(-27.7 -26.72)"/><path class="cls-15" d="M115.26,42.23a.67.67,0,0,0-.44-.23c0-.3.29-.07.38-.23s0-.08-.09-.1c-.28-.11-.52-.11-.58.27v.41c.2.38.47.24.73.09Z" transform="translate(-27.7 -26.72)"/><path class="cls-9" d="M46.63,56l.16-.16v-.13l0-.15v-.2l0-.15,0-.12-.08-.16a.34.34,0,0,1-.23-.21c-.1,0-.23,0-.3-.11l-.16,0-.17,0-.29.18h.21a.69.69,0,0,1,.83.48.61.61,0,0,1-.26.78.73.73,0,0,1-1-.14,1,1,0,0,0-.12-.1l0,.15a0,0,0,0,0,0,0l.11.12h0l.12.1a0,0,0,0,0,0,0l.91,0h0l.12-.1h0Z" transform="translate(-27.7 -26.72)"/><path class="cls-12" d="M75,27c-.17-.39-.47-.18-.7-.12a.44.44,0,0,0-.29.55.46.46,0,0,0,.46.42l.31,0v-.28c-.22,0-.52.05-.49-.29s.29-.22.5-.19A.19.19,0,0,1,75,27Z" transform="translate(-27.7 -26.72)"/><path class="cls-12" d="M114.64,44.16a.46.46,0,0,0-.63,0,.6.6,0,0,0-.09.69c.13.26.46.15.7.17.08-.27.06-.49-.27-.54-.09,0-.18,0-.15-.16s.13-.09.21-.06A.16.16,0,0,0,114.64,44.16Z" transform="translate(-27.7 -26.72)"/><path class="cls-7" d="M110.76,27.19c-.37,0-.37,0-.25.32,0,.1,0,.08-.06.09-.2.1-.33.23-.2.45s.35.2.56.14l.15-.06c-.06-.2-.33-.06-.45-.25C110.93,27.75,111.05,27.53,110.76,27.19Z" transform="translate(-27.7 -26.72)"/><path class="cls-10" d="M124.47,49.83c-.34.18,0,.63-.36.62s0-.43-.31-.59a.77.77,0,0,0,0,.81.43.43,0,0,0,.54,0C124.62,50.47,124.51,50.17,124.47,49.83Z" transform="translate(-27.7 -26.72)"/><path class="cls-15" d="M114.94,56.93a.6.6,0,0,0-.5.86s.07.1.1.1.15,0,.16-.09a2.4,2.4,0,0,0,0-.37c0-.11,0-.27.15-.29s.15.15.16.27,0,.32.08.48c.24-.06.15-.27.18-.42S115.24,57,114.94,56.93Z" transform="translate(-27.7 -26.72)"/><path class="cls-12" d="M130.24,34.89V34.7a.18.18,0,0,0,0-.09v-.44a.54.54,0,0,0-.1-.45c0,.45-.56.25-.63.61v.55c.35.08.16-.21.21-.33s0-.18.12-.2.15.08.19.19S129.9,35,130.24,34.89Z" transform="translate(-27.7 -26.72)"/><path class="cls-3" d="M70.43,57.77c0,.21.14.4.39.38s.35-.21.35-.45-.16-.37-.41-.36S70.43,57.51,70.43,57.77Z" transform="translate(-27.7 -26.72)"/><path class="cls-15" d="M137.81,63.34v.23c.23.17.49,0,.73.09a.46.46,0,0,1,.25-.27.44.44,0,0,0-.47-.4A.42.42,0,0,0,137.81,63.34Z" transform="translate(-27.7 -26.72)"/><path class="cls-10" d="M111.67,59.52c-.27,0-.5-.39-.81-.13,0,.27.47.1.41.46s-.3.18-.43.31c.37.26.62.18.71-.22,0-.14-.07-.33.12-.43Z" transform="translate(-27.7 -26.72)"/><path class="cls-10" d="M129.41,50.42v-.15c-.05-.41-.32-.44-.65-.38-.4.47.12.41.31.49,0,.28-.44,0-.37.36C129,50.79,129.28,50.77,129.41,50.42Z" transform="translate(-27.7 -26.72)"/><path class="cls-15" d="M131.65,48.51c.07.2.17.35.37.34a.36.36,0,0,0,.35-.33.35.35,0,0,0-.38-.34C131.79,48.19,131.7,48.35,131.65,48.51Z" transform="translate(-27.7 -26.72)"/><path class="cls-3" d="M62.8,52c.28-.28.15-.68.38-.94.07-.08,0-.19-.13-.25a.21.21,0,0,0-.24,0A1.16,1.16,0,0,0,62.8,52Z" transform="translate(-27.7 -26.72)"/><path class="cls-12" d="M125.06,49.84a.42.42,0,0,1,.42.45.39.39,0,0,1-.44.46c-.28,0-.4-.17-.43-.44S124.76,49.84,125.06,49.84Zm-.22.46c0,.14.05.24.2.24s.2-.1.2-.24a.22.22,0,0,0-.18-.25A.22.22,0,0,0,124.84,50.3Z" transform="translate(-27.7 -26.72)"/><path class="cls-15" d="M67.7,26.82a2.59,2.59,0,0,0,0,1.52A2.69,2.69,0,0,0,67.7,26.82Z" transform="translate(-27.7 -26.72)"/><path class="cls-3" d="M62.91,55.13a1,1,0,0,1,.94-.24s0-.14-.07-.13c-.48,0-.66-.33-.84-.67C62.46,54.45,62.93,54.79,62.91,55.13Z" transform="translate(-27.7 -26.72)"/><path class="cls-9" d="M133.81,50.54c.07.2.19.34.38.32a.32.32,0,1,0,0-.63A.38.38,0,0,0,133.81,50.54Z" transform="translate(-27.7 -26.72)"/><path class="cls-12" d="M122,50.54a.64.64,0,0,0-.13-1c-.25-.19-.5-.15-.77.14.28.08.55-.12.72.13a.65.65,0,0,1,0,.56Z" transform="translate(-27.7 -26.72)"/><path class="cls-10" d="M114,57.23c.09.22-.13.63.15.64s.16-.4.15-.63.15-.68-.14-.69S114.07,57,114,57.23Z" transform="translate(-27.7 -26.72)"/><path class="cls-7" d="M65.44,27.68c-.06.21.14.56-.31.54a.68.68,0,0,0,1,0h0A.55.55,0,0,0,65.44,27.68Z" transform="translate(-27.7 -26.72)"/><path class="cls-9" d="M144.48,60.64c.18-.05.34-.16.34-.35a.32.32,0,0,0-.64,0C144.14,60.46,144.33,60.55,144.48,60.64Z" transform="translate(-27.7 -26.72)"/><path class="cls-6" d="M133.11,49.88c.08.17.18.3.35.28a.3.3,0,0,0,.29-.31.3.3,0,0,0-.33-.27C133.26,49.59,133.18,49.74,133.11,49.88Z" transform="translate(-27.7 -26.72)"/><path class="cls-12" d="M114.53,42.35v-.41c-.3-.09-.12-.35-.18-.53s0-.18-.15-.19-.12.1-.12.19,0,.42,0,.63C114.08,42.58,114.08,42.58,114.53,42.35Z" transform="translate(-27.7 -26.72)"/><path class="cls-9" d="M144.87,61c.06.16.16.3.33.3a.32.32,0,0,0,.33-.33.3.3,0,0,0-.31-.3C145,60.68,144.92,60.83,144.87,61Z" transform="translate(-27.7 -26.72)"/><path class="cls-7" d="M127.55,50.42l-.06-.06c0-.1-.13-.12-.21-.14s-.21-.15-.32-.23l-.09,0-.06.32c.08.48.2.53.82.32Z" transform="translate(-27.7 -26.72)"/><path class="cls-3" d="M86.32,58.82a.81.81,0,0,0,.6-.14H84.11a.93.93,0,0,0,.67.13A2.37,2.37,0,0,1,86.32,58.82Z" transform="translate(-27.7 -26.72)"/><path class="cls-12" d="M126.77,50c-.33-.29-.22.26-.47.19l-.08-.11c-.06-.11-.13-.25-.27-.15s0,.18.06.26,0,.1.07.14.08.4.29.39.16-.28.29-.4Z" transform="translate(-27.7 -26.72)"/><path class="cls-6" d="M143.79,59.94c.17-.07.33-.16.29-.34a.29.29,0,0,0-.34-.25.29.29,0,0,0-.25.3C143.51,59.81,143.65,59.89,143.79,59.94Z" transform="translate(-27.7 -26.72)"/><path class="cls-9" d="M132.4,49.19a.37.37,0,0,0,.3.32.31.31,0,1,0,.07-.61C132.57,48.86,132.48,49,132.4,49.19Z" transform="translate(-27.7 -26.72)"/><path class="cls-9" d="M72,27.55h0c.32-.1.49,0,.5.36,0,.15,0,.32.12.47a2,2,0,0,0,.07-1.1A1.4,1.4,0,0,1,72,27.55Z" transform="translate(-27.7 -26.72)"/><path class="cls-13" d="M110.76,27.19c.3.34.18.57-.25.69.13.19.39,0,.45.25h0c.38-.27.27-.59.11-.92Z" transform="translate(-27.7 -26.72)"/><path class="cls-15" d="M45.87,54.56l.17,0a21.93,21.93,0,0,1,0-3.26c0-.13-.09-.16-.19-.18l0,.21v3.25Z" transform="translate(-27.7 -26.72)"/><path class="cls-10" d="M116.43,27.82a.24.24,0,0,1-.2.14c-.12,0-.34-.12-.33.11s.24.16.39.15a.36.36,0,0,0,.37-.31c0-.21.12-.47-.2-.56Z" transform="translate(-27.7 -26.72)"/><path class="cls-13" d="M114.32,39.25h3.17v0h-3.17Z" transform="translate(-27.7 -26.72)"/><path class="cls-5" d="M29.89,56.68c-.06-.11-.05-.18.09-.23a.26.26,0,0,0,.2-.36.24.24,0,0,0-.24-.17.27.27,0,0,0-.3.28.21.21,0,0,1-.12.21A.28.28,0,0,0,29.89,56.68Z" transform="translate(-27.7 -26.72)"/><path class="cls-9" d="M147.06,62.68h-1.62A2.26,2.26,0,0,0,147.06,62.68Z" transform="translate(-27.7 -26.72)"/><path class="cls-7" d="M113.54,57.41c.09.17-.1.49.19.47s.14-.32.14-.5.08-.44-.15-.43S113.64,57.27,113.54,57.41Z" transform="translate(-27.7 -26.72)"/><path class="cls-12" d="M111.67,59.52h0A.43.43,0,0,1,112,60c0,.14,0,.32.2.34v-.94C112,59.35,111.75,59.21,111.67,59.52Z" transform="translate(-27.7 -26.72)"/><path class="cls-16" d="M86.32,58.82a2.37,2.37,0,0,0-1.53,0A4.37,4.37,0,0,0,86.32,58.82Z" transform="translate(-27.7 -26.72)"/><path class="cls-12" d="M123,49.94c.35.16.26.53.41.85a1,1,0,0,0,.08-.84C123.47,49.79,123.24,49.84,123,49.94Z" transform="translate(-27.7 -26.72)"/><path class="cls-15" d="M137.8,64h0c.39.4.61.38.95-.07a.21.21,0,0,0-.21-.1C138.36,64.17,138,63.9,137.8,64Z" transform="translate(-27.7 -26.72)"/><path class="cls-10" d="M124.73,34.16c.4.22.43.52.48,1C125.52,34.27,125.42,34.07,124.73,34.16Z" transform="translate(-27.7 -26.72)"/><path class="cls-13" d="M114.64,44.16a.16.16,0,0,1-.22.08c-.09,0-.18,0-.21.06s.06.14.15.16c.34.06.36.27.27.54h.24l0-.74Z" transform="translate(-27.7 -26.72)"/><path class="cls-9" d="M74.76,27.55v.28c0,.16,0,.35.19.57A7.7,7.7,0,0,0,75,27a.19.19,0,0,0-.22.13Z" transform="translate(-27.7 -26.72)"/><path class="cls-13" d="M63.54,57.42c0,.13.07.33.26.32s.24-.22.25-.4-.14-.21-.29-.21S63.52,57.24,63.54,57.42Z" transform="translate(-27.7 -26.72)"/><path class="cls-12" d="M115.26,42.23v.21l.33.11c0-.23-.07-.48.08-.71,0-.07,0-.15-.05-.19s-.16,0-.18.11S115.47,42.13,115.26,42.23Z" transform="translate(-27.7 -26.72)"/><path class="cls-13" d="M112.17,59.36v.94h.28c-.09-.41.44,0,.42-.38-.21-.1-.75.07-.5-.51Z" transform="translate(-27.7 -26.72)"/><path class="cls-13" d="M128.69,50.74c-.07-.34.35-.07.37-.36-.19-.08-.71,0-.31-.49h-.27v.75Z" transform="translate(-27.7 -26.72)"/><path class="cls-10" d="M122,50.54l-.13-.14c-.21.15-.46.05-.72.09C121.45,50.85,121.58,50.86,122,50.54Z" transform="translate(-27.7 -26.72)"/><path class="cls-13" d="M112.85,45a3.38,3.38,0,0,1,0-.95h-.22l0,.93Z" transform="translate(-27.7 -26.72)"/><path class="cls-12" d="M66.13,27.35l.35.12c.13,0,.34.08.35-.1s-.2-.13-.33-.14S66.22,27.19,66.13,27.35Z" transform="translate(-27.7 -26.72)"/><path class="cls-13" d="M126.64,34.28a1,1,0,0,1,0,.15c0,.16,0,.32.19.35a.17.17,0,0,0,.19-.14c0-.2,0-.34-.24-.36h-.16Z" transform="translate(-27.7 -26.72)"/><path class="cls-7" d="M116.43,27.82l0-.47H116l0,.39Z" transform="translate(-27.7 -26.72)"/><path class="cls-3" d="M114.94,56.93c.29.06.35.29.37.54l.16,0V57C115.3,56.91,115.14,56.77,114.94,56.93Z" transform="translate(-27.7 -26.72)"/><path class="cls-15" d="M45.21,55.91l0-.15v-.68C44.89,55.35,45,55.63,45.21,55.91Z" transform="translate(-27.7 -26.72)"/><path class="cls-15" d="M46.42,56.17l-.91,0A.64.64,0,0,0,46.42,56.17Z" transform="translate(-27.7 -26.72)"/><path class="cls-5" d="M36.46,51.28a1.07,1.07,0,0,0,.2.53A.37.37,0,0,0,36.46,51.28Z" transform="translate(-27.7 -26.72)"/><path class="cls-13" d="M127,50c.11.07.14.26.32.23,0-.14,0-.27-.16-.34S127,49.89,127,50Z" transform="translate(-27.7 -26.72)"/><path class="cls-7" d="M45.87,54.56v-.12c-.15.09-.39.08-.38.35l.1,0Z" transform="translate(-27.7 -26.72)"/><path class="cls-10" d="M116,27.75l0-.39a.23.23,0,0,0-.18.26C115.82,27.75,115.91,27.78,116,27.75Z" transform="translate(-27.7 -26.72)"/><path class="cls-10" d="M116,27.36h.45C116.3,27.1,116.15,27.13,116,27.36Z" transform="translate(-27.7 -26.72)"/><path class="cls-3" d="M94.17,42.33l0,.43h.15v-.37Z" transform="translate(-27.7 -26.72)"/><path class="cls-5" d="M27.82,52.66a.36.36,0,0,0,.06-.32C27.68,52.41,27.67,52.52,27.82,52.66Z" transform="translate(-27.7 -26.72)"/><path class="cls-13" d="M127.64,50.1v0c0-.08-.07-.2-.2-.2s0,.06,0,.09S127.53,50.11,127.64,50.1Z" transform="translate(-27.7 -26.72)"/><path class="cls-13" d="M126.77,50l-.12.32h.15l.06-.32Z" transform="translate(-27.7 -26.72)"/><path class="cls-5" d="M31.75,57.33a.17.17,0,0,0-.22,0C31.59,57.44,31.66,57.47,31.75,57.33Z" transform="translate(-27.7 -26.72)"/><path class="cls-5" d="M33.56,57.19a.18.18,0,0,0-.21.05C33.46,57.38,33.52,57.32,33.56,57.19Z" transform="translate(-27.7 -26.72)"/><path class="cls-13" d="M33.24,48.72a.19.19,0,0,0,.21.07C33.42,48.66,33.37,48.58,33.24,48.72Z" transform="translate(-27.7 -26.72)"/><path class="cls-5" d="M36.6,54.39a.34.34,0,0,0-.13.29C36.64,54.64,36.64,54.53,36.6,54.39Z" transform="translate(-27.7 -26.72)"/><path class="cls-5" d="M28.21,54.79a.38.38,0,0,0-.14-.29C28,54.64,28,54.75,28.21,54.79Z" transform="translate(-27.7 -26.72)"/><path class="cls-5" d="M27.92,52a.2.2,0,0,0,.07-.21C27.86,51.85,27.77,51.9,27.92,52Z" transform="translate(-27.7 -26.72)"/><path class="cls-5" d="M36.75,53.83a.19.19,0,0,0-.07.21C36.82,54,36.9,54,36.75,53.83Z" transform="translate(-27.7 -26.72)"/><path class="cls-5" d="M28,54.15a.19.19,0,0,0-.06-.21C27.78,54.06,27.85,54.11,28,54.15Z" transform="translate(-27.7 -26.72)"/><path class="cls-9" d="M146.59,61.26l.12-.11C146.59,61.1,146.56,61.15,146.59,61.26Z" transform="translate(-27.7 -26.72)"/><path class="cls-7" d="M49.47,48v-.36A.26.26,0,0,0,49.47,48Z" transform="translate(-27.7 -26.72)"/><path class="cls-12" d="M44.27,62.37l.13-.15c-.05-.1-.1-.22-.22-.05a.21.21,0,0,0,0,.08Z" transform="translate(-27.7 -26.72)"/><path class="cls-7" d="M49.47,58.12v-.29A.21.21,0,0,0,49.47,58.12Z" transform="translate(-27.7 -26.72)"/><path class="cls-16" d="M90.52,49.69c0,.09,0,.18.09.22Z" transform="translate(-27.7 -26.72)"/><path class="cls-13" d="M127.55,50.42l.07.23h0C127.68,50.55,127.7,50.44,127.55,50.42Z" transform="translate(-27.7 -26.72)"/><path class="cls-7" d="M55.14,51.18a.2.2,0,0,0-.22.07Z" transform="translate(-27.7 -26.72)"/><path class="cls-7" d="M54.18,49.69l.11-.1Z" transform="translate(-27.7 -26.72)"/><path class="cls-15" d="M45.46,56.17l-.12-.1Z" transform="translate(-27.7 -26.72)"/><path class="cls-15" d="M46.54,56.08l-.12.1Z" transform="translate(-27.7 -26.72)"/><path class="cls-15" d="M44.18,62.25a.21.21,0,0,1,0-.08l0,.07Z" transform="translate(-27.7 -26.72)"/><path class="cls-15" d="M45.34,56.08,45.24,56Z" transform="translate(-27.7 -26.72)"/><path class="cls-12" d="M126.64,34.28h.17c0-.07,0-.13-.11-.11S126.66,34.24,126.64,34.28Z" transform="translate(-27.7 -26.72)"/><path class="cls-15" d="M45.23,55.1l.06-.09Z" transform="translate(-27.7 -26.72)"/><path class="cls-15" d="M46.63,56l-.1.12a.1.1,0,0,0,.09,0A.44.44,0,0,1,46.63,56Z" transform="translate(-27.7 -26.72)"/><path class="cls-13" d="M115.18,33.6c0-1.27,0-1.27-1.13-.63l-.88.49c-.21.11-.27.22,0,.36l1.75,1c.23.13.28,0,.28-.19S115.18,33.94,115.18,33.6Z" transform="translate(-27.7 -26.72)"/><path class="cls-2" d="M116,50.59c-.09.64-.18,1.29-.26,1.93,0,.32-.21.44-.53.44q-1.27,0-2.53,0c-.33,0-.49-.12-.54-.44-.08-.64-.17-1.29-.26-1.93Zm-3.25.53c-.36,0-.25.36-.24.58s-.15.67.18.67.12-.46.26-.66C112.86,51.5,113.09,51.13,112.76,51.12Zm2.42,1.26c.32,0,.15-.4.19-.62a1,1,0,0,0,0-.21c0-.19,0-.45-.25-.44s-.14.27-.17.42a1.62,1.62,0,0,0,0,.25C115,52,114.79,52.38,115.18,52.38ZM114.11,52c0,.17,0,.41.22.4s.19-.25.2-.42a2.25,2.25,0,0,0,0-.42c0-.17.11-.45-.2-.44s-.21.27-.22.46,0,.14,0,.21S114.1,51.92,114.11,52Zm-.51.38c.31,0,.15-.4.19-.63a1,1,0,0,0,0-.21c0-.19,0-.45-.25-.43s-.14.27-.17.43a1.63,1.63,0,0,0,0,.25C113.43,52,113.2,52.39,113.59,52.38Z" transform="translate(-27.7 -26.72)"/><path class="cls-2" d="M111.89,50.59H116c.47-.39.45-.58-.1-.93l-.54.49c-.18.16-.37.38-.62.13s0-.4.15-.57l-.93-.07h0l-.92.06c.12.17.38.33.14.57s-.44,0-.62-.13l-.54-.49C111.44,50,111.42,50.18,111.89,50.59Z" transform="translate(-27.7 -26.72)"/><path class="cls-2" d="M113.93,49.64h0c.43-.13.77-.34.64-.86a.63.63,0,0,0-.83-.45.6.6,0,0,0-.5.6C113.26,49.37,113.57,49.53,113.93,49.64Z" transform="translate(-27.7 -26.72)"/><path class="cls-2" d="M112,49.66l.54.49c.18.16.37.38.62.13s0-.4-.14-.57l-.79-.71c-.18-.16-.38-.34-.59-.11s0,.38.16.53Z" transform="translate(-27.7 -26.72)"/><path class="cls-2" d="M114.9,49.71c-.12.17-.39.33-.15.57s.44,0,.62-.13l.54-.49c.12-.26.67-.42.35-.75s-.56.14-.8.32S115.09,49.55,114.9,49.71Z" transform="translate(-27.7 -26.72)"/><path class="cls-17" d="M34.21,45.52c0-.33-.18-.52-.53-.5a.48.48,0,0,0-.5.5.5.5,0,0,0,.52.54A.47.47,0,0,0,34.21,45.52Z" transform="translate(-27.7 -26.72)"/><path class="cls-13" d="M90.73,29.81c.06.12-.1.36.13.37a.36.36,0,0,0,0-.72C90.67,29.45,90.77,29.68,90.73,29.81Z" transform="translate(-27.7 -26.72)"/><path class="cls-17" d="M86.11,50.56a1.21,1.21,0,1,0,0,2.41,1.21,1.21,0,0,0,0-2.41Z" transform="translate(-27.7 -26.72)"/><path class="cls-5" d="M32.23,55.69c0-.25-.08-.34-.36-.43A2.35,2.35,0,0,1,30,53.48c-.09-.49-.45-.31-.7-.3s-.2.32-.17.48a3.21,3.21,0,0,0,2.67,2.48C32.21,56.18,32.24,56.16,32.23,55.69Z" transform="translate(-27.7 -26.72)"/><path class="cls-5" d="M35.29,53.18c-.39-.06-.57,0-.65.32A2.18,2.18,0,0,1,33,55.19c-.44.13-.46.38-.44.74,0,.2.1.21.27.2a3.52,3.52,0,0,0,2.53-1.89c.08-.26.1-.55.16-.83S35.33,53.2,35.29,53.18Z" transform="translate(-27.7 -26.72)"/><path class="cls-5" d="M34.27,50.49a2.37,2.37,0,0,0-1.16-.56c-.18,0-.49-.23-.54.15s-.15.58.33.69a2.19,2.19,0,0,1,1.74,1.73c.11.46.49.45.76.42s.22-.33.18-.62a2.86,2.86,0,0,0-.52-1c-.16-.27-.34-.62-.75-.21a.26.26,0,0,1-.43-.12C33.77,50.61,34,50.57,34.27,50.49Z" transform="translate(-27.7 -26.72)"/><path class="cls-5" d="M30,50.74a2.83,2.83,0,0,0-.91,1.56c0,.18-.24.5.15.54s.6.19.71-.29a2.33,2.33,0,0,1,.66-1.22A1.7,1.7,0,0,0,30,50.74Z" transform="translate(-27.7 -26.72)"/><path class="cls-5" d="M30.74,53.17c-.47-.08-.63.17-.37.48s.56,1,1.2,1.25c.23.07.51.24.62,0s.21-.63-.26-.77a1,1,0,0,1-.68-.62A.39.39,0,0,0,30.74,53.17Z" transform="translate(-27.7 -26.72)"/><path class="cls-5" d="M34.05,52.87c.34.05.36-.19.24-.52a2,2,0,0,0-1.22-1.23c-.16-.06-.41-.22-.48,0s-.17.57.11.72a1.52,1.52,0,0,1,.78.81C33.55,52.92,33.77,52.84,34.05,52.87Z" transform="translate(-27.7 -26.72)"/><path class="cls-5" d="M32.55,54.64c0,.33.13.39.46.26a2,2,0,0,0,1.25-1.2c.06-.16.22-.43,0-.5s-.62-.21-.79.14a1.36,1.36,0,0,1-.72.73C32.5,54.17,32.56,54.39,32.55,54.64Z" transform="translate(-27.7 -26.72)"/><path class="cls-5" d="M30,50.74a1.7,1.7,0,0,1,.61.6,2.79,2.79,0,0,1,1.19-.53.58.58,0,0,0,.42-.84c-.11-.24-.83-.19-1,.12s-.38.48-.76.36C30.28,50.39,30.14,50.57,30,50.74Z" transform="translate(-27.7 -26.72)"/><path class="cls-5" d="M31.48,52.16c.35-.22.92-.22.8-.88,0-.25-.13-.34-.38-.28a1.67,1.67,0,0,0-1,.56A1.68,1.68,0,0,1,31.48,52.16Z" transform="translate(-27.7 -26.72)"/><path class="cls-5" d="M31.48,52.16a1.68,1.68,0,0,0-.61-.6,1.34,1.34,0,0,0-.45.63c-.07.2-.34.5,0,.62s.67.22.83-.25A2,2,0,0,1,31.48,52.16Z" transform="translate(-27.7 -26.72)"/><path class="cls-5" d="M31.84,52.85c.34.05.42-.1.4-.36s0-.33-.2-.28a.58.58,0,0,0-.5.47C31.5,52.95,31.75,52.82,31.84,52.85Z" transform="translate(-27.7 -26.72)"/><path class="cls-5" d="M31.81,53.15c-.13,0-.33,0-.28.19a.59.59,0,0,0,.52.46c.28,0,.2-.22.21-.38C32.27,53.08,32,53.17,31.81,53.15Z" transform="translate(-27.7 -26.72)"/><path class="cls-5" d="M32.54,52.44c0,.29,0,.44.31.42.12,0,.3,0,.28-.15a.53.53,0,0,0-.44-.47C32.51,52.2,32.55,52.39,32.54,52.44Z" transform="translate(-27.7 -26.72)"/><path class="cls-5" d="M32.68,53.76a.59.59,0,0,0,.44-.42c.05-.19-.11-.18-.23-.19s-.37,0-.35.26S32.48,53.71,32.68,53.76Z" transform="translate(-27.7 -26.72)"/><path class="cls-17" d="M141.24,55.67a.8.8,0,0,0-.81.21,2,2,0,0,1-2.91,0,.89.89,0,0,0-1-.21A2.59,2.59,0,0,0,135,57a3.53,3.53,0,0,1-.39-2.9,4.53,4.53,0,0,1,7-2.35,4,4,0,0,1,1.22,5.3A2.43,2.43,0,0,0,141.24,55.67Zm-.66-2.21A1.62,1.62,0,1,0,139,55,1.59,1.59,0,0,0,140.59,53.46Z" transform="translate(-27.7 -26.72)"/><path class="cls-18" d="M142.89,57a2.43,2.43,0,0,0-1.65-1.37.8.8,0,0,0-.81.21,2,2,0,0,1-2.91,0,.89.89,0,0,0-1-.21A2.59,2.59,0,0,0,135,57a3.63,3.63,0,0,0,2.2,2,4.61,4.61,0,0,0,5.32-1.36A1.37,1.37,0,0,0,142.89,57Z" transform="translate(-27.7 -26.72)"/><path class="cls-13" d="M140.58,69.54c0-.49-.28-.42-.61-.25a.72.72,0,0,0,.57.28Z" transform="translate(-27.7 -26.72)"/><path class="cls-13" d="M140.54,69.58l.07,0,0-.07Z" transform="translate(-27.7 -26.72)"/><path class="cls-13" d="M138.79,44.93c.33.21.51.28.67.1s0-.22,0-.24C139.23,44.64,139.11,44.91,138.79,44.93Z" transform="translate(-27.7 -26.72)"/><path class="cls-13" d="M92.69,60.82c-.31-.14-.49-.31-.66-.05-.06.09-.17.27-.06.33C92.24,61.24,92.36,60.92,92.69,60.82Z" transform="translate(-27.7 -26.72)"/><path class="cls-13" d="M120.86,34.32c-.15.07-.35.09-.37.31s.06.35.17.34.23-.3.32-.47S121,34.32,120.86,34.32Z" transform="translate(-27.7 -26.72)"/><path class="cls-13" d="M134.53,47.38c.24.16.42.27.63.09s.13-.21,0-.27S134.8,47.29,134.53,47.38Z" transform="translate(-27.7 -26.72)"/><path class="cls-13" d="M94,56.2a1.43,1.43,0,0,0,.42-.61C93.9,55.57,93.89,55.57,94,56.2Z" transform="translate(-27.7 -26.72)"/><path class="cls-13" d="M107.88,65c.22,0,.5.07.49-.28,0-.08,0-.22-.09-.21C108,64.52,108,64.84,107.88,65Z" transform="translate(-27.7 -26.72)"/><path class="cls-13" d="M108.36,36.06c.13,0,.2,0,.17-.14s0-.38-.28-.37c-.1,0-.26,0-.25.11S108.2,36,108.36,36.06Z" transform="translate(-27.7 -26.72)"/><path class="cls-13" d="M94,49.93c-.12.53,0,.7.54.56A1.74,1.74,0,0,0,94,49.93Z" transform="translate(-27.7 -26.72)"/><path class="cls-13" d="M135.46,62.55c-.07,0-.22,0-.16.16a.51.51,0,0,0,.33.32c.16,0,.14-.11.14-.21S135.69,62.53,135.46,62.55Z" transform="translate(-27.7 -26.72)"/><path class="cls-17" d="M46.82,55.32v.2l0,.15v.13c.91.52,1.85,1,2.71,1.6l.14,0,.12-.29a27.21,27.21,0,0,1-1.42-2.39c-.19-.32-.36-.37-.66-.18s-.58.32-.87.48l0,.12Z" transform="translate(-27.7 -26.72)"/><path class="cls-17" d="M49.81,48.42c-.11.1-.21,0-.31,0-.71.52-1.51.9-2.26,1.35a.65.65,0,0,0,0,1.21c.86.54.86.54,1.38-.35l1.18-2c0-.07-.07-.15,0-.2Z" transform="translate(-27.7 -26.72)"/><path class="cls-10" d="M48.4,53.89l0,.21a3.26,3.26,0,0,0,1.64.94c.2,0,.15.25.15.4,0,.52,0,1,0,1.57l.16-.1c0-.49,0-1,0-1.48,0-.29.08-.39.36-.45s.9-.2,1-.73l-.54.32c-.6.38-1.9.34-2.24-.32h0a1.3,1.3,0,0,1-.53-.63,2,2,0,0,1,.68-2.31A1.93,1.93,0,0,1,52,53.78c-.08.15-.22.28-.21.48.18.07.26-.17.43-.13v-.22a2.53,2.53,0,0,0,.06-1.75c-.1-.27,0-.32.26-.25l.11-.13a.15.15,0,0,0,0-.06l0-.27-.17,0-.17.18c-.13.12-.25.09-.35,0a2.34,2.34,0,0,0-1.52-.82h-.25a3.21,3.21,0,0,0-1.78,1l-.06.17A3,3,0,0,0,48.4,53.89Z" transform="translate(-27.7 -26.72)"/><path class="cls-13" d="M46.08,51.28a21.93,21.93,0,0,0,0,3.26l.16,0a5.92,5.92,0,0,0,1-1.58c.06-.1,0-.2,0-.3-.24-.41-.48-.82-.71-1.24a.33.33,0,0,0-.39-.18Z" transform="translate(-27.7 -26.72)"/><path class="cls-13" d="M50.25,57c0-.52,0-1,0-1.57,0-.15,0-.38-.15-.4a3.26,3.26,0,0,1-1.64-.94c-.2.21,0,.36.09.51.47.83.94,1.66,1.41,2.49A.33.33,0,0,0,50.25,57Z" transform="translate(-27.7 -26.72)"/><path class="cls-13" d="M48.43,51.71a3.2,3.2,0,0,1,1.78-1v-2h0a.32.32,0,0,0-.39.17c-.45.8-.91,1.59-1.36,2.38A.41.41,0,0,0,48.43,51.71Z" transform="translate(-27.7 -26.72)"/><path class="cls-17" d="M46.08,51.28h0c-.13-.22.1-.23.19-.29a.68.68,0,0,0,.33-.86.69.69,0,0,0-1.32.12.67.67,0,0,0,.47.79l.15.06C46,51.12,46.08,51.15,46.08,51.28Z" transform="translate(-27.7 -26.72)"/><path class="cls-13" d="M47.4,52.56a2,2,0,0,0,.45-.64.22.22,0,0,0-.08-.35L46.86,51a.19.19,0,0,0-.24,0,.17.17,0,0,0,0,.24l.69,1.19A.54.54,0,0,0,47.4,52.56Z" transform="translate(-27.7 -26.72)"/><path class="cls-13" d="M46.51,54.69a.34.34,0,0,0,.23.21,4.81,4.81,0,0,1,.71-.44c.49-.2.53-.48.23-.88-.09-.11-.16-.23-.29-.42Z" transform="translate(-27.7 -26.72)"/><path class="cls-13" d="M48.4,53.89a3,3,0,0,1,0-2c-.33,0-.92.86-.75,1.14S47.79,53.92,48.4,53.89Z" transform="translate(-27.7 -26.72)"/><path class="cls-9" d="M50.25,57a.33.33,0,0,1-.31.09l-.18,0-.12.29.13,0a.9.9,0,0,1,.95-.11l.21,0,0-.19-.16,0a.24.24,0,0,1-.34-.18Z" transform="translate(-27.7 -26.72)"/><path class="cls-13" d="M95.39,52.93v-.72C94.88,52.52,94.88,52.54,95.39,52.93Z" transform="translate(-27.7 -26.72)"/><path class="cls-13" d="M108,52.13c0,.3-.13.54.1.7.08.05.2-.08.24-.17C108.4,52.37,108.15,52.32,108,52.13Z" transform="translate(-27.7 -26.72)"/><path class="cls-13" d="M121.93,52.5c0-.37.14-.66-.09-.84s-.28.14-.33.26C121.41,52.22,121.68,52.28,121.93,52.5Z" transform="translate(-27.7 -26.72)"/><path class="cls-13" d="M130.68,52c0,.11-.06.28.11.31a.27.27,0,0,0,.28-.26.27.27,0,0,0-.26-.29C130.66,51.73,130.69,51.89,130.68,52Z" transform="translate(-27.7 -26.72)"/><path class="cls-13" d="M113.13,27.47a.21.21,0,0,0-.21.24c0,.15.07.28.25.26s.19-.14.18-.27S113.28,27.47,113.13,27.47Z" transform="translate(-27.7 -26.72)"/><path class="cls-13" d="M59.7,53c0,.11-.08.33.15.31a.31.31,0,0,0,.26-.34.3.3,0,0,0-.26-.29C59.62,52.7,59.75,52.92,59.7,53Z" transform="translate(-27.7 -26.72)"/><path class="cls-13" d="M56.51,53c0-.1,0-.25-.12-.25a.28.28,0,0,0-.27.28.27.27,0,0,0,.27.27C56.56,53.25,56.49,53.07,56.51,53Z" transform="translate(-27.7 -26.72)"/><path class="cls-13" d="M43.34,52.69c0,.12-.07.33.12.34a.31.31,0,0,0,.29-.32.32.32,0,0,0-.29-.32C43.29,52.39,43.36,52.58,43.34,52.69Z" transform="translate(-27.7 -26.72)"/><path class="cls-13" d="M40.16,52.76c0-.14.07-.35-.13-.36A.32.32,0,0,0,40,53C40.21,53,40.1,52.84,40.16,52.76Z" transform="translate(-27.7 -26.72)"/><path class="cls-13" d="M74.89,52.75c-.06-.12.1-.37-.16-.34a.37.37,0,0,0-.31.36.39.39,0,0,0,.34.35C75,53.12,74.83,52.87,74.89,52.75Z" transform="translate(-27.7 -26.72)"/><path class="cls-13" d="M78.13,52.42c0,.23-.18.47.07.62,0,0,.19-.1.23-.18C78.56,52.58,78.27,52.55,78.13,52.42Z" transform="translate(-27.7 -26.72)"/><path class="cls-3" d="M95.21,41.53c-.15.17-.34.33-.18.54a.21.21,0,0,0,.29,0C95.53,41.87,95.24,41.72,95.21,41.53Z" transform="translate(-27.7 -26.72)"/><path class="cls-13" d="M111.48,42.1c0-.12,0-.26-.18-.26s-.18.13-.18.26,0,.26.18.26S111.47,42.22,111.48,42.1Z" transform="translate(-27.7 -26.72)"/><path class="cls-13" d="M109.08,42.12c0,.14,0,.25.22.23s.16-.16.16-.28,0-.26-.21-.23S109.09,42,109.08,42.12Z" transform="translate(-27.7 -26.72)"/><path class="cls-13" d="M91.13,46.2c-.08.6,0,.66.6.47A2,2,0,0,0,91.13,46.2Z" transform="translate(-27.7 -26.72)"/><path class="cls-13" d="M59.51,41.91c0,.32.14.58.54.57s.49-.3.5-.62-.14-.61-.51-.62S59.53,41.56,59.51,41.91Z" transform="translate(-27.7 -26.72)"/><path class="cls-17" d="M129.29,34.53l.09-.1s-.08-.06-.12-.07-.08,0-.13.06Z" transform="translate(-27.7 -26.72)"/><path class="cls-13" d="M116.83,59.56a.24.24,0,0,0-.25.27c0,.15.08.27.26.26a.23.23,0,0,0,.21-.25A.24.24,0,0,0,116.83,59.56Z" transform="translate(-27.7 -26.72)"/><path class="cls-13" d="M93.53,41.79c.24,0,.29,0,.28-.19s.09-.35-.18-.34-.32,0-.33.25A.26.26,0,0,0,93.53,41.79Z" transform="translate(-27.7 -26.72)"/><path class="cls-17" d="M50.9,57.13l0,.19.27.06a26.7,26.7,0,0,1,2.6-1.53V55a5,5,0,0,1-.75-.39c-.4-.3-.59-.16-.81.23A19.12,19.12,0,0,1,50.9,57.13Z" transform="translate(-27.7 -26.72)"/><path class="cls-7" d="M50.9,57.13a19.12,19.12,0,0,0,1.35-2.27c.22-.39.41-.54.81-.23a5,5,0,0,0,.75.39.46.46,0,0,0,.26-.22c-1.22-.19-1.5-.68-.86-1.53l.09,0a5.26,5.26,0,0,1,.78,1.56l.32-.22c-.23-.38-.44-.77-.7-1.12a.82.82,0,0,1,0-1.1,9.85,9.85,0,0,0,.63-1.1l-.19-.07-.87,1.38c-.33-.18-.34-.56-.59-.77l-.11.13.39.74a1.11,1.11,0,0,1-.7,1.25v.22c.06.23-.09.4-.19.58-.43.8-1,1.55-1.33,2.38Z" transform="translate(-27.7 -26.72)"/><path class="cls-17" d="M54.34,51.24a9.85,9.85,0,0,1-.63,1.1.82.82,0,0,0,0,1.1c.26.36.47.75.7,1.12l.16,0c.1-1.08,0-2.16,0-3.24h0l-.14-.08Z" transform="translate(-27.7 -26.72)"/><path class="cls-3" d="M54.61,54.78a.6.6,0,0,0-.55.67.62.62,0,0,0,.65.67.68.68,0,1,0-.1-1.34Z" transform="translate(-27.7 -26.72)"/><path class="cls-13" d="M117,42.1c0,.15.06.28.24.27s.22-.14.21-.29,0-.28-.23-.27S117,42,117,42.1Z" transform="translate(-27.7 -26.72)"/><path class="cls-17" d="M65.44,27.68a.55.55,0,0,1,.63.49l.45-.08C66.13,27.42,66,27.36,65.44,27.68Z" transform="translate(-27.7 -26.72)"/><path class="cls-13" d="M116.14,56.74a.41.41,0,0,0-.42.44c0,.27.1.46.38.47s.45-.16.45-.46A.41.41,0,0,0,116.14,56.74Z" transform="translate(-27.7 -26.72)"/><path class="cls-17" d="M52.5,51.42l.17,0,1.16-.72v-.18a.18.18,0,0,1,0-.25l0-.39a28.26,28.26,0,0,1-2.7-1.5l-.12.11c0,.19.09.33.18.48Z" transform="translate(-27.7 -26.72)"/><path class="cls-13" d="M50.47,50.74a2.34,2.34,0,0,1,1.52.82c.1.13.21.17.35,0l-1.56-2.87-.2,0-.1,0h0Z" transform="translate(-27.7 -26.72)"/><path class="cls-14" d="M49.81,48.42a3,3,0,0,0,.45.12.66.66,0,0,0,.74-.46.65.65,0,0,0-.26-.83.63.63,0,0,0-.83,0,.69.69,0,0,0-.24.88l.14.28Z" transform="translate(-27.7 -26.72)"/><path class="cls-7" d="M50.77,48.74l1.56,2.87.17-.18L51.14,49c-.09-.15-.21-.29-.18-.48A.22.22,0,0,0,50.77,48.74Z" transform="translate(-27.7 -26.72)"/><path class="cls-7" d="M50.47,50.74v-2h-.24v2Z" transform="translate(-27.7 -26.72)"/><path class="cls-7" d="M50.46,48.74l.1,0C50.51,48.66,50.48,48.68,50.46,48.74Z" transform="translate(-27.7 -26.72)"/><path class="cls-17" d="M137.8,64c.24-.08.56.18.74-.16l0-.17c-.24,0-.5.08-.73-.09C137.66,63.7,137.5,63.84,137.8,64Z" transform="translate(-27.7 -26.72)"/><path class="cls-11" d="M50.72,57.34a.9.9,0,0,0-.95.11c-.28.64-.14,1.09.37,1.19a.69.69,0,0,0,.79-.31C51.17,57.95,51,57.64,50.72,57.34Z" transform="translate(-27.7 -26.72)"/><path class="cls-13" d="M123.41,34.42c-.11,0-.22,0-.21.18s.13.19.26.2.2,0,.2-.18S123.55,34.41,123.41,34.42Z" transform="translate(-27.7 -26.72)"/><path class="cls-15" d="M53.79,49.91l0,.39V51l.29,0,0,0a1.27,1.27,0,0,1,0-1.16h0Z" transform="translate(-27.7 -26.72)"/><path class="cls-11" d="M54.17,49.79a1.27,1.27,0,0,0,0,1.16c.39.14.8.24,1.1-.17a.7.7,0,0,0,0-.8.61.61,0,0,0-.67-.32C54.47,49.7,54.32,49.75,54.17,49.79Z" transform="translate(-27.7 -26.72)"/><path class="cls-13" d="M54.15,51l-.29,0-1.16.77a.15.15,0,0,1,0,.06c.25.2.26.58.59.77l.87-1.38Z" transform="translate(-27.7 -26.72)"/><path class="cls-7" d="M54.44,51.22l.14.08A.12.12,0,0,0,54.44,51.22Z" transform="translate(-27.7 -26.72)"/><path class="cls-13" d="M63.16,28.11c.19,0,.26-.1.26-.26s0-.3-.18-.33-.27.11-.28.29S63,28.08,63.16,28.11Z" transform="translate(-27.7 -26.72)"/><path class="cls-17" d="M111.86,57.64c.09,0,.16,0,.18-.08s-.07-.1-.13-.1-.15,0-.13.1S111.84,57.62,111.86,57.64Z" transform="translate(-27.7 -26.72)"/><path class="cls-17" d="M130.26,34.61a.18.18,0,0,1,0,.09l.56,0A.52.52,0,0,0,130.26,34.61Z" transform="translate(-27.7 -26.72)"/><path class="cls-13" d="M70.65,27.5c-.21,0-.25.18-.24.35s.07.28.25.27a.27.27,0,0,0,.28-.31A.3.3,0,0,0,70.65,27.5Z" transform="translate(-27.7 -26.72)"/><path class="cls-17" d="M115.75,41.85a1,1,0,0,0,0,.4c.08.15.27.13.42.09s.15-.17.14-.29-.11-.24-.27-.23h-.26Z" transform="translate(-27.7 -26.72)"/><path class="cls-7" d="M46.82,55.32l0-.15Z" transform="translate(-27.7 -26.72)"/><path class="cls-7" d="M46.8,55.68l0-.15Z" transform="translate(-27.7 -26.72)"/><path class="cls-13" d="M74.76,27.55v-.47c-.2,0-.47-.11-.5.19S74.54,27.55,74.76,27.55Z" transform="translate(-27.7 -26.72)"/><path class="cls-13" d="M125.07,50.06a.22.22,0,0,0-.23.25c0,.14.05.24.2.24s.2-.1.2-.24A.22.22,0,0,0,125.07,50.06Z" transform="translate(-27.7 -26.72)"/><path class="cls-15" d="M114.75,65.35a2.3,2.3,0,0,1-1.34,0c-.26-.11-.2.26-.3.4s0,.25.15.28.37.08.27-.24c0-.06.16-.09.23,0,.31.48.55.26.76-.08.24,0,0,.34.22.32A.56.56,0,0,0,114.75,65.35Z" transform="translate(-27.7 -26.72)"/><path class="cls-3" d="M112.05,66.41h3.68v-.11h-3.68Z" transform="translate(-27.7 -26.72)"/><path class="cls-15" d="M115.05,66c.31,0,.79.27.75-.4,0-.24,0-.24-.75-.2Z" transform="translate(-27.7 -26.72)"/><path class="cls-9" d="M115.05,66v-.6a.28.28,0,0,0-.31-.06.56.56,0,0,1,0,.69A.38.38,0,0,0,115.05,66Z" transform="translate(-27.7 -26.72)"/><path class="cls-2" d="M113,51.71c-.11-.22.13-.58-.2-.6s-.25.36-.24.58-.15.67.18.67S112.82,51.91,113,51.71Z" transform="translate(-27.7 -26.72)"/><path class="cls-2" d="M115,51.77c.07.18-.16.6.23.6s.15-.4.19-.62a1,1,0,0,0,0-.21c0-.19,0-.45-.25-.44s-.14.27-.17.42A1.62,1.62,0,0,0,115,51.77Z" transform="translate(-27.7 -26.72)"/><path class="cls-2" d="M114.1,51.78c0,.07,0,.14,0,.21s0,.41.22.4.19-.25.2-.42a2.25,2.25,0,0,0,0-.42c0-.17.11-.45-.2-.44s-.21.27-.22.46S114.1,51.71,114.1,51.78Z" transform="translate(-27.7 -26.72)"/><path class="cls-2" d="M113.36,51.78c.08.18-.16.6.23.59s.15-.4.19-.63a1,1,0,0,0,0-.21c0-.19,0-.45-.25-.43s-.14.27-.17.43A1.63,1.63,0,0,0,113.36,51.78Z" transform="translate(-27.7 -26.72)"/><path class="cls-6" d="M68.59,54.89a1.86,1.86,0,0,1-2.33,0l0-.79a17.39,17.39,0,0,1,.11-2.21A1,1,0,0,1,67.47,51c.55,0,.81.24.94.81a15.72,15.72,0,0,1,.13,2.32ZM66.77,53c.24.39.38.73-.15,1-.11.06,0,.19,0,.29a.8.8,0,0,0,.84.67.83.83,0,0,0,.82-.7.25.25,0,0,0-.15-.34c-.35-.17-.32-.43-.15-.7a1,1,0,0,0,.17-.49c0-.39,0-.79-.59-.57a.92.92,0,0,1-.37,0c-.33,0-.52.07-.47.45A1.17,1.17,0,0,0,66.77,53Z" transform="translate(-27.7 -26.72)"/><path class="cls-13" d="M68.54,54.11l0,.78c.25,0,.53-.11.5-.4A.44.44,0,0,0,68.54,54.11Z" transform="translate(-27.7 -26.72)"/><path class="cls-13" d="M66.25,54.9l0-.79a.43.43,0,0,0-.53.38C65.72,54.77,66,54.86,66.25,54.9Z" transform="translate(-27.7 -26.72)"/><path class="cls-18" d="M139,55a1.53,1.53,0,1,0-1.65-1.53A1.59,1.59,0,0,0,139,55Z" transform="translate(-27.7 -26.72)"/><path class="cls-13" d="M49.06,54.26c.34.66,1.64.7,2.24.32l.54-.32h0c0-.19.13-.32.21-.48a1.93,1.93,0,0,0-2.82-2.46,2,2,0,0,0-.68,2.31,1.3,1.3,0,0,0,.53.63c0-.32-.07-.68.38-.77.16-.34,0-.72.14-1.06a1.82,1.82,0,0,0,.09-.4.54.54,0,0,1,.52-.61.66.66,0,0,1,.79.44,1.48,1.48,0,0,1,.12.69,1.62,1.62,0,0,1,.06.89.12.12,0,0,0,0,.06.45.45,0,0,1,.38.56c0,.19-.22.25-.39.08l-.21,0a.15.15,0,0,1-.22,0h-.84a.15.15,0,0,1-.22,0l-.21,0C49.37,54.3,49.21,54.23,49.06,54.26Z" transform="translate(-27.7 -26.72)"/><path class="cls-17" d="M50.74,57.09c.37-.83.9-1.58,1.33-2.38.1-.18.25-.35.19-.58-.17,0-.25.2-.43.13h0c-.14.53-.61.63-1,.73s-.37.17-.36.45c0,.49,0,1,0,1.48A.24.24,0,0,0,50.74,57.09Z" transform="translate(-27.7 -26.72)"/><path class="cls-13" d="M52.28,53.91a1.11,1.11,0,0,0,.7-1.25l-.39-.74c-.23-.07-.36,0-.26.25A2.53,2.53,0,0,1,52.28,53.91Z" transform="translate(-27.7 -26.72)"/><path class="cls-7" d="M52.7,51.73,53.85,51v-.22l-1.16.72Z" transform="translate(-27.7 -26.72)"/><path class="cls-13" d="M54.08,54.79a5.26,5.26,0,0,0-.78-1.56l-.09,0c-.63.85-.36,1.33.86,1.53Z" transform="translate(-27.7 -26.72)"/><path class="cls-7" d="M53.84,50.55V50.3A.18.18,0,0,0,53.84,50.55Z" transform="translate(-27.7 -26.72)"/><path class="cls-13" d="M66.7,52.55a1.17,1.17,0,0,0,.07.41c.24.39.38.73-.15,1-.11.06,0,.19,0,.29a.8.8,0,0,0,.84.67.83.83,0,0,0,.82-.7.25.25,0,0,0-.15-.34c-.35-.17-.32-.43-.15-.7a1,1,0,0,0,.17-.49c0-.39,0-.79-.59-.57a.92.92,0,0,1-.37,0C66.84,52.08,66.65,52.18,66.7,52.55Z" transform="translate(-27.7 -26.72)"/><path class="cls-11" d="M51,51.86a.66.66,0,0,0-.79-.44.54.54,0,0,0-.52.61,1.82,1.82,0,0,1-.09.4c.06.14.15.27.07.44a.31.31,0,0,0,0,.39.12.12,0,0,0,.18,0c.11-.13,0-.26,0-.39s-.26-.53.2-.6l.58,0c.39.18.22.45.12.7s-.11.23,0,.33a.15.15,0,0,0,.14,0c.11-.06.08-.18.08-.28C51,52.6,51,52.23,51,51.86Z" transform="translate(-27.7 -26.72)"/><path class="cls-9" d="M49.49,54.17l.21,0H51l.21,0c-.11-.22-.19-.43,0-.65a.12.12,0,0,1,0-.06.12.12,0,0,1-.07,0c-.25,0-.19.18-.22.32-.6.44-.8.4-1-.2-.2-.24-.21,0-.25.11S49.5,54,49.49,54.17Z" transform="translate(-27.7 -26.72)"/><path class="cls-12" d="M49.58,53.64c0-.14,0-.35.25-.11.27-.21.55-.39.17-.77a.33.33,0,0,1,.07-.51c-.46.07-.22.38-.2.6s.11.26,0,.39a.12.12,0,0,1-.18,0,.31.31,0,0,1,0-.39c.08-.17,0-.3-.07-.44-.14.34,0,.72-.14,1.06Z" transform="translate(-27.7 -26.72)"/><path class="cls-12" d="M50.88,53.73c0-.14,0-.33.22-.32l0-.85a1.48,1.48,0,0,0-.12-.69c0,.37,0,.74,0,1.11,0,.1,0,.22-.08.28a.15.15,0,0,1-.14,0c-.13-.1-.06-.21,0-.33s.27-.53-.12-.7a.51.51,0,0,1-.05.67c-.18.19-.12.32,0,.48A3.88,3.88,0,0,1,50.88,53.73Z" transform="translate(-27.7 -26.72)"/><path class="cls-3" d="M49.58,53.64l-.13-.15c-.45.1-.38.45-.38.77h0c.14,0,.31,0,.43-.09S49.64,53.83,49.58,53.64Z" transform="translate(-27.7 -26.72)"/><path class="cls-3" d="M51.21,53.51c-.2.21-.12.43,0,.65s.36.1.39-.08A.45.45,0,0,0,51.21,53.51Z" transform="translate(-27.7 -26.72)"/><path class="cls-3" d="M51.11,52.55l0,.85a.12.12,0,0,0,.07,0A1.62,1.62,0,0,0,51.11,52.55Z" transform="translate(-27.7 -26.72)"/><path class="cls-3" d="M49.93,54.2h-.22A.15.15,0,0,0,49.93,54.2Z" transform="translate(-27.7 -26.72)"/><path class="cls-3" d="M51,54.2h-.22A.15.15,0,0,0,51,54.2Z" transform="translate(-27.7 -26.72)"/><path class="cls-13" d="M50.88,53.73a3.88,3.88,0,0,0-.26-.37c-.14-.16-.2-.3,0-.48a.51.51,0,0,0,.05-.67l-.58,0a.33.33,0,0,0-.07.51c.37.38.1.56-.17.77C50.07,54.13,50.28,54.17,50.88,53.73Z" transform="translate(-27.7 -26.72)"/></svg>