<svg id="Layer_1" data-name="Layer 1" xmlns="http://www.w3.org/2000/svg" viewBox="0 0 119.73 35.29"><defs><style>.cls-1{fill:#ecebeb;}.cls-2{fill:#a367a6;}.cls-3{fill:#ab6aa8;}.cls-4{fill:#414a5c;}.cls-5{fill:#b8b6b7;}.cls-6{fill:#928e8e;}.cls-7{fill:#73b55f;}.cls-8{fill:#646262;}.cls-9{fill:#858281;}.cls-10{fill:#7c7978;}.cls-11{fill:#d67456;}.cls-12{fill:#747170;}.cls-13{fill:#5fb8c2;}.cls-14{fill:#4c99c7;}.cls-15{fill:#eeeee0;}.cls-16{fill:#fdfdfd;}.cls-17{fill:#e6ab45;}.cls-18{fill:#d4bf4b;}.cls-19{fill:#ecc163;}</style></defs><title>shema_3</title><path class="cls-1" d="M34.25,69.54c0-.49.28-.42.61-.25a.72.72,0,0,1-.57.28Z" transform="translate(-27.7 -34.32)"/><path class="cls-1" d="M34.29,69.58l-.07,0,0-.07Z" transform="translate(-27.7 -34.32)"/><path class="cls-2" d="M64.84,50.7a4,4,0,0,1-7.92.21A3.78,3.78,0,0,1,60.29,47,3.89,3.89,0,0,1,64.84,50.7Zm-4.92-1c-.18-.16-.36-.34-.56-.49s-.46-.68-.8-.32.24.49.35.75c-.55.35-.57.54-.1.93.09.64.18,1.29.26,1.93,0,.32.21.44.53.44q1.27,0,2.53,0c.33,0,.49-.12.54-.44.08-.64.17-1.29.26-1.93.47-.41.45-.57-.1-.93l.21-.24c.15-.15.35-.32.16-.53s-.42-.05-.59.11l-.79.71-.92-.06c.35-.12.67-.27.66-.71a.6.6,0,0,0-.5-.6.63.63,0,0,0-.83.45c-.13.51.21.73.64.86Z" transform="translate(-27.7 -34.32)"/><path class="cls-3" d="M90.12,49c-.07.88.28,1.19,1.07.93.35-.12.43.09.55.31s.2.41-.08.63c-.66.5-.62,1,.11,1.37.32.16.26.35.19.61s-.17.42-.51.38c-.81-.1-1.13.29-.87,1.07.12.35-.08.43-.31.55s-.41.24-.63-.07c-.48-.66-1-.62-1.38.09-.18.35-.39.25-.66.18s-.39-.22-.33-.53c.13-.74-.31-1.11-1-.85-.33.12-.44,0-.57-.27s-.23-.44.09-.66c.64-.43.6-1-.09-1.34-.38-.18-.29-.39-.21-.68s.2-.39.52-.33c.74.14,1.12-.31.86-1-.13-.37.08-.45.31-.59s.42-.16.62.11c.48.63,1,.59,1.34-.1.15-.31.33-.31.59-.22S90.23,48.61,90.12,49Zm-1.4,1.6a1.21,1.21,0,0,0,0,2.41,1.21,1.21,0,1,0,0-2.41Z" transform="translate(-27.7 -34.32)"/><path class="cls-4" d="M106.62,58c-.16-.34-.35-.68.23-.83.21-.05.15-.25.16-.4s-.16-.3-.37-.35a3.6,3.6,0,0,1-2.8-2.74,3.68,3.68,0,1,1,6.88.75c-.08.16-.28.28-.17.51h0c-.11-.07-.16,0-.2.09a3.69,3.69,0,0,1-2.24,1.41c-.2,0-.32.12-.31.35s0,.34.26.43c.46.15.29.5.13.8A4.25,4.25,0,0,0,106.62,58Zm-2.12-5.21a2.91,2.91,0,1,0,2.9-2.91A2.91,2.91,0,0,0,104.5,52.75Z" transform="translate(-27.7 -34.32)"/><path class="cls-4" d="M36.32,59.82c-3.72.22-6.48-3.11-5.18-6.43A5.16,5.16,0,0,1,36,50.33a5,5,0,0,1,4.24,2.52,4.59,4.59,0,0,1-1.87,6.34A5,5,0,0,1,36.32,59.82ZM31.93,57a1.37,1.37,0,0,0,.33.59A4.61,4.61,0,0,0,37.58,59a3.62,3.62,0,0,0,2.2-2,3.53,3.53,0,0,0,.39-2.9,4.53,4.53,0,0,0-7-2.35A4,4,0,0,0,31.93,57Z" transform="translate(-27.7 -34.32)"/><path class="cls-4" d="M91.45,58.42c0,.16-.09.27-.27.24s-.16-.16-.16-.29,0-.28,0-.42c0-.37-.1-.82.07-1.09s.69-.09,1-.13a.74.74,0,0,0,.76-.84c0-.53,0-1.06,0-1.59,0-.33.1-.46.43-.42.12,0,.25,0,.37,0,.32,0,.44-.08.26-.4s-.18-.35-.27-.52A6.39,6.39,0,0,1,93,51a4.33,4.33,0,0,0-3.75-3.61,4.42,4.42,0,0,0-4.51,2.52,4.31,4.31,0,0,0,.92,5,1.2,1.2,0,0,1,.42,1c0,.8,0,1.59,0,2.39,0,.16.07.4-.22.39s-.18-.22-.18-.37,0-.49,0-.74a10.32,10.32,0,0,0,.06-1.42A1.31,1.31,0,0,0,85.25,55,4.48,4.48,0,0,1,84,51.14a6.63,6.63,0,0,0,.25-1.24h0c.11,0,.11-.13.09-.22a5.32,5.32,0,0,1,2.9-2.49A5.66,5.66,0,0,1,89.87,47c.1.18.3.15.45.21a4.5,4.5,0,0,1,3,3.34,10.39,10.39,0,0,0,1,2.7c.48.93.48.95-.57,1-.34,0-.48.11-.47.46s0,.88,0,1.32a1.07,1.07,0,0,1-1,1.08c-.82.09-.82.09-.81.95C91.42,58.18,91.44,58.3,91.45,58.42Z" transform="translate(-27.7 -34.32)"/><path class="cls-4" d="M36.28,61.8c-.17,0-.44.12-.46-.24s.22-.31.43-.33a6.53,6.53,0,0,0,5.25-3.05,4.76,4.76,0,0,0,.69-1.65c0-.19.07-.38-.25-.26s-.3-.08-.37-.22.08-.25.17-.35l.08-.07c.94-.88.94-.88,1.85.07.13.13.28.24.09.43s-.25.2-.4,0c-.37-.39-.42-.09-.5.22A7.08,7.08,0,0,1,36.28,61.8Z" transform="translate(-27.7 -34.32)"/><path class="cls-4" d="M29.41,54.18c.28-.08.47-.33.67,0s-.08.38-.22.5c-1.09,1-.61,1-1.8-.07-.09-.08-.24-.16-.2-.29s.22-.44.45-.21c.45.44.46.1.53-.25a7,7,0,0,1,6.51-5.45c.19,0,.5-.16.52.24s-.29.3-.49.32A6.46,6.46,0,0,0,30.17,52,5.21,5.21,0,0,0,29.41,54.18Z" transform="translate(-27.7 -34.32)"/><path class="cls-5" d="M67,65.39l-.71-.18c-.18,0-.21-.15-.16-.31s.09-.34.14-.51,0-.45.19-.51.29.2.4.35.27.06.4,0l4.42-2.81,8-5.12c.34-.22.69-.41.28-.88-.15-.17-.07-.3.17-.27.07,0,.13,0,.2.06,1.07.22,1.06.22.72,1.24-.1.29-.23.32-.36.08s-.39-.25-.66-.08L68,64.15c-.15.1-.31.17-.46.26s-.42.26-.18.58S67.41,65.42,67,65.39ZM80.85,56.2c.09-.62.08-.63-.42-.61A1.43,1.43,0,0,0,80.85,56.2ZM66.95,65c-.15-.16-.11-.48-.4-.49-.1,0-.09.13-.09.21C66.45,65.07,66.73,65,66.95,65Z" transform="translate(-27.7 -34.32)"/><path class="cls-5" d="M80.45,50.75a2,2,0,0,1-.27,0c-.13,0-.31.07-.37-.1s.09-.23.19-.29c.27-.18.2-.3,0-.51-.82-.93-1.73-1.77-2.59-2.66-2.7-2.83-5.44-5.62-8.17-8.41l-2.18-2.25c-.22-.23-.4-.32-.66,0s-.37.18-.38-.16c0-.12,0-.25,0-.37,0-.71,0-.71.72-.7s.63,0,.38.56a.37.37,0,0,0,.12.47c1.31,1.24,2.53,2.57,3.77,3.86,2,2.08,4,4.13,6,6.23,1,1.08,2.06,2.13,3.09,3.2.22.23.41.48.68,0a.28.28,0,0,1,.23-.1c.14,0,.1.16.11.26s0,.21,0,.32C81.13,50.76,81.13,50.76,80.45,50.75Zm-14-14.69c.15-.1.34-.2.36-.4s-.15-.1-.25-.11c-.26,0-.24.22-.28.37S66.34,36.08,66.47,36.06Zm14.4,13.87a1.74,1.74,0,0,0-.54.56C80.82,50.62,81,50.46,80.87,49.93Z" transform="translate(-27.7 -34.32)"/><path class="cls-6" d="M125.35,48.18l2.43,1.41a.48.48,0,0,0,.53.06c.67-.35,1.16-.21,1.41.36s0,1.06-.75,1.31l0-.21.15-.06a.67.67,0,0,0,.47-.79.69.69,0,0,0-1.32-.12.68.68,0,0,0,.33.86c.1.06.32.07.19.29a.33.33,0,0,0-.39.18c-.23.42-.47.82-.71,1.24-.05.09-.11.2,0,.3a5.92,5.92,0,0,0,1,1.58c-.07.11-.2.08-.3.11l-.88-1.54c-.13.19-.2.31-.29.42-.31.39-.26.67.23.88a4.81,4.81,0,0,1,.71.44l-.08.16c-.29-.16-.59-.3-.87-.48s-.47-.14-.66.18a27.23,27.23,0,0,1-1.42,2.39l-.18,0c.47-.83.95-1.66,1.41-2.49.09-.15.29-.3.09-.51l0-.21c.61,0,.58-.55.77-.87s-.42-1.1-.75-1.14l-.06-.17a.41.41,0,0,0,0-.4c-.45-.79-.91-1.59-1.36-2.38a.32.32,0,0,0-.39-.17c.1-.19.29-.09.44-.13l1.18,2c.52.89.52.89,1.38.35a.65.65,0,0,0,0-1.21c-.75-.45-1.55-.83-2.26-1.35Zm2.08,4.38a.54.54,0,0,0,.12-.1l.69-1.19a.17.17,0,0,0,0-.24.19.19,0,0,0-.24,0l-.91.54a.22.22,0,0,0-.08.35A2,2,0,0,0,127.43,52.56Z" transform="translate(-27.7 -34.32)"/><path class="cls-5" d="M79.22,51.56l.37.38c.68.68.67.74-.09,1.33-.21.16-.34.15-.31-.13,0-.44-.17-.48-.53-.48q-5.47,0-10.93,0c-.39,0-.61.07-.54.52,0,.11,0,.27-.12.31s-.18-.08-.24-.16l-.14-.16c-.71-.73-.71-.73.1-1.4.1-.08.18-.19.32-.12s.1.18.09.28c-.05.39.16.42.47.42,3.68,0,7.36,0,11,0C79.37,52.36,79.16,51.94,79.22,51.56Zm.21,1.37c.51-.39.5-.41,0-.72Zm-12.57-.8c-.2.2-.45.25-.34.53,0,.09.16.22.24.17C67,52.66,66.87,52.43,66.87,52.13Z" transform="translate(-27.7 -34.32)"/><path class="cls-7" d="M106.62,58a4.25,4.25,0,0,1,1.58,0c0,1,0,1.94,0,2.91,0,.41-.13.51-.51.5-1,0-1,0-1-1C106.64,59.54,106.63,58.75,106.62,58Z" transform="translate(-27.7 -34.32)"/><path class="cls-5" d="M53.7,52a3.31,3.31,0,0,1-.83.84c-.2,0-.21-.18-.2-.31,0-.35-.15-.41-.45-.4H44.89c-.31,0-.47.07-.44.41,0,.13.08.32-.1.37s-.23-.13-.34-.22l-.08-.07c-.7-.69-.68-.85.15-1.44.24-.17.38-.13.36.17s.14.47.5.46q3.61,0,7.22,0c.3,0,.51,0,.54-.39s.16-.3.35-.11Zm-.81.49c.25-.22.53-.28.42-.57,0-.13-.23-.34-.33-.26S52.9,52.13,52.89,52.5ZM44.15,52c0-.1,0-.26-.13-.24a.27.27,0,0,0-.26.29.27.27,0,0,0,.28.26C44.21,52.27,44.12,52.1,44.15,52Z" transform="translate(-27.7 -34.32)"/><path class="cls-5" d="M53,62.34a3.31,3.31,0,0,1-.83.84c-.2,0-.21-.18-.2-.31,0-.35-.15-.41-.45-.4H44.19c-.31,0-.47.07-.44.41,0,.13.08.32-.1.37s-.23-.13-.34-.22L43.24,63c-.7-.69-.68-.85.15-1.44.24-.17.38-.13.36.17s.14.47.5.46q3.61,0,7.22,0c.3,0,.51,0,.54-.39s.16-.3.35-.11Zm-.81.49c.25-.22.53-.28.42-.57,0-.13-.23-.34-.33-.26S52.2,62.46,52.19,62.83Zm-8.75-.51c0-.1,0-.26-.13-.24a.27.27,0,0,0-.26.29.27.27,0,0,0,.28.26C43.5,62.6,43.42,62.43,43.44,62.32Z" transform="translate(-27.7 -34.32)"/><path class="cls-8" d="M111.91,41c-.56.94-.56.94.21,1.76,0-.54,0-1,0-1.43,0-.12,0-.27.1-.33s.26,0,.36.15l.61.76a1.32,1.32,0,0,0,.12-.73c0-.12.06-.2.19-.2s.19.07.19.2c0,.46,0,.92,0,1.38,0,.29-.21.26-.36.11s-.31-.39-.47-.58-.12-.2-.25-.17-.08.17-.11.26.16.55-.18.56-.75.17-1-.29a.58.58,0,0,0-.4-.39c-.12.16,0,.34-.07.51s-.06.2-.19.2-.19-.09-.19-.21c0-.46,0-.92,0-1.38,0-.12.05-.2.19-.2s.19.07.19.2,0,.32,0,.49C111.31,41.57,111.3,40.87,111.91,41Z" transform="translate(-27.7 -34.32)"/><path class="cls-5" d="M119.15,53a3.45,3.45,0,0,1-.92.88c-.22.12-.23-.15-.21-.3,0-.34-.13-.42-.44-.41-.55,0-1.1,0-1.64,0-.38,0-.55.12-.59.48,0,.11,0,.28-.11.32s-.2-.12-.29-.2c-.79-.74-.78-.88.07-1.58.25-.21.41-.16.4.15s.21.45.53.44q.79,0,1.59,0c.31,0,.5,0,.49-.42s.19-.39.42-.14A3.82,3.82,0,0,1,119.15,53Zm-4,0c0-.11.08-.32-.15-.31a.3.3,0,0,0-.26.29.31.31,0,0,0,.26.34C115.21,53.36,115.08,53.14,115.13,53Zm3.19-.07c0,.11,0,.29.12.3a.27.27,0,0,0,.27-.27.28.28,0,0,0-.27-.28C118.29,52.7,118.33,52.86,118.32,53Z" transform="translate(-27.7 -34.32)"/><path class="cls-5" d="M133,52.88h-.69c-.37,0-.73,0-.64.52,0,.2-.1.25-.26.11l-.7-.64c-.1-.09-.12-.19,0-.28a6.92,6.92,0,0,1,.79-.78c.2-.15.23.07.21.2-.08.51.18.59.61.56s1.06,0,1.59,0c.32,0,.52-.06.47-.43,0-.14,0-.31.14-.37s.22.12.31.22c.23.25.7.41.65.75s-.43.48-.67.7-.18.26-.34.21-.1-.25-.09-.37c0-.35-.14-.42-.44-.4S133.33,52.88,133,52.88Zm-1.54-.19c0-.11.05-.3-.12-.3a.32.32,0,0,0-.29.32.31.31,0,0,0,.29.32C131.56,53,131.45,52.81,131.49,52.69Zm3.18.07c.06.08-.05.27.13.27a.32.32,0,0,0,0-.64C134.6,52.4,134.71,52.62,134.67,52.76Z" transform="translate(-27.7 -34.32)"/><path class="cls-5" d="M100.77,52.64a2.6,2.6,0,0,1-.92,1c-.18,0-.13-.2-.12-.3.05-.41-.13-.52-.51-.5a16,16,0,0,1-1.64,0c-.38,0-.58.07-.52.49,0,.11.05.28-.11.31s-.17-.1-.26-.15a1,1,0,0,1-.11-.11c-.75-.74-.75-.74.07-1.42.09-.08.18-.19.32-.13s.11.18.09.28c-.05.38.14.44.46.43.58,0,1.17,0,1.75,0,.33,0,.51-.07.46-.44,0-.1,0-.22.1-.27s.2,0,.28.11Zm-.83.11c.06.12-.1.36.13.37a.39.39,0,0,0,.34-.35.37.37,0,0,0-.31-.36C99.84,52.38,100,52.63,99.94,52.75Zm-3.25-.33c-.14.13-.42.16-.3.44,0,.08.19.2.23.18C96.87,52.89,96.7,52.65,96.7,52.42Z" transform="translate(-27.7 -34.32)"/><path class="cls-8" d="M117.63,41.9c.09-.29.16-.52.23-.76a.23.23,0,0,1,.29-.17c.19,0,.12.19.09.3-.13.42-.26.84-.39,1.27a.26.26,0,0,1-.26.22c-.16,0-.19-.12-.24-.23a1.94,1.94,0,0,0-.3-.69c-.2.2-.2.46-.3.67s-.1.27-.29.25-.21-.12-.24-.25l-.36-1.22c0-.11-.14-.25,0-.31a.25.25,0,0,1,.36.2c.06.22.13.43.22.74a1.92,1.92,0,0,0,.33-.71c0-.12.09-.24.24-.24s.2.11.25.23A1.72,1.72,0,0,0,117.63,41.9Z" transform="translate(-27.7 -34.32)"/><path class="cls-8" d="M79.37,41.09l.05-.13c.31,0,.47.1.56.39a3.8,3.8,0,0,0,.48,1v.37c-.21.05-.3-.05-.42-.22a.47.47,0,0,0-.76-.08c-.44.61-1,.2-1.53.3-.16,0-.15-.16-.15-.28s0-.5,0-.74c0-.81.09-.89.9-.76.08,0,.19,0,.2.11s-.07.19-.2.19h-.32c-.14,0-.24,0-.24.2s.07.24.25.25.34-.08.35.12-.23.16-.36.16-.24.1-.23.27.11.18.24.2c.46.08.8,0,.9-.53A6.14,6.14,0,0,1,79.37,41.09Zm.24.44c0,.2-.32.35-.11.56a.21.21,0,0,0,.29,0C79.95,41.85,79.77,41.7,79.61,41.53Z" transform="translate(-27.7 -34.32)"/><path class="cls-9" d="M62.64,41.68s.11-.07.14-.06a.7.7,0,0,0,.93-.28c0-.08.08-.17.18-.13a.23.23,0,0,1,.1.16c0,.16,0,.31,0,.52.29-.28.57-.42.91-.17.17.13.29-.05.43-.1a.47.47,0,0,1,.63.23.45.45,0,0,1-.13.62.52.52,0,0,1-.72-.09c-.28-.3-.28-.3-.7-.16.09.24.33,0,.52.21a.54.54,0,0,1-.74,0c-.14-.14-.15-.13-.27,0s-.42.11-.64.08-.3-.36-.49,0c0,.07-.17-.07-.17-.19s0-.46,0-.69Zm.71.41c0,.12,0,.26.18.26s.18-.13.18-.26,0-.26-.18-.26S63.36,42,63.35,42.1Zm2.4,0c0-.12,0-.26-.16-.29s-.21.1-.21.23,0,.26.16.28S65.74,42.26,65.75,42.12Z" transform="translate(-27.7 -34.32)"/><path class="cls-4" d="M62.73,38.43a5.29,5.29,0,0,0,.74,0c.5-.07.61.16.57.6,0,.22-.09.32-.31.32h-2c-.38,0-.28-.28-.29-.49s0-.44.3-.43S62.4,38.43,62.73,38.43Z" transform="translate(-27.7 -34.32)"/><path class="cls-4" d="M62.69,38.07c-.25,0-.5,0-.74,0s-.55,0-.55-.46.22-.47.56-.46c.56,0,1.13,0,1.7,0,.37,0,.38.19.39.47s0,.49-.39.46S63,38.07,62.69,38.07Z" transform="translate(-27.7 -34.32)"/><path class="cls-4" d="M111.92,55.13a.8.8,0,0,1,0,1,.76.76,0,0,1-1,.21c-.19-.09-.28,0-.35.14a.14.14,0,0,1-.25.05.13.13,0,0,1,.07-.21c.31-.06.22-.22.13-.41a.81.81,0,0,1,.05-.76c0-.09.19-.2,0-.29h0c.15.24.28,0,.43,0A1,1,0,0,1,111.92,55.13Z" transform="translate(-27.7 -34.32)"/><path class="cls-8" d="M83.28,42a1.82,1.82,0,0,0,.09-.76c0-.13,0-.26.19-.25s.16.11.16.22c0,.44,0,.88,0,1.32,0,.09,0,.19-.1.22a.25.25,0,0,1-.28-.11l-.46-.58c-.06-.08-.12-.2-.25-.16s-.08.17-.11.27.15.57-.17.57-.16-.39-.18-.6a5.63,5.63,0,0,1,0-.85c0-.11,0-.26.14-.3s.23.07.3.17Z" transform="translate(-27.7 -34.32)"/><path class="cls-8" d="M85.85,42a2,2,0,0,0,.09-.8c0-.11,0-.21.17-.21s.18.08.18.2c0,.46,0,.92,0,1.37s-.26.23-.4.08-.43-.54-.69-.86a1.59,1.59,0,0,0-.09.71c0,.12,0,.27-.17.28s-.2-.16-.2-.3c0-.41,0-.81,0-1.22,0-.1,0-.22.12-.26a.26.26,0,0,1,.27.12Z" transform="translate(-27.7 -34.32)"/><path class="cls-8" d="M120.35,41.89c0-.24,0-.49,0-.73a.16.16,0,0,1,.2-.18c.11,0,.15.08.15.18,0,.48,0,1,0,1.43,0,.31-.24.18-.37,0s-.44-.54-.7-.87a1.72,1.72,0,0,0-.1.76c0,.11,0,.22-.15.24s-.19-.12-.19-.25c0-.42,0-.85,0-1.27,0-.1,0-.22.12-.25a.27.27,0,0,1,.28.12l.64.83Z" transform="translate(-27.7 -34.32)"/><path class="cls-5" d="M80.91,42.78c.68,1.11,1.56,2.08,2.29,3.16.14.2.3.14.44,0s.21-.22.36-.14,0,.21,0,.33c-.13.91-.13.91-1.07.81-.13,0-.28,0-.39-.07,0-.36.57-.35.49-.66s-.33-.44-.5-.67l-1.68-2.3a.65.65,0,0,1-.2-.42ZM83.7,46.2a2,2,0,0,0-.6.47C83.69,46.86,83.78,46.8,83.7,46.2Z" transform="translate(-27.7 -34.32)"/><path class="cls-8" d="M87.6,42.8c-.56,0-.86-.17-1-.56a.91.91,0,0,1,.21-1.07,1,1,0,0,1,1-.17c.1,0,.27.07.22.24s-.19.13-.31.08a.54.54,0,0,0-.68.11.77.77,0,0,0-.08.76.46.46,0,0,0,.55.32c.24,0,.32-.16.11-.34s-.22-.08-.15-.22.22-.09.34-.09.23,0,.28.17C88.28,42.51,88,42.8,87.6,42.8Z" transform="translate(-27.7 -34.32)"/><path class="cls-9" d="M62.38,60.29c-.35.2-.67-.25-1,0-.06,0-.12-.14-.14-.24s.06-.32-.12-.43c-.22.13-.1.35-.14.52s0,.19-.13.19-.13-.09-.16-.18.07-.38-.11-.54c-.2.09-.12.27-.14.42s0,.28-.16.27-.12-.14-.14-.25c-.09-.64,0-.72.66-.68.26,0,.56-.15.75.19,0,.07.12,0,.17,0a.59.59,0,0,1,.77-.08c.25.57-.29.41-.5.51C61.94,60.26,62.47,59.88,62.38,60.29Z" transform="translate(-27.7 -34.32)"/><path class="cls-8" d="M113.89,41.85a.88.88,0,0,1,.92-.93.91.91,0,0,1,.92.95.9.9,0,0,1-.94.92A.86.86,0,0,1,113.89,41.85Zm1.43.06c0-.36-.1-.68-.52-.67s-.52.27-.51.62.1.61.5.62S115.29,42.24,115.32,41.91Z" transform="translate(-27.7 -34.32)"/><path class="cls-8" d="M121.89,42.8a.85.85,0,0,1-.86-.49,1,1,0,0,1,.09-1.05.92.92,0,0,1,1-.3c.15,0,.37.07.33.26s-.25.1-.39.06a.51.51,0,0,0-.61.18.75.75,0,0,0,0,.76.48.48,0,0,0,.46.29c.1,0,.22,0,.26-.12s0-.18-.07-.23-.21-.1-.14-.23.22-.07.34-.08a.22.22,0,0,1,.26.2C122.65,42.54,122.45,42.79,121.89,42.8Z" transform="translate(-27.7 -34.32)"/><path class="cls-4" d="M43.13,47.42c.86,0,.86,0,.86.86,0,.12,0,.25,0,.37s0,.4-.29.38-.29-.22-.27-.41c.07-.53-.13-.76-.68-.7-.18,0-.47.1-.48-.24s.3-.23.5-.27A2.36,2.36,0,0,1,43.13,47.42Z" transform="translate(-27.7 -34.32)"/><path class="cls-10" d="M62.22,44.06c.29.05.64-.19.85.21.08.14.13,0,.18-.06.23-.25.62-.26.75-.09s-.06.5-.39.63c.23.07.52,0,.48.28a.38.38,0,0,1-.53.29c-.33-.15-.79-.23-.78-.76,0-.11,0-.28-.16-.27s-.13.18-.14.29.1.42-.24.42Z" transform="translate(-27.7 -34.32)"/><path class="cls-10" d="M56.29,59.63a.68.68,0,0,1,.87-.71c.1,0,.23.06.22.19s-.15.1-.25.09-.48,0-.55.27-.06.44.19.54a.49.49,0,0,0,.68-.19c.16-.35.32-.62.74-.45a.45.45,0,0,1,.24.66c-.19.4-.5.39-.83.16-.16-.11-.26,0-.38.09A.67.67,0,0,1,56.29,59.63Zm1.7-.07a.24.24,0,0,0-.23.28.23.23,0,0,0,.21.25c.18,0,.25-.11.26-.26A.24.24,0,0,0,58,59.56Z" transform="translate(-27.7 -34.32)"/><path class="cls-8" d="M80.91,42.78l-.23,0-.07-.06,0-.43c0-.26,0-.53,0-.79s-.13-.49.14-.55a.91.91,0,0,1,1,.2.47.47,0,0,1-.06.67c-.27.27.08.38.13.57s.21.2,0,.31-.24,0-.33-.1-.22-.44-.46-.58C80.89,42.27,81.15,42.6,80.91,42.78Zm.38-1a.26.26,0,0,0,.23-.28c0-.21-.17-.25-.33-.25s-.16.21-.18.34S81.06,41.84,81.29,41.79Z" transform="translate(-27.7 -34.32)"/><path class="cls-11" d="M129.34,54.79l.19.22.06.09v.67a1,1,0,0,0-.12.1.73.73,0,0,1-1,.14.61.61,0,0,1-.26-.78.69.69,0,0,1,.83-.48h.21Z" transform="translate(-27.7 -34.32)"/><path class="cls-8" d="M34.85,63.22a4.52,4.52,0,0,1-.06.58.58.58,0,0,1-.58.46.6.6,0,0,1-.64-.37,2.91,2.91,0,0,1-.07-1.15.13.13,0,0,1,.13-.14c.12,0,.14.09.14.18,0,.26,0,.53,0,.79s.11.43.38.42.37-.18.38-.42,0-.42,0-.64-.06-.34.15-.33.11.22.13.35a2.27,2.27,0,0,1,0,.26Z" transform="translate(-27.7 -34.32)"/><path class="cls-4" d="M58.9,37.15h1.38c.13,0,.32,0,.31.18s-.16.16-.28.16H57.44c-.12,0-.28,0-.28-.16s.17-.18.31-.18Z" transform="translate(-27.7 -34.32)"/><path class="cls-10" d="M121,56a.52.52,0,0,0-.29.11.9.9,0,0,1-1.37-.25.93.93,0,0,1,.44-1.33l.23-.13.29.09.16,0,.32.22h0A.46.46,0,0,0,121,55v.83Zm-.76-1.26a.68.68,0,1,0-.1,1.34.62.62,0,0,0,.65-.67A.6.6,0,0,0,120.21,54.78Z" transform="translate(-27.7 -34.32)"/><path class="cls-12" d="M58.07,42.25c-.17.4-.46.42-.75.19s-.25-.13-.42,0a.52.52,0,0,1-.73,0c.12-.18.22-.07.31-.06s.26,0,.3-.13-.1-.21-.21-.25c-.3-.1-.5-.27-.3-.58s.46-.24.71-.07c0,.15-.1.12-.16.12s-.3-.11-.35.1.16.2.27.26.34.31.59,0,.57-.22.74.17Zm-.21-.15c0-.15,0-.28-.22-.29s-.23.13-.23.27,0,.28.21.29S57.86,42.26,57.86,42.1Z" transform="translate(-27.7 -34.32)"/><path class="cls-5" d="M104.18,49.15a2.73,2.73,0,0,1,.08.51c0,.26-.09.51-.39.53s-.43.05-.47.35a.17.17,0,0,1-.24.14c-.14-.05-.22-.2-.14-.29.22-.27.16-.58.23-.88.12-.51.59-.3.93-.36Z" transform="translate(-27.7 -34.32)"/><path class="cls-10" d="M45.42,50.42c-.06.06-.13.12-.19.19a.59.59,0,0,1-.68.11c-.22-.06-.13-.31-.12-.46,0-.33-.22-.86.48-.78.27,0,.44.14.38.44s0,.28.14.35Z" transform="translate(-27.7 -34.32)"/><path class="cls-4" d="M29.38,62.32a.36.36,0,0,1,0,.34H27.77a5.22,5.22,0,0,1,0-1.26c0-.29.18-.3.39-.26l.12.11c.1.31-.08.67.19.94S29.06,62.28,29.38,62.32Z" transform="translate(-27.7 -34.32)"/><path class="cls-9" d="M59,59.6c-.11,0-.11.12-.12.2s.09.41-.13.46-.18-.19-.15-.31-.2-.57.23-.63a4.31,4.31,0,0,1,.83,0,.31.31,0,0,1,.3.31c0,.22.09.48-.06.66s-.19,0-.21-.13,0-.39-.08-.55-.16.11-.18.2.08.45-.13.45-.11-.31-.16-.47S59.14,59.61,59,59.6Z" transform="translate(-27.7 -34.32)"/><path class="cls-10" d="M59.35,57.45a.66.66,0,0,1-.93.41.69.69,0,0,1-.38-.92.64.64,0,0,1,.84-.43.58.58,0,0,1,.48.5Zm-.66-.71a.41.41,0,0,0-.41.46c0,.3.15.47.45.46s.39-.21.38-.47A.41.41,0,0,0,58.69,56.74Z" transform="translate(-27.7 -34.32)"/><path class="cls-1" d="M58.93,38.63h1.37c.12,0,.28,0,.28.16s-.16.16-.28.16H57.5c-.11,0-.23,0-.25-.14s.13-.18.25-.18Z" transform="translate(-27.7 -34.32)"/><path class="cls-1" d="M58.89,38.42H57.57c-.13,0-.32,0-.32-.17s.17-.15.29-.15h2.75c.12,0,.28,0,.29.14s-.18.17-.31.17Z" transform="translate(-27.7 -34.32)"/><path class="cls-8" d="M125.35,48.18l0,.23c-.11,0-.2.11-.31,0l.14-.28a.69.69,0,0,0-.24-.88.63.63,0,0,0-.83,0,.65.65,0,0,0-.26.83.66.66,0,0,0,.74.46,3,3,0,0,0,.45-.12c.1.05,0,.13,0,.2s-.34-.07-.44.13h-.25c0-.06,0-.08-.1,0l-.2,0a.22.22,0,0,0-.19-.23l-.12-.11-.11-.2a1,1,0,0,1,.38-1.12.87.87,0,0,1,1.34.56v.53Z" transform="translate(-27.7 -34.32)"/><path class="cls-10" d="M36.08,63.92c-.17-.07-.19.1-.27.17a.46.46,0,0,1-.75,0c.14-.25.36.07.5-.16-.08-.28-.79-.32-.41-.8a.42.42,0,0,1,.68,0c-.09.23-.35,0-.51.29.29-.18.44.71.74,0a.46.46,0,0,1,.25.27l0,.17A.21.21,0,0,0,36.08,63.92Z" transform="translate(-27.7 -34.32)"/><path class="cls-12" d="M125.36,57.6v.52a.9.9,0,0,1-1,.78.93.93,0,0,1-.81-1c0-.11,0-.21,0-.32l0-.2.27-.06.21,0c-.25.29-.45.6-.21,1a.69.69,0,0,0,.79.31c.51-.1.64-.55.37-1.19l.13,0,.14,0Z" transform="translate(-27.7 -34.32)"/><path class="cls-8" d="M118.88,41.86c0,.23,0,.46,0,.69s-.09.22-.24.21a.19.19,0,0,1-.19-.21c0-.46,0-.92,0-1.37,0-.16.09-.21.24-.21a.18.18,0,0,1,.19.2Q118.88,41.52,118.88,41.86Z" transform="translate(-27.7 -34.32)"/><path class="cls-6" d="M123.63,48.2l.11.2a28.26,28.26,0,0,1-2.7,1.5l-.37-.12a.18.18,0,0,1,0-.09.81.81,0,0,0,.69-.18Z" transform="translate(-27.7 -34.32)"/><path class="cls-10" d="M62.64,41.68h0c-.35,0-.28.33-.4.51s-.08.38-.3.38-.23-.24-.3-.39-.19-.49-.29-.73c0-.08-.09-.17,0-.22a.17.17,0,0,1,.21.11c.11.24.21.48.32.73a1.43,1.43,0,0,0,.28-.54c.06-.13.08-.35.3-.28s0,.23,0,.34A.53.53,0,0,0,62.64,41.68Z" transform="translate(-27.7 -34.32)"/><path class="cls-12" d="M120.65,49.69a.18.18,0,0,0,0,.09h0c-.15,0-.3-.09-.46-.12a.61.61,0,0,0-.67.32.7.7,0,0,0,0,.8c.3.41.7.3,1.1.17l0,0v.18l-.19.07-.1,0a.12.12,0,0,0-.14.08H120l-.08,0a.2.2,0,0,0-.22-.07c-.5-.39-.63-.83-.38-1.27a.91.91,0,0,1,1.23-.33l.11.1Z" transform="translate(-27.7 -34.32)"/><path class="cls-6" d="M125.36,57.6l0-.2c.86-.6,1.8-1.07,2.71-1.6l.16.16a.44.44,0,0,1,0,.09c-.81.33-1.51.86-2.28,1.26Z" transform="translate(-27.7 -34.32)"/><path class="cls-5" d="M104.19,49.16c.14-.63.74-.7,1.19-.93.13-.07.28-.07.4-.21a.22.22,0,0,1,.39,0,.25.25,0,0,1-.17.38c-.39.14-.78.29-1.18.4-.24.06-.29.49-.63.32Z" transform="translate(-27.7 -34.32)"/><path class="cls-6" d="M123.63,57.38l0,.2A22.61,22.61,0,0,1,121,56l.05-.19A26.69,26.69,0,0,1,123.63,57.38Z" transform="translate(-27.7 -34.32)"/><path class="cls-1" d="M113.18,52.87c.35,0,.66.12.64.45a.71.71,0,0,1-.61.56c-.28,0-.48-.27-.49-.53A.42.42,0,0,1,113.18,52.87Z" transform="translate(-27.7 -34.32)"/><path class="cls-8" d="M76.34,41.87c0-.23,0-.46,0-.69s0-.21.17-.21.17.1.17.21c0,.28,0,.56,0,.84s0,.49.38.44c.12,0,.33-.06.32.16s-.2.14-.33.15C76.34,42.81,76.34,42.81,76.34,41.87Z" transform="translate(-27.7 -34.32)"/><path class="cls-9" d="M64.48,60c.14.26.38,0,.56.15a.51.51,0,0,1-.89-.49.49.49,0,0,1,.56-.3c.18,0,.35.14.35.34C65,60.06,64.65,59.77,64.48,60Z" transform="translate(-27.7 -34.32)"/><path class="cls-6" d="M62.42,57.42c0-.31.11-.5.45-.52s.52.13.46.37.08.67-.38.67A.48.48,0,0,1,62.42,57.42Zm.55.22s.08,0,.08-.08-.07-.1-.13-.1-.15,0-.13.1S62.88,57.65,63,57.64Z" transform="translate(-27.7 -34.32)"/><path class="cls-10" d="M60,45c-.35,0-.2-.3-.24-.49s0-.23-.15-.24-.15.12-.16.22,0,.35-.19.57a4,4,0,0,1-.06-1.33c0-.08.15-.1.15-.09,0,.49.57.29.69.61Z" transform="translate(-27.7 -34.32)"/><path class="cls-9" d="M61.4,57.37c0-.15-.09-.41.21-.43s.48-.13.64.12a.91.91,0,0,1,0,.77c0,.15-.18.07-.22,0a1.55,1.55,0,0,1,0-.31c0-.1,0-.24-.13-.25s-.17.15-.19.26,0,.07,0,.11,0,.29-.14.29-.15-.16-.16-.28S61.4,57.46,61.4,57.37Z" transform="translate(-27.7 -34.32)"/><path class="cls-8" d="M84.42,41.88c0,.21,0,.42,0,.64s0,.25-.2.25-.17-.15-.17-.27c0-.42,0-.85,0-1.27,0-.13,0-.25.19-.24s.18.14.18.26S84.42,41.66,84.42,41.88Z" transform="translate(-27.7 -34.32)"/><path class="cls-12" d="M58.1,44.79c.16-.12.23,0,.31,0s.26,0,.31-.12-.08-.21-.19-.26c-.28-.1-.52-.25-.32-.57s.45-.27.72-.08c0,.16-.12.11-.2.11s-.27-.07-.31.1.12.19.23.23.37.16.37.39a.42.42,0,0,1-.3.39A.49.49,0,0,1,58.1,44.79Z" transform="translate(-27.7 -34.32)"/><path class="cls-10" d="M37,63.34a.77.77,0,0,1,1-.27,1,1,0,0,0-.46.9c-.06.54-.33,0-.5,0h0c.3-.14.14-.28,0-.42Z" transform="translate(-27.7 -34.32)"/><path class="cls-9" d="M47.19,50.1c0,.12,0,.22.15.26l-.06.06c-.15,0-.13.12-.11.23-.26.19-.23,0-.26-.18s.08-.33-.13-.33-.11.21-.14.34,0,.37-.28.17V49.9c0-.12,0-.3.08-.34s.16.13.24.18.39.15.51.34Z" transform="translate(-27.7 -34.32)"/><path class="cls-8" d="M29.38,62.32c-.32,0-.66.12-1-.11.21,0,.43,0,.23-.33a.29.29,0,0,1,.06-.45.25.25,0,0,1,.37,0c.17.15.15.28,0,.45C28.73,62.32,29.37,62.11,29.38,62.32Z" transform="translate(-27.7 -34.32)"/><path class="cls-6" d="M120,51.3h.25c0,1.08-.06,2.16,0,3.24l-.29-.09Z" transform="translate(-27.7 -34.32)"/><path class="cls-10" d="M62,45c-.3,0-.21-.27-.23-.45s0-.27-.16-.28-.22.13-.23.29a2.16,2.16,0,0,1,0,.32.15.15,0,0,1-.1.09s-.11,0-.11-.07a2.45,2.45,0,0,1,0-.73c.06-.21.3-.1.47-.12a3,3,0,0,1,.42,0A3.38,3.38,0,0,1,62,45Z" transform="translate(-27.7 -34.32)"/><path class="cls-9" d="M58.07,42.25v-.32c.31-.09.56-.67,1-.11h-.26c-.17,0-.27.06-.27.23s0,.26.14.29.34.05.42-.09a1,1,0,0,0,0-.4h.09c.15.22,0,.47.08.71A1.32,1.32,0,0,1,58.07,42.25Z" transform="translate(-27.7 -34.32)"/><path class="cls-4" d="M110.22,48.16a.36.36,0,0,1-.39-.34.33.33,0,0,1,.33-.39c.25,0,.41.09.42.35S110.43,48.12,110.22,48.16Z" transform="translate(-27.7 -34.32)"/><path class="cls-12" d="M59.56,42.23A.67.67,0,0,1,60,42c0-.3-.29-.07-.38-.23s0-.08.09-.1c.28-.11.52-.11.58.27v.41c-.2.38-.47.24-.73.09Z" transform="translate(-27.7 -34.32)"/><path class="cls-13" d="M128.2,56,128,55.8v-.13l0-.15v-.2l0-.15,0-.12.08-.16a.34.34,0,0,0,.23-.21c.1,0,.23,0,.3-.11l.16,0,.17,0,.29.18H129a.69.69,0,0,0-.83.48.61.61,0,0,0,.26.78.73.73,0,0,0,1-.14,1,1,0,0,1,.12-.1l0,.15a0,0,0,0,1,0,0l-.11.12h0l-.12.1a0,0,0,0,1,0,0l-.91,0h0l-.12-.1h0Z" transform="translate(-27.7 -34.32)"/><path class="cls-10" d="M60.19,44.16a.46.46,0,0,1,.63,0,.6.6,0,0,1,.09.69c-.13.26-.46.15-.7.17-.08-.27-.06-.49.27-.54.09,0,.18,0,.15-.16s-.13-.09-.21-.06A.16.16,0,0,1,60.19,44.16Z" transform="translate(-27.7 -34.32)"/><path class="cls-9" d="M50.36,49.83c.34.18,0,.63.36.62s0-.43.31-.59a.77.77,0,0,1,0,.81.43.43,0,0,1-.54,0C50.2,50.47,50.32,50.17,50.36,49.83Z" transform="translate(-27.7 -34.32)"/><path class="cls-12" d="M59.88,56.93a.6.6,0,0,1,.5.86s-.07.1-.1.1-.15,0-.16-.09a2.4,2.4,0,0,1,0-.37c0-.11,0-.27-.15-.29s-.15.15-.16.27,0,.32-.08.48c-.24-.06-.15-.27-.18-.42S59.59,57,59.88,56.93Z" transform="translate(-27.7 -34.32)"/><path class="cls-5" d="M104.39,57.77c0,.21-.14.4-.39.38s-.35-.21-.35-.45.16-.37.41-.36S104.4,57.51,104.39,57.77Z" transform="translate(-27.7 -34.32)"/><path class="cls-12" d="M37,63.34v.23c-.23.17-.49,0-.73.09a.46.46,0,0,0-.25-.27.44.44,0,0,1,.47-.4A.42.42,0,0,1,37,63.34Z" transform="translate(-27.7 -34.32)"/><path class="cls-9" d="M63.16,59.52c.27,0,.5-.39.81-.13,0,.27-.47.1-.41.46s.3.18.43.31c-.37.26-.62.18-.71-.22,0-.14.07-.33-.12-.43Z" transform="translate(-27.7 -34.32)"/><path class="cls-9" d="M45.42,50.42v-.15c.05-.41.32-.44.65-.38.4.47-.12.41-.31.49,0,.28.44,0,.37.36C45.83,50.79,45.55,50.77,45.42,50.42Z" transform="translate(-27.7 -34.32)"/><path class="cls-12" d="M43.18,48.51c-.07.2-.17.35-.37.34a.36.36,0,0,1-.35-.33.35.35,0,0,1,.38-.34C43,48.19,43.12,48.35,43.18,48.51Z" transform="translate(-27.7 -34.32)"/><path class="cls-5" d="M112,52c-.28-.28-.15-.68-.38-.94-.07-.08,0-.19.13-.25a.21.21,0,0,1,.24,0A1.16,1.16,0,0,1,112,52Z" transform="translate(-27.7 -34.32)"/><path class="cls-10" d="M50.22,50.31c0,.27-.15.44-.43.44a.39.39,0,0,1-.44-.46.42.42,0,0,1,.42-.45C50.06,49.84,50.18,50,50.22,50.31Zm-.46-.25a.22.22,0,0,0-.18.25c0,.14.05.24.2.24s.2-.11.2-.24A.22.22,0,0,0,49.76,50.06Z" transform="translate(-27.7 -34.32)"/><path class="cls-5" d="M111.92,55.13a1,1,0,0,0-.94-.24s0-.14.07-.13c.48,0,.66-.33.84-.67C112.36,54.45,111.9,54.79,111.92,55.13Z" transform="translate(-27.7 -34.32)"/><path class="cls-8" d="M41,50.54c-.07.2-.19.34-.38.32a.32.32,0,1,1,0-.63A.38.38,0,0,1,41,50.54Z" transform="translate(-27.7 -34.32)"/><path class="cls-10" d="M52.85,50.54a.64.64,0,0,1,.13-1c.25-.19.5-.15.77.14-.28.08-.55-.12-.72.13a.65.65,0,0,0,0,.56Z" transform="translate(-27.7 -34.32)"/><path class="cls-9" d="M60.85,57.23c-.09.22.13.63-.15.64s-.16-.4-.15-.63-.15-.68.14-.69S60.76,57,60.85,57.23Z" transform="translate(-27.7 -34.32)"/><path class="cls-8" d="M30.34,60.64c-.18-.05-.34-.16-.34-.35a.32.32,0,0,1,.64,0C30.68,60.46,30.5,60.55,30.34,60.64Z" transform="translate(-27.7 -34.32)"/><path class="cls-4" d="M41.71,49.88c-.08.17-.18.3-.35.28a.3.3,0,0,1-.29-.31.3.3,0,0,1,.33-.27C41.57,49.59,41.65,49.74,41.71,49.88Z" transform="translate(-27.7 -34.32)"/><path class="cls-10" d="M60.3,42.35v-.41c.3-.09.12-.35.18-.53s0-.18.15-.19.12.1.12.19,0,.42,0,.63C60.74,42.58,60.74,42.58,60.3,42.35Z" transform="translate(-27.7 -34.32)"/><path class="cls-8" d="M30,61c-.06.16-.16.3-.33.3A.32.32,0,0,1,29.3,61a.3.3,0,0,1,.31-.3C29.8,60.68,29.91,60.83,30,61Z" transform="translate(-27.7 -34.32)"/><path class="cls-6" d="M47.27,50.42l.06-.06c0-.1.13-.12.21-.14s.21-.15.32-.23L48,50l.06.32c-.08.48-.2.53-.82.32Z" transform="translate(-27.7 -34.32)"/><path class="cls-5" d="M88.51,58.82a.81.81,0,0,1-.6-.14h2.81a.93.93,0,0,1-.67.13A2.37,2.37,0,0,0,88.51,58.82Z" transform="translate(-27.7 -34.32)"/><path class="cls-10" d="M48.06,50c.33-.29.22.26.47.19l.08-.11c.06-.11.13-.25.27-.15s0,.18-.06.26,0,.1-.07.14-.08.4-.29.39-.16-.28-.29-.4Z" transform="translate(-27.7 -34.32)"/><path class="cls-4" d="M31,59.94c-.17-.07-.33-.16-.29-.34a.29.29,0,0,1,.34-.25.29.29,0,0,1,.25.3C31.32,59.81,31.18,59.89,31,59.94Z" transform="translate(-27.7 -34.32)"/><path class="cls-8" d="M42.43,49.19a.37.37,0,0,1-.3.32.31.31,0,1,1-.07-.61C42.26,48.86,42.35,49,42.43,49.19Z" transform="translate(-27.7 -34.32)"/><path class="cls-12" d="M129,54.56l-.17,0a21.93,21.93,0,0,0,0-3.26c0-.13.09-.16.19-.18l0,.21v3.25Z" transform="translate(-27.7 -34.32)"/><path class="cls-1" d="M60.5,39.25H57.33v0H60.5Z" transform="translate(-27.7 -34.32)"/><path class="cls-8" d="M27.77,62.68h1.62A2.26,2.26,0,0,1,27.77,62.68Z" transform="translate(-27.7 -34.32)"/><path class="cls-6" d="M61.29,57.41c-.09.17.1.49-.19.47s-.14-.32-.14-.5-.08-.44.15-.43S61.19,57.27,61.29,57.41Z" transform="translate(-27.7 -34.32)"/><path class="cls-10" d="M63.16,59.52h0a.43.43,0,0,0-.31.46c0,.14,0,.32-.2.34v-.94C62.84,59.35,63.07,59.21,63.16,59.52Z" transform="translate(-27.7 -34.32)"/><path class="cls-14" d="M88.51,58.82a2.37,2.37,0,0,1,1.53,0A4.37,4.37,0,0,1,88.51,58.82Z" transform="translate(-27.7 -34.32)"/><path class="cls-10" d="M51.79,49.94c-.35.16-.26.53-.41.85A1,1,0,0,1,51.3,50C51.36,49.79,51.59,49.84,51.79,49.94Z" transform="translate(-27.7 -34.32)"/><path class="cls-12" d="M37,64h0c-.39.4-.61.38-.95-.07a.21.21,0,0,1,.21-.1C36.47,64.17,36.78,63.9,37,64Z" transform="translate(-27.7 -34.32)"/><path class="cls-1" d="M60.19,44.16a.16.16,0,0,0,.22.08c.09,0,.18,0,.21.06s-.06.14-.15.16c-.34.06-.36.27-.27.54H60l0-.74Z" transform="translate(-27.7 -34.32)"/><path class="cls-1" d="M111.29,57.42c0,.13-.07.33-.26.32s-.24-.22-.25-.4.14-.21.29-.21S111.31,57.24,111.29,57.42Z" transform="translate(-27.7 -34.32)"/><path class="cls-10" d="M59.56,42.23v.21l-.33.11c0-.23.07-.48-.08-.71,0-.07,0-.15.05-.19s.16,0,.18.11S59.35,42.13,59.56,42.23Z" transform="translate(-27.7 -34.32)"/><path class="cls-1" d="M62.66,59.36v.94h-.28c.09-.41-.44,0-.42-.38.21-.1.75.07.5-.51Z" transform="translate(-27.7 -34.32)"/><path class="cls-1" d="M46.13,50.74c.07-.34-.35-.07-.37-.36.19-.08.71,0,.31-.49h.27v.75Z" transform="translate(-27.7 -34.32)"/><path class="cls-9" d="M52.85,50.54,53,50.4c.21.15.46.05.72.09C53.38,50.85,53.25,50.86,52.85,50.54Z" transform="translate(-27.7 -34.32)"/><path class="cls-1" d="M62,45a3.38,3.38,0,0,0,0-.95h.22l0,.93Z" transform="translate(-27.7 -34.32)"/><path class="cls-5" d="M59.88,56.93c-.29.06-.35.29-.37.54l-.16,0V57C59.53,56.91,59.68,56.77,59.88,56.93Z" transform="translate(-27.7 -34.32)"/><path class="cls-12" d="M129.62,55.91l0-.15v-.68C129.93,55.35,129.81,55.63,129.62,55.91Z" transform="translate(-27.7 -34.32)"/><path class="cls-12" d="M128.41,56.17l.91,0A.64.64,0,0,1,128.41,56.17Z" transform="translate(-27.7 -34.32)"/><path class="cls-1" d="M47.87,50c-.11.07-.14.26-.32.23,0-.14,0-.27.16-.34S47.86,49.89,47.87,50Z" transform="translate(-27.7 -34.32)"/><path class="cls-6" d="M129,54.56v-.12c.15.09.39.08.38.35l-.1,0Z" transform="translate(-27.7 -34.32)"/><path class="cls-5" d="M80.65,42.33l0,.43h-.15v-.37Z" transform="translate(-27.7 -34.32)"/><path class="cls-1" d="M47.19,50.1v0c0-.08.07-.2.2-.2s0,.06,0,.09S47.3,50.11,47.19,50.1Z" transform="translate(-27.7 -34.32)"/><path class="cls-1" d="M48.06,50l.12.32H48L48,50Z" transform="translate(-27.7 -34.32)"/><path class="cls-8" d="M28.23,61.26l-.12-.11C28.23,61.1,28.26,61.15,28.23,61.26Z" transform="translate(-27.7 -34.32)"/><path class="cls-6" d="M125.35,48v-.36A.26.26,0,0,1,125.35,48Z" transform="translate(-27.7 -34.32)"/><path class="cls-10" d="M130.56,62.37l-.13-.15c.05-.1.1-.22.22-.05a.21.21,0,0,1,0,.08Z" transform="translate(-27.7 -34.32)"/><path class="cls-6" d="M125.36,58.12v-.29A.21.21,0,0,1,125.36,58.12Z" transform="translate(-27.7 -34.32)"/><path class="cls-14" d="M84.3,49.69c0,.09,0,.18-.09.22Z" transform="translate(-27.7 -34.32)"/><path class="cls-1" d="M47.27,50.42l-.07.23h0C47.15,50.55,47.12,50.44,47.27,50.42Z" transform="translate(-27.7 -34.32)"/><path class="cls-6" d="M119.69,51.18a.2.2,0,0,1,.22.07Z" transform="translate(-27.7 -34.32)"/><path class="cls-6" d="M120.65,49.69l-.11-.1Z" transform="translate(-27.7 -34.32)"/><path class="cls-12" d="M129.37,56.17l.12-.1Z" transform="translate(-27.7 -34.32)"/><path class="cls-12" d="M128.29,56.08l.12.1Z" transform="translate(-27.7 -34.32)"/><path class="cls-12" d="M130.64,62.25a.21.21,0,0,0,0-.08l0,.07Z" transform="translate(-27.7 -34.32)"/><path class="cls-12" d="M129.48,56.08l.11-.12Z" transform="translate(-27.7 -34.32)"/><path class="cls-12" d="M129.6,55.1l-.06-.09Z" transform="translate(-27.7 -34.32)"/><path class="cls-12" d="M128.2,56l.1.12a.1.1,0,0,1-.09,0A.44.44,0,0,0,128.2,56Z" transform="translate(-27.7 -34.32)"/><path class="cls-2" d="M62.94,50.59c-.09.64-.17,1.29-.26,1.93,0,.32-.21.45-.54.44q-1.27,0-2.53,0c-.32,0-.49-.12-.53-.44-.08-.65-.17-1.29-.26-1.93Zm-1.07,1.13c.15.2-.16.66.26.66s.17-.43.18-.67.12-.6-.24-.58S62,51.5,61.86,51.71Zm-2,.06a1.62,1.62,0,0,0,0-.25c0-.15.1-.41-.17-.42s-.24.25-.25.44a1,1,0,0,0,0,.21c0,.22-.13.62.19.62S59.8,52,59.87,51.77Zm.85,0c0-.07,0-.14,0-.21s0-.45-.22-.46-.17.28-.2.44a2.25,2.25,0,0,0,0,.42c0,.17,0,.41.2.42s.21-.23.22-.4S60.72,51.85,60.72,51.78Zm.75,0a1.63,1.63,0,0,0,0-.25c0-.16.1-.41-.17-.43s-.25.24-.25.43a1,1,0,0,0,0,.21c0,.22-.12.62.19.63S61.39,52,61.47,51.78Z" transform="translate(-27.7 -34.32)"/><path class="cls-2" d="M62.94,50.59H58.82c-.47-.39-.45-.58.1-.93l.54.49c.18.16.37.38.62.13s0-.4-.15-.57l.93-.07h0l.92.06c-.12.17-.38.33-.14.57s.44,0,.62-.13l.54-.49C63.39,50,63.4,50.18,62.94,50.59Z" transform="translate(-27.7 -34.32)"/><path class="cls-15" d="M60.9,49.64h0c-.43-.13-.77-.34-.64-.86a.63.63,0,0,1,.83-.45.6.6,0,0,1,.5.6C61.57,49.37,61.25,49.53,60.9,49.64Z" transform="translate(-27.7 -34.32)"/><path class="cls-2" d="M62.83,49.66l-.54.49c-.18.16-.37.38-.62.13s0-.4.14-.57l.79-.71c.18-.16.38-.34.59-.11s0,.38-.16.53Z" transform="translate(-27.7 -34.32)"/><path class="cls-2" d="M59.93,49.71c.12.17.39.33.15.57s-.44,0-.62-.13l-.54-.49c-.12-.26-.67-.42-.35-.75s.56.14.8.32S59.74,49.55,59.93,49.71Z" transform="translate(-27.7 -34.32)"/><path class="cls-16" d="M88.72,50.56a1.21,1.21,0,1,1,0,2.41,1.21,1.21,0,0,1,0-2.41Z" transform="translate(-27.7 -34.32)"/><path class="cls-16" d="M31.93,57a4,4,0,0,1,1.22-5.3,4.53,4.53,0,0,1,7,2.35,3.53,3.53,0,0,1-.39,2.9,2.59,2.59,0,0,0-1.53-1.3.89.89,0,0,0-1,.21,2,2,0,0,1-2.91,0,.8.8,0,0,0-.81-.21A2.43,2.43,0,0,0,31.93,57Zm3.89-2a1.53,1.53,0,1,0-1.59-1.54A1.6,1.6,0,0,0,35.82,55Z" transform="translate(-27.7 -34.32)"/><path class="cls-17" d="M31.93,57a2.43,2.43,0,0,1,1.65-1.37.8.8,0,0,1,.81.21,2,2,0,0,0,2.91,0,.89.89,0,0,1,1-.21A2.59,2.59,0,0,1,39.79,57a3.63,3.63,0,0,1-2.2,2,4.61,4.61,0,0,1-5.32-1.36A1.37,1.37,0,0,1,31.93,57Z" transform="translate(-27.7 -34.32)"/><path class="cls-1" d="M36,44.93c-.33.21-.51.28-.67.1s0-.22,0-.24C35.6,44.64,35.71,44.91,36,44.93Z" transform="translate(-27.7 -34.32)"/><path class="cls-1" d="M82.14,60.82c.31-.14.49-.31.66-.05.06.09.17.27.06.33C82.58,61.24,82.46,60.92,82.14,60.82Z" transform="translate(-27.7 -34.32)"/><path class="cls-1" d="M54,34.32c.15.07.35.09.37.31s-.06.35-.17.34-.23-.3-.32-.47S53.84,34.32,54,34.32Z" transform="translate(-27.7 -34.32)"/><path class="cls-1" d="M40.29,47.38c-.24.16-.42.27-.63.09s-.13-.21,0-.27S40,47.29,40.29,47.38Z" transform="translate(-27.7 -34.32)"/><path class="cls-1" d="M80.85,56.2a1.43,1.43,0,0,1-.42-.61C80.93,55.57,80.94,55.57,80.85,56.2Z" transform="translate(-27.7 -34.32)"/><path class="cls-1" d="M66.95,65c-.22,0-.5.07-.49-.28,0-.08,0-.22.09-.21C66.84,64.52,66.79,64.84,66.95,65Z" transform="translate(-27.7 -34.32)"/><path class="cls-1" d="M66.47,36.06c-.13,0-.2,0-.17-.14s0-.38.28-.37c.1,0,.26,0,.25.11S66.62,36,66.47,36.06Z" transform="translate(-27.7 -34.32)"/><path class="cls-1" d="M80.87,49.93c.12.53,0,.7-.54.56A1.74,1.74,0,0,1,80.87,49.93Z" transform="translate(-27.7 -34.32)"/><path class="cls-1" d="M39.36,62.55c.07,0,.22,0,.16.16a.51.51,0,0,1-.33.32c-.16,0-.14-.11-.14-.21S39.14,62.53,39.36,62.55Z" transform="translate(-27.7 -34.32)"/><path class="cls-16" d="M128,55.32v.2l0,.15v.13c-.91.52-1.85,1-2.71,1.6l-.14,0-.12-.29a27.21,27.21,0,0,0,1.42-2.39c.19-.32.36-.37.66-.18s.58.32.87.48l0,.12Z" transform="translate(-27.7 -34.32)"/><path class="cls-16" d="M125,48.42c.11.1.21,0,.31,0,.71.52,1.51.9,2.26,1.35a.65.65,0,0,1,0,1.21c-.86.54-.86.54-1.38-.35l-1.18-2c0-.07.07-.15,0-.2Z" transform="translate(-27.7 -34.32)"/><path class="cls-9" d="M126.42,53.89l0,.21a3.26,3.26,0,0,1-1.64.94c-.2,0-.15.25-.15.4,0,.52,0,1,0,1.57l-.16-.1c0-.49,0-1,0-1.48,0-.29-.08-.39-.36-.45s-.9-.2-1-.73l.54.32c.6.38,1.9.34,2.24-.32h0a1.3,1.3,0,0,0,.53-.63,2,2,0,0,0-.68-2.31,1.93,1.93,0,0,0-2.82,2.46c.08.15.22.28.21.48-.18.07-.26-.17-.43-.13v-.22a2.53,2.53,0,0,1-.06-1.75c.1-.27,0-.32-.26-.25l-.11-.13a.15.15,0,0,1,0-.06l0-.27.17,0,.17.18c.13.12.25.09.35,0a2.34,2.34,0,0,1,1.52-.82h.25a3.21,3.21,0,0,1,1.78,1l.06.17A3,3,0,0,1,126.42,53.89Z" transform="translate(-27.7 -34.32)"/><path class="cls-1" d="M128.75,51.28a21.93,21.93,0,0,1,0,3.26l-.16,0a5.92,5.92,0,0,1-1-1.58c-.06-.1,0-.2,0-.3.24-.41.48-.82.71-1.24a.33.33,0,0,1,.39-.18Z" transform="translate(-27.7 -34.32)"/><path class="cls-1" d="M124.58,57c0-.52,0-1,0-1.57,0-.15,0-.38.15-.4a3.26,3.26,0,0,0,1.64-.94c.2.21,0,.36-.09.51-.47.83-.94,1.66-1.41,2.49A.33.33,0,0,1,124.58,57Z" transform="translate(-27.7 -34.32)"/><path class="cls-1" d="M126.39,51.71a3.2,3.2,0,0,0-1.78-1v-2h0a.32.32,0,0,1,.39.17c.45.8.91,1.59,1.36,2.38A.41.41,0,0,1,126.39,51.71Z" transform="translate(-27.7 -34.32)"/><path class="cls-13" d="M128.75,51.28h0c.13-.22-.1-.23-.19-.29a.68.68,0,0,1-.33-.86.69.69,0,0,1,1.32.12.67.67,0,0,1-.47.79l-.15.06C128.84,51.12,128.74,51.15,128.75,51.28Z" transform="translate(-27.7 -34.32)"/><path class="cls-1" d="M127.43,52.56a2,2,0,0,1-.45-.64.22.22,0,0,1,.08-.35L128,51a.19.19,0,0,1,.24,0,.17.17,0,0,1,0,.24l-.69,1.19A.54.54,0,0,1,127.43,52.56Z" transform="translate(-27.7 -34.32)"/><path class="cls-1" d="M128.32,54.69a.34.34,0,0,1-.23.21,4.81,4.81,0,0,0-.71-.44c-.49-.2-.53-.48-.23-.88.09-.11.16-.23.29-.42Z" transform="translate(-27.7 -34.32)"/><path class="cls-1" d="M126.42,53.89a3,3,0,0,0,0-2c.33,0,.92.86.75,1.14S127,53.92,126.42,53.89Z" transform="translate(-27.7 -34.32)"/><path class="cls-8" d="M124.58,57a.33.33,0,0,0,.31.09l.18,0,.12.29-.13,0a.9.9,0,0,0-.95-.11l-.21,0,0-.19.16,0a.24.24,0,0,0,.34-.18Z" transform="translate(-27.7 -34.32)"/><path class="cls-1" d="M79.44,52.93v-.72C79.94,52.52,79.94,52.54,79.44,52.93Z" transform="translate(-27.7 -34.32)"/><path class="cls-1" d="M66.87,52.13c0,.3.13.54-.1.7-.08.05-.2-.08-.24-.17C66.42,52.37,66.68,52.32,66.87,52.13Z" transform="translate(-27.7 -34.32)"/><path class="cls-1" d="M52.89,52.5c0-.37-.14-.66.09-.84s.28.14.33.26C53.42,52.22,53.14,52.28,52.89,52.5Z" transform="translate(-27.7 -34.32)"/><path class="cls-1" d="M44.15,52c0,.11.06.28-.11.31a.27.27,0,0,1-.28-.26.27.27,0,0,1,.26-.29C44.17,51.73,44.13,51.89,44.15,52Z" transform="translate(-27.7 -34.32)"/><path class="cls-1" d="M115.13,53c0,.11.08.33-.15.31a.31.31,0,0,1-.26-.34.3.3,0,0,1,.26-.29C115.21,52.7,115.08,52.92,115.13,53Z" transform="translate(-27.7 -34.32)"/><path class="cls-1" d="M118.32,53c0-.1,0-.25.12-.25a.28.28,0,0,1,.27.28.27.27,0,0,1-.27.27C118.27,53.25,118.34,53.07,118.32,53Z" transform="translate(-27.7 -34.32)"/><path class="cls-1" d="M131.49,52.69c0,.12.07.33-.12.34a.31.31,0,0,1-.29-.32.32.32,0,0,1,.29-.32C131.54,52.39,131.46,52.58,131.49,52.69Z" transform="translate(-27.7 -34.32)"/><path class="cls-1" d="M134.67,52.76c0-.14-.07-.35.13-.36a.32.32,0,0,1,0,.64C134.61,53,134.72,52.84,134.67,52.76Z" transform="translate(-27.7 -34.32)"/><path class="cls-1" d="M99.94,52.75c.06-.12-.1-.37.16-.34a.37.37,0,0,1,.31.36.39.39,0,0,1-.34.35C99.84,53.12,100,52.87,99.94,52.75Z" transform="translate(-27.7 -34.32)"/><path class="cls-1" d="M96.7,52.42c0,.23.18.47-.07.62,0,0-.19-.1-.23-.18C96.27,52.58,96.56,52.55,96.7,52.42Z" transform="translate(-27.7 -34.32)"/><path class="cls-5" d="M79.61,41.53c.15.17.34.33.18.54a.21.21,0,0,1-.29,0C79.29,41.87,79.59,41.72,79.61,41.53Z" transform="translate(-27.7 -34.32)"/><path class="cls-1" d="M63.35,42.1c0-.12,0-.26.18-.26s.18.13.18.26,0,.26-.18.26S63.35,42.22,63.35,42.1Z" transform="translate(-27.7 -34.32)"/><path class="cls-1" d="M65.75,42.12c0,.14,0,.25-.22.23s-.16-.16-.16-.28,0-.26.21-.23S65.74,42,65.75,42.12Z" transform="translate(-27.7 -34.32)"/><path class="cls-1" d="M83.7,46.2c.08.6,0,.66-.6.47A2,2,0,0,1,83.7,46.2Z" transform="translate(-27.7 -34.32)"/><path class="cls-1" d="M115.32,41.91c0,.32-.14.58-.54.57s-.49-.3-.5-.62.14-.61.51-.62S115.29,41.56,115.32,41.91Z" transform="translate(-27.7 -34.32)"/><path class="cls-1" d="M58,59.56a.24.24,0,0,1,.25.27c0,.15-.08.27-.26.26a.23.23,0,0,1-.21-.25A.24.24,0,0,1,58,59.56Z" transform="translate(-27.7 -34.32)"/><path class="cls-1" d="M81.29,41.79c-.24,0-.29,0-.28-.19s-.09-.35.18-.34.32,0,.33.25A.26.26,0,0,1,81.29,41.79Z" transform="translate(-27.7 -34.32)"/><path class="cls-16" d="M123.92,57.13l0,.19-.27.06a26.7,26.7,0,0,0-2.6-1.53V55a5,5,0,0,0,.75-.39c.4-.3.59-.16.81.23A19.12,19.12,0,0,0,123.92,57.13Z" transform="translate(-27.7 -34.32)"/><path class="cls-6" d="M123.92,57.13a19.12,19.12,0,0,1-1.35-2.27c-.22-.39-.41-.54-.81-.23A5,5,0,0,1,121,55a.46.46,0,0,1-.26-.22c1.22-.19,1.5-.68.86-1.53l-.09,0a5.26,5.26,0,0,0-.78,1.56l-.32-.22c.23-.38.44-.77.7-1.12a.82.82,0,0,0,0-1.1,9.85,9.85,0,0,1-.63-1.1l.19-.07.87,1.38c.33-.18.34-.56.59-.77l.11.13-.39.74a1.11,1.11,0,0,0,.7,1.25v.22c-.06.23.09.4.19.58.43.8,1,1.55,1.33,2.38Z" transform="translate(-27.7 -34.32)"/><path class="cls-16" d="M120.48,51.24a9.85,9.85,0,0,0,.63,1.1.82.82,0,0,1,0,1.1c-.26.36-.47.75-.7,1.12l-.16,0c-.1-1.08,0-2.16,0-3.24h0l.14-.08Z" transform="translate(-27.7 -34.32)"/><path class="cls-13" d="M120.21,54.78a.6.6,0,0,1,.55.67.62.62,0,0,1-.65.67.68.68,0,1,1,.1-1.34Z" transform="translate(-27.7 -34.32)"/><path class="cls-1" d="M57.86,42.1c0,.15-.06.28-.24.27s-.22-.14-.21-.29,0-.28.23-.27S57.86,42,57.86,42.1Z" transform="translate(-27.7 -34.32)"/><path class="cls-1" d="M58.69,56.74a.41.41,0,0,1,.42.44c0,.27-.1.46-.38.47s-.45-.16-.45-.46A.41.41,0,0,1,58.69,56.74Z" transform="translate(-27.7 -34.32)"/><path class="cls-16" d="M122.32,51.42l-.17,0L121,50.73v-.18a.18.18,0,0,0,0-.25l0-.39a28.26,28.26,0,0,0,2.7-1.5l.12.11c0,.19-.09.33-.18.48Z" transform="translate(-27.7 -34.32)"/><path class="cls-1" d="M124.36,50.74a2.34,2.34,0,0,0-1.52.82c-.1.13-.21.17-.35,0l1.56-2.87.2,0,.1,0h0Z" transform="translate(-27.7 -34.32)"/><path class="cls-13" d="M125,48.42a3,3,0,0,1-.45.12.66.66,0,0,1-.74-.46.65.65,0,0,1,.26-.83.63.63,0,0,1,.83,0,.69.69,0,0,1,.24.88l-.14.28Z" transform="translate(-27.7 -34.32)"/><path class="cls-6" d="M124.06,48.74l-1.56,2.87-.17-.18L123.69,49c.09-.15.21-.29.18-.48A.22.22,0,0,1,124.06,48.74Z" transform="translate(-27.7 -34.32)"/><path class="cls-6" d="M124.36,50.74v-2h.24v2Z" transform="translate(-27.7 -34.32)"/><path class="cls-6" d="M124.36,48.74l-.1,0C124.32,48.66,124.35,48.68,124.36,48.74Z" transform="translate(-27.7 -34.32)"/><path class="cls-16" d="M37,64c-.24-.08-.56.18-.74-.16l0-.17c.24,0,.5.08.73-.09C37.16,63.7,37.32,63.84,37,64Z" transform="translate(-27.7 -34.32)"/><path class="cls-13" d="M124.11,57.34a.9.9,0,0,1,.95.11c.28.64.14,1.09-.37,1.19a.69.69,0,0,1-.79-.31C123.65,57.95,123.85,57.64,124.11,57.34Z" transform="translate(-27.7 -34.32)"/><path class="cls-12" d="M121,49.91l0,.39V51l-.29,0,0,0a1.27,1.27,0,0,0,0-1.16h0Z" transform="translate(-27.7 -34.32)"/><path class="cls-13" d="M120.66,49.79a1.27,1.27,0,0,1,0,1.16c-.39.14-.8.24-1.1-.17a.7.7,0,0,1,0-.8.61.61,0,0,1,.67-.32C120.35,49.7,120.5,49.75,120.66,49.79Z" transform="translate(-27.7 -34.32)"/><path class="cls-1" d="M120.68,51l.29,0,1.16.77a.15.15,0,0,0,0,.06c-.25.2-.26.58-.59.77l-.87-1.38Z" transform="translate(-27.7 -34.32)"/><path class="cls-6" d="M120.38,51.22l-.14.08A.12.12,0,0,1,120.38,51.22Z" transform="translate(-27.7 -34.32)"/><path class="cls-16" d="M63,57.64c-.09,0-.16,0-.18-.08s.07-.1.13-.1.15,0,.13.1S63,57.62,63,57.64Z" transform="translate(-27.7 -34.32)"/><path class="cls-16" d="M59.07,41.85a1,1,0,0,1,0,.4c-.08.15-.27.13-.42.09s-.15-.17-.14-.29.11-.24.27-.23H59Z" transform="translate(-27.7 -34.32)"/><path class="cls-6" d="M128,55.32l0-.15Z" transform="translate(-27.7 -34.32)"/><path class="cls-6" d="M128,55.68l0-.15Z" transform="translate(-27.7 -34.32)"/><path class="cls-1" d="M49.76,50.06a.22.22,0,0,1,.23.25c0,.14-.05.24-.2.24s-.2-.1-.2-.24A.22.22,0,0,1,49.76,50.06Z" transform="translate(-27.7 -34.32)"/><path class="cls-12" d="M60.08,65.35a2.3,2.3,0,0,0,1.34,0c.26-.11.2.26.3.4s0,.25-.15.28-.37.08-.27-.24c0-.06-.16-.09-.23,0-.31.48-.55.26-.76-.08-.24,0,0,.34-.22.32A.56.56,0,0,1,60.08,65.35Z" transform="translate(-27.7 -34.32)"/><path class="cls-5" d="M62.77,66.41H59.09v-.11h3.68Z" transform="translate(-27.7 -34.32)"/><path class="cls-12" d="M59.77,66c-.31,0-.79.27-.75-.4,0-.24,0-.24.75-.2Z" transform="translate(-27.7 -34.32)"/><path class="cls-8" d="M59.77,66v-.6a.28.28,0,0,1,.31-.06.56.56,0,0,0,0,.69A.38.38,0,0,1,59.77,66Z" transform="translate(-27.7 -34.32)"/><path class="cls-2" d="M61.86,51.71c.11-.22-.13-.58.2-.6s.25.36.24.58.15.67-.18.67S62,51.91,61.86,51.71Z" transform="translate(-27.7 -34.32)"/><path class="cls-2" d="M59.87,51.77c-.07.18.16.6-.23.6s-.15-.4-.19-.62a1,1,0,0,1,0-.21c0-.19,0-.45.25-.44s.14.27.17.42A1.62,1.62,0,0,1,59.87,51.77Z" transform="translate(-27.7 -34.32)"/><path class="cls-2" d="M60.72,51.78c0,.07,0,.14,0,.21s0,.41-.22.4-.19-.25-.2-.42a2.25,2.25,0,0,1,0-.42c0-.17-.11-.45.2-.44s.21.27.22.46S60.72,51.71,60.72,51.78Z" transform="translate(-27.7 -34.32)"/><path class="cls-2" d="M61.47,51.78c-.08.18.16.6-.23.59s-.15-.4-.19-.63a1,1,0,0,1,0-.21c0-.19,0-.45.25-.43s.14.27.17.43A1.63,1.63,0,0,1,61.47,51.78Z" transform="translate(-27.7 -34.32)"/><path class="cls-4" d="M106.28,54.11a15.72,15.72,0,0,1,.13-2.32c.13-.58.39-.8.94-.81a1,1,0,0,1,1.08.91,17.39,17.39,0,0,1,.11,2.21l0,.79a1.86,1.86,0,0,1-2.33,0Zm1.84-1.56c.05-.37-.14-.48-.47-.45a.92.92,0,0,1-.37,0c-.6-.22-.58.18-.59.57a1,1,0,0,0,.17.49c.17.28.2.53-.15.7a.25.25,0,0,0-.15.34.83.83,0,0,0,.82.7.8.8,0,0,0,.84-.67c0-.1.09-.24,0-.29-.53-.27-.39-.62-.15-1A1.17,1.17,0,0,0,108.13,52.55Z" transform="translate(-27.7 -34.32)"/><path class="cls-1" d="M106.28,54.11l0,.78c-.25,0-.53-.11-.5-.4A.44.44,0,0,1,106.28,54.11Z" transform="translate(-27.7 -34.32)"/><path class="cls-1" d="M108.57,54.9l0-.79a.43.43,0,0,1,.53.38C109.1,54.77,108.82,54.86,108.57,54.9Z" transform="translate(-27.7 -34.32)"/><path class="cls-18" d="M35.82,55a1.53,1.53,0,1,1,1.65-1.53A1.59,1.59,0,0,1,35.82,55Z" transform="translate(-27.7 -34.32)"/><path class="cls-1" d="M125.76,54.26c-.34.66-1.64.7-2.24.32l-.54-.32h0c0-.19-.13-.32-.21-.48a1.93,1.93,0,0,1,2.82-2.46,2,2,0,0,1,.68,2.31,1.3,1.3,0,0,1-.53.63c0-.32.07-.68-.38-.77-.16-.34,0-.72-.14-1.06a1.82,1.82,0,0,1-.09-.4.54.54,0,0,0-.52-.61.66.66,0,0,0-.79.44,1.48,1.48,0,0,0-.12.69,1.62,1.62,0,0,0-.06.89.12.12,0,0,1,0,.06.45.45,0,0,0-.38.56c0,.19.22.25.39.08l.21,0a.15.15,0,0,0,.22,0h.84a.15.15,0,0,0,.22,0l.21,0C125.45,54.3,125.62,54.23,125.76,54.26Z" transform="translate(-27.7 -34.32)"/><path class="cls-16" d="M124.08,57.09c-.37-.83-.9-1.58-1.33-2.38-.1-.18-.25-.35-.19-.58.17,0,.25.2.43.13h0c.14.53.61.63,1,.73s.37.17.36.45c0,.49,0,1,0,1.48A.24.24,0,0,1,124.08,57.09Z" transform="translate(-27.7 -34.32)"/><path class="cls-1" d="M122.55,53.91a1.11,1.11,0,0,1-.7-1.25l.39-.74c.23-.07.36,0,.26.25A2.53,2.53,0,0,0,122.55,53.91Z" transform="translate(-27.7 -34.32)"/><path class="cls-6" d="M122.13,51.73,121,51v-.22l1.16.72Z" transform="translate(-27.7 -34.32)"/><path class="cls-1" d="M120.75,54.79a5.26,5.26,0,0,1,.78-1.56l.09,0c.63.85.36,1.33-.86,1.53Z" transform="translate(-27.7 -34.32)"/><path class="cls-6" d="M121,50.55V50.3A.18.18,0,0,1,121,50.55Z" transform="translate(-27.7 -34.32)"/><path class="cls-1" d="M108.13,52.55a1.17,1.17,0,0,1-.07.41c-.24.39-.38.73.15,1,.11.06,0,.19,0,.29a.8.8,0,0,1-.84.67.83.83,0,0,1-.82-.7.25.25,0,0,1,.15-.34c.35-.17.32-.43.15-.7a1,1,0,0,1-.17-.49c0-.39,0-.79.59-.57a.92.92,0,0,0,.37,0C108,52.08,108.18,52.18,108.13,52.55Z" transform="translate(-27.7 -34.32)"/><path class="cls-19" d="M123.84,51.86a.66.66,0,0,1,.79-.44.54.54,0,0,1,.52.61,1.82,1.82,0,0,0,.09.4c-.06.14-.15.27-.07.44a.31.31,0,0,1,0,.39.12.12,0,0,1-.18,0c-.11-.13,0-.26,0-.39s.26-.53-.2-.6l-.58,0c-.39.18-.22.45-.12.7s.11.23,0,.33a.15.15,0,0,1-.14,0c-.11-.06-.08-.18-.08-.28C123.83,52.6,123.83,52.23,123.84,51.86Z" transform="translate(-27.7 -34.32)"/><path class="cls-8" d="M125.33,54.17l-.21,0h-1.29l-.21,0c.11-.22.19-.43,0-.65a.12.12,0,0,0,0-.06.12.12,0,0,0,.07,0c.25,0,.19.18.22.32.6.44.8.4,1-.2.2-.24.21,0,.25.11S125.33,54,125.33,54.17Z" transform="translate(-27.7 -34.32)"/><path class="cls-10" d="M125.24,53.64c0-.14,0-.35-.25-.11-.27-.21-.55-.39-.17-.77a.33.33,0,0,0-.07-.51c.46.07.22.38.2.6s-.11.26,0,.39a.12.12,0,0,0,.18,0,.31.31,0,0,0,0-.39c-.08-.17,0-.3.07-.44.14.34,0,.72.14,1.06Z" transform="translate(-27.7 -34.32)"/><path class="cls-10" d="M124,53.73c0-.14,0-.33-.22-.32l0-.85a1.48,1.48,0,0,1,.12-.69c0,.37,0,.74,0,1.11,0,.1,0,.22.08.28a.15.15,0,0,0,.14,0c.13-.1.06-.21,0-.33s-.27-.53.12-.7a.51.51,0,0,0,.05.67c.18.19.12.32,0,.48A3.88,3.88,0,0,0,124,53.73Z" transform="translate(-27.7 -34.32)"/><path class="cls-5" d="M125.24,53.64l.13-.15c.45.1.38.45.38.77h0c-.14,0-.31,0-.43-.09S125.19,53.83,125.24,53.64Z" transform="translate(-27.7 -34.32)"/><path class="cls-5" d="M123.62,53.51c.2.21.12.43,0,.65s-.36.1-.39-.08A.45.45,0,0,1,123.62,53.51Z" transform="translate(-27.7 -34.32)"/><path class="cls-5" d="M123.72,52.55l0,.85a.12.12,0,0,1-.07,0A1.62,1.62,0,0,1,123.72,52.55Z" transform="translate(-27.7 -34.32)"/><path class="cls-5" d="M124.9,54.2h.22A.15.15,0,0,1,124.9,54.2Z" transform="translate(-27.7 -34.32)"/><path class="cls-5" d="M123.84,54.2h.22A.15.15,0,0,1,123.84,54.2Z" transform="translate(-27.7 -34.32)"/><path class="cls-1" d="M124,53.73a3.88,3.88,0,0,1,.26-.37c.14-.16.2-.3,0-.48a.51.51,0,0,1-.05-.67l.58,0a.33.33,0,0,1,.07.51c-.37.38-.1.56.17.77C124.75,54.13,124.55,54.17,124,53.73Z" transform="translate(-27.7 -34.32)"/><circle class="cls-18" cx="114.59" cy="18.39" r="5.14"/></svg>