<svg id="Layer_1" data-name="Layer 1" xmlns="http://www.w3.org/2000/svg" viewBox="0 0 101.65 165.99"><defs><style>.cls-1{fill:#fbe445;}</style></defs><title>estetika</title><path class="cls-1" d="M150,76.84a69.39,69.39,0,0,1-3.45,21.31c-4.5,14.39-6.16,29.15-6.84,44.12a103.94,103.94,0,0,1-4.26,26.32,26,26,0,0,1-5.06,9.88c-5.09,5.71-11.92,4.77-15-2.2-2.92-6.58-3.49-13.72-4.54-20.74-.84-5.59-1.33-11.25-2.95-16.7-1.75-5.88-4.74-8.94-8.59-9s-6.94,2.94-8.7,8.84c-2.53,8.47-2.66,17.35-4.34,26a51.65,51.65,0,0,1-3.14,11.45c-3.24,7.23-10.45,8.13-15.43,1.89-3.47-4.35-4.94-9.59-6.07-14.91-1.56-7.31-3-14.68-3-22.16-.14-15.56-3.06-30.6-7.4-45.47a67.26,67.26,0,0,1-2.76-21.42A23.1,23.1,0,0,1,75.67,52.14c5.3,1,10.43,2.93,15.74,3.91C99.78,57.59,108,55.77,116,53.7a44.57,44.57,0,0,1,12.11-1.81c12.65.29,21.45,9,21.88,21.69C150.06,74.67,150,75.76,150,76.84ZM52.16,76a73.94,73.94,0,0,0,2.68,17.94c3.51,13.16,7.05,26.31,7.35,40.05a148.64,148.64,0,0,0,3.06,28c1.06,4.95,2.29,9.91,5.68,13.89,3.23,3.79,6.62,3.27,8.65-1.23,1.65-3.65,2.3-7.58,3-11.5,1.48-8.29,1.75-16.8,4.17-24.92,2.35-7.89,6.86-12.24,12.46-12.27s10.05,4.32,12.42,12.25c2,6.74,2.52,13.73,3.54,20.63.81,5.48,1.48,11,3.82,16.11,1.91,4.16,5.06,4.57,8.26,1.25a19.1,19.1,0,0,0,3.87-6.87,71.92,71.92,0,0,0,4.23-21.56c.91-18.59,2.92-36.95,8.5-54.83a55.88,55.88,0,0,0,2.39-19.3c-.47-9.95-6.75-16.64-16.58-17.7A28.24,28.24,0,0,0,118.59,57c-13.65,4-27.08,4.57-40.76-.43C65.31,52,50.92,62.44,52.16,76Z" transform="translate(-48.39 -16.22)"/><path class="cls-1" d="M111.77,127.34c5.66-1.6,8.7-4.86,10.23-10.37,1.52,5.43,4.54,8.74,10,10.31-5.47,1.57-8.44,4.8-10,10.18C120.4,132.24,117.62,128.77,111.77,127.34Z" transform="translate(-48.39 -16.22)"/><path class="cls-1" d="M111.77,29.51c7.26-2,11.15-6.23,13.11-13.29,1.94,7,5.82,11.2,12.85,13.21-7,2-10.82,6.15-12.8,13C122.82,35.78,119.26,31.33,111.77,29.51Z" transform="translate(-48.39 -16.22)"/><path class="cls-1" d="M61.78,79.65c7.26-2,11.15-6.23,13.11-13.29,1.94,7,5.82,11.2,12.85,13.21-7,2-10.82,6.15-12.8,13C72.84,85.93,69.28,81.48,61.78,79.65Z" transform="translate(-48.39 -16.22)"/></svg>