<svg id="Layer_1" data-name="Layer 1" xmlns="http://www.w3.org/2000/svg" viewBox="0 0 132.1 171.9"><defs><style>.cls-1{fill:#f4cf4a;}.cls-2{fill:#ffe644;}.cls-3{fill:#fff;}</style></defs><title>kirurgija</title><path class="cls-1" d="M56.67,155.82" transform="translate(-33.16 -16.26)"/><path class="cls-1" d="M147,163.91" transform="translate(-33.16 -16.26)"/><path class="cls-1" d="M148.35,165.65" transform="translate(-33.16 -16.26)"/><path class="cls-1" d="M149.34,167.27" transform="translate(-33.16 -16.26)"/><path class="cls-1" d="M150.22,166.9" transform="translate(-33.16 -16.26)"/><path class="cls-2" d="M99,152.31c-2.92,0-5.84-1.58-8.63-4.69a40.28,40.28,0,0,1-7.79-12.74c-1.26-3.35-2.84-3.49-5.93-2.12-7.8,3.44-15.73,6.59-23.71,9.57-7.38,2.75-10.75,7.79-10.81,15.67-.1,13.18-.27,13.18,12.64,13.18,16.71,0,33.43,0,50.14,0,2.65,0,6.76-1.28,6.69,3.25-.07,4-3.88,2.92-6.4,2.94-10.45.08-20.89,0-31.34,0-10.66,0-21.31-.17-32,.08-4.53.1-6.62-1.44-6.48-6.05s-.1-9.2.06-13.79c.38-10.4,5.14-17.71,15.15-21.43,7.8-2.89,15.46-6.15,23.21-9.16,2.81-1.09,4.63-2.67,4.26-6-.33-2.93,1-6.18-3-8C65.93,108.85,60,102.15,60.2,91.35a3.42,3.42,0,0,0-1.36-2.63c-9.23-8.89-9.2-23.14.12-32.38,2.37-2.35,1.24-5.14,1.17-7.65-.29-10.17,2.45-18.93,10.59-25.56,5.62-4.58,16.95-6.86,28.3-6.86" transform="translate(-33.16 -16.26)"/><path class="cls-2" d="M97.81,152.31c2.92,0,5.84-1.58,8.63-4.69a40.28,40.28,0,0,0,7.79-12.74c1.26-3.35,2.84-3.49,5.93-2.12,7.8,3.44,15.73,6.59,23.71,9.57,7.38,2.75,10.75,7.79,10.81,15.67.1,13.18.27,13.18-12.64,13.18-16.71,0-33.43,0-50.14,0-2.65,0-6.76-1.28-6.69,3.25.07,4,3.88,2.92,6.4,2.94,10.45.08,20.89,0,31.34,0,10.66,0,21.31-.17,32,.08,4.53.1,6.62-1.44,6.48-6.05s.1-9.2-.06-13.79c-.38-10.4-5.14-17.71-15.15-21.43-7.8-2.89-15.46-6.15-23.21-9.16-2.81-1.09-4.63-2.67-4.26-6,.33-2.93-1-6.18,3-8,9.2-4.24,15.14-10.94,14.93-21.74A3.42,3.42,0,0,1,138,88.72c9.23-8.89,9.2-23.14-.12-32.38-2.37-2.35-1.24-5.14-1.17-7.65.29-10.17-2.45-18.93-10.59-25.56-5.62-4.58-16.95-6.86-28.3-6.86" transform="translate(-33.16 -16.26)"/><path class="cls-3" d="M71,62.39c2,0,4,.13,6,0,3.79-.31,6.3.22,8.18,4.11,2.39,5,7.47,7.4,13.67,7.23s10.81-2.89,13.24-7.92C113.42,63,115,62.23,118,62.33c5.36.19,10.74,0,16.11.07,1.76,0,3.58-.23,5.18.82,3.91,2.6,3,18.55-1.48,19.93-3.84,1.17-4.92,3-4.65,6.22.67,8.12-3.17,13.9-11.27,17-6.35,2.47-8.66,6.22-8.55,12.77.17,9.1-5.28,16.63-11.44,23.51-2.34,2.62-5,2.58-7.24-.13-6.2-7.57-12.06-15.35-11.44-25.44.27-4.36-.9-7.48-5.63-9.28C68,104.18,62.42,98,63.58,87.89c.23-2-.83-3.32-2.94-4.29-5.25-2.39-7.76-15.7-3.95-19.7,1.37-1.44,3.08-1.5,4.87-1.51C64.7,62.38,67.83,62.39,71,62.39Z" transform="translate(-33.16 -16.26)"/><path class="cls-2" d="M64.58,59.08c3.57.2,7.14.24,10.71.35H91.15s22.86-.54,25.07,0h16.13c.84-.26,1.44-.91,1.58-2.5,1.77-21-6.12-36.15-24.56-36.81-6.78-.24-13.57,0-20.35,0-17,0-27.57,13-25.49,36.54C63.6,57.5,64.18,59.05,64.58,59.08Z" transform="translate(-33.16 -16.26)"/><circle class="cls-2" cx="65.16" cy="45.01" r="12.46"/><path class="cls-2" d="M51.11,170.39c33.3-3,66.68,2.54,99.94-1.44,5.65-.68,5.72-9.64,0-9-33.26,4-66.63-1.61-99.94,1.44-5.69.52-5.75,9.48,0,9Z" transform="translate(-33.16 -16.26)"/><path class="cls-2" d="M48.51,166.89c2.33-7.84,1.44-16.88,10.28-20.07,4.09-1.47,12.18-5.37,16.37-5.37,4.67,0,7.35,5.4,11.07,9a58.66,58.66,0,0,0,16.07,11.28c5.19,2.42,9.75-5.3,4.52-7.73-10.87-5.06-17.57-13.45-24.9-22.52a4.35,4.35,0,0,0-4.36-1.15c-4.86,1.68-9.27,4.28-14.25,5.86-4.53,1.44-9.66,2.32-13.77,4.89-8.51,5.32-7.08,14.75-9.67,23.46-1.65,5.54,7,7.9,8.64,2.38Z" transform="translate(-33.16 -16.26)"/><path class="cls-2" d="M157.81,164.12c-2.59-8.71-1.22-18.1-9.67-23.46-3.57-2.26-8-3.23-12-4.4-5.65-1.66-10.54-4.46-16-6.35a4.35,4.35,0,0,0-4.36,1.15c-7.37,9.11-14,17.45-24.9,22.52-5.22,2.43-.68,10.15,4.52,7.73A59.44,59.44,0,0,0,111.45,150c3.74-3.56,6.48-8.89,11.07-9,4.3-.08,12.18,3.88,16.37,5.37,8.82,3.14,8,12.32,10.28,20.07,1.64,5.51,10.28,3.16,8.64-2.38Z" transform="translate(-33.16 -16.26)"/><path class="cls-2" d="M52.28,145.61c-2,5.94-6.22,10.43-3.22,16.25a4.39,4.39,0,0,0,3.87,2.22c9.08-.58,13.56-13.25,21.79-16.77l-6.58-5.06c-2.66,8.32-8.28,7.73-8,18,.13,4.79,5.76,5.63,8.34,2.26l13.68-17.85L74,143.56l-.18,11c-1.06,4.72,5.82,8.21,8.18,3.45,3.5-7.05-.44-.66,3.26.5,2,.64,2.71,1.9,5.45,2.25q2,.77,2.71-1.63,4.35-3.49-3.57-3.17c-5.07-1.82-11.73-1.48-16.94-1.41v9c10.31-.88,20.74-2.28,31.08-2.58,9.23-.27,18.72,1.16,27.86-.85l5.74-.08q7.88-7.28-1.67-6.11c-3.92-1.61-11.27,0-15.16.55-17.28,2.47,3.6-8.31,3.35-8.45L122,141c0,.12-8,4.75-9.08,5.83-2.61,2.62-.8,7.89,3.17,7.64,10.38-.63,20.36-1.63,30.78-1v-9a24.82,24.82,0,0,1-15.07-4c-5.22-2.33-9.78,5.38-4.52,7.73,6.51,2.91,12.34,6.11,19.59,5.27,5.64-.66,5.87-8.58,0-9-10.42-.66-20.4.33-30.78,1l3.17,7.64c3.44-3.45,10.42-4.24,11.39-9.78a4.63,4.63,0,0,0-2.06-5.06c-10.29-5.6-33,14.16-22.64,24.19,2,1.91,4.46,2.2,7.13,2.4,8.06.61,16.89-2.13,25.31-1.71,6.28.31,12.68-.31,11.14-8.22a4.42,4.42,0,0,0-3.13-3.13c-10.57-2.82-22.45.51-33.23.45-13.52-.08-26.83,1.16-40.32,2.31-5.65.48-5.85,9,0,9,7-.1,15.47,3.75,21.92,2.81,2.2-.32,3.63-.64,5.23-2.55,2.76-3.3,1.93-8-.94-10.78-1.8-1.73-5.81-1.3-7.85-2.7-1.76-1.21-1.6-3.84-4-5-6.18-3.07-10.54,3.23-13,8.23L82.42,157c1.3-5.82,1.68-10,.18-15.81-1.07-4.1-6-3.94-8.18-1.07L60.74,158l8.34,2.26c-.16-6.15,5.9-10,7.69-15.58,1.32-4.13-3.29-6.47-6.58-5.06a27.44,27.44,0,0,0-11.66,8.71c-1.32,1.79-5.74,4.39-1.73,5,3.65.57,2.42-.42,4.11-5.31,1.88-5.46-6.76-7.81-8.64-2.38Z" transform="translate(-33.16 -16.26)"/><path class="cls-2" d="M155.28,172.37H42.72a4.28,4.28,0,0,1,0-8.56H155.28a4.28,4.28,0,0,1,0,8.56ZM42.72,166.8a1.29,1.29,0,0,0,0,2.58H155.28a1.29,1.29,0,0,0,0-2.58Z" transform="translate(-33.16 -16.26)"/><path class="cls-2" d="M47.59,171.25c5.76,0,5.77-9,0-9s-5.77,9,0,9Z" transform="translate(-33.16 -16.26)"/><path class="cls-2" d="M153.76,172c5.76,0,5.77-9,0-9s-5.77,9,0,9Z" transform="translate(-33.16 -16.26)"/><circle class="cls-3" cx="65.16" cy="45.01" r="10.6"/><rect class="cls-2" x="3.98" y="146.78" width="122.4" height="10.95"/><rect class="cls-3" y="150.51" width="132.1" height="21.4"/></svg>