<svg id="Layer_1" data-name="Layer 1" xmlns="http://www.w3.org/2000/svg" viewBox="0 0 168.77 161.76"><defs><style>.cls-1{fill:#ffe644;}</style></defs><title>korenine</title><path class="cls-1" d="M117.38,50.18A48.59,48.59,0,0,1,115,65.1c-3.15,10.07-4.31,20.41-4.79,30.9a72.78,72.78,0,0,1-3,18.43,18.21,18.21,0,0,1-3.54,6.92c-3.56,4-8.35,3.34-10.52-1.54-2-4.6-2.44-9.61-3.18-14.52-.59-3.92-.93-7.88-2.06-11.69-1.22-4.12-3.32-6.26-6-6.28s-4.86,2.06-6.1,6.19c-1.77,5.93-1.87,12.15-3,18.19a36.17,36.17,0,0,1-2.2,8c-2.27,5.06-7.32,5.69-10.8,1.32-2.43-3-3.46-6.72-4.25-10.44a77.89,77.89,0,0,1-2.12-15.52,116.75,116.75,0,0,0-5.18-31.84,47.1,47.1,0,0,1-1.93-15A16.18,16.18,0,0,1,65.31,32.88c3.71.7,7.31,2.05,11,2.74,5.86,1.08,11.58-.19,17.24-1.64a31.21,31.21,0,0,1,8.48-1.27c8.86.21,15,6.32,15.32,15.19C117.4,48.66,117.38,49.42,117.38,50.18Zm-68.53-.6a51.78,51.78,0,0,0,1.87,12.56c2.46,9.22,4.94,18.42,5.15,28A104.09,104.09,0,0,0,58,109.79c.74,3.46,1.6,6.94,4,9.73s4.63,2.29,6.06-.86a33.56,33.56,0,0,0,2.1-8.05c1-5.81,1.23-11.76,2.92-17.45,1.64-5.53,4.81-8.57,8.72-8.59s7,3,8.7,8.58c1.41,4.72,1.77,9.61,2.48,14.45.57,3.84,1,7.71,2.68,11.28,1.34,2.91,3.55,3.2,5.79.87a13.37,13.37,0,0,0,2.71-4.81,50.37,50.37,0,0,0,3-15.09c.64-13,2-25.87,6-38.4a39.13,39.13,0,0,0,1.67-13.52c-.33-7-4.73-11.65-11.61-12.39a19.78,19.78,0,0,0-7.77.76c-9.56,2.83-19,3.2-28.54-.3C58.06,32.77,48,40.09,48.85,49.57Z" transform="translate(-15.01 -18.94)"/><path class="cls-1" d="M119.3,22.78c0,2.53,0,2.53-2.42,3-1.08.19-2.17.4-3.26.57a8.55,8.55,0,0,1-1.5.1c-2.34-.05-4.21-1.64-4.27-3.61A3.91,3.91,0,0,1,112,18.94a48,48,0,0,1,6.67,1c.25,0,.56.52.6.83A13.77,13.77,0,0,1,119.3,22.78Z" transform="translate(-15.01 -18.94)"/><path class="cls-1" d="M45.9,20a58.41,58.41,0,0,1,6.89-1,5.74,5.74,0,0,1,3.4,1.26,3.09,3.09,0,0,1-.29,5.12,8,8,0,0,1-4,1,26.25,26.25,0,0,1-5.18-.87,1.32,1.32,0,0,1-.82-.93C45.85,23.06,45.9,21.61,45.9,20Z" transform="translate(-15.01 -18.94)"/><path class="cls-1" d="M98.68,91.18C98.24,87,97.48,82.8,97,78.61c.55-3.41,1.17-6.81,1.72-10.22a8,8,0,0,0-3.33-8.34,8.23,8.23,0,0,0-9.13-.71,6.42,6.42,0,0,0-1.29.72c-2.14,1.81-4.1,1.71-6.45.07-3.75-2.62-7.25-2.44-10.56,0a7.58,7.58,0,0,0-3.26,7.56c.51,3.56,1.42,7.07,1.85,10.63,0,.23,0,.45.07.68-.38,2.76-1,5.51-1.27,8.28-.85,9.27-1.79,18.54-2.56,27.74,1.85-7.43,3.41-15,5.7-22.24a25.62,25.62,0,0,1,5.46-9c4.73-5.28,11.55-5,16.37.25,4.36,4.77,6.2,10.74,7.53,16.85,1,4.71,1.67,9.5,2.48,14.26l.55,0C100.13,107.14,99.52,99.15,98.68,91.18Z" transform="translate(-15.01 -18.94)"/><path class="cls-1" d="M165.18,110.43a11.64,11.64,0,1,0,14.74,7.14A11.61,11.61,0,0,0,165.18,110.43Z" transform="translate(-15.01 -18.94)"/><path class="cls-1" d="M112.12,26.42a8.55,8.55,0,0,0,1.5-.1c1.09-.17,2.17-.37,3.26-.57,2.42-.43,2.42-.43,2.42-3a13.75,13.75,0,0,0,0-2c0-.31-.35-.79-.6-.83a48,48,0,0,0-6.67-1,3.9,3.9,0,0,0-4.14,3.86C107.91,24.77,109.78,26.36,112.12,26.42Z" transform="translate(-15.01 -18.94)"/><path class="cls-1" d="M46.76,25.44a26.25,26.25,0,0,0,5.18.87,8,8,0,0,0,4-1,3.09,3.09,0,0,0,.29-5.12A5.74,5.74,0,0,0,52.79,19a58.38,58.38,0,0,0-6.89,1c0,1.6-.05,3.06,0,4.5A1.32,1.32,0,0,0,46.76,25.44Z" transform="translate(-15.01 -18.94)"/><path class="cls-1" d="M183,116.61a14.74,14.74,0,0,0-28.7,4.9h-.1c-14.51,4.09-14.92,18.5-21.37,30A52,52,0,0,1,114.26,171c-9.73,5.73-31.28,11.56-29.67-7.62h.58c.35,0,.69,0,1,.05a1.87,1.87,0,0,0,1.26-2c.65-.16,1.19-.28,1.72-.42,6.46-1.73,11.54-5.67,16-10.36a129.9,129.9,0,0,0,19.25-26.14c8.1-14.29,15.5-28.89,20.66-44.53,3.07-9.31,5.29-18.8,5-28.7A33.09,33.09,0,0,0,146,35.23c-4.08-7-10.5-10.79-18.15-12.74-2.4-.61-4.87-1-7.43-1.44,0,.82,0,1.27-.08,1.7-.19,1.31.24,1.86,1.67,1.93a24.54,24.54,0,0,1,4.59.85c6.6,1.65,12.32,4.65,16.11,10.59a28.74,28.74,0,0,1,4.17,14.79,73.44,73.44,0,0,1-3.79,24.66A194.37,194.37,0,0,1,119.84,125c-1.83,2.77-3.66,5.55-5.56,8.27-4.58,6.52-9.4,12.86-15.54,18a26.52,26.52,0,0,1-11.16,6c-1.31-2.17-8.57-2.17-9.88,0-.27-.05-.57-.09-.85-.16-4.95-1.38-8.92-4.35-12.61-7.77-8.24-7.64-14.44-17-20.35-26.31a196.88,196.88,0,0,1-21-44.72c-3-9.24-5.14-18.64-4.56-28.45.38-6.38,2.09-12.31,6.65-17.07s10.6-7,17-8c2.81-.46,2.82-.43,2.71-3.29,0-.08-.09-.16-.25-.4-1.51.24-3.1.43-4.66.74-6.13,1.21-11.8,3.44-16.37,7.86-6,5.79-8.12,13.14-8.44,21.18a73.83,73.83,0,0,0,3.23,23.23C24.13,94.73,33.83,113.51,45,131.57a99.21,99.21,0,0,0,16.93,21c4.41,4.08,9.25,7.46,15.27,8.73.26.06.7.26.71.41a1.59,1.59,0,0,0,1.31,1.77c.36,0,.75-.06,1.13-.08-1.52,18.14,15.35,20.19,29.61,14.48a52.73,52.73,0,0,0,22.41-17.8c7.37-10,9.7-30.28,22.59-34.3,0,.12.06.24.1.36A14.75,14.75,0,1,0,183,116.61Zm-10,15.76a11.64,11.64,0,1,1,7-14.8A11.56,11.56,0,0,1,173,132.37Z" transform="translate(-15.01 -18.94)"/></svg>