<svg id="Layer_1" data-name="Layer 1" xmlns="http://www.w3.org/2000/svg" viewBox="0 0 167.13 160.18"><defs><style>.cls-1{fill:#ffe644;}</style></defs><title>zob_dlesni</title><path class="cls-1" d="M117,50.05a48.11,48.11,0,0,1-2.39,14.78c-3.12,10-4.27,20.21-4.75,30.6a72.07,72.07,0,0,1-3,18.25,18,18,0,0,1-3.51,6.85c-3.53,4-8.27,3.31-10.42-1.53-2-4.56-2.42-9.52-3.15-14.38a83.56,83.56,0,0,0-2-11.58c-1.21-4.08-3.29-6.2-6-6.22s-4.81,2-6,6.13c-1.76,5.87-1.85,12-3,18a35.82,35.82,0,0,1-2.18,7.94c-2.25,5-7.25,5.64-10.7,1.31-2.41-3-3.42-6.65-4.21-10.34a77.13,77.13,0,0,1-2.1-15.37A115.61,115.61,0,0,0,48.49,63a46.64,46.64,0,0,1-1.91-14.85A16,16,0,0,1,65.47,32.92c3.68.69,7.24,2,10.92,2.71,5.8,1.07,11.47-.19,17.07-1.62a30.91,30.91,0,0,1,8.39-1.25c8.77.2,14.87,6.26,15.17,15C117,48.55,117,49.3,117,50.05Zm-67.86-.6A51.27,51.27,0,0,0,51,61.89c2.43,9.13,4.89,18.24,5.1,27.77a103.07,103.07,0,0,0,2.13,19.42c.74,3.43,1.59,6.87,3.94,9.63s4.59,2.27,6-.85a33.23,33.23,0,0,0,2.08-8c1-5.75,1.21-11.65,2.89-17.28,1.63-5.47,4.76-8.49,8.64-8.51s7,3,8.61,8.49c1.4,4.67,1.75,9.52,2.46,14.31.56,3.8,1,7.64,2.65,11.17,1.32,2.88,3.51,3.17,5.73.87a13.24,13.24,0,0,0,2.68-4.76,49.87,49.87,0,0,0,2.93-14.95c.63-12.89,2-25.62,5.89-38a38.75,38.75,0,0,0,1.66-13.38c-.33-6.9-4.68-11.54-11.5-12.27a19.59,19.59,0,0,0-7.69.75C85.76,39.1,76.45,39.46,67,36,58.28,32.82,48.31,40.07,49.17,49.45Z" transform="translate(-15.65 -19.12)"/><path class="cls-1" d="M164.36,109.72A11.53,11.53,0,1,0,179,116.79,11.49,11.49,0,0,0,164.36,109.72Z" transform="translate(-15.65 -19.12)"/><path class="cls-1" d="M111.82,26.52a8.47,8.47,0,0,0,1.48-.1c1.08-.17,2.15-.37,3.22-.56,2.4-.43,2.4-.43,2.39-2.94a13.62,13.62,0,0,0,0-1.93c0-.31-.35-.78-.6-.83a47.57,47.57,0,0,0-6.6-1,3.87,3.87,0,0,0-4.1,3.82C107.65,24.9,109.5,26.47,111.82,26.52Z" transform="translate(-15.65 -19.12)"/><path class="cls-1" d="M47.1,25.55a26,26,0,0,0,5.13.86,7.94,7.94,0,0,0,3.91-.95,3.06,3.06,0,0,0,.29-5.07,5.69,5.69,0,0,0-3.37-1.25,57.81,57.81,0,0,0-6.82,1c0,1.59-.05,3,0,4.46A1.31,1.31,0,0,0,47.1,25.55Z" transform="translate(-15.65 -19.12)"/><path class="cls-1" d="M182,115.84a14.6,14.6,0,0,0-28.42,4.85h-.1c-14.37,4.05-14.77,18.32-21.17,29.69a51.47,51.47,0,0,1-18.34,19.27c-9.63,5.68-31,11.45-29.38-7.54h.58c.35,0,.68,0,1,0a1.86,1.86,0,0,0,1.25-1.94c.65-.16,1.18-.28,1.71-.42,6.39-1.71,11.42-5.61,15.89-10.26a128.64,128.64,0,0,0,19.06-25.89c8-14.15,15.35-28.61,20.45-44.1,3-9.22,5.24-18.62,5-28.42a32.77,32.77,0,0,0-4.14-15.9c-4-7-10.4-10.69-18-12.61-2.38-.6-4.82-.94-7.36-1.43,0,.81,0,1.25-.08,1.69-.19,1.29.24,1.84,1.65,1.92a24.31,24.31,0,0,1,4.55.85c6.53,1.64,12.2,4.61,16,10.48a28.46,28.46,0,0,1,4.13,14.64,72.72,72.72,0,0,1-3.76,24.42,192.48,192.48,0,0,1-23,49c-1.81,2.75-3.62,5.5-5.51,8.19-4.54,6.46-9.3,12.74-15.39,17.86a26.26,26.26,0,0,1-11,6c-1.3-2.15-8.48-2.15-9.78,0-.27-.05-.56-.08-.85-.16-4.9-1.37-8.83-4.31-12.48-7.69-8.16-7.56-14.3-16.79-20.15-26.05A195,195,0,0,1,23.5,78c-3-9.15-5.09-18.46-4.51-28.17.38-6.32,2.07-12.19,6.59-16.91S36.07,26,42.44,25c2.78-.45,2.79-.43,2.68-3.26,0-.08-.09-.16-.24-.4-1.49.23-3.07.42-4.62.73-6.07,1.2-11.68,3.4-16.21,7.78-5.92,5.73-8,13-8.36,21a73.11,73.11,0,0,0,3.2,23c5.79,20.34,15.39,38.94,26.42,56.82a98.24,98.24,0,0,0,16.77,20.8c4.37,4,9.16,7.38,15.13,8.64.26.06.7.26.7.41a1.58,1.58,0,0,0,1.29,1.75c.36,0,.74-.06,1.12-.08-1.5,18,15.2,20,29.32,14.33a52.22,52.22,0,0,0,22.19-17.62c7.3-9.91,9.6-30,22.37-34,0,.12.06.24.1.36A14.61,14.61,0,1,0,182,115.84Zm-9.9,15.61a11.53,11.53,0,1,1,6.9-14.65A11.45,11.45,0,0,1,172.06,131.45Z" transform="translate(-15.65 -19.12)"/><path class="cls-1" d="M59.46,57.69c-.32-4.61-.3-11,5.15-12.55a1.06,1.06,0,0,0-.56-2c-6.45,1.85-7.1,8.93-6.7,14.6.09,1.35,2.22,1.36,2.12,0Z" transform="translate(-15.65 -19.12)"/></svg>