<svg id="Layer_1" data-name="Layer 1" xmlns="http://www.w3.org/2000/svg" viewBox="0 0 165.88 100.39"><defs><style>.cls-1{fill:#ffe644;}.cls-2{fill:#fff;}</style></defs><title>snemna_protetika</title><path class="cls-1" d="M169.88,88.46c-1.16,4.92-3,6.53-8.19,7.1a21.74,21.74,0,0,1-10.14-1.08c-1.37,5.14-5.37,6.46-10,6.78s-9.25.33-13.36-2.52c-2.55,3.7-6.32,4.93-10.45,5.09a87.23,87.23,0,0,1-10.64-.3,11,11,0,0,1-7.78-4.13,12.74,12.74,0,0,1-8.39,4.3,38.93,38.93,0,0,1-13.29-.29c-3.22-.67-5.14-2-7.32-4.77-4.19,3-9,3-13.87,2.59-4.52-.34-8.3-1.78-9.67-6.8a21.12,21.12,0,0,1-9.56,1.23c-4.61-.36-8.13-2-8.69-7.16-1.65.1-3.19.33-4.72.26-4.11-.17-6.44-2.53-6.27-6.63a35.68,35.68,0,0,1,1.16-7.22,8.74,8.74,0,0,0-.11-4.52c-.9-3.6-1.51-7.27-2.18-10.92a8.8,8.8,0,0,1,0-2.33c.29-3.21,1.95-4.67,5.17-4.58A8.71,8.71,0,0,1,27.89,55c2.1,2.13,4.78,1.6,7.24.89,4.54-1.31,9-3,13.51-4.26,17.2-4.92,33.58-2.94,49,6.16a2.68,2.68,0,0,0,3.16,0,60,60,0,0,1,34.77-8.65c7.45.45,14.57,2.39,21.59,4.8,2.62.9,5.3,1.66,8,2.33a6,6,0,0,0,6-1.69c2.34-2.29,5.33-2.45,8.28-1.66,2,.53,2.49,2.41,2.65,4.25.41,4.59-.75,9-2.14,13.26a8.52,8.52,0,0,0-.18,5,31.61,31.61,0,0,1,1,6.9c.1,4-2.17,6.31-6.24,6.45A45.59,45.59,0,0,1,169.88,88.46ZM84.43,100.73c2.36-.2,4.19-.28,6-.51,5.14-.67,7.52-3.51,7-8.28A42.3,42.3,0,0,0,93,76.84a30.75,30.75,0,0,0-4.28-6.31c-2.46-2.76-4.84-2.66-7.47-.12a8.56,8.56,0,0,0-.92,1,39.34,39.34,0,0,0-7.83,21.8c-.22,3.6,1.7,5.85,5.3,6.66C80.15,100.35,82.56,100.49,84.43,100.73Zm29.42.11c2.35-.39,5.11-.68,7.78-1.36a5.39,5.39,0,0,0,4.17-4.89,14.53,14.53,0,0,0-.09-2.49,36.48,36.48,0,0,0-7.48-20.51c-3.23-4.25-6.37-4.19-9.6,0A38.68,38.68,0,0,0,101,92.84c-.27,3.87,1.65,6.22,5.46,7C108.74,100.35,111.08,100.49,113.85,100.85ZM59.47,98.1c2-.28,3.88-.41,5.7-.84,2.79-.66,4-2.23,3.83-5a30.08,30.08,0,0,0-5.92-16.54c-2.28-3.07-4.6-3.13-6.91-.12a29.91,29.91,0,0,0-6.06,16.82,4.25,4.25,0,0,0,3.53,4.79C55.56,97.66,57.57,97.81,59.47,98.1Zm79,0c1.91-.23,3.65-.3,5.32-.66,3.27-.7,4.48-2.19,4.29-5.5a30.23,30.23,0,0,0-5.86-16.21,7.42,7.42,0,0,0-1.54-1.51,2.89,2.89,0,0,0-4.08.06A8.36,8.36,0,0,0,134.9,76c-3.32,5-5.62,10.44-5.46,16.63.07,2.66.91,3.91,3.47,4.54C134.78,97.68,136.73,97.81,138.49,98.07Zm20.09-5.69c1.62-.19,3-.27,4.36-.54,2.3-.46,3.39-1.61,3.3-3.92A25.36,25.36,0,0,0,161.11,73c-1.47-1.9-2.89-1.9-4.36,0a25.35,25.35,0,0,0-5.09,15.22,3.14,3.14,0,0,0,2.54,3.3C155.7,92,157.25,92.15,158.58,92.38Zm-119.4,0,0-.19c.78,0,1.56,0,2.33,0a12,12,0,0,0,1.81-.3c2.25-.5,3.39-1.66,3.3-3.94a25.84,25.84,0,0,0-4.94-14.61c-1.66-2.24-3.13-2.23-4.79.06A25.79,25.79,0,0,0,32,88a3.43,3.43,0,0,0,3,3.8C36.41,92.08,37.8,92.17,39.18,92.35ZM173.54,69.6c-2.62,4.58-4,9-3.44,13.95.07.61,1.12,1.26,1.85,1.58a5.26,5.26,0,0,0,2.14.12c2.55-.06,3.61-1,3.21-3.5-.53-3.27-1.44-6.47-2.29-9.68A11.92,11.92,0,0,0,173.54,69.6Zm-148.92.12A16.71,16.71,0,0,0,23,72.58a64.84,64.84,0,0,0-2,7.55c-.75,4.33.61,5.62,5,5.08l.17,0a2.21,2.21,0,0,0,2.15-2.32,23.22,23.22,0,0,0-.35-4.3C27.46,75.58,26.81,72.59,24.62,69.72Z" transform="translate(-16.27 -49.02)"/><path class="cls-1" d="M56.59,111.5c5.11-2.5,10.31-2.28,15.52-1.4,2.72.46,3.74,1.33,5.94,3.94,7.21-3.53,16.56-2.92,20.91,1.27,6.89-4.92,14.07-4.05,21.56-1.47,2-3.34,5.55-4,9.25-4.2a33.1,33.1,0,0,1,6.82.27,44.91,44.91,0,0,1,6.21,2c2.55-5.77,8-5,13.14-4.76A25,25,0,0,1,160,108a5.34,5.34,0,0,1,4.33-4.52,7.87,7.87,0,0,1,2.81-.18,2.94,2.94,0,0,0,3.52-2c.12-.25.28-.48.42-.72,1.24-2.18,2.34-2.53,4.67-1.45a6.43,6.43,0,0,1,3.6,4.18c2.33,8.1,2.35,16.15-1,24a19.47,19.47,0,0,1-6.56,7.85c-9.84,7.36-21.15,10.67-33.12,12.18-20.24,2.56-40.56,2.42-60.87,1.59-11.07-.45-22.09-1.54-32.81-4.62a58.35,58.35,0,0,1-19.32-10c-5-3.83-7-9.32-7.85-15.33a37,37,0,0,1,1-14.74c1-3.56,3.2-5.52,6.17-5.67.93,0,1.65.1,1.94,1.1a1.55,1.55,0,0,0,.08.14c1,2.47,2.39,3.91,5.59,3.55,3.92-.44,5.43,1,6.72,4.9a20.74,20.74,0,0,1,11.11-1C53.12,107.62,55.35,108.78,56.59,111.5Zm75.59,1a63,63,0,0,0-6.31,1,3.6,3.6,0,0,0-3,4.08,26,26,0,0,0,5.89,15.62c2.21,2.69,4.44,2.69,6.67,0a26.12,26.12,0,0,0,5.89-15.46,3.72,3.72,0,0,0-3.16-4.28A60,60,0,0,0,132.19,112.54Zm-12.51,8.71c.07-3.45-.83-4.9-3.4-5.53a23.85,23.85,0,0,0-11.72,0c-2.45.63-3.48,2-3.33,4.5A26.4,26.4,0,0,0,107,135.44c2.3,2.9,4.67,2.88,7,0A27.68,27.68,0,0,0,119.67,121.26Zm-31.84-6.36c-2,.3-4,.45-6,1A3.65,3.65,0,0,0,78.69,120a25.67,25.67,0,0,0,5.91,15.62c2.33,2.78,4.46,2.7,6.78-.14a27.23,27.23,0,0,0,5.81-15,4,4,0,0,0-3.35-4.67A59.91,59.91,0,0,0,87.83,114.89Zm-21.47-2.34,0,.18c-1.33.07-2.67.1-4,.23a10.53,10.53,0,0,0-2.1.49c-2.31.73-3.3,1.88-3.2,4.25a25.67,25.67,0,0,0,5.92,15.61c2.22,2.68,4.45,2.62,6.67-.11a26.86,26.86,0,0,0,5.88-15.32,3.75,3.75,0,0,0-3.08-4.35A57.38,57.38,0,0,0,66.36,112.55ZM46.6,110c-1.47.18-2.92.26-4.32.56-2,.42-3,1.59-2.89,3.51a23.13,23.13,0,0,0,4.8,13.42c1.6,2.06,3.18,2.06,4.78,0a23.26,23.26,0,0,0,4.8-13.26c.12-2.06-.87-3.23-2.9-3.67C49.48,110.28,48,110.2,46.6,110Zm106.76,0c-1.75.21-3.26.28-4.71.6a3.18,3.18,0,0,0-2.82,3.57,22.94,22.94,0,0,0,4.85,13.39c1.6,2,3.08,2,4.66,0a22.46,22.46,0,0,0,4.83-13.72,2.86,2.86,0,0,0-2.31-3.07C156.32,110.4,154.72,110.23,153.36,110ZM32.28,120.79a13.47,13.47,0,0,0,1.47-2.43,52.86,52.86,0,0,0,2-7.17c.69-4.12-.26-5-4.36-4.77-2.26.15-3.19.92-2.81,3.14a89.37,89.37,0,0,0,2.3,9.13A9.53,9.53,0,0,0,32.28,120.79Zm134.7-.06a11.6,11.6,0,0,0,1.44-2.29,54.81,54.81,0,0,0,2-7.33c.69-4.07-.28-5-4.42-4.69-2.17.15-3.09.9-2.73,3a91.73,91.73,0,0,0,2.32,9.28A8.54,8.54,0,0,0,167,120.73Z" transform="translate(-16.27 -49.02)"/><path class="cls-2" d="M84.43,100.73c-1.87-.24-4.27-.38-6.59-.9-3.6-.81-5.52-3.06-5.3-6.66a39.34,39.34,0,0,1,7.83-21.8,8.56,8.56,0,0,1,.92-1c2.64-2.55,5-2.65,7.47.12A30.75,30.75,0,0,1,93,76.84a42.3,42.3,0,0,1,4.43,15.11c.49,4.77-1.89,7.61-7,8.28C88.62,100.46,86.79,100.54,84.43,100.73Z" transform="translate(-16.27 -49.02)"/><path class="cls-2" d="M113.85,100.85c-2.77-.35-5.12-.49-7.39-1-3.81-.81-5.73-3.16-5.46-7a38.68,38.68,0,0,1,7.63-21.19c3.23-4.24,6.38-4.3,9.6,0a36.48,36.48,0,0,1,7.48,20.51,14.53,14.53,0,0,1,.09,2.49,5.39,5.39,0,0,1-4.17,4.89C119,100.17,116.2,100.45,113.85,100.85Z" transform="translate(-16.27 -49.02)"/><path class="cls-2" d="M59.47,98.1c-1.91-.29-3.92-.44-5.84-.92a4.25,4.25,0,0,1-3.53-4.79,29.91,29.91,0,0,1,6.06-16.82c2.3-3,4.63-3,6.91.12A30.08,30.08,0,0,1,69,92.23c.16,2.81-1,4.37-3.83,5C63.35,97.69,61.45,97.82,59.47,98.1Z" transform="translate(-16.27 -49.02)"/><path class="cls-2" d="M138.49,98.07c-1.75-.26-3.71-.39-5.58-.85-2.56-.63-3.4-1.88-3.47-4.54-.17-6.2,2.14-11.59,5.46-16.63a8.36,8.36,0,0,1,1.72-1.8,2.89,2.89,0,0,1,4.08-.06,7.42,7.42,0,0,1,1.54,1.51,30.23,30.23,0,0,1,5.86,16.21c.19,3.32-1,4.81-4.29,5.5C142.13,97.77,140.4,97.84,138.49,98.07Z" transform="translate(-16.27 -49.02)"/><path class="cls-2" d="M158.58,92.38c-1.33-.23-2.88-.4-4.37-.78a3.14,3.14,0,0,1-2.54-3.3,25.35,25.35,0,0,1,5.09-15.22c1.47-1.94,2.88-1.94,4.36,0a25.36,25.36,0,0,1,5.13,14.87c.09,2.31-1,3.45-3.3,3.92C161.59,92.11,160.19,92.19,158.58,92.38Z" transform="translate(-16.27 -49.02)"/><path class="cls-2" d="M39.18,92.35c-1.37-.18-2.77-.26-4.12-.57A3.43,3.43,0,0,1,32,88,25.79,25.79,0,0,1,36.9,73.35c1.66-2.28,3.12-2.3,4.79-.06a25.84,25.84,0,0,1,4.94,14.61c.1,2.28-1,3.44-3.3,3.94a12,12,0,0,1-1.81.3c-.77.05-1.56,0-2.33,0Z" transform="translate(-16.27 -49.02)"/><path class="cls-2" d="M173.54,69.6A11.92,11.92,0,0,1,175,72.07c.85,3.21,1.76,6.41,2.29,9.68.41,2.51-.66,3.44-3.21,3.5a5.26,5.26,0,0,1-2.14-.12c-.73-.33-1.78-1-1.85-1.58C169.53,78.65,170.91,74.19,173.54,69.6Z" transform="translate(-16.27 -49.02)"/><path class="cls-2" d="M24.62,69.72c2.19,2.87,2.84,5.86,3.42,8.84a23.22,23.22,0,0,1,.35,4.3,2.21,2.21,0,0,1-2.15,2.32l-.17,0c-4.36.55-5.72-.75-5-5.08a64.84,64.84,0,0,1,2-7.55A16.71,16.71,0,0,1,24.62,69.72Z" transform="translate(-16.27 -49.02)"/><path class="cls-2" d="M132.19,112.54a60,60,0,0,1,6,1,3.72,3.72,0,0,1,3.16,4.28,26.12,26.12,0,0,1-5.89,15.46c-2.23,2.71-4.46,2.71-6.67,0a26,26,0,0,1-5.89-15.62,3.6,3.6,0,0,1,3-4.08A63,63,0,0,1,132.19,112.54Z" transform="translate(-16.27 -49.02)"/><path class="cls-2" d="M119.67,121.26a27.68,27.68,0,0,1-5.7,14.14c-2.35,2.93-4.72,2.95-7,0a26.4,26.4,0,0,1-5.74-15.19c-.14-2.52.88-3.87,3.33-4.5a23.85,23.85,0,0,1,11.72,0C118.84,116.36,119.74,117.81,119.67,121.26Z" transform="translate(-16.27 -49.02)"/><path class="cls-2" d="M87.83,114.89a59.91,59.91,0,0,1,6,.88,4,4,0,0,1,3.35,4.67,27.23,27.23,0,0,1-5.81,15c-2.32,2.84-4.45,2.92-6.78.14A25.67,25.67,0,0,1,78.69,120a3.65,3.65,0,0,1,3.12-4.14C83.78,115.34,85.84,115.19,87.83,114.89Z" transform="translate(-16.27 -49.02)"/><path class="cls-2" d="M66.36,112.55a57.38,57.38,0,0,1,6,1,3.75,3.75,0,0,1,3.08,4.35,26.86,26.86,0,0,1-5.88,15.32c-2.23,2.73-4.45,2.79-6.67.11A25.67,25.67,0,0,1,57,117.71c-.11-2.37.89-3.52,3.2-4.25a10.53,10.53,0,0,1,2.1-.49c1.33-.13,2.66-.16,4-.23Z" transform="translate(-16.27 -49.02)"/><path class="cls-2" d="M46.6,110c1.42.18,2.87.26,4.27.56,2,.44,3,1.61,2.9,3.67A23.26,23.26,0,0,1,49,127.52c-1.6,2.06-3.18,2.06-4.78,0a23.13,23.13,0,0,1-4.8-13.42c-.09-1.92.93-3.09,2.89-3.51C43.69,110.28,45.14,110.21,46.6,110Z" transform="translate(-16.27 -49.02)"/><path class="cls-2" d="M153.36,110c1.36.23,3,.41,4.51.79a2.86,2.86,0,0,1,2.31,3.07,22.46,22.46,0,0,1-4.83,13.72c-1.58,2-3.06,2-4.66,0a22.94,22.94,0,0,1-4.85-13.39,3.18,3.18,0,0,1,2.82-3.57C150.11,110.28,151.61,110.21,153.36,110Z" transform="translate(-16.27 -49.02)"/><path class="cls-2" d="M32.28,120.79a9.53,9.53,0,0,1-1.39-2.1,89.37,89.37,0,0,1-2.3-9.13c-.38-2.22.55-3,2.81-3.14,4.1-.27,5,.65,4.36,4.77a52.86,52.86,0,0,1-2,7.17A13.47,13.47,0,0,1,32.28,120.79Z" transform="translate(-16.27 -49.02)"/><path class="cls-2" d="M167,120.73a8.54,8.54,0,0,1-1.35-2,91.73,91.73,0,0,1-2.32-9.28c-.36-2.14.56-2.88,2.73-3,4.14-.29,5.11.62,4.42,4.69a54.81,54.81,0,0,1-2,7.33A11.6,11.6,0,0,1,167,120.73Z" transform="translate(-16.27 -49.02)"/></svg>