<svg id="Layer_1" data-name="Layer 1" xmlns="http://www.w3.org/2000/svg" viewBox="0 0 170.69 75.02"><defs><style>.cls-1{fill:#ffe644;}.cls-2{fill:#fff;}</style></defs><title>fixna_protetika</title><path class="cls-1" d="M184.56,75.28a102.12,102.12,0,0,1-24.25,35.89c-10.36,9.93-22.05,17.79-35.7,22.5-6.37,2.2-13,2.64-19.69,2.9-9.49.36-19,.24-28.24-2.2-10.07-2.65-18.94-7.86-27.26-14a106.85,106.85,0,0,1-35-44c-.14-.31-.25-.63-.58-1.47l1.84,1.55A183.08,183.08,0,0,0,47.55,98.75a96.89,96.89,0,0,0,30.43,10,133.15,133.15,0,0,0,38.11.74A102.91,102.91,0,0,0,164.51,90.7c6.25-4.48,12.25-9.31,18.35-14C183.45,76.26,184,75.76,184.56,75.28Z" transform="translate(-13.87 -61.7)"/><path class="cls-1" d="M30.14,67.83c-1.78-.62-3.73-1.27-5.66-2a32.47,32.47,0,0,1-5.72-2.63,60.78,60.78,0,0,1,6.52-.85c10.56-.28,21.13-.72,31.69-.56,10.28.15,20.55.9,30.81,1.55a12.75,12.75,0,0,1,5.33,1.7c4.25,2.44,8.29,2.57,12.52,0s9.12-2.13,13.76-2.31c13.49-.53,27-1,40.49-1,6.24,0,12.48.82,18.72,1.29a2.83,2.83,0,0,1,1.58.65L168.48,68a21,21,0,0,1,1.32,11.69,8.28,8.28,0,0,1-5.46,6.57,5,5,0,0,0-2.92,2.59c-1.39,2.63-3.92,3.67-6.76,3.69a4.67,4.67,0,0,0-4,1.89c-2.73,3.31-6.26,4.49-10.49,3a2.05,2.05,0,0,0-1.65.2,20.15,20.15,0,0,1-13.78,3.9,3.35,3.35,0,0,0-2.74.95,12.57,12.57,0,0,1-9.09,3.08c-4.28-.1-8.55-.68-12.83-1a5.46,5.46,0,0,0-1.66.1,40.94,40.94,0,0,1-15.4.62,11.83,11.83,0,0,1-6.59-3.12,2.44,2.44,0,0,0-1.64-.58c-5.33.29-10.28-.67-14.58-4.09a1.76,1.76,0,0,0-1.37-.08c-4.42,1.36-8.06.38-10.87-3.27a3.73,3.73,0,0,0-3.32-1.56c-3.53-.05-6.36-1.36-7.83-4.84a1.68,1.68,0,0,0-.93-.88c-6.37-1.85-7.61-7.11-7-12.55C29.06,72.2,29.66,70.15,30.14,67.83ZM60.66,91.73c2,5.19,12.55,7.9,17.21,4.64.25,3,2.25,4.33,4.81,4.85a32.72,32.72,0,0,0,15.83-.66,2.64,2.64,0,0,1,1.45-.14c4.79,1.64,9.7,1.65,14.64,1.15,3.78-.38,5.75-2,6.39-5.14,4.38,3.08,14.95.77,17.24-4.67l.69.52c3.87,3,7.22,2.41,9.87-1.68.25-.38.37-.9.71-1.17a3.21,3.21,0,0,1,1.58-.77c1.64-.15,3.37.13,4.92-.29A3.7,3.7,0,0,0,158.33,86a2.71,2.71,0,0,1,2-2.34C162,83,163.8,82.3,165,81.06c2-2,1.72-8.15-.23-10.85l-5.18,4.94c-.91-2.32-1.43-2.51-3.25-.81-1.58,1.47-3,3.16-4.42,4.75l-.44-.32c0-.32,0-.64,0-1,0-2.89-1.59-4-4.29-2.82a10.89,10.89,0,0,0-3.3,2.13c-2,2-3.9,4.17-5.8,6.24A36,36,0,0,0,135,79.92c-3.83-3.32-6.88-3-9.88,1.09-1.18,1.6-2.12,3.38-3.2,5.13-.22-.52-.42-1.05-.65-1.57a8.09,8.09,0,0,0-7.35-5.12c-6-.34-10.34,2.4-13.45,7.37-.34.55-.65,1.11-1,1.77-2.74-4.57-4.51-6.38-7.59-7.86C85.38,77.61,79.71,79.61,77,85.94c0,.06-.14.08,0,0-1.51-2.15-2.83-4.38-4.5-6.32-2-2.3-4-2.67-6.6-1a49.51,49.51,0,0,0-5.47,4.65A14.31,14.31,0,0,0,59,81.38c-2.14-2.06-4.12-4.37-6.56-6-3.07-2-5-.73-5,2.91a5.11,5.11,0,0,1-.26.86c-1.63-1.72-3-3.33-4.54-4.77-1.83-1.71-2.33-1.56-3.38.68L33.71,69.9A19.08,19.08,0,0,0,32.6,78,5.43,5.43,0,0,0,36.53,83a12.87,12.87,0,0,1,2.69,1.12,2.25,2.25,0,0,1,1.05,1.42,3,3,0,0,0,2.5,2.91,11.72,11.72,0,0,0,4.25.27,2.25,2.25,0,0,1,2.76,1.43c2.57,4.62,6.16,5.26,10.36,2Z" transform="translate(-13.87 -61.7)"/><path class="cls-2" d="M60.66,91.73l-.51.36c-4.2,3.28-7.78,2.64-10.36-2A2.25,2.25,0,0,0,47,88.68a11.72,11.72,0,0,1-4.25-.27,3,3,0,0,1-2.5-2.91,2.25,2.25,0,0,0-1.05-1.42A12.87,12.87,0,0,0,36.53,83,5.43,5.43,0,0,1,32.6,78a19.08,19.08,0,0,1,1.11-8.13l5.46,5.17c1.06-2.24,1.55-2.39,3.38-.68,1.54,1.44,2.92,3,4.54,4.77a5.11,5.11,0,0,0,.26-.86c0-3.64,2-4.95,5-2.91,2.44,1.62,4.42,3.93,6.56,6a14.31,14.31,0,0,1,1.45,1.85,49.51,49.51,0,0,1,5.47-4.65c2.55-1.62,4.63-1.25,6.6,1,1.67,1.94,3,4.17,4.5,6.32-.13.06,0,0,0,0,2.72-6.34,8.38-8.33,14.85-5.22,3.08,1.48,4.85,3.29,7.59,7.86.39-.66.7-1.22,1-1.77,3.1-5,7.45-7.71,13.45-7.37a8.09,8.09,0,0,1,7.35,5.12c.23.52.44,1,.65,1.57,1.08-1.75,2-3.53,3.2-5.13,3-4.07,6-4.41,9.88-1.09a36,36,0,0,1,3.11,3.43c1.9-2.06,3.76-4.24,5.8-6.24A10.89,10.89,0,0,1,147.2,75c2.7-1.16,4.26-.07,4.29,2.82,0,.32,0,.64,0,1l.44.32c1.47-1.59,2.85-3.27,4.42-4.75,1.82-1.7,2.33-1.51,3.25.81l5.18-4.94c2,2.7,2.19,8.86.23,10.85-1.21,1.24-3.06,1.91-4.7,2.65a2.71,2.71,0,0,0-2,2.34A3.7,3.7,0,0,1,156,88.37c-1.55.43-3.28.15-4.92.29a3.21,3.21,0,0,0-1.58.77c-.33.27-.46.78-.71,1.17-2.65,4.09-6,4.66-9.87,1.68l-.69-.52c-2.29,5.43-12.85,7.75-17.24,4.67-.64,3.12-2.61,4.76-6.39,5.14-4.94.5-9.86.49-14.64-1.15a2.64,2.64,0,0,0-1.45.14,32.72,32.72,0,0,1-15.83.66c-2.55-.52-4.56-1.88-4.81-4.85C73.21,99.62,62.64,96.92,60.66,91.73Z" transform="translate(-13.87 -61.7)"/></svg>