<svg id="Layer_1" data-name="Layer 1" xmlns="http://www.w3.org/2000/svg" viewBox="0 0 166.01 69.22"><defs><style>.cls-1{fill:#ffe644;}.cls-2{fill:#fff;}</style></defs><title>ortodontija</title><path class="cls-1" d="M24.07,84.7c.23-1.91.32-3.52.63-5.09,1.39-7,5.89-11.28,12.54-13.21a47,47,0,0,1,25.08-.2c5.43,1.39,9.72,4.43,12.12,9.68.19-.06.35-.06.38-.12,3.09-6.32,8.6-9.16,15.15-10.28a48.46,48.46,0,0,1,22,.9,17.33,17.33,0,0,1,11.61,9.86c4-8.26,11.21-10.52,19.31-11.28a50.1,50.1,0,0,1,16.65,1c7.63,1.86,14.07,7,14.37,17.08a7.75,7.75,0,0,0,.18,1l4.2-1.05c2-.48,3.35.12,3.78,1.64s-.52,2.77-2.43,3.3c-1.54.43-3.09.88-4.66,1.17-1,.19-1.46.57-1.56,1.67-.81,9-1.69,18-2.56,26.92-.28,2.92-.47,5.85-.95,8.74-.81,4.87-3.77,7.36-8.69,7.37q-30.64,0-61.27,0H37.88c-6.15,0-9.18-2.68-9.77-8.82-1-10.68-2-21.37-3-32.06-.27-3-.23-3-3.14-3.39-1.2-.18-2.42-.29-3.6-.56a2.56,2.56,0,0,1-2.15-3,2.61,2.61,0,0,1,3.17-2C21,84.21,22.47,84.46,24.07,84.7Zm5.16,5.88C30,97.6,35,109,40,114.8c6.52,7.66,13.48,7.72,20.12.12a46.21,46.21,0,0,0,8.22-14.67c.8-2.15,1.44-4.37,2.2-6.7l-15.71-.78c-.29,1.59-.74,3-2.6,3-2.43,0-4.87,0-7.3,0a2.33,2.33,0,0,1-2.45-2.39c0-.48-.08-1-.12-1.46ZM128,93.81a8.37,8.37,0,0,0,.15,1.12,59.15,59.15,0,0,0,7.22,16.29,24.42,24.42,0,0,0,7.26,7.63c3.69,2.31,7.49,2.48,11,0a27.24,27.24,0,0,0,5.71-5.45c4.51-5.8,7.14-12.53,9-19.57.29-1.09.5-2.2.78-3.45l-14.66,2c-.49,3.22-.78,3.46-4.06,3.45h-4.64c-2.5,0-2.91-.25-3.89-2.55Zm-22.81-4.95c4.38,0,8.69-.1,13,0,1.83.06,2.38-.52,2.63-2.31,1.14-8.23-2.46-14.07-10.44-16.42a29.41,29.41,0,0,0-5.85-1.09c-6-.49-12.06-.54-17.88,1.49-4.2,1.46-7.5,4.08-8.51,8.54-.62,2.74-.39,5.68-.46,8.54a1.26,1.26,0,0,0,.84.91c4.69.06,9.38,0,14.1,0,.7-2.61.82-2.7,3.85-2.69h5.31C104.4,85.91,104.62,86.09,105.14,88.86ZM78.69,94c1.1,3.06,2,6.07,3.25,8.95,2.33,5.48,5.18,10.66,9.8,14.61s9.68,4.09,14.45.23a23.45,23.45,0,0,0,3.39-3.4c4.26-5.22,6.93-11.27,8.93-17.64.27-.87.47-1.76.71-2.65H105.1c-.07.43-.13.7-.15,1-.18,2.6-.69,3.09-3.21,3.08-2,0-4,0-6,0s-2.82-.74-3-2.71c0-.43-.1-.85-.17-1.44Zm63.4-5.83c0-.74,0-1.18,0-1.62,0-2.41.53-3,2.89-3s4.65,0,7,0c1.59,0,2.36.71,2.35,2.3,0,.37.08.73.15,1.37,4.59-.66,9.06-1.38,13.54-1.92,1.72-.21,2.05-1,1.92-2.53-.59-6.6-3.82-10.62-10.26-12.54a41.32,41.32,0,0,0-16.94-1.08,33.64,33.64,0,0,0-9.37,2.5c-6.11,2.69-8.23,10-6.28,17.05Zm-87.27-.45c5.26.24,10.45.5,15.65.67a1.54,1.54,0,0,0,1.12-1c1.08-8.31-1.3-15-11.13-17.46a47.63,47.63,0,0,0-15.67-.83,23.73,23.73,0,0,0-10.13,2.86c-4.57,2.64-7.21,8.48-6,13.45l13.55,1.39c.53-3.1.68-3.22,3.68-3.21h4.32C54.31,83.54,54.31,83.54,54.82,87.69Z" transform="translate(-16.21 -64.6)"/><path class="cls-2" d="M29.23,90.58l13.1,1.32c0,.51.08,1,.12,1.46a2.33,2.33,0,0,0,2.45,2.39c2.43.05,4.87,0,7.3,0,1.85,0,2.3-1.39,2.6-3l15.71.78c-.76,2.33-1.4,4.55-2.2,6.7a46.21,46.21,0,0,1-8.22,14.67c-6.63,7.6-13.6,7.54-20.12-.12C35,109,30,97.6,29.23,90.58Z" transform="translate(-16.21 -64.6)"/><path class="cls-2" d="M128,93.81l13.91-.59c1,2.3,1.38,2.55,3.89,2.55h4.64c3.28,0,3.57-.22,4.06-3.45l14.66-2c-.28,1.25-.49,2.36-.78,3.45-1.87,7-4.5,13.78-9,19.57a27.24,27.24,0,0,1-5.71,5.45c-3.55,2.5-7.35,2.34-11,0a24.42,24.42,0,0,1-7.26-7.63,59.15,59.15,0,0,1-7.22-16.29A8.37,8.37,0,0,1,128,93.81Z" transform="translate(-16.21 -64.6)"/><path class="cls-2" d="M105.14,88.86c-.53-2.78-.74-3-3.4-2.95H96.43c-3,0-3.16.08-3.85,2.69-4.73,0-9.42,0-14.1,0a1.26,1.26,0,0,1-.84-.91c.07-2.85-.16-5.79.46-8.54,1-4.46,4.31-7.08,8.51-8.54,5.82-2,11.85-2,17.88-1.49a29.41,29.41,0,0,1,5.85,1.09c8,2.34,11.58,8.18,10.44,16.42-.25,1.79-.8,2.37-2.63,2.31C113.84,88.77,109.53,88.86,105.14,88.86Z" transform="translate(-16.21 -64.6)"/><path class="cls-2" d="M78.69,94H92.6c.07.59.13,1,.17,1.44.18,2,1,2.7,3,2.71s4,0,6,0c2.52,0,3-.48,3.21-3.08,0-.27.08-.53.15-1h14.12c-.24.89-.44,1.78-.71,2.65-2,6.37-4.67,12.42-8.93,17.64a23.45,23.45,0,0,1-3.39,3.4c-4.77,3.86-9.77,3.76-14.45-.23s-7.48-9.13-9.8-14.61C80.72,100,79.79,97,78.69,94Z" transform="translate(-16.21 -64.6)"/><path class="cls-2" d="M142.1,88.14l-15,.57c-1.95-7,.18-14.36,6.28-17.05a33.64,33.64,0,0,1,9.37-2.5,41.32,41.32,0,0,1,16.94,1.08c6.44,1.92,9.67,5.93,10.26,12.54.14,1.51-.19,2.33-1.92,2.53-4.49.54-8.95,1.26-13.54,1.92-.07-.63-.15-1-.15-1.37,0-1.59-.76-2.32-2.35-2.3-2.32,0-4.65,0-7,0s-2.88.54-2.89,3C142.09,87,142.1,87.4,142.1,88.14Z" transform="translate(-16.21 -64.6)"/><path class="cls-2" d="M54.82,87.69c-.51-4.15-.51-4.15-4.59-4.12H45.91c-3,0-3.16.11-3.68,3.21L28.68,85.39c-1.22-5,1.42-10.81,6-13.45A23.73,23.73,0,0,1,44.8,69.08a47.63,47.63,0,0,1,15.67.83c9.83,2.48,12.21,9.15,11.13,17.46a1.54,1.54,0,0,1-1.12,1C65.27,88.19,60.08,87.93,54.82,87.69Z" transform="translate(-16.21 -64.6)"/></svg>