<svg id="Layer_1" data-name="Layer 1" xmlns="http://www.w3.org/2000/svg" viewBox="0 0 118.33 169.08"><defs><style>.cls-1{fill:#ffe644;}</style></defs><title>implanti</title><rect class="cls-1" x="2.69" y="40.05" width="113.21" height="4.32" rx="1.42" ry="1.42"/><rect class="cls-1" x="2.58" y="52.89" width="113.21" height="4.32" rx="1.42" ry="1.42"/><rect class="cls-1" x="44.54" y="138.83" width="29.51" height="4.32" rx="1.42" ry="1.42"/><rect class="cls-1" x="47.22" y="151.16" width="24.15" height="4.32" rx="1.42" ry="1.42"/><rect class="cls-1" x="51.54" y="163.49" width="15.51" height="4.32" rx="1.42" ry="1.42"/><path class="cls-1" d="M154,40.63c-.55-11.57-7.85-19.36-19.3-20.59a32.87,32.87,0,0,0-12.91,1.26c-15.89,4.71-31.5,5.32-47.43-.5C59.76,15.46,43,27.62,44.46,43.38c0,.39,0,.78.06,1.16H154C154,43.24,154,41.93,154,40.63Z" transform="translate(-40.05 -15.17)"/><path class="cls-1" d="M158.33,44.54c0-.05,0-.1,0-.15,0-1.26,0-2.53,0-3.79-.5-14.74-10.74-24.9-25.46-25.24a51.86,51.86,0,0,0-14.09,2.1c-9.41,2.41-18.91,4.52-28.65,2.72C84,19,78,16.8,71.82,15.64A26.88,26.88,0,0,0,40.12,41.15c0,1.13,0,2.26,0,3.39h-.06v4.32h118.3V44.54ZM44.46,43.38C43,27.62,59.76,15.46,74.33,20.79c15.92,5.82,31.54,5.21,47.43.5A32.87,32.87,0,0,1,134.66,20c11.44,1.23,18.75,9,19.3,20.59.06,1.31,0,2.61,0,3.91H44.53C44.5,44.15,44.47,43.77,44.46,43.38Z" transform="translate(-40.05 -15.17)"/><rect class="cls-1" x="40.74" y="125.16" width="35.65" height="4.83" rx="0.28" ry="0.28"/><rect class="cls-1" x="44.52" y="111.75" width="29.56" height="4.83" rx="0.28" ry="0.28"/><path class="cls-1" d="M40,78.63v4.32a203,203,0,0,1,6.65,48c.08,9.67,1.9,19.21,3.92,28.66,1.47,6.87,3.36,13.65,7.85,19.27,6.44,8.07,15.76,6.91,19.95-2.44,2.11-4.71,3.08-9.76,4.06-14.81C84.63,150.44,84.81,139,88.08,128c2.28-7.62,6.24-11.46,11.25-11.42s8.85,4,11.11,11.6c2.09,7,2.73,14.36,3.81,21.59,1.36,9.07,2.09,18.31,5.87,26.81,4,9,12.84,10.23,19.43,2.85,3.28-3.68,5.1-8.15,6.54-12.78a134.38,134.38,0,0,0,5.51-34c.77-16.81,2.49-33.42,6.74-49.68V78.63ZM146,139.7a93,93,0,0,1-5.47,27.87,24.69,24.69,0,0,1-5,8.88c-4.14,4.3-8.22,3.76-10.68-1.61-3-6.59-3.89-13.74-4.94-20.83-1.32-8.93-2-18-4.58-26.68-3.06-10.25-8.77-15.88-16.06-15.84s-13.07,5.66-16.11,15.87c-3.13,10.51-3.47,21.5-5.39,32.22-.91,5.06-1.75,10.15-3.88,14.87-2.63,5.82-7,6.49-11.19,1.59-4.39-5.14-6-11.56-7.35-18a192.19,192.19,0,0,1-4-36.2c-.29-13.3-2.94-26.17-6.15-38.94h108C148.79,101.57,146.91,120.54,146,139.7Z" transform="translate(-40.05 -15.17)"/></svg>