<?xml version="1.0" standalone="no"?>
<!DOCTYPE svg PUBLIC "-//W3C//DTD SVG 20010904//EN"
 "http://www.w3.org/TR/2001/REC-SVG-20010904/DTD/svg10.dtd">
<svg version="1.0" xmlns="http://www.w3.org/2000/svg"
 width="52.000000pt" height="36.000000pt" viewBox="0 0 52.000000 36.000000"
 preserveAspectRatio="xMidYMid meet">

<g transform="translate(0.000000,36.000000) scale(0.100000,-0.100000)"
fill="#21b6a8" stroke="none">
<path d="M20 340 c-18 -18 -20 -33 -20 -164 0 -118 3 -147 16 -160 23 -24 465
-24 488 0 13 13 16 42 16 160 0 198 20 184 -260 184 -207 0 -221 -1 -240 -20z
m450 -10 c0 -12 -196 -200 -210 -200 -13 0 -210 187 -210 200 0 3 94 5 210 5
116 0 210 -2 210 -5z m-373 -82 c35 -34 63 -66 63 -71 0 -13 -112 -127 -124
-127 -7 0 -11 45 -11 130 0 72 2 130 5 130 2 0 33 -28 67 -62z m398 -72 c0
-86 -4 -132 -10 -128 -5 2 -37 33 -69 69 l-60 64 64 64 c36 36 67 65 70 65 3
0 5 -60 5 -134z m-235 -76 c5 0 25 13 43 30 l34 30 67 -67 c36 -36 66 -68 66
-70 0 -2 -94 -3 -210 -3 -116 0 -210 2 -210 4 0 2 30 33 67 69 l67 65 34 -29
c18 -16 37 -29 42 -29z"/>
</g>
</svg>
