<svg xmlns="http://www.w3.org/2000/svg" xmlns:xlink="http://www.w3.org/1999/xlink" width="70" zoomAndPan="magnify" viewBox="0 0 52.5 52.499999" height="70" preserveAspectRatio="xMidYMid meet" version="1.2"><defs><clipPath id="20e9068206"><path d="M 3.125 4.753906 L 49 4.753906 L 49 47.101562 L 3.125 47.101562 Z M 3.125 4.753906 "/></clipPath></defs><g id="10f53b9c23"><g clip-rule="nonzero" clip-path="url(#20e9068206)"><path style=" stroke:none;fill-rule:nonzero;fill:#727880;fill-opacity:1;" d="M 30.316406 23.753906 C 30.300781 23.941406 30.144531 24.082031 29.960938 24.082031 C 29.949219 24.082031 29.941406 24.082031 29.933594 24.082031 C 28.875 24 27.878906 23.714844 26.964844 23.234375 C 26.601562 23.042969 26.25 22.820312 25.921875 22.566406 C 25.59375 22.820312 25.242188 23.042969 24.878906 23.234375 C 23.964844 23.714844 22.96875 24 21.914062 24.082031 C 21.714844 24.097656 21.542969 23.949219 21.527344 23.753906 C 21.511719 23.554688 21.660156 23.382812 21.855469 23.367188 C 22.8125 23.292969 23.71875 23.035156 24.542969 22.601562 C 24.949219 22.386719 25.335938 22.128906 25.695312 21.832031 C 25.828125 21.722656 26.019531 21.722656 26.152344 21.832031 C 26.507812 22.128906 26.894531 22.386719 27.300781 22.601562 C 28.125 23.035156 29.03125 23.292969 29.988281 23.367188 C 30.183594 23.382812 30.332031 23.554688 30.316406 23.753906 Z M 19.488281 23.367188 C 18.53125 23.292969 17.628906 23.035156 16.804688 22.601562 C 16.398438 22.386719 16.011719 22.128906 15.652344 21.832031 C 15.519531 21.722656 15.328125 21.722656 15.195312 21.832031 C 14.839844 22.128906 14.453125 22.386719 14.046875 22.601562 C 13.21875 23.035156 12.316406 23.292969 11.359375 23.367188 C 11.164062 23.382812 11.015625 23.554688 11.03125 23.753906 C 11.046875 23.949219 11.21875 24.097656 11.414062 24.082031 C 12.46875 24 13.46875 23.714844 14.378906 23.234375 C 14.746094 23.042969 15.09375 22.816406 15.425781 22.566406 C 15.753906 22.820312 16.105469 23.042969 16.46875 23.234375 C 17.382812 23.714844 18.378906 24 19.433594 24.082031 C 19.445312 24.082031 19.453125 24.082031 19.460938 24.082031 C 19.648438 24.082031 19.804688 23.941406 19.820312 23.753906 C 19.835938 23.554688 19.6875 23.382812 19.488281 23.367188 Z M 11.8125 16.5 L 40.03125 16.5 C 40.894531 16.5 41.699219 16.890625 42.234375 17.574219 L 47.90625 24.792969 C 48.578125 25.644531 48.699219 26.78125 48.226562 27.753906 C 47.800781 28.628906 46.976562 29.203125 46.03125 29.3125 L 44.628906 44.761719 C 44.507812 46.097656 43.410156 47.101562 42.070312 47.101562 L 9.773438 47.101562 C 8.433594 47.101562 7.335938 46.097656 7.214844 44.761719 L 5.8125 29.3125 C 4.867188 29.203125 4.042969 28.628906 3.621094 27.753906 C 3.144531 26.78125 3.265625 25.644531 3.9375 24.792969 L 9.609375 17.574219 C 10.144531 16.890625 10.949219 16.5 11.8125 16.5 Z M 9.773438 46.382812 L 10.992188 46.382812 L 9.445312 29.332031 L 6.535156 29.332031 L 7.929688 44.699219 C 8.015625 45.660156 8.808594 46.382812 9.773438 46.382812 Z M 40.875 38.21875 L 10.972656 38.21875 L 11.308594 41.941406 L 40.535156 41.941406 Z M 41.277344 33.773438 L 10.566406 33.773438 L 10.90625 37.5 L 40.9375 37.5 Z M 41.679688 29.332031 L 10.164062 29.332031 L 10.503906 33.058594 L 41.339844 33.058594 Z M 25.921875 46.382812 L 40.132812 46.382812 L 40.46875 42.660156 L 11.375 42.660156 L 11.710938 46.382812 Z M 45.308594 29.332031 L 42.398438 29.332031 L 40.851562 46.382812 L 42.070312 46.382812 C 43.035156 46.382812 43.828125 45.660156 43.914062 44.699219 Z M 40.03125 17.21875 L 11.8125 17.21875 C 11.167969 17.21875 10.570312 17.507812 10.171875 18.015625 L 4.5 25.238281 C 3.996094 25.878906 3.90625 26.703125 4.265625 27.441406 C 4.621094 28.175781 5.324219 28.617188 6.140625 28.617188 L 45.703125 28.617188 C 46.519531 28.617188 47.222656 28.175781 47.578125 27.441406 C 47.9375 26.703125 47.851562 25.878906 47.34375 25.238281 L 41.671875 18.015625 C 41.273438 17.507812 40.675781 17.21875 40.03125 17.21875 Z M 7.472656 25.523438 L 11.914062 19.867188 C 11.980469 19.78125 12.085938 19.730469 12.195312 19.730469 L 39.648438 19.730469 C 39.757812 19.730469 39.863281 19.78125 39.929688 19.867188 L 44.371094 25.523438 C 44.457031 25.628906 44.472656 25.777344 44.414062 25.902344 C 44.351562 26.023438 44.226562 26.101562 44.089844 26.101562 L 7.753906 26.101562 C 7.617188 26.101562 7.492188 26.023438 7.429688 25.902344 C 7.371094 25.777344 7.386719 25.628906 7.472656 25.523438 Z M 8.492188 25.386719 L 43.351562 25.386719 L 39.476562 20.449219 L 12.371094 20.449219 Z M 40.484375 23.367188 C 39.527344 23.292969 38.625 23.035156 37.796875 22.601562 C 37.390625 22.386719 37.003906 22.128906 36.648438 21.832031 C 36.515625 21.722656 36.324219 21.722656 36.191406 21.832031 C 35.835938 22.128906 35.445312 22.386719 35.039062 22.601562 C 34.214844 23.035156 33.3125 23.292969 32.355469 23.367188 C 32.15625 23.382812 32.007812 23.554688 32.023438 23.753906 C 32.039062 23.949219 32.210938 24.097656 32.410156 24.082031 C 33.464844 24 34.460938 23.714844 35.375 23.234375 C 35.738281 23.042969 36.089844 22.816406 36.417969 22.566406 C 36.75 22.820312 37.097656 23.042969 37.464844 23.234375 C 38.375 23.714844 39.375 24 40.429688 24.082031 C 40.4375 24.082031 40.449219 24.082031 40.457031 24.082031 C 40.640625 24.082031 40.800781 23.941406 40.8125 23.753906 C 40.828125 23.554688 40.683594 23.382812 40.484375 23.367188 Z M 24.757812 13.910156 C 24.78125 14.59375 25.082031 15.261719 25.65625 15.890625 C 25.726562 15.96875 25.824219 16.007812 25.921875 16.007812 C 26.007812 16.007812 26.09375 15.976562 26.164062 15.914062 C 26.308594 15.78125 26.320312 15.554688 26.1875 15.40625 C 25.730469 14.90625 25.492188 14.394531 25.472656 13.886719 C 25.449219 13.226562 25.800781 12.796875 26.210938 12.300781 C 26.621094 11.800781 27.089844 11.234375 27.089844 10.398438 C 27.089844 9.5625 26.621094 8.996094 26.210938 8.496094 C 25.800781 8 25.449219 7.570312 25.472656 6.910156 C 25.492188 6.402344 25.730469 5.890625 26.1875 5.390625 C 26.320312 5.242188 26.308594 5.015625 26.164062 4.882812 C 26.015625 4.75 25.789062 4.761719 25.65625 4.90625 C 25.082031 5.539062 24.78125 6.203125 24.757812 6.886719 C 24.722656 7.816406 25.21875 8.417969 25.65625 8.953125 C 26.039062 9.417969 26.371094 9.820312 26.371094 10.398438 C 26.371094 10.976562 26.039062 11.378906 25.65625 11.847656 C 25.21875 12.378906 24.722656 12.980469 24.757812 13.910156 Z M 16.277344 13.910156 C 16.304688 14.59375 16.605469 15.261719 17.179688 15.890625 C 17.25 15.96875 17.347656 16.007812 17.445312 16.007812 C 17.53125 16.007812 17.617188 15.976562 17.6875 15.914062 C 17.832031 15.78125 17.84375 15.554688 17.710938 15.40625 C 17.253906 14.90625 17.015625 14.394531 16.996094 13.886719 C 16.972656 13.226562 17.324219 12.796875 17.734375 12.300781 C 18.144531 11.800781 18.609375 11.234375 18.609375 10.398438 C 18.609375 9.5625 18.144531 8.996094 17.734375 8.496094 C 17.324219 8 16.972656 7.570312 16.996094 6.910156 C 17.015625 6.402344 17.253906 5.890625 17.710938 5.390625 C 17.84375 5.242188 17.832031 5.015625 17.6875 4.882812 C 17.539062 4.75 17.3125 4.761719 17.179688 4.90625 C 16.605469 5.539062 16.304688 6.203125 16.277344 6.886719 C 16.246094 7.816406 16.742188 8.417969 17.179688 8.953125 C 17.5625 9.417969 17.894531 9.820312 17.894531 10.398438 C 17.894531 10.976562 17.5625 11.378906 17.179688 11.847656 C 16.742188 12.378906 16.246094 12.980469 16.277344 13.910156 Z M 33.234375 13.910156 C 33.257812 14.59375 33.5625 15.261719 34.136719 15.890625 C 34.207031 15.96875 34.304688 16.007812 34.402344 16.007812 C 34.488281 16.007812 34.574219 15.976562 34.640625 15.914062 C 34.789062 15.78125 34.800781 15.554688 34.664062 15.40625 C 34.210938 14.90625 33.96875 14.394531 33.953125 13.886719 C 33.929688 13.226562 34.28125 12.796875 34.6875 12.300781 C 35.101562 11.800781 35.566406 11.234375 35.566406 10.398438 C 35.566406 9.5625 35.101562 8.996094 34.6875 8.496094 C 34.28125 8 33.929688 7.570312 33.953125 6.910156 C 33.96875 6.402344 34.210938 5.890625 34.664062 5.390625 C 34.800781 5.242188 34.789062 5.015625 34.640625 4.882812 C 34.496094 4.75 34.269531 4.761719 34.136719 4.90625 C 33.5625 5.539062 33.257812 6.203125 33.234375 6.886719 C 33.203125 7.816406 33.699219 8.417969 34.136719 8.953125 C 34.519531 9.417969 34.851562 9.820312 34.851562 10.398438 C 34.851562 10.976562 34.519531 11.378906 34.136719 11.847656 C 33.699219 12.378906 33.203125 12.980469 33.234375 13.910156 Z M 33.234375 13.910156 "/></g></g></svg>