<svg xmlns="http://www.w3.org/2000/svg" xmlns:xlink="http://www.w3.org/1999/xlink" width="70" zoomAndPan="magnify" viewBox="0 0 52.5 52.499999" height="70" preserveAspectRatio="xMidYMid meet" version="1.2"><defs><clipPath id="2c032d7def"><path d="M 2.683594 8.253906 L 49.488281 8.253906 L 49.488281 43.914062 L 2.683594 43.914062 Z M 2.683594 8.253906 "/></clipPath></defs><g id="9443ddbf07"><g clip-rule="nonzero" clip-path="url(#2c032d7def)"><path style=" stroke:none;fill-rule:evenodd;fill:#727880;fill-opacity:1;" d="M 3.867188 39.957031 C 3.835938 40.390625 3.882812 40.644531 4.007812 40.84375 C 4.105469 40.992188 4.25 41.121094 4.488281 41.253906 C 4.777344 41.414062 5.34375 41.550781 6.054688 41.640625 C 7.234375 41.789062 8.820312 41.832031 10.011719 41.796875 L 10.109375 41.796875 C 12.605469 41.890625 16.207031 43.035156 22.148438 43.257812 C 28.457031 43.492188 43.464844 43.734375 44.425781 43.59375 C 45.148438 43.488281 45.378906 42.972656 45.417969 42.476562 C 45.429688 42.316406 45.417969 42.15625 45.398438 42.027344 C 45.574219 42.019531 45.746094 42.015625 45.910156 42.007812 C 47.230469 41.949219 48.144531 41.835938 48.480469 41.6875 C 48.734375 41.578125 48.824219 41.40625 48.847656 41.273438 C 48.980469 40.535156 48.902344 39.953125 48.828125 39.628906 C 49.097656 39.4375 49.210938 39.210938 49.21875 39.003906 C 49.25 37.847656 49.25 36.070312 49.089844 33.953125 L 49.101562 33.953125 L 49.101562 33.542969 C 49.101562 32.660156 49.320312 32.050781 49.234375 28.105469 C 49.152344 24.1875 47.917969 13.015625 46.699219 10.460938 L 46.65625 10.371094 C 46.53125 9.839844 46.363281 9.421875 46.148438 9.140625 C 45.847656 8.742188 45.460938 8.5625 44.980469 8.628906 C 38.332031 9.523438 23.808594 8.355469 14.949219 8.28125 C 12.25 8.261719 10.066406 8.339844 8.773438 8.605469 C 8.125 8.734375 7.679688 8.929688 7.445312 9.148438 C 6.523438 10.015625 5.945312 11.644531 5.609375 13.464844 C 5.125 16.078125 5.109375 19.089844 5.097656 20.621094 C 5.082031 22.875 4.683594 25.445312 4.609375 25.917969 C 4.1875 26.640625 3.855469 27.929688 3.609375 29.394531 C 3.054688 32.671875 2.898438 36.847656 2.886719 37.15625 C 2.683594 38.546875 3.183594 39.523438 3.867188 39.957031 Z M 44.578125 42.050781 C 37.703125 42.203125 23.800781 41.675781 20.453125 41.875 C 18.945312 41.960938 17.613281 41.953125 16.425781 41.910156 C 18.058594 42.148438 19.957031 42.359375 22.179688 42.445312 C 28.445312 42.675781 43.351562 42.925781 44.304688 42.789062 C 44.539062 42.753906 44.59375 42.574219 44.605469 42.417969 C 44.613281 42.285156 44.59375 42.144531 44.578125 42.050781 Z M 48.0625 39.960938 C 47.367188 40.167969 46.304688 40.335938 44.960938 40.464844 C 35.335938 41.375 10.773438 40.457031 4.671875 40.214844 C 4.667969 40.230469 4.671875 40.367188 4.695312 40.402344 C 4.730469 40.457031 4.796875 40.492188 4.886719 40.542969 C 5.117188 40.671875 5.585938 40.761719 6.15625 40.832031 C 7.214844 40.964844 8.613281 41.011719 9.730469 40.988281 C 9.730469 40.988281 10.625 40.953125 10.867188 40.929688 C 12.945312 40.730469 15.914062 41.324219 20.402344 41.0625 C 23.992188 40.851562 39.65625 41.464844 45.875 41.195312 C 46.949219 41.148438 47.722656 41.085938 48.070312 40.972656 C 48.128906 40.546875 48.101562 40.195312 48.0625 39.960938 Z M 46.171875 13.605469 C 45.824219 14.769531 45.171875 16.628906 44.066406 18.734375 L 44.070312 18.746094 L 44.054688 18.753906 C 43.273438 20.242188 42.265625 21.847656 40.980469 23.421875 C 38.441406 26.535156 37.949219 30.757812 36.929688 33.808594 C 36.183594 36.03125 35.148438 37.648438 33.082031 38 C 28.988281 38.691406 14.3125 36.796875 6.816406 38.25 C 6.210938 38.367188 5.472656 38.457031 4.96875 38.679688 C 4.8125 38.75 4.675781 38.820312 4.621094 38.945312 C 4.570312 39.054688 4.726562 39.402344 4.726562 39.402344 C 10.851562 39.644531 35.300781 40.558594 44.882812 39.652344 C 46.28125 39.519531 47.355469 39.351562 47.996094 39.132812 C 48.167969 39.070312 48.347656 38.960938 48.402344 38.925781 C 48.46875 36.445312 48.386719 31.175781 46.890625 25.828125 C 46 22.65625 46.300781 17.390625 46.171875 13.605469 Z M 28.433594 29.027344 C 28.25 29.3125 28.078125 29.605469 27.917969 29.910156 C 27.875 30 27.867188 30.105469 27.902344 30.199219 C 27.9375 30.296875 28.007812 30.375 28.101562 30.417969 L 28.105469 30.417969 C 29.375 31.007812 31.925781 32.296875 33.113281 33.640625 C 33.722656 34.332031 33.980469 35.058594 33.734375 35.71875 C 33.699219 35.820312 33.589844 35.976562 33.324219 36.042969 C 33.015625 36.117188 32.191406 36.121094 30.996094 36.066406 C 25.34375 35.808594 10.835938 34.441406 3.746094 36.546875 L 3.726562 36.550781 C 3.707031 36.960938 3.695312 37.25 3.695312 37.25 C 3.605469 37.84375 3.667969 38.339844 3.835938 38.710938 C 3.851562 38.675781 3.863281 38.640625 3.878906 38.605469 C 4.007812 38.324219 4.273438 38.097656 4.640625 37.933594 C 5.191406 37.691406 5.996094 37.582031 6.660156 37.449219 C 14.164062 35.996094 28.851562 37.890625 32.945312 37.195312 C 33.515625 37.097656 33.988281 36.882812 34.386719 36.566406 L 34.628906 36.25 C 35.71875 34.820312 34.949219 33.429688 33.710938 32.261719 C 31.917969 30.566406 29.113281 29.316406 28.433594 29.027344 Z M 29.730469 26.136719 C 28.101562 26.125 24.726562 26.03125 22.101562 25.5 C 18.566406 24.789062 15.15625 25.304688 12.613281 25.175781 C 11.109375 25.101562 9.261719 25.1875 7.734375 25.492188 C 6.773438 25.683594 5.9375 25.957031 5.433594 26.34375 L 5.207031 26.519531 C 4.871094 27.207031 4.617188 28.300781 4.410156 29.527344 C 4.054688 31.640625 3.863281 34.132812 3.773438 35.691406 C 11.023438 33.671875 25.390625 34.996094 31.035156 35.253906 C 31.984375 35.296875 32.667969 35.316406 33.011719 35.273438 C 33.03125 35.074219 32.96875 34.875 32.855469 34.667969 C 32.667969 34.332031 32.355469 33.996094 31.972656 33.664062 C 30.730469 32.597656 28.796875 31.636719 27.765625 31.160156 C 27.46875 31.027344 27.242188 30.777344 27.132812 30.472656 C 27.027344 30.167969 27.046875 29.828125 27.195312 29.535156 C 27.855469 28.277344 28.730469 27.1875 29.730469 26.136719 Z M 36.222656 21.117188 C 35.757812 21.492188 35.324219 21.871094 34.945312 22.253906 C 32.695312 24.5 30.480469 26.222656 28.90625 28.347656 C 29.824219 28.746094 32.511719 30.003906 34.269531 31.667969 C 35.097656 32.449219 35.714844 33.320312 35.910156 34.230469 C 35.996094 34.011719 36.078125 33.785156 36.15625 33.550781 C 37.097656 30.742188 37.628906 26.972656 39.613281 23.921875 L 39.589844 23.84375 C 39.355469 23.171875 38.777344 22.617188 38.183594 22.183594 C 37.261719 21.511719 36.269531 21.132812 36.222656 21.117188 Z M 47.007812 14.925781 C 47.042969 18.488281 46.898438 22.847656 47.671875 25.609375 C 47.984375 26.714844 48.234375 27.816406 48.433594 28.890625 C 48.433594 28.648438 48.425781 28.394531 48.421875 28.125 C 48.363281 25.433594 47.769531 19.25 47.007812 14.925781 Z M 31.457031 24.445312 C 31.039062 24.421875 30.472656 24.453125 29.824219 24.480469 C 28.207031 24.550781 26.132812 24.65625 24.484375 24.269531 C 21.804688 23.640625 18.136719 24.136719 13.253906 23.320312 C 9.5 22.691406 5.664062 24.773438 5.664062 24.773438 L 5.589844 24.816406 C 5.5625 25.007812 5.539062 25.1875 5.515625 25.34375 C 6.070312 25.070312 6.78125 24.851562 7.578125 24.691406 C 9.164062 24.375 11.085938 24.285156 12.652344 24.363281 C 15.230469 24.492188 18.679688 23.980469 22.261719 24.703125 C 25.316406 25.316406 29.40625 25.328125 30.441406 25.324219 L 30.539062 25.320312 C 30.835938 25.03125 31.144531 24.738281 31.457031 24.445312 Z M 32.894531 23.097656 C 32.398438 23.015625 31.808594 23.007812 31.175781 23.023438 C 29.796875 23.054688 28.207031 23.203125 26.773438 23.09375 C 24.707031 22.9375 18.789062 22.601562 13.71875 21.726562 C 8.859375 20.886719 5.878906 23.113281 5.878906 23.113281 L 5.769531 23.195312 C 5.75 23.417969 5.726562 23.636719 5.703125 23.847656 C 6.855469 23.3125 10.152344 21.976562 13.386719 22.515625 C 18.296875 23.335938 21.980469 22.84375 24.671875 23.476562 C 26.25 23.847656 28.238281 23.734375 29.789062 23.667969 C 30.871094 23.617188 31.757812 23.605469 32.203125 23.746094 C 32.433594 23.53125 32.664062 23.316406 32.894531 23.097656 Z M 37.554688 20.109375 C 37.351562 20.253906 37.15625 20.398438 36.960938 20.542969 C 37.382812 20.734375 38.035156 21.070312 38.664062 21.527344 C 39.257812 21.960938 39.824219 22.507812 40.164062 23.140625 C 40.226562 23.0625 40.289062 22.984375 40.351562 22.910156 C 40.445312 22.792969 40.539062 22.675781 40.632812 22.558594 L 40.621094 22.53125 C 40.148438 21.378906 38.726562 20.574219 37.90625 20.179688 Z M 34.632812 21.421875 C 33 21.121094 33.097656 21.570312 28.359375 21.390625 C 23.15625 21.191406 19.410156 20.566406 14.089844 20.078125 C 8.945312 19.605469 5.929688 21.585938 5.929688 21.585938 L 5.882812 21.613281 C 5.875 21.796875 5.863281 21.980469 5.851562 22.164062 C 6.921875 21.539062 9.773438 20.21875 13.855469 20.921875 C 18.898438 21.792969 24.78125 22.128906 26.835938 22.28125 C 28.242188 22.390625 29.804688 22.238281 31.15625 22.207031 C 32.101562 22.1875 32.953125 22.226562 33.605469 22.425781 C 33.859375 22.183594 34.113281 21.933594 34.371094 21.675781 C 34.453125 21.589844 34.542969 21.507812 34.632812 21.421875 Z M 39.089844 19.054688 C 38.859375 19.210938 38.628906 19.363281 38.402344 19.519531 C 39.253906 19.953125 40.542969 20.753906 41.179688 21.835938 C 41.34375 21.613281 41.5 21.394531 41.648438 21.175781 C 41.109375 20.15625 39.859375 19.4375 39.089844 19.054688 Z M 36.449219 19.914062 C 34.144531 19.566406 32.390625 19.710938 28.492188 19.621094 C 23.992188 19.519531 19.4375 18.417969 13.679688 18.367188 C 8.117188 18.320312 5.960938 20.089844 5.960938 20.089844 L 5.917969 20.125 C 5.914062 20.304688 5.914062 20.472656 5.914062 20.625 C 5.914062 20.636719 5.914062 20.648438 5.914062 20.65625 C 6.957031 20.109375 9.859375 18.871094 14.164062 19.265625 C 19.46875 19.753906 23.203125 20.378906 28.390625 20.578125 C 33.640625 20.777344 33.082031 20.234375 35.265625 20.722656 L 35.390625 20.75 C 35.722656 20.46875 36.078125 20.191406 36.449219 19.914062 Z M 40.679688 18.027344 C 40.414062 18.199219 40.144531 18.371094 39.871094 18.546875 C 40.628906 18.964844 41.566406 19.605469 42.144531 20.429688 C 42.261719 20.242188 42.375 20.0625 42.484375 19.878906 C 42.039062 19.101562 41.269531 18.453125 40.679688 18.027344 Z M 45.1875 9.433594 C 45.15625 9.429688 45.121094 9.429688 45.089844 9.4375 C 38.414062 10.335938 23.835938 9.171875 14.941406 9.097656 C 12.683594 9.078125 10.796875 9.128906 9.507812 9.304688 C 9.023438 9.371094 8.628906 9.457031 8.339844 9.5625 C 8.191406 9.617188 8.078125 9.671875 8.003906 9.738281 C 7.183594 10.515625 6.710938 11.988281 6.410156 13.613281 C 6.0625 15.484375 5.964844 17.5625 5.933594 19.132812 C 6.886719 18.574219 9.289062 17.515625 13.6875 17.554688 C 19.449219 17.605469 24.007812 18.707031 28.511719 18.808594 C 32.898438 18.90625 34.609375 18.722656 37.371094 19.246094 C 38.789062 18.25 40.324219 17.296875 41.65625 16.445312 C 43.175781 15.472656 44.429688 14.652344 44.863281 14.050781 C 45.269531 13.488281 45.390625 12.660156 45.410156 11.875 C 45.441406 10.625 45.191406 9.460938 45.191406 9.460938 Z M 41.929688 17.234375 C 41.761719 17.34375 41.589844 17.449219 41.417969 17.5625 C 41.929688 17.957031 42.507812 18.484375 42.945312 19.089844 C 43.011719 18.972656 43.078125 18.851562 43.144531 18.734375 C 42.828125 18.160156 42.363281 17.640625 41.929688 17.234375 Z M 44.730469 15.308594 C 44.191406 15.742188 43.46875 16.242188 42.636719 16.78125 C 42.964844 17.105469 43.300781 17.484375 43.582031 17.894531 C 44.054688 16.957031 44.429688 16.078125 44.730469 15.308594 Z M 44.730469 15.308594 "/></g></g></svg>