<svg xmlns="http://www.w3.org/2000/svg" xmlns:xlink="http://www.w3.org/1999/xlink" width="70" zoomAndPan="magnify" viewBox="0 0 52.5 52.499999" height="70" preserveAspectRatio="xMidYMid meet" version="1.2"><defs><clipPath id="4e66fb22b6"><path d="M 3.894531 1.128906 L 42 1.128906 L 42 23 L 3.894531 23 Z M 3.894531 1.128906 "/></clipPath><clipPath id="d7f6895b67"><path d="M 3.894531 19 L 6 19 L 6 26 L 3.894531 26 Z M 3.894531 19 "/></clipPath><clipPath id="3b06469be7"><path d="M 17.757812 18.617188 L 48.101562 18.617188 L 48.101562 50.835938 L 17.757812 50.835938 Z M 17.757812 18.617188 "/></clipPath></defs><g id="b5cac824c1"><path style=" stroke:none;fill-rule:nonzero;fill:#727880;fill-opacity:1;" d="M 22.664062 5.007812 C 22.253906 5.007812 21.921875 5.414062 21.921875 5.910156 C 21.921875 6.410156 22.253906 6.816406 22.664062 6.816406 C 23.074219 6.816406 23.410156 6.410156 23.410156 5.910156 C 23.410156 5.414062 23.074219 5.007812 22.664062 5.007812 Z M 22.664062 7.742188 C 21.742188 7.742188 20.992188 6.921875 20.992188 5.910156 C 20.992188 4.902344 21.742188 4.078125 22.664062 4.078125 C 23.585938 4.078125 24.335938 4.902344 24.335938 5.910156 C 24.335938 6.921875 23.585938 7.742188 22.664062 7.742188 "/><g clip-rule="nonzero" clip-path="url(#4e66fb22b6)"><path style=" stroke:none;fill-rule:nonzero;fill:#727880;fill-opacity:1;" d="M 4.878906 20.136719 C 5.085938 20.316406 6.070312 20.902344 10.246094 21.40625 C 13.625 21.8125 18.035156 22.035156 22.664062 22.035156 C 27.296875 22.035156 31.707031 21.8125 35.085938 21.40625 C 39.261719 20.902344 40.242188 20.316406 40.453125 20.136719 C 40.28125 19.988281 39.578125 19.5625 36.886719 19.125 C 34.628906 18.761719 31.617188 18.496094 28.175781 18.355469 C 27.652344 18.332031 27.171875 18.078125 26.859375 17.660156 C 26.292969 16.902344 25.265625 15.195312 24.726562 12.257812 C 24.453125 10.757812 24.746094 9.222656 25.546875 7.929688 C 25.9375 7.296875 26.144531 6.597656 26.144531 5.910156 C 26.144531 3.839844 24.550781 2.089844 22.664062 2.089844 C 20.777344 2.089844 19.183594 3.839844 19.183594 5.910156 C 19.183594 6.597656 19.390625 7.296875 19.785156 7.929688 C 20.585938 9.222656 20.875 10.757812 20.601562 12.257812 C 20.066406 15.195312 19.035156 16.902344 18.472656 17.660156 C 18.15625 18.078125 17.675781 18.332031 17.152344 18.355469 C 13.714844 18.496094 10.703125 18.761719 8.441406 19.125 C 5.75 19.5625 5.050781 19.988281 4.878906 20.136719 Z M 22.664062 22.964844 C 17.761719 22.964844 13.144531 22.71875 9.671875 22.269531 C 4.59375 21.613281 3.910156 20.824219 3.910156 20.140625 C 3.910156 19.5625 4.382812 18.886719 7.902344 18.277344 C 10.234375 17.871094 13.417969 17.578125 17.113281 17.425781 C 17.359375 17.417969 17.582031 17.296875 17.726562 17.105469 C 18.246094 16.410156 19.1875 14.839844 19.6875 12.09375 C 19.921875 10.820312 19.675781 9.515625 18.996094 8.417969 C 18.511719 7.640625 18.257812 6.773438 18.257812 5.910156 C 18.257812 3.335938 20.277344 1.160156 22.664062 1.160156 C 25.054688 1.160156 27.074219 3.335938 27.074219 5.910156 C 27.074219 6.769531 26.816406 7.640625 26.335938 8.417969 C 25.65625 9.515625 25.410156 10.820312 25.640625 12.09375 C 26.144531 14.839844 27.085938 16.410156 27.601562 17.105469 C 27.746094 17.296875 27.972656 17.417969 28.214844 17.425781 C 31.910156 17.578125 35.097656 17.871094 37.429688 18.277344 C 40.945312 18.886719 41.417969 19.5625 41.417969 20.140625 C 41.417969 20.824219 40.734375 21.613281 35.65625 22.269531 C 32.183594 22.71875 27.570312 22.964844 22.664062 22.964844 "/></g><path style=" stroke:none;fill-rule:nonzero;fill:#727880;fill-opacity:1;" d="M 17.132812 18.355469 C 16.886719 18.355469 16.679688 18.160156 16.671875 17.910156 C 16.660156 17.652344 16.859375 17.4375 17.113281 17.425781 C 18.902344 17.355469 20.769531 17.316406 22.664062 17.316406 C 22.921875 17.316406 23.128906 17.523438 23.128906 17.78125 C 23.128906 18.035156 22.921875 18.242188 22.664062 18.242188 C 20.785156 18.242188 18.929688 18.28125 17.152344 18.355469 C 17.144531 18.355469 17.140625 18.355469 17.132812 18.355469 "/><path style=" stroke:none;fill-rule:nonzero;fill:#727880;fill-opacity:1;" d="M 16.046875 47.550781 C 16.035156 47.550781 16.027344 47.550781 16.015625 47.550781 C 13.1875 47.363281 10.78125 47.066406 9.058594 46.683594 C 6.988281 46.226562 6.050781 45.691406 6.03125 44.957031 L 5.796875 42.210938 C 5.773438 41.957031 5.964844 41.730469 6.21875 41.710938 C 6.476562 41.6875 6.699219 41.878906 6.722656 42.132812 L 6.957031 44.894531 C 6.957031 44.898438 6.957031 44.902344 6.957031 44.90625 C 7 44.96875 7.363281 45.390625 9.546875 45.839844 C 11.203125 46.179688 13.460938 46.453125 16.074219 46.625 C 16.332031 46.640625 16.523438 46.863281 16.507812 47.117188 C 16.492188 47.363281 16.289062 47.550781 16.046875 47.550781 "/><path style=" stroke:none;fill-rule:nonzero;fill:#727880;fill-opacity:1;" d="M 6.039062 40.054688 C 5.800781 40.054688 5.597656 39.871094 5.578125 39.628906 L 4.566406 27.832031 C 4.542969 27.574219 4.734375 27.351562 4.988281 27.328125 C 5.242188 27.308594 5.46875 27.496094 5.492188 27.753906 L 6.5 39.550781 C 6.523438 39.804688 6.332031 40.03125 6.078125 40.050781 C 6.0625 40.054688 6.050781 40.054688 6.039062 40.054688 "/><g clip-rule="nonzero" clip-path="url(#d7f6895b67)"><path style=" stroke:none;fill-rule:nonzero;fill:#727880;fill-opacity:1;" d="M 4.800781 25.613281 C 4.566406 25.613281 4.363281 25.433594 4.339844 25.191406 L 3.917969 20.234375 C 3.894531 19.976562 4.085938 19.753906 4.339844 19.730469 C 4.597656 19.710938 4.820312 19.898438 4.839844 20.152344 L 5.265625 25.113281 C 5.289062 25.367188 5.097656 25.589844 4.84375 25.613281 C 4.828125 25.613281 4.816406 25.613281 4.800781 25.613281 "/></g><path style=" stroke:none;fill-rule:nonzero;fill:#727880;fill-opacity:1;" d="M 31.757812 47.347656 C 31.523438 47.347656 31.320312 47.167969 31.296875 46.929688 C 31.273438 46.675781 31.457031 46.449219 31.714844 46.421875 C 36.769531 45.921875 38.222656 45.167969 38.371094 44.910156 C 38.371094 44.902344 38.371094 44.898438 38.371094 44.894531 L 38.609375 42.140625 C 38.628906 41.882812 38.851562 41.695312 39.109375 41.71875 C 39.363281 41.738281 39.554688 41.964844 39.53125 42.21875 L 39.296875 44.957031 C 39.28125 45.605469 38.578125 46.082031 37.019531 46.5 C 35.769531 46.839844 33.964844 47.132812 31.804688 47.347656 C 31.789062 47.347656 31.773438 47.347656 31.757812 47.347656 "/><path style=" stroke:none;fill-rule:nonzero;fill:#727880;fill-opacity:1;" d="M 39.292969 40.054688 C 39.277344 40.054688 39.265625 40.054688 39.253906 40.050781 C 38.996094 40.03125 38.808594 39.804688 38.828125 39.550781 L 39.535156 31.289062 C 39.558594 31.035156 39.78125 30.84375 40.039062 30.867188 C 40.292969 30.886719 40.480469 31.113281 40.460938 31.367188 L 39.753906 39.628906 C 39.734375 39.871094 39.53125 40.054688 39.292969 40.054688 "/><path style=" stroke:none;fill-rule:nonzero;fill:#727880;fill-opacity:1;" d="M 40.859375 21.738281 C 40.84375 21.738281 40.832031 21.738281 40.820312 21.734375 C 40.5625 21.714844 40.375 21.488281 40.394531 21.234375 L 40.488281 20.152344 C 40.511719 19.898438 40.734375 19.707031 40.988281 19.730469 C 41.246094 19.753906 41.433594 19.976562 41.414062 20.234375 L 41.320312 21.3125 C 41.300781 21.554688 41.097656 21.738281 40.859375 21.738281 "/><path style=" stroke:none;fill-rule:nonzero;fill:#727880;fill-opacity:1;" d="M 11.121094 47.050781 C 10.875 47.050781 10.671875 46.859375 10.65625 46.613281 L 10.457031 43.09375 C 10.441406 42.835938 10.636719 42.617188 10.890625 42.605469 C 11.148438 42.589844 11.367188 42.785156 11.382812 43.039062 L 11.582031 46.558594 C 11.597656 46.816406 11.402344 47.035156 11.144531 47.046875 C 11.136719 47.050781 11.128906 47.050781 11.121094 47.050781 "/><path style=" stroke:none;fill-rule:nonzero;fill:#727880;fill-opacity:1;" d="M 10.773438 41.007812 C 10.527344 41.007812 10.324219 40.820312 10.308594 40.570312 L 9.640625 28.90625 C 9.625 28.652344 9.820312 28.429688 10.078125 28.417969 C 10.332031 28.402344 10.550781 28.597656 10.566406 28.851562 L 11.238281 40.519531 C 11.25 40.773438 11.054688 40.992188 10.800781 41.007812 C 10.789062 41.007812 10.78125 41.007812 10.773438 41.007812 "/><path style=" stroke:none;fill-rule:nonzero;fill:#727880;fill-opacity:1;" d="M 9.957031 26.800781 C 9.714844 26.800781 9.507812 26.613281 9.496094 26.367188 L 9.234375 21.832031 C 9.21875 21.574219 9.414062 21.355469 9.671875 21.339844 C 9.925781 21.328125 10.144531 21.523438 10.160156 21.777344 L 10.421875 26.3125 C 10.4375 26.566406 10.242188 26.789062 9.984375 26.800781 C 9.976562 26.800781 9.964844 26.800781 9.957031 26.800781 "/><path style=" stroke:none;fill-rule:nonzero;fill:#727880;fill-opacity:1;" d="M 22.664062 38.386719 C 22.410156 38.386719 22.199219 38.179688 22.199219 37.921875 L 22.199219 29.523438 C 22.199219 29.269531 22.410156 29.058594 22.664062 29.058594 C 22.921875 29.058594 23.128906 29.269531 23.128906 29.523438 L 23.128906 37.921875 C 23.128906 38.179688 22.921875 38.386719 22.664062 38.386719 "/><path style=" stroke:none;fill-rule:nonzero;fill:#727880;fill-opacity:1;" d="M 22.664062 27.464844 C 22.410156 27.464844 22.199219 27.257812 22.199219 27 L 22.199219 22.5 C 22.199219 22.246094 22.410156 22.035156 22.664062 22.035156 C 22.921875 22.035156 23.128906 22.246094 23.128906 22.5 L 23.128906 27 C 23.128906 27.257812 22.921875 27.464844 22.664062 27.464844 "/><path style=" stroke:none;fill-rule:nonzero;fill:#727880;fill-opacity:1;" d="M 16.640625 45.511719 C 16.390625 45.511719 16.183594 45.3125 16.175781 45.058594 L 16.132812 43.527344 C 16.125 43.269531 16.324219 43.058594 16.582031 43.050781 C 16.835938 43.042969 17.050781 43.242188 17.058594 43.5 L 17.101562 45.03125 C 17.109375 45.289062 16.910156 45.503906 16.652344 45.511719 C 16.648438 45.511719 16.644531 45.511719 16.640625 45.511719 "/><path style=" stroke:none;fill-rule:nonzero;fill:#727880;fill-opacity:1;" d="M 16.519531 41.46875 C 16.269531 41.46875 16.066406 41.269531 16.058594 41.019531 L 15.71875 29.386719 C 15.710938 29.128906 15.910156 28.914062 16.167969 28.90625 C 16.429688 28.898438 16.636719 29.101562 16.644531 29.359375 L 16.984375 40.992188 C 16.992188 41.246094 16.792969 41.460938 16.535156 41.46875 C 16.53125 41.46875 16.527344 41.46875 16.519531 41.46875 "/><path style=" stroke:none;fill-rule:nonzero;fill:#727880;fill-opacity:1;" d="M 16.105469 27.308594 C 15.855469 27.308594 15.648438 27.109375 15.644531 26.859375 L 15.511719 22.351562 C 15.503906 22.09375 15.703125 21.882812 15.960938 21.875 C 15.964844 21.875 15.96875 21.875 15.976562 21.875 C 16.226562 21.875 16.429688 22.070312 16.4375 22.324219 L 16.570312 26.832031 C 16.578125 27.085938 16.375 27.300781 16.121094 27.308594 C 16.117188 27.308594 16.109375 27.308594 16.105469 27.308594 "/><path style=" stroke:none;fill-rule:nonzero;fill:#727880;fill-opacity:1;" d="M 34.210938 47.050781 C 34.203125 47.050781 34.191406 47.050781 34.183594 47.046875 C 33.929688 47.035156 33.734375 46.816406 33.746094 46.558594 L 33.949219 43.042969 C 33.964844 42.785156 34.179688 42.589844 34.4375 42.605469 C 34.695312 42.621094 34.890625 42.839844 34.875 43.09375 L 34.671875 46.613281 C 34.660156 46.859375 34.453125 47.050781 34.210938 47.050781 "/><path style=" stroke:none;fill-rule:nonzero;fill:#727880;fill-opacity:1;" d="M 34.558594 41.007812 C 34.546875 41.007812 34.539062 41.007812 34.53125 41.007812 C 34.273438 40.992188 34.078125 40.773438 34.09375 40.519531 L 34.320312 36.542969 C 34.335938 36.289062 34.554688 36.089844 34.8125 36.105469 C 35.066406 36.121094 35.261719 36.339844 35.25 36.597656 L 35.019531 40.570312 C 35.003906 40.820312 34.800781 41.007812 34.558594 41.007812 "/><path style=" stroke:none;fill-rule:nonzero;fill:#727880;fill-opacity:1;" d="M 29.046875 33.449219 C 29.042969 33.449219 29.035156 33.449219 29.03125 33.449219 C 28.773438 33.441406 28.574219 33.226562 28.582031 32.972656 L 28.6875 29.359375 C 28.695312 29.101562 28.914062 28.898438 29.164062 28.90625 C 29.421875 28.914062 29.621094 29.128906 29.613281 29.386719 L 29.507812 33 C 29.5 33.25 29.296875 33.449219 29.046875 33.449219 "/><path style=" stroke:none;fill-rule:nonzero;fill:#727880;fill-opacity:1;" d="M 29.222656 27.308594 C 29.21875 27.308594 29.214844 27.308594 29.210938 27.308594 C 28.953125 27.300781 28.753906 27.085938 28.761719 26.832031 L 28.890625 22.324219 C 28.898438 22.066406 29.117188 21.867188 29.367188 21.875 C 29.625 21.882812 29.824219 22.09375 29.816406 22.351562 L 29.6875 26.859375 C 29.679688 27.109375 29.472656 27.308594 29.222656 27.308594 "/><path style=" stroke:none;fill-rule:nonzero;fill:#727880;fill-opacity:1;" d="M 22.664062 29.988281 C 14.265625 29.988281 7.097656 29.273438 4.832031 28.210938 C 4.679688 28.140625 4.273438 27.949219 4.1875 26.332031 C 4.113281 25 4.363281 24.847656 4.515625 24.753906 C 4.671875 24.65625 4.875 24.65625 5.035156 24.75 C 6.550781 25.640625 13.09375 26.539062 22.664062 26.539062 C 27.667969 26.539062 32.332031 26.28125 35.792969 25.816406 C 36.046875 25.78125 36.28125 25.960938 36.316406 26.214844 C 36.347656 26.46875 36.171875 26.703125 35.917969 26.734375 C 32.414062 27.207031 27.707031 27.464844 22.664062 27.464844 C 14.597656 27.464844 7.628906 26.792969 5.101562 25.800781 C 5.089844 26.332031 5.171875 27.148438 5.296875 27.40625 C 7.503906 28.382812 14.605469 29.058594 22.664062 29.058594 C 26.375 29.058594 29.941406 28.917969 32.980469 28.648438 C 33.238281 28.625 33.460938 28.8125 33.484375 29.070312 C 33.507812 29.324219 33.316406 29.550781 33.0625 29.570312 C 29.996094 29.84375 26.398438 29.988281 22.664062 29.988281 "/><path style=" stroke:none;fill-rule:nonzero;fill:#727880;fill-opacity:1;" d="M 17.460938 44.015625 C 17.457031 44.015625 17.449219 44.015625 17.445312 44.015625 C 12.171875 43.804688 8.039062 43.292969 6.105469 42.609375 C 5.792969 42.5 5.734375 42.152344 5.679688 41.84375 C 5.617188 41.488281 5.558594 40.949219 5.53125 40.476562 C 5.476562 39.59375 5.53125 39.390625 5.726562 39.234375 C 5.863281 39.125 6.046875 39.09375 6.207031 39.160156 C 8.097656 39.90625 13.246094 40.488281 19.324219 40.640625 C 19.578125 40.648438 19.78125 40.863281 19.773438 41.117188 C 19.769531 41.371094 19.5625 41.570312 19.3125 41.570312 C 19.308594 41.570312 19.304688 41.570312 19.300781 41.570312 C 13.558594 41.425781 8.757812 40.917969 6.445312 40.21875 C 6.464844 40.722656 6.542969 41.464844 6.613281 41.800781 C 8.527344 42.410156 12.550781 42.890625 17.480469 43.089844 C 17.738281 43.097656 17.9375 43.3125 17.925781 43.570312 C 17.914062 43.820312 17.710938 44.015625 17.460938 44.015625 "/><path style=" stroke:none;fill-rule:nonzero;fill:#727880;fill-opacity:1;" d="M 33.546875 43.628906 C 33.3125 43.628906 33.109375 43.449219 33.085938 43.210938 C 33.058594 42.957031 33.246094 42.726562 33.5 42.703125 C 35.828125 42.460938 37.621094 42.15625 38.71875 41.808594 C 38.789062 41.46875 38.867188 40.726562 38.886719 40.21875 C 37.816406 40.542969 36.199219 40.832031 34.152344 41.058594 C 33.898438 41.085938 33.667969 40.902344 33.640625 40.648438 C 33.613281 40.394531 33.796875 40.164062 34.050781 40.136719 C 36.421875 39.871094 38.175781 39.535156 39.121094 39.160156 C 39.28125 39.09375 39.46875 39.125 39.601562 39.234375 C 39.796875 39.394531 39.851562 39.59375 39.800781 40.480469 C 39.773438 40.960938 39.714844 41.5 39.652344 41.855469 C 39.597656 42.160156 39.539062 42.507812 39.222656 42.617188 C 38.085938 43.015625 36.136719 43.363281 33.59375 43.625 C 33.578125 43.625 33.5625 43.628906 33.546875 43.628906 "/><path style=" stroke:none;fill-rule:nonzero;fill:#727880;fill-opacity:1;" d="M 35.371094 26.800781 C 35.363281 26.800781 35.355469 26.800781 35.34375 26.800781 C 35.089844 26.789062 34.894531 26.566406 34.910156 26.3125 L 35.167969 21.777344 C 35.183594 21.523438 35.402344 21.328125 35.660156 21.339844 C 35.914062 21.355469 36.109375 21.574219 36.09375 21.832031 L 35.835938 26.367188 C 35.820312 26.613281 35.617188 26.800781 35.371094 26.800781 "/><g clip-rule="nonzero" clip-path="url(#3b06469be7)"><path style=" stroke:none;fill-rule:nonzero;fill:#727880;fill-opacity:1;" d="M 23.117188 50.835938 C 23.0625 50.835938 23.003906 50.835938 22.949219 50.832031 C 19.980469 50.753906 18.011719 48.59375 17.929688 48.5 C 17.757812 48.308594 17.773438 48.015625 17.964844 47.84375 C 18.15625 47.671875 18.449219 47.691406 18.617188 47.878906 C 18.636719 47.898438 20.417969 49.839844 22.984375 49.90625 C 24.714844 49.949219 26.429688 49.140625 28.074219 47.496094 C 31.300781 44.265625 31.597656 41.238281 31.835938 38.808594 C 32 37.152344 32.140625 35.71875 33.167969 34.695312 L 46.941406 20.921875 C 47.25 20.609375 47.25 20.101562 46.941406 19.789062 C 46.628906 19.480469 46.121094 19.480469 45.808594 19.789062 L 32.058594 33.539062 C 31.496094 34.101562 30.894531 34.636719 30.269531 35.132812 L 25.339844 39.015625 C 25.140625 39.175781 24.847656 39.140625 24.691406 38.941406 C 24.53125 38.738281 24.566406 38.445312 24.765625 38.289062 L 29.695312 34.402344 C 30.289062 33.933594 30.867188 33.421875 31.402344 32.882812 L 45.152344 19.132812 C 45.828125 18.460938 46.921875 18.460938 47.59375 19.132812 C 48.269531 19.808594 48.269531 20.902344 47.59375 21.578125 L 33.820312 35.351562 C 33.03125 36.140625 32.910156 37.359375 32.761719 38.898438 C 32.519531 41.339844 32.191406 44.6875 28.730469 48.148438 C 26.945312 49.933594 25.058594 50.835938 23.117188 50.835938 "/></g><path style=" stroke:none;fill-rule:nonzero;fill:#727880;fill-opacity:1;" d="M 28.027344 37.902344 C 27.003906 37.902344 24.742188 39.0625 22.191406 41.613281 C 19.191406 44.617188 18.058594 47.320312 18.601562 47.863281 C 18.683594 47.941406 18.820312 47.984375 19.015625 47.984375 C 20.039062 47.984375 22.300781 46.820312 24.847656 44.273438 C 27.855469 41.269531 28.980469 38.566406 28.441406 38.023438 C 28.359375 37.941406 28.222656 37.902344 28.027344 37.902344 Z M 19.015625 48.910156 C 18.566406 48.910156 18.207031 48.777344 17.945312 48.519531 C 16.640625 47.214844 18.765625 43.730469 21.535156 40.957031 C 23.957031 38.539062 26.503906 36.972656 28.027344 36.972656 C 28.476562 36.972656 28.835938 37.105469 29.097656 37.367188 C 30.398438 38.671875 28.277344 42.15625 25.507812 44.925781 C 23.085938 47.347656 20.539062 48.910156 19.015625 48.910156 "/></g></svg>