<svg xmlns="http://www.w3.org/2000/svg" xmlns:xlink="http://www.w3.org/1999/xlink" width="70" zoomAndPan="magnify" viewBox="0 0 52.5 52.499999" height="70" preserveAspectRatio="xMidYMid meet" version="1.2"><defs><clipPath id="67fa190ae6"><path d="M 4.527344 11 L 47.617188 11 L 47.617188 44.042969 L 4.527344 44.042969 Z M 4.527344 11 "/></clipPath><clipPath id="7e7c7e15de"><path d="M 10 7.640625 L 17 7.640625 L 17 17 L 10 17 Z M 10 7.640625 "/></clipPath><clipPath id="eb9f16e4e0"><path d="M 35 7.640625 L 42 7.640625 L 42 17 L 35 17 Z M 35 7.640625 "/></clipPath></defs><g id="f5b028fc3a"><g clip-rule="nonzero" clip-path="url(#67fa190ae6)"><path style=" stroke:none;fill-rule:evenodd;fill:#727880;fill-opacity:1;" d="M 36.089844 12.511719 L 15.546875 12.511719 C 15.277344 12.511719 15.054688 12.289062 15.054688 12.019531 C 15.054688 11.75 15.277344 11.527344 15.546875 11.527344 L 36.082031 11.527344 C 36.351562 11.527344 36.574219 11.75 36.574219 12.019531 C 36.574219 12.289062 36.359375 12.511719 36.089844 12.511719 Z M 44.429688 44.007812 C 45.902344 44.007812 47.109375 42.800781 47.109375 41.324219 L 47.109375 14.210938 C 47.109375 12.734375 45.902344 11.527344 44.429688 11.527344 L 40.585938 11.527344 C 40.316406 11.527344 40.09375 11.75 40.09375 12.019531 C 40.09375 12.289062 40.316406 12.511719 40.585938 12.511719 L 44.429688 12.511719 C 45.363281 12.511719 46.136719 13.273438 46.136719 14.21875 L 46.136719 41.335938 C 46.136719 42.269531 45.375 43.042969 44.429688 43.042969 L 7.210938 43.042969 C 6.273438 43.042969 5.5 42.28125 5.5 41.335938 L 5.5 14.21875 C 5.5 13.285156 6.261719 12.511719 7.210938 12.511719 L 11.050781 12.511719 C 11.320312 12.511719 11.542969 12.289062 11.542969 12.019531 C 11.542969 11.75 11.320312 11.527344 11.050781 11.527344 L 7.210938 11.527344 C 5.734375 11.527344 4.527344 12.734375 4.527344 14.210938 L 4.527344 41.324219 C 4.527344 42.800781 5.734375 44.007812 7.210938 44.007812 Z M 44.429688 44.007812 "/></g><g clip-rule="nonzero" clip-path="url(#7e7c7e15de)"><path style=" stroke:none;fill-rule:evenodd;fill:#727880;fill-opacity:1;" d="M 12.21875 8.640625 C 11.839844 8.640625 11.53125 8.949219 11.53125 9.328125 L 11.53125 14.710938 C 11.53125 15.085938 11.839844 15.398438 12.21875 15.398438 L 14.371094 15.398438 C 14.746094 15.398438 15.054688 15.085938 15.054688 14.710938 L 15.054688 9.328125 C 15.054688 8.949219 14.746094 8.640625 14.371094 8.640625 Z M 14.378906 16.378906 L 12.226562 16.378906 C 11.308594 16.378906 10.566406 15.636719 10.566406 14.722656 L 10.566406 9.335938 C 10.566406 8.421875 11.308594 7.675781 12.226562 7.675781 L 14.378906 7.675781 C 15.296875 7.675781 16.039062 8.421875 16.039062 9.335938 L 16.039062 14.722656 C 16.039062 15.628906 15.296875 16.378906 14.378906 16.378906 Z M 14.378906 16.378906 "/></g><g clip-rule="nonzero" clip-path="url(#eb9f16e4e0)"><path style=" stroke:none;fill-rule:evenodd;fill:#727880;fill-opacity:1;" d="M 37.257812 8.640625 C 36.882812 8.640625 36.574219 8.949219 36.574219 9.328125 L 36.574219 14.710938 C 36.574219 15.085938 36.882812 15.398438 37.257812 15.398438 L 39.417969 15.398438 C 39.796875 15.398438 40.105469 15.085938 40.105469 14.710938 L 40.105469 9.328125 C 40.105469 8.949219 39.796875 8.640625 39.417969 8.640625 Z M 39.417969 16.378906 L 37.257812 16.378906 C 36.339844 16.378906 35.597656 15.636719 35.597656 14.722656 L 35.597656 9.335938 C 35.597656 8.421875 36.339844 7.675781 37.257812 7.675781 L 39.417969 7.675781 C 40.335938 7.675781 41.078125 8.421875 41.078125 9.335938 L 41.078125 14.722656 C 41.078125 15.628906 40.335938 16.378906 39.417969 16.378906 Z M 39.417969 16.378906 "/></g><path style=" stroke:none;fill-rule:evenodd;fill:#727880;fill-opacity:1;" d="M 9.128906 20.191406 C 8.957031 20.191406 8.8125 20.335938 8.8125 20.511719 L 8.8125 22.816406 C 8.8125 22.992188 8.957031 23.136719 9.128906 23.136719 L 14.464844 23.136719 C 14.640625 23.136719 14.785156 22.992188 14.785156 22.816406 L 14.785156 20.511719 C 14.785156 20.335938 14.640625 20.191406 14.464844 20.191406 Z M 14.464844 24.121094 L 9.128906 24.121094 C 8.414062 24.121094 7.835938 23.539062 7.835938 22.828125 L 7.835938 20.519531 C 7.835938 19.804688 8.414062 19.226562 9.128906 19.226562 L 14.464844 19.226562 C 15.179688 19.226562 15.757812 19.804688 15.757812 20.519531 L 15.757812 22.828125 C 15.757812 23.53125 15.179688 24.121094 14.464844 24.121094 Z M 14.464844 24.121094 "/><path style=" stroke:none;fill-rule:evenodd;fill:#727880;fill-opacity:1;" d="M 18.480469 20.191406 C 18.304688 20.191406 18.160156 20.335938 18.160156 20.511719 L 18.160156 22.816406 C 18.160156 22.992188 18.304688 23.136719 18.480469 23.136719 L 23.816406 23.136719 C 23.988281 23.136719 24.132812 22.992188 24.132812 22.816406 L 24.132812 20.511719 C 24.132812 20.335938 23.988281 20.191406 23.816406 20.191406 Z M 23.816406 24.121094 L 18.480469 24.121094 C 17.765625 24.121094 17.1875 23.539062 17.1875 22.828125 L 17.1875 20.519531 C 17.1875 19.804688 17.765625 19.226562 18.480469 19.226562 L 23.816406 19.226562 C 24.53125 19.226562 25.109375 19.804688 25.109375 20.519531 L 25.109375 22.828125 C 25.109375 23.53125 24.53125 24.121094 23.816406 24.121094 Z M 23.816406 24.121094 "/><path style=" stroke:none;fill-rule:evenodd;fill:#727880;fill-opacity:1;" d="M 33.40625 24.070312 C 33.207031 24.070312 33.011719 23.945312 32.945312 23.734375 C 32.859375 23.484375 33.003906 23.203125 33.253906 23.117188 C 33.386719 23.078125 33.476562 22.953125 33.476562 22.808594 L 33.476562 20.5 C 33.476562 20.328125 33.332031 20.183594 33.15625 20.183594 L 27.820312 20.183594 C 27.648438 20.183594 27.503906 20.328125 27.503906 20.5 L 27.503906 22.808594 C 27.503906 22.941406 27.589844 23.066406 27.722656 23.117188 C 27.976562 23.203125 28.121094 23.472656 28.03125 23.734375 C 27.945312 23.984375 27.675781 24.128906 27.414062 24.042969 C 26.886719 23.867188 26.527344 23.375 26.527344 22.808594 L 26.527344 20.5 C 26.527344 19.789062 27.105469 19.207031 27.820312 19.207031 L 33.15625 19.207031 C 33.871094 19.207031 34.449219 19.789062 34.449219 20.5 L 34.449219 22.808594 C 34.449219 23.367188 34.09375 23.859375 33.5625 24.042969 C 33.515625 24.070312 33.464844 24.070312 33.40625 24.070312 Z M 33.40625 24.070312 "/><path style=" stroke:none;fill-rule:evenodd;fill:#727880;fill-opacity:1;" d="M 37.171875 20.191406 C 36.996094 20.191406 36.851562 20.335938 36.851562 20.511719 L 36.851562 22.816406 C 36.851562 22.992188 36.996094 23.136719 37.171875 23.136719 L 42.507812 23.136719 C 42.679688 23.136719 42.824219 22.992188 42.824219 22.816406 L 42.824219 20.511719 C 42.824219 20.335938 42.679688 20.191406 42.507812 20.191406 Z M 42.507812 24.121094 L 37.171875 24.121094 C 36.457031 24.121094 35.878906 23.539062 35.878906 22.828125 L 35.878906 20.519531 C 35.878906 19.804688 36.457031 19.226562 37.171875 19.226562 L 42.507812 19.226562 C 43.222656 19.226562 43.800781 19.804688 43.800781 20.519531 L 43.800781 22.828125 C 43.800781 23.53125 43.222656 24.121094 42.507812 24.121094 Z M 42.507812 24.121094 "/><path style=" stroke:none;fill-rule:evenodd;fill:#727880;fill-opacity:1;" d="M 9.128906 28.230469 C 8.957031 28.230469 8.8125 28.375 8.8125 28.550781 L 8.8125 30.855469 C 8.8125 31.027344 8.957031 31.171875 9.128906 31.171875 L 14.464844 31.171875 C 14.640625 31.171875 14.785156 31.027344 14.785156 30.855469 L 14.785156 28.550781 C 14.785156 28.375 14.640625 28.230469 14.464844 28.230469 Z M 14.464844 32.15625 L 9.128906 32.15625 C 8.414062 32.15625 7.835938 31.578125 7.835938 30.863281 L 7.835938 28.558594 C 7.835938 27.84375 8.414062 27.265625 9.128906 27.265625 L 14.464844 27.265625 C 15.179688 27.265625 15.757812 27.84375 15.757812 28.558594 L 15.757812 30.863281 C 15.757812 31.578125 15.179688 32.15625 14.464844 32.15625 Z M 14.464844 32.15625 "/><path style=" stroke:none;fill-rule:evenodd;fill:#727880;fill-opacity:1;" d="M 23.816406 32.15625 L 18.480469 32.15625 C 17.765625 32.15625 17.1875 31.578125 17.1875 30.863281 L 17.1875 28.558594 C 17.1875 27.84375 17.765625 27.265625 18.480469 27.265625 L 23.816406 27.265625 C 23.914062 27.265625 24.019531 27.273438 24.117188 27.304688 C 24.375 27.363281 24.539062 27.632812 24.480469 27.894531 C 24.425781 28.152344 24.152344 28.316406 23.894531 28.257812 C 23.875 28.25 23.84375 28.25 23.816406 28.25 L 18.480469 28.25 C 18.304688 28.25 18.160156 28.394531 18.160156 28.566406 L 18.160156 30.875 C 18.160156 31.046875 18.304688 31.191406 18.480469 31.191406 L 23.816406 31.191406 C 23.84375 31.191406 23.863281 31.191406 23.882812 31.183594 C 24.144531 31.125 24.40625 31.28125 24.472656 31.539062 C 24.53125 31.800781 24.375 32.0625 24.117188 32.128906 C 24.007812 32.148438 23.914062 32.15625 23.816406 32.15625 Z M 23.816406 32.15625 "/><path style=" stroke:none;fill-rule:evenodd;fill:#727880;fill-opacity:1;" d="M 42.507812 32.15625 L 37.171875 32.15625 C 37.074219 32.15625 36.96875 32.148438 36.871094 32.121094 C 36.613281 32.0625 36.449219 31.792969 36.515625 31.53125 C 36.574219 31.269531 36.84375 31.105469 37.105469 31.171875 C 37.121094 31.183594 37.152344 31.183594 37.171875 31.183594 L 42.507812 31.183594 C 42.679688 31.183594 42.824219 31.039062 42.824219 30.863281 L 42.824219 28.558594 C 42.824219 28.386719 42.679688 28.238281 42.507812 28.238281 L 37.171875 28.238281 C 37.140625 28.238281 37.121094 28.238281 37.09375 28.25 C 36.832031 28.308594 36.574219 28.152344 36.503906 27.882812 C 36.449219 27.621094 36.601562 27.363281 36.871094 27.292969 C 36.96875 27.273438 37.066406 27.257812 37.171875 27.257812 L 42.507812 27.257812 C 43.222656 27.257812 43.800781 27.835938 43.800781 28.550781 L 43.800781 30.855469 C 43.800781 31.578125 43.222656 32.15625 42.507812 32.15625 Z M 42.507812 32.15625 "/><path style=" stroke:none;fill-rule:evenodd;fill:#727880;fill-opacity:1;" d="M 9.128906 36.269531 C 8.957031 36.269531 8.8125 36.414062 8.8125 36.585938 L 8.8125 38.894531 C 8.8125 39.066406 8.957031 39.210938 9.128906 39.210938 L 14.464844 39.210938 C 14.640625 39.210938 14.785156 39.066406 14.785156 38.894531 L 14.785156 36.585938 C 14.785156 36.414062 14.640625 36.269531 14.464844 36.269531 Z M 14.464844 40.195312 L 9.128906 40.195312 C 8.414062 40.195312 7.835938 39.617188 7.835938 38.902344 L 7.835938 36.597656 C 7.835938 35.882812 8.414062 35.304688 9.128906 35.304688 L 14.464844 35.304688 C 15.179688 35.304688 15.757812 35.882812 15.757812 36.597656 L 15.757812 38.902344 C 15.757812 39.617188 15.179688 40.195312 14.464844 40.195312 Z M 14.464844 40.195312 "/><path style=" stroke:none;fill-rule:evenodd;fill:#727880;fill-opacity:1;" d="M 18.480469 36.269531 C 18.304688 36.269531 18.160156 36.414062 18.160156 36.585938 L 18.160156 38.894531 C 18.160156 39.066406 18.304688 39.210938 18.480469 39.210938 L 23.816406 39.210938 C 23.988281 39.210938 24.132812 39.066406 24.132812 38.894531 L 24.132812 36.585938 C 24.132812 36.414062 23.988281 36.269531 23.816406 36.269531 Z M 23.816406 40.195312 L 18.480469 40.195312 C 17.765625 40.195312 17.1875 39.617188 17.1875 38.902344 L 17.1875 36.597656 C 17.1875 35.882812 17.765625 35.304688 18.480469 35.304688 L 23.816406 35.304688 C 24.53125 35.304688 25.109375 35.882812 25.109375 36.597656 L 25.109375 38.902344 C 25.109375 39.617188 24.53125 40.195312 23.816406 40.195312 Z M 23.816406 40.195312 "/><path style=" stroke:none;fill-rule:evenodd;fill:#727880;fill-opacity:1;" d="M 33.15625 40.195312 L 27.820312 40.195312 C 27.105469 40.195312 26.527344 39.617188 26.527344 38.902344 L 26.527344 36.597656 C 26.527344 36.035156 26.886719 35.546875 27.414062 35.363281 C 27.667969 35.273438 27.945312 35.417969 28.03125 35.671875 C 28.121094 35.929688 27.976562 36.199219 27.722656 36.289062 C 27.589844 36.328125 27.503906 36.453125 27.503906 36.597656 L 27.503906 38.902344 C 27.503906 39.078125 27.648438 39.222656 27.820312 39.222656 L 33.15625 39.222656 C 33.332031 39.222656 33.476562 39.078125 33.476562 38.902344 L 33.476562 36.597656 C 33.476562 36.460938 33.386719 36.335938 33.253906 36.289062 C 33.003906 36.199219 32.859375 35.929688 32.945312 35.671875 C 33.03125 35.417969 33.300781 35.273438 33.5625 35.363281 C 34.09375 35.535156 34.449219 36.027344 34.449219 36.597656 L 34.449219 38.902344 C 34.449219 39.617188 33.871094 40.195312 33.15625 40.195312 Z M 33.15625 40.195312 "/><path style=" stroke:none;fill-rule:evenodd;fill:#727880;fill-opacity:1;" d="M 37.171875 36.269531 C 36.996094 36.269531 36.851562 36.414062 36.851562 36.585938 L 36.851562 38.894531 C 36.851562 39.066406 36.996094 39.210938 37.171875 39.210938 L 42.507812 39.210938 C 42.679688 39.210938 42.824219 39.066406 42.824219 38.894531 L 42.824219 36.585938 C 42.824219 36.414062 42.679688 36.269531 42.507812 36.269531 Z M 42.507812 40.195312 L 37.171875 40.195312 C 36.457031 40.195312 35.878906 39.617188 35.878906 38.902344 L 35.878906 36.597656 C 35.878906 35.882812 36.457031 35.304688 37.171875 35.304688 L 42.507812 35.304688 C 43.222656 35.304688 43.800781 35.882812 43.800781 36.597656 L 43.800781 38.902344 C 43.800781 39.617188 43.222656 40.195312 42.507812 40.195312 Z M 42.507812 40.195312 "/><path style=" stroke:none;fill-rule:evenodd;fill:#727880;fill-opacity:1;" d="M 30.492188 23.414062 C 27.03125 23.414062 24.203125 26.234375 24.203125 29.707031 C 24.203125 33.171875 27.019531 36 30.492188 36 C 33.957031 36 36.785156 33.179688 36.785156 29.707031 C 36.785156 26.242188 33.957031 23.414062 30.492188 23.414062 Z M 30.492188 36.972656 C 26.488281 36.972656 23.226562 33.710938 23.226562 29.707031 C 23.226562 25.703125 26.488281 22.441406 30.492188 22.441406 C 34.5 22.441406 37.761719 25.703125 37.761719 29.707031 C 37.761719 33.710938 34.5 36.972656 30.492188 36.972656 Z M 30.492188 36.972656 "/><path style=" stroke:none;fill-rule:evenodd;fill:#727880;fill-opacity:1;" d="M 29.257812 32.417969 C 29.132812 32.417969 29.007812 32.371094 28.910156 32.273438 L 26.921875 30.285156 C 26.730469 30.09375 26.730469 29.785156 26.921875 29.601562 C 27.117188 29.40625 27.425781 29.40625 27.609375 29.601562 L 29.25 31.242188 L 33.351562 27.128906 C 33.542969 26.9375 33.851562 26.9375 34.035156 27.128906 C 34.226562 27.324219 34.226562 27.632812 34.035156 27.816406 L 29.585938 32.265625 C 29.507812 32.371094 29.394531 32.417969 29.257812 32.417969 Z M 29.257812 32.417969 "/></g></svg>