<svg xmlns="http://www.w3.org/2000/svg" xmlns:xlink="http://www.w3.org/1999/xlink" width="1500" zoomAndPan="magnify" viewBox="0 0 1125 749.999995" height="1000" preserveAspectRatio="xMidYMid meet" version="1.2"><defs><clipPath id="2387fe7837"><path d="M 136 111 L 354 111 L 354 161 L 136 161 Z M 136 111 "/></clipPath><clipPath id="64fae5e981"><path d="M 420.054688 145.542969 L 144.980469 192.574219 L 129.679688 103.078125 L 404.753906 56.050781 Z M 420.054688 145.542969 "/></clipPath><clipPath id="95a0170e60"><path d="M 145.128906 192.546875 L 420.199219 145.519531 L 404.902344 56.027344 L 129.828125 103.054688 Z M 145.128906 192.546875 "/></clipPath><clipPath id="a267147e72"><path d="M 145 91 L 217 91 L 217 129 L 145 129 Z M 145 91 "/></clipPath><clipPath id="f406f0e26b"><path d="M 420.054688 145.542969 L 144.980469 192.574219 L 129.679688 103.078125 L 404.753906 56.050781 Z M 420.054688 145.542969 "/></clipPath><clipPath id="a4524a8eb2"><path d="M 145.128906 192.546875 L 420.199219 145.519531 L 404.902344 56.027344 L 129.828125 103.054688 Z M 145.128906 192.546875 "/></clipPath><clipPath id="b386143b01"><path d="M 217 72 L 412 72 L 412 129 L 217 129 Z M 217 72 "/></clipPath><clipPath id="64dbad0707"><path d="M 420.054688 145.542969 L 144.980469 192.574219 L 129.679688 103.078125 L 404.753906 56.050781 Z M 420.054688 145.542969 "/></clipPath><clipPath id="abd58149ea"><path d="M 145.128906 192.546875 L 420.199219 145.519531 L 404.902344 56.027344 L 129.828125 103.054688 Z M 145.128906 192.546875 "/></clipPath><clipPath id="58773640d2"><path d="M 136 117 L 354 117 L 354 166 L 136 166 Z M 136 117 "/></clipPath><clipPath id="c7e469cb9b"><path d="M 420.054688 150.929688 L 144.980469 197.960938 L 129.679688 108.464844 L 404.753906 61.4375 Z M 420.054688 150.929688 "/></clipPath><clipPath id="f93e1c58e3"><path d="M 145.128906 197.933594 L 420.199219 150.90625 L 404.902344 61.414062 L 129.828125 108.441406 Z M 145.128906 197.933594 "/></clipPath><clipPath id="ec17d798fd"><path d="M 145 97 L 217 97 L 217 134 L 145 134 Z M 145 97 "/></clipPath><clipPath id="af2d70779f"><path d="M 420.054688 150.929688 L 144.980469 197.960938 L 129.679688 108.464844 L 404.753906 61.4375 Z M 420.054688 150.929688 "/></clipPath><clipPath id="4818ae8481"><path d="M 145.128906 197.933594 L 420.199219 150.90625 L 404.902344 61.414062 L 129.828125 108.441406 Z M 145.128906 197.933594 "/></clipPath><clipPath id="72acb23131"><path d="M 217 77 L 412 77 L 412 135 L 217 135 Z M 217 77 "/></clipPath><clipPath id="0ee6aec85f"><path d="M 420.054688 150.929688 L 144.980469 197.960938 L 129.679688 108.464844 L 404.753906 61.4375 Z M 420.054688 150.929688 "/></clipPath><clipPath id="fd040769e1"><path d="M 145.128906 197.933594 L 420.199219 150.90625 L 404.902344 61.414062 L 129.828125 108.441406 Z M 145.128906 197.933594 "/></clipPath><clipPath id="6cc3570d55"><path d="M 201 268 L 353 268 L 353 344 L 201 344 Z M 201 268 "/></clipPath><clipPath id="be7957757b"><path d="M 205.382812 268.023438 L 352.941406 281.042969 L 347.398438 343.875 L 199.839844 330.855469 Z M 205.382812 268.023438 "/></clipPath><clipPath id="69f838fddc"><path d="M 1241.597656 91.378906 L 228.667969 2.011719 L 199.605469 331.402344 L 1212.535156 420.769531 Z M 1241.597656 91.378906 "/></clipPath><clipPath id="301bfc9869"><path d="M 278 126 L 973.714844 126 L 973.714844 315 L 278 315 Z M 278 126 "/></clipPath><clipPath id="80391808af"><path d="M 287.730469 292.394531 C 326.320312 280.878906 356.199219 261.269531 379.542969 255.359375 C 401.328125 249.753906 429.648438 257.847656 445.210938 250.378906 C 456.105469 245.085938 459.527344 236.371094 467.929688 224.855469 C 482.871094 204.003906 508.390625 146.117188 520.839844 133.667969 C 525.195312 129.621094 527.996094 128.6875 532.042969 127.441406 C 536.089844 126.199219 541.070312 126.820312 545.117188 126.820312 C 549.160156 126.820312 551.339844 126.507812 556.320312 127.441406 C 567.835938 129.621094 595.847656 139.890625 613.585938 147.359375 C 630.082031 154.207031 641.90625 162.300781 659.648438 169.769531 C 682.992188 179.730469 717.226562 188.753906 742.125 199.648438 C 764.222656 209.605469 781.960938 222.054688 803.125 231.703125 C 824.601562 241.664062 848.253906 251 870.039062 257.847656 C 889.957031 264.382812 911.433594 269.050781 928.863281 272.164062 C 942.246094 274.652344 957.804688 273.410156 964.964844 276.210938 C 968.078125 277.453125 969.945312 279.011719 971.5 281.191406 C 972.746094 283.367188 973.679688 286.480469 973.679688 289.28125 C 973.367188 291.773438 972.121094 294.882812 970.566406 296.75 C 968.699219 298.929688 966.210938 300.796875 963.410156 301.109375 C 959.984375 301.417969 954.382812 300.175781 951.894531 297.683594 C 949.089844 295.195312 947.535156 289.59375 947.847656 286.167969 C 948.15625 283.367188 949.714844 280.566406 951.894531 279.011719 C 954.382812 276.832031 960.296875 275.277344 963.410156 275.898438 C 966.210938 276.210938 969.011719 278.078125 970.566406 279.945312 C 972.121094 282.125 973.367188 285.234375 973.679688 287.726562 C 973.679688 290.214844 973.054688 293.640625 971.5 295.816406 C 969.320312 298.308594 965.277344 300.484375 960.605469 301.417969 C 952.828125 302.976562 941 300.796875 928.238281 298.617188 C 909.566406 295.816406 882.488281 288.96875 860.082031 281.5 C 837.050781 274.03125 814.019531 264.382812 792.230469 254.113281 C 771.378906 244.464844 753.328125 231.394531 731.542969 222.054688 C 708.199219 211.785156 679.878906 205.25 656.226562 195.601562 C 634.75 186.886719 615.140625 175.058594 595.847656 167.589844 C 579.039062 161.054688 558.1875 152.339844 547.605469 152.339844 C 542.316406 152.652344 540.445312 152.964844 535.777344 156.699219 C 523.019531 167.589844 499.675781 226.722656 483.804688 246.953125 C 474.464844 258.78125 464.507812 267.496094 457.347656 271.851562 C 452.992188 274.34375 451.433594 274.34375 446.144531 275.277344 C 433.695312 277.765625 403.816406 274.03125 382.964844 279.011719 C 360.554688 284.300781 334.101562 302.042969 317.296875 307.957031 C 307.023438 311.378906 298.308594 314.492188 291.773438 314.492188 C 287.730469 314.179688 284.304688 313.246094 281.816406 311.378906 C 279.949219 309.511719 278.703125 306.398438 278.703125 303.910156 C 278.703125 301.730469 279.636719 298.308594 281.191406 296.441406 C 282.75 294.574219 287.730469 292.394531 287.730469 292.394531 "/></clipPath><clipPath id="c39ae32970"><path d="M 922 277 L 1069 277 L 1069 344 L 922 344 Z M 922 277 "/></clipPath><clipPath id="b5a14d407a"><path d="M 922.34375 257.703125 L 1025.453125 203.273438 L 1070.515625 288.632812 L 967.402344 343.0625 Z M 922.34375 257.703125 "/></clipPath><clipPath id="cb7d847839"><path d="M 232.632812 433.703125 L 948.496094 55.816406 L 1071.183594 288.238281 L 355.324219 666.125 Z M 232.632812 433.703125 "/></clipPath><clipPath id="9d7a5d7ee8"><path d="M 897 249 L 1107 249 L 1107 350 L 897 350 Z M 897 249 "/></clipPath><clipPath id="c86231471e"><path d="M 897.945312 253.558594 L 1057.832031 163.527344 L 1111.757812 259.292969 L 951.871094 349.324219 Z M 897.945312 253.558594 "/></clipPath><clipPath id="7852a3dd9c"><path d="M -341.253906 551.410156 L 886.222656 -139.773438 L 1110.835938 259.117188 L -116.644531 950.300781 Z M -341.253906 551.410156 "/></clipPath><clipPath id="4e7272b4b0"><path d="M 209 249 L 347 249 L 347 335 L 209 335 Z M 209 249 "/></clipPath><clipPath id="f5f6de38c7"><path d="M 219.78125 249.578125 L 346.917969 280.867188 L 333.671875 334.691406 L 206.535156 303.40625 Z M 219.78125 249.578125 "/></clipPath><clipPath id="c229aad133"><path d="M 1144.621094 235.195312 L 276 21.4375 L 206.574219 303.550781 L 1075.195312 517.308594 Z M 1144.621094 235.195312 "/></clipPath></defs><g id="708bcac2fe"><g style="fill:#727880;fill-opacity:1;"><g transform="translate(414.62749, 613.857617)"><path style="stroke:none" d="M 107.5625 -211.109375 L 97.4375 -208.921875 L 96.9375 -207.65625 C 108.5625 -209.175781 116.675781 -210.257812 121.28125 -210.90625 C 125.882812 -211.550781 131.179688 -212.363281 137.171875 -213.34375 C 138.453125 -212.644531 138.53125 -211.84375 137.40625 -210.9375 L 128.46875 -208.859375 C 126.976562 -207.492188 122.816406 -206.484375 115.984375 -205.828125 C 114.367188 -205.671875 112.253906 -205.46875 109.640625 -205.21875 C 107.035156 -204.96875 103.742188 -204.453125 99.765625 -203.671875 C 96.546875 -203.367188 92.914062 -203.125 88.875 -202.9375 C 84.832031 -202.75 81.429688 -202.320312 78.671875 -201.65625 L 72.015625 -201.015625 L 67.359375 -179.890625 C 66.179688 -179.367188 65.285156 -178.0625 64.671875 -175.96875 C 64.066406 -173.882812 64.019531 -172.257812 64.53125 -171.09375 C 64.976562 -170.71875 64.515625 -169.25 63.140625 -166.6875 C 64.210938 -163.957031 63.296875 -160.828125 60.390625 -157.296875 C 60.421875 -156.890625 60.265625 -156.367188 59.921875 -155.734375 C 59.578125 -155.097656 59.644531 -154.398438 60.125 -153.640625 C 61.570312 -151.335938 60.921875 -149.644531 58.171875 -148.5625 C 58.171875 -148.5625 58.25 -147.757812 58.40625 -146.15625 C 57.800781 -144.070312 57.582031 -142.125 57.75 -140.3125 C 57.925781 -138.507812 57.707031 -136.566406 57.09375 -134.484375 C 56.851562 -132.828125 56.484375 -131.363281 55.984375 -130.09375 C 55.492188 -128.832031 55.109375 -127.585938 54.828125 -126.359375 C 54.703125 -123.492188 54.179688 -120.5 53.265625 -117.375 C 52.347656 -114.25 51.820312 -111.257812 51.6875 -108.40625 C 51.039062 -106.71875 50.398438 -104.929688 49.765625 -103.046875 C 49.140625 -101.160156 48.921875 -99.210938 49.109375 -97.203125 C 48.609375 -93.910156 48.019531 -90.507812 47.34375 -87 C 46.664062 -83.488281 46.28125 -80.097656 46.1875 -76.828125 C 45.875 -75.992188 45.460938 -75.046875 44.953125 -73.984375 C 44.441406 -72.921875 43.816406 -71.945312 43.078125 -71.0625 C 44.046875 -69.53125 44.40625 -67.941406 44.15625 -66.296875 C 43.90625 -64.648438 43.859375 -63.019531 44.015625 -61.40625 C 44.046875 -61.007812 43.816406 -60.179688 43.328125 -58.921875 C 42.847656 -57.660156 42.648438 -56.625 42.734375 -55.8125 C 42.265625 -52.125 42.289062 -49.691406 42.8125 -48.515625 C 41.675781 -43.546875 41.335938 -38.648438 41.796875 -33.828125 C 41.910156 -32.617188 41.597656 -31.570312 40.859375 -30.6875 C 40.066406 -30.613281 40.515625 -30.253906 42.203125 -29.609375 C 41.578125 -27.503906 40.765625 -25.394531 39.765625 -23.28125 C 41.109375 -21.789062 42.066406 -19.144531 42.640625 -15.34375 C 43.210938 -11.539062 42.710938 -9.363281 41.140625 -8.8125 C 41.984375 -8.476562 42.625 -8.128906 43.0625 -7.765625 C 43.507812 -7.410156 43.171875 -6.769531 42.046875 -5.84375 C 43.691406 -5.613281 44.644531 -4.085938 44.90625 -1.265625 C 44.695312 0.785156 45 2.882812 45.8125 5.03125 C 46.632812 7.1875 47.335938 9.25 47.921875 11.21875 C 48.117188 13.238281 48.773438 14.800781 49.890625 15.90625 C 51.015625 17.007812 51.816406 17.945312 52.296875 18.71875 L 56.984375 23.140625 C 59.941406 24.484375 61.941406 25.304688 62.984375 25.609375 C 64.035156 25.921875 65.953125 25.738281 68.734375 25.0625 C 71.179688 25.238281 73.753906 24.585938 76.453125 23.109375 C 79.148438 21.628906 80.5 20.890625 80.5 20.890625 C 81.582031 23.617188 81.320312 26.175781 79.71875 28.5625 C 78.113281 30.957031 76.625 33.4375 75.25 36 C 74.195312 37.726562 72.265625 38.726562 69.453125 39 L 70.65625 38.875 C 66.269531 39.695312 63.0625 40.101562 61.03125 40.09375 C 59 40.09375 55.640625 38.894531 50.953125 36.5 C 48.066406 35.96875 45.734375 34.875 43.953125 33.21875 C 42.171875 31.5625 39.941406 29.4375 37.265625 26.84375 C 36.335938 25.726562 34.992188 24.441406 33.234375 22.984375 C 29.554688 18.472656 26.632812 13.378906 24.46875 7.703125 C 22.300781 2.035156 20.328125 -3.757812 18.546875 -9.6875 C 16.753906 -15.601562 15.875 -21.601562 15.90625 -27.6875 C 15.9375 -33.78125 15.835938 -40.0625 15.609375 -46.53125 C 14.867188 -50.101562 14.828125 -53.75 15.484375 -57.46875 C 16.140625 -61.1875 16.492188 -64.867188 16.546875 -68.515625 L 19.171875 -85.8125 C 20.066406 -89.132812 20.550781 -92.523438 20.625 -95.984375 C 20.695312 -99.441406 21.148438 -103.238281 21.984375 -107.375 C 21.867188 -108.582031 22.160156 -109.726562 22.859375 -110.8125 C 23.566406 -111.894531 24.046875 -113.253906 24.296875 -114.890625 L 25.484375 -115.015625 C 25.054688 -115.378906 24.820312 -115.757812 24.78125 -116.15625 C 24.738281 -116.5625 24.5 -116.945312 24.0625 -117.3125 L 37.578125 -179.46875 L 41.8125 -198.734375 C 34.976562 -198.078125 25.671875 -197.796875 13.890625 -197.890625 C 10.210938 -198.347656 6.914062 -198.941406 4 -199.671875 C 1.09375 -200.410156 -0.695312 -202.164062 -1.375 -204.9375 C -1.445312 -205.738281 -1.257812 -206.972656 -0.8125 -208.640625 C -0.363281 -210.304688 0.640625 -211.414062 2.203125 -211.96875 C 3.617188 -214.132812 4.828125 -215.265625 5.828125 -215.359375 C 6.835938 -215.460938 7.34375 -215.515625 7.34375 -215.515625 C 7.75 -215.554688 8.363281 -215.507812 9.1875 -215.375 C 10.007812 -215.25 10.601562 -215.410156 10.96875 -215.859375 C 12.90625 -216.859375 14.859375 -217.65625 16.828125 -218.25 C 18.796875 -218.84375 20.820312 -218.832031 22.90625 -218.21875 L 34.484375 -218.109375 C 37.265625 -218.773438 39.757812 -219.210938 41.96875 -219.421875 C 44.1875 -219.640625 46.097656 -219.828125 47.703125 -219.984375 C 49.398438 -223.390625 50.503906 -226.640625 51.015625 -229.734375 C 51.535156 -232.828125 52.46875 -235.859375 53.8125 -238.828125 C 54.289062 -242.117188 55 -245.226562 55.9375 -248.15625 C 56.875 -251.082031 57.816406 -254.007812 58.765625 -256.9375 C 59.253906 -260.238281 60.148438 -263.570312 61.453125 -266.9375 C 62.753906 -270.3125 63.632812 -273.847656 64.09375 -277.546875 C 65.394531 -280.921875 66.378906 -284.363281 67.046875 -287.875 C 67.722656 -291.382812 68.691406 -295.023438 69.953125 -298.796875 C 69.835938 -300.003906 70.144531 -301.046875 70.875 -301.921875 C 71.601562 -302.796875 72.289062 -304.078125 72.9375 -305.765625 C 73.5625 -307.847656 74.238281 -310.347656 74.96875 -313.265625 C 75.695312 -316.179688 76.171875 -318.660156 76.390625 -320.703125 C 77.273438 -324.035156 78.960938 -325.414062 81.453125 -324.84375 C 81.898438 -324.46875 82.4375 -324.210938 83.0625 -324.078125 C 83.6875 -323.941406 84.210938 -323.6875 84.640625 -323.3125 C 87.210938 -321.9375 89.648438 -320.851562 91.953125 -320.0625 C 94.265625 -319.269531 95.738281 -317.6875 96.375 -315.3125 C 96.851562 -314.550781 97.628906 -313.816406 98.703125 -313.109375 C 99.785156 -312.398438 100.566406 -311.660156 101.046875 -310.890625 C 103.617188 -309.515625 104.78125 -308.003906 104.53125 -306.359375 C 104.28125 -304.710938 103.851562 -302.84375 103.25 -300.75 C 101.375 -294.894531 99.488281 -289.140625 97.59375 -283.484375 C 95.707031 -277.835938 93.40625 -272.242188 90.6875 -266.703125 C 90.226562 -263.015625 89.171875 -259.160156 87.515625 -255.140625 C 85.867188 -251.128906 84.4375 -247.035156 83.21875 -242.859375 C 81.800781 -236.628906 80.710938 -232.160156 79.953125 -229.453125 C 79.203125 -226.753906 78.570312 -223.753906 78.0625 -220.453125 C 82.53125 -220.472656 86 -220.296875 88.46875 -219.921875 C 90.9375 -219.554688 92.757812 -219.632812 93.9375 -220.15625 C 103.613281 -220.675781 110.972656 -221.078125 116.015625 -221.359375 C 121.066406 -221.640625 125.1875 -222.035156 128.375 -222.546875 C 131.570312 -223.054688 135.144531 -223.898438 139.09375 -225.078125 C 139.851562 -225.554688 140.796875 -226.253906 141.921875 -227.171875 C 143.054688 -228.097656 144.066406 -228.203125 144.953125 -227.484375 C 146.023438 -224.734375 145.097656 -222.710938 142.171875 -221.421875 C 139.253906 -220.128906 137.285156 -218.425781 136.265625 -216.3125 L 135.140625 -215.578125 C 133.523438 -215.421875 131.320312 -215.109375 128.53125 -214.640625 C 125.738281 -214.171875 123.375 -213.4375 121.4375 -212.4375 C 120.15625 -213.125 118.015625 -213.222656 115.015625 -212.734375 C 112.023438 -212.242188 109.539062 -211.703125 107.5625 -211.109375 Z M 107.5625 -211.109375 "/></g></g><g style="fill:#21b6a8;fill-opacity:1;"><g transform="translate(526.000621, 218.495526)"><path style="stroke:none" d="M -419.9375 454.671875 C -429.664062 451.796875 -438.53125 448.453125 -446.53125 444.640625 C -479.4375 429.140625 -496.804688 407.421875 -498.640625 379.484375 C -498.867188 377.015625 -497.554688 375.84375 -494.703125 375.96875 C -491.859375 376.09375 -490.035156 377.234375 -489.234375 379.390625 C -488.222656 387.378906 -485.722656 394.367188 -481.734375 400.359375 C -468.765625 421.492188 -441.257812 434.910156 -399.21875 440.609375 C -357.613281 446.191406 -318.222656 444.628906 -281.046875 435.921875 C -236.628906 425.515625 -203.164062 408.253906 -180.65625 384.140625 C -168 370.585938 -161.5625 356.148438 -161.34375 340.828125 C -161.28125 325.953125 -166.375 311.476562 -176.625 297.40625 C -183.9375 288.019531 -193.472656 278.828125 -205.234375 269.828125 C -216.992188 260.828125 -226.144531 254.398438 -232.6875 250.546875 L -267.921875 230.734375 C -277.140625 226.097656 -284.832031 222.023438 -291 218.515625 C -297.164062 215.015625 -301.882812 212.289062 -305.15625 210.34375 L -335.359375 190.609375 C -348.640625 181.878906 -359.664062 172.851562 -368.4375 163.53125 C -385.3125 147.476562 -395.285156 130.832031 -398.359375 113.59375 C -401.742188 95.757812 -398.570312 77.710938 -388.84375 59.453125 C -384.84375 52.460938 -379.945312 45.253906 -374.15625 37.828125 C -368.363281 30.410156 -361.285156 23.132812 -352.921875 16 C -345.128906 9.175781 -337.316406 3.078125 -329.484375 -2.296875 C -321.648438 -7.671875 -313.726562 -12.53125 -305.71875 -16.875 C -285.351562 -27.195312 -266.523438 -33.164062 -249.234375 -34.78125 C -229.148438 -36.0625 -211.363281 -32.003906 -195.875 -22.609375 C -186.050781 -16.828125 -179.054688 -10.4375 -174.890625 -3.4375 C -173.203125 -1.007812 -171.773438 1.09375 -170.609375 2.875 C -169.453125 4.664062 -168.566406 6.128906 -167.953125 7.265625 C -166.703125 9.554688 -165.722656 11.53125 -165.015625 13.1875 C -164.304688 14.84375 -163.703125 16.460938 -163.203125 18.046875 C -156.335938 35.460938 -157.535156 51.6875 -166.796875 66.71875 C -169.816406 72.082031 -174.289062 73.40625 -180.21875 70.6875 C -185.707031 68.101562 -187.820312 63.875 -186.5625 58 C -185.875 52.425781 -186.453125 46.25 -188.296875 39.46875 C -190.515625 34 -193.316406 28.847656 -196.703125 24.015625 L -203.46875 17.671875 C -203.46875 17.671875 -203.953125 17.285156 -204.921875 16.515625 C -205.898438 15.753906 -207.363281 14.601562 -209.3125 13.0625 C -209.613281 12.488281 -210.097656 12.101562 -210.765625 11.90625 C -211.429688 11.71875 -211.921875 11.335938 -212.234375 10.765625 C -213.429688 9.921875 -214.847656 9.015625 -216.484375 8.046875 C -218.117188 7.085938 -219.976562 6.0625 -222.0625 4.96875 L -223.1875 3.921875 C -222.882812 4.492188 -222.617188 4.8125 -222.390625 4.875 C -222.171875 4.9375 -222.0625 4.96875 -222.0625 4.96875 C -222.507812 4.84375 -222.882812 4.492188 -223.1875 3.921875 L -224.515625 3.53125 L -229.8125 1.96875 C -233.488281 1.351562 -237.300781 0.820312 -241.25 0.375 C -245.195312 -0.0703125 -249.425781 0 -253.9375 0.59375 C -270.21875 2.03125 -286.59375 7.035156 -303.0625 15.609375 C -319.539062 24.191406 -334.128906 34.535156 -346.828125 46.640625 C -360.691406 59.359375 -369.40625 73.359375 -372.96875 88.640625 C -376.664062 104.390625 -372.28125 119.628906 -359.8125 134.359375 C -351.476562 143.554688 -341.289062 152.578125 -329.25 161.421875 C -317.207031 170.273438 -307.03125 176.890625 -298.71875 181.265625 L -263.296875 200.390625 C -245.773438 209.421875 -233.515625 215.929688 -226.515625 219.921875 C -222.796875 221.972656 -218.40625 224.585938 -213.34375 227.765625 C -208.28125 230.953125 -202.539062 234.695312 -196.125 239 C -182.539062 248.300781 -171.957031 257.203125 -164.375 265.703125 C -150.894531 280.253906 -141.375 296.40625 -135.8125 314.15625 C -130.25 331.90625 -130.804688 349.640625 -137.484375 367.359375 C -150.191406 400.597656 -177.992188 425.539062 -220.890625 442.1875 C -257.992188 457.144531 -296.742188 464.660156 -337.140625 464.734375 C -368.921875 464.953125 -396.519531 461.597656 -419.9375 454.671875 Z M -419.9375 454.671875 "/></g></g><g style="fill:#21b6a8;fill-opacity:1;"><g transform="translate(508.587438, 220.022478)"><path style="stroke:none" d="M -419.9375 454.671875 C -429.664062 451.796875 -438.53125 448.453125 -446.53125 444.640625 C -479.4375 429.140625 -496.804688 407.421875 -498.640625 379.484375 C -498.867188 377.015625 -497.554688 375.84375 -494.703125 375.96875 C -491.859375 376.09375 -490.035156 377.234375 -489.234375 379.390625 C -488.222656 387.378906 -485.722656 394.367188 -481.734375 400.359375 C -468.765625 421.492188 -441.257812 434.910156 -399.21875 440.609375 C -357.613281 446.191406 -318.222656 444.628906 -281.046875 435.921875 C -236.628906 425.515625 -203.164062 408.253906 -180.65625 384.140625 C -168 370.585938 -161.5625 356.148438 -161.34375 340.828125 C -161.28125 325.953125 -166.375 311.476562 -176.625 297.40625 C -183.9375 288.019531 -193.472656 278.828125 -205.234375 269.828125 C -216.992188 260.828125 -226.144531 254.398438 -232.6875 250.546875 L -267.921875 230.734375 C -277.140625 226.097656 -284.832031 222.023438 -291 218.515625 C -297.164062 215.015625 -301.882812 212.289062 -305.15625 210.34375 L -335.359375 190.609375 C -348.640625 181.878906 -359.664062 172.851562 -368.4375 163.53125 C -385.3125 147.476562 -395.285156 130.832031 -398.359375 113.59375 C -401.742188 95.757812 -398.570312 77.710938 -388.84375 59.453125 C -384.84375 52.460938 -379.945312 45.253906 -374.15625 37.828125 C -368.363281 30.410156 -361.285156 23.132812 -352.921875 16 C -345.128906 9.175781 -337.316406 3.078125 -329.484375 -2.296875 C -321.648438 -7.671875 -313.726562 -12.53125 -305.71875 -16.875 C -285.351562 -27.195312 -266.523438 -33.164062 -249.234375 -34.78125 C -229.148438 -36.0625 -211.363281 -32.003906 -195.875 -22.609375 C -186.050781 -16.828125 -179.054688 -10.4375 -174.890625 -3.4375 C -173.203125 -1.007812 -171.773438 1.09375 -170.609375 2.875 C -169.453125 4.664062 -168.566406 6.128906 -167.953125 7.265625 C -166.703125 9.554688 -165.722656 11.53125 -165.015625 13.1875 C -164.304688 14.84375 -163.703125 16.460938 -163.203125 18.046875 C -156.335938 35.460938 -157.535156 51.6875 -166.796875 66.71875 C -169.816406 72.082031 -174.289062 73.40625 -180.21875 70.6875 C -185.707031 68.101562 -187.820312 63.875 -186.5625 58 C -185.875 52.425781 -186.453125 46.25 -188.296875 39.46875 C -190.515625 34 -193.316406 28.847656 -196.703125 24.015625 L -203.46875 17.671875 C -203.46875 17.671875 -203.953125 17.285156 -204.921875 16.515625 C -205.898438 15.753906 -207.363281 14.601562 -209.3125 13.0625 C -209.613281 12.488281 -210.097656 12.101562 -210.765625 11.90625 C -211.429688 11.71875 -211.921875 11.335938 -212.234375 10.765625 C -213.429688 9.921875 -214.847656 9.015625 -216.484375 8.046875 C -218.117188 7.085938 -219.976562 6.0625 -222.0625 4.96875 L -223.1875 3.921875 C -222.882812 4.492188 -222.617188 4.8125 -222.390625 4.875 C -222.171875 4.9375 -222.0625 4.96875 -222.0625 4.96875 C -222.507812 4.84375 -222.882812 4.492188 -223.1875 3.921875 L -224.515625 3.53125 L -229.8125 1.96875 C -233.488281 1.351562 -237.300781 0.820312 -241.25 0.375 C -245.195312 -0.0703125 -249.425781 0 -253.9375 0.59375 C -270.21875 2.03125 -286.59375 7.035156 -303.0625 15.609375 C -319.539062 24.191406 -334.128906 34.535156 -346.828125 46.640625 C -360.691406 59.359375 -369.40625 73.359375 -372.96875 88.640625 C -376.664062 104.390625 -372.28125 119.628906 -359.8125 134.359375 C -351.476562 143.554688 -341.289062 152.578125 -329.25 161.421875 C -317.207031 170.273438 -307.03125 176.890625 -298.71875 181.265625 L -263.296875 200.390625 C -245.773438 209.421875 -233.515625 215.929688 -226.515625 219.921875 C -222.796875 221.972656 -218.40625 224.585938 -213.34375 227.765625 C -208.28125 230.953125 -202.539062 234.695312 -196.125 239 C -182.539062 248.300781 -171.957031 257.203125 -164.375 265.703125 C -150.894531 280.253906 -141.375 296.40625 -135.8125 314.15625 C -130.25 331.90625 -130.804688 349.640625 -137.484375 367.359375 C -150.191406 400.597656 -177.992188 425.539062 -220.890625 442.1875 C -257.992188 457.144531 -296.742188 464.660156 -337.140625 464.734375 C -368.921875 464.953125 -396.519531 461.597656 -419.9375 454.671875 Z M -419.9375 454.671875 "/></g></g><g style="fill:#727880;fill-opacity:1;"><g transform="translate(842.78868, 616.967852)"><path style="stroke:none" d="M 200.546875 41.640625 C 199.367188 42.160156 196.160156 42.566406 190.921875 42.859375 C 185.679688 43.160156 181.53125 42.238281 178.46875 40.09375 C 175.507812 38.757812 172.878906 36.679688 170.578125 33.859375 C 168.273438 31.046875 166.148438 27.90625 164.203125 24.4375 C 163.535156 21.664062 162.3125 18.4375 160.53125 14.75 C 158.757812 11.0625 157.484375 7.226562 156.703125 3.25 C 156.316406 -0.78125 155.628906 -4.773438 154.640625 -8.734375 C 153.648438 -12.691406 153.222656 -16.097656 153.359375 -18.953125 L 151.484375 -32.15625 C 149.835938 -32.40625 147.519531 -31.164062 144.53125 -28.4375 C 144.570312 -28.039062 144.398438 -27.722656 144.015625 -27.484375 C 143.640625 -27.242188 143.269531 -26.898438 142.90625 -26.453125 C 139.257812 -22.046875 135.582031 -18.046875 131.875 -14.453125 C 128.164062 -10.859375 124.890625 -6.894531 122.046875 -2.5625 C 120.316406 0.445312 118.101562 2.6875 115.40625 4.15625 C 112.71875 5.632812 110.257812 7.492188 108.03125 9.734375 L 104.15625 13.75 C 103.34375 13.832031 102.421875 13.816406 101.390625 13.703125 C 100.367188 13.597656 99.039062 13.421875 97.40625 13.171875 L 90.484375 10.8125 C 88.515625 11.394531 87.015625 10.523438 85.984375 8.203125 C 85.898438 7.398438 85.546875 6.925781 84.921875 6.78125 C 84.304688 6.632812 83.753906 6.175781 83.265625 5.40625 C 82.796875 4.632812 82.128906 3.988281 81.265625 3.46875 C 80.410156 2.945312 79.960938 2.484375 79.921875 2.078125 L 75.03125 -10.84375 C 75.414062 -15.332031 75.859375 -21.253906 76.359375 -28.609375 C 76.867188 -35.972656 77.113281 -41.878906 77.09375 -46.328125 C 77.46875 -46.773438 76.953125 -47.945312 75.546875 -49.84375 C 72.347656 -45.070312 69.425781 -40.628906 66.78125 -36.515625 C 64.132812 -32.410156 62.109375 -29.273438 60.703125 -27.109375 L 52.734375 -14.78125 L 49.875 -6.59375 C 47.445312 -2.3125 45.128906 2.0625 42.921875 6.53125 C 40.710938 11.007812 38.410156 15.59375 36.015625 20.28125 C 35.359375 21.957031 34.265625 23.273438 32.734375 24.234375 C 31.210938 25.203125 29.90625 26.34375 28.8125 27.65625 C 27.28125 28.625 26.390625 29.929688 26.140625 31.578125 L 21.671875 35.65625 L 13.375 31.5625 C 9.332031 27.488281 7.363281 21.800781 7.46875 14.5 C 7.269531 3.96875 7.703125 -6.3125 8.765625 -16.34375 C 9.835938 -26.382812 11.300781 -36.570312 13.15625 -46.90625 C 14.21875 -52.675781 14.960938 -58.625 15.390625 -64.75 C 15.816406 -70.875 16.566406 -76.828125 17.640625 -82.609375 C 17.492188 -84.222656 17.550781 -85.753906 17.8125 -87.203125 C 18.082031 -88.660156 17.757812 -89.945312 16.84375 -91.0625 C 16.351562 -91.820312 16.460938 -92.742188 17.171875 -93.828125 C 17.890625 -94.910156 18.226562 -95.65625 18.1875 -96.0625 C 20.632812 -95.882812 22.5625 -95.863281 23.96875 -96 C 25.382812 -96.132812 26.929688 -95.878906 28.609375 -95.234375 C 30.648438 -95.023438 32.523438 -94.492188 34.234375 -93.640625 C 35.941406 -92.785156 37.128906 -90.972656 37.796875 -88.203125 C 39.585938 -82.285156 39.785156 -76.019531 38.390625 -69.40625 C 38.367188 -65.34375 38.140625 -61.363281 37.703125 -57.46875 C 37.265625 -53.570312 36.65625 -49.351562 35.875 -44.8125 C 35.707031 -42.363281 34.765625 -37.40625 33.046875 -29.9375 C 31.328125 -22.46875 30.210938 -17.085938 29.703125 -13.796875 C 31.640625 -14.785156 32.789062 -15.503906 33.15625 -15.953125 C 33.769531 -18.035156 34.84375 -20.570312 36.375 -23.5625 C 37.914062 -26.550781 40.390625 -31.453125 43.796875 -38.265625 C 46.296875 -41.753906 48.550781 -45.722656 50.5625 -50.171875 C 52.570312 -54.617188 55.03125 -58.609375 57.9375 -62.140625 C 59.757812 -64.347656 61.554688 -66.753906 63.328125 -69.359375 C 65.109375 -71.960938 67.132812 -74.1875 69.40625 -76.03125 C 71.257812 -77.820312 73.484375 -77.828125 76.078125 -76.046875 C 80.972656 -71.648438 86.148438 -70.523438 91.609375 -72.671875 C 92.753906 -73.585938 93.847656 -73.890625 94.890625 -73.578125 C 95.929688 -73.273438 97.050781 -73.179688 98.25 -73.296875 C 99.238281 -71.367188 99.847656 -69.195312 100.078125 -66.78125 C 100.316406 -64.375 100.753906 -61.976562 101.390625 -59.59375 C 102.390625 -57.664062 102.765625 -55.878906 102.515625 -54.234375 C 102.378906 -51.378906 102.535156 -48.65625 102.984375 -46.0625 C 103.441406 -43.476562 103.179688 -40.921875 102.203125 -38.390625 C 101.640625 -35.898438 101.3125 -31.914062 101.21875 -26.4375 C 101.132812 -20.957031 100.84375 -16.566406 100.34375 -13.265625 C 104.0625 -16.867188 107.929688 -20.992188 111.953125 -25.640625 C 115.972656 -30.285156 119.453125 -34.164062 122.390625 -37.28125 C 126.109375 -40.875 129.859375 -44.070312 133.640625 -46.875 C 134.773438 -47.800781 135.992188 -48.832031 137.296875 -49.96875 C 138.609375 -51.101562 140.378906 -52.789062 142.609375 -55.03125 C 145.710938 -56.550781 147.71875 -56.742188 148.625 -55.609375 C 151.914062 -55.117188 154.53125 -54.253906 156.46875 -53.015625 C 158.414062 -51.785156 160.859375 -50.703125 163.796875 -49.765625 L 167.921875 -44.6875 C 170.742188 -44.957031 172.46875 -43.90625 173.09375 -41.53125 C 173.726562 -39.15625 173.941406 -36.941406 173.734375 -34.890625 C 174.203125 -34.128906 174.503906 -33.039062 174.640625 -31.625 C 174.773438 -30.21875 174.921875 -28.710938 175.078125 -27.109375 L 175.375 -24.09375 C 174.320312 -22.375 174.191406 -20.535156 174.984375 -18.578125 C 175.773438 -16.617188 176.070312 -14.617188 175.875 -12.578125 C 176.539062 -9.796875 177.097656 -7.109375 177.546875 -4.515625 C 178.003906 -1.929688 178.550781 0.539062 179.1875 2.90625 C 180.144531 4.4375 180.828125 6.300781 181.234375 8.5 C 181.640625 10.695312 182.921875 14.535156 185.078125 20.015625 C 189.421875 27.296875 195.285156 29.164062 202.671875 25.625 C 203.378906 24.738281 204.210938 25.0625 205.171875 26.59375 C 206.140625 28.125 206.28125 29.53125 205.59375 30.8125 C 205.632812 31.21875 204.925781 32.300781 203.46875 34.0625 C 203.550781 34.863281 203.535156 35.773438 203.421875 36.796875 C 203.316406 37.828125 202.359375 39.441406 200.546875 41.640625 Z M 200.546875 41.640625 "/></g></g><g style="fill:#727880;fill-opacity:1;"><g transform="translate(487.804737, 643.334501)"><path style="stroke:none" d="M 169.796875 0.171875 C 168.953125 -0.160156 168.140625 -0.1875 167.359375 0.09375 C 166.578125 0.375 165.757812 0.347656 164.90625 0.015625 C 163.226562 -0.628906 161.765625 -1.09375 160.515625 -1.375 C 159.265625 -1.664062 158.035156 -1.753906 156.828125 -1.640625 C 154.703125 -2.640625 152.597656 -3.453125 150.515625 -4.078125 C 149.234375 -4.765625 147.960938 -5.347656 146.703125 -5.828125 C 145.441406 -6.316406 144.796875 -6.765625 144.765625 -7.171875 C 142.441406 -10.203125 139.207031 -12.125 135.0625 -12.9375 C 132.144531 -13.863281 129.875 -15.367188 128.25 -17.453125 C 126.625 -19.535156 125.296875 -21.738281 124.265625 -24.0625 C 123.785156 -24.832031 123.207031 -25.585938 122.53125 -26.328125 C 121.851562 -27.078125 121.289062 -27.632812 120.84375 -28 C 119.457031 -29.894531 118.273438 -31.707031 117.296875 -33.4375 C 116.316406 -35.164062 115.347656 -36.800781 114.390625 -38.34375 C 114.710938 -39.1875 114.191406 -40.351562 112.828125 -41.84375 C 102.765625 -28.289062 91.070312 -14.796875 77.75 -1.359375 C 73.894531 0.640625 70.0625 2.9375 66.25 5.53125 C 62.4375 8.125 58.34375 9.828125 53.96875 10.640625 C 51.945312 10.835938 49.019531 10.003906 45.1875 8.140625 C 41.363281 6.273438 37.910156 4.070312 34.828125 1.53125 C 31.742188 -1.007812 29.75 -2.847656 28.84375 -3.984375 C 25.476562 -9.328125 23.492188 -14.097656 22.890625 -18.296875 C 22.285156 -22.503906 22.535156 -27.300781 23.640625 -32.6875 C 24.679688 -38.875 26.640625 -44.941406 29.515625 -50.890625 C 32.390625 -56.847656 35.03125 -62.070312 37.4375 -66.5625 C 39.851562 -71.0625 40.597656 -73.875 39.671875 -75 C 33.023438 -72.332031 28.820312 -71.722656 27.0625 -73.171875 C 25.675781 -75.078125 24.398438 -76.78125 23.234375 -78.28125 C 22.078125 -79.789062 21.617188 -81.367188 21.859375 -83.015625 C 22.546875 -84.296875 23.351562 -85.390625 24.28125 -86.296875 C 25.21875 -87.203125 26.070312 -87.890625 26.84375 -88.359375 C 29.457031 -90.640625 32.3125 -92.539062 35.40625 -94.0625 C 40.113281 -95.726562 44.535156 -96.148438 48.671875 -95.328125 C 50.390625 -94.273438 52.296875 -93.441406 54.390625 -92.828125 C 56.484375 -92.222656 58.003906 -91.15625 58.953125 -89.625 C 61.753906 -85.820312 62.679688 -81.445312 61.734375 -76.5 C 60.796875 -71.550781 59.082031 -65.097656 56.59375 -57.140625 C 55.332031 -53.367188 53.644531 -48.742188 51.53125 -43.265625 C 49.414062 -37.785156 48.054688 -34.007812 47.453125 -31.9375 C 46.515625 -29 45.90625 -25.789062 45.625 -22.3125 C 45.34375 -18.84375 46.488281 -16.421875 49.0625 -15.046875 C 52.84375 -13.785156 56.804688 -14.769531 60.953125 -18 C 65.148438 -20.832031 68.144531 -23.445312 69.9375 -25.84375 C 71.726562 -28.25 73.738281 -30.578125 75.96875 -32.828125 C 78.875 -36.347656 81.585938 -39.753906 84.109375 -43.046875 C 86.640625 -46.335938 89.359375 -49.738281 92.265625 -53.25 C 95.171875 -56.78125 97.867188 -60.390625 100.359375 -64.078125 C 102.847656 -67.765625 105.363281 -71.148438 107.90625 -74.234375 C 109.71875 -76.429688 111.328125 -78.613281 112.734375 -80.78125 C 114.148438 -82.945312 115.59375 -84.90625 117.0625 -86.65625 C 117.75 -87.957031 118.84375 -89.285156 120.34375 -90.640625 L 133 -91.84375 C 133.070312 -91.03125 134.5625 -90.253906 137.46875 -89.515625 C 140.375 -88.785156 143.019531 -87.625 145.40625 -86.03125 C 147.789062 -84.445312 148.554688 -81.785156 147.703125 -78.046875 C 145.191406 -74.554688 143.582031 -70.144531 142.875 -64.8125 C 141.007812 -58.945312 139.957031 -52.960938 139.71875 -46.859375 C 139.488281 -40.753906 140.476562 -34.757812 142.6875 -28.875 C 143.707031 -26.550781 144.703125 -24.617188 145.671875 -23.078125 C 149.191406 -20.171875 154.3125 -19.644531 161.03125 -21.5 C 167.75 -23.363281 173.601562 -25.753906 178.59375 -28.671875 C 181.65625 -30.585938 184.695312 -32.703125 187.71875 -35.015625 C 190.738281 -37.328125 193.566406 -39.625 196.203125 -41.90625 C 201.429688 -46.476562 206.757812 -51.148438 212.1875 -55.921875 C 217.613281 -60.703125 222.726562 -65.550781 227.53125 -70.46875 L 235.203125 -79.125 C 238.429688 -79.425781 240.238281 -78.582031 240.625 -76.59375 C 241.019531 -74.601562 240.691406 -72.75 239.640625 -71.03125 C 238.191406 -69.269531 236.640625 -67.492188 234.984375 -65.703125 C 233.328125 -63.921875 232.453125 -61.40625 232.359375 -58.15625 L 230.0625 -56.71875 C 231.46875 -54.820312 231.390625 -53.492188 229.828125 -52.734375 C 228.273438 -51.984375 227.140625 -51.171875 226.421875 -50.296875 C 224.847656 -49.734375 224.210938 -48.957031 224.515625 -47.96875 C 224.816406 -46.976562 224.398438 -46.023438 223.265625 -45.109375 C 224.140625 -44.378906 225.40625 -43.898438 227.0625 -43.671875 C 225.851562 -43.546875 224.957031 -43.351562 224.375 -43.09375 C 223.789062 -42.832031 223.097656 -42.664062 222.296875 -42.59375 C 219.878906 -42.363281 218.445312 -40.394531 218 -36.6875 C 218.15625 -35.082031 217.492188 -33.5 216.015625 -31.9375 C 214.535156 -30.382812 212.992188 -29.53125 211.390625 -29.375 L 206.171875 -20.359375 C 206.210938 -19.953125 206.328125 -19.757812 206.515625 -19.78125 C 206.710938 -19.800781 206.8125 -19.8125 206.8125 -19.8125 C 203.632812 -15.050781 200.109375 -11.671875 196.234375 -9.671875 C 192.359375 -7.671875 188.3125 -5.457031 184.09375 -3.03125 Z M 169.796875 0.171875 "/></g></g><g style="fill:#727880;fill-opacity:1;"><g transform="translate(737.053433, 637.820368)"><path style="stroke:none" d="M 14.3125 9.59375 C 12.625 8.925781 11.21875 8.039062 10.09375 6.9375 C 8.976562 5.832031 7.15625 4.789062 4.625 3.8125 C 3.101562 0.707031 1.695312 -2.296875 0.40625 -5.203125 C -0.882812 -8.117188 -1.316406 -11.628906 -0.890625 -15.734375 L 1.546875 -40.90625 C 2.046875 -44.21875 2.535156 -47.617188 3.015625 -51.109375 C 3.492188 -54.597656 3.578125 -57.945312 3.265625 -61.15625 C 3.648438 -65.65625 4.253906 -69.972656 5.078125 -74.109375 C 5.898438 -78.253906 6.316406 -82.351562 6.328125 -86.40625 C 6.703125 -90.90625 7.097656 -95.203125 7.515625 -99.296875 C 7.941406 -103.398438 8.164062 -107.484375 8.1875 -111.546875 C 8.507812 -112.367188 8.628906 -113.179688 8.546875 -113.984375 C 8.472656 -114.796875 8.613281 -115.425781 8.96875 -115.875 C 10 -118 11.71875 -119.175781 14.125 -119.40625 C 20.332031 -122.4375 25.0625 -119.648438 28.3125 -111.046875 C 30.789062 -106.398438 31.890625 -101.226562 31.609375 -95.53125 C 31.691406 -94.71875 31.582031 -93.785156 31.28125 -92.734375 C 30.976562 -91.691406 30.90625 -90.367188 31.0625 -88.765625 C 31.738281 -90.066406 32.53125 -91.265625 33.4375 -92.359375 C 34.34375 -93.453125 34.960938 -94.421875 35.296875 -95.265625 C 36.628906 -98.234375 38.113281 -100.707031 39.75 -102.6875 C 41.394531 -104.664062 43.125 -106.757812 44.9375 -108.96875 C 47.363281 -113.257812 50.0625 -116.863281 53.03125 -119.78125 C 56 -122.707031 58.992188 -125.332031 62.015625 -127.65625 C 69.066406 -134.40625 76.851562 -135.753906 85.375 -131.703125 C 87.09375 -130.660156 88.710938 -129.601562 90.234375 -128.53125 C 91.753906 -127.457031 93.171875 -126.375 94.484375 -125.28125 C 95.816406 -124.1875 96.675781 -123.660156 97.0625 -123.703125 C 99.1875 -122.679688 101.035156 -120.421875 102.609375 -116.921875 L 102.28125 -113.84375 C 102.28125 -113.84375 101.382812 -113.65625 99.59375 -113.28125 C 97.8125 -112.914062 94.828125 -113.34375 90.640625 -114.5625 C 89.035156 -114.40625 87.328125 -114.238281 85.515625 -114.0625 C 83.710938 -113.894531 81.882812 -112.914062 80.03125 -111.125 C 78.976562 -109.394531 77.6875 -108.046875 76.15625 -107.078125 C 74.625 -106.117188 72.90625 -104.945312 71 -103.5625 C 70.25 -103.070312 69.613281 -102.296875 69.09375 -101.234375 C 68.582031 -100.179688 67.972656 -99.210938 67.265625 -98.328125 C 65.804688 -96.566406 64.238281 -94.894531 62.5625 -93.3125 C 60.894531 -91.738281 59.332031 -90.066406 57.875 -88.296875 L 47.859375 -72.125 C 46.117188 -69.125 44.195312 -65.898438 42.09375 -62.453125 C 39.988281 -59.003906 38.101562 -55.375 36.4375 -51.5625 C 35.21875 -47.394531 33.675781 -43.394531 31.8125 -39.5625 C 29.957031 -35.726562 28.195312 -31.90625 26.53125 -28.09375 C 25.59375 -25.164062 24.953125 -22.265625 24.609375 -19.390625 C 24.273438 -16.515625 23.84375 -13.640625 23.3125 -10.765625 C 23.101562 -8.703125 23 -6.550781 23 -4.3125 C 23.007812 -2.082031 22.71875 0.0664062 22.125 2.140625 C 21.476562 8.285156 18.875 10.769531 14.3125 9.59375 Z M 14.3125 9.59375 "/></g></g><g clip-rule="nonzero" clip-path="url(#2387fe7837)"><g clip-rule="nonzero" clip-path="url(#64fae5e981)"><g clip-rule="nonzero" clip-path="url(#95a0170e60)"><path style=" stroke:none;fill-rule:nonzero;fill:#21b6a8;fill-opacity:1;" d="M 333.542969 160.257812 L 333.304688 160.296875 C 327.707031 161.113281 322.800781 160.21875 318.582031 157.605469 C 315.074219 155.175781 313.945312 152.15625 315.195312 148.542969 C 315.675781 146.683594 317.820312 145.828125 321.621094 145.972656 L 320.601562 151.007812 L 322.109375 152.128906 C 325.742188 153.660156 329.828125 153.722656 334.363281 152.320312 C 342.386719 148.328125 345.703125 143.265625 344.3125 137.125 C 342.375 130.226562 335.046875 125.785156 322.324219 123.792969 C 311.839844 121.675781 296.648438 122.882812 276.742188 127.410156 C 274.546875 127.808594 269.082031 129.574219 260.355469 132.707031 C 238.5 141.453125 224.140625 146.960938 217.28125 149.230469 C 207.285156 152.144531 198.777344 153.792969 191.761719 154.175781 C 178.046875 154.445312 165.859375 152.578125 155.199219 148.578125 C 142.566406 143.285156 136.328125 138.292969 136.484375 133.601562 C 148.011719 139.492188 156.445312 142.832031 161.777344 143.613281 C 171.496094 145.589844 181.34375 146.042969 191.328125 144.972656 C 196.570312 144.417969 203.53125 142.710938 212.207031 139.855469 L 245.882812 125.871094 C 250.515625 123.976562 253.957031 122.609375 256.207031 121.769531 C 257.554688 121.023438 264.71875 118.90625 277.707031 115.40625 C 292.34375 111.769531 306.097656 110.777344 318.96875 112.425781 C 337 114.667969 348.140625 121.476562 352.394531 132.847656 C 354.382812 138.574219 353.683594 144.167969 350.292969 149.628906 C 346.257812 155.253906 340.675781 158.796875 333.542969 160.257812 "/></g></g></g><g clip-rule="nonzero" clip-path="url(#a267147e72)"><g clip-rule="nonzero" clip-path="url(#f406f0e26b)"><g clip-rule="nonzero" clip-path="url(#a4524a8eb2)"><path style=" stroke:none;fill-rule:nonzero;fill:#21b6a8;fill-opacity:1;" d="M 193.445312 127.574219 L 193.074219 127.632812 C 188.089844 128.429688 183.070312 128.535156 178.011719 127.949219 C 172.683594 127.425781 167.605469 126.40625 162.773438 124.890625 C 157.671875 123.269531 153.453125 121.394531 150.121094 119.265625 C 149.449219 118.902344 148.375 117.992188 146.894531 116.539062 C 146.59375 116.160156 146.398438 115.835938 146.316406 115.554688 L 146.167969 113.6875 C 146.070312 113.507812 145.855469 113.3125 145.53125 113.101562 L 148.496094 113.992188 L 157.65625 117.203125 L 160.957031 118.175781 C 164.65625 119.171875 168.476562 119.863281 172.421875 120.253906 C 182.171875 121.117188 190.101562 120.335938 196.207031 117.90625 C 203.75 114.652344 207.621094 111.285156 207.816406 107.8125 C 207.972656 106.425781 207.039062 104.742188 205.015625 102.757812 C 202.222656 100.3125 200.042969 99.078125 198.472656 99.054688 C 196.535156 99.171875 195.144531 100.492188 194.300781 103.019531 C 194.179688 103.550781 194.175781 103.980469 194.285156 104.304688 C 194.585938 104.457031 194.949219 105.59375 195.375 107.707031 L 196.148438 109.296875 C 196.148438 109.34375 195.980469 109.289062 195.644531 109.128906 C 194.324219 109.53125 193.035156 109.617188 191.773438 109.386719 C 190.585938 109.074219 189.6875 108.417969 189.078125 107.417969 C 187.511719 104.855469 187.546875 101.753906 189.191406 98.121094 C 190.839844 94.828125 193.496094 92.792969 197.164062 92.011719 C 201.269531 91.199219 206.042969 93.207031 211.484375 98.035156 C 215.113281 101.839844 216.609375 105.804688 215.972656 109.921875 C 215.441406 114.230469 212.914062 118.136719 208.390625 121.628906 C 204.4375 124.703125 199.457031 126.683594 193.445312 127.574219 "/></g></g></g><g clip-rule="nonzero" clip-path="url(#b386143b01)"><g clip-rule="nonzero" clip-path="url(#64dbad0707)"><g clip-rule="nonzero" clip-path="url(#abd58149ea)"><path style=" stroke:none;fill-rule:nonzero;fill:#21b6a8;fill-opacity:1;" d="M 396.265625 128.667969 L 395.964844 128.71875 C 390.148438 129.328125 384.890625 128.238281 380.1875 125.449219 C 375.765625 122.621094 373.570312 119.5 373.59375 116.085938 C 374.226562 110.945312 376.691406 108.394531 380.992188 108.425781 L 379.769531 115.984375 C 379.953125 116.855469 381.085938 117.929688 383.167969 119.207031 C 389.800781 121.914062 394.917969 121.886719 398.515625 119.125 C 404.53125 112.609375 403.679688 105.457031 395.96875 97.664062 C 387.640625 88.890625 372.644531 84.355469 350.976562 84.058594 C 331.6875 83.574219 311.242188 86.765625 289.640625 93.636719 C 283.070312 95.480469 275.105469 98.710938 265.746094 103.320312 L 240.558594 117.71875 C 236.460938 120.011719 233.335938 121.632812 231.179688 122.59375 C 225.445312 125.152344 221.332031 126.351562 218.839844 126.191406 L 217.601562 124.445312 L 217.878906 124.242188 L 232.265625 115.734375 L 261.066406 96.257812 C 263.210938 94.867188 266.761719 92.894531 271.710938 90.34375 C 288.78125 82.332031 305.199219 77.011719 320.953125 74.375 C 354.632812 69.773438 379.570312 73.113281 395.777344 84.40625 C 406.414062 92.621094 411.617188 100.925781 411.394531 109.316406 C 410.519531 120.109375 405.476562 126.5625 396.265625 128.667969 "/></g></g></g><g clip-rule="nonzero" clip-path="url(#58773640d2)"><g clip-rule="nonzero" clip-path="url(#c7e469cb9b)"><g clip-rule="nonzero" clip-path="url(#f93e1c58e3)"><path style=" stroke:none;fill-rule:nonzero;fill:#21b6a8;fill-opacity:1;" d="M 333.542969 165.644531 L 333.304688 165.683594 C 327.707031 166.5 322.800781 165.605469 318.582031 162.992188 C 315.074219 160.566406 313.945312 157.542969 315.195312 153.929688 C 315.675781 152.070312 317.820312 151.214844 321.621094 151.359375 L 320.601562 156.394531 L 322.109375 157.515625 C 325.742188 159.046875 329.828125 159.109375 334.363281 157.707031 C 342.386719 153.714844 345.703125 148.652344 344.3125 142.511719 C 342.375 135.613281 335.046875 131.171875 322.324219 129.179688 C 311.839844 127.0625 296.648438 128.269531 276.742188 132.796875 C 274.546875 133.195312 269.082031 134.960938 260.355469 138.09375 C 238.5 146.84375 224.140625 152.347656 217.28125 154.617188 C 207.285156 157.53125 198.777344 159.179688 191.761719 159.5625 C 178.046875 159.832031 165.859375 157.964844 155.199219 153.964844 C 142.566406 148.675781 136.328125 143.679688 136.484375 138.988281 C 148.011719 144.878906 156.445312 148.21875 161.777344 149 C 171.496094 150.976562 181.34375 151.429688 191.328125 150.359375 C 196.570312 149.804688 203.53125 148.097656 212.207031 145.242188 L 245.882812 131.257812 C 250.515625 129.363281 253.957031 127.996094 256.207031 127.15625 C 257.554688 126.414062 264.71875 124.292969 277.707031 120.796875 C 292.34375 117.15625 306.097656 116.164062 318.96875 117.8125 C 337 120.058594 348.140625 126.863281 352.394531 138.234375 C 354.382812 143.960938 353.683594 149.554688 350.292969 155.015625 C 346.257812 160.640625 340.675781 164.183594 333.542969 165.644531 "/></g></g></g><g clip-rule="nonzero" clip-path="url(#ec17d798fd)"><g clip-rule="nonzero" clip-path="url(#af2d70779f)"><g clip-rule="nonzero" clip-path="url(#4818ae8481)"><path style=" stroke:none;fill-rule:nonzero;fill:#21b6a8;fill-opacity:1;" d="M 193.445312 132.960938 L 193.074219 133.023438 C 188.089844 133.816406 183.070312 133.921875 178.011719 133.335938 C 172.683594 132.8125 167.605469 131.792969 162.773438 130.277344 C 157.671875 128.65625 153.453125 126.78125 150.121094 124.652344 C 149.449219 124.289062 148.375 123.378906 146.894531 121.925781 C 146.59375 121.546875 146.398438 121.222656 146.316406 120.941406 L 146.167969 119.074219 C 146.070312 118.894531 145.855469 118.699219 145.53125 118.488281 L 148.496094 119.378906 L 157.65625 122.589844 L 160.957031 123.5625 C 164.65625 124.558594 168.476562 125.25 172.421875 125.640625 C 182.171875 126.503906 190.101562 125.722656 196.207031 123.292969 C 203.75 120.039062 207.621094 116.671875 207.816406 113.199219 C 207.972656 111.8125 207.039062 110.128906 205.015625 108.144531 C 202.222656 105.699219 200.042969 104.464844 198.472656 104.441406 C 196.535156 104.558594 195.144531 105.878906 194.300781 108.40625 C 194.179688 108.9375 194.175781 109.367188 194.285156 109.695312 C 194.585938 109.84375 194.949219 110.980469 195.375 113.09375 L 196.148438 114.683594 C 196.148438 114.730469 195.980469 114.675781 195.644531 114.515625 C 194.324219 114.917969 193.035156 115.003906 191.773438 114.773438 C 190.585938 114.460938 189.6875 113.804688 189.078125 112.804688 C 187.511719 110.242188 187.546875 107.140625 189.191406 103.507812 C 190.839844 100.214844 193.496094 98.179688 197.164062 97.398438 C 201.269531 96.585938 206.042969 98.59375 211.484375 103.421875 C 215.113281 107.226562 216.609375 111.191406 215.972656 115.308594 C 215.441406 119.621094 212.914062 123.523438 208.390625 127.015625 C 204.4375 130.089844 199.457031 132.070312 193.445312 132.960938 "/></g></g></g><g clip-rule="nonzero" clip-path="url(#72acb23131)"><g clip-rule="nonzero" clip-path="url(#0ee6aec85f)"><g clip-rule="nonzero" clip-path="url(#fd040769e1)"><path style=" stroke:none;fill-rule:nonzero;fill:#21b6a8;fill-opacity:1;" d="M 396.265625 134.054688 L 395.964844 134.105469 C 390.148438 134.714844 384.890625 133.625 380.1875 130.835938 C 375.765625 128.007812 373.570312 124.886719 373.59375 121.472656 C 374.226562 116.332031 376.691406 113.78125 380.992188 113.8125 L 379.769531 121.371094 C 379.953125 122.242188 381.085938 123.316406 383.167969 124.59375 C 389.800781 127.300781 394.917969 127.273438 398.515625 124.511719 C 404.53125 117.996094 403.679688 110.84375 395.96875 103.050781 C 387.640625 94.277344 372.644531 89.746094 350.976562 89.449219 C 331.6875 88.960938 311.242188 92.152344 289.640625 99.023438 C 283.070312 100.867188 275.105469 104.097656 265.746094 108.707031 L 240.558594 123.105469 C 236.460938 125.398438 233.335938 127.023438 231.179688 127.980469 C 225.445312 130.539062 221.332031 131.738281 218.839844 131.578125 L 217.601562 129.832031 L 217.878906 129.628906 L 232.265625 121.125 L 261.066406 101.644531 C 263.210938 100.253906 266.761719 98.28125 271.710938 95.730469 C 288.78125 87.71875 305.199219 82.398438 320.953125 79.761719 C 354.632812 75.160156 379.570312 78.503906 395.777344 89.792969 C 406.414062 98.007812 411.617188 106.3125 411.394531 114.703125 C 410.519531 125.496094 405.476562 131.949219 396.265625 134.054688 "/></g></g></g><g clip-rule="nonzero" clip-path="url(#6cc3570d55)"><g clip-rule="nonzero" clip-path="url(#be7957757b)"><g clip-rule="nonzero" clip-path="url(#69f838fddc)"><path style=" stroke:none;fill-rule:nonzero;fill:#727880;fill-opacity:1;" d="M 204.761719 324.199219 C 243.734375 327.066406 281.140625 309.859375 314.011719 290.542969 C 348.769531 270.171875 380.015625 244.367188 415.910156 225.886719 C 450.691406 207.957031 490.4375 195.597656 529.617188 204.421875 C 549.886719 208.980469 568.320312 219.558594 589.371094 220.761719 C 608.15625 221.851562 626.4375 216.628906 643.195312 208.421875 C 679.269531 190.609375 705.371094 160.441406 731.957031 131.210938 C 745.390625 116.367188 759.164062 101.386719 774.394531 88.324219 C 789.984375 74.890625 808.496094 61.550781 829.53125 59.253906 C 850.894531 56.910156 870.746094 66.226562 887.269531 79.078125 C 904.023438 92.113281 918.808594 108.066406 933.40625 123.433594 C 963.265625 154.875 991.34375 188.03125 1016.640625 223.222656 C 1041.574219 257.890625 1062.855469 295.25 1089.527344 328.691406 C 1102.128906 344.53125 1116.097656 359.601562 1132.078125 372.160156 C 1147.832031 384.535156 1165.105469 393.546875 1183.445312 401.511719 C 1192.777344 405.507812 1202.859375 407.457031 1212.945312 408.425781 C 1213.507812 408.476562 1213.4375 409.285156 1212.867188 409.316406 C 1193.71875 409.578125 1174.464844 406.414062 1156.816406 398.917969 C 1138.539062 391.203125 1121.722656 379.789062 1106.824219 366.917969 C 1074.90625 339.445312 1050.933594 304.046875 1026.671875 270.003906 C 1001.617188 234.835938 974.660156 200.964844 946.007812 168.734375 C 931.566406 152.566406 916.683594 136.769531 901.261719 121.574219 C 887.640625 108.082031 873.257812 93.0625 855.289062 85.535156 C 846.734375 81.929688 837.753906 80.40625 828.652344 82.125 C 819.304688 83.824219 810.921875 88.457031 802.855469 93.195312 C 785.773438 103.246094 770.453125 116.378906 756.289062 130.265625 C 727.878906 158.03125 701.796875 188.933594 667.933594 210.277344 C 651.820312 220.414062 634.125 228.210938 615.398438 232.011719 C 596.003906 235.996094 576.800781 234.140625 558.054688 228.007812 C 547.929688 224.675781 538.042969 220.546875 527.664062 218.25 C 518.324219 216.203125 508.464844 215.414062 498.910156 215.792969 C 479.542969 216.6875 460.578125 222.257812 442.816406 229.886719 C 405.511719 245.964844 373.292969 270.789062 339.234375 292.441406 C 306.734375 313.09375 271.855469 331.175781 232.578125 332.675781 C 223.105469 333.058594 213.644531 332.386719 204.355469 330.671875 C 200.191406 329.898438 200.5625 323.828125 204.761719 324.199219 Z M 204.761719 324.199219 "/></g></g></g><g clip-rule="nonzero" clip-path="url(#301bfc9869)"><g clip-rule="nonzero" clip-path="url(#80391808af)"><path style=" stroke:none;fill-rule:nonzero;fill:#727880;fill-opacity:1;" d="M 266.253906 114.371094 L 986.167969 114.371094 L 986.167969 326.941406 L 266.253906 326.941406 Z M 266.253906 114.371094 "/></g></g><g clip-rule="nonzero" clip-path="url(#c39ae32970)"><g clip-rule="nonzero" clip-path="url(#b5a14d407a)"><g clip-rule="nonzero" clip-path="url(#cb7d847839)"><path style=" stroke:none;fill-rule:nonzero;fill:#727880;fill-opacity:1;" d="M 1064.695312 285.03125 C 1037 299.140625 1004.265625 298.042969 974.210938 294.007812 C 942.445312 289.773438 911.582031 280.476562 879.570312 277.980469 C 848.539062 275.550781 815.582031 278.726562 789.570312 297.269531 C 776.113281 306.855469 765.851562 320.292969 750.785156 327.660156 C 737.34375 334.246094 722.328125 336.046875 707.511719 335.191406 C 675.570312 333.242188 647.136719 319.160156 618.636719 305.914062 C 604.210938 299.167969 589.496094 292.425781 574.304688 287.539062 C 558.730469 282.488281 541.046875 278.40625 524.914062 283.207031 C 508.523438 288.066406 496.839844 301.015625 488.679688 315.53125 C 480.410156 330.25 474.480469 346.503906 468.511719 362.269531 C 456.300781 394.523438 445.921875 427.488281 438.214844 461.089844 C 430.609375 494.195312 426.511719 528.148438 417.253906 560.886719 C 412.894531 576.382812 407.289062 591.738281 399.441406 605.871094 C 391.699219 619.800781 381.808594 631.726562 370.816406 643.21875 C 365.203125 649.023438 358.410156 653.558594 351.3125 657.378906 C 350.914062 657.589844 351.214844 658.160156 351.644531 658.003906 C 365.765625 652.300781 378.910156 644.050781 389.542969 633.113281 C 400.570312 621.824219 409.386719 608.277344 416.34375 594.25 C 431.289062 564.269531 437.964844 530.921875 445.269531 498.488281 C 452.808594 464.976562 462.144531 431.832031 473.222656 399.371094 C 478.835938 383.066406 484.882812 366.898438 491.511719 351.003906 C 497.34375 336.914062 503.261719 321.46875 514.121094 310.410156 C 519.285156 305.136719 525.398438 301.25 532.605469 299.707031 C 539.980469 298.074219 547.558594 298.886719 554.933594 299.878906 C 570.554688 301.984375 585.835938 306.898438 600.5 312.71875 C 629.886719 324.328125 658.535156 338.953125 689.945312 344.175781 C 704.882812 346.644531 720.261719 346.910156 735.164062 343.925781 C 750.613281 340.875 764.125 333.597656 775.984375 323.328125 C 782.378906 317.761719 788.359375 311.691406 795.261719 306.808594 C 801.480469 302.429688 808.46875 298.816406 815.59375 296.148438 C 830.070312 290.839844 845.691406 289.082031 861.070312 289.203125 C 893.378906 289.5 924.65625 297.78125 956.300781 303.167969 C 986.496094 308.300781 1017.644531 310.816406 1046.90625 299.816406 C 1053.972656 297.179688 1060.707031 293.773438 1066.988281 289.652344 C 1069.804688 287.800781 1067.660156 283.464844 1064.695312 285.03125 Z M 1064.695312 285.03125 "/></g></g></g><g clip-rule="nonzero" clip-path="url(#9d7a5d7ee8)"><g clip-rule="nonzero" clip-path="url(#c86231471e)"><g clip-rule="nonzero" clip-path="url(#7852a3dd9c)"><path style=" stroke:none;fill-rule:nonzero;fill:#727880;fill-opacity:1;" d="M 1100.492188 253.210938 C 1052.9375 279.089844 995.894531 278.726562 943.367188 273.117188 C 887.863281 267.25 833.679688 252.519531 777.824219 249.6875 C 723.679688 246.921875 666.449219 254.011719 622.035156 287.527344 C 599.050781 304.851562 581.820312 328.734375 555.933594 342.277344 C 532.84375 354.378906 506.785156 358.226562 480.949219 357.433594 C 425.238281 355.550781 375.066406 332.375 324.8125 310.660156 C 299.378906 299.589844 273.4375 288.546875 246.753906 280.757812 C 219.402344 272.703125 188.417969 266.433594 160.554688 275.550781 C 132.246094 284.789062 112.511719 307.886719 98.992188 333.542969 C 85.285156 359.5625 75.730469 388.144531 66.082031 415.875 C 46.347656 472.617188 29.835938 530.507812 18 589.375 C 6.324219 647.378906 0.792969 706.6875 -13.777344 764.128906 C -20.636719 791.320312 -29.664062 818.316406 -42.667969 843.296875 C -55.484375 867.914062 -72.140625 889.152344 -90.742188 909.679688 C -100.238281 920.054688 -111.855469 928.269531 -124.03125 935.257812 C -124.714844 935.640625 -124.164062 936.621094 -123.425781 936.332031 C -99.105469 925.730469 -76.609375 910.746094 -58.613281 891.203125 C -39.945312 871.023438 -25.234375 847.015625 -13.78125 822.261719 C 10.820312 769.355469 20.871094 710.980469 32.050781 654.15625 C 43.59375 595.457031 58.28125 537.304688 76.042969 480.257812 C 85.039062 451.601562 94.804688 423.164062 105.597656 395.175781 C 115.085938 370.367188 124.660156 343.191406 143.050781 323.429688 C 151.789062 314 162.25 306.945312 174.726562 303.917969 C 187.492188 300.726562 200.71875 301.785156 213.609375 303.160156 C 240.910156 306.089844 267.746094 313.921875 293.558594 323.363281 C 345.273438 342.1875 395.84375 366.300781 450.78125 373.90625 C 476.90625 377.496094 503.695312 377.234375 529.507812 371.335938 C 556.261719 365.292969 579.445312 351.980469 599.609375 333.539062 C 610.480469 323.550781 620.605469 312.691406 632.394531 303.863281 C 643.015625 295.949219 655.011719 289.324219 667.285156 284.34375 C 692.242188 274.417969 719.363281 270.617188 746.140625 270.105469 C 802.414062 269.09375 857.261719 282.03125 912.613281 289.917969 C 965.433594 297.425781 1019.789062 300.332031 1070.222656 279.796875 C 1082.398438 274.871094 1093.960938 268.621094 1104.707031 261.152344 C 1109.519531 257.796875 1105.582031 250.347656 1100.492188 253.210938 Z M 1100.492188 253.210938 "/></g></g></g><g clip-rule="nonzero" clip-path="url(#4e7272b4b0)"><g clip-rule="nonzero" clip-path="url(#f5f6de38c7)"><g clip-rule="nonzero" clip-path="url(#c229aad133)"><path style=" stroke:none;fill-rule:nonzero;fill:#727880;fill-opacity:1;" d="M 212.375 298.300781 C 245.855469 306.023438 280.671875 296.09375 311.828125 283.722656 C 344.765625 270.6875 375.386719 252.457031 409.054688 241.214844 C 441.6875 230.308594 477.886719 224.902344 510.746094 237.832031 C 527.746094 244.511719 542.347656 256.179688 560.480469 260.054688 C 576.65625 263.523438 593.242188 261.4375 608.90625 256.558594 C 642.648438 245.921875 669.375 223.210938 696.402344 201.382812 C 710.070312 190.285156 724.050781 179.117188 739.039062 169.8125 C 754.390625 160.230469 772.265625 151.121094 790.855469 151.953125 C 809.734375 152.78125 825.734375 163.546875 838.367188 176.933594 C 851.175781 190.507812 861.882812 206.355469 872.503906 221.667969 C 894.226562 253 914.175781 285.582031 931.433594 319.558594 C 948.449219 353.035156 961.925781 388.355469 980.613281 420.996094 C 989.433594 436.453125 999.550781 451.421875 1011.75 464.480469 C 1023.78125 477.351562 1037.578125 487.5 1052.445312 496.882812 C 1060.015625 501.609375 1068.515625 504.65625 1077.152344 506.855469 C 1077.636719 506.972656 1077.464844 507.664062 1076.964844 507.617188 C 1060.289062 505.273438 1043.984375 499.941406 1029.65625 491.054688 C 1014.804688 481.894531 1001.726562 469.722656 990.511719 456.539062 C 966.460938 428.378906 950.382812 394.398438 933.871094 361.558594 C 916.820312 327.632812 897.941406 294.582031 877.375 262.726562 C 866.992188 246.738281 856.183594 231.011719 844.820312 215.738281 C 834.796875 202.183594 824.316406 187.199219 809.710938 178.246094 C 802.761719 173.96875 795.164062 171.4375 787.019531 171.710938 C 778.671875 171.929688 770.765625 174.828125 763.117188 177.867188 C 746.925781 184.304688 731.851562 193.660156 717.675781 203.828125 C 689.261719 224.140625 662.449219 247.492188 630.152344 261.492188 C 614.792969 268.136719 598.367188 272.535156 581.585938 273.324219 C 564.195312 274.183594 547.757812 269.992188 532.289062 262.148438 C 523.941406 257.890625 515.902344 252.976562 507.195312 249.585938 C 499.351562 246.554688 490.890625 244.546875 482.535156 243.589844 C 465.585938 241.769531 448.359375 244.0625 431.902344 248.308594 C 397.324219 257.269531 365.992188 274.515625 333.492188 288.761719 C 302.476562 302.339844 269.738281 313.371094 235.40625 309.398438 C 227.125 308.460938 218.992188 306.609375 211.148438 303.871094 C 207.636719 302.640625 208.777344 297.414062 212.375 298.300781 Z M 212.375 298.300781 "/></g></g></g></g></svg>