<?xml version="1.0" standalone="no"?>
<!DOCTYPE svg PUBLIC "-//W3C//DTD SVG 20010904//EN"
 "http://www.w3.org/TR/2001/REC-SVG-20010904/DTD/svg10.dtd">
<svg version="1.0" xmlns="http://www.w3.org/2000/svg"
 width="52.000000pt" height="52.000000pt" viewBox="0 0 52.000000 52.000000"
 preserveAspectRatio="xMidYMid meet">

<g transform="translate(0.000000,52.000000) scale(0.100000,-0.100000)"
fill="#21b6a8" stroke="none">
<path d="M285 503 c6 -6 28 -16 49 -23 57 -18 133 -97 148 -154 7 -25 18 -46
25 -46 9 0 9 10 -2 47 -26 84 -114 168 -190 180 -27 4 -37 2 -30 -4z"/>
<path d="M42 447 c-26 -27 -32 -41 -32 -77 0 -108 119 -264 251 -329 91 -44
139 -44 185 0 48 46 45 76 -11 128 -52 48 -69 50 -107 14 l-27 -26 -38 26
c-35 24 -103 102 -103 117 0 4 11 17 25 30 36 33 31 60 -18 108 -53 52 -81 54
-125 9z m110 -24 c21 -20 38 -42 38 -47 0 -5 -12 -22 -26 -37 -36 -38 -27 -65
41 -134 69 -68 96 -77 134 -41 15 14 31 26 36 26 16 0 85 -73 85 -90 0 -30
-57 -74 -94 -73 -92 3 -246 125 -304 242 -40 81 -41 125 -5 163 35 37 50 35
95 -9z"/>
<path d="M270 411 c0 -5 12 -12 28 -16 35 -8 80 -51 98 -94 8 -19 17 -31 20
-28 10 9 -6 60 -25 84 -36 43 -121 81 -121 54z"/>
</g>
</svg>
