<svg id="Layer_1" data-name="Layer 1" xmlns="http://www.w3.org/2000/svg" viewBox="0 0 100 100"><defs><style>.cls-1{fill:#fff;}.cls-2{fill:#410d00;}.cls-3{fill:#b39471;}</style></defs><title>corporate</title><circle class="cls-1" cx="50" cy="50" r="50"/><path class="cls-2" d="M87.6,51.2c0,9.44,0,18.72,0,28a5,5,0,0,1-5.08,4.73H18c-2.71,0-4.65-1.29-5.39-3.58a4.67,4.67,0,0,1-.25-1.44q0-13.66,0-27.33c0-.07,0-.14,0-.23.25,0,.3.22.42.35a14.53,14.53,0,0,0,11.26,5.12q9.73,0,19.47,0c.68,0,.89.18.85.86-.06,1,0,2.11,0,3.16a3,3,0,0,0,3,3q2.57,0,5.14,0a3,3,0,0,0,3-3c0-1.05,0-2.11,0-3.16,0-.66.14-.88.84-.87,3.08,0,6.17,0,9.26,0s6-.08,9,0A15.2,15.2,0,0,0,87.6,51.2Z" transform="translate(0 -0.12)"/><path class="cls-2" d="M50,27.24c10.7,0,21.4.05,32.1,0a5.38,5.38,0,0,1,5.54,5.59c-.11,3.74-.07,7.49,0,11.24a7.64,7.64,0,0,1-1,4A11.53,11.53,0,0,1,76.3,54.26c-6.68.13-13.37,0-20.05,0-.51,0-.67-.14-.65-.66,0-1.08,0-2.15,0-3.23a3,3,0,0,0-3-3.13c-1.74,0-3.48-.05-5.21,0a3,3,0,0,0-3,3.14c0,1.08,0,2.16,0,3.23,0,.44-.06.65-.59.65-6.78,0-13.57,0-20.35,0a11.79,11.79,0,0,1-11-8.49,3.52,3.52,0,0,1-.11-.94q0-6.13,0-12.27a5.09,5.09,0,0,1,5.3-5.33Z" transform="translate(0 -0.12)"/><path class="cls-3" d="M50,21.37H42.3c-1.08,0-1.26.18-1.26,1.29,0,.51,0,1,0,1.54s-.13.51-.51.5q-1.65,0-3.3,0c-.38,0-.53-.12-.51-.5,0-.68,0-1.37,0-2.06a5,5,0,0,1,5-5.13Q50,17,58.22,17a5,5,0,0,1,5,5.08c0,.69,0,1.37,0,2.06,0,.4-.1.57-.53.56-1.08,0-2.15,0-3.23,0-.47,0-.59-.17-.56-.6s0-1.13,0-1.69c0-.8-.26-1-1.06-1Z" transform="translate(0 -0.12)"/><path class="cls-1" d="M48.12,28.33c9.84,0,19.68,0,29.51,0a5,5,0,0,1,5,4.29c.16,1.68.06,3.43.06,5.12s0,3.56-.07,5.33c0,1.38.05,3.22-.88,4.38a10.61,10.61,0,0,1-9.46,5.73c-6.14.12-12.29,0-18.44,0-.47,0-.62-.13-.6-.6,0-1,0-2,0-3a2.76,2.76,0,0,0-2.77-2.88c-1.6,0-3.2,0-4.79,0A2.75,2.75,0,0,0,43,49.65c0,1,0,2,0,3,0,.4-.06.6-.54.59-6.24,0-12.47,0-18.71,0a10.84,10.84,0,0,1-10.08-7.81,3.23,3.23,0,0,1-.1-.87q0-5.64,0-11.28a4.68,4.68,0,0,1,4.87-4.9Z" transform="translate(0 -0.12)"/><path class="cls-1" d="M86.48,50.46c0,9.37,0,18.57,0,27.77a4.92,4.92,0,0,1-4.92,4.69H19a5.06,5.06,0,0,1-5.22-3.55,4.72,4.72,0,0,1-.24-1.43q0-13.55,0-27.1c0-.07,0-.14,0-.23.24,0,.29.22.41.35A14,14,0,0,0,24.88,56q9.44,0,18.88,0c.66,0,.86.18.82.85-.05,1,0,2.09,0,3.13a2.92,2.92,0,0,0,2.94,3q2.49,0,5,0a2.92,2.92,0,0,0,3-3c0-1,0-2.09,0-3.13,0-.65.14-.87.82-.86,3,0,6,0,9,0s5.84-.08,8.76,0A14.6,14.6,0,0,0,86.48,50.46Z" transform="translate(0 -0.12)"/><rect class="cls-1" x="42.81" y="44.1" width="14.73" height="4.56"/><path class="cls-1" d="M54.54,28.33c-9.09,0-18.18,0-27.26,0a4.73,4.73,0,0,0-4.65,4.29c-.15,1.68-.06,3.43-.05,5.12s0,3.56.07,5.33c0,1.38,0,3.22.81,4.38,1.92,3.67,4.88,5.65,8.74,5.73,5.68.12,11.35,0,17,0,.44,0,.57-.13.56-.6,0-1,0-2,0-3a2.67,2.67,0,0,1,2.56-2.88c1.48,0,3,0,4.43,0a2.67,2.67,0,0,1,2.55,2.89c0,1,0,2,0,3,0,.4.05.6.5.59,5.76,0,11.52,0,17.28,0,4.28-.05,8.22-3.43,9.32-7.81a3.49,3.49,0,0,0,.09-.87q0-5.64,0-11.28c0-2.87-1.85-4.9-4.5-4.9Z" transform="translate(0 -0.12)"/><path class="cls-3" d="M46.9,55.58c0-1.64,0-3.28,0-4.92,0-.61.22-.83.82-.82q2.27,0,4.55,0c.6,0,.82.21.82.82q0,4.92,0,9.83c0,.59-.22.84-.82.84q-2.27,0-4.55,0c-.6,0-.83-.24-.82-.84C46.92,58.85,46.9,57.22,46.9,55.58Z" transform="translate(0 -0.12)"/></svg>