<svg id="Layer_1" data-name="Layer 1" xmlns="http://www.w3.org/2000/svg" viewBox="0 0 100 100"><defs><style>.cls-1{fill:#fff;}.cls-2{fill:#410d00;}.cls-3{fill:#b39471;}</style></defs><title>employment</title><circle class="cls-1" cx="50" cy="50" r="50"/><path class="cls-2" d="M55.34,82.57a9.25,9.25,0,0,1-1.85.13A5,5,0,0,1,50,79.93a4.86,4.86,0,0,1-3.78,2.8l-1.42-.14A4.56,4.56,0,0,1,41.38,78c0-6.69,0-13.38,0-20.07,0-1,0-1-1-1a4.56,4.56,0,0,1-4.76-3.34,5.05,5.05,0,0,1-.12-1.39q0-8.14,0-16.28a4.31,4.31,0,0,1,3.92-4.36c1.93-.12,3.88,0,5.82-.06.34,0,.49.22.66.44,1.22,1.54,2.46,3.06,3.64,4.63.41.54.57.44.93,0C51.67,35,52.91,33.51,54.11,32a.91.91,0,0,1,.81-.43h5.19a4.54,4.54,0,0,1,4.42,4.55c-.08,5.47,0,10.95,0,16.42a4.35,4.35,0,0,1-3.34,4.3,5.47,5.47,0,0,1-1.81.14c-.58,0-.75.13-.74.73,0,6.67,0,13.34,0,20A4.79,4.79,0,0,1,55.34,82.57Z" transform="translate(0 -0.12)"/><path class="cls-1" d="M68.41,51.6h0Z" transform="translate(0 -0.12)"/><path class="cls-1" d="M19.53,49.35a3.92,3.92,0,0,0,2.73,3.9c.44.16.38.45.38.76q0,7,0,13.93a3.18,3.18,0,0,0,.07.76,3.14,3.14,0,0,0,2.7,2.54,3.24,3.24,0,0,0,3.46-2.17c.19.31.35.6.55.87a3.21,3.21,0,0,0,3.46,1.21,3.24,3.24,0,0,0,2.29-3c0-3.3,0-6.59,0-9.89a1,1,0,0,0-.28-.82,6.66,6.66,0,0,1-2.42-5.22V37.85a11.65,11.65,0,0,1,.31-2.27,10.3,10.3,0,0,1,1-2,.76.76,0,0,0-.59-.11c-3.15,0-6.29,0-9.44,0a4.24,4.24,0,0,0-4.24,4.2C19.59,41.56,19.52,45.46,19.53,49.35ZM32,52.24h0Z" transform="translate(0 -0.12)"/><path class="cls-1" d="M54.88,81.07a8.29,8.29,0,0,1-1.7.12A4.58,4.58,0,0,1,50,78.57a4.48,4.48,0,0,1-3.47,2.64l-1.31-.13a4.29,4.29,0,0,1-3.15-4.29c0-6.31,0-12.63,0-18.94,0-.95,0-.95-.94-.94a4.2,4.2,0,0,1-4.37-3.16,4.89,4.89,0,0,1-.11-1.31q0-7.68,0-15.36A4,4,0,0,1,40.25,33c1.78-.12,3.57,0,5.35-.05.31,0,.45.21.61.42,1.12,1.45,2.26,2.89,3.35,4.37.37.51.53.42.86,0,1.09-1.47,2.24-2.9,3.33-4.36a.83.83,0,0,1,.74-.4h4.77a4.23,4.23,0,0,1,4.07,4.3c-.07,5.16,0,10.33,0,15.49a4.08,4.08,0,0,1-3.07,4.06,4.9,4.9,0,0,1-1.67.13c-.53,0-.69.13-.68.69,0,6.29,0,12.58,0,18.87A4.51,4.51,0,0,1,54.88,81.07Z" transform="translate(0 -0.12)"/><path class="cls-2" d="M50,29a7.85,7.85,0,1,1,7.85-7.85A7.86,7.86,0,0,1,50,29Zm0-14.62a6.78,6.78,0,1,0,6.78,6.78A6.78,6.78,0,0,0,50,14.42Z" transform="translate(0 -0.12)"/><path class="cls-3" d="M82.35,36.29a4.64,4.64,0,0,0-4.64-4.59c-3.44.06-6.88,0-10.32,0a.83.83,0,0,0-.65.12A11.26,11.26,0,0,1,67.8,34a12.73,12.73,0,0,1,.33,2.49V52.22a7.28,7.28,0,0,1-2.64,5.71,1.07,1.07,0,0,0-.3.9c0,3.6,0,7.21,0,10.81a3.54,3.54,0,0,0,2.51,3.28,3.51,3.51,0,0,0,3.79-1.32c.21-.3.39-.61.6-1A3.55,3.55,0,0,0,75.87,73a3.43,3.43,0,0,0,3-2.78,3.47,3.47,0,0,0,.08-.83q0-7.62,0-15.23c0-.34-.06-.65.42-.83a4.29,4.29,0,0,0,3-4.27C82.33,44.81,82.26,40.55,82.35,36.29ZM68.68,52.22h0Z" transform="translate(0 -0.12)"/><path class="cls-1" d="M75.38,47.49a20.54,20.54,0,0,0-.23-3c-.13-1.06-.32-2.12-.42-3.18a3.71,3.71,0,0,1-.54.13c.21,1.17.36,2.35.49,3.56.1.94.17,1.89.29,2.83h.41A3,3,0,0,0,75.38,47.49Z" transform="translate(0 -0.12)"/><path class="cls-1" d="M72.78,49.34a3.57,3.57,0,0,1-5.8.09,9.31,9.31,0,0,1-1.09,1.76,2,2,0,0,0-.28,1.26c0,5.07,0,10.14,0,15.2,0,2.08,1,3.94,2.31,4.62s2.71-.19,3.49-1.86c.19-.42.36-.86.55-1.34.75,2.48,1.91,3.56,3.49,3.33,1.32-.2,2.36-1.67,2.72-3.91a7.38,7.38,0,0,0,.07-1.17q0-9.07,0-18.13A8.49,8.49,0,0,1,72.78,49.34Z" transform="translate(0 -0.12)"/><path class="cls-1" d="M71.39,58.75a15.82,15.82,0,0,1,2,5.07A8.48,8.48,0,0,0,74,66.2l.2.12A18.89,18.89,0,0,0,74.72,64a4.31,4.31,0,0,1,3.46-4.38q0-3.12,0-6.23c0-.32-.06-.61.4-.78a4,4,0,0,0,2.86-4c0-4-.06-8,0-12A4.4,4.4,0,0,0,77,32.31c-3.29.06-6.59,0-9.88,0a.81.81,0,0,0-.62.11,10.51,10.51,0,0,1,1,2,11.77,11.77,0,0,1,.32,2.34q0,7.39,0,14.78A6.8,6.8,0,0,1,65.33,57a.67.67,0,0,0-.17.21A4.64,4.64,0,0,1,71.39,58.75Z" transform="translate(0 -0.12)"/><path class="cls-3" d="M72,29.85a6.48,6.48,0,1,1,6.48-6.48A6.49,6.49,0,0,1,72,29.85ZM72,18a5.41,5.41,0,1,0,5.41,5.41A5.41,5.41,0,0,0,72,18Z" transform="translate(0 -0.12)"/><rect class="cls-1" x="65.61" y="33.96" width="7.67" height="26.46"/><path class="cls-3" d="M17.27,49.07a4.29,4.29,0,0,0,3,4.27c.48.18.42.49.42.83q0,7.62,0,15.23a3.47,3.47,0,0,0,.08.83,3.43,3.43,0,0,0,3,2.78,3.55,3.55,0,0,0,3.79-2.37c.21.34.39.66.6,1a3.51,3.51,0,0,0,3.79,1.32,3.54,3.54,0,0,0,2.51-3.28c0-3.6,0-7.21,0-10.81a1.07,1.07,0,0,0-.3-.9,7.28,7.28,0,0,1-2.64-5.71V36.5A12.73,12.73,0,0,1,31.8,34a11.26,11.26,0,0,1,1.05-2.17.83.83,0,0,0-.65-.12c-3.44,0-6.88,0-10.32,0a4.64,4.64,0,0,0-4.64,4.59C17.34,40.55,17.26,44.81,17.27,49.07Zm13.65,3.15h0Z" transform="translate(0 -0.12)"/><path class="cls-1" d="M24.22,47.49a20.54,20.54,0,0,1,.23-3c.13-1.06.32-2.12.42-3.18a3.71,3.71,0,0,0,.54.13c-.21,1.17-.36,2.35-.49,3.56-.1.94-.17,1.89-.29,2.83h-.41A3,3,0,0,1,24.22,47.49Z" transform="translate(0 -0.12)"/><path class="cls-1" d="M26.81,49.34a3.57,3.57,0,0,0,5.8.09,9.31,9.31,0,0,0,1.09,1.76A2,2,0,0,1,34,52.44c0,5.07,0,10.14,0,15.2,0,2.08-1,3.94-2.31,4.62s-2.71-.19-3.49-1.86c-.19-.42-.36-.86-.55-1.34-.75,2.48-1.91,3.56-3.49,3.33-1.32-.2-2.36-1.67-2.72-3.91a7.38,7.38,0,0,1-.07-1.17q0-9.07,0-18.13A8.49,8.49,0,0,0,26.81,49.34Z" transform="translate(0 -0.12)"/><path class="cls-1" d="M28.2,58.75a15.82,15.82,0,0,0-2,5.07,8.48,8.48,0,0,1-.7,2.38l-.2.12A18.89,18.89,0,0,1,24.87,64a4.31,4.31,0,0,0-3.46-4.38q0-3.12,0-6.23c0-.32.06-.61-.4-.78a4,4,0,0,1-2.86-4c0-4,.06-8,0-12a4.4,4.4,0,0,1,4.44-4.31c3.29.06,6.59,0,9.88,0a.81.81,0,0,1,.62.11,10.51,10.51,0,0,0-1,2,11.77,11.77,0,0,0-.32,2.34q0,7.39,0,14.78A6.8,6.8,0,0,0,34.26,57a.67.67,0,0,1,.17.21A4.64,4.64,0,0,0,28.2,58.75Z" transform="translate(0 -0.12)"/><path class="cls-3" d="M21.07,23.37a6.48,6.48,0,1,1,6.48,6.48A6.49,6.49,0,0,1,21.07,23.37Zm1.07,0A5.41,5.41,0,1,0,27.55,18,5.41,5.41,0,0,0,22.14,23.37Z" transform="translate(0 -0.12)"/><rect class="cls-1" x="26.31" y="34.07" width="7.67" height="26.46" transform="translate(60.29 94.48) rotate(-180)"/></svg>