<svg id="Layer_1" data-name="Layer 1" xmlns="http://www.w3.org/2000/svg" viewBox="0 0 100 100"><defs><style>.cls-1{fill:#fff;}.cls-2{fill:#410d00;}.cls-3{fill:#b39471;}.cls-4,.cls-5{fill:none;stroke-miterlimit:10;stroke-width:1.42px;}.cls-4{stroke:#410d00;}.cls-5{stroke:#b39471;}</style></defs><title>foreign_exchange</title><circle class="cls-1" cx="50" cy="50" r="50"/><path class="cls-2" d="M55.63,17.37l3.56-1L60.44,16l3.71-1.06a3.48,3.48,0,0,0,1.24-.34,27,27,0,0,0,3.72-1.06,2.78,2.78,0,0,0,1.24-.34l.93-.18c.42-.07.68.07.7.53L71.57,15c-.34.89-.71,1.77-1,2.68s.5.56.84.75l.55.25,1.76.78c.07.17.23.16.37.21l1.72,1,.74.53,1.4,1.13.33.29L79.58,24l.49.58L81,25.94l.47.76.74,1.55.31.72.56,1.94a.9.9,0,0,0,.15.71l.22,2.47V35l-.3,2.85L82.95,39l-1.11,3.72-.7,1.58h0l-.19-.16a11.26,11.26,0,0,0,0-2.53l-.14-.84a6.06,6.06,0,0,0-.49-2.12,1.86,1.86,0,0,0-.32-1,5.56,5.56,0,0,0-.87-1.89c0-.13,0-.28-.19-.33A4.89,4.89,0,0,0,77.8,33.9l-.51-.61a4.39,4.39,0,0,0-1.21-1.19l-.6-.5a6.35,6.35,0,0,0-1.57-1.13.91.91,0,0,0-.53-.34,6.35,6.35,0,0,0-1.79-1,.94.94,0,0,0-.54-.31,6.67,6.67,0,0,0-1.76-.76,1.36,1.36,0,0,0-.71-.31l-.9-.36c-.33-.13-.55-.06-.66.3-.24.78-.5,1.55-.75,2.33a4.55,4.55,0,0,0-.5,1.42c-.35.39-.16,1.28-1.08,1.12l-.3-.26a8.45,8.45,0,0,0-1.12-1.57L63,30.34l-1.13-1.58a1.86,1.86,0,0,0-.53-.74l-1-1.38L60,26.1a8.28,8.28,0,0,0-1.12-1.57l-.52-.73-.88-1.22a1.87,1.87,0,0,0-.53-.73l-1-1.38-.42-.55-1-1.57C54.56,17.61,55.14,17.54,55.63,17.37Z" transform="translate(0 -0.12)"/><path class="cls-1" d="M57.16,18.12,60,17.31,61,17l3-.85a2.82,2.82,0,0,0,1-.27,21.86,21.86,0,0,0,3-.84,2.26,2.26,0,0,0,1-.27l.75-.15c.33-.06.55.06.57.42L70,16.2c-.27.71-.57,1.41-.82,2.13s.4.45.67.6l.44.2,1.41.62c.05.14.19.13.3.16l1.38.82.6.42,1.12.9.27.23,1.06,1.11.39.46.76,1.09.38.6.6,1.23.25.57.45,1.54a.71.71,0,0,0,.12.57l.17,2v.71l-.24,2.27-.18,1-.9,3-.57,1.26h0l-.15-.13a8.89,8.89,0,0,0,0-2l-.11-.67A4.79,4.79,0,0,0,77,35.1a1.47,1.47,0,0,0-.26-.77,4.41,4.41,0,0,0-.7-1.51c0-.11,0-.22-.16-.26A3.89,3.89,0,0,0,75,31.29l-.41-.48a3.51,3.51,0,0,0-1-.95l-.48-.4a5.11,5.11,0,0,0-1.26-.9.74.74,0,0,0-.42-.27A5.12,5.12,0,0,0,70,27.48a.76.76,0,0,0-.43-.25,5.39,5.39,0,0,0-1.42-.61,1.1,1.1,0,0,0-.57-.25l-.72-.29c-.26-.11-.44,0-.53.24-.2.62-.4,1.24-.61,1.86a3.6,3.6,0,0,0-.41,1.13c-.28.31-.13,1-.87.89L64.2,30a6.73,6.73,0,0,0-.9-1.25l-.21-.3-.91-1.26a1.48,1.48,0,0,0-.43-.59L61,25.52l-.34-.44a6.6,6.6,0,0,0-.9-1.25l-.42-.58-.7-1a1.49,1.49,0,0,0-.43-.59l-.77-1.1-.34-.44-.77-1.25C56.3,18.31,56.77,18.26,57.16,18.12Z" transform="translate(0 -0.12)"/><path class="cls-3" d="M43.08,82.71l-3.56,1-1.24.34-3.71,1.06a3.48,3.48,0,0,0-1.24.34,27,27,0,0,0-3.72,1.06,2.78,2.78,0,0,0-1.24.34l-.93.18c-.42.07-.68-.07-.7-.53l.41-1.41c.34-.89.71-1.77,1-2.68s-.5-.56-.84-.75l-.55-.25L25,80.67c-.07-.17-.23-.16-.37-.21l-1.72-1-.74-.53-1.4-1.13-.33-.29L19.13,76.1l-.49-.58-.94-1.37-.47-.76-.74-1.55-.31-.72-.56-1.94a.9.9,0,0,0-.15-.71L15.24,66v-.89l.3-2.85L15.76,61l1.11-3.72.7-1.58h0l.19.16a11.26,11.26,0,0,0,0,2.53l.14.84a6.06,6.06,0,0,0,.49,2.12,1.86,1.86,0,0,0,.32,1,5.56,5.56,0,0,0,.87,1.89c0,.13,0,.28.19.33a4.89,4.89,0,0,0,1.08,1.59l.51.61A4.39,4.39,0,0,0,22.63,68l.6.5A6.35,6.35,0,0,0,24.8,69.6a.91.91,0,0,0,.53.34,6.35,6.35,0,0,0,1.79,1,.94.94,0,0,0,.54.31,6.67,6.67,0,0,0,1.76.76,1.36,1.36,0,0,0,.71.31l.9.36c.33.13.55.06.66-.3.24-.78.5-1.55.75-2.33a4.55,4.55,0,0,0,.5-1.42c.35-.39.16-1.28,1.08-1.12l.3.26a8.45,8.45,0,0,0,1.12,1.57l.27.38,1.13,1.58a1.86,1.86,0,0,0,.53.74l1,1.38.42.56a8.28,8.28,0,0,0,1.12,1.57l.52.73.88,1.22a1.87,1.87,0,0,0,.53.73l1,1.38.42.55,1,1.57C44.15,82.47,43.56,82.54,43.08,82.71Z" transform="translate(0 -0.12)"/><path class="cls-1" d="M41.55,82l-2.87.81-1,.27-3,.85a2.82,2.82,0,0,0-1,.27,21.86,21.86,0,0,0-3,.84,2.26,2.26,0,0,0-1,.27l-.75.15c-.33.06-.55-.06-.57-.42l.33-1.13c.27-.71.57-1.41.82-2.13s-.4-.45-.67-.6l-.44-.2L27,80.33c-.05-.14-.19-.13-.3-.16l-1.38-.82-.6-.42L23.61,78l-.27-.23-1.06-1.11-.39-.46-.76-1.09-.38-.6-.6-1.23-.25-.57-.45-1.54a.71.71,0,0,0-.12-.57l-.17-2v-.71l.24-2.27.18-1,.9-3L21,60.47h0l.15.13a8.89,8.89,0,0,0,0,2l.11.67a4.79,4.79,0,0,0,.4,1.69,1.47,1.47,0,0,0,.26.77,4.41,4.41,0,0,0,.7,1.51c0,.11,0,.22.16.26a3.89,3.89,0,0,0,.87,1.26l.41.48a3.51,3.51,0,0,0,1,.95l.48.4a5.11,5.11,0,0,0,1.26.9.74.74,0,0,0,.42.27,5.12,5.12,0,0,0,1.44.81.76.76,0,0,0,.43.25,5.39,5.39,0,0,0,1.42.61,1.1,1.1,0,0,0,.57.25l.72.29c.26.11.44,0,.53-.24.2-.62.4-1.24.61-1.86a3.6,3.6,0,0,0,.41-1.13c.28-.31.13-1,.87-.89l.24.21a6.73,6.73,0,0,0,.9,1.25l.21.3.91,1.26a1.48,1.48,0,0,0,.43.59l.77,1.1.34.44a6.6,6.6,0,0,0,.9,1.25l.42.58.7,1a1.49,1.49,0,0,0,.43.59l.77,1.1.34.44.77,1.25C42.41,81.77,41.94,81.82,41.55,82Z" transform="translate(0 -0.12)"/><path class="cls-3" d="M24.2,43.8l2.15-2.08a4.41,4.41,0,0,1-2.81-1.9l2-1.22a4,4,0,0,0,2.61,1.82,5.47,5.47,0,0,0,5-1.24c1.17-1.13.93-2.09-.24-3.19-1.65-1.49-2.22-2.85-.37-4.64A9.09,9.09,0,0,1,39.66,29l2.14-2.08,1.52.4-2.06,2a4.11,4.11,0,0,1,2.44,1.57l-2,1.2a3.68,3.68,0,0,0-2.36-1.52,4.74,4.74,0,0,0-4.42,1.08c-1.1,1.07-.75,1.85.62,3.15,1.63,1.54,1.8,2.94-.09,4.78a9.68,9.68,0,0,1-7.48,2.47l-2.21,2.14Z" transform="translate(0 -0.12)"/><path class="cls-4" d="M48.18,35.53C43.4,43.5,33.05,50,25.08,50S14.54,43.5,19.32,35.53,34.46,21.1,42.42,21.1,53,27.56,48.18,35.53Z" transform="translate(0 -0.12)"/><path class="cls-2" d="M66.51,73.08A10.65,10.65,0,0,1,62,73c-2-.51-3.1-1.61-3.1-3.13,0-1.11.56-2.47,1.86-4l-1.52-.39,1-1,1.4.36.32-.31c.34-.33.68-.64,1-.92l-1.45-.38,1.05-1,1.62.42a18.57,18.57,0,0,1,5.58-3,11.76,11.76,0,0,1,6.61-.46A4.58,4.58,0,0,1,79,60.64l-1.88,1.24a3.68,3.68,0,0,0-2.16-1.29,7.74,7.74,0,0,0-4.4.3,13.79,13.79,0,0,0-4.15,2.25l6.85,1.77-1.05,1-7.07-1.83c-.3.26-.64.57-.94.86l-.38.37,7.12,1.84-1,1-6.94-1.8a4.92,4.92,0,0,0-1.41,3.06c.09,1,.91,1.76,2.24,2.1a10.13,10.13,0,0,0,3.69.09Z" transform="translate(0 -0.12)"/><path class="cls-5" d="M82.36,65.86c-4.79,8-15.13,14.43-23.1,14.43S48.71,73.83,53.5,65.86,68.63,51.43,76.6,51.43,87.15,57.89,82.36,65.86Z" transform="translate(0 -0.12)"/></svg>