<svg id="Layer_1" data-name="Layer 1" xmlns="http://www.w3.org/2000/svg" viewBox="0 0 145.84 75.6"><defs><style>.cls-1{fill:#410d00;}.cls-2{fill:#b39471;}</style></defs><title>logo</title><polyline class="cls-1" points="85.43 5.45 73.91 25.69 62.39 5.45 49.1 28.8 50.93 28.8 62.39 8.67 73.84 28.8 73.97 28.8 85.43 8.67 96.89 28.8 98.72 28.8 85.43 5.45"/><path class="cls-2" d="M85.29,47.24l-9.21,18.4a67.9,67.9,0,0,1-9.14,2.67l0,.06a66.55,66.55,0,0,0,8.61-1.61L67.58,82.62h.06l9.07-16.17c20.37-5.72,24.41-19.21,8.58-19.21M77.46,65.11l8.86-15.8C96.21,49.31,93,58.85,77.46,65.11Z" transform="translate(-12.12 -47.24)"/><polyline class="cls-1" points="143.69 54.16 141.21 56.07 140.33 55.52 142.02 53.27 143.69 54.16"/><path class="cls-2" d="M17,97.54h-.49v-.9h0a2.25,2.25,0,0,1-1.91,1A2.47,2.47,0,0,1,12.12,95a2.41,2.41,0,0,1,2.45-2.59,2.31,2.31,0,0,1,1.93,1h0v-.87H17v5M12.61,95a2.05,2.05,0,0,0,2,2.19,2,2,0,0,0,2-2.25,2,2,0,0,0-2-2.07A2,2,0,0,0,12.61,95Z" transform="translate(-12.12 -47.24)"/><path class="cls-2" d="M24.7,96.63h0a2.25,2.25,0,0,1-1.91,1A2.47,2.47,0,0,1,20.29,95a2.41,2.41,0,0,1,2.45-2.59,2.31,2.31,0,0,1,1.93,1h0V88.58h.49v9H24.7v-.9m0-1.69a2,2,0,0,0-2-2.07,2.17,2.17,0,1,0,2,2.07Z" transform="translate(-12.12 -47.24)"/><polyline class="cls-2" points="18.35 49.41 20.14 45.27 20.64 45.27 18.34 50.57 16.04 45.27 16.54 45.27 18.35 49.41"/><path class="cls-2" d="M40.49,95a2.62,2.62,0,1,1-2.64-2.62A2.59,2.59,0,0,1,40.49,95m-4.76,0a2.13,2.13,0,1,0,2.09-2.17A2.13,2.13,0,0,0,35.73,95Z" transform="translate(-12.12 -47.24)"/><polyline class="cls-2" points="32.13 47.41 34.19 45.27 34.82 45.27 32.71 47.45 35.52 50.29 34.89 50.29 32.4 47.78 32.13 48.07 32.13 50.29 31.64 50.29 31.64 41.33 32.13 41.33 32.13 47.41"/><path class="cls-2" d="M54.89,97.54H54.4v-.9h0a2.25,2.25,0,0,1-1.91,1A2.47,2.47,0,0,1,50,95a2.41,2.41,0,0,1,2.46-2.59,2.31,2.31,0,0,1,1.93,1h0v-.87h.49v5M50.48,95a2,2,0,1,0,4-.05,2,2,0,0,0-2-2.07A2,2,0,0,0,50.48,95Z" transform="translate(-12.12 -47.24)"/><polyline class="cls-2" points="47.07 50.29 46.58 50.29 46.58 45.73 46.03 45.73 46.03 45.27 46.58 45.27 46.58 43.48 47.07 43.48 47.07 45.27 47.95 45.27 47.95 45.73 47.07 45.73 47.07 50.29"/><path class="cls-2" d="M65.11,93.43a1,1,0,0,0-.88-.56.85.85,0,0,0-.86.78c0,1.21,2.44.62,2.44,2.43a1.55,1.55,0,0,1-1.62,1.56,1.73,1.73,0,0,1-1.73-1.32l.48-.15a1.28,1.28,0,0,0,1.25,1,1.12,1.12,0,0,0,1.13-1.13c0-.62-.48-.82-1-1-.69-.25-1.47-.54-1.47-1.39a1.3,1.3,0,0,1,1.37-1.27,1.49,1.49,0,0,1,1.28.8l-.43.22" transform="translate(-12.12 -47.24)"/><polyline class="cls-2" points="57.53 47.41 59.59 45.27 60.22 45.27 58.12 47.45 60.93 50.29 60.29 50.29 57.8 47.78 57.53 48.07 57.53 50.29 57.04 50.29 57.04 41.33 57.53 41.33 57.53 47.41"/><path class="cls-2" d="M80.29,97.54h-.49v-.9h0a2.25,2.25,0,0,1-1.91,1A2.47,2.47,0,0,1,75.4,95a2.41,2.41,0,0,1,2.46-2.59,2.3,2.3,0,0,1,1.93,1h0v-.87h.49v5M75.89,95a2,2,0,0,0,2,2.19,2,2,0,0,0,2-2.25,2,2,0,0,0-2-2.07A2,2,0,0,0,75.89,95Z" transform="translate(-12.12 -47.24)"/><polyline class="cls-2" points="77.87 47.41 79.94 45.27 80.57 45.27 78.46 47.45 81.27 50.29 80.63 50.29 78.14 47.78 77.87 48.07 77.87 50.29 77.38 50.29 77.38 41.33 77.87 41.33 77.87 47.41"/><path class="cls-2" d="M100.64,97.54h-.49v-.9h0a2.25,2.25,0,0,1-1.91,1A2.47,2.47,0,0,1,95.74,95a2.41,2.41,0,0,1,2.45-2.59,2.31,2.31,0,0,1,1.93,1h0v-.87h.49v5M96.23,95a2.05,2.05,0,0,0,2,2.19,2,2,0,0,0,2-2.25,2,2,0,0,0-2-2.07A2,2,0,0,0,96.23,95Z" transform="translate(-12.12 -47.24)"/><path class="cls-2" d="M104.88,93.3h0a1.64,1.64,0,0,1,1.49-.89c1.29,0,1.65.8,1.65,2.1v3h-.49v-3c0-.9-.11-1.64-1.21-1.64-1.26,0-1.47,1.17-1.47,2.19v2.48h-.49v-5h.49v.78" transform="translate(-12.12 -47.24)"/><path class="cls-2" d="M115.65,93.68a2.31,2.31,0,0,0-1.77-.81,2.16,2.16,0,0,0,0,4.32,2.41,2.41,0,0,0,1.85-.9V97a2.76,2.76,0,0,1-1.82.69,2.62,2.62,0,0,1,0-5.24,2.64,2.64,0,0,1,1.75.62v.65" transform="translate(-12.12 -47.24)"/><path class="cls-2" d="M119.07,95.07a2,2,0,0,0,2,2.12A2,2,0,0,0,122.85,96l.41.24A2.48,2.48,0,0,1,118.58,95,2.47,2.47,0,0,1,121,92.41a2.44,2.44,0,0,1,2.41,2.66h-4.36m3.87-.46a1.94,1.94,0,0,0-3.87,0Z" transform="translate(-12.12 -47.24)"/><rect class="cls-2" x="114.57" y="41.33" width="0.49" height="8.96"/><path class="cls-2" d="M135.35,97.54h-.49v-.9h0a2.25,2.25,0,0,1-1.91,1A2.47,2.47,0,0,1,130.45,95a2.41,2.41,0,0,1,2.45-2.59,2.31,2.31,0,0,1,1.93,1h0v-.87h.49v5M130.94,95a2.05,2.05,0,0,0,2,2.19,2,2,0,0,0,2-2.25,2,2,0,0,0-2-2.07A2,2,0,0,0,130.94,95Z" transform="translate(-12.12 -47.24)"/><path class="cls-2" d="M139.6,93.17h0a1.14,1.14,0,0,1,1.08-.76,1.27,1.27,0,0,1,.53.12L141,93a.68.68,0,0,0-.35-.1c-1.1,0-1,1.37-1,2.11v2.56h-.49v-5h.49v.65" transform="translate(-12.12 -47.24)"/><path class="cls-2" d="M145.09,90.85a.45.45,0,0,1-.89,0,.45.45,0,1,1,.89,0m-.21,6.69h-.49v-5h.49Z" transform="translate(-12.12 -47.24)"/><path class="cls-2" d="M149.72,90.85a.45.45,0,0,1-.89,0,.45.45,0,1,1,.89,0m-.21,9.62H149v-8h.49Z" transform="translate(-12.12 -47.24)"/><path class="cls-2" d="M157.87,97.54h-.49v-.9h0a2.25,2.25,0,0,1-1.91,1A2.47,2.47,0,0,1,153,95a2.41,2.41,0,0,1,2.45-2.59,2.31,2.31,0,0,1,1.93,1h0v-.87h.49v5M153.46,95a2,2,0,1,0,4-.05,2,2,0,0,0-2-2.07A2,2,0,0,0,153.46,95Z" transform="translate(-12.12 -47.24)"/><polyline class="cls-1" points="3.72 56.94 9.56 70.44 15.43 56.94 18.68 73.93 16.85 73.93 14.79 63.06 14.74 63.06 9.56 74.59 4.4 63.06 4.36 63.06 2.29 73.93 0.46 73.93 3.72 56.94"/><rect class="cls-1" x="20.77" y="57.85" width="1.79" height="16.08"/><polyline class="cls-1" points="28.51 72.27 32.95 72.27 32.95 73.93 26.72 73.93 26.72 57.85 28.51 57.85 28.51 72.27"/><path class="cls-1" d="M62,113.16a8.38,8.38,0,1,1-8.38-8.34A8.34,8.34,0,0,1,62,113.16m-15,0a6.59,6.59,0,1,0,6.59-6.65A6.65,6.65,0,0,0,47,113.14Z" transform="translate(-12.12 -47.24)"/><path class="cls-1" d="M70.94,108.23a3,3,0,0,0-2.77-1.75A2.55,2.55,0,0,0,65.5,109c0,1.39,1.43,2,2.52,2.52l1.06.47c2.09.92,3.86,2,3.86,4.52a5.07,5.07,0,0,1-10.06.81l1.75-.49a3.31,3.31,0,0,0,3.22,3,3.23,3.23,0,0,0,3.3-3.13c0-1.88-1.45-2.54-3-3.2l-1-.43c-1.9-.83-3.5-1.81-3.5-4.12a4.22,4.22,0,0,1,4.5-4.09,4.61,4.61,0,0,1,4.16,2.5l-1.43.92" transform="translate(-12.12 -47.24)"/><path class="cls-1" d="M77.29,116.61l-1.94,4.56h-2l7.42-16.84L88,121.17h-2l-1.89-4.56H77.29m3.48-8.1L78,114.95h5.44Z" transform="translate(-12.12 -47.24)"/><polyline class="cls-1" points="80.56 70.11 85.14 57.85 87.08 57.85 80.56 74.89 74.03 57.85 75.97 57.85 80.56 70.11"/><polyline class="cls-1" points="90.32 72.27 94.75 72.27 94.75 73.93 88.52 73.93 88.52 57.85 90.32 57.85 90.32 72.27"/><path class="cls-1" d="M113.52,117.83a5.86,5.86,0,0,1-.81,3.69,3.42,3.42,0,0,1-2.77,1.32,4.52,4.52,0,0,1-2.86-1.19l1-1.39a2.61,2.61,0,0,0,1.9.92c1.75,0,1.75-2.09,1.75-3.35V105.1h1.79v12.73" transform="translate(-12.12 -47.24)"/><polyline class="cls-1" points="105.29 57.85 113.63 57.85 113.63 59.52 107.08 59.52 107.08 64.29 113.44 64.29 113.44 65.96 107.08 65.96 107.08 72.27 113.63 72.27 113.63 73.93 105.29 73.93 105.29 57.85"/><polyline class="cls-1" points="120.81 70.11 125.39 57.85 127.33 57.85 120.81 74.89 114.28 57.85 116.22 57.85 120.81 70.11"/><rect class="cls-1" x="128.52" y="57.85" width="1.79" height="16.08"/><path class="cls-1" d="M158,108.61a6.89,6.89,0,0,0-4.91-2.13,6.65,6.65,0,0,0,0,13.3,7,7,0,0,0,4.86-2.13v2.22a8.28,8.28,0,0,1-4.8,1.58,8.32,8.32,0,1,1,0-16.63,7.77,7.77,0,0,1,4.8,1.58v2.22" transform="translate(-12.12 -47.24)"/></svg>