<svg id="Layer_1" data-name="Layer 1" xmlns="http://www.w3.org/2000/svg" viewBox="0 0 100 100"><defs><style>.cls-1{fill:#fff;}.cls-2{fill:#b39471;}.cls-3,.cls-4{fill:#410d00;}.cls-4{stroke:#410d00;stroke-miterlimit:10;stroke-width:0.85px;}</style></defs><title>realestate</title><circle class="cls-1" cx="50" cy="50" r="50"/><path class="cls-2" d="M63.51,35.22l-.2-.15v-5l13.32-9.67,13.32,9.67V45.34l-12.73,0Zm25.42-4.61L76.62,21.67,64.32,30.61v3.95l13.22,9.81,11.39,0Z" transform="translate(0 -0.12)"/><path class="cls-2" d="M82.88,84.31H29.09V52.37L56,32.83l26.9,19.54ZM31,82.42H81V53.34L56,35.17,31,53.34Z" transform="translate(0 -0.12)"/><path class="cls-3" d="M51.68,79.18H36.88V54.54h14.8Zm-13.86-1.1H50.73V55.64H37.82Z" transform="translate(0 -0.12)"/><path class="cls-3" d="M73,65.27H56V54.15H73Zm-16.11-1H72.1V55.11H56.93Z" transform="translate(0 -0.12)"/><path class="cls-3" d="M75.64,35.06H69.2V29.88h6.45Zm-6.08-.67h5.71V30.55H69.57Z" transform="translate(0 -0.12)"/><path class="cls-3" d="M84.16,41.17H77.72V36h6.45Zm-6.08-.67h5.71V36.66H78.09Z" transform="translate(0 -0.12)"/><path class="cls-4" d="M76.43,20.52,61.24,31.07a.5.5,0,0,0-.12.73l.08.1A.57.57,0,0,0,62,32L77.15,21.46a.5.5,0,0,0,.12-.73l-.08-.1A.57.57,0,0,0,76.43,20.52Z" transform="translate(0 -0.12)"/><path class="cls-4" d="M77.06,20.53,92,31.42a.5.5,0,0,1,.1.73l-.08.1a.57.57,0,0,1-.77.09L76.31,21.45a.5.5,0,0,1-.1-.73l.08-.1A.57.57,0,0,1,77.06,20.53Z" transform="translate(0 -0.12)"/><path class="cls-3" d="M85.68,54.2,56.73,32.45a1,1,0,0,0-.51-.28h0a2.32,2.32,0,0,0-.46,0h0a1,1,0,0,0-.51.28L26.29,54.2a1.06,1.06,0,0,0-.21,1.48l.15.2a1.06,1.06,0,0,0,1.48.21L56,34.85,84.25,56.09a1.06,1.06,0,0,0,1.48-.21l.15-.2A1.06,1.06,0,0,0,85.68,54.2Z" transform="translate(0 -0.12)"/><path class="cls-2" d="M29.64,49,12.8,48.92V28.76L30.41,16,48,28.76v6.57l-.27.2Zm-15.5-1.38,15.07,0,17.48-13V29.44L30.41,17.62,14.13,29.44Z" transform="translate(0 -0.12)"/><path class="cls-3" d="M52.65,31.41,31,16a.79.79,0,0,0-.38-.2h-.35a.79.79,0,0,0-.38.2L8.17,31.41A.73.73,0,0,0,8,32.46l.11.14a.82.82,0,0,0,1.11.15L30.41,17.68,51.58,32.75a.82.82,0,0,0,1.11-.15l.11-.14A.73.73,0,0,0,52.65,31.41Z" transform="translate(0 -0.12)"/><path class="cls-3" d="M41.31,37.8H31.14V31.51H41.31Zm-9.5-.67h8.83V32.19H31.81Z" transform="translate(0 -0.12)"/><path class="cls-3" d="M27.63,37.8H17.46V31.51H27.63Zm-9.5-.67H27V32.19H18.13Z" transform="translate(0 -0.12)"/></svg>