<svg id="Layer_1" data-name="Layer 1" xmlns="http://www.w3.org/2000/svg" viewBox="0 0 100 100"><defs><style>.cls-1{fill:#fff;}.cls-2{fill:#b39471;}.cls-3{fill:#410d00;}.cls-4,.cls-5{fill:none;stroke:#410d00;stroke-miterlimit:10;}.cls-4{stroke-width:1.13px;}</style></defs><title>taxlaw</title><circle class="cls-1" cx="50" cy="50" r="50"/><path class="cls-2" d="M56.53,65.34a8.24,8.24,0,0,1-4.06,1,7.41,7.41,0,0,1-5.31-2.08,6.82,6.82,0,0,1-1.81-3.53H43.47V59.26h1.66c0-.33-.06-.53-.06-.71a7,7,0,0,1,.09-1H43.47V56.08h1.9a7.31,7.31,0,0,1,1.87-3.47,7.87,7.87,0,0,1,5.61-2.22,7.75,7.75,0,0,1,3.65.83l-.59,1.84a6.46,6.46,0,0,0-3.09-.71,5.12,5.12,0,0,0-3.65,1.42A4.28,4.28,0,0,0,48,56.08h7.39v1.42H47.66c0,.33-.06.65-.06.86s0,.53,0,.89h7.71v1.45H47.92a4.52,4.52,0,0,0,1.16,2.14,5,5,0,0,0,3.74,1.45,7.53,7.53,0,0,0,3.35-.77Z" transform="translate(0 -0.12)"/><polyline class="cls-3" points="14.95 37.55 50 16.88 85.06 37.55"/><polyline class="cls-1" points="18.57 36.48 50 17.95 81.43 36.48"/><rect class="cls-4" x="21.54" y="41.75" width="5" height="30.56" rx="1.28" ry="1.28"/><rect class="cls-4" x="30.08" y="41.75" width="5" height="30.56" rx="1.28" ry="1.28"/><rect class="cls-4" x="64.45" y="41.75" width="5" height="30.56" rx="1.28" ry="1.28"/><rect class="cls-4" x="72.99" y="41.75" width="5" height="30.56" rx="1.28" ry="1.28"/><rect class="cls-5" x="14.95" y="76.54" width="70.11" height="7.11" rx="1.28" ry="1.28"/></svg>